<svg width="1504" height="1021" viewBox="0 0 1504 1021" fill="none" xmlns="http://www.w3.org/2000/svg">
<path d="M141.887 46.1533C704.484 289.078 188.553 729.686 408.441 775.158C683.301 831.999 670.864 617.706 903.146 665.742C1135.43 713.778 1234.22 948.171 1361.95 974.587" stroke="#021F69" stroke-width="91.4565" stroke-linecap="round"/>
<path d="M150.111 53.5222C149.456 55.018 147.914 55.3004 146.113 54.5129C144.119 53.6406 143.316 52.2333 144.068 50.2856C144.129 50.1471 144.07 50.0554 143.959 50.0069L141.134 48.7712C141.023 48.7228 140.916 48.7418 140.855 48.8803C139.485 52.2407 141.128 54.9723 145.089 56.7047C148.33 58.1221 152.048 58.2966 153.417 55.1664C154.229 53.3105 153.741 51.711 151.616 50.1549L151.628 50.1272C153.515 50.4905 155.146 50.0818 155.922 48.309C157 45.8437 155.294 43.4808 151.832 41.9665C148.286 40.4158 145.139 40.8212 143.637 43.728C143.588 43.8388 143.635 43.9583 143.746 44.0067L146.46 45.194C146.571 45.2425 146.678 45.2234 146.767 45.097C147.563 43.7293 149.007 43.3708 150.779 44.1461C152.331 44.8246 152.961 46.0242 152.452 47.1876C151.895 48.4618 150.69 48.7268 149.111 48.0363L147.283 47.2367C147.172 47.1882 147.053 47.235 147.004 47.3458L146.241 49.0909C146.192 49.2017 146.239 49.3211 146.35 49.3696L148.178 50.1692C149.813 50.884 150.777 51.9987 150.111 53.5222Z" fill="white"/>
<path d="M169.685 52.5134C169.357 50.6977 168.243 49.2857 166.376 48.4254C162.586 46.6795 158.816 48.9371 156.931 53.0285C155.034 57.1474 155.625 61.2815 159.525 63.0781C161.447 63.9637 163.309 63.8231 164.915 62.8655L164.051 64.5976C164 64.7074 164.045 64.8278 164.154 64.8784L167.065 66.2194C167.175 66.2701 167.295 66.2256 167.346 66.1158L170.492 59.1433L173.684 52.3588C173.735 52.2489 173.691 52.1286 173.581 52.078L170.643 50.7243C170.533 50.6737 170.412 50.7181 170.362 50.8279L169.685 52.5134ZM161.468 61.2439C159.122 60.196 158.864 57.6475 160.37 54.3798C161.787 51.3044 163.853 49.9263 166.23 51.0545C168.469 52.1194 168.871 54.5685 167.3 57.9059C165.755 61.1883 163.692 62.2687 161.468 61.2439Z" fill="white"/>
<path d="M182.754 56.6066L179.525 63.3072L176.068 70.1985C176.015 70.3071 176.056 70.4285 176.165 70.4819L179.095 71.923C179.204 71.9763 179.325 71.935 179.378 71.8265L182.727 64.8817L184.982 60.3644L190.625 63.1399L188.424 67.6839L184.967 74.5753C184.914 74.6838 184.955 74.8052 185.064 74.8586L187.993 76.2997C188.102 76.3531 188.223 76.3117 188.277 76.2032L191.625 69.2584L194.962 62.6112C195.015 62.5027 194.974 62.3813 194.865 62.3279L183.037 56.5101C182.928 56.4567 182.807 56.4981 182.754 56.6066Z" fill="white"/>
<path d="M209.106 69.6368L199.201 64.5026C199.094 64.447 198.985 64.4589 198.916 64.5931C197.332 67.4503 195.112 71.3394 193.909 73.2014C192.608 75.2514 191.858 75.6461 190.784 75.0896C190.597 74.9922 190.423 74.868 190.302 74.7715C190.182 74.6751 190.074 74.6871 190.004 74.8213L189.072 76.6197C189.016 76.727 189.028 76.8354 189.095 76.904C189.334 77.1644 189.695 77.4536 190.259 77.7458C192.997 79.165 194.654 77.7423 196.466 74.9696C197.572 73.2954 199.348 70.1977 200.554 68.1328L204.822 70.3451L202.441 75.0702L199.004 81.7001C198.949 81.8075 198.987 81.9298 199.095 81.9854L202.021 83.502C202.128 83.5577 202.25 83.5189 202.306 83.4115L205.662 76.7399L209.196 69.9221C209.252 69.8147 209.213 69.6924 209.106 69.6368Z" fill="white"/>
<path d="M209.516 85.151C207.234 83.9042 206.838 81.7926 208.343 78.7221L218.346 84.1878C218.452 84.2458 218.56 84.2362 218.633 84.1035C221.131 79.4051 220.268 75.247 216.023 72.9274C211.858 70.6512 207.784 72.1803 205.435 76.4783C203.159 80.6436 203.911 84.8788 208.315 87.2855C212.003 89.3007 215.391 88.396 217.215 85.8783C217.299 85.7867 217.263 85.6636 217.157 85.6056L214.451 84.1269C214.345 84.0689 214.263 84.0929 214.178 84.1846C212.78 85.7977 211.214 86.0788 209.516 85.151ZM214.89 75.0643C216.986 76.2097 217.095 78.4055 216.213 80.3351L209.58 76.7107C211.146 74.603 212.927 73.9915 214.89 75.0643Z" fill="white"/>
<path d="M222.661 77.1283L221.574 79.0144C221.514 79.1192 221.547 79.243 221.652 79.3034L226.027 81.8244L223.532 86.2141L219.63 92.8637C219.57 92.9685 219.603 93.0923 219.708 93.1527L222.537 94.783C222.642 94.8434 222.765 94.8101 222.826 94.7053L226.623 87.9954L229.17 83.6359L233.545 86.1568C233.649 86.2172 233.773 86.1839 233.834 86.0791L234.921 84.1931C234.981 84.0883 234.948 83.9644 234.843 83.904L222.95 77.0506C222.845 76.9902 222.722 77.0235 222.661 77.1283Z" fill="white"/>
<path d="M247.965 94.1648C247.857 92.3227 246.921 90.7872 245.171 89.7086C241.619 87.5198 237.605 89.308 235.242 93.1431C232.863 97.004 232.953 101.179 236.608 103.432C238.41 104.542 240.276 104.626 241.985 103.868L240.919 105.484C240.855 105.587 240.885 105.712 240.988 105.775L243.716 107.457C243.819 107.52 243.944 107.49 244.008 107.387L247.969 100.844L251.954 94.492C252.017 94.3891 251.988 94.2643 251.885 94.2008L249.131 92.5037C249.028 92.4403 248.903 92.4699 248.839 92.5729L247.965 94.1648ZM238.758 101.844C236.555 100.522 236.606 97.9609 238.493 94.8979C240.269 92.0152 242.486 90.8954 244.71 92.301C246.805 93.6274 246.91 96.1072 244.949 99.2315C243.02 102.304 240.843 103.129 238.758 101.844Z" fill="white"/>
<path d="M264.395 102.469L258.028 105.26L256.185 104.045L259.415 99.2577C259.481 99.1568 259.456 99.0311 259.355 98.9645L256.629 97.167C256.528 97.1004 256.402 97.1262 256.336 97.2272L252.292 103.469L247.997 109.872C247.93 109.973 247.956 110.099 248.057 110.165L250.783 111.963C250.884 112.03 251.01 112.004 251.076 111.903L254.754 106.216L256.622 107.448L256.344 112.262L256.091 115.282C256.075 115.416 256.159 115.508 256.235 115.558L259.365 117.622C259.491 117.705 259.633 117.654 259.624 117.503L260.018 107.405L267.282 104.518C267.441 104.442 267.457 104.307 267.33 104.224L264.68 102.476C264.605 102.426 264.512 102.402 264.395 102.469Z" fill="white"/>
<path d="M281.444 113.618C278.117 111.202 274.681 111.509 272.464 114.047C272.393 114.145 272.431 114.247 272.529 114.318L274.926 116.059C275.024 116.13 275.109 116.117 275.222 116.012C276.706 114.586 278.373 114.452 279.914 115.571C281.651 116.832 281.819 118.711 280.447 121.114L276.264 118.076C276.166 118.005 276.039 118.025 275.968 118.123L274.831 119.689C274.76 119.787 274.78 119.913 274.878 119.984L279.11 123.058C277.062 125.569 275.093 126.119 273.209 124.751C271.448 123.472 271.16 121.656 272.364 119.69C272.428 119.55 272.39 119.448 272.292 119.377L269.846 117.6C269.748 117.529 269.621 117.55 269.575 117.665C267.759 120.68 268.443 124.317 271.721 126.697C275.611 129.522 279.751 128.606 282.647 124.618C285.543 120.631 285.285 116.408 281.444 113.618Z" fill="white"/>
<path d="M289.746 120.364L288.408 122.081C288.334 122.176 288.349 122.303 288.445 122.378L292.428 125.481L289.348 129.482L284.562 135.527C284.488 135.622 284.503 135.749 284.599 135.824L287.175 137.831C287.27 137.905 287.397 137.889 287.472 137.794L292.162 131.675L295.289 127.711L299.272 130.814C299.368 130.888 299.495 130.873 299.569 130.777L300.907 129.06C300.981 128.965 300.966 128.837 300.87 128.763L290.043 120.327C289.947 120.252 289.82 120.268 289.746 120.364Z" fill="white"/>
<path d="M297.56 146.663C301.339 149.826 305.545 149.089 308.689 145.333C311.852 141.554 311.799 137.33 308.02 134.167C304.264 131.024 300.036 131.742 296.873 135.521C293.709 139.3 293.805 143.52 297.56 146.663ZM299.132 144.785C297.092 143.078 297.295 140.763 299.701 137.889C302.088 135.037 304.366 134.341 306.448 136.045C308.465 137.734 308.162 140.121 305.775 142.973C303.369 145.848 301.172 146.493 299.132 144.785Z" fill="white"/>
<path d="M323.042 157.61C324.783 158.627 326.411 158.707 327.696 157.342C329.5 155.427 328.7 153.013 325.817 150.298L320.909 145.675C320.821 145.592 320.693 145.596 320.61 145.684L315.555 151.14L310.225 156.711C310.142 156.799 310.146 156.927 310.234 157.01L315.186 161.674C316.969 163.353 320.357 165.796 322.99 163.001C324.399 161.505 324.52 159.833 323.021 157.632L323.042 157.61ZM324.115 152.017C325.259 153.095 325.594 154.282 324.724 155.207C323.812 156.175 322.671 155.931 321.504 154.833L319.061 152.532L321.694 149.737L324.115 152.017ZM317.444 154.249L319.887 156.549C321.098 157.689 321.612 159.128 320.534 160.273C319.456 161.417 318.099 161.094 316.778 159.851L314.357 157.571L317.444 154.249Z" fill="white"/>
<path d="M339.608 166.712C339.958 164.9 339.429 163.181 337.998 161.704C335.095 158.708 330.764 159.452 327.529 162.587C324.272 165.742 323.331 169.811 326.318 172.894C327.791 174.414 329.578 174.956 331.422 174.643L329.99 175.946C329.904 176.03 329.902 176.158 329.986 176.245L332.216 178.547C332.3 178.634 332.428 178.636 332.515 178.551L337.966 173.185L343.393 168.012C343.48 167.927 343.482 167.799 343.398 167.712L341.147 165.389C341.063 165.302 340.935 165.3 340.848 165.384L339.608 166.712ZM328.793 171.886C326.983 170.061 327.664 167.592 330.248 165.088C332.68 162.732 335.104 162.193 336.913 164.103C338.616 165.905 338.107 168.334 335.437 170.879C332.811 173.382 330.497 173.645 328.793 171.886Z" fill="white"/>
<path d="M333.059 187.02L335.078 189.311C335.158 189.402 335.286 189.41 335.374 189.372L355.211 181.199C355.342 181.164 355.393 181.039 355.293 180.926L353.134 178.476C353.054 178.385 352.948 178.357 352.838 178.415L342.539 183.098L348.06 172.993C348.131 172.891 348.116 172.783 348.036 172.692L345.618 169.948C345.518 169.834 345.39 169.826 345.316 169.971L337.846 184.816L333.14 186.747C333.01 186.781 332.959 186.907 333.059 187.02Z" fill="white"/>
<path d="M359.412 203.563C358.112 204.55 356.627 204.045 355.439 202.479C354.123 200.746 354.107 199.125 355.714 197.792C355.835 197.7 355.828 197.591 355.755 197.495L353.89 195.039C353.817 194.942 353.714 194.907 353.594 194.998C350.759 197.264 350.862 200.45 353.476 203.894C355.615 206.711 358.776 208.676 361.498 206.611C363.111 205.386 363.464 203.751 362.368 201.357L362.392 201.339C363.863 202.576 365.486 203.014 367.027 201.844C369.17 200.217 368.833 197.323 366.548 194.313C364.208 191.23 361.263 190.05 358.534 191.856C358.438 191.929 358.42 192.056 358.493 192.152L360.285 194.512C360.358 194.608 360.461 194.644 360.6 194.577C361.962 193.771 363.397 194.161 364.567 195.703C365.59 197.051 365.556 198.406 364.545 199.174C363.437 200.015 362.256 199.659 361.214 198.286L360.007 196.697C359.934 196.6 359.807 196.583 359.711 196.656L358.194 197.808C358.097 197.881 358.08 198.008 358.153 198.104L359.359 199.693C360.438 201.114 360.736 202.558 359.412 203.563Z" fill="white"/>
<path d="M377.878 214.229C378.544 212.508 378.329 210.723 377.184 209.016C374.859 205.551 370.465 205.514 366.724 208.024C362.958 210.551 361.31 214.388 363.702 217.953C364.881 219.71 366.544 220.561 368.414 220.58L366.773 221.608C366.673 221.675 366.648 221.801 366.715 221.902L368.501 224.563C368.568 224.663 368.694 224.688 368.795 224.621L375.113 220.309L381.373 216.181C381.473 216.114 381.498 215.988 381.43 215.888L379.628 213.201C379.561 213.101 379.435 213.076 379.334 213.143L377.878 214.229ZM366.316 217.4C364.859 215.283 365.968 212.974 368.955 210.969C371.767 209.082 374.249 208.983 375.689 211.184C377.045 213.259 376.113 215.56 373.033 217.59C370.004 219.586 367.681 219.434 366.316 217.4Z" fill="white"/>
<path d="M383.681 219.697L377.302 223.521L370.627 227.379C370.523 227.44 370.491 227.565 370.552 227.669L372.208 230.483C372.269 230.587 372.394 230.619 372.498 230.558L379.112 226.596L383.478 224.061L386.668 229.481L382.332 232.068L375.657 235.926C375.552 235.987 375.52 236.111 375.582 236.215L377.238 239.029C377.299 239.134 377.423 239.166 377.527 239.105L384.141 235.142L390.582 231.422C390.686 231.361 390.718 231.237 390.657 231.133L383.971 219.772C383.91 219.668 383.786 219.636 383.681 219.697Z" fill="white"/>
<path d="M399.262 247.478L394.184 237.545C394.129 237.437 394.033 237.384 393.899 237.453C390.95 238.858 386.883 240.733 384.822 241.55C382.572 242.462 381.733 242.348 381.182 241.271C381.086 241.083 381.016 240.88 380.975 240.732C380.933 240.584 380.838 240.53 380.703 240.599L378.899 241.521C378.792 241.576 378.738 241.671 378.753 241.766C378.796 242.117 378.922 242.562 379.211 243.127C380.615 245.873 382.79 245.678 385.876 244.474C387.749 243.754 390.994 242.265 393.176 241.286L395.364 245.566L390.68 248.028L384.031 251.427C383.923 251.482 383.884 251.604 383.939 251.712L385.439 254.646C385.494 254.754 385.616 254.793 385.724 254.738L392.332 251.259L399.169 247.763C399.277 247.708 399.317 247.586 399.262 247.478Z" fill="white"/>
<path d="M391.261 262.408C390.216 260.027 391.192 258.113 394.26 256.602L398.84 267.039C398.888 267.15 398.98 267.209 399.118 267.148C403.967 264.955 405.824 261.136 403.88 256.706C401.973 252.359 397.814 251.081 393.329 253.048C388.982 254.955 386.99 258.768 389.006 263.364C390.695 267.212 393.93 268.566 396.912 267.687C397.035 267.666 397.081 267.547 397.033 267.436L395.794 264.612C395.745 264.501 395.665 264.47 395.543 264.491C393.45 264.914 392.038 264.179 391.261 262.408ZM401.678 257.705C402.637 259.893 401.382 261.698 399.505 262.686L396.468 255.765C398.995 255.052 400.779 255.657 401.678 257.705Z" fill="white"/>
<path d="M407.47 266.463L405.429 267.22C405.316 267.262 405.263 267.379 405.305 267.492L407.06 272.226L402.336 274.01L395.087 276.634C394.973 276.676 394.92 276.792 394.962 276.906L396.097 279.967C396.139 280.08 396.256 280.134 396.369 280.092L403.577 277.355L408.321 275.628L410.077 280.362C410.119 280.475 410.235 280.529 410.349 280.487L412.39 279.73C412.503 279.688 412.557 279.571 412.515 279.458L407.742 266.588C407.7 266.475 407.584 266.421 407.47 266.463Z" fill="white"/>
<path d="M414.362 292.024C415.496 290.568 415.806 288.797 415.203 286.832C413.978 282.843 409.782 281.538 405.476 282.861C401.141 284.192 398.454 287.389 399.714 291.493C400.335 293.516 401.682 294.811 403.466 295.37L401.599 295.88C401.483 295.916 401.423 296.029 401.459 296.144L402.399 299.208C402.435 299.324 402.548 299.384 402.664 299.348L409.958 297.045L417.143 294.902C417.259 294.866 417.319 294.753 417.284 294.637L416.334 291.545C416.298 291.429 416.185 291.369 416.07 291.405L414.362 292.024ZM402.377 291.719C401.593 289.272 403.322 287.381 406.761 286.325C409.998 285.331 412.403 285.952 413.146 288.475C413.845 290.854 412.288 292.787 408.753 293.841C405.276 294.877 403.096 294.06 402.377 291.719Z" fill="white"/>
<path d="M420.187 306.456L413.615 304.189L413.085 302.046L418.705 300.718C418.822 300.689 418.889 300.579 418.86 300.462L418.076 297.292C418.046 297.175 417.937 297.108 417.819 297.137L410.614 298.982L403.115 300.775C402.998 300.804 402.932 300.914 402.961 301.031L403.745 304.201C403.774 304.318 403.884 304.384 404.001 304.355L410.561 302.67L411.098 304.842L407.629 308.192L405.395 310.24C405.292 310.327 405.291 310.452 405.313 310.54L406.213 314.179C406.25 314.326 406.389 314.385 406.485 314.268L413.622 307.114L420.919 309.919C421.087 309.97 421.19 309.883 421.154 309.736L420.392 306.654C420.37 306.566 420.319 306.486 420.187 306.456Z" fill="white"/>
<path d="M425.146 328.348C424.493 324.289 421.84 322.082 418.479 322.318C418.36 322.337 418.314 322.436 418.334 322.555L418.805 325.481C418.824 325.6 418.893 325.65 419.047 325.656C421.105 325.692 422.382 326.772 422.684 328.653C423.026 330.772 421.82 332.222 419.152 332.958L418.33 327.854C418.311 327.734 418.207 327.659 418.087 327.679L416.177 327.986C416.057 328.006 415.982 328.11 416.002 328.229L416.833 333.393C413.611 333.728 411.827 332.729 411.457 330.431C411.11 328.282 412.187 326.792 414.427 326.247C414.571 326.193 414.616 326.094 414.597 325.975L414.116 322.99C414.097 322.87 413.993 322.795 413.879 322.844C410.464 323.701 408.385 326.761 409.029 330.761C409.794 335.507 413.375 337.778 418.24 336.994C423.106 336.21 425.901 333.034 425.146 328.348Z" fill="white"/>
<path d="M426.04 337.539L423.876 337.778C423.756 337.792 423.676 337.892 423.689 338.012L424.244 343.03L419.229 343.616L411.56 344.404C411.44 344.417 411.36 344.517 411.373 344.637L411.732 347.883C411.745 348.003 411.846 348.083 411.966 348.07L419.622 347.162L424.644 346.636L425.199 351.655C425.212 351.775 425.312 351.855 425.433 351.842L427.596 351.602C427.716 351.589 427.797 351.489 427.783 351.369L426.273 337.726C426.26 337.606 426.16 337.526 426.04 337.539Z" fill="white"/>
<path d="M412.515 361.01C412.828 365.929 416.261 368.467 421.149 368.156C426.067 367.844 429.091 364.895 428.778 359.977C428.467 355.089 425.032 352.52 420.114 352.833C415.196 353.145 412.204 356.122 412.515 361.01ZM414.959 360.855C414.79 358.2 416.607 356.751 420.348 356.514C424.059 356.278 426.133 357.448 426.334 360.132C426.501 362.757 424.562 364.183 420.851 364.419C417.109 364.657 415.128 363.51 414.959 360.855Z" fill="white"/>
<path d="M429.017 389.968L423.22 386.131L423.241 383.924L429.015 384.042C429.136 384.043 429.228 383.953 429.229 383.832L429.261 380.567C429.262 380.446 429.172 380.354 429.051 380.353L421.614 380.34L413.905 380.204C413.784 380.203 413.693 380.293 413.692 380.414L413.659 383.679C413.658 383.8 413.748 383.891 413.869 383.892L420.641 383.899L420.619 386.136L416.424 388.513L413.749 389.938C413.627 389.997 413.596 390.118 413.595 390.209L413.558 393.958C413.557 394.109 413.677 394.201 413.798 394.111L422.496 388.966L428.861 393.504C429.012 393.596 429.133 393.537 429.135 393.385L429.166 390.211C429.167 390.12 429.138 390.029 429.017 389.968Z" fill="white"/>
<path d="M428.285 411.89L428.886 400.75C428.892 400.629 428.837 400.535 428.686 400.527C425.43 400.261 420.972 399.839 418.779 399.509C416.375 399.167 415.707 398.647 415.772 397.439C415.784 397.228 415.825 397.018 415.863 396.869C415.902 396.72 415.846 396.626 415.695 396.618L413.673 396.509C413.552 396.502 413.458 396.558 413.423 396.647C413.284 396.972 413.169 397.42 413.135 398.054C412.969 401.133 414.948 402.058 418.221 402.567C420.202 402.886 423.756 403.229 426.135 403.478L425.876 408.278L420.589 408.054L413.133 407.652C413.012 407.645 412.916 407.731 412.91 407.852L412.732 411.143C412.726 411.263 412.812 411.359 412.932 411.365L420.394 411.677L428.062 412.09C428.183 412.097 428.278 412.011 428.285 411.89Z" fill="white"/>
<path d="M425.042 425.805C426.647 424.894 427.61 423.375 427.802 421.328C428.194 417.174 424.814 414.366 420.329 413.943C415.814 413.518 412.11 415.447 411.707 419.721C411.509 421.828 412.259 423.538 413.694 424.737L411.774 424.495C411.653 424.484 411.554 424.565 411.543 424.686L411.243 427.876C411.231 427.997 411.313 428.096 411.433 428.107L419.055 428.764L426.514 429.527C426.634 429.539 426.733 429.457 426.744 429.337L427.048 426.116C427.059 425.995 426.977 425.897 426.857 425.885L425.042 425.805ZM414.082 420.947C414.293 418.385 416.612 417.298 420.194 417.635C423.565 417.953 425.55 419.446 425.273 422.062C425.011 424.527 422.834 425.719 419.164 425.343C415.555 424.973 413.852 423.385 414.082 420.947Z" fill="white"/>
<path d="M409.841 436.43C409.329 440.479 411.511 443.467 414.983 444.211C415.103 444.226 415.174 444.144 415.189 444.024L415.569 441.024C415.584 440.904 415.535 440.807 415.389 440.758C413.136 440.26 411.979 438.803 412.26 436.827C412.627 434.161 414.646 433.137 418.395 433.611C422.055 434.073 423.845 435.58 423.538 438.253C423.318 439.993 422.079 441.116 420.023 441.222C419.87 441.233 419.802 441.285 419.787 441.405L419.415 444.345C419.4 444.465 419.479 444.566 419.602 444.551C422.974 444.642 425.504 442.463 425.997 438.564C426.612 433.705 423.721 430.536 418.832 429.918C413.943 429.299 410.444 431.661 409.841 436.43Z" fill="white"/>
<path d="M407.415 453.398C406.771 457.429 408.853 460.487 412.299 461.344C412.418 461.363 412.492 461.283 412.511 461.164L412.989 458.178C413.008 458.059 412.962 457.96 412.818 457.906C410.582 457.334 409.474 455.84 409.819 453.875C410.274 451.223 412.325 450.265 416.057 450.861C419.699 451.444 421.439 453.008 421.044 455.67C420.767 457.401 419.492 458.483 417.434 458.522C417.28 458.528 417.211 458.578 417.192 458.697L416.724 461.623C416.705 461.743 416.78 461.846 416.904 461.836C420.271 462.037 422.872 459.942 423.492 456.061C424.266 451.225 421.481 447.963 416.614 447.185C411.748 446.406 408.174 448.652 407.415 453.398Z" fill="white"/>
<path d="M407.264 478.771L419.241 476.92C419.366 476.914 419.443 476.837 419.467 476.719L420.269 472.779C420.293 472.66 420.223 472.553 420.104 472.529L412.597 471.063L405.261 469.509C405.143 469.485 405.036 469.555 405.012 469.674L404.517 472.103C404.493 472.222 404.564 472.329 404.682 472.353L411.562 473.722L414.803 474.32L416.119 474.526L403.821 476.435C403.696 476.441 403.619 476.517 403.595 476.636L403.155 478.799C403.131 478.917 403.172 479.018 403.284 479.072L413.675 485.475L412.608 485.258L409.361 484.535L402.488 483.137C402.37 483.113 402.263 483.183 402.238 483.302L401.63 486.294C401.605 486.413 401.676 486.52 401.795 486.544L409.148 488.009L416.638 489.564C416.756 489.588 416.863 489.517 416.887 489.399L417.695 485.429C417.719 485.311 417.678 485.21 417.565 485.156L407.264 478.771Z" fill="white"/>
<path d="M415.315 496.595L416.058 493.416C416.085 493.298 416.018 493.189 415.9 493.161L408.533 491.471L401.098 489.671C400.981 489.643 400.872 489.711 400.844 489.829L400.06 493.185L400.089 493.192L399.573 495.4C398.541 499.816 399.551 502.536 402.907 503.32C406.234 504.098 408.308 502.13 409.347 497.684L409.856 495.506L415.06 496.753C415.178 496.781 415.287 496.713 415.315 496.595ZM405.184 505.001L397.956 503.25C397.838 503.222 397.729 503.29 397.702 503.408L396.959 506.587C396.931 506.705 396.999 506.814 397.116 506.841L404.372 508.475L411.866 510.289C411.984 510.316 412.093 510.248 412.12 510.131L412.863 506.951C412.891 506.833 412.823 506.724 412.705 506.697L405.184 505.001ZM407.508 494.926L406.985 497.163C406.462 499.401 405.307 500.093 403.658 499.708C401.921 499.302 401.454 497.982 401.921 495.98L402.444 493.742L407.508 494.926Z" fill="white"/>
<path d="M395.941 529.114C394.363 528.696 393.848 527.215 394.351 525.315C394.908 523.211 396.175 522.202 398.215 522.648C398.362 522.686 398.443 522.614 398.474 522.497L399.263 519.516C399.294 519.399 399.259 519.296 399.113 519.257C395.582 518.417 393.134 520.459 392.028 524.638C391.123 528.058 391.52 531.759 394.823 532.633C396.781 533.151 398.287 532.424 399.499 530.087L399.529 530.094C399.458 532.015 400.112 533.564 401.982 534.059C404.584 534.747 406.658 532.7 407.624 529.047C408.614 525.306 407.732 522.257 404.63 521.218C404.513 521.187 404.402 521.251 404.371 521.368L403.613 524.232C403.582 524.349 403.617 524.452 403.756 524.52C405.229 525.098 405.804 526.47 405.309 528.34C404.876 529.977 403.787 530.783 402.56 530.459C401.215 530.103 400.769 528.953 401.21 527.287L401.72 525.358C401.751 525.241 401.687 525.13 401.57 525.099L399.728 524.612C399.612 524.581 399.501 524.645 399.47 524.762L398.959 526.691C398.503 528.416 397.549 529.539 395.941 529.114Z" fill="white"/>
<path d="M400.125 547.586C401.865 546.972 403.082 545.648 403.634 543.668C404.754 539.649 401.925 536.286 397.586 535.077C393.217 533.859 389.23 535.102 388.077 539.237C387.509 541.276 387.944 543.092 389.146 544.525L387.298 543.947C387.181 543.915 387.07 543.978 387.037 544.094L386.177 547.181C386.144 547.298 386.207 547.41 386.324 547.442L393.708 549.438L400.914 551.509C401.031 551.542 401.143 551.479 401.175 551.362L402.044 548.246C402.076 548.13 402.013 548.018 401.897 547.986L400.125 547.586ZM390.198 540.864C390.858 538.38 393.334 537.721 396.799 538.687C400.061 539.596 401.751 541.416 401.015 543.942C400.32 546.322 397.966 547.11 394.422 546.09C390.935 545.087 389.54 543.223 390.198 540.864Z" fill="white"/>
<path d="M399.757 555.583L392.597 553.569L385.209 551.363C385.093 551.33 384.981 551.391 384.947 551.508L384.037 554.644C384.004 554.76 384.066 554.872 384.182 554.906L391.603 556.995L396.444 558.431L394.692 564.471L389.834 563.093L382.447 560.887C382.331 560.854 382.218 560.915 382.184 561.032L381.275 564.168C381.241 564.284 381.303 564.396 381.419 564.43L388.84 566.519L395.967 568.649C396.083 568.683 396.195 568.621 396.229 568.505L399.901 555.845C399.935 555.729 399.873 555.617 399.757 555.583Z" fill="white"/>
<path d="M391.493 584.542L394.658 573.844C394.692 573.728 394.66 573.624 394.515 573.581C391.409 572.568 387.17 571.125 385.114 570.296C382.854 569.407 382.325 568.746 382.668 567.586C382.728 567.383 382.817 567.189 382.888 567.052C382.96 566.916 382.928 566.812 382.783 566.769L380.841 566.195C380.725 566.16 380.621 566.193 380.566 566.271C380.356 566.556 380.14 566.965 379.96 567.574C379.085 570.531 380.796 571.888 383.862 573.142C385.715 573.911 389.094 575.067 391.35 575.861L389.986 580.47L384.895 579.028L377.734 576.91C377.618 576.875 377.506 576.937 377.471 577.053L376.537 580.213C376.503 580.329 376.564 580.441 376.68 580.476L383.866 582.507L391.23 584.685C391.346 584.719 391.459 584.658 391.493 584.542Z" fill="white"/>
<path d="M375.494 591.036C376.234 588.543 378.216 587.712 381.534 588.54L378.288 599.466C378.254 599.582 378.286 599.686 378.431 599.73C383.549 601.187 387.434 599.47 388.811 594.833C390.162 590.283 387.812 586.62 383.117 585.226C378.567 583.874 374.584 585.498 373.155 590.309C371.958 594.338 373.554 597.461 376.398 598.716C376.506 598.779 376.618 598.718 376.653 598.602L377.531 595.646C377.565 595.53 377.524 595.455 377.417 595.391C375.547 594.363 374.943 592.89 375.494 591.036ZM386.484 594.173C385.804 596.463 383.68 597.031 381.608 596.573L383.76 589.327C386.149 590.415 387.121 592.029 386.484 594.173Z" fill="white"/>
<path d="M385.381 604.351L383.291 603.74C383.175 603.706 383.063 603.768 383.029 603.884L381.612 608.73L376.758 607.343L369.375 605.122C369.258 605.088 369.146 605.149 369.112 605.265L368.196 608.4C368.162 608.516 368.224 608.628 368.34 608.662L375.757 610.767L380.594 612.212L379.178 617.059C379.144 617.175 379.206 617.287 379.322 617.321L381.411 617.932C381.527 617.966 381.64 617.904 381.674 617.788L385.524 604.613C385.558 604.497 385.497 604.385 385.381 604.351Z" fill="white"/>
<path d="M376.329 629.223C378.071 628.614 379.29 627.292 379.846 625.313C380.975 621.296 378.153 617.928 373.816 616.709C369.45 615.482 365.46 616.717 364.299 620.85C363.726 622.887 364.158 624.704 365.356 626.14L363.51 625.558C363.393 625.526 363.281 625.589 363.249 625.705L362.382 628.79C362.349 628.907 362.412 629.018 362.528 629.051L369.908 631.062L377.11 633.149C377.227 633.181 377.339 633.119 377.371 633.002L378.246 629.888C378.279 629.771 378.216 629.66 378.1 629.627L376.329 629.223ZM366.416 622.481C367.082 619.999 369.558 619.344 373.022 620.317C376.282 621.233 377.967 623.057 377.227 625.582C376.527 627.96 374.172 628.743 370.629 627.716C367.144 626.705 365.753 624.838 366.416 622.481Z" fill="white"/>
<path d="M373.747 646.084L369.049 640.959L369.604 638.823L375.178 640.334C375.295 640.364 375.406 640.299 375.436 640.182L376.257 637.022C376.288 636.905 376.223 636.794 376.106 636.764L368.892 634.952L361.445 632.955C361.328 632.925 361.218 632.99 361.187 633.107L360.366 636.267C360.336 636.384 360.401 636.495 360.518 636.525L367.088 638.169L366.525 640.335L361.879 641.627L358.939 642.362C358.807 642.39 358.747 642.5 358.724 642.588L357.781 646.216C357.743 646.362 357.838 646.481 357.977 646.423L367.662 643.535L372.74 649.477C372.864 649.603 372.996 649.575 373.034 649.429L373.832 646.356C373.855 646.268 373.848 646.173 373.747 646.084Z" fill="white"/>
<path d="M357.388 666.085L369.365 664.231C369.489 664.225 369.567 664.148 369.591 664.03L370.392 660.089C370.416 659.971 370.345 659.864 370.226 659.84L362.719 658.375L355.383 656.823C355.264 656.798 355.158 656.869 355.133 656.988L354.64 659.417C354.615 659.536 354.686 659.643 354.805 659.667L361.684 661.034L364.926 661.632L366.242 661.837L353.944 663.749C353.819 663.755 353.742 663.832 353.718 663.95L353.278 666.113C353.254 666.232 353.296 666.333 353.408 666.386L363.8 672.787L362.733 672.57L359.486 671.849L352.613 670.451C352.494 670.427 352.387 670.498 352.363 670.617L351.755 673.609C351.731 673.727 351.801 673.834 351.92 673.858L359.274 675.322L366.763 676.876C366.882 676.9 366.989 676.829 367.013 676.711L367.82 672.74C367.844 672.622 367.803 672.521 367.69 672.467L357.388 666.085Z" fill="white"/>
<path d="M366.025 682.815L366.43 679.575C366.445 679.455 366.366 679.353 366.246 679.338L358.743 678.431L351.16 677.422C351.04 677.407 350.939 677.486 350.924 677.606L350.496 681.026L350.526 681.03L350.245 683.28C349.683 687.78 350.973 690.378 354.393 690.806C357.783 691.23 359.639 689.055 360.205 684.525L360.483 682.305L365.789 682.998C365.909 683.013 366.01 682.935 366.025 682.815ZM356.834 692.238L349.461 691.256C349.341 691.241 349.24 691.32 349.225 691.44L348.82 694.68C348.805 694.8 348.884 694.901 349.004 694.916L356.391 695.778L364.034 696.795C364.154 696.81 364.255 696.731 364.27 696.611L364.675 693.371C364.69 693.251 364.611 693.15 364.491 693.135L356.834 692.238ZM358.086 681.975L357.801 684.255C357.516 686.535 356.44 687.345 354.76 687.135C352.99 686.913 352.386 685.65 352.641 683.61L352.926 681.33L358.086 681.975Z" fill="white"/>
<path d="M353.332 718.669C351.703 718.775 350.743 717.534 350.616 715.573C350.475 713.401 351.356 712.041 353.432 711.815C353.582 711.805 353.637 711.711 353.629 711.59L353.429 708.513C353.421 708.392 353.355 708.306 353.204 708.315C349.59 708.641 347.918 711.356 348.198 715.67C348.428 719.2 349.981 722.583 353.39 722.361C355.412 722.23 356.608 721.061 357.015 718.46L357.045 718.458C357.589 720.301 358.701 721.562 360.632 721.436C363.317 721.261 364.632 718.661 364.387 714.89C364.136 711.028 362.33 708.419 359.058 708.42C358.938 708.427 358.853 708.524 358.861 708.644L359.053 711.601C359.061 711.722 359.127 711.808 359.28 711.829C360.86 711.908 361.842 713.026 361.968 714.956C362.077 716.646 361.301 717.757 360.034 717.839C358.646 717.929 357.858 716.981 357.746 715.261L357.616 713.27C357.608 713.149 357.512 713.065 357.391 713.073L355.491 713.196C355.37 713.204 355.285 713.3 355.293 713.421L355.423 715.412C355.538 717.192 354.991 718.561 353.332 718.669Z" fill="white"/>
<path d="M365.002 732.991C366.192 731.581 366.57 729.823 366.043 727.836C364.973 723.803 360.831 722.337 356.476 723.492C352.093 724.655 349.285 727.746 350.386 731.896C350.928 733.941 352.224 735.287 353.985 735.914L352.1 736.352C351.983 736.383 351.918 736.494 351.949 736.611L352.771 739.708C352.802 739.825 352.913 739.89 353.03 739.859L360.408 737.839L367.671 735.974C367.787 735.943 367.852 735.832 367.821 735.716L366.991 732.589C366.96 732.472 366.849 732.407 366.732 732.438L365.002 732.991ZM353.038 732.224C352.35 729.748 354.149 727.926 357.627 727.003C360.9 726.135 363.279 726.849 363.924 729.399C364.531 731.803 362.9 733.674 359.327 734.591C355.813 735.492 353.666 734.592 353.038 732.224Z" fill="white"/>
<path d="M368.305 738.631L362.086 742.71L355.572 746.835C355.471 746.9 355.444 747.026 355.509 747.128L357.278 749.872C357.343 749.974 357.469 750.001 357.57 749.936L364.018 745.709L368.279 743L371.685 748.286L367.457 751.046L360.944 755.171C360.842 755.237 360.815 755.362 360.88 755.464L362.649 758.208C362.714 758.31 362.84 758.337 362.941 758.272L369.389 754.045L375.674 750.068C375.776 750.002 375.803 749.877 375.738 749.775L368.598 738.694C368.532 738.593 368.407 738.565 368.305 738.631Z" fill="white"/>
<path d="M386.361 759.272L377.777 752.147C377.683 752.07 377.575 752.058 377.478 752.175C375.323 754.629 372.326 757.957 370.753 759.52C369.046 761.246 368.229 761.472 367.299 760.699C367.136 760.564 366.993 760.406 366.896 760.286C366.799 760.166 366.69 760.155 366.594 760.271L365.3 761.83C365.223 761.923 365.211 762.031 365.262 762.112C365.44 762.418 365.731 762.777 366.22 763.183C368.593 765.152 370.515 764.115 372.875 761.792C374.313 760.391 376.707 757.743 378.326 755.982L382.025 759.052L378.692 763.162L373.923 768.908C373.846 769.001 373.857 769.129 373.951 769.206L376.486 771.311C376.579 771.388 376.707 771.377 376.784 771.283L381.484 765.479L386.389 759.57C386.466 759.477 386.454 759.35 386.361 759.272Z" fill="white"/>
<path d="M387.82 775.351C385.466 774.248 384.939 772.165 386.251 769.007L396.573 773.841C396.683 773.892 396.79 773.876 396.854 773.739C399.056 768.895 397.937 764.798 393.556 762.747C389.258 760.734 385.286 762.513 383.209 766.948C381.196 771.247 382.209 775.427 386.754 777.556C390.56 779.338 393.886 778.225 395.55 775.599C395.628 775.502 395.585 775.381 395.475 775.33L392.682 774.022C392.573 773.971 392.492 774 392.414 774.097C391.118 775.794 389.573 776.171 387.82 775.351ZM392.558 764.95C394.721 765.963 394.966 768.148 394.205 770.128L387.361 766.923C388.792 764.722 390.532 764.001 392.558 764.95Z" fill="white"/>
<path d="M401.907 767.209L401.339 769.31C401.307 769.427 401.371 769.538 401.488 769.57L406.362 770.887L405.074 775.769L403.003 783.196C402.971 783.313 403.035 783.424 403.152 783.455L406.304 784.308C406.421 784.339 406.532 784.275 406.564 784.159L408.517 776.7L409.864 771.834L414.738 773.152C414.855 773.184 414.966 773.12 414.998 773.003L415.566 770.902C415.598 770.785 415.534 770.674 415.417 770.642L402.167 767.06C402.05 767.028 401.939 767.092 401.907 767.209Z" fill="white"/>
<path d="M427.616 774.964C426.855 773.282 425.431 772.184 423.411 771.804C419.311 771.032 416.203 774.139 415.371 778.567C414.532 783.023 416.112 786.889 420.331 787.683C422.411 788.074 424.183 787.485 425.508 786.165L425.091 788.056C425.069 788.175 425.141 788.28 425.26 788.303L428.409 788.895C428.528 788.918 428.634 788.845 428.656 788.727L430.011 781.198L431.457 773.841C431.479 773.722 431.407 773.616 431.288 773.594L428.109 772.995C427.99 772.973 427.884 773.045 427.862 773.164L427.616 774.964ZM421.77 785.431C419.239 784.986 418.369 782.576 419.035 779.041C419.661 775.713 421.33 773.873 423.909 774.389C426.34 774.878 427.326 777.155 426.615 780.774C425.914 784.334 424.177 785.884 421.77 785.431Z" fill="white"/>
<path d="M444.325 775.87L439.704 781.064L437.522 780.73L438.458 775.031C438.477 774.911 438.401 774.808 438.281 774.79L435.054 774.294C434.934 774.276 434.831 774.352 434.812 774.471L433.744 781.832L432.514 789.443C432.496 789.563 432.572 789.666 432.692 789.684L435.919 790.18C436.038 790.198 436.142 790.122 436.16 790.003L437.128 783.3L439.339 783.639L441.097 788.13L442.128 790.98C442.169 791.109 442.284 791.157 442.374 791.17L446.079 791.739C446.229 791.762 446.337 791.656 446.265 791.523L442.407 782.183L447.803 776.526C447.915 776.391 447.874 776.262 447.724 776.239L444.587 775.758C444.497 775.744 444.403 775.76 444.325 775.87Z" fill="white"/>
<path d="M466.098 790.062L462.958 778.357C462.939 778.233 462.854 778.165 462.734 778.154L458.729 777.785C458.609 777.773 458.51 777.855 458.499 777.976L457.857 785.598L457.108 793.059C457.097 793.179 457.179 793.278 457.299 793.289L459.768 793.517C459.889 793.528 459.987 793.446 459.998 793.325L460.612 786.338L460.855 783.051L460.917 781.721L464.15 793.739C464.169 793.862 464.254 793.93 464.374 793.942L466.572 794.144C466.692 794.155 466.788 794.103 466.83 793.986L472.067 782.962L471.967 784.045L471.601 787.352L470.957 794.336C470.946 794.456 471.028 794.555 471.148 794.566L474.189 794.847C474.309 794.858 474.408 794.776 474.419 794.655L475.078 787.186L475.81 779.572C475.821 779.452 475.739 779.353 475.619 779.342L471.585 778.97C471.464 778.959 471.368 779.011 471.327 779.129L466.098 790.062Z" fill="white"/>
<path d="M483.4 779.824L480.137 779.708C480.016 779.703 479.922 779.791 479.918 779.912L479.679 787.466L479.346 795.108C479.342 795.229 479.429 795.323 479.55 795.327L482.995 795.45L482.996 795.42L485.262 795.501C489.794 795.662 492.268 794.147 492.391 790.702C492.513 787.288 490.182 785.632 485.619 785.469L483.383 785.39L483.604 780.043C483.608 779.922 483.521 779.828 483.4 779.824ZM493.601 788.144L493.276 795.574C493.272 795.695 493.359 795.789 493.48 795.793L496.743 795.909C496.864 795.914 496.958 795.826 496.962 795.706L497.167 788.271L497.502 780.568C497.506 780.447 497.418 780.353 497.298 780.349L494.034 780.233C493.914 780.229 493.82 780.316 493.815 780.437L493.601 788.144ZM483.267 787.806L485.563 787.888C487.86 787.969 488.762 788.97 488.702 790.662C488.638 792.444 487.433 793.158 485.378 793.084L483.082 793.003L483.267 787.806Z" fill="white"/>
<path d="M519.509 790.791C519.587 792.421 518.33 793.359 516.367 793.453C514.193 793.557 512.848 792.653 512.658 790.574C512.65 790.423 512.557 790.367 512.436 790.373L509.356 790.52C509.235 790.526 509.147 790.591 509.154 790.742C509.419 794.361 512.104 796.079 516.422 795.872C519.956 795.703 523.365 794.208 523.201 790.795C523.105 788.772 521.957 787.556 519.362 787.105L519.361 787.075C521.213 786.562 522.492 785.472 522.4 783.539C522.271 780.851 519.694 779.492 515.919 779.672C512.053 779.858 509.414 781.619 509.358 784.89C509.364 785.011 509.459 785.097 509.58 785.091L512.539 784.95C512.66 784.944 512.748 784.879 512.771 784.727C512.877 783.148 514.011 782.185 515.944 782.093C517.635 782.012 518.733 782.807 518.793 784.075C518.86 785.464 517.898 786.237 516.177 786.319L514.184 786.415C514.063 786.42 513.977 786.515 513.982 786.636L514.073 788.539C514.079 788.659 514.174 788.746 514.295 788.74L516.288 788.644C518.07 788.559 519.429 789.13 519.509 790.791Z" fill="white"/>
<path d="M535.914 780.464C534.701 779.073 533.021 778.431 530.977 778.649C526.828 779.091 524.747 782.961 525.225 787.441C525.705 791.95 528.332 795.197 532.601 794.742C534.705 794.518 536.232 793.443 537.121 791.798L537.266 793.728C537.279 793.849 537.379 793.929 537.499 793.917L540.686 793.577C540.806 793.564 540.886 793.464 540.874 793.344L540.003 785.744L539.269 778.282C539.256 778.162 539.156 778.082 539.036 778.094L535.819 778.437C535.699 778.45 535.618 778.55 535.631 778.67L535.914 780.464ZM533.33 792.172C530.778 792.474 529.251 790.417 528.87 786.839C528.511 783.472 529.58 781.23 532.199 780.982C534.667 780.749 536.268 782.646 536.628 786.317C536.983 789.928 535.765 791.912 533.33 792.172Z" fill="white"/>
<path d="M542.186 777.964L543.508 785.284L544.757 792.892C544.777 793.011 544.882 793.085 545.001 793.064L548.219 792.51C548.338 792.49 548.412 792.385 548.392 792.266L547.023 784.678L546.196 779.697L552.393 778.63L553.28 783.6L554.529 791.208C554.55 791.328 554.655 791.402 554.774 791.381L557.992 790.827C558.111 790.806 558.185 790.701 558.164 790.582L556.796 782.995L555.593 775.655C555.573 775.536 555.468 775.462 555.349 775.482L542.358 777.72C542.239 777.741 542.165 777.845 542.186 777.964Z" fill="white"/>
<path d="M571.411 771.84L560.562 774.438C560.444 774.466 560.37 774.546 560.405 774.693C561.078 777.89 561.943 782.284 562.252 784.479C562.609 786.881 562.301 787.67 561.125 787.951C560.919 788.001 560.706 788.02 560.552 788.026C560.398 788.032 560.324 788.112 560.359 788.259L560.831 790.229C560.859 790.347 560.939 790.421 561.034 790.429C561.386 790.469 561.848 790.452 562.465 790.304C565.464 789.585 565.786 787.425 565.342 784.143C565.083 782.153 564.399 778.649 563.961 776.298L568.635 775.178L569.927 780.309L571.666 787.572C571.694 787.689 571.803 787.756 571.921 787.728L575.126 786.961C575.243 786.932 575.311 786.823 575.282 786.705L573.455 779.464L571.666 771.996C571.638 771.879 571.529 771.812 571.411 771.84Z" fill="white"/>
<path d="M585.063 781.908C582.582 782.684 580.787 781.503 579.624 778.287L590.503 774.887C590.618 774.851 590.687 774.766 590.642 774.621C588.996 769.561 585.405 767.294 580.788 768.737C576.258 770.153 574.528 774.146 575.989 778.821C577.405 783.351 580.975 785.752 585.765 784.255C589.776 783.001 591.479 779.935 590.934 776.874C590.927 776.75 590.813 776.69 590.698 776.726L587.754 777.646C587.639 777.682 587.599 777.758 587.606 777.882C587.796 780.009 586.91 781.331 585.063 781.908ZM581.539 771.036C583.818 770.324 585.474 771.77 586.25 773.745L579.036 776C578.606 773.41 579.403 771.704 581.539 771.036Z" fill="white"/>
<path d="M590.1 766.409L590.882 768.441C590.925 768.553 591.043 768.606 591.155 768.562L595.868 766.749L597.709 771.451L600.42 778.668C600.464 778.781 600.581 778.833 600.694 778.79L603.741 777.618C603.854 777.574 603.906 777.457 603.863 777.344L601.038 770.17L599.254 765.447L603.966 763.634C604.079 763.591 604.131 763.474 604.088 763.361L603.306 761.329C603.263 761.216 603.146 761.164 603.033 761.207L590.222 766.135C590.109 766.179 590.057 766.296 590.1 766.409Z" fill="white"/>
<path d="M614.009 758.548C612.421 757.608 610.624 757.527 608.752 758.377C604.953 760.102 604.195 764.43 606.057 768.532C607.931 772.661 611.445 774.918 615.355 773.143C617.282 772.269 618.394 770.768 618.72 768.927L619.465 770.714C619.515 770.824 619.635 770.869 619.745 770.819L622.663 769.494C622.773 769.444 622.818 769.324 622.768 769.214L619.552 762.274L616.508 755.421C616.458 755.311 616.338 755.266 616.228 755.316L613.282 756.653C613.172 756.703 613.127 756.823 613.177 756.933L614.009 758.548ZM615.239 770.474C612.911 771.563 610.815 770.091 609.328 766.815C607.929 763.731 608.238 761.267 610.645 760.207C612.915 759.21 615.031 760.507 616.528 763.879C618 767.195 617.469 769.461 615.239 770.474Z" fill="white"/>
<path d="M628.8 749.082L628.174 756.005L626.221 757.034L623.585 751.896C623.528 751.789 623.406 751.751 623.299 751.807L620.409 753.328C620.302 753.384 620.264 753.507 620.321 753.614L623.839 760.167L627.377 767.017C627.434 767.124 627.556 767.162 627.663 767.106L630.552 765.584C630.659 765.528 630.697 765.406 630.641 765.299L627.432 759.334L629.412 758.292L633.496 760.857L636.02 762.535C636.129 762.614 636.251 762.584 636.331 762.542L639.648 760.796C639.782 760.725 639.806 760.576 639.669 760.511L631.013 755.297L631.986 747.541C631.996 747.365 631.886 747.286 631.752 747.356L628.943 748.835C628.863 748.877 628.797 748.946 628.8 749.082Z" fill="white"/>
<path d="M654.967 747.157L645.42 739.69C645.331 739.603 645.222 739.599 645.119 739.663L641.697 741.774C641.594 741.838 641.565 741.963 641.628 742.066L645.697 748.543L649.583 754.956C649.647 755.058 649.771 755.088 649.874 755.024L651.984 753.722C652.087 753.659 652.117 753.534 652.053 753.431L648.344 747.478L646.561 744.705L645.811 743.605L655.619 751.266C655.709 751.353 655.818 751.357 655.921 751.293L657.799 750.134C657.902 750.07 657.947 749.971 657.909 749.853L655.468 737.894L656.039 738.821L657.734 741.682L661.418 747.651C661.482 747.754 661.607 747.784 661.709 747.72L664.308 746.117C664.411 746.053 664.44 745.928 664.377 745.825L660.413 739.461L656.422 732.936C656.358 732.833 656.234 732.803 656.131 732.867L652.683 734.994C652.58 735.058 652.535 735.157 652.572 735.276L654.967 747.157Z" fill="white"/>
<path d="M661.969 729.039L659.246 730.84C659.145 730.907 659.119 731.032 659.186 731.133L663.381 737.421L667.55 743.834C667.616 743.935 667.742 743.961 667.843 743.894L670.718 741.993L670.701 741.967L672.592 740.716C676.375 738.215 677.508 735.544 675.607 732.669C673.722 729.82 670.863 729.826 667.055 732.344L665.189 733.579L662.262 729.098C662.196 728.998 662.07 728.972 661.969 729.039ZM675.106 729.883L679.158 736.12C679.225 736.221 679.351 736.247 679.451 736.18L682.175 734.379C682.276 734.312 682.301 734.186 682.235 734.085L678.081 727.915L673.879 721.452C673.812 721.351 673.686 721.325 673.586 721.392L670.862 723.193C670.761 723.26 670.736 723.386 670.802 723.486L675.106 729.883ZM666.498 735.613L668.415 734.345C670.331 733.078 671.647 733.367 672.581 734.78C673.565 736.267 672.998 737.548 671.283 738.682L669.367 739.95L666.498 735.613Z" fill="white"/>
<path d="M697.442 718.497C698.353 719.852 697.762 721.305 696.131 722.401C694.324 723.615 692.705 723.537 691.467 721.856C691.383 721.73 691.274 721.73 691.173 721.798L688.613 723.518C688.513 723.585 688.471 723.686 688.556 723.811C690.654 726.772 693.841 726.853 697.43 724.442C700.366 722.47 702.51 719.427 700.605 716.591C699.475 714.909 697.864 714.462 695.41 715.418L695.394 715.393C696.713 713.997 697.245 712.402 696.166 710.795C694.665 708.562 691.756 708.731 688.619 710.839C685.407 712.997 684.058 715.869 685.703 718.698C685.771 718.798 685.897 718.823 685.997 718.756L688.457 717.103C688.557 717.036 688.598 716.935 688.539 716.793C687.813 715.387 688.286 713.976 689.892 712.897C691.298 711.953 692.648 712.066 693.356 713.12C694.132 714.274 693.708 715.433 692.278 716.394L690.621 717.507C690.521 717.574 690.496 717.7 690.564 717.8L691.626 719.381C691.693 719.482 691.819 719.506 691.92 719.439L693.576 718.326C695.057 717.332 696.515 717.117 697.442 718.497Z" fill="white"/>
<path d="M707.525 701.174C705.815 700.481 704.026 700.668 702.301 701.786C698.799 704.055 698.692 708.447 701.142 712.228C703.608 716.034 707.418 717.744 711.021 715.409C712.797 714.258 713.674 712.609 713.723 710.74L714.725 712.396C714.791 712.498 714.916 712.525 715.018 712.459L717.707 710.716C717.808 710.65 717.835 710.525 717.769 710.423L713.559 704.037L709.532 697.712C709.466 697.61 709.341 697.584 709.239 697.649L706.525 699.409C706.423 699.474 706.396 699.6 706.462 699.701L707.525 701.174ZM710.51 712.786C708.37 714.209 706.079 713.064 704.122 710.044C702.281 707.203 702.221 704.72 704.444 703.315C706.541 701.992 708.827 702.961 710.807 706.073C712.755 709.134 712.565 711.454 710.51 712.786Z" fill="white"/>
<path d="M712.511 695.782L716.397 702.124L720.319 708.761C720.381 708.865 720.506 708.896 720.61 708.833L723.408 707.15C723.511 707.088 723.542 706.963 723.48 706.86L719.454 700.285L716.877 695.943L722.265 692.701L724.894 697.012L728.817 703.649C728.879 703.753 729.003 703.784 729.107 703.721L731.905 702.038C732.009 701.976 732.04 701.851 731.977 701.748L727.951 695.172L724.169 688.768C724.106 688.665 723.982 688.634 723.878 688.696L712.583 695.491C712.479 695.554 712.448 695.678 712.511 695.782Z" fill="white"/>
<path d="M738.793 680.456L728.978 685.758C728.871 685.815 728.82 685.912 728.892 686.045C730.364 688.961 732.331 692.984 733.194 695.026C734.157 697.255 734.062 698.097 732.998 698.671C732.812 698.772 732.611 698.846 732.464 698.891C732.316 698.936 732.265 699.033 732.337 699.166L733.3 700.948C733.357 701.054 733.453 701.106 733.548 701.089C733.898 701.037 734.34 700.902 734.898 700.6C737.612 699.134 737.367 696.964 736.094 693.907C735.332 692.05 733.769 688.84 732.74 686.681L736.97 684.396L739.538 689.022L743.087 695.593C743.144 695.699 743.267 695.736 743.373 695.679L746.273 694.112C746.379 694.055 746.416 693.932 746.359 693.826L742.73 687.298L739.08 680.542C739.023 680.435 738.9 680.398 738.793 680.456Z" fill="white"/>
<path d="M755.173 687.495C752.811 688.582 750.88 687.64 749.315 684.599L759.669 679.834C759.779 679.784 759.836 679.691 759.773 679.554C757.493 674.745 753.641 672.957 749.247 674.979C744.935 676.963 743.731 681.145 745.779 685.594C747.763 689.906 751.61 691.83 756.17 689.732C759.987 687.975 761.283 684.716 760.351 681.75C760.328 681.628 760.207 681.583 760.098 681.634L757.296 682.923C757.186 682.974 757.157 683.054 757.18 683.176C757.64 685.261 756.931 686.686 755.173 687.495ZM750.286 677.163C752.455 676.165 754.283 677.387 755.305 679.247L748.439 682.407C747.681 679.893 748.253 678.099 750.286 677.163Z" fill="white"/>
<path d="M758.074 671.577L758.849 673.611C758.892 673.724 759.009 673.776 759.122 673.733L763.84 671.936L765.666 676.643L768.354 683.869C768.397 683.982 768.515 684.034 768.628 683.991L771.679 682.829C771.792 682.786 771.844 682.669 771.801 682.556L769 675.373L767.23 670.644L771.949 668.846C772.062 668.803 772.114 668.686 772.071 668.573L771.296 666.539C771.253 666.426 771.136 666.374 771.023 666.417L758.196 671.304C758.083 671.347 758.031 671.464 758.074 671.577Z" fill="white"/>
<path d="M783.746 664.581C782.301 663.433 780.532 663.107 778.562 663.692C774.562 664.88 773.219 669.064 774.502 673.382C775.793 677.729 778.965 680.446 783.081 679.223C785.11 678.62 786.416 677.286 786.992 675.507L787.485 677.379C787.519 677.495 787.632 677.556 787.748 677.521L790.82 676.609C790.936 676.574 790.997 676.462 790.962 676.346L788.726 669.03L786.649 661.826C786.615 661.71 786.502 661.649 786.386 661.683L783.285 662.604C783.169 662.639 783.108 662.752 783.142 662.867L783.746 664.581ZM783.331 676.562C780.876 677.323 779.002 675.578 777.977 672.129C777.013 668.883 777.656 666.484 780.186 665.764C782.572 665.087 784.49 666.662 785.512 670.206C786.516 673.693 785.679 675.865 783.331 676.562Z" fill="white"/>
<path d="M799.643 658.779L797.152 665.269L794.993 665.725L793.858 660.063C793.833 659.945 793.725 659.875 793.607 659.9L790.412 660.575C790.294 660.6 790.224 660.707 790.249 660.825L791.846 668.09L793.381 675.645C793.406 675.763 793.513 675.833 793.631 675.808L796.826 675.133C796.944 675.108 797.014 675.001 796.989 674.883L795.53 668.269L797.719 667.807L800.948 671.389L802.918 673.692C803.002 673.797 803.127 673.802 803.215 673.783L806.883 673.008C807.031 672.977 807.095 672.84 806.981 672.74L800.076 665.362L803.129 658.166C803.187 657.999 803.102 657.893 802.954 657.924L799.849 658.581C799.76 658.599 799.677 658.648 799.643 658.779Z" fill="white"/>
<path d="M826.482 665.851C826.632 667.477 825.418 668.47 823.462 668.651C821.294 668.852 819.91 668.009 819.628 665.94C819.614 665.789 819.518 665.737 819.397 665.748L816.327 666.033C816.206 666.044 816.122 666.112 816.136 666.263C816.56 669.867 819.319 671.464 823.624 671.065C827.147 670.739 830.486 669.094 830.171 665.692C829.984 663.675 828.783 662.511 826.172 662.176L826.169 662.146C827.996 661.552 829.226 660.405 829.048 658.479C828.799 655.799 826.164 654.556 822.401 654.904C818.548 655.261 815.989 657.137 816.079 660.408C816.09 660.529 816.189 660.611 816.309 660.599L819.26 660.326C819.38 660.315 819.465 660.246 819.481 660.093C819.517 658.511 820.607 657.499 822.534 657.321C824.22 657.165 825.351 657.91 825.468 659.174C825.597 660.559 824.67 661.374 822.954 661.533L820.967 661.717C820.847 661.728 820.765 661.826 820.776 661.947L820.952 663.843C820.963 663.964 821.062 664.046 821.182 664.035L823.169 663.851C824.945 663.686 826.328 664.196 826.482 665.851Z" fill="white"/>
<path d="M842.34 656.161C841.249 654.673 839.629 653.892 837.574 653.937C833.402 654.027 831.003 657.709 831.101 662.212C831.199 666.746 833.543 670.203 837.835 670.11C839.951 670.064 841.563 669.121 842.588 667.557L842.569 669.493C842.572 669.614 842.664 669.702 842.785 669.7L845.989 669.63C846.11 669.627 846.199 669.535 846.196 669.414L845.969 661.768L845.867 654.27C845.864 654.149 845.771 654.061 845.651 654.063L842.416 654.134C842.295 654.136 842.207 654.229 842.209 654.35L842.34 656.161ZM838.778 667.609C836.21 667.696 834.862 665.517 834.784 661.92C834.71 658.535 835.964 656.391 838.594 656.364C841.073 656.34 842.508 658.365 842.558 662.054C842.607 665.681 841.227 667.556 838.778 667.609Z" fill="white"/>
<path d="M850.028 654.225L849.745 661.658L849.33 669.356C849.324 669.477 849.411 669.572 849.532 669.577L852.793 669.728C852.914 669.733 853.009 669.647 853.014 669.526L853.309 661.822L853.572 656.78L859.854 657.069L859.652 662.114L859.236 669.813C859.23 669.934 859.317 670.029 859.438 670.034L862.699 670.185C862.82 670.19 862.915 670.104 862.921 669.983L863.215 662.279L863.618 654.852C863.624 654.731 863.537 654.636 863.417 654.631L850.249 654.024C850.128 654.018 850.033 654.104 850.028 654.225Z" fill="white"/>
<path d="M882.127 656.378L871.032 655.205C870.912 655.192 870.815 655.243 870.8 655.393C870.366 658.631 869.715 663.061 869.273 665.234C868.808 667.617 868.254 668.258 867.051 668.13C866.841 668.108 866.633 668.056 866.486 668.01C866.339 667.964 866.242 668.015 866.227 668.165L866.014 670.179C866.001 670.3 866.051 670.396 866.138 670.436C866.456 670.591 866.898 670.729 867.529 670.796C870.596 671.12 871.621 669.191 872.298 665.949C872.718 663.987 873.244 660.455 873.615 658.093L878.396 658.598L877.899 663.866L877.114 671.292C877.102 671.412 877.182 671.512 877.302 671.525L880.58 671.871C880.7 671.884 880.8 671.803 880.812 671.683L881.507 664.247L882.315 656.611C882.328 656.49 882.247 656.391 882.127 656.378Z" fill="white"/>
<path d="M890.482 671.212C887.914 670.807 886.829 668.953 887.211 665.555L898.47 667.329C898.59 667.348 898.689 667.302 898.712 667.153C899.481 661.887 897.267 658.263 892.488 657.51C887.8 656.771 884.479 659.584 883.717 664.422C882.978 669.111 885.113 672.845 890.071 673.626C894.222 674.281 897.107 672.287 897.976 669.302C898.024 669.187 897.949 669.083 897.829 669.064L894.783 668.584C894.664 668.566 894.595 668.616 894.546 668.731C893.773 670.721 892.393 671.513 890.482 671.212ZM892.142 659.904C894.501 660.276 895.344 662.307 895.164 664.421L887.698 663.244C888.461 660.732 889.932 659.556 892.142 659.904Z" fill="white"/>
<path d="M899.174 659.083L898.751 661.218C898.727 661.337 898.799 661.443 898.917 661.467L903.87 662.448L902.919 667.406L901.362 674.957C901.339 675.076 901.41 675.182 901.529 675.206L904.732 675.84C904.851 675.864 904.957 675.792 904.981 675.674L906.419 668.099L907.429 663.152L912.382 664.133C912.501 664.156 912.607 664.085 912.631 663.966L913.053 661.831C913.077 661.712 913.006 661.606 912.887 661.582L899.422 658.916C899.304 658.893 899.197 658.964 899.174 659.083Z" fill="white"/>
<path d="M927.223 666.983C926.557 665.262 925.196 664.086 923.2 663.595C919.149 662.597 915.874 665.527 914.796 669.901C913.712 674.304 915.075 678.252 919.243 679.279C921.298 679.785 923.1 679.294 924.497 678.05L923.975 679.915C923.946 680.032 924.012 680.142 924.13 680.171L927.242 680.937C927.359 680.966 927.469 680.9 927.498 680.782L929.268 673.341L931.12 666.075C931.149 665.958 931.083 665.848 930.966 665.819L927.824 665.045C927.707 665.016 927.597 665.083 927.568 665.2L927.223 666.983ZM920.805 677.11C918.302 676.525 917.568 674.071 918.428 670.577C919.238 667.289 921.007 665.545 923.554 666.204C925.953 666.826 926.812 669.155 925.901 672.729C925.004 676.245 923.183 677.696 920.805 677.11Z" fill="white"/>
<path d="M946.231 670.264L940.955 674.792L938.838 674.168L940.53 668.646C940.564 668.53 940.503 668.417 940.387 668.383L937.255 667.459C937.139 667.425 937.026 667.486 936.992 667.602L934.946 674.753L932.707 682.131C932.672 682.247 932.734 682.359 932.85 682.394L935.982 683.317C936.098 683.351 936.21 683.29 936.244 683.174L938.102 676.661L940.248 677.294L941.388 681.98L942.027 684.943C942.051 685.076 942.158 685.139 942.245 685.165L945.841 686.225C945.986 686.268 946.107 686.178 946.054 686.036L943.484 676.263L949.589 671.381C949.719 671.262 949.695 671.129 949.55 671.086L946.505 670.188C946.418 670.162 946.323 670.166 946.231 670.264Z" fill="white"/>
<path d="M966.479 676.38C962.613 674.982 959.396 676.231 957.971 679.284C957.93 679.398 957.995 679.485 958.108 679.526L960.895 680.534C961.009 680.575 961.086 680.538 961.166 680.407C962.196 678.625 963.76 678.033 965.551 678.681C967.57 679.411 968.253 681.168 967.601 683.858L962.739 682.101C962.626 682.06 962.51 682.114 962.468 682.228L961.811 684.047C961.77 684.161 961.824 684.277 961.938 684.318L966.857 686.097C965.586 689.077 963.847 690.153 961.658 689.361C959.611 688.621 958.83 686.956 959.441 684.734C959.464 684.581 959.399 684.494 959.285 684.453L956.442 683.425C956.328 683.384 956.212 683.438 956.199 683.562C955.291 686.963 956.958 690.266 960.768 691.644C965.289 693.278 969.013 691.248 970.688 686.614C972.364 681.979 970.943 677.994 966.479 676.38Z" fill="white"/>
<path d="M975.533 680.276L974.715 682.293C974.669 682.405 974.719 682.523 974.831 682.569L979.51 684.468L977.639 689.157L974.683 696.278C974.638 696.39 974.688 696.509 974.8 696.554L977.825 697.782C977.937 697.827 978.055 697.778 978.101 697.666L980.944 690.499L982.871 685.832L987.55 687.731C987.662 687.777 987.78 687.727 987.825 687.615L988.644 685.598C988.689 685.486 988.639 685.367 988.527 685.322L975.809 680.16C975.697 680.114 975.579 680.164 975.533 680.276Z" fill="white"/>
<path d="M989.946 703.354C994.44 705.377 998.289 703.529 1000.3 699.062C1002.32 694.569 1001.13 690.517 996.635 688.494C992.168 686.484 988.292 688.32 986.269 692.814C984.247 697.308 985.48 701.344 989.946 703.354ZM990.952 701.121C988.525 700.029 988.094 697.746 989.633 694.328C991.159 690.937 993.163 689.651 995.63 690.727C998.028 691.807 998.382 694.188 996.856 697.579C995.317 700.997 993.378 702.213 990.952 701.121Z" fill="white"/>
<path d="M1018.17 707.369C1020.12 707.873 1021.71 707.506 1022.58 705.843C1023.79 703.51 1022.36 701.405 1018.85 699.577L1012.87 696.466C1012.76 696.41 1012.64 696.449 1012.58 696.556L1009.2 703.182L1005.59 709.994C1005.54 710.101 1005.58 710.224 1005.68 710.279L1011.72 713.418C1013.89 714.549 1017.82 715.977 1019.59 712.571C1020.54 710.747 1020.2 709.105 1018.16 707.396L1018.17 707.369ZM1017.68 701.695C1019.07 702.42 1019.72 703.472 1019.13 704.599C1018.52 705.779 1017.36 705.855 1015.94 705.115L1012.96 703.567L1014.73 700.16L1017.68 701.695ZM1011.87 705.659L1014.85 707.207C1016.32 707.975 1017.21 709.22 1016.48 710.614C1015.76 712.009 1014.36 712.068 1012.75 711.231L1009.8 709.696L1011.87 705.659Z" fill="white"/>
<path d="M1035.54 710.947C1035.36 709.11 1034.37 707.609 1032.58 706.595C1028.95 704.535 1025.01 706.467 1022.78 710.385C1020.55 714.329 1020.79 718.498 1024.52 720.617C1026.36 721.662 1028.23 721.679 1029.91 720.86L1028.9 722.513C1028.84 722.618 1028.88 722.742 1028.98 722.802L1031.77 724.383C1031.87 724.443 1032 724.409 1032.06 724.304L1035.78 717.621L1039.53 711.13C1039.59 711.025 1039.56 710.901 1039.45 710.842L1036.64 709.245C1036.54 709.185 1036.41 709.219 1036.35 709.325L1035.54 710.947ZM1026.61 718.953C1024.36 717.711 1024.32 715.15 1026.1 712.021C1027.77 709.076 1029.94 707.877 1032.22 709.202C1034.36 710.452 1034.55 712.926 1032.7 716.119C1030.89 719.26 1028.74 720.162 1026.61 718.953Z" fill="white"/>
<path d="M1037.28 733.649L1039.88 735.254C1039.98 735.318 1040.11 735.288 1040.18 735.227L1056.79 721.644C1056.9 721.573 1056.91 721.438 1056.78 721.358L1054.01 719.641C1053.9 719.578 1053.8 719.582 1053.71 719.669L1045.21 727.142L1047.56 715.869C1047.6 715.75 1047.55 715.651 1047.45 715.588L1044.34 713.664C1044.21 713.585 1044.08 713.614 1044.06 713.774L1041.22 730.149L1037.28 733.363C1037.16 733.434 1037.15 733.569 1037.28 733.649Z" fill="white"/>
<path d="M1066.97 741.259C1066.05 742.607 1064.48 742.598 1062.86 741.489C1061.06 740.26 1060.53 738.728 1061.63 736.955C1061.72 736.83 1061.68 736.729 1061.58 736.66L1059.03 734.92C1058.93 734.852 1058.82 734.851 1058.74 734.976C1056.77 738.022 1057.87 741.012 1061.44 743.451C1064.36 745.447 1067.98 746.311 1069.91 743.491C1071.05 741.818 1070.87 740.156 1069.07 738.231L1069.09 738.206C1070.88 738.915 1072.55 738.817 1073.65 737.219C1075.17 734.998 1073.93 732.359 1070.81 730.226C1067.61 728.042 1064.45 727.855 1062.43 730.431C1062.36 730.531 1062.38 730.657 1062.48 730.725L1064.93 732.397C1065.03 732.465 1065.14 732.467 1065.25 732.359C1066.29 731.163 1067.77 731.08 1069.37 732.172C1070.77 733.127 1071.16 734.423 1070.45 735.471C1069.66 736.62 1068.43 736.656 1067.01 735.683L1065.36 734.557C1065.26 734.489 1065.13 734.513 1065.06 734.613L1063.99 736.185C1063.92 736.285 1063.95 736.411 1064.05 736.479L1065.69 737.605C1067.17 738.612 1067.91 739.887 1066.97 741.259Z" fill="white"/>
<path d="M1087.56 744.98C1087.6 743.135 1086.79 741.531 1085.13 740.318C1081.76 737.858 1077.62 739.325 1074.96 742.963C1072.29 746.626 1072.05 750.795 1075.52 753.327C1077.23 754.575 1079.08 754.806 1080.84 754.185L1079.65 755.711C1079.58 755.809 1079.6 755.936 1079.7 756.007L1082.29 757.897C1082.38 757.969 1082.51 757.949 1082.58 757.851L1087.04 751.638L1091.52 745.619C1091.59 745.521 1091.57 745.395 1091.47 745.323L1088.86 743.415C1088.76 743.344 1088.63 743.364 1088.56 743.461L1087.56 744.98ZM1077.78 751.913C1075.69 750.422 1075.94 747.873 1078.06 744.968C1080.06 742.233 1082.36 741.291 1084.47 742.866C1086.45 744.353 1086.36 746.833 1084.16 749.794C1082 752.706 1079.76 753.358 1077.78 751.913Z" fill="white"/>
<path d="M1092.64 746.419L1088.14 752.345L1083.39 758.413C1083.31 758.509 1083.33 758.636 1083.43 758.71L1086.01 760.704C1086.11 760.778 1086.23 760.761 1086.31 760.666L1090.97 754.524L1094.08 750.544L1099.06 754.385L1096 758.401L1091.24 764.469C1091.17 764.565 1091.18 764.692 1091.28 764.766L1093.86 766.76C1093.96 766.834 1094.09 766.817 1094.16 766.722L1098.82 760.58L1103.41 754.727C1103.49 754.632 1103.47 754.504 1103.37 754.43L1092.93 746.38C1092.84 746.306 1092.71 746.323 1092.64 746.419Z" fill="white"/>
<path d="M1118.3 766.426L1109.64 759.387C1109.55 759.311 1109.44 759.3 1109.34 759.418C1107.21 761.894 1104.25 765.251 1102.69 766.829C1101 768.572 1100.19 768.807 1099.25 768.043C1099.09 767.91 1098.94 767.753 1098.84 767.634C1098.75 767.515 1098.64 767.505 1098.54 767.622L1097.26 769.194C1097.19 769.288 1097.18 769.396 1097.23 769.477C1097.41 769.78 1097.7 770.137 1098.2 770.538C1100.59 772.483 1102.5 771.427 1104.84 769.08C1106.26 767.665 1108.63 764.993 1110.23 763.216L1113.96 766.249L1110.67 770.392L1105.96 776.186C1105.88 776.28 1105.89 776.407 1105.99 776.484L1108.54 778.563C1108.64 778.639 1108.77 778.626 1108.84 778.532L1113.48 772.681L1118.33 766.724C1118.4 766.63 1118.39 766.502 1118.3 766.426Z" fill="white"/>
<path d="M1116.28 782.335C1114.3 780.653 1114.33 778.504 1116.43 775.802L1125.12 783.179C1125.21 783.258 1125.32 783.27 1125.42 783.155C1128.82 779.06 1128.81 774.813 1125.12 771.682C1121.51 768.61 1117.21 769.283 1114.04 773.016C1110.96 776.635 1110.84 780.934 1114.67 784.183C1117.87 786.903 1121.37 786.703 1123.67 784.606C1123.77 784.534 1123.76 784.406 1123.67 784.327L1121.32 782.331C1121.23 782.253 1121.14 782.26 1121.04 782.333C1119.34 783.629 1117.75 783.588 1116.28 782.335ZM1123.58 773.545C1125.4 775.091 1125.07 777.264 1123.81 778.975L1118.05 774.083C1120.01 772.336 1121.88 772.097 1123.58 773.545Z" fill="white"/>
<path d="M1131.85 778.136L1130.41 779.768C1130.33 779.859 1130.34 779.987 1130.43 780.067L1134.22 783.406L1130.9 787.213L1125.75 792.956C1125.67 793.046 1125.68 793.174 1125.77 793.254L1128.22 795.414C1128.31 795.494 1128.44 795.486 1128.52 795.395L1133.58 789.573L1136.94 785.806L1140.72 789.145C1140.81 789.225 1140.94 789.217 1141.02 789.127L1142.46 787.494C1142.54 787.403 1142.53 787.275 1142.44 787.195L1132.15 778.117C1132.06 778.037 1131.93 778.045 1131.85 778.136Z" fill="white"/>
<path d="M1151.58 798.208C1151.81 796.378 1151.18 794.695 1149.66 793.308C1146.58 790.493 1142.31 791.499 1139.27 794.825C1136.21 798.173 1135.52 802.291 1138.69 805.187C1140.25 806.615 1142.07 807.047 1143.89 806.622L1142.54 808.01C1142.46 808.099 1142.46 808.227 1142.55 808.309L1144.92 810.471C1145.01 810.552 1145.13 810.546 1145.22 810.457L1150.33 804.77L1155.43 799.275C1155.51 799.186 1155.51 799.058 1155.42 798.976L1153.03 796.794C1152.94 796.712 1152.81 796.718 1152.73 796.807L1151.58 798.208ZM1141.1 804.03C1139.18 802.319 1139.71 799.813 1142.13 797.157C1144.42 794.657 1146.81 793.972 1148.73 795.768C1150.54 797.463 1150.18 799.919 1147.67 802.621C1145.2 805.279 1142.9 805.682 1141.1 804.03Z" fill="white"/>
<path d="M1165.2 808.33L1158.45 809.989L1156.84 808.477L1160.84 804.313C1160.93 804.225 1160.92 804.097 1160.84 804.014L1158.46 801.776C1158.37 801.693 1158.24 801.697 1158.16 801.785L1153.11 807.243L1147.78 812.815C1147.69 812.903 1147.7 813.032 1147.79 813.115L1150.16 815.352C1150.25 815.435 1150.38 815.431 1150.46 815.343L1155.06 810.37L1156.69 811.904L1155.59 816.6L1154.83 819.532C1154.79 819.661 1154.85 819.766 1154.92 819.828L1157.65 822.398C1157.76 822.501 1157.91 822.475 1157.93 822.325L1160.04 812.444L1167.69 810.843C1167.86 810.795 1167.9 810.665 1167.79 810.562L1165.48 808.386C1165.42 808.324 1165.33 808.284 1165.2 808.33Z" fill="white"/>
<path d="M1181.99 823.713C1179.04 820.846 1175.6 820.658 1173.04 822.853C1172.96 822.94 1172.98 823.046 1173.07 823.131L1175.19 825.197C1175.28 825.281 1175.36 825.28 1175.49 825.192C1177.16 823.993 1178.83 824.099 1180.2 825.427C1181.74 826.923 1181.63 828.806 1179.93 830.989L1176.23 827.384C1176.14 827.3 1176.01 827.302 1175.93 827.389L1174.58 828.776C1174.49 828.862 1174.5 828.991 1174.58 829.075L1178.33 832.722C1175.95 834.914 1173.92 835.177 1172.25 833.554C1170.69 832.036 1170.66 830.198 1172.14 828.424C1172.22 828.295 1172.2 828.188 1172.11 828.104L1169.94 825.996C1169.86 825.912 1169.73 825.914 1169.67 826.021C1167.44 828.746 1167.6 832.443 1170.5 835.267C1173.94 838.619 1178.17 838.304 1181.61 834.772C1185.05 831.239 1185.39 827.022 1181.99 823.713Z" fill="white"/>
<path d="M1187.49 829.865L1185.96 831.415C1185.88 831.502 1185.88 831.63 1185.96 831.715L1189.56 835.259L1186.04 838.876L1180.58 844.324C1180.5 844.41 1180.5 844.538 1180.58 844.623L1182.91 846.916C1182.99 847 1183.12 847 1183.21 846.913L1188.58 841.381L1192.14 837.806L1195.74 841.351C1195.83 841.436 1195.95 841.435 1196.04 841.348L1197.57 839.798C1197.65 839.712 1197.65 839.584 1197.56 839.499L1187.79 829.863C1187.7 829.778 1187.57 829.779 1187.49 829.865Z" fill="white"/>
<path d="M1193.16 857.583C1196.66 861.057 1200.91 860.681 1204.36 857.208C1207.84 853.713 1208.15 849.5 1204.65 846.026C1201.18 842.573 1196.9 842.928 1193.43 846.423C1189.95 849.918 1189.69 854.13 1193.16 857.583ZM1194.89 855.846C1193 853.97 1193.4 851.682 1196.04 849.023C1198.67 846.386 1201 845.887 1202.92 847.763C1204.79 849.617 1204.28 851.97 1201.66 854.608C1199.02 857.266 1196.78 857.722 1194.89 855.846Z" fill="white"/>
<path d="M1224.18 866.186L1217.39 867.661L1215.82 866.106L1219.93 862.052C1220.02 861.966 1220.02 861.838 1219.93 861.753L1217.62 859.451C1217.53 859.366 1217.4 859.366 1217.32 859.452L1212.12 864.77L1206.64 870.196C1206.56 870.282 1206.56 870.41 1206.64 870.496L1208.96 872.797C1209.04 872.883 1209.17 872.882 1209.26 872.796L1213.99 867.95L1215.58 869.527L1214.35 874.191L1213.5 877.101C1213.46 877.23 1213.53 877.337 1213.59 877.401L1216.25 880.043C1216.36 880.15 1216.51 880.128 1216.53 879.978L1218.91 870.158L1226.6 868.765C1226.78 868.722 1226.82 868.594 1226.71 868.487L1224.46 866.25C1224.39 866.186 1224.31 866.143 1224.18 866.186Z" fill="white"/>
<path d="M1237.69 879.323L1229.74 871.496C1229.66 871.411 1229.55 871.391 1229.44 871.499C1227.09 873.762 1223.82 876.823 1222.12 878.248C1220.27 879.823 1219.44 879.979 1218.58 879.131C1218.43 878.982 1218.3 878.812 1218.21 878.685C1218.13 878.557 1218.02 878.537 1217.91 878.644L1216.49 880.088C1216.41 880.174 1216.39 880.281 1216.43 880.366C1216.58 880.686 1216.84 881.069 1217.29 881.514C1219.49 883.677 1221.49 882.806 1224.04 880.691C1225.59 879.418 1228.2 876.981 1229.97 875.364L1233.39 878.736L1229.72 882.549L1224.48 887.871C1224.4 887.957 1224.4 888.086 1224.49 888.17L1226.84 890.482C1226.92 890.567 1227.05 890.566 1227.13 890.48L1232.31 885.095L1237.7 879.622C1237.78 879.536 1237.78 879.407 1237.69 879.323Z" fill="white"/>
<path d="M1246.71 890.892C1246.99 889.069 1246.41 887.369 1244.93 885.942C1241.92 883.047 1237.62 883.938 1234.49 887.181C1231.35 890.445 1230.54 894.544 1233.64 897.524C1235.16 898.993 1236.96 899.473 1238.8 899.097L1237.41 900.448C1237.33 900.535 1237.33 900.664 1237.41 900.748L1239.72 902.972C1239.81 903.056 1239.94 903.054 1240.02 902.966L1245.29 897.418L1250.53 892.062C1250.62 891.975 1250.62 891.847 1250.53 891.763L1248.2 889.518C1248.11 889.434 1247.98 889.436 1247.9 889.523L1246.71 890.892ZM1236.07 896.432C1234.2 894.67 1234.8 892.178 1237.3 889.588C1239.65 887.151 1242.05 886.53 1243.92 888.377C1245.69 890.119 1245.26 892.565 1242.68 895.199C1240.14 897.79 1237.84 898.131 1236.07 896.432Z" fill="white"/>
<path d="M1247.99 911.28C1250.98 914.065 1254.68 914.045 1257.31 911.665C1257.39 911.577 1257.37 911.471 1257.28 911.388L1255.07 909.325C1254.98 909.243 1254.87 909.225 1254.75 909.315C1253.03 910.85 1251.17 910.935 1249.73 909.551C1247.78 907.693 1248.13 905.456 1250.71 902.694C1253.23 899.998 1255.5 899.428 1257.49 901.242C1258.77 902.438 1258.95 904.101 1257.84 905.829C1257.76 905.96 1257.76 906.045 1257.85 906.128L1260.01 908.15C1260.1 908.232 1260.23 908.228 1260.29 908.119C1262.34 905.439 1262.05 902.112 1259.18 899.43C1255.6 896.087 1251.34 896.576 1247.97 900.178C1244.61 903.78 1244.48 907.999 1247.99 911.28Z" fill="white"/>
<path d="M1259.51 921.84C1262.55 924.564 1266.25 924.467 1268.83 922.034C1268.91 921.944 1268.88 921.839 1268.79 921.758L1266.54 919.741C1266.45 919.66 1266.34 919.645 1266.22 919.737C1264.53 921.307 1262.67 921.431 1261.21 920.077C1259.22 918.259 1259.53 916.015 1262.05 913.2C1264.51 910.453 1266.77 909.837 1268.79 911.609C1270.1 912.779 1270.32 914.437 1269.24 916.188C1269.16 916.321 1269.16 916.406 1269.25 916.487L1271.46 918.464C1271.55 918.545 1271.68 918.538 1271.74 918.427C1273.73 915.706 1273.38 912.385 1270.45 909.763C1266.8 906.495 1262.55 907.071 1259.26 910.742C1255.97 914.412 1255.93 918.633 1259.51 921.84Z" fill="white"/>
<path d="M1282.21 935.545L1286.08 924.06C1286.13 923.946 1286.1 923.842 1286 923.766L1282.87 921.241C1282.78 921.165 1282.65 921.179 1282.58 921.273L1277.82 927.263L1273.06 933.06C1272.99 933.154 1273 933.282 1273.09 933.358L1275.02 934.915C1275.12 934.991 1275.25 934.977 1275.32 934.883L1279.7 929.406L1281.73 926.803L1282.51 925.73L1278.55 937.527C1278.5 937.64 1278.53 937.744 1278.62 937.82L1280.34 939.206C1280.43 939.282 1280.54 939.292 1280.64 939.217L1291.11 932.939L1290.43 933.786L1288.29 936.336L1283.89 941.794C1283.81 941.889 1283.82 942.016 1283.92 942.092L1286.29 944.01C1286.39 944.086 1286.51 944.072 1286.59 943.978L1291.28 938.124L1296.1 932.191C1296.18 932.097 1296.17 931.969 1296.07 931.893L1292.92 929.349C1292.83 929.273 1292.72 929.263 1292.62 929.338L1282.21 935.545Z" fill="white"/>
<path d="M1301.44 935.98L1298.78 934.084C1298.68 934.014 1298.56 934.035 1298.49 934.133L1294.12 940.304L1289.63 946.496C1289.56 946.594 1289.58 946.721 1289.68 946.791L1292.49 948.793L1292.5 948.768L1294.35 950.085C1298.04 952.719 1300.94 952.819 1302.94 950.013C1304.93 947.232 1303.9 944.565 1300.18 941.914L1298.36 940.614L1301.49 936.276C1301.56 936.177 1301.54 936.051 1301.44 935.98ZM1305.36 948.546L1301 954.566C1300.92 954.664 1300.95 954.791 1301.04 954.861L1303.7 956.757C1303.8 956.828 1303.93 956.806 1304 956.708L1308.27 950.618L1312.79 944.377C1312.86 944.279 1312.84 944.152 1312.75 944.082L1310.09 942.186C1309.99 942.115 1309.86 942.137 1309.79 942.235L1305.36 948.546ZM1296.93 942.566L1298.8 943.9C1300.67 945.235 1300.87 946.567 1299.89 947.945C1298.85 949.397 1297.45 949.328 1295.78 948.134L1293.91 946.799L1296.93 942.566Z" fill="white"/>
<path d="M1326.96 965.436C1326.17 966.865 1324.61 967.005 1322.89 966.056C1320.99 965.004 1320.31 963.529 1321.24 961.659C1321.32 961.527 1321.27 961.43 1321.16 961.371L1318.46 959.882C1318.35 959.823 1318.24 959.833 1318.17 959.965C1316.5 963.185 1317.88 966.056 1321.67 968.145C1324.77 969.853 1328.45 970.368 1330.1 967.376C1331.08 965.603 1330.74 963.965 1328.77 962.221L1328.78 962.194C1330.63 962.729 1332.29 962.472 1333.23 960.777C1334.53 958.421 1333.04 955.912 1329.74 954.087C1326.35 952.217 1323.18 952.333 1321.41 955.089C1321.36 955.195 1321.39 955.318 1321.5 955.377L1324.09 956.808C1324.2 956.866 1324.31 956.857 1324.4 956.74C1325.32 955.451 1326.79 955.226 1328.49 956.161C1329.97 956.978 1330.49 958.231 1329.87 959.343C1329.2 960.56 1327.98 960.714 1326.47 959.881L1324.72 958.918C1324.62 958.859 1324.49 958.895 1324.44 959.001L1323.52 960.668C1323.46 960.774 1323.49 960.898 1323.6 960.956L1325.35 961.92C1326.91 962.781 1327.77 963.98 1326.96 965.436Z" fill="white"/>
<path d="M1345.96 964.636C1345.59 962.828 1344.45 961.44 1342.56 960.62C1338.73 958.956 1335.01 961.295 1333.22 965.426C1331.41 969.585 1332.09 973.705 1336.03 975.417C1337.97 976.261 1339.83 976.08 1341.41 975.088L1340.58 976.839C1340.54 976.95 1340.58 977.069 1340.69 977.117L1343.63 978.395C1343.74 978.443 1343.86 978.396 1343.91 978.285L1346.91 971.247L1349.95 964.395C1350 964.284 1349.95 964.165 1349.84 964.116L1346.88 962.826C1346.76 962.778 1346.65 962.825 1346.6 962.936L1345.96 964.636ZM1337.93 973.542C1335.56 972.545 1335.25 970.002 1336.68 966.703C1338.03 963.598 1340.07 962.175 1342.47 963.252C1344.73 964.268 1345.19 966.708 1343.69 970.078C1342.21 973.394 1340.18 974.518 1337.93 973.542Z" fill="white"/>
<path d="M1351.8 965.272L1349.72 972.412L1347.44 979.777C1347.4 979.893 1347.46 980.006 1347.58 980.041L1350.71 980.981C1350.82 981.016 1350.94 980.956 1350.97 980.84L1353.13 973.44L1354.62 968.613L1360.64 970.425L1359.21 975.269L1356.94 982.634C1356.9 982.75 1356.96 982.863 1357.08 982.897L1360.2 983.838C1360.32 983.873 1360.43 983.812 1360.47 983.696L1362.63 976.296L1364.83 969.192C1364.87 969.076 1364.8 968.963 1364.69 968.928L1352.07 965.131C1351.95 965.096 1351.84 965.156 1351.8 965.272Z" fill="white"/>
</svg>
