<svg width="945" height="667" viewBox="0 0 945 667" fill="none" xmlns="http://www.w3.org/2000/svg">
<path d="M474.287 451.01C563.425 495.679 612.934 548.277 560.282 582.884C514.298 613.109 474.564 530.055 474.287 451.01Z" fill="white"/>
<path d="M131.906 34.2848C45.8383 116.438 118.503 350.279 268.907 381.383C456.912 420.262 646.927 525.934 560.282 582.884C473.638 639.834 409.186 294.617 589.049 331.813C768.912 369.008 921.244 354.587 894.009 200.763" stroke="#021F69" stroke-width="93.724"/>
<path d="M125.033 51.7436C126.869 51.928 128.533 51.2463 129.875 49.6883C132.597 46.5265 131.465 42.2806 128.051 39.3414C124.614 36.3825 120.477 35.8126 117.676 39.0661C116.295 40.6699 115.917 42.4989 116.395 44.3069L114.968 42.9986C114.877 42.9197 114.749 42.9292 114.67 43.0209L112.579 45.4495C112.5 45.5412 112.51 45.6691 112.601 45.748L118.437 50.6929L124.08 55.6308C124.172 55.7097 124.3 55.7001 124.379 55.6085L126.489 53.1569C126.568 53.0653 126.559 52.9374 126.467 52.8585L125.033 51.7436ZM118.904 41.4397C120.558 39.4725 123.078 39.9273 125.805 42.2747C128.371 44.4841 129.127 46.8501 127.387 48.8237C125.747 50.6827 123.282 50.3953 120.506 47.9658C117.776 45.5757 117.306 43.2956 118.904 41.4397Z" fill="white"/>
<path d="M120.139 64.5953C121.755 61.8981 124.264 61.1811 126.65 62.6107L125.205 65.0226C123.908 64.2457 122.7 64.4382 121.939 65.709C121.193 66.9539 121.577 68.1358 122.843 68.9647L121.398 71.3766C119.012 69.9469 118.492 67.3444 120.139 64.5953ZM110.904 54.8323L114.244 56.9043L120.619 60.7944C120.722 60.8566 120.847 60.8254 120.909 60.7216L122.572 57.9467C122.634 57.8429 122.603 57.7185 122.499 57.6563L116.269 53.9943L109.506 49.8711C109.402 49.8089 109.278 49.8401 109.215 49.9438L107.226 53.2634C107.18 53.3412 107.144 53.4605 107.216 53.5745L113.72 64.8377L110.665 62.9366L104.082 58.9222C103.979 58.86 103.854 58.8912 103.792 58.9949L102.145 61.744C102.083 61.8477 102.114 61.9721 102.218 62.0343L108.862 65.945L115.211 69.8196C115.315 69.8817 115.439 69.8505 115.501 69.7468L117.459 66.4791C117.506 66.4013 117.542 66.282 117.469 66.168L110.904 54.8323Z" fill="white"/>
<path d="M106.523 92.2477L110.167 81.7032C110.206 81.5889 110.179 81.4834 110.036 81.434C106.979 80.282 102.809 78.6492 100.792 77.7284C98.5753 76.7385 98.076 76.0542 98.471 74.9111C98.5401 74.7111 98.6378 74.5209 98.7157 74.3879C98.7937 74.2549 98.7661 74.1495 98.6232 74.1001L96.7087 73.4386C96.5944 73.3991 96.4889 73.4266 96.4307 73.5024C96.2078 73.7773 95.9739 74.1763 95.7666 74.7764C94.7595 77.6911 96.4075 79.1242 99.4136 80.5148C101.231 81.3665 104.553 82.6744 106.771 83.5688L105.201 88.1123L100.181 86.4416L93.1224 84.0028C93.0081 83.9633 92.8928 84.0194 92.8533 84.1337L91.7771 87.2485C91.7376 87.3628 91.7937 87.4781 91.908 87.5176L98.9958 89.8707L106.254 92.3786C106.368 92.4181 106.484 92.362 106.523 92.2477Z" fill="white"/>
<path d="M101.568 104.42C103.271 103.71 104.411 102.319 104.85 100.31C105.742 96.2344 102.728 93.0372 98.3269 92.0745C93.8966 91.1054 89.9859 92.5711 89.0685 96.7651C88.6163 98.8325 89.1534 100.621 90.4336 101.985L88.5563 101.512C88.4381 101.486 88.3301 101.555 88.3043 101.673L87.6194 104.804C87.5936 104.922 87.6628 105.03 87.781 105.056L95.2663 106.632L102.578 108.293C102.696 108.319 102.804 108.25 102.83 108.132L103.521 104.971C103.547 104.853 103.478 104.745 103.36 104.719L101.568 104.42ZM91.2772 98.2695C91.7968 95.7526 94.2307 94.9542 97.7454 95.7231C101.053 96.4467 102.843 98.1689 102.251 100.732C101.692 103.147 99.3864 104.067 95.7896 103.249C92.2518 102.444 90.7539 100.662 91.2772 98.2695Z" fill="white"/>
<path d="M93.9678 120.038C94.1908 122.043 95.0984 123.396 96.9603 123.613C99.573 123.918 101.033 121.835 101.492 117.902L102.272 111.205C102.286 111.085 102.206 110.984 102.086 110.97L94.6917 110.169L87.0409 109.217C86.9208 109.203 86.8202 109.282 86.8062 109.403L86.0189 116.159C85.7354 118.592 85.7966 122.769 89.6104 123.213C91.6525 123.451 93.0663 122.551 93.9378 120.035L93.9678 120.038ZM99.0961 117.562C98.9141 119.123 98.161 120.101 96.8997 119.954C95.5784 119.8 95.0933 118.739 95.2787 117.147L95.6671 113.814L99.481 114.258L99.0961 117.562ZM93.3248 113.541L92.9364 116.874C92.7439 118.526 91.8957 119.797 90.3342 119.615C88.7726 119.433 88.2219 118.151 88.4318 116.349L88.8167 113.046L93.3248 113.541Z" fill="white"/>
<path d="M100.253 149.07L100.129 137.914C100.128 137.793 100.067 137.703 99.9155 137.705C96.6495 137.65 92.1732 137.518 89.9639 137.331C87.5431 137.146 86.8424 136.67 86.829 135.461C86.8267 135.249 86.8546 135.037 86.8832 134.886C86.9117 134.734 86.8503 134.644 86.6991 134.646L84.6736 134.668C84.5527 134.67 84.4626 134.731 84.4334 134.822C84.3161 135.156 84.2305 135.611 84.2375 136.245C84.2715 139.329 86.306 140.123 89.605 140.419C91.6026 140.609 95.1716 140.72 97.5612 140.815L97.6143 145.622L92.3244 145.741L84.8572 145.823C84.7363 145.824 84.6466 145.916 84.6479 146.037L84.6843 149.332C84.6856 149.453 84.7773 149.543 84.8982 149.542L92.3645 149.369L100.043 149.284C100.164 149.282 100.254 149.191 100.253 149.07Z" fill="white"/>
<path d="M99.195 162.357C100.61 161.173 101.286 159.506 101.11 157.458C100.751 153.301 96.9241 151.142 92.4359 151.529C87.9176 151.918 84.6181 154.478 84.9866 158.756C85.1682 160.864 86.212 162.413 87.8391 163.335L85.9061 163.441C85.7856 163.451 85.703 163.549 85.7134 163.67L85.9884 166.863C85.9988 166.983 86.097 167.066 86.2175 167.055L93.8331 166.339L101.309 165.755C101.429 165.745 101.512 165.647 101.501 165.526L101.224 162.303C101.213 162.183 101.115 162.1 100.995 162.11L99.195 162.357ZM87.5422 159.537C87.2915 156.979 89.3788 155.494 92.9633 155.186C96.337 154.895 98.5571 156.009 98.7528 158.632C98.9354 161.104 97.0065 162.666 93.329 162.953C89.7118 163.234 87.7524 161.977 87.5422 159.537Z" fill="white"/>
<path d="M97.4219 179.972L96.3973 173.461L102.201 172.609C102.32 172.59 102.396 172.487 102.377 172.367L101.869 169.142C101.851 169.022 101.747 168.947 101.627 168.966L94.2897 170.181L86.6645 171.32C86.545 171.339 86.4695 171.443 86.4883 171.562L86.9959 174.788C87.0147 174.907 87.1184 174.983 87.2379 174.964L93.8289 173.865L94.8534 180.376L88.2483 181.385C88.1289 181.404 88.0534 181.508 88.0722 181.627L88.5797 184.853C88.5985 184.972 88.7022 185.047 88.8217 185.029L96.4281 183.771L103.785 182.674C103.904 182.655 103.98 182.552 103.961 182.432L103.453 179.207C103.434 179.087 103.331 179.012 103.211 179.03L97.4219 179.972Z" fill="white"/>
<path d="M105.022 197.252C106.262 195.886 106.704 194.142 106.25 192.137C105.328 188.068 101.242 186.452 96.8487 187.447C92.4258 188.449 89.5063 191.435 90.4548 195.622C90.9223 197.686 92.1676 199.078 93.9052 199.77L92.0047 200.138C91.8867 200.165 91.8183 200.273 91.845 200.391L92.5531 203.517C92.5798 203.635 92.6883 203.703 92.8062 203.677L100.253 201.928L107.579 200.33C107.697 200.303 107.765 200.195 107.739 200.077L107.024 196.922C106.997 196.804 106.889 196.736 106.771 196.762L105.022 197.252ZM93.0931 196.048C92.4958 193.548 94.3611 191.792 97.87 190.998C101.173 190.25 103.524 191.05 104.075 193.622C104.594 196.046 102.896 197.857 99.2918 198.642C95.7467 199.415 93.6341 198.436 93.0931 196.048Z" fill="white"/>
<path d="M112.402 222.977C113.508 221.5 113.785 219.723 113.144 217.77C111.843 213.806 107.623 212.581 103.343 213.985C99.0338 215.398 96.4082 218.646 97.7463 222.725C98.4059 224.736 99.7766 226.005 101.571 226.53L99.7141 227.075C99.5992 227.113 99.5413 227.227 99.5789 227.342L100.578 230.387C100.615 230.502 100.73 230.56 100.845 230.523L108.094 228.081L115.237 225.802C115.352 225.764 115.41 225.649 115.372 225.535L114.364 222.461C114.327 222.346 114.212 222.288 114.097 222.326L112.402 222.977ZM100.413 222.901C99.5832 220.468 101.275 218.545 104.694 217.424C107.911 216.368 110.327 216.944 111.118 219.453C111.862 221.818 110.342 223.78 106.828 224.901C103.371 226.003 101.176 225.227 100.413 222.901Z" fill="white"/>
<path d="M119.75 233.403C118.605 230.474 119.573 228.051 122.164 227.039L123.187 229.658C121.779 230.208 121.193 231.281 121.732 232.661C122.26 234.013 123.43 234.432 124.86 233.938L125.883 236.557C123.292 237.569 120.916 236.388 119.75 233.403ZM106.377 234.733L110.059 233.359L117.037 230.698C117.15 230.653 117.201 230.536 117.157 230.423L115.98 227.41C115.936 227.298 115.818 227.246 115.706 227.29L108.997 229.976L101.597 232.803C101.485 232.847 101.433 232.964 101.477 233.077L102.886 236.681C102.919 236.766 102.991 236.867 103.125 236.88L116.013 238.628L112.64 239.881L105.437 242.631C105.325 242.675 105.273 242.792 105.317 242.905L106.484 245.89C106.528 246.002 106.645 246.054 106.758 246.01L113.917 243.148L120.866 240.497C120.979 240.453 121.03 240.336 120.986 240.223L119.6 236.675C119.567 236.59 119.495 236.489 119.36 236.477L106.377 234.733Z" fill="white"/>
<path d="M132.163 264.184L127.192 254.196C127.139 254.087 127.044 254.033 126.909 254.101C123.945 255.474 119.858 257.305 117.788 258.099C115.528 258.987 114.69 258.864 114.152 257.781C114.057 257.592 113.99 257.389 113.95 257.24C113.909 257.091 113.815 257.037 113.68 257.104L111.866 258.006C111.758 258.06 111.704 258.155 111.717 258.25C111.757 258.601 111.878 259.048 112.16 259.616C113.534 262.377 115.712 262.205 118.81 261.035C120.691 260.335 123.952 258.881 126.144 257.926L128.286 262.229L123.576 264.64L116.89 267.967C116.782 268.021 116.741 268.143 116.795 268.251L118.263 271.202C118.317 271.31 118.439 271.351 118.547 271.297L125.192 267.889L132.067 264.467C132.176 264.413 132.217 264.292 132.163 264.184Z" fill="white"/>
<path d="M137.275 277.46C138.057 275.788 137.964 273.992 136.938 272.211C134.855 268.596 130.474 268.258 126.571 270.507C122.641 272.771 120.734 276.486 122.877 280.206C123.933 282.04 125.534 283.002 127.398 283.149L125.692 284.063C125.587 284.123 125.554 284.247 125.614 284.352L127.214 287.129C127.274 287.234 127.398 287.267 127.503 287.206L134.1 283.336L140.628 279.646C140.732 279.585 140.766 279.461 140.705 279.357L139.091 276.554C139.03 276.449 138.906 276.415 138.802 276.476L137.275 277.46ZM125.523 279.833C124.214 277.622 125.478 275.393 128.595 273.598C131.529 271.907 134.012 271.977 135.299 274.272C136.51 276.435 135.423 278.666 132.212 280.481C129.053 282.266 126.746 281.955 125.523 279.833Z" fill="white"/>
<path d="M141.522 293.998C142.98 295.391 144.545 295.845 146.112 294.816C148.31 293.371 148.091 290.837 145.916 287.528L142.213 281.894C142.146 281.793 142.021 281.767 141.92 281.833L135.738 285.969L129.262 290.153C129.161 290.219 129.135 290.345 129.201 290.446L132.938 296.13C134.283 298.177 137.013 301.339 140.221 299.23C141.939 298.101 142.444 296.503 141.496 294.014L141.522 293.998ZM143.862 288.806C144.725 290.119 144.776 291.352 143.715 292.05C142.603 292.78 141.55 292.279 140.67 290.94L138.826 288.135L142.035 286.026L143.862 288.806ZM136.856 289.431L138.699 292.235C139.612 293.625 139.778 295.144 138.465 296.007C137.151 296.871 135.906 296.242 134.909 294.726L133.082 291.947L136.856 289.431Z" fill="white"/>
<path d="M164.611 312.829L157.627 304.129C157.551 304.035 157.447 304.002 157.329 304.097C154.726 306.07 151.123 308.73 149.27 309.947C147.251 311.296 146.406 311.354 145.649 310.411C145.516 310.246 145.408 310.062 145.337 309.925C145.265 309.788 145.162 309.755 145.044 309.85L143.464 311.118C143.37 311.194 143.337 311.298 143.37 311.387C143.484 311.722 143.697 312.133 144.095 312.628C146.025 315.033 148.116 314.401 150.894 312.597C152.582 311.513 155.459 309.398 157.397 307.997L160.407 311.745L156.319 315.105L150.495 319.78C150.401 319.856 150.387 319.983 150.463 320.077L152.526 322.647C152.601 322.741 152.729 322.755 152.823 322.68L158.59 317.934L164.578 313.127C164.672 313.051 164.686 312.923 164.611 312.829Z" fill="white"/>
<path d="M172.293 324.396C172.683 322.592 172.193 320.862 170.797 319.353C167.962 316.291 163.616 316.937 160.31 319.997C156.982 323.078 155.949 327.124 158.866 330.275C160.303 331.828 162.078 332.41 163.928 332.139L162.467 333.409C162.379 333.491 162.374 333.619 162.456 333.708L164.633 336.06C164.715 336.148 164.843 336.153 164.932 336.071L170.504 330.83L176.047 325.781C176.136 325.699 176.141 325.571 176.059 325.482L173.861 323.108C173.779 323.019 173.651 323.015 173.562 323.097L172.293 324.396ZM161.363 329.323C159.595 327.457 160.331 325.004 162.971 322.56C165.456 320.26 167.892 319.776 169.657 321.727C171.319 323.566 170.755 325.984 168.028 328.467C165.345 330.91 163.026 331.12 161.363 329.323Z" fill="white"/>
<path d="M181.577 339.202L176.751 334.713L180.789 330.46C180.872 330.371 180.867 330.243 180.779 330.161L178.388 327.937C178.299 327.855 178.171 327.859 178.089 327.948L173.068 333.435L167.773 339.039C167.69 339.127 167.695 339.256 167.784 339.338L170.174 341.562C170.263 341.644 170.391 341.639 170.474 341.551L174.98 336.617L179.806 341.106L175.233 345.978C175.151 346.066 175.155 346.195 175.244 346.277L177.635 348.501C177.723 348.583 177.852 348.579 177.934 348.49L183.14 342.804L188.25 337.399C188.332 337.31 188.328 337.182 188.239 337.1L185.848 334.876C185.76 334.794 185.631 334.798 185.549 334.887L181.577 339.202Z" fill="white"/>
<path d="M197.504 347.316C197.613 345.474 196.863 343.84 195.251 342.564C191.98 339.974 187.784 341.28 184.988 344.812C182.173 348.368 181.775 352.526 185.141 355.19C186.8 356.504 188.643 356.806 190.43 356.253L189.182 357.733C189.107 357.828 189.122 357.955 189.216 358.03L191.729 360.019C191.824 360.094 191.951 360.08 192.026 359.985L196.726 353.95L201.427 348.108C201.502 348.013 201.488 347.886 201.393 347.811L198.856 345.803C198.761 345.728 198.634 345.743 198.559 345.838L197.504 347.316ZM187.462 353.865C185.428 352.294 185.779 349.757 188.012 346.936C190.113 344.281 192.446 343.428 194.49 345.084C196.415 346.647 196.229 349.122 193.916 351.995C191.641 354.821 189.382 355.385 187.462 353.865Z" fill="white"/>
<path d="M219.331 361.971C219.19 360.131 218.227 358.612 216.458 357.565C212.867 355.44 208.886 357.3 206.592 361.177C204.282 365.08 204.447 369.253 208.142 371.439C209.963 372.517 211.83 372.568 213.526 371.78L212.488 373.414C212.427 373.518 212.459 373.643 212.563 373.704L215.321 375.336C215.425 375.398 215.549 375.366 215.611 375.262L219.454 368.649L223.325 362.227C223.387 362.123 223.355 361.998 223.251 361.937L220.467 360.289C220.363 360.228 220.238 360.26 220.177 360.364L219.331 361.971ZM210.263 369.814C208.036 368.531 208.041 365.969 209.874 362.873C211.598 359.959 213.795 358.8 216.043 360.166C218.161 361.454 218.311 363.932 216.406 367.091C214.533 370.198 212.37 371.061 210.263 369.814Z" fill="white"/>
<path d="M232.361 365.047C229.517 363.705 228.555 361.279 229.742 358.764L232.285 359.963C231.64 361.331 231.951 362.514 233.291 363.146C234.603 363.765 235.742 363.266 236.441 361.924L238.984 363.124C237.797 365.639 235.259 366.414 232.361 365.047ZM223.558 375.202L225.29 371.673L228.531 364.945C228.582 364.836 228.539 364.715 228.43 364.663L225.504 363.283C225.395 363.232 225.274 363.275 225.222 363.384L222.194 369.945L218.76 377.083C218.708 377.193 218.751 377.313 218.861 377.365L222.361 379.016C222.443 379.055 222.565 379.079 222.671 378.996L233.236 371.41L231.647 374.638L228.303 381.585C228.251 381.695 228.294 381.815 228.404 381.867L231.302 383.234C231.412 383.286 231.532 383.243 231.584 383.133L234.819 376.135L238.046 369.434C238.098 369.325 238.055 369.204 237.945 369.152L234.5 367.527C234.418 367.488 234.296 367.464 234.189 367.548L223.558 375.202Z" fill="white"/>
<path d="M261.369 377.28L250.681 374.08C250.565 374.046 250.461 374.078 250.418 374.222C249.394 377.324 247.937 381.559 247.101 383.613C246.205 385.869 245.542 386.396 244.384 386.05C244.181 385.989 243.987 385.899 243.851 385.827C243.714 385.754 243.61 385.786 243.567 385.931L242.986 387.872C242.951 387.988 242.983 388.092 243.061 388.147C243.345 388.358 243.754 388.575 244.362 388.757C247.316 389.642 248.679 387.935 249.943 384.874C250.718 383.023 251.886 379.648 252.687 377.395L257.292 378.774L255.833 383.86L253.691 391.014C253.656 391.13 253.717 391.242 253.833 391.277L256.99 392.222C257.106 392.257 257.218 392.196 257.253 392.08L259.308 384.9L261.511 377.544C261.545 377.428 261.485 377.315 261.369 377.28Z" fill="white"/>
<path d="M276.032 382.463C275.288 380.774 273.875 379.662 271.859 379.262C267.766 378.45 264.629 381.526 263.752 385.945C262.87 390.393 264.412 394.275 268.623 395.11C270.699 395.522 272.477 394.95 273.815 393.643L273.379 395.529C273.355 395.648 273.427 395.755 273.545 395.778L276.689 396.402C276.807 396.425 276.914 396.354 276.938 396.235L278.366 388.72L279.884 381.378C279.908 381.259 279.837 381.152 279.718 381.129L276.545 380.499C276.426 380.476 276.32 380.547 276.296 380.666L276.032 382.463ZM270.084 392.872C267.557 392.402 266.711 389.984 267.411 386.455C268.07 383.134 269.757 381.311 272.331 381.852C274.757 382.364 275.721 384.651 274.974 388.263C274.239 391.816 272.486 393.349 270.084 392.872Z" fill="white"/>
<path d="M290.602 390.847C292.618 390.822 294.055 390.053 294.455 388.221C295.015 385.651 293.087 383.993 289.217 383.149L282.63 381.712C282.512 381.686 282.404 381.756 282.378 381.874L280.852 389.153L279.15 396.673C279.125 396.791 279.194 396.899 279.312 396.925L285.958 398.374C288.351 398.896 292.514 399.247 293.332 395.496C293.77 393.487 293.013 391.991 290.595 390.876L290.602 390.847ZM288.643 385.499C290.179 385.834 291.077 386.68 290.807 387.921C290.523 389.22 289.42 389.599 287.854 389.257L284.575 388.542L285.393 384.791L288.643 385.499ZM284.073 390.846L287.352 391.561C288.976 391.916 290.157 392.885 289.822 394.421C289.487 395.957 288.157 396.379 286.385 395.992L283.136 395.283L284.073 390.846Z" fill="white"/>
<path d="M321.966 390.866L311.14 388.174C311.022 388.144 310.92 388.181 310.883 388.328C310.007 391.475 308.751 395.773 308.013 397.864C307.224 400.16 306.587 400.718 305.413 400.426C305.208 400.375 305.01 400.295 304.87 400.229C304.731 400.163 304.628 400.2 304.592 400.347L304.103 402.312C304.074 402.43 304.11 402.532 304.191 402.584C304.485 402.781 304.903 402.979 305.519 403.132C308.512 403.876 309.793 402.107 310.911 398.99C311.598 397.104 312.606 393.679 313.299 391.39L317.964 392.55L316.746 397.699L314.944 404.946C314.915 405.064 314.981 405.174 315.098 405.203L318.296 405.998C318.413 406.027 318.523 405.961 318.553 405.844L320.267 398.575L322.12 391.123C322.15 391.005 322.083 390.895 321.966 390.866Z" fill="white"/>
<path d="M333.132 395.911C332.501 394.177 331.164 392.974 329.178 392.442C325.148 391.363 321.814 394.226 320.649 398.577C319.476 402.958 320.759 406.932 324.906 408.043C326.95 408.59 328.762 408.137 330.183 406.921L329.624 408.774C329.593 408.891 329.657 409.002 329.774 409.034L332.869 409.863C332.986 409.894 333.097 409.83 333.129 409.713L335.049 402.309L337.047 395.081C337.078 394.965 337.014 394.854 336.897 394.822L333.772 393.985C333.656 393.954 333.545 394.018 333.513 394.135L333.132 395.911ZM326.511 405.906C324.021 405.271 323.336 402.802 324.267 399.327C325.143 396.056 326.946 394.348 329.479 395.058C331.866 395.728 332.678 398.074 331.694 401.629C330.726 405.126 328.877 406.54 326.511 405.906Z" fill="white"/>
<path d="M349.285 404.638L342.952 402.811L344.636 397.193C344.67 397.076 344.608 396.964 344.492 396.931L341.354 396.026C341.238 395.992 341.126 396.054 341.092 396.17L339.089 403.333L336.894 410.724C336.86 410.84 336.922 410.952 337.038 410.986L340.176 411.891C340.292 411.924 340.404 411.862 340.438 411.746L342.232 405.31L348.564 407.136L346.683 413.548C346.65 413.664 346.712 413.776 346.828 413.81L349.965 414.715C350.081 414.748 350.194 414.686 350.227 414.57L352.306 407.146L354.426 400.017C354.459 399.901 354.397 399.788 354.281 399.755L351.144 398.85C351.028 398.816 350.915 398.878 350.882 398.994L349.285 404.638Z" fill="white"/>
<path d="M367.911 406.013C367.347 404.256 366.057 403.003 364.093 402.395C360.108 401.162 356.667 403.895 355.336 408.199C353.995 412.531 355.125 416.552 359.226 417.821C361.248 418.446 363.076 418.062 364.543 416.902L363.913 418.733C363.877 418.848 363.937 418.962 364.053 418.997L367.114 419.944C367.23 419.98 367.343 419.92 367.379 419.805L369.582 412.479L371.855 405.334C371.891 405.219 371.831 405.105 371.716 405.07L368.625 404.114C368.51 404.078 368.396 404.138 368.361 404.253L367.911 406.013ZM360.912 415.747C358.448 415.017 357.859 412.524 358.922 409.087C359.923 405.852 361.79 404.214 364.294 405.021C366.653 405.782 367.374 408.157 366.255 411.672C365.154 415.129 363.252 416.471 360.912 415.747Z" fill="white"/>
<path d="M393.505 414.408C392.994 412.635 391.742 411.344 389.797 410.678C385.849 409.327 382.329 411.957 380.87 416.219C379.402 420.51 380.411 424.562 384.473 425.952C386.476 426.637 388.314 426.308 389.814 425.192L389.131 427.003C389.092 427.117 389.148 427.232 389.262 427.272L392.295 428.309C392.409 428.348 392.524 428.292 392.563 428.178L394.983 420.921L397.468 413.847C397.507 413.732 397.451 413.617 397.336 413.578L394.276 412.53C394.161 412.491 394.046 412.548 394.007 412.662L393.505 414.408ZM386.22 423.93C383.779 423.126 383.264 420.617 384.429 417.213C385.525 414.009 387.44 412.428 389.919 413.308C392.255 414.14 392.905 416.535 391.682 420.015C390.479 423.438 388.537 424.723 386.22 423.93Z" fill="white"/>
<path d="M407.522 415.802C404.568 414.725 403.389 412.397 404.341 409.784L406.983 410.747C406.465 412.167 406.883 413.317 408.275 413.824C409.638 414.321 410.726 413.72 411.301 412.32L413.942 413.283C412.99 415.896 410.533 416.899 407.522 415.802ZM399.682 426.717L401.085 423.045L403.699 416.05C403.74 415.936 403.686 415.82 403.572 415.778L400.533 414.671C400.419 414.629 400.303 414.683 400.262 414.797L397.844 421.607L395.075 429.028C395.033 429.142 395.088 429.258 395.201 429.3L398.837 430.625C398.922 430.656 399.046 430.669 399.145 430.576L408.974 422.059L407.685 425.419L404.988 432.641C404.947 432.755 405.001 432.871 405.115 432.913L408.126 434.01C408.239 434.052 408.356 433.997 408.397 433.884L410.98 426.62L413.584 419.652C413.625 419.539 413.571 419.423 413.458 419.381L409.878 418.077C409.793 418.046 409.669 418.033 409.571 418.126L399.682 426.717Z" fill="white"/>
<path d="M437.76 428.841L427.404 424.692C427.291 424.647 427.185 424.669 427.129 424.809C425.83 427.807 423.997 431.893 422.98 433.863C421.884 436.029 421.176 436.495 420.054 436.045C419.857 435.966 419.672 435.859 419.543 435.775C419.414 435.691 419.307 435.713 419.251 435.854L418.498 437.734C418.453 437.846 418.475 437.953 418.548 438.015C418.812 438.251 419.199 438.503 419.788 438.74C422.651 439.887 424.162 438.31 425.697 435.374C426.635 433.601 428.102 430.345 429.103 428.173L433.565 429.961L431.653 434.895L428.876 441.827C428.831 441.939 428.882 442.057 428.994 442.102L432.053 443.328C432.165 443.373 432.283 443.322 432.328 443.21L435.021 436.244L437.877 429.116C437.922 429.004 437.872 428.886 437.76 428.841Z" fill="white"/>
<path d="M450.205 436.271C449.827 434.465 448.675 433.084 446.785 432.275C442.949 430.633 439.243 432.993 437.47 437.135C435.686 441.304 436.391 445.42 440.337 447.11C442.283 447.942 444.141 447.751 445.72 446.75L444.903 448.505C444.856 448.616 444.904 448.735 445.015 448.783L447.961 450.044C448.072 450.091 448.191 450.044 448.239 449.932L451.193 442.876L454.199 436.007C454.246 435.896 454.199 435.777 454.087 435.729L451.113 434.456C451.002 434.409 450.883 434.457 450.835 434.568L450.205 436.271ZM442.23 445.223C439.856 444.24 439.529 441.699 440.944 438.392C442.277 435.279 444.305 433.844 446.711 434.907C448.978 435.91 449.448 438.348 447.969 441.727C446.513 445.05 444.481 446.187 442.23 445.223Z" fill="white"/>
<path d="M506.161 463.675C505.969 461.84 504.964 460.348 503.166 459.351C499.518 457.326 495.59 459.296 493.404 463.235C491.204 467.2 491.485 471.367 495.239 473.45C497.089 474.477 498.957 474.476 500.63 473.641L499.639 475.304C499.58 475.41 499.615 475.533 499.721 475.592L502.523 477.147C502.629 477.205 502.752 477.17 502.811 477.064L506.47 470.347L510.16 463.82C510.219 463.714 510.184 463.591 510.078 463.532L507.249 461.962C507.144 461.904 507.02 461.939 506.962 462.045L506.161 463.675ZM497.314 471.766C495.052 470.546 494.986 467.985 496.732 464.839C498.375 461.879 500.539 460.659 502.824 461.962C504.977 463.191 505.196 465.663 503.38 468.874C501.593 472.032 499.455 472.955 497.314 471.766Z" fill="white"/>
<path d="M518.248 475.469L512.615 472.047L515.712 467.066C515.775 466.963 515.745 466.838 515.641 466.775L512.851 465.08C512.747 465.017 512.623 465.047 512.56 465.151L508.75 471.539L504.695 478.096C504.633 478.199 504.663 478.324 504.766 478.387L507.557 480.082C507.66 480.145 507.785 480.115 507.848 480.011L511.265 474.269L516.898 477.692L513.403 483.386C513.34 483.49 513.371 483.614 513.474 483.677L516.265 485.372C516.368 485.435 516.493 485.405 516.555 485.301L520.507 478.681L524.42 472.356C524.483 472.253 524.452 472.128 524.349 472.065L521.558 470.37C521.455 470.307 521.33 470.338 521.268 470.441L518.248 475.469Z" fill="white"/>
<path d="M536.281 482.368C536.256 480.523 535.39 478.947 533.69 477.791C530.24 475.444 526.15 477.05 523.616 480.775C521.066 484.525 520.968 488.7 524.518 491.114C526.268 492.304 528.128 492.473 529.871 491.793L528.732 493.359C528.664 493.459 528.688 493.585 528.788 493.653L531.438 495.455C531.538 495.523 531.664 495.499 531.732 495.399L535.984 489.04L540.251 482.874C540.319 482.774 540.295 482.648 540.195 482.58L537.52 480.761C537.42 480.693 537.294 480.717 537.226 480.817L536.281 482.368ZM526.738 489.625C524.596 488.205 524.762 485.649 526.785 482.674C528.69 479.874 530.955 478.855 533.113 480.36C535.146 481.779 535.139 484.261 533.04 487.294C530.975 490.277 528.763 491.003 526.738 489.625Z" fill="white"/>
<path d="M556.968 498.265C557.138 496.428 556.444 494.769 554.875 493.44C551.692 490.743 547.455 491.908 544.543 495.345C541.611 498.805 541.074 502.946 544.349 505.722C545.964 507.09 547.796 507.453 549.6 506.961L548.303 508.398C548.225 508.49 548.235 508.618 548.327 508.696L550.772 510.768C550.865 510.846 550.992 510.836 551.071 510.744L555.97 504.869L560.863 499.187C560.941 499.095 560.931 498.967 560.838 498.889L558.37 496.798C558.278 496.72 558.15 496.73 558.072 496.822L556.968 498.265ZM546.713 504.475C544.733 502.837 545.168 500.313 547.494 497.568C549.683 494.984 552.043 494.21 554.03 495.934C555.902 497.56 555.634 500.027 553.226 502.822C550.858 505.57 548.581 506.058 546.713 504.475Z" fill="white"/>
<path d="M570.127 506.056C567.964 503.773 567.949 501.164 569.968 499.251L571.902 501.291C570.805 502.331 570.665 503.546 571.684 504.622C572.682 505.675 573.924 505.623 575.063 504.627L576.997 506.668C574.978 508.581 572.332 508.382 570.127 506.056ZM558.239 512.323L561.134 509.663L566.596 504.571C566.683 504.487 566.687 504.359 566.604 504.271L564.378 501.923C564.295 501.836 564.167 501.832 564.079 501.915L558.876 506.93L553.085 512.334C552.997 512.418 552.994 512.546 553.077 512.634L555.739 515.442C555.801 515.508 555.906 515.575 556.036 515.536L568.633 512.303L565.98 514.734L560.343 519.993C560.255 520.076 560.252 520.204 560.335 520.292L562.539 522.618C562.622 522.706 562.751 522.71 562.838 522.626L568.393 517.279L573.833 512.207C573.921 512.124 573.924 511.996 573.841 511.908L571.22 509.143C571.158 509.077 571.053 509.01 570.924 509.05L558.239 512.323Z" fill="white"/>
<path d="M589.258 536.512L584.46 526.44C584.408 526.331 584.315 526.275 584.178 526.34C581.191 527.662 577.074 529.423 574.99 530.181C572.715 531.03 571.88 530.892 571.36 529.801C571.269 529.609 571.205 529.405 571.167 529.256C571.129 529.106 571.036 529.051 570.899 529.116L569.071 529.987C568.961 530.039 568.905 530.132 568.917 530.227C568.951 530.579 569.064 531.028 569.337 531.601C570.663 534.385 572.843 534.251 575.961 533.134C577.854 532.467 581.14 531.069 583.348 530.151L585.415 534.491L580.665 536.821L573.923 540.033C573.814 540.085 573.771 540.205 573.823 540.315L575.24 543.29C575.292 543.399 575.413 543.442 575.522 543.39L582.225 540.096L589.158 536.794C589.267 536.742 589.31 536.621 589.258 536.512Z" fill="white"/>
<path d="M589.606 553.429C591.105 552.354 591.903 550.742 591.879 548.686C591.83 544.514 588.174 542.078 583.669 542.13C579.134 542.183 575.654 544.491 575.704 548.784C575.729 550.9 576.654 552.522 578.209 553.562L576.273 553.524C576.152 553.525 576.062 553.617 576.064 553.738L576.101 556.943C576.103 557.064 576.194 557.153 576.315 557.152L583.963 557.002L591.461 556.976C591.582 556.974 591.672 556.883 591.67 556.762L591.633 553.527C591.631 553.406 591.54 553.316 591.419 553.318L589.606 553.429ZM578.195 549.753C578.134 547.183 580.326 545.858 583.924 545.816C587.31 545.776 589.441 547.052 589.441 549.682C589.44 552.161 587.4 553.576 583.712 553.589C580.084 553.601 578.223 552.201 578.195 549.753Z" fill="white"/>
<path d="M578.972 568.88C578.401 570.814 578.713 572.414 580.345 573.335C582.636 574.628 584.789 573.274 586.735 569.825L590.049 563.954C590.109 563.849 590.074 563.725 589.969 563.666L583.463 560.063L576.778 556.22C576.673 556.161 576.549 556.195 576.49 556.301L573.146 562.225C571.943 564.357 570.38 568.232 573.724 570.119C575.515 571.13 577.167 570.847 578.945 568.865L578.972 568.88ZM584.659 568.584C583.886 569.953 582.813 570.562 581.707 569.938C580.549 569.284 580.513 568.118 581.3 566.723L582.95 563.8L586.294 565.688L584.659 568.584ZM580.896 562.641L579.247 565.564C578.429 567.012 577.155 567.855 575.786 567.082C574.417 566.309 574.405 564.914 575.297 563.334L576.932 560.438L580.896 562.641Z" fill="white"/>
<path d="M560.501 594.018L569.938 588.068C570.04 588.003 570.084 587.904 570.004 587.776C568.339 584.965 566.106 581.084 565.108 579.104C563.997 576.945 564.035 576.099 565.058 575.454C565.237 575.341 565.432 575.254 565.576 575.199C565.72 575.144 565.764 575.044 565.684 574.916L564.603 573.203C564.539 573.1 564.439 573.056 564.347 573.079C564.001 573.154 563.569 573.319 563.032 573.658C560.423 575.302 560.813 577.451 562.289 580.416C563.175 582.217 564.95 585.315 566.121 587.4L562.055 589.964L559.182 585.521L555.199 579.204C555.134 579.102 555.009 579.074 554.907 579.138L552.119 580.896C552.017 580.96 551.989 581.085 552.053 581.188L556.113 587.456L560.209 593.952C560.273 594.054 560.399 594.083 560.501 594.018Z" fill="white"/>
<path d="M543.256 595.351C544.394 596.803 546.038 597.532 548.091 597.422C552.258 597.197 554.538 593.441 554.296 588.943C554.052 584.414 551.599 581.034 547.312 581.265C545.198 581.379 543.617 582.373 542.643 583.969L542.6 582.034C542.593 581.913 542.498 581.827 542.377 581.834L539.177 582.006C539.056 582.013 538.97 582.108 538.977 582.229L539.449 589.864L539.792 597.354C539.798 597.475 539.894 597.561 540.014 597.554L543.245 597.38C543.365 597.374 543.451 597.278 543.445 597.157L543.256 595.351ZM546.449 583.795C549.013 583.626 550.43 585.76 550.624 589.353C550.806 592.734 549.622 594.917 546.994 595.028C544.516 595.132 543.017 593.153 542.849 589.469C542.684 585.844 544.003 583.926 546.449 583.795Z" fill="white"/>
<path d="M526.538 586.015L532.388 589.051L529.633 594.229C529.577 594.336 529.616 594.458 529.723 594.514L532.621 596.018C532.728 596.074 532.851 596.035 532.906 595.928L536.279 589.299L539.884 582.484C539.939 582.376 539.901 582.254 539.793 582.198L536.895 580.694C536.788 580.638 536.666 580.677 536.61 580.784L533.586 586.743L527.736 583.707L530.84 577.79C530.896 577.683 530.857 577.561 530.75 577.505L527.852 576.001C527.745 575.945 527.622 575.984 527.567 576.091L524.069 582.962L520.589 589.535C520.533 589.643 520.572 589.765 520.68 589.821L523.578 591.325C523.685 591.381 523.807 591.342 523.863 591.234L526.538 586.015Z" fill="white"/>
<path d="M510.084 576.978C509.7 578.783 510.196 580.511 511.598 582.015C514.444 585.066 518.788 584.404 522.082 581.332C525.399 578.239 526.417 574.188 523.489 571.049C522.045 569.501 520.268 568.926 518.419 569.204L519.875 567.928C519.964 567.846 519.968 567.717 519.886 567.629L517.7 565.285C517.617 565.197 517.489 565.193 517.401 565.275L511.848 570.536L506.324 575.606C506.235 575.689 506.231 575.817 506.313 575.905L508.52 578.271C508.602 578.36 508.731 578.364 508.819 578.282L510.084 576.978ZM520.995 572.01C522.77 573.869 522.043 576.325 519.412 578.779C516.936 581.088 514.501 581.581 512.729 579.637C511.06 577.803 511.615 575.384 514.333 572.89C517.007 570.438 519.325 570.219 520.995 572.01Z" fill="white"/>
<path d="M494.789 553.689C493.956 555.336 493.993 557.134 494.963 558.946C496.933 562.624 501.301 563.097 505.273 560.971C509.271 558.83 511.292 555.176 509.266 551.391C508.267 549.525 506.697 548.514 504.838 548.309L506.572 547.449C506.679 547.392 506.716 547.269 506.659 547.163L505.146 544.337C505.089 544.231 504.966 544.194 504.86 544.251L498.145 547.915L491.506 551.4C491.4 551.457 491.362 551.58 491.42 551.687L492.947 554.539C493.004 554.645 493.126 554.683 493.233 554.625L494.789 553.689ZM506.609 551.682C507.849 553.933 506.517 556.121 503.345 557.819C500.36 559.418 497.88 559.27 496.666 556.937C495.522 554.737 496.678 552.541 499.944 550.827C503.157 549.141 505.453 549.523 506.609 551.682Z" fill="white"/>
<path d="M485.544 541.348C486.711 544.268 485.76 546.699 483.177 547.73L482.134 545.119C483.538 544.558 484.117 543.481 483.568 542.105C483.03 540.757 481.857 540.347 480.43 540.851L479.387 538.24C481.971 537.208 484.356 538.372 485.544 541.348ZM498.907 539.919L495.235 541.32L488.277 544.033C488.165 544.078 488.114 544.196 488.159 544.309L489.359 547.313C489.403 547.425 489.521 547.476 489.634 547.431L496.322 544.695L503.701 541.814C503.813 541.769 503.864 541.651 503.819 541.539L502.384 537.945C502.35 537.86 502.277 537.759 502.142 537.748L489.242 536.096L492.605 534.817L499.788 532.015C499.9 531.97 499.951 531.852 499.906 531.74L498.717 528.763C498.672 528.651 498.555 528.6 498.442 528.645L491.305 531.56L484.375 534.262C484.263 534.307 484.212 534.425 484.257 534.537L485.67 538.075C485.704 538.159 485.776 538.261 485.911 538.272L498.907 539.919Z" fill="white"/>
<path d="M476.668 509.02L479.528 519.803C479.559 519.92 479.641 519.992 479.787 519.954C482.966 519.204 487.338 518.232 489.525 517.871C491.917 517.455 492.714 517.744 493.024 518.913C493.078 519.118 493.103 519.33 493.113 519.484C493.122 519.638 493.204 519.71 493.35 519.671L495.308 519.152C495.425 519.121 495.497 519.039 495.503 518.944C495.534 518.591 495.506 518.13 495.343 517.516C494.552 514.535 492.385 514.266 489.115 514.789C487.132 515.096 483.645 515.865 481.305 516.361L480.072 511.714L485.171 510.299L492.389 508.384C492.506 508.353 492.57 508.242 492.539 508.125L491.694 504.94C491.663 504.823 491.552 504.759 491.435 504.79L484.24 506.792L476.818 508.761C476.701 508.792 476.637 508.903 476.668 509.02Z" fill="white"/>
<path d="M475.79 494.508C474.502 495.83 473.999 497.556 474.383 499.576C475.161 503.675 479.188 505.434 483.613 504.593C488.069 503.747 491.091 500.865 490.29 496.648C489.896 494.568 488.7 493.134 486.988 492.382L488.9 492.08C489.019 492.058 489.091 491.952 489.069 491.833L488.471 488.684C488.448 488.565 488.342 488.493 488.223 488.516L480.72 490.002L473.342 491.341C473.223 491.364 473.151 491.47 473.174 491.589L473.777 494.767C473.8 494.886 473.906 494.958 474.025 494.935L475.79 494.508ZM487.669 496.13C488.178 498.649 486.252 500.338 482.717 501.009C479.391 501.641 477.069 500.758 476.608 498.169C476.175 495.727 477.936 493.977 481.565 493.319C485.135 492.672 487.212 493.724 487.669 496.13Z" fill="white"/>
<path d="M478.494 476.918C477.806 475.022 476.605 473.92 474.745 474.147C472.134 474.466 471.205 476.833 471.685 480.764L472.502 487.457C472.516 487.577 472.617 487.656 472.737 487.641L480.113 486.68L487.773 485.805C487.893 485.791 487.972 485.69 487.957 485.57L487.133 478.817C486.836 476.386 485.794 472.341 481.982 472.806C479.942 473.055 478.779 474.263 478.524 476.914L478.494 476.918ZM474.093 480.531C473.902 478.971 474.404 477.843 475.665 477.69C476.985 477.528 477.706 478.445 477.9 480.036L478.307 483.367L474.496 483.832L474.093 480.531ZM480.648 483.081L480.241 479.75C480.04 478.1 480.565 476.665 482.126 476.474C483.686 476.284 484.523 477.4 484.743 479.2L485.146 482.502L480.648 483.081Z" fill="white"/>
<path d="M469.677 448.061L469.888 459.215C469.891 459.336 469.953 459.426 470.104 459.423C473.37 459.452 477.847 459.549 480.058 459.718C482.48 459.884 483.185 460.355 483.208 461.564C483.212 461.776 483.185 461.988 483.158 462.139C483.131 462.291 483.193 462.381 483.344 462.378L485.369 462.34C485.49 462.337 485.58 462.275 485.608 462.184C485.723 461.849 485.805 461.394 485.793 460.759C485.735 457.676 483.694 456.898 480.393 456.628C478.394 456.454 474.824 456.37 472.434 456.294L472.343 451.488L477.632 451.328L485.098 451.187C485.219 451.184 485.308 451.092 485.306 450.971L485.243 447.676C485.241 447.555 485.149 447.466 485.028 447.468L477.563 447.7L469.885 447.845C469.764 447.848 469.675 447.94 469.677 448.061Z" fill="white"/>
<path d="M472.28 434.265C470.712 435.238 469.808 436.792 469.694 438.845C469.462 443.011 472.947 445.687 477.445 445.937C481.973 446.189 485.601 444.119 485.839 439.833C485.956 437.72 485.141 436.039 483.66 434.897L485.589 435.065C485.71 435.072 485.805 434.986 485.812 434.865L485.99 431.665C485.996 431.545 485.911 431.449 485.79 431.442L478.149 431.078L470.666 430.602C470.546 430.595 470.45 430.681 470.443 430.802L470.264 434.032C470.257 434.153 470.343 434.248 470.464 434.255L472.28 434.265ZM483.419 438.699C483.306 441.267 481.031 442.442 477.438 442.243C474.057 442.055 472.017 440.639 472.193 438.015C472.36 435.541 474.49 434.267 478.171 434.501C481.792 434.733 483.555 436.254 483.419 438.699Z" fill="white"/>
<path d="M478.251 417.255L477.309 423.778L471.512 422.88C471.392 422.862 471.29 422.939 471.272 423.059L470.806 426.291C470.788 426.41 470.865 426.513 470.985 426.53L478.355 427.534L485.976 428.695C486.096 428.713 486.199 428.636 486.216 428.516L486.683 425.285C486.7 425.165 486.623 425.062 486.504 425.045L479.882 424.15L480.824 417.626L487.433 418.611C487.552 418.629 487.655 418.552 487.673 418.432L488.139 415.2C488.157 415.081 488.08 414.978 487.96 414.961L480.321 413.919L472.969 412.796C472.849 412.778 472.746 412.855 472.729 412.975L472.262 416.207C472.245 416.326 472.322 416.429 472.441 416.446L478.251 417.255Z" fill="white"/>
<path d="M478.177 398.167C476.45 398.817 475.261 400.166 474.751 402.158C473.716 406.2 476.615 409.501 480.979 410.619C485.372 411.745 489.332 410.418 490.398 406.26C490.923 404.209 490.449 402.403 489.218 400.995L491.078 401.534C491.195 401.564 491.305 401.498 491.335 401.381L492.13 398.277C492.16 398.16 492.095 398.049 491.978 398.019L484.553 396.18L477.305 394.261C477.188 394.231 477.077 394.296 477.047 394.413L476.244 397.547C476.214 397.664 476.28 397.774 476.397 397.804L478.177 398.167ZM488.244 404.678C487.635 407.175 485.175 407.887 481.689 406.994C478.409 406.153 476.682 404.369 477.364 401.828C478.008 399.434 480.345 398.597 483.91 399.542C487.417 400.471 488.851 402.306 488.244 404.678Z" fill="white"/>
<path d="M488.208 372.187C486.384 372.465 484.942 373.54 484.031 375.383C482.182 379.123 484.336 382.953 488.375 384.95C492.44 386.959 496.589 386.48 498.491 382.632C499.429 380.735 499.339 378.869 498.426 377.237L500.134 378.149C500.242 378.202 500.364 378.161 500.417 378.053L501.838 375.18C501.891 375.072 501.85 374.95 501.742 374.896L494.858 371.561L488.163 368.185C488.054 368.131 487.933 368.172 487.879 368.28L486.446 371.181C486.392 371.289 486.433 371.41 486.542 371.464L488.208 372.187ZM496.711 380.639C495.599 382.956 493.045 383.143 489.819 381.549C486.784 380.049 485.463 377.946 486.655 375.601C487.781 373.392 490.24 373.056 493.534 374.718C496.772 376.352 497.796 378.443 496.711 380.639Z" fill="white"/>
<path d="M493.302 357.616C491.431 360.143 488.864 360.613 486.629 358.958L488.301 356.698C489.516 357.597 490.737 357.523 491.619 356.332C492.482 355.166 492.215 353.952 491.035 353.004L492.708 350.744C494.944 352.399 495.209 355.04 493.302 357.616ZM501.544 368.231L498.421 365.844L492.455 361.352C492.357 361.28 492.231 361.299 492.159 361.396L490.234 363.996C490.162 364.094 490.181 364.221 490.278 364.293L496.122 368.543L502.453 373.304C502.55 373.376 502.677 373.357 502.749 373.26L505.051 370.149C505.105 370.077 505.153 369.961 505.092 369.841L499.714 357.999L502.57 360.188L508.73 364.823C508.828 364.895 508.954 364.876 509.026 364.779L510.933 362.203C511.005 362.106 510.986 361.979 510.889 361.907L504.656 357.369L498.714 352.895C498.617 352.824 498.49 352.842 498.418 352.94L496.152 356.002C496.098 356.074 496.05 356.19 496.111 356.31L501.544 368.231Z" fill="white"/>
<path d="M519.616 334.953L510.43 341.283C510.33 341.352 510.29 341.453 510.376 341.577C512.154 344.318 514.543 348.105 515.621 350.042C516.819 352.154 516.816 353.001 515.82 353.687C515.646 353.807 515.454 353.903 515.312 353.964C515.171 354.024 515.13 354.126 515.216 354.25L516.366 355.918C516.434 356.018 516.536 356.058 516.627 356.032C516.97 355.942 517.395 355.76 517.918 355.4C520.457 353.65 519.98 351.519 518.384 348.616C517.426 346.853 515.526 343.83 514.27 341.794L518.229 339.067L521.28 343.389L525.518 349.538C525.586 349.638 525.712 349.661 525.812 349.592L528.526 347.723C528.625 347.654 528.648 347.528 528.58 347.428L524.268 341.33L519.911 335.007C519.842 334.907 519.716 334.884 519.616 334.953Z" fill="white"/>
<path d="M534.072 330.682C532.543 329.649 530.755 329.461 528.835 330.196C524.939 331.69 523.923 335.965 525.535 340.171C527.158 344.406 530.531 346.869 534.54 345.332C536.516 344.575 537.716 343.143 538.152 341.325L538.788 343.153C538.831 343.266 538.948 343.319 539.061 343.275L542.054 342.128C542.167 342.085 542.219 341.968 542.176 341.855L539.381 334.734L536.754 327.711C536.711 327.598 536.594 327.546 536.481 327.589L533.46 328.747C533.347 328.791 533.295 328.908 533.338 329.021L534.072 330.682ZM534.584 342.66C532.195 343.608 530.191 342.013 528.904 338.653C527.692 335.491 528.148 333.05 530.615 332.137C532.941 331.278 534.975 332.7 536.267 336.155C537.537 339.553 536.871 341.784 534.584 342.66Z" fill="white"/>
<path d="M553.247 331.542C555.123 330.803 556.193 329.573 555.915 327.719C555.526 325.118 553.134 324.253 549.217 324.839L542.549 325.837C542.43 325.855 542.354 325.958 542.372 326.078L543.532 333.424L544.614 341.058C544.632 341.178 544.735 341.254 544.854 341.236L551.582 340.229C554.004 339.867 558.02 338.715 557.451 334.918C557.147 332.885 555.908 331.756 553.252 331.572L553.247 331.542ZM549.516 327.24C551.07 327.008 552.211 327.479 552.399 328.735C552.596 330.05 551.699 330.796 550.114 331.033L546.795 331.53L546.226 327.733L549.516 327.24ZM547.144 333.862L550.463 333.365C552.107 333.119 553.556 333.606 553.789 335.16C554.021 336.715 552.928 337.582 551.134 337.85L547.845 338.343L547.144 333.862Z" fill="white"/>
<path d="M582.658 324.769L571.551 323.72C571.431 323.709 571.335 323.761 571.32 323.911C570.923 327.154 570.322 331.591 569.904 333.769C569.466 336.157 568.919 336.804 567.715 336.69C567.504 336.67 567.296 336.62 567.149 336.576C567.001 336.531 566.905 336.583 566.891 336.734L566.7 338.75C566.689 338.871 566.741 338.967 566.828 339.005C567.148 339.157 567.591 339.29 568.223 339.349C571.293 339.639 572.296 337.699 572.937 334.45C573.335 332.483 573.821 328.946 574.166 326.579L578.952 327.031L578.515 332.304L577.813 339.739C577.802 339.859 577.883 339.958 578.004 339.969L581.285 340.279C581.405 340.29 581.504 340.209 581.515 340.088L582.127 332.645L582.849 325C582.86 324.879 582.778 324.78 582.658 324.769Z" fill="white"/>
<path d="M595.789 329.282C595.034 327.599 593.613 326.496 591.594 326.109C587.496 325.325 584.379 328.423 583.533 332.847C582.68 337.301 584.248 341.172 588.465 341.979C590.544 342.377 592.318 341.793 593.647 340.477L593.224 342.366C593.201 342.485 593.273 342.591 593.392 342.614L596.539 343.216C596.658 343.239 596.764 343.167 596.787 343.048L598.165 335.524L599.634 328.171C599.656 328.052 599.584 327.946 599.466 327.923L596.288 327.315C596.17 327.293 596.063 327.365 596.041 327.484L595.789 329.282ZM589.911 339.732C587.381 339.278 586.519 336.866 587.195 333.333C587.832 330.007 589.506 328.172 592.084 328.696C594.513 329.192 595.493 331.473 594.77 335.09C594.058 338.647 592.316 340.192 589.911 339.732Z" fill="white"/>
<path d="M613.294 336.568L606.8 335.44L607.863 329.672C607.884 329.553 607.81 329.448 607.691 329.427L604.474 328.869C604.355 328.848 604.25 328.922 604.229 329.041L603.016 336.379L601.638 343.965C601.617 344.084 601.691 344.189 601.81 344.209L605.027 344.768C605.147 344.789 605.251 344.715 605.272 344.596L606.355 338.002L612.849 339.13L611.676 345.708C611.656 345.827 611.73 345.932 611.849 345.952L615.066 346.511C615.185 346.532 615.29 346.458 615.311 346.339L616.57 338.732L617.902 331.415C617.922 331.296 617.848 331.191 617.729 331.17L614.512 330.612C614.393 330.591 614.288 330.665 614.267 330.784L613.294 336.568Z" fill="white"/>
<path d="M632.234 335.536C631.419 333.88 629.96 332.828 627.929 332.514C623.805 331.876 620.801 335.083 620.112 339.535C619.419 344.016 621.124 347.829 625.367 348.485C627.458 348.809 629.21 348.162 630.492 346.8L630.136 348.703C630.118 348.822 630.193 348.926 630.313 348.944L633.48 349.434C633.599 349.453 633.703 349.377 633.721 349.257L634.831 341.689L636.037 334.288C636.055 334.169 635.979 334.065 635.86 334.047L632.663 333.552C632.543 333.534 632.44 333.61 632.421 333.729L632.234 335.536ZM626.732 346.188C624.187 345.825 623.24 343.445 623.79 339.889C624.307 336.543 625.916 334.65 628.51 335.082C630.956 335.491 632.016 337.735 631.422 341.376C630.838 344.957 629.152 346.562 626.732 346.188Z" fill="white"/>
<path d="M657.324 338.974C656.46 337.344 654.969 336.337 652.929 336.085C648.788 335.573 645.883 338.87 645.33 343.341C644.774 347.842 646.594 351.6 650.855 352.127C652.955 352.386 654.687 351.687 655.926 350.286L655.629 352.199C655.614 352.319 655.693 352.42 655.813 352.435L658.994 352.828C659.114 352.843 659.215 352.764 659.23 352.644L660.108 345.045L661.088 337.611C661.102 337.491 661.023 337.39 660.903 337.375L657.693 336.979C657.573 336.964 657.472 337.043 657.457 337.163L657.324 338.974ZM652.149 349.789C649.595 349.504 648.576 347.154 649.017 343.583C649.432 340.223 650.982 338.282 653.589 338.634C656.046 338.968 657.174 341.179 656.691 344.836C656.216 348.433 654.58 350.089 652.149 349.789Z" fill="white"/>
<path d="M673.097 337.349C669.968 337.039 668.248 335.076 668.523 332.308L671.321 332.585C671.172 334.09 671.862 335.1 673.336 335.246C674.78 335.389 675.685 334.537 675.894 333.039L678.692 333.316C678.418 336.084 676.286 337.665 673.097 337.349ZM668.21 349.868L668.658 345.963L669.455 338.537C669.467 338.417 669.385 338.318 669.265 338.306L666.046 337.987C665.926 337.975 665.826 338.056 665.814 338.176L665.162 345.373L664.32 353.25C664.308 353.37 664.39 353.469 664.51 353.481L668.361 353.863C668.451 353.872 668.574 353.854 668.647 353.739L676.056 343.05L675.641 346.624L674.82 354.29C674.808 354.411 674.89 354.51 675.01 354.522L678.199 354.838C678.319 354.85 678.419 354.769 678.431 354.648L679.131 346.97L679.925 339.575C679.937 339.455 679.855 339.356 679.735 339.344L675.944 338.968C675.854 338.959 675.731 338.977 675.659 339.092L668.21 349.868Z" fill="white"/>
<path d="M705.375 341.153L694.238 340.495C694.117 340.488 694.023 340.543 694.014 340.693C693.731 343.948 693.286 348.404 692.944 350.594C692.59 352.996 692.066 353.662 690.859 353.591C690.648 353.578 690.438 353.535 690.289 353.496C690.14 353.457 690.046 353.512 690.037 353.663L689.917 355.685C689.91 355.806 689.965 355.9 690.054 355.936C690.379 356.076 690.826 356.193 691.46 356.231C694.538 356.413 695.473 354.439 695.999 351.169C696.328 349.189 696.69 345.637 696.952 343.26L701.75 343.543L701.498 348.829L701.058 356.283C701.051 356.404 701.136 356.5 701.256 356.507L704.546 356.702C704.667 356.709 704.763 356.624 704.77 356.503L705.12 349.043L705.573 341.377C705.58 341.256 705.495 341.16 705.375 341.153Z" fill="white"/>
<path d="M718.223 343.629C717.208 342.088 715.63 341.226 713.575 341.168C709.404 341.049 706.823 344.605 706.695 349.108C706.566 353.641 708.732 357.211 713.024 357.334C715.139 357.394 716.797 356.534 717.899 355.022L717.783 356.955C717.78 357.076 717.868 357.169 717.989 357.173L721.192 357.264C721.313 357.267 721.406 357.179 721.41 357.058L721.567 349.41L721.841 341.917C721.844 341.796 721.756 341.703 721.635 341.7L718.402 341.608C718.281 341.604 718.188 341.692 718.184 341.813L718.223 343.629ZM714.092 354.884C711.522 354.841 710.285 352.598 710.388 349.001C710.484 345.617 711.844 343.538 714.472 343.643C716.95 343.744 718.281 345.839 718.146 349.525C718.012 353.15 716.54 354.954 714.092 354.884Z" fill="white"/>
<path d="M736.322 348.942C738.283 348.473 739.514 347.405 739.5 345.53C739.479 342.9 737.233 341.708 733.272 341.739L726.53 341.792C726.409 341.793 726.319 341.884 726.32 342.005L726.439 349.442L726.439 357.152C726.44 357.273 726.531 357.363 726.652 357.362L733.454 357.309C735.903 357.29 740.041 356.713 740.011 352.873C739.995 350.818 738.926 349.526 736.322 348.972L736.322 348.942ZM733.231 344.158C734.803 344.146 735.866 344.773 735.876 346.043C735.886 347.373 734.893 347.985 733.291 347.998L729.935 348.024L729.905 344.184L733.231 344.158ZM729.953 350.382L733.309 350.356C734.972 350.343 736.338 351.028 736.35 352.6C736.363 354.172 735.159 354.877 733.345 354.891L730.019 354.917L729.953 350.382Z" fill="white"/>
<path d="M764.532 340.372L753.403 341.161C753.283 341.169 753.197 341.236 753.207 341.387C753.348 344.65 753.483 349.127 753.428 351.343C753.388 353.771 752.955 354.498 751.749 354.584C751.538 354.599 751.324 354.584 751.171 354.564C751.018 354.545 750.932 354.612 750.943 354.762L751.086 356.783C751.095 356.904 751.162 356.99 751.254 357.014C751.594 357.111 752.053 357.169 752.687 357.124C755.763 356.906 756.434 354.828 756.532 351.517C756.602 349.512 756.501 345.942 756.452 343.551L761.247 343.211L761.682 348.485L762.21 355.934C762.219 356.054 762.316 356.138 762.436 356.13L765.723 355.897C765.844 355.888 765.928 355.791 765.92 355.671L765.301 348.228L764.758 340.568C764.749 340.447 764.652 340.363 764.532 340.372Z" fill="white"/>
<path d="M777.411 340.963C776.176 339.593 774.485 338.979 772.445 339.231C768.304 339.742 766.288 343.647 766.841 348.118C767.396 352.618 770.077 355.821 774.337 355.295C776.438 355.036 777.947 353.935 778.808 352.275L778.985 354.203C779 354.323 779.101 354.402 779.221 354.387L782.402 353.995C782.522 353.98 782.601 353.879 782.586 353.759L781.588 346.175L780.73 338.726C780.715 338.606 780.614 338.527 780.494 338.542L777.283 338.938C777.163 338.953 777.084 339.054 777.099 339.174L777.411 340.963ZM775.024 352.712C772.477 353.057 770.916 351.026 770.475 347.456C770.06 344.095 771.091 341.835 773.705 341.543C776.169 341.269 777.802 343.139 778.224 346.803C778.638 350.408 777.454 352.412 775.024 352.712Z" fill="white"/>
<path d="M796.136 341.986L789.664 343.23L788.616 337.459C788.593 337.34 788.487 337.268 788.368 337.291L785.162 337.908C785.043 337.931 784.971 338.037 784.994 338.156L786.458 345.448L787.854 353.03C787.877 353.149 787.983 353.221 788.102 353.198L791.308 352.581C791.427 352.559 791.499 352.452 791.476 352.334L790.155 345.784L796.627 344.539L797.859 351.106C797.882 351.225 797.988 351.297 798.107 351.274L801.314 350.658C801.432 350.635 801.504 350.529 801.482 350.41L799.966 342.85L798.621 335.535C798.599 335.417 798.492 335.345 798.374 335.367L795.167 335.984C795.048 336.007 794.976 336.113 794.999 336.232L796.136 341.986Z" fill="white"/>
<path d="M811.83 334.009C810.409 332.832 808.648 332.469 806.665 333.014C802.642 334.12 801.213 338.275 802.407 342.619C803.609 346.992 806.724 349.773 810.864 348.635C812.905 348.074 814.239 346.767 814.85 345L815.305 346.882C815.337 346.998 815.448 347.062 815.565 347.03L818.655 346.18C818.772 346.148 818.835 346.037 818.803 345.92L816.718 338.561L814.789 331.315C814.757 331.198 814.646 331.135 814.529 331.167L811.41 332.024C811.293 332.056 811.23 332.167 811.262 332.284L811.83 334.009ZM811.169 345.98C808.699 346.69 806.861 344.907 805.907 341.437C805.01 338.172 805.703 335.787 808.247 335.119C810.646 334.491 812.532 336.105 813.48 339.67C814.412 343.176 813.531 345.331 811.169 345.98Z" fill="white"/>
<path d="M836.523 324.74C834.93 323.808 833.134 323.735 831.265 324.592C827.473 326.333 826.734 330.664 828.613 334.759C830.505 338.88 834.029 341.121 837.931 339.33C839.854 338.447 840.96 336.942 841.278 335.099L842.03 336.883C842.081 336.993 842.201 337.037 842.311 336.987L845.224 335.65C845.333 335.599 845.378 335.479 845.328 335.369L842.081 328.443L839.008 321.603C838.958 321.493 838.838 321.449 838.728 321.499L835.788 322.849C835.678 322.899 835.633 323.02 835.684 323.13L836.523 324.74ZM837.803 336.661C835.481 337.76 833.378 336.297 831.877 333.027C830.465 329.95 830.763 327.484 833.166 326.414C835.432 325.407 837.553 326.696 839.065 330.06C840.551 333.37 840.029 335.639 837.803 336.661Z" fill="white"/>
<path d="M846.379 315.499C843.727 317.188 841.163 316.706 839.668 314.36L842.04 312.85C842.852 314.125 844.019 314.493 845.268 313.697C846.492 312.918 846.677 311.689 845.916 310.381L848.288 308.871C849.782 311.217 849.083 313.777 846.379 315.499ZM850.271 328.362L848.21 325.014L844.25 318.683C844.185 318.581 844.06 318.553 843.957 318.618L841.229 320.356C841.127 320.421 841.099 320.546 841.164 320.648L845.097 326.711L849.301 333.424C849.366 333.526 849.491 333.554 849.593 333.489L852.857 331.41C852.934 331.361 853.02 331.271 853.006 331.137L852.229 318.154L854.11 321.221L858.201 327.756C858.266 327.858 858.391 327.886 858.493 327.821L861.196 326.099C861.298 326.034 861.326 325.909 861.261 325.807L857.068 319.337L853.124 313.031C853.059 312.929 852.934 312.901 852.832 312.966L849.619 315.013C849.542 315.062 849.456 315.152 849.47 315.287L850.271 328.362Z" fill="white"/>
<path d="M870.884 296.036L863.321 304.238C863.239 304.327 863.222 304.434 863.334 304.537C865.673 306.817 868.839 309.983 870.319 311.635C871.953 313.43 872.137 314.257 871.317 315.146C871.173 315.302 871.008 315.437 870.883 315.527C870.758 315.618 870.741 315.726 870.852 315.828L872.342 317.201C872.431 317.283 872.538 317.3 872.622 317.254C872.936 317.092 873.31 316.82 873.741 316.353C875.831 314.086 874.895 312.112 872.698 309.634C871.374 308.126 868.854 305.596 867.18 303.888L870.438 300.354L874.369 303.896L879.859 308.958C879.948 309.04 880.077 309.035 880.159 308.946L882.392 306.523C882.474 306.434 882.469 306.306 882.38 306.224L876.829 301.229L871.183 296.024C871.094 295.942 870.966 295.947 870.884 296.036Z" fill="white"/>
<path d="M879.707 286.293C877.865 286.409 876.333 287.351 875.262 289.106C873.088 292.667 874.893 296.673 878.738 299.021C882.609 301.384 886.784 301.276 889.021 297.611C890.123 295.805 890.2 293.939 889.435 292.232L891.055 293.292C891.158 293.355 891.283 293.325 891.346 293.222L893.016 290.486C893.079 290.383 893.049 290.258 892.946 290.195L886.385 286.261L880.017 282.303C879.914 282.24 879.789 282.27 879.726 282.373L878.041 285.135C877.978 285.238 878.008 285.362 878.111 285.425L879.707 286.293ZM887.424 295.468C886.111 297.677 883.55 297.637 880.479 295.762C877.589 293.998 876.46 291.785 877.856 289.556C879.174 287.456 881.653 287.34 884.786 289.288C887.867 291.204 888.7 293.378 887.424 295.468Z" fill="white"/>
<path d="M891.038 273.928C891.32 271.931 890.777 270.394 889.027 269.721C886.572 268.777 884.64 270.431 883.219 274.128L880.799 280.421C880.756 280.533 880.808 280.651 880.921 280.694L887.884 283.307L895.058 286.131C895.171 286.174 895.288 286.122 895.332 286.009L897.773 279.66C898.652 277.374 899.631 273.313 896.047 271.935C894.128 271.197 892.535 271.718 891.066 273.938L891.038 273.928ZM885.455 275.052C886.019 273.585 886.991 272.825 888.177 273.281C889.418 273.758 889.625 274.907 889.049 276.402L887.845 279.535L884.261 278.156L885.455 275.052ZM890.046 280.381L891.25 277.249C891.847 275.697 892.985 274.676 894.452 275.241C895.919 275.805 896.134 277.183 895.483 278.876L894.29 281.981L890.046 280.381Z" fill="white"/>
<path d="M889.922 244.654L888.45 255.712C888.434 255.832 888.482 255.93 888.632 255.95C891.856 256.471 896.268 257.241 898.428 257.742C900.797 258.271 901.423 258.842 901.263 260.041C901.235 260.25 901.177 260.456 901.127 260.602C901.078 260.748 901.126 260.846 901.275 260.866L903.283 261.133C903.403 261.149 903.501 261.101 903.543 261.015C903.707 260.701 903.857 260.264 903.94 259.634C904.347 256.578 902.447 255.501 899.224 254.737C897.274 254.264 893.758 253.643 891.406 253.208L892.04 248.443L897.293 249.081L904.695 250.066C904.815 250.082 904.917 250.004 904.933 249.884L905.368 246.618C905.384 246.498 905.306 246.396 905.186 246.38L897.771 245.485L890.159 244.472C890.039 244.456 889.938 244.534 889.922 244.654Z" fill="white"/>
<path d="M892.224 231.122C890.711 232.179 889.893 233.78 889.891 235.836C889.886 240.008 893.511 242.492 898.016 242.497C902.551 242.502 906.061 240.239 906.065 235.945C906.068 233.829 905.163 232.195 903.622 231.135L905.557 231.198C905.678 231.198 905.769 231.108 905.769 230.987L905.772 227.782C905.773 227.661 905.682 227.57 905.561 227.57L897.912 227.622L890.414 227.553C890.293 227.553 890.202 227.643 890.202 227.764L890.198 230.999C890.198 231.12 890.289 231.211 890.41 231.211L892.224 231.122ZM903.587 234.945C903.615 237.515 901.406 238.812 897.808 238.808C894.422 238.804 892.307 237.502 892.341 234.872C892.374 232.392 894.431 231.004 898.12 231.038C901.748 231.073 903.59 232.496 903.587 234.945Z" fill="white"/>
<path d="M895.11 213.881L895.78 220.437L889.939 220.973C889.819 220.986 889.738 221.085 889.75 221.205L890.082 224.454C890.094 224.574 890.194 224.655 890.314 224.643L897.707 223.827L905.383 223.103C905.503 223.091 905.584 222.991 905.572 222.871L905.24 219.623C905.228 219.502 905.128 219.421 905.008 219.434L898.367 220.173L897.697 213.616L904.347 212.967C904.467 212.955 904.548 212.855 904.536 212.735L904.204 209.487C904.192 209.366 904.092 209.285 903.972 209.298L896.309 210.142L888.904 210.837C888.783 210.85 888.702 210.949 888.714 211.07L889.046 214.318C889.059 214.438 889.158 214.519 889.278 214.507L895.11 213.881Z" fill="white"/>
</svg>
