<svg width="374" height="378" viewBox="0 0 374 378" fill="none" xmlns="http://www.w3.org/2000/svg">
<path d="M24.529 117.413L44.5762 211.633C46.9734 246.242 63.6085 321.75 110.972 346.901C170.177 378.34 109.12 274.144 201.52 242.11C293.92 210.076 281.488 225.095 324.953 191.1C368.418 157.104 220.172 55.6281 207.898 116.651C200.969 151.101 174.781 159.933 151.876 159.542C135.958 159.271 124.521 145.828 121.208 130.257L114.406 98.2898C109.296 74.275 85.6865 58.9494 61.6717 64.059L58.7597 64.6786C34.7449 69.7883 19.4193 93.3983 24.529 117.413Z" fill="#12A4FF"/>
<path d="M135.695 208.613L112.708 194.167C112.505 194.039 112.288 194.045 112.128 194.299C107.405 201.475 102.287 208.829 99.1125 212.864C95.2799 217.833 91.8541 220.575 88.1898 221.891L85.9013 220.452C85.6979 220.324 85.4494 220.381 85.3216 220.584L77.8106 232.535C77.6827 232.739 77.7394 232.987 77.9428 233.115L83.1301 236.375C83.3335 236.503 83.5819 236.446 83.7098 236.243L88.7075 228.743L112.152 243.477L107.561 251.233C107.433 251.437 107.49 251.685 107.693 251.813L112.83 255.041C113.033 255.169 113.281 255.112 113.409 254.909L120.92 242.958C121.048 242.754 120.991 242.506 120.788 242.378L116.974 239.981L124.345 227.8L135.827 209.193C135.955 208.99 135.898 208.741 135.695 208.613ZM104.936 216.24C107.287 213.177 111.172 207.673 115.006 202.137L127.008 209.68L118.294 223.997L110.719 236.05L94.5467 225.886C97.7722 224.366 101.263 220.955 104.936 216.24Z" fill="white"/>
</svg>
