<svg width="424" height="427" viewBox="0 0 424 427" fill="none" xmlns="http://www.w3.org/2000/svg">
<path d="M342.619 139.916C334.928 130.154 316.909 136.17 297.523 147.644C270.177 163.83 232.774 154.516 218.569 126.091C148.038 -15.0405 106.884 146.469 59.1688 179.063C5.92354 215.434 108.781 245.716 159.784 253.992C210.786 262.267 172.956 352.298 234.417 358.685C295.878 365.072 319.708 321.232 319.846 277.353C319.984 233.474 236.292 260.252 282.219 233.146C328.145 206.04 361.823 164.288 342.619 139.916Z" fill="#12A4FF"/>
<path d="M187.986 176.38L165.05 161.965C164.847 161.837 164.63 161.843 164.471 162.097C158.559 170.939 152.738 179.411 148.809 184.533C144.753 189.859 142.559 191.318 139.406 189.336C138.999 189.08 138.624 188.774 138.332 188.448C138.078 188.288 137.829 188.345 137.702 188.549L135.241 192.464C135.113 192.668 135.119 192.884 135.322 193.012C135.836 193.548 136.605 194.244 137.724 194.947C144.386 199.134 148.551 196.006 154.422 188.132C157.412 184.052 162.536 176.915 167.297 169.904L179.197 177.383L170.509 191.432L160.039 207.979C159.911 208.182 159.968 208.431 160.171 208.559L165.715 212.042C165.918 212.17 166.166 212.114 166.294 211.91L176.561 195.235L188.118 176.96C188.246 176.756 188.189 176.508 187.986 176.38Z" fill="white"/>
</svg>
