<svg width="722" height="990" viewBox="0 0 722 990" fill="none" xmlns="http://www.w3.org/2000/svg">
<path d="M685.272 106.943C677.587 213.153 596.437 454.034 368.166 406.828C82.8275 347.82 429.854 140.253 456.104 410.806C482.354 681.359 222.53 791.956 12.3818 863.886" stroke="#12A4FF" stroke-width="71.8047"/>
<path d="M687.249 130.294L679.568 129.336L680.474 121.832L688.162 122.73L698.51 124.039C698.63 124.054 698.731 123.975 698.745 123.855L699.144 120.553C699.158 120.433 699.079 120.332 698.959 120.317L688.596 119.128L680.916 118.17L681.822 110.666L689.509 111.564L699.857 112.874C699.977 112.888 700.078 112.809 700.093 112.689L700.491 109.387C700.506 109.267 700.427 109.166 700.307 109.152L689.944 107.962L679.716 106.667C679.596 106.652 679.495 106.731 679.48 106.851L676.387 132.485C676.372 132.605 676.451 132.706 676.571 132.72L686.814 133.895L697.162 135.205C697.282 135.22 697.383 135.141 697.398 135.021L697.796 131.719C697.811 131.599 697.731 131.498 697.611 131.483L687.249 130.294Z" fill="white"/>
<path d="M689.293 147.244L684.227 142.483L684.622 140.311L690.292 141.403C690.411 141.424 690.517 141.351 690.538 141.232L691.122 138.02C691.144 137.901 691.071 137.795 690.952 137.774L683.623 136.504L676.049 135.066C675.93 135.045 675.824 135.118 675.803 135.237L675.219 138.449C675.197 138.568 675.27 138.674 675.389 138.695L682.063 139.846L681.663 142.047L677.126 143.681L674.249 144.634C674.119 144.672 674.068 144.785 674.052 144.874L673.382 148.563C673.355 148.712 673.457 148.823 673.592 148.755L683.035 145.154L688.541 150.703C688.674 150.819 688.804 150.781 688.831 150.632L689.398 147.509C689.414 147.42 689.401 147.325 689.293 147.244Z" fill="white"/>
<path d="M671.127 157.339C670.06 162.15 672.652 165.543 677.433 166.604C682.244 167.671 685.969 165.679 687.036 160.868C688.097 156.086 685.511 152.664 680.7 151.596C675.889 150.529 672.187 152.557 671.127 157.339ZM673.518 157.869C674.094 155.272 676.241 154.386 679.901 155.197C683.532 156.003 685.198 157.704 684.645 160.337C684.076 162.905 681.816 163.736 678.186 162.931C674.526 162.119 672.941 160.467 673.518 157.869Z" fill="white"/>
<path d="M680.822 184.561L683.653 173.77C683.684 173.653 683.649 173.55 683.502 173.511C680.367 172.595 676.085 171.284 674.004 170.519C671.718 169.7 671.168 169.056 671.475 167.886C671.529 167.681 671.612 167.484 671.68 167.346C671.747 167.207 671.712 167.104 671.566 167.066L669.606 166.552C669.489 166.521 669.386 166.557 669.334 166.637C669.133 166.928 668.93 167.343 668.769 167.957C667.986 170.94 669.738 172.244 672.841 173.402C674.718 174.113 678.13 175.165 680.409 175.888L679.189 180.538L674.056 179.253L666.833 177.358C666.716 177.327 666.606 177.392 666.575 177.509L665.738 180.696C665.708 180.813 665.772 180.924 665.889 180.955L673.136 182.763L680.563 184.712C680.68 184.742 680.791 184.678 680.822 184.561Z" fill="white"/>
<path d="M674.519 198.733C676.274 198.161 677.522 196.866 678.121 194.9C679.336 190.908 676.588 187.48 672.279 186.167C667.94 184.846 663.925 185.993 662.674 190.1C662.057 192.125 662.449 193.951 663.616 195.412L661.782 194.791C661.667 194.755 661.554 194.816 661.518 194.931L660.585 197.997C660.549 198.113 660.61 198.226 660.725 198.261L668.06 200.432L675.215 202.674C675.331 202.71 675.444 202.649 675.479 202.534L676.422 199.439C676.457 199.323 676.397 199.21 676.281 199.175L674.519 198.733ZM664.755 191.777C665.475 189.31 667.965 188.709 671.406 189.757C674.646 190.744 676.291 192.604 675.496 195.112C674.745 197.474 672.373 198.206 668.853 197.102C665.391 196.016 664.041 194.12 664.755 191.777Z" fill="white"/>
<path d="M666.762 227.393L670.571 217.068C670.613 216.954 670.587 216.848 670.445 216.796C667.186 215.497 664.101 214.166 662.369 213.269C660.751 212.414 659.621 211.546 659.137 210.498L659.504 209.505C659.545 209.392 659.492 209.275 659.378 209.233L653.847 207.193C653.734 207.151 653.617 207.205 653.575 207.319L652.602 209.957C652.56 210.07 652.614 210.186 652.727 210.228L656.015 211.538L652.458 221.182L649.107 220.043C648.994 220.001 648.877 220.055 648.836 220.168L647.873 222.778C647.831 222.891 647.885 223.008 647.998 223.05L653.53 225.09C653.643 225.132 653.76 225.078 653.801 224.964L654.44 223.234L659.672 225.035L666.49 227.518C666.604 227.56 666.72 227.506 666.762 227.393ZM655.695 219.83L657.945 213.732C658.721 214.598 659.691 215.375 661.32 216.201C662.703 216.905 665.006 217.915 667.176 218.845L665.502 223.383L660.914 221.755L655.695 219.83Z" fill="white"/>
<path d="M653.108 230.373L656.717 231.93L663.596 234.837C663.708 234.883 663.826 234.834 663.873 234.722L665.108 231.732C665.154 231.621 665.105 231.502 664.993 231.456L658.292 228.753L650.994 225.673C650.882 225.626 650.763 225.676 650.717 225.787L649.24 229.364C649.205 229.448 649.187 229.571 649.275 229.673L657.369 239.854L654.067 238.424L646.965 235.425C646.853 235.379 646.735 235.428 646.688 235.54L645.465 238.501C645.419 238.613 645.468 238.732 645.58 238.778L652.728 241.666L659.579 244.561C659.691 244.607 659.809 244.558 659.855 244.446L661.31 240.926C661.345 240.842 661.363 240.719 661.274 240.616L653.108 230.373Z" fill="white"/>
<path d="M644.6 251.646C643.115 250.966 642.86 249.419 643.679 247.632C644.585 245.653 646.006 244.875 647.941 245.661C648.078 245.724 648.171 245.667 648.221 245.557L649.506 242.753C649.556 242.643 649.539 242.536 649.402 242.473C646.066 241.044 643.306 242.639 641.505 246.57C640.031 249.786 639.792 253.501 642.898 254.924C644.74 255.768 646.348 255.307 647.94 253.21L647.968 253.223C647.572 255.103 647.952 256.741 649.711 257.547C652.157 258.668 654.549 257.003 656.124 253.568C657.736 250.05 657.385 246.896 654.505 245.343C654.395 245.293 654.275 245.338 654.224 245.447L652.99 248.141C652.94 248.251 652.957 248.359 653.082 248.449C654.435 249.269 654.769 250.719 653.963 252.478C653.257 254.017 652.047 254.626 650.893 254.097C649.628 253.518 649.384 252.309 650.102 250.742L650.933 248.928C650.984 248.818 650.939 248.698 650.829 248.647L649.098 247.854C648.988 247.804 648.867 247.848 648.817 247.958L647.986 249.772C647.243 251.394 646.111 252.339 644.6 251.646Z" fill="white"/>
<path d="M645.123 270.809C646.95 270.55 648.403 269.491 649.334 267.658C651.223 263.938 649.111 260.085 645.095 258.045C641.052 255.991 636.898 256.425 634.954 260.252C633.995 262.139 634.065 264.006 634.96 265.647L633.262 264.717C633.155 264.662 633.033 264.702 632.978 264.81L631.527 267.667C631.472 267.775 631.512 267.897 631.62 267.952L638.467 271.362L645.125 274.811C645.232 274.866 645.354 274.826 645.409 274.718L646.874 271.834C646.929 271.726 646.889 271.604 646.781 271.549L645.123 270.809ZM636.712 262.265C637.849 259.96 640.406 259.8 643.613 261.429C646.632 262.963 647.931 265.08 646.713 267.411C645.563 269.608 643.1 269.917 639.825 268.22C636.604 266.55 635.603 264.448 636.712 262.265Z" fill="white"/>
<path d="M641.148 285.179C642.7 282.444 645.191 281.668 647.61 283.041L646.223 285.486C644.908 284.74 643.705 284.961 642.974 286.249C642.258 287.512 642.67 288.684 643.955 289.483L642.567 291.928C640.148 290.556 639.566 287.966 641.148 285.179ZM631.684 275.637L635.073 277.629L641.538 281.368C641.643 281.427 641.767 281.393 641.826 281.288L643.423 278.474C643.483 278.369 643.449 278.246 643.343 278.186L637.029 274.672L630.17 270.71C630.064 270.651 629.941 270.685 629.881 270.79L627.971 274.156C627.926 274.235 627.893 274.355 627.968 274.467L634.737 285.573L631.637 283.745L624.962 279.887C624.857 279.828 624.733 279.862 624.674 279.967L623.092 282.754C623.032 282.859 623.066 282.983 623.172 283.043L629.907 286.795L636.345 290.518C636.451 290.578 636.574 290.544 636.634 290.439L638.514 287.125C638.559 287.047 638.592 286.926 638.517 286.814L631.684 275.637Z" fill="white"/>
<path d="M624.887 297.898L628.383 292.31L633.323 295.473C633.426 295.537 633.551 295.508 633.615 295.405L635.347 292.637C635.411 292.535 635.382 292.41 635.28 292.346L628.942 288.452L622.439 284.312C622.336 284.248 622.211 284.276 622.147 284.379L620.415 287.147C620.351 287.25 620.38 287.375 620.482 287.439L626.179 290.931L622.683 296.519L617.035 292.949C616.932 292.885 616.807 292.914 616.743 293.017L615.011 295.785C614.947 295.887 614.976 296.012 615.078 296.076L621.646 300.114L627.919 304.11C628.022 304.174 628.147 304.145 628.211 304.043L629.943 301.275C630.007 301.172 629.978 301.047 629.876 300.983L624.887 297.898Z" fill="white"/>
<path d="M618.004 315.328C619.849 315.33 621.438 314.488 622.62 312.806C625.018 309.392 623.474 305.278 619.787 302.689C616.076 300.082 611.903 299.922 609.435 303.435C608.219 305.167 608.023 307.024 608.677 308.777L607.128 307.615C607.029 307.546 606.903 307.568 606.833 307.667L604.991 310.289C604.922 310.388 604.944 310.514 605.043 310.584L611.337 314.931L617.438 319.29C617.537 319.359 617.663 319.337 617.733 319.238L619.592 316.591C619.662 316.492 619.639 316.365 619.541 316.296L618.004 315.328ZM610.891 305.677C612.343 303.556 614.896 303.761 617.84 305.829C620.611 307.775 621.596 310.055 620.06 312.19C618.61 314.202 616.128 314.158 613.127 312.013C610.176 309.903 609.483 307.681 610.891 305.677Z" fill="white"/>
<path d="M595.433 338.573L606.319 325.606C606.397 325.513 606.386 325.385 606.293 325.308L604.626 323.908C604.533 323.83 604.406 323.841 604.328 323.934L593.442 336.901C593.364 336.994 593.375 337.121 593.468 337.199L595.135 338.599C595.228 338.677 595.355 338.666 595.433 338.573Z" fill="white"/>
<path d="M590.672 351.128L585.445 345.837L580.114 340.266C580.03 340.18 579.902 340.178 579.815 340.262L577.474 342.538C577.387 342.622 577.385 342.751 577.469 342.837L582.886 348.324L586.384 351.965L581.874 356.348L578.334 352.749L573.003 347.178C572.919 347.091 572.791 347.09 572.704 347.174L570.363 349.45C570.276 349.534 570.274 349.662 570.358 349.749L575.775 355.235L580.916 360.611C581 360.697 581.128 360.699 581.215 360.615L590.667 351.427C590.754 351.343 590.756 351.215 590.672 351.128Z" fill="white"/>
<path d="M562.541 355.832C558.783 359.02 558.798 363.29 561.967 367.024C565.155 370.782 569.327 371.445 573.084 368.257C576.819 365.088 576.827 360.799 573.638 357.041C570.45 353.284 566.275 352.663 562.541 355.832ZM564.125 357.699C566.154 355.977 568.4 356.569 570.826 359.428C573.232 362.263 573.532 364.626 571.5 366.39C569.494 368.092 567.192 367.388 564.786 364.553C562.361 361.694 562.096 359.42 564.125 357.699Z" fill="white"/>
<path d="M553.217 383.138L562.133 376.688C562.231 376.617 562.269 376.514 562.181 376.392C560.198 373.497 558.378 370.672 557.44 368.963C556.573 367.351 556.118 366.001 556.301 364.861L557.158 364.241C557.256 364.17 557.277 364.043 557.206 363.945L553.75 359.169C553.679 359.071 553.552 359.05 553.454 359.121L551.176 360.769C551.078 360.84 551.058 360.967 551.129 361.065L553.129 363.984L544.801 370.01L542.654 367.197C542.583 367.099 542.456 367.079 542.358 367.149L540.105 368.78C540.007 368.851 539.986 368.977 540.057 369.075L543.513 373.852C543.584 373.95 543.711 373.97 543.809 373.899L545.303 372.818L548.644 377.23L552.922 383.091C552.993 383.189 553.119 383.209 553.217 383.138ZM548.242 370.692L553.509 366.881C553.67 368.033 554.043 369.219 554.935 370.813C555.692 372.168 557.04 374.29 558.324 376.271L554.405 379.107L551.503 375.199L548.242 370.692Z" fill="white"/>
<path d="M542.294 390.497C544.073 389.407 544.991 387.781 545.104 385.939L546.047 387.595C546.111 387.698 546.235 387.728 546.338 387.665L549.097 385.974C549.2 385.911 549.23 385.786 549.167 385.683L544.534 378.239L538.567 368.386C538.504 368.283 538.379 368.253 538.276 368.316L535.492 370.022C535.389 370.085 535.359 370.21 535.422 370.313L539.059 376.133C537.399 375.449 535.648 375.6 533.92 376.658C530.363 378.838 530.119 383.243 532.473 387.084C534.842 390.951 538.634 392.74 542.294 390.497ZM536.041 378.267C538.155 376.971 540.405 378.039 542.29 381.174C544.144 384.258 543.922 386.557 541.834 387.836C539.617 389.195 537.413 388.028 535.533 384.96C533.779 382.099 533.798 379.641 536.041 378.267Z" fill="white"/>
<path d="M523.006 398.4C524.634 399.27 526.432 399.273 528.265 398.343C531.986 396.455 532.556 392.098 530.518 388.081C528.466 384.036 524.857 381.934 521.029 383.877C519.141 384.834 518.096 386.382 517.849 388.236L517.028 386.483C516.973 386.375 516.851 386.335 516.743 386.39L513.885 387.839C513.778 387.894 513.738 388.016 513.792 388.124L517.307 394.918L520.645 401.632C520.7 401.74 520.822 401.78 520.93 401.725L523.815 400.262C523.922 400.207 523.962 400.085 523.908 399.977L523.006 398.4ZM521.26 386.539C523.539 385.349 525.696 386.73 527.324 389.938C528.856 392.958 528.654 395.433 526.295 396.596C524.07 397.691 521.9 396.487 520.258 393.184C518.644 389.935 519.076 387.647 521.26 386.539Z" fill="white"/>
<path d="M504.037 396.955C503.422 395.443 504.297 394.141 506.117 393.401C508.134 392.581 509.702 392.988 510.572 394.886C510.629 395.026 510.736 395.048 510.848 395.003L513.704 393.841C513.817 393.796 513.878 393.706 513.821 393.566C512.371 390.239 509.267 389.51 505.262 391.138C501.985 392.47 499.265 395.011 500.552 398.176C501.315 400.053 502.801 400.819 505.398 400.384L505.41 400.412C503.833 401.51 502.987 402.963 503.716 404.755C504.729 407.248 507.612 407.676 511.113 406.252C514.698 404.795 516.604 402.258 515.57 399.153C515.525 399.041 515.406 398.991 515.294 399.037L512.55 400.153C512.438 400.198 512.376 400.289 512.405 400.44C512.829 401.965 512.078 403.249 510.286 403.978C508.718 404.615 507.418 404.229 506.94 403.053C506.417 401.765 507.068 400.717 508.664 400.068L510.513 399.316C510.625 399.271 510.674 399.153 510.629 399.041L509.912 397.276C509.866 397.164 509.748 397.114 509.636 397.16L507.787 397.911C506.135 398.583 504.663 398.496 504.037 396.955Z" fill="white"/>
<path d="M488.681 413.745L499.172 410.422C499.288 410.385 499.356 410.3 499.31 410.156C498.338 406.785 497.497 403.531 497.143 401.614C496.826 399.811 496.819 398.386 497.35 397.362L498.359 397.042C498.474 397.006 498.533 396.892 498.497 396.777L496.717 391.156C496.68 391.041 496.566 390.982 496.451 391.018L493.77 391.867C493.655 391.904 493.596 392.018 493.633 392.133L494.614 395.533L484.815 398.637L483.66 395.292C483.624 395.177 483.51 395.118 483.395 395.154L480.743 395.994C480.628 396.031 480.569 396.145 480.605 396.26L482.385 401.88C482.422 401.996 482.536 402.055 482.651 402.018L484.409 401.461L486.195 406.699L488.415 413.607C488.452 413.723 488.566 413.782 488.681 413.745ZM487.868 400.366L494.065 398.403C493.856 399.547 493.838 400.79 494.184 402.583C494.476 404.108 495.09 406.545 495.687 408.83L491.075 410.291L489.548 405.669L487.868 400.366Z" fill="white"/>
<path d="M473.539 403.608C476.076 403.04 477.767 404.365 478.661 407.666L467.539 410.157C467.421 410.183 467.345 410.262 467.379 410.41C468.6 415.589 471.992 418.145 476.713 417.087C481.344 416.05 483.398 412.213 482.327 407.434C481.29 402.802 477.931 400.115 473.033 401.212C468.932 402.13 466.983 405.046 467.273 408.141C467.27 408.265 467.378 408.334 467.496 408.308L470.506 407.634C470.624 407.607 470.669 407.535 470.673 407.41C470.659 405.276 471.651 404.031 473.539 403.608ZM476.154 414.734C473.824 415.256 472.293 413.678 471.683 411.646L479.059 409.994C479.273 412.61 478.338 414.245 476.154 414.734Z" fill="white"/>
<path d="M452.893 420.872L463.93 419.246C464.05 419.229 464.131 419.156 464.109 419.006C463.723 415.763 463.25 411.309 463.138 409.095C462.995 406.671 463.372 405.913 464.568 405.737C464.778 405.706 464.992 405.705 465.146 405.713C465.3 405.721 465.38 405.648 465.358 405.498L465.063 403.494C465.046 403.374 464.973 403.293 464.878 403.277C464.532 403.206 464.07 403.182 463.442 403.274C460.391 403.724 459.879 405.847 460.03 409.156C460.111 411.161 460.482 414.712 460.71 417.093L455.954 417.793L455.123 412.568L454.035 405.18C454.017 405.06 453.914 404.983 453.795 405.001L450.535 405.481C450.415 405.499 450.338 405.602 450.356 405.722L451.534 413.096L452.653 420.694C452.671 420.813 452.774 420.89 452.893 420.872Z" fill="white"/>
<path d="M440.511 408.358C443.105 408.184 444.574 409.752 444.954 413.151L433.581 413.914C433.46 413.922 433.374 413.988 433.384 414.139C433.8 419.444 436.762 422.488 441.589 422.164C446.325 421.846 448.94 418.368 448.612 413.481C448.294 408.745 445.385 405.577 440.377 405.913C436.184 406.194 433.812 408.777 433.626 411.881C433.604 412.003 433.701 412.088 433.822 412.08L436.899 411.873C437.019 411.865 437.075 411.801 437.098 411.678C437.41 409.566 438.58 408.488 440.511 408.358ZM441.397 419.753C439.013 419.913 437.742 418.119 437.449 416.018L444.991 415.512C444.803 418.131 443.629 419.603 441.397 419.753Z" fill="white"/>
<path d="M421.339 416.289L427.93 416.28L427.878 422.145C427.878 422.266 427.969 422.357 428.089 422.357L431.355 422.352C431.476 422.352 431.566 422.261 431.566 422.14L431.496 414.703L431.546 406.993C431.546 406.873 431.455 406.782 431.334 406.782L428.069 406.786C427.948 406.787 427.857 406.877 427.857 406.998L427.927 413.68L421.336 413.689L421.357 407.007C421.357 406.886 421.266 406.796 421.145 406.796L417.88 406.8C417.759 406.8 417.668 406.891 417.669 407.012L417.739 414.721L417.689 422.159C417.689 422.28 417.78 422.371 417.901 422.37L421.166 422.366C421.287 422.366 421.378 422.275 421.377 422.154L421.339 416.289Z" fill="white"/>
<path d="M411.513 410.431L411.185 414.348L410.616 421.794C410.608 421.915 410.692 422.012 410.813 422.02L414.04 422.24C414.161 422.248 414.257 422.164 414.266 422.043L414.697 414.83L415.297 406.932C415.306 406.811 415.221 406.714 415.101 406.706L411.24 406.442C411.149 406.436 411.027 406.458 410.958 406.575L403.879 417.486L404.185 413.9L404.77 406.213C404.779 406.092 404.694 405.996 404.574 405.987L401.376 405.769C401.256 405.761 401.159 405.845 401.151 405.966L400.686 413.662L400.119 421.078C400.111 421.198 400.195 421.295 400.316 421.303L404.116 421.563C404.207 421.569 404.329 421.547 404.398 421.43L411.513 410.431Z" fill="white"/>
<path d="M391.489 406.692C394.07 407.014 395.214 408.832 394.941 412.241L383.631 410.83C383.511 410.815 383.413 410.864 383.394 411.014C382.796 416.302 385.126 419.852 389.926 420.451C394.636 421.038 397.864 418.12 398.47 413.26C399.058 408.55 396.803 404.886 391.823 404.265C387.652 403.745 384.833 405.831 384.061 408.843C384.016 408.959 384.095 409.06 384.215 409.075L387.275 409.457C387.395 409.472 387.463 409.419 387.508 409.303C388.216 407.289 389.569 406.452 391.489 406.692ZM390.195 418.047C387.825 417.752 386.917 415.749 387.029 413.631L394.529 414.566C393.848 417.101 392.415 418.324 390.195 418.047Z" fill="white"/>
<path d="M365.471 399.659C360.654 398.618 357.275 401.228 356.24 406.015C355.198 410.831 357.21 414.545 362.027 415.587C366.814 416.622 370.223 414.019 371.264 409.202C372.306 404.385 370.258 400.695 365.471 399.659ZM364.953 402.053C367.554 402.615 368.451 404.758 367.659 408.422C366.873 412.057 365.181 413.733 362.544 413.193C359.973 412.637 359.131 410.383 359.917 406.748C360.709 403.084 362.353 401.49 364.953 402.053Z" fill="white"/>
<path d="M338.447 409.441L349.091 412.234C349.208 412.265 349.311 412.23 349.35 412.083C350.328 408.714 351.355 405.514 352.08 403.704C352.775 402.011 353.529 400.802 354.526 400.22L355.55 400.489C355.667 400.519 355.777 400.455 355.808 400.338L357.304 394.635C357.335 394.518 357.27 394.407 357.153 394.377L354.434 393.663C354.317 393.632 354.206 393.697 354.175 393.814L353.19 397.212L343.247 394.603L344.057 391.159C344.088 391.042 344.023 390.931 343.906 390.9L341.216 390.194C341.099 390.164 340.988 390.228 340.957 390.345L339.461 396.048C339.43 396.165 339.495 396.275 339.612 396.306L341.396 396.774L340.108 402.157L338.296 409.183C338.265 409.3 338.33 409.41 338.447 409.441ZM344.905 397.695L351.192 399.345C350.405 400.201 349.726 401.242 349.06 402.943C348.494 404.388 347.71 406.777 346.995 409.027L342.316 407.8L343.493 403.076L344.905 397.695Z" fill="white"/>
<path d="M325.979 399.223L332.252 401.243L330.397 406.807C330.36 406.923 330.418 407.037 330.533 407.074L333.641 408.075C333.756 408.112 333.871 408.053 333.908 407.938L336.13 400.84L338.551 393.52C338.588 393.405 338.53 393.291 338.414 393.254L335.306 392.253C335.191 392.216 335.077 392.275 335.04 392.39L333.049 398.768L326.776 396.748L328.853 390.397C328.89 390.282 328.831 390.168 328.716 390.131L325.608 389.13C325.493 389.093 325.379 389.151 325.342 389.266L323.036 396.623L320.699 403.684C320.662 403.799 320.72 403.913 320.835 403.95L323.943 404.951C324.058 404.988 324.172 404.93 324.209 404.815L325.979 399.223Z" fill="white"/>
<path d="M316.533 385.278C311.959 383.444 308.19 385.451 306.367 389.997C304.533 394.57 305.894 398.569 310.467 400.403C315.013 402.226 318.81 400.231 320.645 395.657C322.479 391.083 321.079 387.102 316.533 385.278ZM315.622 387.551C318.091 388.542 318.617 390.805 317.221 394.284C315.837 397.736 313.888 399.104 311.379 398.13C308.938 397.151 308.485 394.787 309.869 391.336C311.265 387.856 313.152 386.561 315.622 387.551Z" fill="white"/>
<path d="M300.785 395.71L304.001 389.004L307.446 382.107C307.499 381.998 307.457 381.877 307.349 381.823L304.416 380.388C304.307 380.334 304.186 380.376 304.133 380.485L300.797 387.435L298.549 391.957L292.793 389.138C292.684 389.085 292.563 389.126 292.51 389.235L291.553 391.19C291.499 391.299 291.541 391.42 291.65 391.473L300.502 395.807C300.61 395.861 300.732 395.819 300.785 395.71Z" fill="white"/>
<path d="M291.192 372.765C287.017 370.146 282.951 371.451 280.349 375.6C277.731 379.775 278.359 383.952 282.534 386.57C286.683 389.173 290.774 387.884 293.393 383.709C296.011 379.534 295.341 375.367 291.192 372.765ZM289.891 374.839C292.145 376.253 292.26 378.573 290.268 381.749C288.292 384.9 286.131 385.9 283.835 384.496C281.607 383.098 281.581 380.691 283.557 377.541C285.549 374.365 287.637 373.426 289.891 374.839Z" fill="white"/>
<path d="M271.566 362.926L268.533 365.427L262.807 370.22C262.715 370.299 262.704 370.427 262.783 370.519L264.879 372.983C264.957 373.075 265.085 373.085 265.177 373.007L270.641 368.278L276.713 363.191C276.805 363.112 276.816 362.984 276.737 362.892L274.23 359.945C274.171 359.876 274.069 359.803 273.938 359.836L261.185 362.39L263.965 360.105L269.875 355.155C269.968 355.076 269.978 354.948 269.9 354.856L267.823 352.416C267.744 352.323 267.616 352.313 267.524 352.391L261.692 357.434L255.988 362.207C255.896 362.286 255.886 362.414 255.964 362.506L258.433 365.407C258.492 365.476 258.593 365.549 258.724 365.516L271.566 362.926Z" fill="white"/>
<path d="M259.31 344.651C260.823 344.037 262.124 344.911 262.863 346.732C263.682 348.749 263.274 350.318 261.376 351.186C261.236 351.243 261.214 351.35 261.259 351.462L262.419 354.32C262.464 354.432 262.555 354.493 262.695 354.436C266.022 352.988 266.753 349.885 265.127 345.879C263.797 342.601 261.257 339.88 258.091 341.165C256.214 341.927 255.447 343.413 255.881 346.01L255.853 346.021C254.756 344.444 253.303 343.598 251.51 344.325C249.017 345.337 248.588 348.22 250.009 351.721C251.465 355.307 254.001 357.214 257.106 356.182C257.218 356.137 257.268 356.019 257.223 355.907L256.108 353.161C256.063 353.049 255.973 352.988 255.821 353.017C254.296 353.44 253.012 352.689 252.285 350.896C251.648 349.327 252.034 348.028 253.211 347.55C254.499 347.027 255.547 347.679 256.195 349.276L256.946 351.125C256.991 351.237 257.109 351.287 257.221 351.241L258.986 350.525C259.098 350.479 259.148 350.361 259.103 350.249L258.352 348.4C257.681 346.747 257.769 345.276 259.31 344.651Z" fill="white"/>
<path d="M256.262 320.325C256.372 318.311 255.699 316.827 253.898 316.306C251.371 315.576 249.588 317.39 248.489 321.195L246.617 327.672C246.584 327.788 246.646 327.9 246.762 327.934L253.924 329.94L261.313 332.139C261.43 332.172 261.542 332.11 261.575 331.994L263.464 325.459C264.144 323.106 264.771 318.976 261.082 317.91C259.107 317.339 257.564 317.995 256.291 320.333L256.262 320.325ZM250.796 321.924C251.232 320.414 252.136 319.573 253.356 319.926C254.634 320.295 254.938 321.422 254.493 322.961L253.561 326.185L249.872 325.119L250.796 321.924ZM255.827 326.84L256.758 323.616C257.22 322.018 258.266 320.904 259.776 321.341C261.286 321.777 261.619 323.132 261.115 324.875L260.192 328.07L255.827 326.84Z" fill="white"/>
<path d="M268.039 311.553C266.498 313.648 264.353 313.759 261.511 311.857L268.262 302.674C268.334 302.577 268.339 302.468 268.217 302.378C263.894 299.275 259.658 299.576 256.793 303.473C253.981 307.297 254.953 311.539 258.899 314.44C262.723 317.252 267.021 317.072 269.994 313.028C272.483 309.642 272.039 306.164 269.787 304.02C269.707 303.924 269.581 303.944 269.509 304.041L267.682 306.526C267.611 306.623 267.623 306.708 267.703 306.804C269.115 308.405 269.185 309.994 268.039 311.553ZM258.759 304.881C260.174 302.957 262.365 303.142 264.16 304.273L259.682 310.363C257.802 308.531 257.434 306.684 258.759 304.881Z" fill="white"/>
<path d="M275.148 285.851L266.567 292.741C266.473 292.817 266.44 292.921 266.535 293.039C268.66 295.83 270.62 298.56 271.643 300.22C272.59 301.786 273.112 303.112 272.986 304.26L272.161 304.922C272.067 304.998 272.053 305.125 272.129 305.22L275.82 309.817C275.896 309.911 276.023 309.925 276.117 309.849L278.31 308.089C278.404 308.013 278.418 307.885 278.342 307.791L276.198 304.976L284.213 298.54L286.499 301.241C286.575 301.336 286.702 301.35 286.796 301.274L288.965 299.532C289.059 299.457 289.073 299.329 288.998 299.235L285.306 294.638C285.231 294.544 285.103 294.53 285.009 294.605L283.571 295.76L280.012 291.522L275.446 285.883C275.37 285.789 275.242 285.775 275.148 285.851ZM280.742 298.032L275.674 302.102C275.454 300.959 275.022 299.794 274.052 298.247C273.228 296.931 271.774 294.88 270.392 292.965L274.164 289.937L277.259 293.694L280.742 298.032Z" fill="white"/>
<path d="M293.242 298.864L295.95 297.451C296.057 297.395 296.095 297.273 296.08 297.178L292.888 275.962C292.885 275.827 292.776 275.748 292.642 275.818L289.747 277.328C289.64 277.384 289.587 277.48 289.616 277.601L291.702 288.721L283.21 280.943C283.127 280.85 283.019 280.838 282.912 280.894L279.668 282.587C279.534 282.657 279.496 282.779 279.62 282.885L292.247 293.688L292.997 298.719C292.999 298.854 293.108 298.934 293.242 298.864Z" fill="white"/>
<path d="M317.72 275.752L315.59 268.342C315.555 268.226 315.442 268.165 315.327 268.199L312.196 269.126C312.08 269.16 312.018 269.273 312.053 269.389L314.27 276.773L315.674 281.623L310.891 283.039L309.429 278.206L307.269 270.805C307.235 270.689 307.122 270.628 307.006 270.662L303.875 271.589C303.759 271.623 303.698 271.736 303.733 271.852L305.979 279.227L307.383 284.077L302.57 285.502L301.108 280.669L298.978 273.259C298.944 273.143 298.831 273.082 298.715 273.116L295.584 274.043C295.468 274.077 295.407 274.19 295.441 274.306L297.688 281.681L299.741 288.83C299.775 288.946 299.888 289.007 300.004 288.973L318.702 283.438L319.793 286.804C319.827 286.92 319.94 286.981 320.056 286.947L322.694 286.166C322.81 286.132 322.871 286.019 322.837 285.903L321.155 280.221C321.121 280.105 321.008 280.044 320.892 280.078L319.182 280.585L317.72 275.752Z" fill="white"/>
<path d="M326.348 278.189L326.025 274.272L325.356 266.834C325.345 266.714 325.246 266.632 325.125 266.644L321.906 266.96C321.785 266.971 321.704 267.07 321.716 267.191L322.481 274.376L323.194 282.266C323.206 282.386 323.305 282.467 323.425 282.456L327.276 282.078C327.367 282.069 327.484 282.027 327.533 281.901L332.712 269.971L333.003 273.557L333.695 281.236C333.707 281.356 333.806 281.438 333.926 281.426L337.116 281.113C337.236 281.101 337.317 281.002 337.306 280.882L336.493 273.215L335.828 265.807C335.816 265.687 335.717 265.605 335.596 265.617L331.805 265.989C331.715 265.998 331.597 266.04 331.549 266.166L326.348 278.189Z" fill="white"/>
<path d="M352.976 266.041L349.806 265.885C349.715 265.88 349.593 265.905 349.527 266.023L346.332 271.284L343.487 265.726C343.433 265.602 343.313 265.566 343.223 265.561L339.599 265.383C339.448 265.376 339.352 265.492 339.436 265.618L343.62 272.876L338.394 280.671C338.297 280.787 338.382 280.913 338.533 280.92L341.824 281.082C341.915 281.086 342.037 281.062 342.104 280.944L345.682 275.278L348.717 281.269C348.771 281.393 348.891 281.429 348.981 281.433L352.605 281.611C352.756 281.619 352.852 281.503 352.768 281.377L348.381 273.322L353.116 266.29C353.212 266.173 353.127 266.048 352.976 266.041Z" fill="white"/>
<path d="M374.437 270.122C372.439 269.52 370.614 269.917 369.165 271.059L369.773 269.253C369.808 269.137 369.747 269.024 369.631 268.989L366.534 268.055C366.418 268.02 366.305 268.081 366.27 268.197L363.797 276.609L360.414 287.62C360.379 287.736 360.439 287.849 360.555 287.884L363.681 288.826C363.797 288.861 363.91 288.8 363.945 288.685L365.869 282.096C366.463 283.791 367.741 284.998 369.68 285.583C373.675 286.787 377.125 284.038 378.425 279.725C379.735 275.383 378.547 271.362 374.437 270.122ZM369.47 282.93C367.096 282.214 366.396 279.824 367.481 276.33C368.548 272.894 370.412 271.53 372.757 272.237C375.246 272.988 375.842 275.409 374.804 278.854C373.835 282.067 371.988 283.689 369.47 282.93Z" fill="white"/>
<path d="M383.478 291.011C387.881 293.224 391.805 291.541 394.005 287.165C396.217 282.762 395.198 278.663 390.794 276.45C386.418 274.251 382.466 275.92 380.254 280.323C378.041 284.727 379.101 288.812 383.478 291.011ZM384.577 288.823C382.2 287.628 381.866 285.329 383.55 281.979C385.219 278.656 387.277 277.457 389.695 278.638C392.045 279.819 392.297 282.213 390.628 285.536C388.944 288.886 386.954 290.017 384.577 288.823Z" fill="white"/>
<path d="M397.101 299.137C400.387 301.557 404.06 301.108 406.401 298.439C406.472 298.342 406.435 298.239 406.338 298.167L403.904 296.374C403.806 296.303 403.697 296.298 403.583 296.401C402.05 298.126 400.215 298.426 398.626 297.219C396.477 295.599 396.566 293.336 398.808 290.293C400.995 287.323 403.183 286.494 405.367 288.065C406.779 289.105 407.156 290.735 406.247 292.581C406.182 292.72 406.195 292.805 406.292 292.877L408.678 294.634C408.775 294.706 408.902 294.686 408.949 294.571C410.672 291.672 410.002 288.4 406.837 286.069C402.894 283.165 398.718 284.144 395.795 288.112C392.873 292.08 393.23 296.286 397.101 299.137Z" fill="white"/>
<path d="M409.061 309.309C411.921 312.221 415.618 312.361 418.354 310.099C418.44 310.014 418.42 309.907 418.335 309.821L416.217 307.663C416.132 307.577 416.025 307.555 415.896 307.639C414.109 309.098 412.249 309.103 410.872 307.658C409.008 305.717 409.456 303.497 412.152 300.849C414.784 298.265 417.076 297.794 418.983 299.693C420.211 300.944 420.325 302.612 419.134 304.291C419.047 304.418 419.046 304.504 419.131 304.59L421.207 306.704C421.292 306.79 421.42 306.791 421.485 306.685C423.646 304.096 423.506 300.76 420.752 297.956C417.32 294.461 413.041 294.764 409.525 298.217C406.009 301.67 405.693 305.879 409.061 309.309Z" fill="white"/>
<path d="M420.66 315.706L423.869 313.436L429.933 309.078C430.031 309.007 430.051 308.88 429.979 308.782L428.071 306.171C427.999 306.073 427.872 306.053 427.775 306.125L421.977 310.437L415.546 315.062C415.448 315.134 415.429 315.261 415.5 315.358L417.783 318.483C417.837 318.556 417.933 318.636 418.066 318.613L430.972 317.007L428.032 319.081L421.772 323.581C421.674 323.653 421.655 323.779 421.726 323.877L423.617 326.464C423.689 326.562 423.815 326.582 423.913 326.51L430.102 321.912L436.142 317.572C436.239 317.501 436.259 317.374 436.188 317.277L433.94 314.201C433.886 314.128 433.791 314.048 433.657 314.071L420.66 315.706Z" fill="white"/>
<path d="M443.07 326.235C441.554 323.48 442.198 320.952 444.635 319.61L445.991 322.073C444.666 322.802 444.224 323.943 444.939 325.241C445.638 326.512 446.853 326.775 448.207 326.099L449.563 328.562C447.126 329.904 444.615 329.042 443.07 326.235ZM429.985 329.297L433.457 327.454L440.028 323.906C440.134 323.848 440.17 323.725 440.111 323.619L438.551 320.785C438.493 320.679 438.37 320.643 438.264 320.701L431.963 324.239L424.994 328.006C424.889 328.064 424.853 328.187 424.911 328.293L426.777 331.683C426.821 331.763 426.906 331.854 427.041 331.849L440.047 331.902L436.866 333.584L430.083 337.249C429.977 337.308 429.941 337.431 429.999 337.537L431.545 340.344C431.603 340.45 431.726 340.486 431.832 340.428L438.557 336.657L445.102 333.123C445.208 333.065 445.243 332.942 445.185 332.836L443.348 329.498C443.304 329.419 443.219 329.328 443.084 329.333L429.985 329.297Z" fill="white"/>
<path d="M434.985 349.03C436.548 352.801 439.925 354.314 443.308 353.238C443.42 353.192 443.441 353.085 443.394 352.973L442.236 350.18C442.19 350.069 442.099 350.008 441.948 350.038C439.745 350.722 438.018 350.031 437.282 348.176C436.279 345.679 437.524 343.788 441.015 342.341C444.422 340.928 446.724 341.348 447.782 343.822C448.454 345.442 447.935 347.032 446.203 348.143C446.075 348.229 446.042 348.308 446.088 348.419L447.223 351.156C447.27 351.268 447.388 351.317 447.488 351.243C450.461 349.65 451.578 346.503 450.073 342.873C448.197 338.348 444.115 337.03 439.563 338.917C435.011 340.805 433.143 344.59 434.985 349.03Z" fill="white"/>
<path d="M456.405 362.191L449.715 360.303L449.063 358.195L454.598 356.547C454.713 356.511 454.773 356.398 454.737 356.282L453.773 353.163C453.737 353.047 453.624 352.987 453.508 353.023L446.421 355.277L439.037 357.496C438.921 357.532 438.862 357.645 438.897 357.761L439.862 360.881C439.897 360.996 440.011 361.056 440.126 361.02L446.579 358.963L447.239 361.1L443.968 364.643L441.854 366.815C441.756 366.909 441.763 367.033 441.79 367.12L442.897 370.702C442.942 370.846 443.084 370.897 443.173 370.775L449.889 363.224L457.335 365.606C457.506 365.648 457.603 365.555 457.559 365.41L456.621 362.377C456.595 362.291 456.539 362.213 456.405 362.191Z" fill="white"/>
<path d="M455.839 447.523L459.769 447.627L467.235 447.77C467.356 447.771 467.448 447.681 467.449 447.56L467.485 444.325C467.486 444.204 467.397 444.113 467.276 444.111L460.05 444.092L452.13 443.945C452.009 443.943 451.917 444.033 451.916 444.154L451.873 448.024C451.872 448.114 451.901 448.236 452.021 448.297L463.319 454.741L459.722 454.641L452.013 454.496C451.892 454.494 451.801 454.584 451.799 454.705L451.764 457.909C451.763 458.03 451.853 458.122 451.973 458.123L459.683 458.148L467.12 458.29C467.24 458.291 467.332 458.202 467.333 458.081L467.375 454.272C467.376 454.181 467.348 454.06 467.227 453.998L455.839 447.523Z" fill="white"/>
<path d="M459.489 470.639C459.83 472.627 460.815 473.925 462.687 474.032C465.313 474.182 466.648 472.017 466.874 468.063L467.259 461.332C467.265 461.211 467.18 461.116 467.059 461.109L459.631 460.745L451.937 460.244C451.816 460.237 451.72 460.323 451.714 460.444L451.325 467.235C451.186 469.68 451.493 473.846 455.326 474.065C457.379 474.183 458.737 473.2 459.459 470.637L459.489 470.639ZM464.463 467.865C464.373 469.434 463.679 470.455 462.411 470.382C461.083 470.306 460.536 469.276 460.627 467.676L460.819 464.325L464.652 464.544L464.463 467.865ZM458.465 464.191L458.273 467.541C458.178 469.201 457.406 470.52 455.837 470.43C454.267 470.341 453.642 469.094 453.745 467.283L453.935 463.962L458.465 464.191Z" fill="white"/>
<path d="M451.983 484.769C452.267 482.185 454.068 481.014 457.48 481.237L456.237 492.566C456.223 492.687 456.274 492.783 456.424 492.8C461.72 493.321 465.236 490.939 465.764 486.13C466.282 481.412 463.316 478.227 458.447 477.693C453.729 477.175 450.1 479.483 449.552 484.472C449.093 488.649 451.22 491.438 454.243 492.165C454.36 492.208 454.46 492.128 454.473 492.008L454.81 488.942C454.823 488.822 454.769 488.756 454.652 488.712C452.628 488.034 451.772 486.693 451.983 484.769ZM463.356 485.896C463.095 488.271 461.107 489.208 458.987 489.127L459.811 481.614C462.356 482.259 463.6 483.673 463.356 485.896Z" fill="white"/>
<path d="M463.22 504.357C463.557 502.298 462.926 500.54 461.606 499.252L463.476 499.619C463.595 499.639 463.699 499.564 463.719 499.445L464.242 496.252C464.262 496.133 464.187 496.029 464.067 496.009L455.405 494.651L444.048 492.728C443.928 492.708 443.824 492.783 443.805 492.902L443.277 496.124C443.257 496.244 443.332 496.348 443.451 496.368L450.234 497.418C448.63 498.228 447.6 499.652 447.273 501.651C446.598 505.768 449.772 508.831 454.217 509.56C458.693 510.294 462.525 508.593 463.22 504.357ZM449.876 501.097C450.277 498.651 452.555 497.645 456.161 498.267C459.706 498.879 461.301 500.55 460.905 502.966C460.484 505.532 458.161 506.438 454.61 505.856C451.298 505.313 449.45 503.693 449.876 501.097Z" fill="white"/>
<path d="M444.263 517.091C443.387 521.077 445.291 524.25 448.681 525.304C448.799 525.33 448.878 525.254 448.903 525.136L449.552 522.183C449.578 522.065 449.538 521.964 449.397 521.902C447.198 521.202 446.178 519.647 446.635 517.705C447.242 515.083 449.345 514.245 453.036 515.055C456.639 515.846 458.286 517.508 457.738 520.143C457.362 521.855 456.027 522.862 453.971 522.782C453.816 522.779 453.744 522.825 453.719 522.943L453.083 525.837C453.057 525.955 453.126 526.064 453.251 526.06C456.6 526.455 459.317 524.513 460.16 520.674C461.21 515.89 458.618 512.473 453.804 511.416C448.991 510.36 445.294 512.396 444.263 517.091Z" fill="white"/>
<path d="M445.555 530.354L449.327 531.461L456.508 533.511C456.624 533.543 456.736 533.48 456.768 533.364L457.631 530.246C457.663 530.129 457.6 530.018 457.483 529.985L450.503 528.116L442.885 525.945C442.769 525.913 442.657 525.976 442.625 526.092L441.593 529.822C441.568 529.91 441.565 530.034 441.666 530.125L450.936 539.247L447.485 538.229L440.071 536.114C439.954 536.082 439.842 536.145 439.81 536.262L438.955 539.35C438.923 539.467 438.986 539.578 439.103 539.611L446.549 541.609L453.701 543.651C453.818 543.683 453.929 543.62 453.961 543.504L454.978 539.832C455.002 539.745 455.005 539.62 454.904 539.53L445.555 530.354Z" fill="white"/>
<path d="M452.927 546.265L450.864 545.572C450.749 545.534 450.634 545.591 450.596 545.705L448.989 550.492L444.193 548.914L436.903 546.404C436.789 546.366 436.674 546.423 436.635 546.537L435.597 549.633C435.558 549.748 435.615 549.863 435.73 549.901L443.058 552.297L447.835 553.932L446.229 558.718C446.19 558.833 446.247 558.948 446.362 558.986L448.426 559.679C448.54 559.717 448.655 559.66 448.694 559.545L453.061 546.533C453.099 546.418 453.042 546.303 452.927 546.265Z" fill="white"/>
<path d="M432.661 563.659C433.618 561.242 435.665 560.589 438.897 561.707L434.7 572.304C434.656 572.416 434.679 572.523 434.819 572.579C439.789 574.482 443.809 573.115 445.591 568.617C447.338 564.204 445.321 560.349 440.767 558.545C436.354 556.797 432.243 558.063 430.395 562.729C428.848 566.637 430.161 569.888 432.884 571.389C432.985 571.462 433.103 571.411 433.147 571.299L434.283 568.432C434.327 568.319 434.293 568.241 434.192 568.168C432.419 566.978 431.948 565.458 432.661 563.659ZM443.331 567.755C442.451 569.976 440.285 570.354 438.262 569.715L441.045 562.687C443.329 563.982 444.154 565.675 443.331 567.755Z" fill="white"/>
<path d="M441.582 577.071L439.603 576.164C439.493 576.114 439.373 576.158 439.322 576.268L437.219 580.859L432.617 578.783L425.633 575.517C425.523 575.467 425.403 575.511 425.352 575.621L423.992 578.59C423.942 578.7 423.987 578.82 424.096 578.87L431.131 582.026L435.708 584.157L433.605 588.747C433.555 588.857 433.599 588.977 433.709 589.028L435.688 589.934C435.798 589.985 435.919 589.94 435.969 589.83L441.686 577.351C441.737 577.241 441.692 577.121 441.582 577.071Z" fill="white"/>
<path d="M417.673 590.616C415.393 594.985 417.015 598.935 421.357 601.201C425.725 603.481 429.839 602.525 432.12 598.156C434.386 593.814 432.779 589.838 428.41 587.557C424.041 585.277 419.94 586.274 417.673 590.616ZM419.844 591.749C421.075 589.391 423.38 589.093 426.703 590.827C430 592.548 431.167 594.624 429.949 597.023C428.732 599.355 426.334 599.57 423.038 597.849C419.714 596.115 418.613 594.108 419.844 591.749Z" fill="white"/>
<path d="M415.317 612.583C414.704 614.504 414.98 616.11 416.592 617.068C418.853 618.411 421.035 617.106 423.058 613.701L426.502 607.905C426.564 607.801 426.532 607.676 426.428 607.615L420.003 603.868L413.406 599.878C413.302 599.816 413.178 599.848 413.116 599.952L409.642 605.8C408.391 607.905 406.743 611.744 410.044 613.705C411.811 614.755 413.47 614.51 415.291 612.568L415.317 612.583ZM421.01 612.413C420.207 613.765 419.121 614.35 418.029 613.702C416.885 613.022 416.875 611.856 417.694 610.478L419.408 607.593L422.709 609.554L421.01 612.413ZM417.38 606.388L415.666 609.274C414.817 610.703 413.524 611.518 412.172 610.715C410.821 609.912 410.841 608.517 411.767 606.957L413.466 604.098L417.38 606.388Z" fill="white"/>
<path d="M399.133 640.191L408.933 626.385C409.003 626.287 408.982 626.16 408.883 626.09L407.108 624.83C407.009 624.76 406.883 624.782 406.813 624.88L397.013 638.686C396.942 638.785 396.964 638.911 397.063 638.981L398.838 640.241C398.936 640.311 399.063 640.29 399.133 640.191Z" fill="white"/>
<path d="M378.299 649.805C375.639 652.98 374.598 656.999 378.074 659.912C379.948 661.442 382.235 661.584 384.69 659.736C383.65 662.06 383.908 664.012 385.901 665.682C388.566 667.915 391.821 666.619 394.579 663.329L400.094 656.748C400.171 656.655 400.16 656.527 400.067 656.449L392.219 649.952L384.171 643.128C384.078 643.051 383.95 643.062 383.872 643.155L378.299 649.805ZM392.563 661.639C391.203 663.261 389.472 663.822 387.849 662.463C386.25 661.123 386.425 659.455 387.882 657.717L391.183 653.777L395.825 657.746L392.563 661.639ZM385.866 656.027C384.409 657.765 382.429 658.67 380.482 657.038C378.35 655.252 378.801 653.302 380.374 651.425L383.636 647.532L389.167 652.088L385.866 656.027Z" fill="white"/>
<path d="M381.439 670.016L383.658 667.621C383.741 667.532 383.736 667.404 383.647 667.322L378.082 662.207L372.512 656.964C372.424 656.881 372.296 656.886 372.213 656.975L369.871 659.503L369.893 659.524L368.352 661.187C365.27 664.514 364.801 667.377 367.329 669.719C369.835 672.041 372.612 671.358 375.715 668.009L377.235 666.368L381.14 670.027C381.229 670.11 381.357 670.105 381.439 670.016ZM368.476 672.307L363.062 667.208C362.973 667.126 362.845 667.13 362.763 667.219L360.543 669.614C360.461 669.703 360.466 669.831 360.555 669.913L366.051 674.924L371.665 680.208C371.754 680.29 371.882 680.286 371.964 680.197L374.184 677.802C374.266 677.713 374.261 677.585 374.172 677.503L368.476 672.307ZM375.482 664.702L373.92 666.387C372.358 668.073 371.012 668.103 369.77 666.952C368.461 665.74 368.708 664.361 370.105 662.853L371.667 661.168L375.482 664.702Z" fill="white"/>
<path d="M353.07 676.504C350.159 679.364 350.019 683.062 352.283 685.797C352.368 685.883 352.475 685.863 352.561 685.778L354.718 683.659C354.804 683.574 354.826 683.467 354.742 683.338C353.282 681.551 353.277 679.691 354.722 678.314C356.662 676.45 358.882 676.897 361.531 679.593C364.116 682.223 364.587 684.515 362.689 686.423C361.438 687.652 359.77 687.765 358.091 686.575C357.964 686.488 357.878 686.487 357.792 686.572L355.679 688.649C355.592 688.733 355.591 688.862 355.698 688.927C358.287 691.087 361.623 690.946 364.427 688.191C367.92 684.758 367.616 680.48 364.162 676.965C360.708 673.449 356.499 673.135 353.07 676.504Z" fill="white"/>
<path d="M338.92 700.535L335.578 696.75L339.298 693.426L342.685 697.171L347.799 702.94C347.879 703.031 348.007 703.038 348.098 702.957L350.533 700.782C350.623 700.701 350.63 700.573 350.549 700.483L345.368 694.774L342.026 690.989L345.769 687.645L349.156 691.39L354.247 697.179C354.328 697.27 354.456 697.277 354.546 697.196L356.981 695.021C357.071 694.94 357.078 694.812 356.998 694.722L351.816 689.013L346.906 683.426C346.825 683.336 346.697 683.329 346.607 683.41L331.253 697.127C331.163 697.208 331.156 697.336 331.236 697.426L336.237 702.932L341.328 708.721C341.409 708.812 341.537 708.819 341.627 708.738L344.062 706.563C344.152 706.482 344.159 706.354 344.079 706.264L338.92 700.535Z" fill="white"/>
<path d="M324.334 705.506C326.348 703.861 328.453 704.288 330.732 706.838L321.907 714.05C321.813 714.127 321.781 714.231 321.877 714.348C325.291 718.43 329.468 719.194 333.214 716.133C336.889 713.129 337.004 708.779 333.905 704.987C330.901 701.311 326.694 700.415 322.808 703.591C319.554 706.25 319.118 709.73 320.765 712.367C320.818 712.48 320.946 712.492 321.04 712.416L323.427 710.464C323.521 710.388 323.53 710.303 323.476 710.19C322.508 708.288 322.836 706.731 324.334 705.506ZM331.66 714.279C329.81 715.79 327.735 715.066 326.278 713.523L332.131 708.74C333.495 710.983 333.392 712.863 331.66 714.279Z" fill="white"/>
<path d="M320.707 727.27C323.203 725.358 325.8 725.617 327.491 727.825L325.259 729.534C324.34 728.334 323.146 728.068 321.97 728.969C320.817 729.851 320.739 731.092 321.61 732.328L319.378 734.038C317.687 731.83 318.162 729.219 320.707 727.27ZM315.72 714.791L318.061 717.948L322.554 723.914C322.627 724.01 322.754 724.027 322.85 723.953L325.419 721.986C325.515 721.913 325.532 721.785 325.458 721.689L321.017 715.989L316.249 709.664C316.175 709.568 316.048 709.551 315.952 709.624L312.88 711.977C312.808 712.032 312.73 712.13 312.755 712.263L314.65 725.13L312.511 722.237L307.871 716.079C307.798 715.983 307.671 715.966 307.575 716.04L305.03 717.988C304.934 718.062 304.918 718.189 304.991 718.285L309.727 724.369L314.201 730.311C314.274 730.407 314.401 730.424 314.497 730.35L317.522 728.034C317.594 727.979 317.671 727.881 317.646 727.748L315.72 714.791Z" fill="white"/>
<path d="M285.897 740.871L283.066 736.691L287.179 733.869L290.061 738.015L294.398 744.389C294.466 744.488 294.592 744.512 294.692 744.444L297.384 742.596C297.484 742.528 297.507 742.402 297.439 742.302L293.027 735.979L290.196 731.799L294.334 728.959L297.215 733.105L301.527 739.497C301.596 739.596 301.722 739.62 301.822 739.551L304.514 737.704C304.614 737.635 304.637 737.509 304.569 737.41L300.157 731.087L295.999 724.92C295.93 724.82 295.804 724.797 295.705 724.865L278.728 736.514C278.628 736.583 278.605 736.709 278.673 736.809L282.931 742.907L287.243 749.298C287.311 749.398 287.437 749.421 287.537 749.353L290.23 747.505C290.329 747.437 290.353 747.311 290.284 747.211L285.897 740.871Z" fill="white"/>
<path d="M276.322 756.359L276.356 749.407L278.214 748.217L281.278 753.112C281.344 753.213 281.469 753.241 281.571 753.176L284.32 751.414C284.422 751.349 284.449 751.224 284.384 751.122L280.321 744.892L276.213 738.368C276.148 738.266 276.022 738.239 275.92 738.304L273.171 740.065C273.069 740.131 273.042 740.256 273.107 740.358L276.811 746.027L274.928 747.234L270.64 745.026L267.983 743.569C267.867 743.5 267.749 743.539 267.672 743.588L264.516 745.611C264.389 745.692 264.377 745.843 264.519 745.896L273.588 750.355L273.278 758.166C273.283 758.342 273.399 758.411 273.526 758.33L276.199 756.617C276.276 756.568 276.336 756.494 276.322 756.359Z" fill="white"/>
<path d="M256.412 750.129C252.199 752.685 251.54 756.903 254.081 761.091C256.637 765.304 260.652 766.617 264.865 764.061C269.052 761.52 269.737 757.286 267.18 753.072C264.624 748.859 260.599 747.588 256.412 750.129ZM257.682 752.222C259.957 750.842 262.082 751.781 264.027 754.986C265.956 758.165 265.879 760.545 263.595 761.967C261.346 763.331 259.184 762.274 257.255 759.095C255.31 755.889 255.408 753.602 257.682 752.222Z" fill="white"/>
<path d="M243.442 776.175L253.122 770.629C253.227 770.569 253.276 770.472 253.201 770.341C251.656 767.462 249.589 763.49 248.676 761.469C247.657 759.266 247.731 758.422 248.78 757.821C248.964 757.715 249.163 757.636 249.309 757.587C249.455 757.539 249.504 757.441 249.429 757.31L248.422 755.552C248.361 755.447 248.264 755.399 248.17 755.417C247.822 755.478 247.383 755.625 246.832 755.94C244.156 757.473 244.455 759.637 245.805 762.661C246.613 764.498 248.255 767.669 249.338 769.801L245.167 772.191L242.484 767.63L238.772 761.151C238.711 761.046 238.588 761.012 238.483 761.072L235.623 762.71C235.518 762.77 235.485 762.894 235.545 762.999L239.336 769.434L243.153 776.097C243.214 776.202 243.337 776.235 243.442 776.175Z" fill="white"/>
<path d="M237.399 779.563L240.269 778.006C240.376 777.949 240.412 777.826 240.354 777.719L236.724 771.09L233.13 764.338C233.072 764.231 232.949 764.195 232.843 764.252L229.813 765.896L229.828 765.922L227.835 767.004C223.848 769.166 222.486 771.728 224.13 774.757C225.759 777.76 228.608 778.003 232.621 775.827L234.587 774.76L237.112 779.478C237.17 779.584 237.293 779.621 237.399 779.563ZM224.386 777.576L220.893 771.01C220.835 770.904 220.712 770.867 220.606 770.925L217.736 772.482C217.63 772.539 217.593 772.662 217.651 772.769L221.25 779.277L224.873 786.083C224.931 786.189 225.054 786.226 225.16 786.168L228.03 784.611C228.137 784.553 228.173 784.43 228.115 784.324L224.386 777.576ZM233.461 772.619L231.441 773.715C229.421 774.811 228.136 774.407 227.329 772.919C226.478 771.351 227.154 770.124 228.961 769.144L230.981 768.048L233.461 772.619Z" fill="white"/>
<path d="M208.127 795.314C211.803 793.472 213.111 790.28 211.878 787.144C211.824 787.036 211.716 787.023 211.608 787.077L208.959 788.404C208.851 788.459 208.824 788.54 208.864 788.688C209.448 790.662 208.8 792.204 207.097 793.057C205.178 794.019 203.433 793.304 201.93 790.979L206.552 788.663C206.66 788.609 206.701 788.487 206.647 788.379L205.78 786.649C205.726 786.541 205.604 786.501 205.496 786.555L200.82 788.898C199.533 785.925 199.95 783.923 202.031 782.88C203.978 781.905 205.722 782.485 206.914 784.458C207.009 784.58 207.117 784.593 207.225 784.539L209.928 783.184C210.036 783.13 210.076 783.009 209.995 782.914C208.154 779.914 204.61 778.849 200.988 780.664C196.691 782.817 195.599 786.915 197.807 791.321C200.014 795.727 203.883 797.441 208.127 795.314Z" fill="white"/>
<path d="M190.463 803.399L191.335 796.502L193.324 795.544L195.775 800.773C195.828 800.882 195.949 800.924 196.058 800.872L198.999 799.455C199.108 799.402 199.151 799.281 199.098 799.172L195.816 792.498L192.525 785.526C192.473 785.417 192.352 785.375 192.243 785.427L189.301 786.844C189.192 786.896 189.15 787.018 189.202 787.127L192.195 793.202L190.18 794.173L186.19 791.463L183.728 789.696C183.621 789.613 183.499 789.638 183.417 789.678L180.04 791.305C179.904 791.37 179.874 791.519 180.009 791.588L188.473 797.109L187.223 804.825C187.207 805.001 187.314 805.083 187.45 805.018L190.31 803.64C190.392 803.601 190.461 803.534 190.463 803.399Z" fill="white"/>
<path d="M171.373 794.925C166.9 796.991 165.771 801.109 167.825 805.556C169.891 810.03 173.733 811.785 178.207 809.719C182.653 807.665 183.809 803.534 181.743 799.061C179.676 794.587 175.82 792.871 171.373 794.925ZM172.4 797.148C174.816 796.032 176.822 797.204 178.394 800.607C179.953 803.983 179.61 806.34 177.18 807.496C174.792 808.599 172.762 807.305 171.203 803.929C169.631 800.525 169.985 798.264 172.4 797.148Z" fill="white"/>
<path d="M156.99 812.227L163.014 809.553L165.338 814.938C165.387 815.049 165.507 815.095 165.617 815.046L168.602 813.721C168.712 813.672 168.758 813.552 168.709 813.442L165.637 806.669L162.564 799.597C162.515 799.487 162.396 799.441 162.285 799.49L159.301 800.815C159.19 800.864 159.144 800.983 159.193 801.094L161.959 807.176L155.935 809.85L153.252 803.731C153.203 803.62 153.083 803.574 152.972 803.623L149.988 804.948C149.877 804.997 149.831 805.117 149.88 805.227L153.063 812.249L156.026 819.072C156.075 819.182 156.194 819.229 156.305 819.179L159.289 817.855C159.4 817.806 159.446 817.686 159.397 817.575L156.99 812.227Z" fill="white"/>
<path d="M140.5 808.632C135.968 810.569 134.722 814.653 136.647 819.157C138.584 823.688 142.374 825.554 146.905 823.617C151.409 821.691 152.683 817.596 150.746 813.064C148.809 808.533 145.003 806.707 140.5 808.632ZM141.462 810.884C143.909 809.838 145.881 811.067 147.354 814.514C148.816 817.934 148.405 820.279 145.943 821.365C143.524 822.399 141.532 821.047 140.071 817.628C138.597 814.18 139.016 811.93 141.462 810.884Z" fill="white"/>
<path d="M124.754 819.979L132.953 828.904C133.027 829.005 133.133 829.026 133.245 828.981L136.966 827.456C137.078 827.41 137.128 827.292 137.082 827.18L134.125 820.125L131.338 813.164C131.292 813.052 131.174 813.002 131.062 813.048L128.768 813.988C128.656 814.034 128.607 814.153 128.653 814.264L131.34 820.743L132.646 823.77L133.206 824.978L124.78 815.818C124.707 815.718 124.6 815.696 124.488 815.742L122.446 816.579C122.334 816.625 122.273 816.715 122.291 816.839L122.747 829.035L122.334 828.028L121.129 824.928L118.469 818.437C118.423 818.325 118.305 818.276 118.193 818.322L115.368 819.48C115.256 819.525 115.206 819.644 115.252 819.756L118.123 826.682L120.996 833.772C121.041 833.883 121.16 833.933 121.272 833.887L125.02 832.351C125.132 832.305 125.193 832.215 125.175 832.091L124.754 819.979Z" fill="white"/>
<path d="M110.618 825.635L112.007 829.312L114.696 836.279C114.741 836.391 114.858 836.442 114.971 836.398L117.979 835.209C118.092 835.164 118.143 835.046 118.098 834.934L115.385 828.236L112.529 820.848C112.485 820.735 112.367 820.684 112.255 820.729L108.656 822.152C108.572 822.185 108.47 822.258 108.458 822.392L106.762 835.287L105.495 831.919L102.717 824.727C102.672 824.615 102.555 824.564 102.442 824.608L99.4619 825.787C99.3495 825.831 99.2985 825.949 99.3429 826.061L102.234 833.209L104.912 840.147C104.956 840.26 105.074 840.311 105.187 840.266L108.729 838.866C108.814 838.832 108.915 838.76 108.927 838.625L110.618 825.635Z" fill="white"/>
<path d="M93.7818 844.503L95.2136 837.7L97.2735 836.908L99.2906 842.319C99.3341 842.432 99.4513 842.484 99.5642 842.441L102.612 841.268C102.724 841.225 102.777 841.107 102.733 840.995L100.006 834.075L97.294 826.858C97.2506 826.745 97.1334 826.693 97.0205 826.736L93.9731 827.909C93.8602 827.952 93.8081 828.069 93.8516 828.182L96.3398 834.481L94.2518 835.285L90.4962 832.259L88.1864 830.297C88.0866 830.206 87.9628 830.221 87.8782 830.254L84.3793 831.6C84.2382 831.654 84.197 831.8 84.325 831.88L92.3115 838.072L90.437 845.661C90.4066 845.834 90.5065 845.925 90.6476 845.871L93.6103 844.731C93.695 844.699 93.7688 844.638 93.7818 844.503Z" fill="white"/>
<path d="M80.4719 837.296L81.7926 840.998L84.3529 848.013C84.3953 848.127 84.5121 848.18 84.6253 848.137L87.6552 847.004C87.7684 846.961 87.8216 846.845 87.7792 846.731L85.1904 839.985L82.4711 832.545C82.4288 832.432 82.312 832.378 82.1988 832.421L78.5743 833.777C78.4893 833.809 78.3866 833.879 78.3724 834.014L76.438 846.875L75.2338 843.484L72.5887 836.243C72.5464 836.129 72.4296 836.076 72.3164 836.118L69.3148 837.242C69.2016 837.284 69.1484 837.401 69.1908 837.514L71.9491 844.713L74.4989 851.7C74.5412 851.814 74.658 851.867 74.7712 851.824L78.3391 850.489C78.424 850.458 78.5267 850.387 78.541 850.253L80.4719 837.296Z" fill="white"/>
<path d="M63.5638 839.636L64.6692 842.644C64.7109 842.757 64.8274 842.811 64.9409 842.769L67.9206 841.674C68.0341 841.633 68.0879 841.516 68.0462 841.403L66.8782 838.224L66.6195 835.066C66.6062 834.942 66.5077 834.85 66.3658 834.902L64.7199 835.507C64.6347 835.538 64.56 835.598 64.5346 835.704L63.5551 839.349C63.5192 839.427 63.5325 839.551 63.5638 839.636Z" fill="white"/>
<path d="M46.7654 854.284C45.0675 855.373 44.2563 856.787 44.8872 858.552C45.7725 861.029 48.2862 861.414 52.0158 860.081L58.3646 857.812C58.4784 857.772 58.5333 857.656 58.4926 857.542L55.9326 850.559L53.3948 843.278C53.3541 843.165 53.2382 843.11 53.1243 843.15L46.7186 845.44C44.4125 846.264 40.6953 848.17 41.9876 851.786C42.6795 853.722 44.1135 854.59 46.7552 854.256L46.7654 854.284ZM51.2587 857.783C49.7783 858.313 48.5681 858.071 48.1408 856.875C47.6931 855.622 48.4291 854.717 49.938 854.178L53.0981 853.049L54.3904 856.664L51.2587 857.783ZM52.3044 850.828L49.1443 851.957C47.5785 852.517 46.0633 852.32 45.5342 850.84C45.0051 849.359 45.9098 848.297 47.618 847.687L50.7497 846.568L52.3044 850.828Z" fill="white"/>
<path d="M31.4431 867.345L34.4386 866.294C34.5241 866.264 34.6282 866.195 34.6452 866.061L35.6203 859.984L40.3508 864.059C40.4479 864.153 40.572 864.141 40.6576 864.111L44.0809 862.91C44.2236 862.86 44.2691 862.716 44.1435 862.632L37.5315 857.487L39.4328 848.296C39.4784 848.152 39.3527 848.068 39.2101 848.118L36.1006 849.209C36.015 849.239 35.9109 849.308 35.8939 849.442L34.7167 856.039L29.6463 851.635C29.5492 851.541 29.4251 851.552 29.3395 851.582L25.9162 852.784C25.7735 852.834 25.728 852.978 25.8536 853.062L32.9541 858.869L31.2204 867.167C31.1749 867.311 31.3005 867.395 31.4431 867.345Z" fill="white"/>
<path d="M17.2766 855.382C12.6178 856.989 11.0815 860.973 12.6783 865.603C14.2851 870.262 17.9309 872.394 22.5896 870.788C27.2198 869.191 28.7847 865.197 27.178 860.538C25.5713 855.88 21.9068 853.785 17.2766 855.382ZM18.075 857.697C20.5902 856.83 22.4688 858.197 23.6911 861.741C24.9035 865.256 24.3251 867.567 21.7912 868.473C19.3046 869.33 17.4152 867.839 16.2027 864.324C14.9804 860.779 15.5598 858.565 18.075 857.697Z" fill="white"/>
</svg>
