<svg width="300" height="291" viewBox="0 0 300 291" fill="none" xmlns="http://www.w3.org/2000/svg">
<path d="M71.0867 228.616C87.9574 260.267 141.819 251.069 166.64 242.513C359.937 173.354 204.321 19.2099 166.407 36.5078C128.494 53.8056 208.944 125.5 183.942 158.407C158.939 191.315 132.146 46.3022 97.8236 64.5963C63.5016 82.8904 154.031 157.415 122.925 190.93C91.8185 224.445 94.5885 107.335 54.053 126.03C13.5175 144.725 49.9984 189.051 71.0867 228.616Z" fill="#12A4FF"/>
<path d="M197.353 113.643L204.665 132.647L211.922 152.186C212.007 152.411 212.239 152.516 212.464 152.431L218.644 150.095C218.869 150.01 218.974 149.778 218.889 149.553L211.407 130.099L206.013 115.828L224.329 108.905L229.78 123.154L237.037 142.693C237.122 142.918 237.354 143.023 237.579 142.938L243.759 140.602C243.984 140.517 244.089 140.284 244.004 140.06L236.466 120.627L229.435 101.517C229.35 101.292 229.118 101.187 228.893 101.272L197.598 113.101C197.373 113.186 197.268 113.418 197.353 113.643Z" fill="white"/>
</svg>
