<svg width="348" height="352" viewBox="0 0 348 352" fill="none" xmlns="http://www.w3.org/2000/svg">
<path d="M230.023 71.9395C200.81 34.4527 145.883 48.3331 122.071 59.9592C-62.4809 153.565 159.054 332.394 193.955 309.512C228.855 286.63 117.106 203.865 132.645 162.728C148.185 121.592 227.523 295.905 258.201 271.999C288.88 248.092 165.269 162.41 187.184 120.228C209.1 78.0454 246.832 220.059 284.076 195.351C321.32 170.642 266.538 118.798 230.023 71.9395Z" fill="#12A4FF"/>
<path d="M92.8223 126.598L81.9481 144.239L70.8457 161.453C70.7179 161.656 70.7746 161.904 70.978 162.032L76.7246 165.644C76.9281 165.772 77.1765 165.715 77.3044 165.512L87.9999 148.042L96.3608 134.852L111.872 144.6C112.075 144.728 112.324 144.671 112.451 144.468L114.944 140.501C115.072 140.298 115.016 140.049 114.812 139.921L93.4021 126.466C93.1986 126.338 92.9502 126.394 92.8223 126.598Z" fill="white"/>
</svg>
