<svg width="250" height="204" viewBox="0 0 250 204" fill="none" xmlns="http://www.w3.org/2000/svg">
<path d="M19.8998 143.06C22.8811 173.237 76.0191 182.616 102.215 183.533C307.219 188.674 225.194 19.0215 183.507 20.9575C141.821 22.8934 187.389 104.294 151.392 122.531C115.395 140.768 148.146 18.1024 109.366 21.9336C70.5853 25.7647 124.296 112.511 82.4494 129.342C40.6025 146.172 89.4829 54.6479 44.8338 56.8766C0.184633 59.1052 16.1732 105.337 19.8998 143.06Z" fill="#12A4FF"/>
<path d="M198.701 91.8218L215.789 102.561C215.992 102.689 216.241 102.632 216.368 102.429L218.861 98.4619C218.989 98.2585 218.933 98.0101 218.729 97.8822L195.743 83.4355C195.539 83.3077 195.291 83.3644 195.163 83.5678L184.238 101.177L173.237 118.455C173.109 118.658 173.166 118.906 173.369 119.034L186.49 127.28C195.288 132.81 202.835 132.09 207.341 124.919C211.656 118.054 210.45 111.62 200.514 105.305L193.089 100.639L198.701 91.8218ZM189.445 106.436L190.149 105.317L197.675 110.048C202.456 113.052 203.936 116.679 201.124 121.154C198.343 125.578 194.313 125.67 189.634 122.73L182.209 118.063L189.445 106.436Z" fill="white"/>
</svg>
