<svg width="773" height="996" viewBox="0 0 773 996" fill="none" xmlns="http://www.w3.org/2000/svg">
<path d="M271.442 18.8994C164.286 258.39 -60.8861 754.423 93.871 879.432C237.279 995.274 469.522 671.539 328.745 607.694C187.968 543.849 83.0178 816.213 241.906 910.046C400.795 1003.88 669.979 812.559 520.155 624.508C400.296 474.067 633.395 433.357 708.024 434.511" stroke="#12A4FF" stroke-width="61.9788"/>
<path d="M261.409 26.5188L273.503 27.3121C273.625 27.3337 273.717 27.2755 273.767 27.1651L275.405 23.4929C275.454 23.3824 275.408 23.2626 275.298 23.2134L268.288 20.1524L261.465 17.0425C261.354 16.9932 261.235 17.0391 261.185 17.1496L260.175 19.4136C260.126 19.5241 260.172 19.6439 260.282 19.6931L266.7 22.5231L269.735 23.8104L270.974 24.2972L258.555 23.4911C258.432 23.4695 258.34 23.5277 258.291 23.6381L257.392 25.6537C257.342 25.7641 257.361 25.8716 257.459 25.9485L266.211 34.4546L265.217 34.0111L262.205 32.601L255.799 29.7435C255.689 29.6942 255.569 29.7401 255.519 29.8505L254.275 32.6392C254.226 32.7497 254.272 32.8694 254.382 32.9187L261.242 35.9457L268.216 39.0896C268.326 39.1388 268.446 39.093 268.495 38.9825L270.145 35.2827C270.195 35.1722 270.176 35.0648 270.078 34.9879L261.409 26.5188Z" fill="white"/>
<path d="M257.9 47.8204L260.584 41.8006L265.917 44.244C266.027 44.2933 266.147 44.2474 266.196 44.1369L267.526 41.1546C267.575 41.0442 267.529 40.9244 267.418 40.8752L260.601 37.902L253.584 34.7076C253.474 34.6584 253.354 34.7043 253.304 34.8148L251.975 37.797C251.926 37.9075 251.972 38.0273 252.082 38.0765L258.209 40.7419L255.526 46.7617L249.435 44.0135C249.325 43.9642 249.205 44.0101 249.156 44.1206L247.826 47.1029C247.777 47.2133 247.823 47.3331 247.933 47.3824L255 50.4663L261.768 53.5499C261.878 53.5991 261.998 53.5532 262.047 53.4428L263.377 50.4605C263.426 50.35 263.38 50.2302 263.27 50.181L257.9 47.8204Z" fill="white"/>
<path d="M245.6 57.2339C246.657 54.8583 248.729 54.2913 251.912 55.542L247.278 65.9557C247.229 66.0662 247.248 66.1737 247.386 66.2351C252.272 68.343 256.346 67.1444 258.312 62.7248C260.242 58.388 258.386 54.4518 253.911 52.4608C249.575 50.5312 245.415 51.6254 243.375 56.2107C241.666 60.0503 242.844 63.3538 245.501 64.9665C245.6 65.0433 245.719 64.9973 245.768 64.8868L247.022 62.0693C247.071 61.9588 247.041 61.879 246.942 61.8022C245.221 60.5398 244.813 59.0017 245.6 57.2339ZM256.09 61.7692C255.119 63.9513 252.94 64.239 250.945 63.5168L254.017 56.6111C256.245 57.9996 257 59.7251 256.09 61.7692Z" fill="white"/>
<path d="M232.328 81.1023C230.334 85.609 232.207 89.4461 236.686 91.4277C241.192 93.4216 245.236 92.2022 247.23 87.6955C249.212 83.2164 247.351 79.3517 242.844 77.3578C238.338 75.3639 234.309 76.6232 232.328 81.1023ZM234.567 82.0931C235.643 79.66 237.924 79.2141 241.352 80.7309C244.753 82.2355 246.052 84.2317 244.991 86.7047C243.926 89.1101 241.548 89.4794 238.147 87.9748C234.719 86.458 233.491 84.5261 234.567 82.0931Z" fill="white"/>
<path d="M233.821 102.127L236.478 96.0952L241.821 98.5152C241.932 98.564 242.052 98.5175 242.1 98.4069L243.417 95.4188C243.466 95.3081 243.419 95.1885 243.308 95.1398L236.478 92.1966L229.447 89.0331C229.336 88.9843 229.217 89.0307 229.168 89.1414L227.852 92.1295C227.803 92.2402 227.849 92.3598 227.96 92.4085L234.099 95.047L231.442 101.078L225.339 98.357C225.229 98.3083 225.109 98.3547 225.06 98.4654L223.744 101.453C223.695 101.564 223.742 101.684 223.852 101.732L230.932 104.785L237.714 107.839C237.824 107.888 237.944 107.842 237.993 107.731L239.309 104.743C239.358 104.632 239.311 104.513 239.201 104.464L233.821 102.127Z" fill="white"/>
<path d="M223.023 126.765L225.66 120.725L231.011 123.127C231.122 123.175 231.242 123.128 231.29 123.018L232.597 120.025C232.645 119.914 232.598 119.795 232.487 119.747L225.647 116.826L218.605 113.686C218.495 113.638 218.375 113.685 218.327 113.795L217.02 116.788C216.972 116.899 217.019 117.018 217.13 117.067L223.277 119.684L220.64 125.725L214.529 123.024C214.418 122.975 214.299 123.022 214.25 123.133L212.944 126.126C212.896 126.236 212.942 126.356 213.053 126.404L220.143 129.433L226.935 132.465C227.046 132.513 227.165 132.466 227.214 132.355L228.52 129.363C228.568 129.252 228.522 129.133 228.411 129.084L223.023 126.765Z" fill="white"/>
<path d="M223.068 142.658C223.898 140.745 223.716 138.886 222.75 137.313L224.474 138.127C224.585 138.175 224.704 138.128 224.752 138.017L226.039 135.049C226.088 134.938 226.04 134.819 225.93 134.771L217.862 131.337L207.319 126.697C207.208 126.649 207.088 126.696 207.04 126.807L205.741 129.803C205.693 129.914 205.74 130.033 205.851 130.081L212.171 132.757C210.418 133.15 209.072 134.28 208.265 136.138C206.605 139.965 208.935 143.711 213.067 145.504C217.228 147.309 221.36 146.597 223.068 142.658ZM210.925 136.237C211.911 133.963 214.367 133.545 217.711 135.028C220.999 136.488 222.138 138.498 221.163 140.744C220.128 143.13 217.654 143.44 214.353 142.008C211.274 140.673 209.878 138.65 210.925 136.237Z" fill="white"/>
<path d="M212.708 160.78C214.515 160.406 215.898 159.256 216.71 157.368C218.359 153.535 216.007 149.824 211.869 148.044C207.703 146.251 203.585 146.948 201.888 150.892C201.052 152.836 201.24 154.694 202.238 156.275L200.484 155.455C200.373 155.407 200.254 155.455 200.206 155.566L198.94 158.509C198.892 158.62 198.939 158.74 199.05 158.787L206.1 161.755L212.964 164.774C213.075 164.822 213.194 164.775 213.242 164.664L214.521 161.692C214.568 161.581 214.521 161.462 214.41 161.414L212.708 160.78ZM203.771 152.788C204.759 150.415 207.3 150.093 210.605 151.515C213.716 152.854 215.146 154.885 214.078 157.289C213.071 159.554 210.633 160.019 207.256 158.533C203.936 157.072 202.803 155.037 203.771 152.788Z" fill="white"/>
<path d="M201.315 174.181C200.96 176.166 201.447 177.722 203.171 178.458C205.59 179.49 207.581 177.908 209.136 174.265L211.782 168.064C211.83 167.953 211.782 167.834 211.671 167.787L204.807 164.922L197.74 161.84C197.629 161.792 197.51 161.84 197.462 161.951L194.792 168.208C193.83 170.46 192.705 174.483 196.236 175.991C198.127 176.798 199.738 176.335 201.287 174.169L201.315 174.181ZM206.935 173.26C206.318 174.706 205.318 175.43 204.15 174.931C202.927 174.409 202.762 173.254 203.392 171.78L204.709 168.694L208.24 170.201L206.935 173.26ZM202.54 167.768L201.223 170.854C200.57 172.384 199.396 173.362 197.95 172.745C196.504 172.127 196.34 170.742 197.052 169.074L198.357 166.015L202.54 167.768Z" fill="white"/>
<path d="M194.113 179.908L197.709 181.497L204.561 184.466C204.672 184.513 204.791 184.465 204.839 184.354L206.101 181.375C206.148 181.264 206.1 181.145 205.988 181.098L199.312 178.334L192.042 175.188C191.93 175.141 191.811 175.189 191.764 175.3L190.254 178.864C190.219 178.947 190.2 179.07 190.287 179.173L198.289 189.426L195 187.967L187.925 184.904C187.814 184.856 187.695 184.904 187.648 185.016L186.397 187.967C186.35 188.078 186.398 188.197 186.51 188.244L193.632 191.196L200.456 194.153C200.568 194.201 200.687 194.153 200.734 194.041L202.22 190.534C202.255 190.45 202.275 190.327 202.187 190.224L194.113 179.908Z" fill="white"/>
<path d="M199.187 197.161L197.18 196.318C197.068 196.272 196.949 196.32 196.903 196.432L194.948 201.087L190.281 199.161L183.196 196.121C183.084 196.075 182.966 196.123 182.919 196.235L181.655 199.245C181.608 199.357 181.657 199.476 181.768 199.522L188.9 202.45L193.544 204.433L191.59 209.088C191.543 209.2 191.592 209.318 191.703 209.365L193.71 210.208C193.822 210.254 193.941 210.206 193.988 210.094L199.3 197.438C199.347 197.327 199.298 197.208 199.187 197.161Z" fill="white"/>
<path d="M176.061 211.696C174.493 215.464 175.804 218.924 178.953 220.562C179.065 220.609 179.156 220.548 179.202 220.437L180.364 217.645C180.41 217.534 180.389 217.427 180.261 217.341C178.221 216.262 177.492 214.551 178.287 212.72C179.349 210.248 181.567 209.796 185.056 211.247C188.462 212.664 189.788 214.592 188.782 217.088C188.109 218.707 186.616 219.461 184.606 219.018C184.455 218.988 184.376 219.02 184.33 219.132L183.191 221.867C183.145 221.979 183.194 222.098 183.317 222.116C186.543 223.098 189.561 221.669 191.071 218.04C192.953 213.518 191.007 209.696 186.457 207.802C181.907 205.909 177.908 207.258 176.061 211.696Z" fill="white"/>
<path d="M185.071 231.581C186.799 227.388 186.233 224.636 183.186 223.38C180.838 222.412 178.957 223.01 177.454 224.909L173.515 219.393C173.438 219.263 173.291 219.301 173.234 219.441L171.989 222.46C171.955 222.544 171.936 222.667 172.025 222.769L174.098 225.357L175.909 227.706L174.791 230.417L169.8 228.326C169.688 228.28 169.569 228.33 169.523 228.441L168.279 231.46C168.233 231.572 168.282 231.69 168.394 231.736L175.544 234.619L182.397 237.51C182.509 237.556 182.628 237.506 182.674 237.395L185.071 231.581ZM177.044 231.378L178.173 228.639C178.922 226.822 180.159 226.122 181.724 226.767C183.15 227.355 183.63 228.73 182.869 230.575L181.751 233.286L177.044 231.378Z" fill="white"/>
<path d="M177.95 248.381L175.932 247.564C175.82 247.518 175.702 247.568 175.657 247.68L173.76 252.36L169.07 250.491L161.947 247.539C161.835 247.494 161.717 247.544 161.672 247.656L160.445 250.682C160.4 250.794 160.45 250.912 160.562 250.957L167.729 253.797L172.397 255.722L170.501 260.401C170.455 260.513 170.505 260.631 170.617 260.677L172.635 261.494C172.747 261.54 172.865 261.49 172.91 261.378L178.066 248.657C178.112 248.545 178.062 248.427 177.95 248.381Z" fill="white"/>
<path d="M165.908 273.4C167.705 272.979 169.058 271.794 169.821 269.885C171.371 266.012 168.924 262.362 164.741 260.689C160.531 259.004 156.432 259.807 154.837 263.793C154.051 265.758 154.287 267.61 155.326 269.166L153.551 268.391C153.439 268.346 153.321 268.396 153.276 268.509L152.086 271.484C152.041 271.596 152.092 271.714 152.204 271.759L159.328 274.544L166.267 277.386C166.379 277.431 166.497 277.38 166.542 277.268L167.744 274.264C167.789 274.152 167.738 274.034 167.626 273.989L165.908 273.4ZM156.769 265.64C157.695 263.243 160.227 262.856 163.568 264.192C166.711 265.45 168.193 267.443 167.188 269.874C166.239 272.164 163.814 272.692 160.401 271.294C157.043 269.918 155.859 267.914 156.769 265.64Z" fill="white"/>
<path d="M161.998 288.331L157.961 282.672L158.772 280.619L164.12 282.798C164.233 282.843 164.35 282.792 164.395 282.679L165.595 279.643C165.64 279.53 165.589 279.413 165.476 279.368L158.538 276.69L151.39 273.799C151.278 273.755 151.16 273.806 151.116 273.918L149.915 276.955C149.871 277.067 149.922 277.185 150.034 277.229L156.354 279.663L155.532 281.744L150.763 282.459L147.755 282.83C147.62 282.842 147.548 282.944 147.514 283.028L146.136 286.514C146.08 286.655 146.159 286.784 146.305 286.744L156.269 285.059L160.585 291.576C160.692 291.716 160.827 291.705 160.882 291.564L162.049 288.612C162.083 288.528 162.088 288.432 161.998 288.331Z" fill="white"/>
<path d="M141.81 296.586C140.021 301.178 142.065 304.926 146.629 306.704C151.221 308.493 155.206 307.092 156.994 302.5C158.772 297.936 156.739 294.159 152.147 292.371C147.555 290.582 143.587 292.022 141.81 296.586ZM144.092 297.474C145.057 294.995 147.315 294.447 150.808 295.808C154.273 297.157 155.661 299.093 154.713 301.611C153.758 304.062 151.398 304.538 147.933 303.189C144.44 301.828 143.126 299.953 144.092 297.474Z" fill="white"/>
<path d="M152.25 317.438C153.378 314.503 155.726 313.365 158.323 314.362L157.314 316.987C155.903 316.445 154.746 316.842 154.215 318.225C153.694 319.58 154.277 320.678 155.666 321.277L154.657 323.901C152.061 322.904 151.101 320.429 152.25 317.438ZM141.472 309.41L145.12 310.876L152.069 313.611C152.182 313.654 152.299 313.602 152.342 313.489L153.503 310.47C153.546 310.357 153.494 310.24 153.381 310.196L146.614 307.661L139.242 304.763C139.129 304.72 139.012 304.772 138.968 304.885L137.58 308.498C137.548 308.582 137.533 308.706 137.624 308.806L145.969 318.781L142.632 317.435L135.457 314.613C135.344 314.57 135.227 314.622 135.184 314.735L134.034 317.726C133.991 317.839 134.043 317.956 134.156 318L141.374 320.708L148.295 323.432C148.408 323.476 148.525 323.424 148.569 323.311L149.935 319.755C149.967 319.67 149.983 319.546 149.891 319.446L141.472 309.41Z" fill="white"/>
<path d="M140.627 343.904L136.49 338.317L137.265 336.25L142.651 338.334C142.764 338.376 142.881 338.323 142.923 338.21L144.069 335.152C144.112 335.039 144.058 334.922 143.945 334.88L136.96 332.326L129.762 329.563C129.649 329.521 129.532 329.574 129.49 329.687L128.343 332.745C128.301 332.858 128.354 332.975 128.467 333.017L134.83 335.338L134.045 337.433L129.289 338.233L126.288 338.658C126.154 338.672 126.083 338.775 126.051 338.86L124.735 342.37C124.682 342.512 124.764 342.639 124.909 342.596L134.841 340.734L139.272 347.174C139.382 347.312 139.517 347.297 139.57 347.156L140.684 344.183C140.716 344.098 140.719 344.003 140.627 343.904Z" fill="white"/>
<path d="M133.922 362.435L137.783 351.968C137.825 351.854 137.8 351.748 137.658 351.696C134.626 350.481 130.49 348.762 128.493 347.8C126.297 346.764 125.812 346.07 126.23 344.935C126.304 344.737 126.405 344.548 126.486 344.417C126.567 344.286 126.541 344.18 126.399 344.127L124.499 343.426C124.386 343.384 124.28 343.41 124.22 343.484C123.991 343.755 123.749 344.149 123.529 344.744C122.462 347.638 124.08 349.105 127.057 350.557C128.856 351.446 132.151 352.823 134.35 353.763L132.686 358.273L127.701 356.498L120.695 353.914C120.581 353.872 120.465 353.926 120.423 354.039L119.283 357.131C119.241 357.245 119.294 357.361 119.408 357.403L126.446 359.902L133.65 362.56C133.764 362.602 133.88 362.548 133.922 362.435Z" fill="white"/>
<path d="M135.36 373.345L136.264 370.843C136.305 370.729 136.251 370.613 136.137 370.572L133.265 369.534C133.152 369.493 133.036 369.547 132.994 369.661L132.09 372.163C132.049 372.277 132.103 372.393 132.217 372.434L135.089 373.472C135.202 373.513 135.319 373.459 135.36 373.345ZM133.468 378.577L134.373 376.075C134.414 375.961 134.36 375.845 134.246 375.804L131.374 374.766C131.26 374.724 131.144 374.779 131.103 374.893L130.199 377.395C130.158 377.508 130.212 377.625 130.326 377.666L133.197 378.704C133.311 378.745 133.427 378.691 133.468 378.577ZM117.357 368.541C118.241 366.096 120.268 365.382 123.532 366.401L119.657 377.12C119.616 377.234 119.642 377.34 119.784 377.391C124.809 379.143 128.786 377.656 130.431 373.106C132.045 368.643 129.912 364.849 125.306 363.184C120.842 361.571 116.771 362.96 115.065 367.68C113.636 371.632 115.047 374.843 117.814 376.261C117.917 376.33 118.033 376.276 118.074 376.162L119.123 373.262C119.164 373.148 119.127 373.071 119.024 373.001C117.216 371.866 116.699 370.361 117.357 368.541ZM128.146 372.313C127.334 374.559 125.181 375.002 123.139 374.425L125.709 367.316C128.03 368.542 128.907 370.209 128.146 372.313Z" fill="white"/>
<path d="M116.89 388.422C116.66 390.426 117.243 391.948 119.01 392.575C121.488 393.454 123.376 391.75 124.701 388.018L126.956 381.664C126.996 381.55 126.941 381.434 126.827 381.394L119.798 378.963L112.552 376.328C112.438 376.287 112.323 376.343 112.282 376.457L110.007 382.867C109.188 385.175 108.316 389.261 111.934 390.545C113.872 391.233 115.451 390.67 116.862 388.412L116.89 388.422ZM122.442 387.152C121.916 388.634 120.964 389.418 119.767 388.994C118.513 388.549 118.277 387.406 118.813 385.896L119.935 382.734L123.554 384.018L122.442 387.152ZM117.713 381.945L116.591 385.108C116.035 386.675 114.924 387.724 113.443 387.198C111.961 386.673 111.71 385.3 112.317 383.591L113.429 380.457L117.713 381.945Z" fill="white"/>
<path d="M120.641 399.61L121.711 396.525C121.75 396.411 121.694 396.296 121.58 396.256L114.429 393.808L107.222 391.245C107.107 391.206 106.992 391.262 106.952 391.376L105.823 394.632L105.852 394.642L105.109 396.785C103.623 401.069 104.345 403.879 107.601 405.009C110.829 406.128 113.097 404.386 114.592 400.073L115.325 397.959L120.372 399.741C120.486 399.78 120.601 399.724 120.641 399.61ZM109.691 406.917L102.684 404.424C102.57 404.384 102.454 404.44 102.415 404.554L101.345 407.639C101.305 407.754 101.361 407.869 101.476 407.909L108.522 410.288L115.787 412.871C115.901 412.91 116.016 412.855 116.056 412.74L117.126 409.655C117.165 409.541 117.109 409.426 116.995 409.386L109.691 406.917ZM113.05 397.138L112.297 399.309C111.545 401.48 110.323 402.049 108.724 401.494C107.038 400.91 106.711 399.548 107.384 397.606L108.137 395.435L113.05 397.138Z" fill="white"/>
<path d="M114.106 422.626C115.113 419.648 117.413 418.415 120.048 419.306L119.147 421.969C117.715 421.485 116.575 421.93 116.101 423.333C115.636 424.708 116.262 425.781 117.675 426.323L116.774 428.986C114.139 428.095 113.079 425.662 114.106 422.626ZM103.01 415.044L106.714 416.361L113.768 418.81C113.883 418.849 113.998 418.792 114.037 418.677L115.073 415.613C115.112 415.498 115.055 415.383 114.94 415.345L108.076 413.087L100.591 410.492C100.477 410.454 100.362 410.511 100.323 410.625L99.0835 414.291C99.0544 414.377 99.0443 414.501 99.1395 414.597L107.884 424.225L104.495 423.015L97.2114 420.488C97.0968 420.449 96.9819 420.506 96.9431 420.621L95.9165 423.657C95.8778 423.771 95.9347 423.886 96.0492 423.925L103.372 426.337L110.398 428.777C110.513 428.816 110.628 428.759 110.666 428.644L111.887 425.036C111.916 424.95 111.926 424.825 111.831 424.729L103.01 415.044Z" fill="white"/>
<path d="M106.736 439.794L99.644 437.552L92.3308 435.111C92.2158 435.074 92.1015 435.132 92.0641 435.247L91.0547 438.353C91.0173 438.468 91.0755 438.582 91.1906 438.619L98.5412 440.945L103.334 442.535L101.39 448.515L96.5785 446.983L89.2653 444.542C89.1503 444.505 89.036 444.563 88.9986 444.678L87.9892 447.784C87.9519 447.899 88.0101 448.013 88.1251 448.05L95.4757 450.376L102.53 452.733C102.645 452.77 102.76 452.712 102.797 452.597L106.872 440.06C106.909 439.945 106.851 439.831 106.736 439.794Z" fill="white"/>
<path d="M96.3338 466.264C98.0937 465.709 99.354 464.426 99.9721 462.465C101.226 458.486 98.5117 455.031 94.2153 453.676C89.8901 452.313 85.8635 453.421 84.5728 457.516C83.9365 459.534 84.3107 461.364 85.4631 462.837L83.6359 462.197C83.5205 462.161 83.4068 462.22 83.3704 462.335L82.4069 465.392C82.3705 465.507 82.4298 465.621 82.5451 465.657L89.8585 467.899L96.9913 470.211C97.1067 470.248 97.2204 470.189 97.2568 470.073L98.2294 466.988C98.2658 466.873 98.2065 466.759 98.0912 466.722L96.3338 466.264ZM86.6373 459.213C87.3811 456.753 89.8769 456.176 93.3082 457.258C96.5377 458.276 98.1653 460.152 97.3456 462.652C96.5714 465.007 94.1925 465.715 90.6838 464.578C87.2327 463.458 85.901 461.548 86.6373 459.213Z" fill="white"/>
<path d="M93.9401 481.896C94.5484 479.901 94.1569 478.075 93.0195 476.622L94.8238 477.235C94.9395 477.27 95.0527 477.21 95.088 477.094L96.0313 474C96.0666 473.884 96.0063 473.771 95.8906 473.736L87.4863 471.237L76.4857 467.82C76.37 467.785 76.2568 467.845 76.2215 467.961L75.2693 471.084C75.2341 471.2 75.2944 471.313 75.41 471.348L81.9924 473.292C80.2957 473.881 79.0853 475.155 78.4946 477.093C77.2779 481.084 80.0165 484.542 84.3255 485.856C88.6634 487.178 92.6881 486.003 93.9401 481.896ZM81.1481 476.89C81.8711 474.519 84.2633 473.826 87.7537 474.922C91.1863 476 92.5448 477.868 91.8307 480.21C91.0725 482.697 88.6489 483.286 85.2075 482.237C81.9974 481.258 80.3811 479.406 81.1481 476.89Z" fill="white"/>
<path d="M75.9525 493.91C76.6856 491.416 78.6646 490.579 81.985 491.397L78.7711 502.333C78.737 502.449 78.7695 502.553 78.9145 502.596C84.0367 504.038 87.9162 502.311 89.2802 497.67C90.6186 493.115 88.2583 489.46 83.5592 488.079C79.0051 486.74 75.0266 488.376 73.6115 493.191C72.4265 497.223 74.031 500.341 76.8788 501.588C76.9863 501.651 77.0989 501.589 77.133 501.473L78.0026 498.515C78.0367 498.399 77.9957 498.324 77.8882 498.261C76.0146 497.237 75.4069 495.767 75.9525 493.91ZM86.9512 497.017C86.2777 499.308 84.1553 499.882 82.0822 499.43L84.2135 492.178C86.6057 493.26 87.582 494.87 86.9512 497.017Z" fill="white"/>
<path d="M77.4287 515.576L79.2192 509.233L84.8475 510.884C84.9639 510.917 85.0758 510.854 85.1087 510.738L85.9957 507.596C86.0286 507.479 85.9659 507.367 85.8496 507.334L78.6754 505.372L71.2722 503.219C71.1558 503.187 71.0439 503.249 71.011 503.366L70.124 506.508C70.0911 506.624 70.1538 506.736 70.2702 506.769L76.7169 508.526L74.9264 514.869L68.5043 513.025C68.3879 512.992 68.276 513.055 68.2431 513.171L67.3561 516.314C67.3232 516.43 67.3859 516.542 67.5022 516.575L74.9383 518.611L82.0796 520.69C82.196 520.723 82.3079 520.66 82.3408 520.544L83.2278 517.401C83.2607 517.285 83.198 517.173 83.0816 517.14L77.4287 515.576Z" fill="white"/>
<path d="M80.8387 526.122L81.695 522.971C81.7268 522.854 81.663 522.743 81.5463 522.711L74.2446 520.758L66.9083 518.701C66.7916 518.67 66.6803 518.733 66.6485 518.85L65.1499 524.364C63.9605 528.741 64.8725 531.495 68.1985 532.399C71.4953 533.295 73.6388 531.402 74.8361 526.997L75.4229 524.838L80.5789 526.27C80.6956 526.302 80.807 526.238 80.8387 526.122ZM73.0968 524.174L72.4941 526.392C71.8915 528.609 70.7121 529.26 69.0783 528.816C67.357 528.348 66.9368 527.012 67.476 525.028L68.0786 522.81L73.0968 524.174Z" fill="white"/>
<path d="M75.443 545.332L68.2179 543.566L60.7588 541.617C60.6416 541.587 60.5314 541.653 60.5017 541.77L59.7007 544.935C59.671 545.053 59.7367 545.163 59.8539 545.192L67.3428 547.025L72.2301 548.293L70.6874 554.389L65.7852 553.18L58.3261 551.23C58.2088 551.2 58.0987 551.266 58.069 551.383L57.268 554.549C57.2383 554.666 57.304 554.776 57.4212 554.806L64.91 556.639L72.1054 558.522C72.2226 558.551 72.3328 558.486 72.3625 558.369L75.5962 545.589C75.6259 545.472 75.5602 545.362 75.443 545.332Z" fill="white"/>
<path d="M69.872 569.923C70.3568 567.894 69.8541 566.095 68.6297 564.715L70.4682 565.216C70.5858 565.244 70.6951 565.177 70.7232 565.059L71.4751 561.913C71.5032 561.795 71.436 561.686 71.3184 561.658L62.7767 559.679L51.5872 556.943C51.4696 556.915 51.3603 556.982 51.3322 557.1L50.5733 560.276C50.5452 560.393 50.6123 560.503 50.73 560.531L57.4191 562.067C55.7617 562.759 54.6318 564.105 54.161 566.075C53.1914 570.133 56.1369 573.417 60.5183 574.464C64.9292 575.518 68.8742 574.098 69.872 569.923ZM56.7971 565.711C57.3733 563.299 59.7185 562.461 63.2695 563.341C66.7618 564.206 68.2323 565.987 67.6632 568.369C67.0589 570.898 64.676 571.634 61.1767 570.798C57.9127 570.018 56.1858 568.269 56.7971 565.711Z" fill="white"/>
<path d="M50.5248 581.508C49.4478 586.317 52.0329 589.715 56.8123 590.785C61.6213 591.862 65.3498 589.878 66.4268 585.069C67.4971 580.29 64.9187 576.862 60.1097 575.785C55.3008 574.708 51.5951 576.728 50.5248 581.508ZM52.9145 582.043C53.4959 579.447 55.6453 578.565 59.3036 579.384C62.9325 580.197 64.5956 581.901 64.037 584.534C63.4622 587.101 61.2014 587.927 57.5726 587.114C53.9142 586.295 52.3331 584.639 52.9145 582.043Z" fill="white"/>
<path d="M46.9334 598.105C46.1024 602.101 48.0409 605.252 51.4425 606.269C51.5609 606.293 51.6386 606.217 51.6632 606.098L52.2788 603.138C52.3035 603.02 52.2627 602.919 52.1209 602.858C49.9144 602.183 48.8767 600.64 49.3126 598.692C49.8901 596.064 51.9838 595.202 55.6838 595.972C59.2951 596.723 60.9605 598.366 60.4422 601.007C60.0852 602.724 58.761 603.745 56.7039 603.688C56.5498 603.687 56.4783 603.734 56.4536 603.852L55.8504 606.753C55.8257 606.871 55.8961 606.979 56.0206 606.974C59.374 607.331 62.0692 605.36 62.8695 601.512C63.8667 596.716 61.2363 593.328 56.4114 592.325C51.5866 591.321 47.9122 593.398 46.9334 598.105Z" fill="white"/>
<path d="M60.5418 609.92L58.4036 609.511C58.2848 609.489 58.1787 609.561 58.156 609.68L57.2091 614.639L52.2441 613.722L44.6826 612.216C44.5638 612.194 44.4577 612.266 44.4351 612.385L43.8227 615.592C43.8 615.711 43.8721 615.817 43.9909 615.84L51.575 617.226L56.5287 618.203L55.5818 623.162C55.5591 623.281 55.6312 623.387 55.75 623.41L57.8882 623.818C58.007 623.841 58.1131 623.768 58.1358 623.65L60.71 610.167C60.7327 610.048 60.6606 609.942 60.5418 609.92Z" fill="white"/>
<path d="M40.9288 629.499C40.0901 634.355 42.8394 637.622 47.6658 638.456C52.5219 639.294 56.1482 637.129 56.9869 632.273C57.8205 627.446 55.0764 624.15 50.2202 623.311C45.364 622.472 41.7624 624.673 40.9288 629.499ZM43.342 629.916C43.7948 627.294 45.8982 626.307 49.5924 626.946C53.2569 627.578 55.0019 629.199 54.5737 631.856C54.1261 634.448 51.9087 635.384 48.2442 634.751C44.55 634.113 42.8892 632.538 43.342 629.916Z" fill="white"/>
<path d="M44.9555 660.385C45.1353 662.394 46.0134 663.767 47.8702 664.024C50.4757 664.385 51.9804 662.334 52.5235 658.411L53.4481 651.733C53.4647 651.613 53.3873 651.511 53.2675 651.494L45.892 650.534L38.2636 649.417C38.1438 649.401 38.0415 649.478 38.0249 649.598L37.0921 656.336C36.7562 658.762 36.7273 662.939 40.5307 663.466C42.5671 663.748 44 662.878 44.9256 660.381L44.9555 660.385ZM50.136 658.02C49.9204 659.577 49.1464 660.538 47.8886 660.364C46.5709 660.182 46.1087 659.11 46.3285 657.523L46.7887 654.199L50.5921 654.725L50.136 658.02ZM44.4527 653.876L43.9925 657.2C43.7645 658.847 42.8891 660.099 41.3318 659.884C39.7745 659.668 39.2516 658.375 39.5003 656.578L39.9564 653.284L44.4527 653.876Z" fill="white"/>
<path d="M48.0246 678.13C49.6457 677.248 50.637 675.748 50.8681 673.705C51.3372 669.559 48.0109 666.688 43.5346 666.181C39.0284 665.672 35.2886 667.53 34.8059 671.796C34.568 673.899 35.2857 675.624 36.6988 676.848L34.783 676.571C34.6628 676.557 34.5625 676.637 34.5489 676.757L34.1886 679.942C34.175 680.062 34.2549 680.162 34.3751 680.176L41.9825 680.976L49.4261 681.879C49.5462 681.892 49.6465 681.812 49.6601 681.692L50.0238 678.478C50.0374 678.358 49.9575 678.257 49.8373 678.244L48.0246 678.13ZM37.1572 673.066C37.4161 670.51 39.7553 669.466 43.3302 669.87C46.6949 670.251 48.6517 671.781 48.3259 674.391C48.0172 676.851 45.818 678.002 42.1563 677.557C38.5546 677.119 36.8818 675.5 37.1572 673.066Z" fill="white"/>
<path d="M28.3648 686.842L28.1044 689.884C28.0941 690.005 28.1767 690.103 28.2645 690.141L47.8816 698.829C47.9969 698.9 48.1226 698.85 48.1355 698.699L48.414 695.446C48.4243 695.326 48.3718 695.23 48.2539 695.19L37.7508 690.983L48.8702 687.99C48.9932 687.97 49.0612 687.885 49.0715 687.765L49.3835 684.12C49.3964 683.969 49.3138 683.871 49.158 683.918L33.2665 688.778L28.6187 686.712C28.5034 686.641 28.3777 686.691 28.3648 686.842Z" fill="white"/>
<path d="M35.5871 716.882L47.0959 713.083C47.2179 713.057 47.2815 712.969 47.2857 712.848L47.4275 708.829C47.4317 708.709 47.3443 708.615 47.2234 708.61L39.577 708.401L32.0858 708.077C31.965 708.072 31.8711 708.16 31.8669 708.281L31.7795 710.758C31.7752 710.879 31.8627 710.973 31.9835 710.977L38.9944 711.194L42.29 711.25L43.6215 711.236L31.8063 715.146C31.6843 715.172 31.6207 715.26 31.6164 715.381L31.5387 717.587C31.5344 717.708 31.5916 717.8 31.7114 717.835L43.0147 722.439L41.927 722.4L38.6055 722.223L31.5956 721.975C31.4748 721.971 31.3809 722.059 31.3767 722.179L31.269 725.231C31.2648 725.352 31.3522 725.446 31.4731 725.45L38.9674 725.684L46.6107 725.984C46.7315 725.988 46.8254 725.901 46.8296 725.78L46.9724 721.731C46.9767 721.61 46.9195 721.517 46.7997 721.483L35.5871 716.882Z" fill="white"/>
<path d="M40.7794 739.608L40.7198 733.017L46.5855 733.025C46.7064 733.024 46.7963 732.932 46.7952 732.811L46.7657 729.546C46.7646 729.425 46.6731 729.335 46.5521 729.336L39.1155 729.464L31.4057 729.473C31.2848 729.474 31.1949 729.566 31.196 729.687L31.2255 732.952C31.2266 733.073 31.3181 733.163 31.4391 733.162L38.1199 733.041L38.1794 739.631L31.4978 739.662C31.3769 739.663 31.287 739.754 31.2881 739.875L31.3176 743.14C31.3187 743.261 31.4102 743.351 31.5312 743.35L39.2399 743.22L46.6776 743.213C46.7985 743.212 46.8884 743.12 46.8873 742.999L46.8578 739.734C46.8567 739.613 46.7651 739.524 46.6442 739.525L40.7794 739.608Z" fill="white"/>
<path d="M33.8468 753.878C33.7068 751.281 35.2939 749.833 38.6972 749.498L39.311 760.88C39.3176 761.001 39.3828 761.088 39.5338 761.08C44.8439 760.733 47.926 757.811 47.6655 752.981C47.4099 748.241 43.9662 745.581 39.0755 745.845C34.3357 746.1 31.1295 748.968 31.3998 753.979C31.6261 758.176 34.1781 760.581 37.2786 760.808C37.401 760.831 37.4866 760.736 37.4801 760.615L37.3141 757.536C37.3075 757.415 37.2439 757.358 37.1215 757.334C35.014 756.994 33.951 755.81 33.8468 753.878ZM45.252 753.141C45.3806 755.526 43.5707 756.775 41.4656 757.04L41.0585 749.492C43.6744 749.714 45.1315 750.907 45.252 753.141Z" fill="white"/>
<path d="M33.6671 779.147C34.3284 784.03 37.9333 786.318 42.7869 785.661C47.6703 785 50.4769 781.843 49.8155 776.96C49.1582 772.106 45.5492 769.788 40.6658 770.449C35.7823 771.111 33.0098 774.293 33.6671 779.147ZM36.0938 778.818C35.7368 776.182 37.4457 774.608 41.1608 774.105C44.8459 773.606 46.9977 774.626 47.3888 777.288C47.7418 779.895 45.9089 781.455 42.2238 781.954C38.5088 782.457 36.4509 781.455 36.0938 778.818Z" fill="white"/>
<path d="M46.7316 797.222L45.4109 790.764L51.1693 789.648C51.2878 789.624 51.3585 789.517 51.3343 789.399L50.6799 786.2C50.6557 786.081 50.5487 786.01 50.4302 786.035L43.1557 787.584L35.5904 789.07C35.4719 789.094 35.4013 789.201 35.4255 789.32L36.0798 792.519C36.104 792.637 36.2111 792.708 36.3296 792.684L42.8635 791.285L44.1843 797.743L37.6321 799.052C37.5136 799.076 37.443 799.183 37.4672 799.302L38.1215 802.501C38.1457 802.619 38.2528 802.69 38.3713 802.666L45.9123 801.061L53.211 799.63C53.3295 799.606 53.4002 799.499 53.376 799.381L52.7216 796.182C52.6974 796.063 52.5904 795.992 52.4719 796.017L46.7316 797.222Z" fill="white"/>
<path d="M55.1172 813.601C56.2688 812.159 56.5998 810.391 56.0197 808.419C54.8424 804.416 50.6622 803.062 46.3405 804.333C41.9897 805.613 39.265 808.778 40.4764 812.896C41.0736 814.927 42.4045 816.237 44.1823 816.817L42.3089 817.305C42.1929 817.339 42.1315 817.452 42.1656 817.568L43.0699 820.642C43.1041 820.758 43.2167 820.82 43.3327 820.786L50.6539 818.569L57.8642 816.511C57.9802 816.477 58.0416 816.365 58.0075 816.249L57.0946 813.145C57.0605 813.029 56.9479 812.968 56.8319 813.002L55.1172 813.601ZM43.1364 813.154C42.3822 810.697 44.1327 808.827 47.5843 807.812C50.8329 806.856 53.2301 807.506 53.9433 810.038C54.6138 812.425 53.0339 814.34 49.4868 815.351C45.9977 816.346 43.8274 815.503 43.1364 813.154Z" fill="white"/>
<path d="M61.3992 840.424L58.5313 834.49L63.8386 831.992C63.9474 831.94 63.9896 831.819 63.937 831.71L62.5162 828.77C62.4636 828.661 62.3425 828.619 62.2336 828.671L55.5634 831.962L48.5957 835.262C48.4868 835.315 48.4446 835.436 48.4972 835.545L49.918 838.485C49.9706 838.594 50.0918 838.636 50.2007 838.583L56.1903 835.622L59.0582 841.556L53.0291 844.436C52.9202 844.489 52.878 844.61 52.9306 844.719L54.3514 847.658C54.404 847.767 54.5252 847.81 54.634 847.757L61.5492 844.348L68.2719 841.166C68.3808 841.113 68.423 840.992 68.3704 840.883L66.9496 837.943C66.897 837.835 66.7759 837.792 66.667 837.845L61.3992 840.424Z" fill="white"/>
<path d="M73.4145 848.727C72.2944 846.967 70.6526 846.077 68.8092 845.996L70.4485 845.024C70.5505 844.959 70.5783 844.834 70.5134 844.732L68.7765 842.003C68.7115 841.901 68.5863 841.873 68.4843 841.938L61.12 846.696L51.3698 852.83C51.2678 852.895 51.2399 853.02 51.3049 853.122L53.058 855.877C53.123 855.979 53.2482 856.007 53.3502 855.942L59.1076 852.206C58.4515 853.878 58.6324 855.626 59.7201 857.335C61.9602 860.855 66.3683 861.024 70.1687 858.605C73.9946 856.17 75.7196 852.349 73.4145 848.727ZM61.2921 855.188C59.961 853.096 60.9904 850.829 64.0929 848.89C67.1443 846.984 69.4469 847.167 70.7618 849.233C72.1578 851.426 71.0287 853.65 67.9935 855.582C65.1623 857.384 62.7044 857.407 61.2921 855.188Z" fill="white"/>
<path d="M83.9137 866.385C84.3552 864.593 83.915 862.849 82.5618 861.302C79.8156 858.161 75.4525 858.682 72.0611 861.648C68.647 864.633 67.4993 868.648 70.3252 871.88C71.7182 873.473 73.4756 874.105 75.3329 873.887L73.8364 875.115C73.7454 875.195 73.7368 875.323 73.8164 875.414L75.9258 877.826C76.0054 877.918 76.1334 877.926 76.2245 877.847L81.9431 872.766L87.6276 867.876C87.7186 867.797 87.7272 867.669 87.6476 867.578L85.5182 865.142C85.4386 865.051 85.3107 865.043 85.2196 865.122L83.9137 866.385ZM72.8482 870.999C71.134 869.085 71.9398 866.653 74.6483 864.285C77.1975 862.056 79.6464 861.642 81.355 863.642C82.9641 865.528 82.3318 867.929 79.5351 870.334C76.7839 872.699 74.4602 872.843 72.8482 870.999Z" fill="white"/>
<path d="M92.2986 881.425C94.0906 882.351 95.7204 882.346 96.9329 880.916C98.6343 878.91 97.7103 876.541 94.6898 873.979L89.548 869.618C89.4558 869.54 89.3279 869.55 89.2497 869.642L84.4851 875.353L79.4522 881.194C79.374 881.286 79.3845 881.414 79.4767 881.492L84.6646 885.892C86.5322 887.476 90.0431 889.74 92.5267 886.812C93.8565 885.244 93.8904 883.568 92.279 881.448L92.2986 881.425ZM93.0792 875.784C94.2782 876.801 94.6745 877.97 93.8531 878.938C92.9927 879.953 91.8407 879.768 90.6186 878.732L88.0593 876.561L90.5429 873.633L93.0792 875.784ZM86.5339 878.36L89.0933 880.53C90.3614 881.606 90.9492 883.016 89.9323 884.215C88.9154 885.414 87.5433 885.162 86.1599 883.989L83.6236 881.838L86.5339 878.36Z" fill="white"/>
<path d="M97.2316 890.744L99.377 887.451L103.407 881.164C103.472 881.061 103.443 880.936 103.341 880.872L100.604 879.148C100.501 879.083 100.376 879.112 100.312 879.214L96.5126 885.361L92.2406 892.032C92.1762 892.134 92.2046 892.259 92.3069 892.324L95.5817 894.386C95.6584 894.434 95.7769 894.473 95.8925 894.403L107.297 888.15L105.329 891.162L101.169 897.654C101.105 897.756 101.133 897.882 101.236 897.946L103.948 899.654C104.05 899.718 104.175 899.69 104.239 899.587L108.296 893.031L112.311 886.77C112.375 886.667 112.347 886.542 112.244 886.478L109.021 884.448C108.944 884.4 108.825 884.361 108.71 884.431L97.2316 890.744Z" fill="white"/>
<path d="M115.097 888.466L114.235 890.464C114.187 890.575 114.234 890.694 114.345 890.742L118.981 892.743L117.008 897.391L113.897 904.445C113.849 904.556 113.896 904.675 114.007 904.723L117.005 906.017C117.116 906.065 117.235 906.018 117.283 905.907L120.283 898.805L122.312 894.181L126.947 896.182C127.058 896.23 127.178 896.183 127.225 896.072L128.088 894.073C128.136 893.962 128.089 893.843 127.978 893.795L115.376 888.355C115.265 888.307 115.145 888.355 115.097 888.466Z" fill="white"/>
<path d="M130.803 911.177C134.745 912.236 138.002 910.481 139.212 907.143C139.243 907.026 139.171 906.944 139.054 906.913L136.135 906.129C136.018 906.097 135.914 906.132 135.846 906.27C135.046 908.435 133.445 909.382 131.526 908.836C128.935 908.108 128.195 905.969 129.175 902.319C130.132 898.757 131.868 897.188 134.474 897.857C136.168 898.311 137.112 899.692 136.937 901.742C136.927 901.896 136.97 901.97 137.086 902.002L139.948 902.77C140.065 902.801 140.176 902.737 140.178 902.613C140.727 899.285 138.913 896.482 135.117 895.462C130.387 894.192 126.854 896.624 125.576 901.384C124.297 906.143 126.16 909.93 130.803 911.177Z" fill="white"/>
<path d="M149.324 898.625C144.816 898.126 142.329 899.433 141.967 902.708C141.688 905.233 142.784 906.875 145.025 907.792L140.817 913.106C140.714 913.216 140.791 913.346 140.941 913.363L144.186 913.722C144.276 913.732 144.4 913.715 144.473 913.601L146.385 910.893L148.14 908.501L151.055 908.824L150.43 914.199C150.417 914.32 150.497 914.42 150.617 914.433L153.862 914.792C153.983 914.805 154.083 914.725 154.096 914.605L154.884 906.935L155.761 899.55C155.775 899.429 155.694 899.329 155.574 899.316L149.324 898.625ZM151.354 906.393L148.409 906.067C146.456 905.851 145.441 904.857 145.627 903.174C145.796 901.641 146.984 900.799 148.968 901.019L151.883 901.341L151.354 906.393Z" fill="white"/>
<path d="M164.514 899.846L164.73 902.012C164.742 902.132 164.842 902.214 164.962 902.202L169.986 901.699L170.519 906.72L171.226 914.397C171.238 914.518 171.337 914.599 171.457 914.587L174.706 914.262C174.827 914.25 174.908 914.15 174.896 914.03L174.068 906.365L173.596 901.338L178.62 900.835C178.74 900.823 178.821 900.724 178.809 900.604L178.593 898.438C178.581 898.317 178.481 898.236 178.361 898.248L164.703 899.614C164.583 899.626 164.502 899.726 164.514 899.846Z" fill="white"/>
<path d="M192.133 897.423C190.756 896.195 189.009 895.769 187.008 896.241C182.947 897.2 181.368 901.301 182.404 905.685C183.446 910.099 186.459 912.991 190.637 912.004C192.697 911.518 194.077 910.26 194.753 908.516L195.139 910.413C195.166 910.531 195.275 910.598 195.393 910.57L198.512 909.834C198.63 909.806 198.697 909.697 198.669 909.579L196.853 902.149L195.188 894.837C195.16 894.72 195.051 894.652 194.933 894.68L191.785 895.424C191.667 895.451 191.6 895.561 191.628 895.678L192.133 897.423ZM191.038 909.362C188.544 909.982 186.772 908.133 185.945 904.631C185.166 901.336 185.945 898.977 188.512 898.402C190.932 897.862 192.758 899.543 193.576 903.14C194.381 906.678 193.422 908.799 191.038 909.362Z" fill="white"/>
<path d="M232.675 878.522C228.74 880.776 227.501 883.298 229.139 886.157C230.402 888.361 232.255 889.041 234.606 888.461L234.339 895.234C234.321 895.384 234.46 895.444 234.591 895.369L237.424 893.745C237.503 893.7 237.593 893.614 237.585 893.479L237.533 890.164L237.541 887.198L240.085 885.74L242.749 890.451C242.809 890.556 242.933 890.589 243.038 890.529L245.871 888.906C245.976 888.846 246.01 888.722 245.95 888.617L242.065 881.958L238.42 875.474C238.36 875.369 238.236 875.336 238.131 875.396L232.675 878.522ZM238.894 883.6L236.323 885.073C234.618 886.05 233.212 885.845 232.37 884.376C231.603 883.038 232.067 881.658 233.798 880.666L236.343 879.208L238.894 883.6Z" fill="white"/>
<path d="M256.562 863.095L256.951 870.036L255.168 871.338L251.812 866.639C251.74 866.541 251.614 866.521 251.516 866.592L248.879 868.518C248.781 868.589 248.761 868.716 248.833 868.814L253.268 874.785L257.766 881.046C257.837 881.144 257.964 881.164 258.061 881.093L260.698 879.167C260.796 879.096 260.816 878.969 260.744 878.871L256.702 873.438L258.509 872.118L262.922 874.061L265.663 875.354C265.784 875.416 265.899 875.369 265.972 875.316L269 873.105C269.122 873.015 269.124 872.864 268.979 872.82L259.656 868.922L259.49 861.107C259.474 860.931 259.353 860.869 259.231 860.958L256.668 862.83C256.594 862.884 256.539 862.962 256.562 863.095Z" fill="white"/>
<path d="M271.32 851.131L262.719 858.237C262.626 858.314 262.595 858.419 262.691 858.535C264.701 861.11 267.411 864.675 268.654 866.511C270.031 868.511 270.101 869.355 269.169 870.125C269.006 870.26 268.823 870.372 268.688 870.445C268.552 870.517 268.52 870.622 268.617 870.738L269.907 872.3C269.984 872.393 270.088 872.425 270.178 872.39C270.511 872.272 270.918 872.053 271.408 871.648C273.785 869.684 273.124 867.602 271.281 864.85C270.174 863.177 268.018 860.331 266.59 858.412L270.295 855.35L273.712 859.39L278.469 865.147C278.546 865.241 278.673 865.253 278.767 865.176L281.307 863.077C281.4 863 281.413 862.872 281.335 862.779L276.509 857.08L271.617 851.16C271.54 851.066 271.413 851.054 271.32 851.131Z" fill="white"/>
<path d="M274.521 841.418L272.576 843.234C272.488 843.317 272.484 843.445 272.566 843.533L274.65 845.765C274.733 845.853 274.861 845.857 274.95 845.775L276.894 843.959C276.982 843.876 276.987 843.748 276.904 843.66L274.82 841.428C274.737 841.34 274.609 841.335 274.521 841.418ZM278.586 837.621L276.642 839.437C276.553 839.519 276.549 839.648 276.632 839.736L278.716 841.968C278.798 842.056 278.927 842.06 279.015 841.978L280.959 840.162C281.048 840.079 281.052 839.951 280.97 839.863L278.885 837.631C278.803 837.543 278.675 837.538 278.586 837.621ZM288.363 853.89C286.463 855.665 284.333 855.379 281.891 852.985L290.221 845.205C290.309 845.122 290.334 845.016 290.231 844.906C286.555 841.058 282.336 840.572 278.801 843.874C275.332 847.114 275.504 851.462 278.847 855.042C282.087 858.511 286.344 859.127 290.012 855.701C293.083 852.832 293.288 849.331 291.471 846.809C291.41 846.7 291.282 846.696 291.194 846.778L288.94 848.883C288.852 848.966 288.849 849.051 288.909 849.16C290.002 850.994 289.777 852.57 288.363 853.89ZM280.474 845.621C282.219 843.991 284.338 844.576 285.893 846.02L280.37 851.179C278.86 849.031 278.839 847.148 280.474 845.621Z" fill="white"/>
<path d="M297.701 835.85C298.737 834.119 298.834 832.492 297.484 831.192C295.588 829.369 293.166 830.142 290.419 832.996L285.744 837.854C285.661 837.941 285.663 838.07 285.75 838.153L291.151 843.267L296.665 848.656C296.752 848.74 296.88 848.738 296.964 848.65L301.681 843.749C303.379 841.984 305.859 838.622 303.092 835.96C301.61 834.534 299.94 834.395 297.723 835.871L297.701 835.85ZM292.12 834.717C293.21 833.584 294.402 833.262 295.317 834.142C296.275 835.065 296.019 836.203 294.908 837.357L292.581 839.775L289.814 837.113L292.12 834.717ZM294.28 841.411L296.607 838.992C297.76 837.794 299.205 837.296 300.337 838.386C301.47 839.476 301.133 840.83 299.875 842.137L297.569 844.533L294.28 841.411Z" fill="white"/>
<path d="M305.796 819.03C303.96 818.846 302.296 819.529 300.955 821.087C298.235 824.25 299.369 828.496 302.784 831.433C306.222 834.391 310.359 834.959 313.159 831.704C314.539 830.099 314.916 828.27 314.437 826.462L315.865 827.77C315.956 827.849 316.084 827.839 316.163 827.748L318.253 825.318C318.332 825.226 318.322 825.098 318.231 825.019L312.392 820.077L306.747 815.142C306.655 815.063 306.527 815.073 306.449 815.165L304.339 817.617C304.26 817.709 304.27 817.837 304.362 817.916L305.796 819.03ZM311.93 829.331C310.277 831.299 307.756 830.845 305.029 828.499C302.461 826.291 301.705 823.925 303.443 821.951C305.082 820.091 307.548 820.377 310.325 822.805C313.055 825.194 313.527 827.474 311.93 829.331Z" fill="white"/>
<path d="M312.116 808.026C309.337 811.61 309.152 814.413 311.756 816.432C313.763 817.989 315.736 817.912 317.688 816.48L320.022 822.844C320.062 822.99 320.213 822.992 320.306 822.873L322.307 820.292C322.363 820.221 322.413 820.107 322.354 819.985L321.043 816.94L319.92 814.194L321.718 811.877L325.975 815.218C326.071 815.292 326.198 815.276 326.272 815.18L328.273 812.6C328.348 812.504 328.331 812.377 328.236 812.303L322.107 807.626L316.267 803.02C316.172 802.946 316.044 802.962 315.97 803.057L312.116 808.026ZM319.801 810.352L317.985 812.693C316.781 814.246 315.402 814.593 314.064 813.555C312.846 812.61 312.749 811.157 313.972 809.58L315.769 807.263L319.801 810.352Z" fill="white"/>
<path d="M330.472 781.891L324.488 791.127C324.423 791.228 324.424 791.337 324.551 791.419C327.445 793.402 330.163 795.379 331.655 796.634C333.046 797.824 333.958 798.919 334.199 800.048L333.624 800.936C333.558 801.037 333.585 801.163 333.686 801.228L338.634 804.434C338.736 804.5 338.861 804.473 338.927 804.371L340.456 802.012C340.522 801.91 340.495 801.785 340.393 801.719L337.474 799.719L343.063 791.092L346.081 792.94C346.183 793.005 346.308 792.979 346.374 792.877L347.886 790.543C347.952 790.441 347.925 790.316 347.824 790.25L342.876 787.044C342.774 786.979 342.649 787.005 342.583 787.107L341.58 788.655L336.871 785.748L330.765 781.828C330.663 781.762 330.538 781.789 330.472 781.891ZM339.608 791.7L336.073 797.155C335.506 796.139 334.731 795.168 333.323 794.004C332.128 793.014 330.104 791.523 328.191 790.139L330.821 786.079L334.939 788.675L339.608 791.7Z" fill="white"/>
<path d="M348.692 777.572C347.415 779.837 345.298 780.206 342.248 778.66L347.845 768.731C347.904 768.626 347.896 768.517 347.765 768.443C343.1 765.882 338.93 766.69 336.555 770.904C334.224 775.039 335.699 779.133 339.966 781.538C344.101 783.869 348.345 783.173 350.81 778.801C352.874 775.141 352.014 771.74 349.52 769.884C349.43 769.798 349.306 769.832 349.247 769.938L347.733 772.624C347.673 772.73 347.696 772.812 347.787 772.898C349.381 774.317 349.642 775.887 348.692 777.572ZM338.677 772.066C339.85 769.985 342.047 769.905 343.965 770.812L340.253 777.397C338.166 775.804 337.578 774.015 338.677 772.066Z" fill="white"/>
<path d="M351.764 758.254C352.226 756.291 351.825 754.711 350.143 753.883C347.784 752.72 345.71 754.192 343.96 757.745L340.98 763.793C340.926 763.902 340.968 764.023 341.076 764.076L347.775 767.309L354.663 770.771C354.772 770.824 354.893 770.783 354.947 770.675L357.953 764.573C359.036 762.376 360.378 758.42 356.934 756.723C355.09 755.814 353.456 756.189 351.791 758.267L351.764 758.254ZM346.103 758.868C346.797 757.458 347.835 756.79 348.974 757.351C350.167 757.939 350.268 759.101 349.56 760.538L348.077 763.549L344.633 761.852L346.103 758.868ZM350.192 764.591L351.676 761.581C352.411 760.089 353.636 759.176 355.046 759.871C356.456 760.566 356.545 761.958 355.744 763.585L354.274 766.568L350.192 764.591Z" fill="white"/>
<path d="M365.271 749.447C367.16 744.895 365.199 741.102 360.675 739.225C356.123 737.336 352.109 738.648 350.22 743.2C348.342 747.723 350.292 751.544 354.843 753.433C359.395 755.322 363.393 753.97 365.271 749.447ZM363.009 748.508C361.989 750.965 359.72 751.464 356.257 750.027C352.823 748.601 351.478 746.635 352.482 744.139C353.49 741.709 355.859 741.285 359.294 742.71C362.756 744.148 364.029 746.051 363.009 748.508Z" fill="white"/>
<path d="M363.652 727.135C363.532 728.177 363.298 729.182 362.986 730.13C362.222 732.457 360.932 732.606 359.123 732.012L355.618 730.861C355.503 730.823 355.389 730.881 355.351 730.996L354.333 734.098C354.295 734.213 354.353 734.328 354.468 734.365L357.981 735.487C361.285 736.572 363.702 736.188 365.136 731.822C365.551 730.558 365.812 729.18 365.978 727.899L371.886 729.87C372.001 729.908 372.116 729.85 372.153 729.735L373.172 726.633C373.21 726.518 373.152 726.404 373.037 726.366L365.693 724.018L358.646 721.64C358.531 721.603 358.417 721.661 358.379 721.776L357.36 724.878C357.322 724.993 357.38 725.107 357.495 725.145L363.652 727.135Z" fill="white"/>
<path d="M361.592 709.76L366.404 714.778L365.897 716.926L360.291 715.542C360.173 715.514 360.064 715.582 360.036 715.699L359.287 718.877C359.259 718.995 359.326 719.104 359.444 719.132L366.697 720.78L374.186 722.609C374.304 722.637 374.413 722.569 374.441 722.452L375.191 719.274C375.218 719.156 375.151 719.047 375.033 719.019L368.428 717.523L368.941 715.346L373.558 713.949L376.48 713.148C376.612 713.117 376.669 713.006 376.69 712.918L377.55 709.269C377.585 709.122 377.488 709.006 377.35 709.066L367.733 712.172L362.522 706.345C362.396 706.222 362.264 706.253 362.229 706.401L361.501 709.49C361.48 709.579 361.488 709.674 361.592 709.76Z" fill="white"/>
<path d="M366.161 693.734C364.528 694.594 363.517 696.081 363.259 698.121C362.734 702.26 366.022 705.175 370.491 705.741C374.99 706.311 378.754 704.503 379.294 700.244C379.56 698.144 378.865 696.41 377.469 695.167L379.381 695.47C379.501 695.485 379.602 695.407 379.617 695.287L380.02 692.107C380.035 691.987 379.957 691.886 379.837 691.871L372.241 690.969L364.81 689.967C364.69 689.952 364.588 690.03 364.573 690.15L364.167 693.36C364.151 693.48 364.23 693.581 364.35 693.596L366.161 693.734ZM376.96 698.942C376.667 701.496 374.314 702.508 370.745 702.056C367.385 701.63 365.449 700.074 365.81 697.469C366.151 695.013 368.366 693.892 372.021 694.385C375.617 694.871 377.268 696.513 376.96 698.942Z" fill="white"/>
<path d="M365.326 678.503L372.718 677.68L380.393 676.948C380.513 676.936 380.594 676.836 380.581 676.716L380.246 673.468C380.234 673.347 380.134 673.267 380.014 673.279L372.351 674.131L367.326 674.619L366.68 668.364L371.699 667.815L379.374 667.084C379.495 667.071 379.576 666.972 379.563 666.852L379.228 663.604C379.215 663.483 379.116 663.402 378.996 663.415L371.333 664.267L363.929 664.97C363.808 664.983 363.728 665.082 363.74 665.202L365.094 678.315C365.106 678.435 365.205 678.516 365.326 678.503Z" fill="white"/>
<path d="M360.875 655.138C361.474 657.137 362.811 658.44 364.563 659.02L362.721 659.509C362.605 659.543 362.544 659.656 362.579 659.772L363.507 662.871C363.542 662.987 363.655 663.048 363.771 663.013L372.152 660.439L383.204 657.19C383.32 657.156 383.381 657.043 383.346 656.927L382.409 653.799C382.374 653.683 382.261 653.622 382.145 653.657L375.588 655.685C376.675 654.255 376.977 652.523 376.395 650.583C375.198 646.586 371.002 645.223 366.687 646.516C362.343 647.818 359.643 651.026 360.875 655.138ZM374.298 652.221C375.01 654.596 373.402 656.498 369.889 657.519C366.434 658.523 364.268 657.72 363.565 655.374C362.819 652.883 364.511 651.051 367.957 650.018C371.172 649.055 373.543 649.701 374.298 652.221Z" fill="white"/>
<path d="M369.208 633.851C366.747 629.582 362.544 628.83 358.301 631.276C354.031 633.738 352.629 637.722 355.091 641.991C357.537 646.234 361.756 647.013 366.025 644.551C370.294 642.09 371.655 638.094 369.208 633.851ZM367.087 635.075C368.416 637.379 367.43 639.483 364.182 641.356C360.961 643.213 358.583 643.084 357.213 640.768C355.899 638.489 357.004 636.351 360.226 634.494C363.473 632.621 365.758 632.77 367.087 635.075Z" fill="white"/>
<path d="M357.454 618.405C354.6 615.488 350.903 615.341 348.163 617.598C348.076 617.683 348.097 617.79 348.181 617.877L350.296 620.038C350.38 620.124 350.487 620.147 350.616 620.062C352.406 618.607 354.266 618.606 355.64 620.053C357.501 621.998 357.049 624.216 354.347 626.859C351.711 629.439 349.418 629.905 347.515 628.003C346.289 626.75 346.178 625.081 347.373 623.405C347.46 623.278 347.46 623.192 347.376 623.106L345.304 620.988C345.219 620.902 345.091 620.9 345.026 621.006C342.86 623.591 342.994 626.928 345.743 629.737C349.168 633.238 353.447 632.943 356.97 629.496C360.492 626.05 360.816 621.841 357.454 618.405Z" fill="white"/>
<path d="M341.318 624.462L342.504 622.637C342.57 622.535 342.543 622.41 342.442 622.344L338.209 619.592L340.936 615.342L345.188 608.912C345.254 608.81 345.228 608.685 345.126 608.619L342.389 606.839C342.287 606.773 342.162 606.8 342.096 606.901L337.945 613.398L335.167 617.615L330.934 614.863C330.833 614.797 330.707 614.823 330.641 614.925L329.455 616.75C329.389 616.851 329.416 616.977 329.517 617.042L341.025 624.524C341.126 624.59 341.252 624.563 341.318 624.462Z" fill="white"/>
<path d="M327.4 598.866C322.838 597 319.056 598.981 317.202 603.515C315.337 608.076 316.67 612.084 321.232 613.949C325.765 615.803 329.576 613.834 331.441 609.272C333.306 604.711 331.933 600.72 327.4 598.866ZM326.473 601.132C328.935 602.139 329.446 604.406 328.027 607.876C326.619 611.318 324.661 612.673 322.159 611.682C319.724 610.687 319.287 608.32 320.695 604.878C322.114 601.408 324.01 600.125 326.473 601.132Z" fill="white"/>
<path d="M305.296 601.027C303.279 601.009 301.827 601.749 301.39 603.572C300.777 606.13 302.67 607.828 306.522 608.751L313.078 610.323C313.196 610.351 313.305 610.284 313.333 610.166L315.008 602.92L316.865 595.437C316.893 595.319 316.826 595.21 316.708 595.182L310.093 593.596C307.712 593.025 303.557 592.588 302.662 596.322C302.182 598.321 302.908 599.832 305.303 600.997L305.296 601.027ZM307.145 606.413C305.616 606.047 304.735 605.182 305.031 603.948C305.341 602.654 306.452 602.299 308.01 602.672L311.274 603.455L310.379 607.188L307.145 606.413ZM311.824 601.161L308.56 600.379C306.943 599.991 305.782 598.998 306.149 597.469C306.515 595.94 307.853 595.546 309.617 595.969L312.851 596.744L311.824 601.161Z" fill="white"/>
<path d="M279.41 604.343C280.527 605.812 282.16 606.564 284.215 606.483C288.384 606.319 290.718 602.596 290.54 598.095C290.362 593.563 287.958 590.148 283.668 590.317C281.553 590.401 279.958 591.371 278.961 592.954L278.945 591.018C278.94 590.897 278.846 590.81 278.725 590.815L275.523 590.941C275.402 590.946 275.315 591.04 275.32 591.161L275.682 598.802L275.917 606.296C275.921 606.417 276.016 606.504 276.137 606.499L279.369 606.372C279.49 606.367 279.577 606.273 279.572 606.152L279.41 604.343ZM282.769 592.834C285.335 592.702 286.721 594.857 286.863 598.452C286.996 601.835 285.781 604.001 283.151 604.074C280.673 604.142 279.202 602.142 279.087 598.456C278.974 594.829 280.322 592.93 282.769 592.834Z" fill="white"/>
<path d="M265.515 587.387L262.536 588.06C262.418 588.086 262.35 588.195 262.34 588.29L259.997 609.617C259.965 609.748 260.051 609.853 260.198 609.819L263.383 609.1C263.501 609.073 263.576 608.994 263.579 608.87L264.409 597.586L270.627 607.278C270.683 607.389 270.785 607.428 270.903 607.402L274.472 606.596C274.619 606.562 274.688 606.454 274.595 606.32L265.153 592.645L265.716 587.59C265.748 587.458 265.662 587.354 265.515 587.387Z" fill="white"/>
<path d="M246.726 602.858L255.143 611.578C255.22 611.676 255.327 611.695 255.438 611.647L259.12 610.03C259.23 609.982 259.277 609.862 259.228 609.752L256.098 602.772L253.14 595.882C253.091 595.771 252.972 595.725 252.861 595.773L250.591 596.77C250.48 596.819 250.434 596.938 250.482 597.049L253.329 603.459L254.709 606.452L255.299 607.646L246.65 598.698C246.573 598.6 246.466 598.581 246.355 598.629L244.334 599.516C244.224 599.565 244.165 599.657 244.186 599.78L244.944 611.961L244.506 610.964L243.225 607.895L240.405 601.472C240.357 601.362 240.237 601.315 240.127 601.364L237.33 602.591C237.22 602.64 237.173 602.759 237.222 602.87L240.263 609.723L243.31 616.739C243.359 616.85 243.478 616.897 243.589 616.848L247.299 615.22C247.41 615.171 247.468 615.079 247.447 614.956L246.726 602.858Z" fill="white"/>
<path d="M230.323 618.323L235.81 614.671L239.009 619.587C239.076 619.688 239.202 619.713 239.302 619.646L242.021 617.837C242.121 617.77 242.147 617.644 242.08 617.544L237.908 611.386L233.687 604.934C233.62 604.834 233.494 604.808 233.394 604.875L230.676 606.684C230.575 606.751 230.55 606.877 230.617 606.978L234.369 612.507L228.882 616.158L225.205 610.579C225.138 610.479 225.013 610.453 224.912 610.52L222.194 612.33C222.093 612.397 222.068 612.522 222.135 612.623L226.457 619.007L230.527 625.233C230.594 625.333 230.72 625.358 230.821 625.291L233.539 623.482C233.639 623.415 233.665 623.29 233.598 623.189L230.323 618.323Z" fill="white"/>
<path d="M214.431 621.512C216.374 619.784 218.495 620.122 220.879 622.574L212.362 630.15C212.272 630.23 212.244 630.336 212.345 630.448C215.926 634.384 220.132 634.973 223.747 631.758C227.293 628.603 227.227 624.252 223.971 620.592C220.817 617.046 216.576 616.327 212.826 619.662C209.686 622.455 209.396 625.95 211.152 628.516C211.209 628.626 211.337 628.634 211.428 628.553L213.732 626.504C213.822 626.423 213.827 626.338 213.77 626.227C212.722 624.367 212.985 622.798 214.431 621.512ZM222.117 629.971C220.332 631.558 218.228 630.921 216.708 629.44L222.356 624.417C223.813 626.601 223.788 628.484 222.117 629.971Z" fill="white"/>
<path d="M193.848 639.978C190.826 643.871 191.719 648.046 195.588 651.049C199.481 654.071 203.7 653.862 206.721 649.969C209.724 646.1 208.85 641.901 204.957 638.879C201.064 635.858 196.851 636.109 193.848 639.978ZM195.782 641.479C197.414 639.377 199.734 639.494 202.695 641.793C205.633 644.073 206.412 646.324 204.787 648.468C203.174 650.546 200.776 650.331 197.839 648.051C194.877 645.752 194.151 643.581 195.782 641.479Z" fill="white"/>
<path d="M190.637 661.919L194.152 656.344L199.081 659.524C199.184 659.588 199.309 659.56 199.373 659.458L201.115 656.696C201.179 656.593 201.151 656.468 201.049 656.404L194.725 652.488L188.236 648.324C188.134 648.26 188.009 648.288 187.944 648.391L186.203 651.153C186.138 651.255 186.167 651.38 186.269 651.444L191.953 654.957L188.437 660.532L182.802 656.943C182.699 656.878 182.574 656.907 182.51 657.009L180.768 659.771C180.704 659.873 180.732 659.998 180.834 660.063L187.388 664.124L193.647 668.142C193.749 668.207 193.874 668.178 193.939 668.076L195.68 665.314C195.745 665.212 195.716 665.087 195.614 665.022L190.637 661.919Z" fill="white"/>
<path d="M178.756 684.911L181.455 678.898L186.781 681.355C186.891 681.405 187.011 681.359 187.061 681.249L188.398 678.27C188.448 678.16 188.402 678.04 188.292 677.99L181.482 674.999L174.473 671.786C174.363 671.737 174.243 671.783 174.194 671.893L172.856 674.872C172.807 674.982 172.852 675.102 172.963 675.151L179.083 677.833L176.384 683.846L170.3 681.081C170.19 681.032 170.07 681.077 170.021 681.188L168.683 684.167C168.634 684.277 168.679 684.397 168.79 684.446L175.848 687.549L182.608 690.65C182.718 690.7 182.838 690.654 182.888 690.544L184.225 687.565C184.275 687.455 184.229 687.335 184.119 687.285L178.756 684.911Z" fill="white"/>
<path d="M179.293 701.145C179.982 699.176 179.665 697.335 178.588 695.837L180.366 696.523C180.48 696.563 180.595 696.507 180.635 696.393L181.704 693.34C181.744 693.226 181.688 693.11 181.574 693.07L173.278 690.231L162.425 686.37C162.311 686.33 162.196 686.385 162.156 686.5L161.077 689.582C161.037 689.696 161.093 689.811 161.207 689.851L167.705 692.061C165.986 692.58 164.725 693.805 164.056 695.717C162.678 699.655 165.273 703.222 169.525 704.709C173.806 706.207 177.875 705.197 179.293 701.145ZM166.715 695.622C167.534 693.282 169.952 692.687 173.395 693.924C176.781 695.141 178.063 697.063 177.254 699.374C176.395 701.828 173.95 702.318 170.554 701.13C167.386 700.021 165.846 698.105 166.715 695.622Z" fill="white"/>
<path d="M171.688 718.663C173.416 718.017 174.607 716.669 175.122 714.679C176.165 710.639 173.273 707.331 168.911 706.205C164.52 705.07 160.557 706.388 159.484 710.545C158.954 712.594 159.424 714.402 160.652 715.812L158.794 715.27C158.677 715.239 158.566 715.304 158.536 715.421L157.734 718.524C157.704 718.641 157.769 718.752 157.886 718.782L165.308 720.637L172.552 722.571C172.669 722.601 172.78 722.536 172.81 722.419L173.619 719.287C173.649 719.17 173.584 719.059 173.467 719.029L171.688 718.663ZM161.634 712.131C162.248 709.636 164.71 708.929 168.193 709.829C171.472 710.676 173.196 712.464 172.509 715.003C171.859 717.396 169.521 718.228 165.957 717.276C162.452 716.339 161.022 714.502 161.634 712.131Z" fill="white"/>
<path d="M163.199 734.529C163.315 736.542 164.15 737.942 165.998 738.258C168.59 738.701 170.159 736.699 170.826 732.795L171.96 726.149C171.981 726.03 171.906 725.925 171.787 725.904L164.446 724.712L156.856 723.355C156.737 723.335 156.632 723.409 156.612 723.528L155.467 730.234C155.055 732.648 154.894 736.822 158.679 737.469C160.706 737.815 162.166 736.99 163.169 734.524L163.199 734.529ZM168.452 732.328C168.187 733.878 167.383 734.814 166.131 734.6C164.82 734.376 164.392 733.291 164.662 731.712L165.226 728.404L169.011 729.05L168.452 732.328ZM162.902 728.007L162.337 731.315C162.057 732.954 161.143 734.178 159.593 733.913C158.043 733.649 157.561 732.34 157.867 730.552L158.426 727.273L162.902 728.007Z" fill="white"/>
<path d="M157.506 743.767L161.415 744.178L168.848 744.905C168.968 744.916 169.066 744.834 169.077 744.713L169.366 741.491C169.377 741.371 169.295 741.272 169.174 741.262L161.972 740.677L154.088 739.909C153.967 739.899 153.869 739.981 153.858 740.101L153.512 743.956C153.504 744.046 153.524 744.169 153.639 744.24L164.397 751.549L160.819 751.167L153.146 750.419C153.025 750.408 152.927 750.49 152.916 750.611L152.63 753.803C152.619 753.923 152.701 754.022 152.822 754.032L160.506 754.66L167.908 755.385C168.029 755.395 168.127 755.313 168.138 755.193L168.478 751.398C168.486 751.308 168.467 751.185 168.352 751.114L157.506 743.767Z" fill="white"/>
<path d="M167.792 756.623L165.616 756.595C165.495 756.593 165.403 756.683 165.401 756.804L165.336 761.852L160.287 761.817L152.579 761.656C152.458 761.655 152.366 761.744 152.364 761.865L152.322 765.13C152.321 765.251 152.41 765.343 152.531 765.345L160.241 765.384L165.289 765.48L165.223 770.528C165.222 770.649 165.311 770.741 165.432 770.743L167.609 770.771C167.73 770.773 167.822 770.683 167.823 770.562L168.001 756.837C168.003 756.716 167.913 756.624 167.792 756.623Z" fill="white"/>
<path d="M152.384 779.974C152.654 784.047 155.367 786.563 158.916 786.631C159.037 786.623 159.091 786.528 159.083 786.408L158.883 783.391C158.875 783.27 158.809 783.184 158.656 783.164C156.349 783.105 154.936 781.895 154.834 779.902C154.686 777.216 156.472 775.824 160.243 775.574C163.923 775.33 165.968 776.467 166.177 779.15C166.293 780.9 165.291 782.239 163.294 782.735C163.145 782.775 163.088 782.839 163.096 782.96L163.293 785.916C163.301 786.037 163.397 786.121 163.516 786.083C166.842 785.529 168.911 782.907 168.65 778.986C168.326 774.099 164.884 771.539 159.967 771.866C155.049 772.192 152.066 775.178 152.384 779.974Z" fill="white"/>
<path d="M169.792 793.38C169.119 788.895 167.219 786.826 163.96 787.316C161.448 787.693 160.142 789.173 159.83 791.574L153.615 788.868C153.482 788.797 153.376 788.904 153.398 789.054L153.883 792.283C153.896 792.373 153.944 792.488 154.073 792.53L157.181 793.683L159.942 794.767L160.377 797.667L155.021 798.44C154.901 798.458 154.825 798.562 154.843 798.681L155.328 801.91C155.346 802.03 155.449 802.106 155.569 802.088L163.184 800.884L170.548 799.84C170.667 799.822 170.744 799.719 170.726 799.599L169.792 793.38ZM162.804 797.333L162.364 794.403C162.072 792.46 162.773 791.224 164.447 790.972C165.972 790.743 167.091 791.676 167.387 793.649L167.822 796.55L162.804 797.333Z" fill="white"/>
<path d="M172.579 809.798L170.492 810.415C170.376 810.45 170.315 810.562 170.349 810.678L171.78 815.52L166.947 816.98L159.536 819.108C159.42 819.142 159.359 819.255 159.393 819.371L160.319 822.502C160.353 822.618 160.466 822.679 160.582 822.645L167.958 820.402L172.809 818.999L174.24 823.841C174.274 823.957 174.387 824.019 174.503 823.984L176.59 823.367C176.706 823.333 176.767 823.22 176.733 823.104L172.842 809.941C172.808 809.825 172.695 809.764 172.579 809.798Z" fill="white"/>
<path d="M179.345 835.391C180.344 833.839 180.493 832.047 179.715 830.144C178.135 826.282 173.839 825.361 169.669 827.066C165.472 828.782 163.084 832.208 164.709 836.182C165.51 838.141 166.967 839.309 168.795 839.705L166.981 840.381C166.869 840.427 166.819 840.545 166.865 840.657L168.078 843.623C168.124 843.735 168.242 843.785 168.354 843.739L175.411 840.788L182.374 838.006C182.486 837.96 182.536 837.842 182.49 837.73L181.266 834.736C181.22 834.624 181.102 834.574 180.99 834.62L179.345 835.391ZM167.381 836.167C166.38 833.8 167.931 831.761 171.261 830.4C174.395 829.118 176.846 829.52 177.814 831.966C178.724 834.272 177.348 836.338 173.922 837.706C170.553 839.051 168.308 838.434 167.381 836.167Z" fill="white"/>
<path d="M187.999 848.841L181.069 848.281L180.023 846.338L185.136 843.653C185.242 843.595 185.279 843.472 185.222 843.366L183.673 840.491C183.616 840.385 183.493 840.348 183.387 840.405L176.867 843.985L170.051 847.588C169.944 847.645 169.908 847.768 169.965 847.875L171.513 850.749C171.571 850.856 171.693 850.893 171.8 850.835L177.734 847.571L178.795 849.54L176.268 853.648L174.614 856.188C174.536 856.298 174.567 856.419 174.61 856.499L176.388 859.8C176.459 859.933 176.609 859.955 176.672 859.818L181.805 851.113L189.57 852.013C189.746 852.021 189.824 851.91 189.752 851.777L188.247 848.982C188.204 848.903 188.134 848.837 187.999 848.841Z" fill="white"/>
<path d="M182.396 869.746C185.196 873.801 189.447 874.21 193.477 871.426C197.532 868.626 198.605 864.541 195.805 860.486C193.021 856.456 188.754 856.022 184.699 858.823C180.644 861.623 179.612 865.716 182.396 869.746ZM184.411 868.355C182.899 866.165 183.71 863.988 186.795 861.858C189.855 859.745 192.236 859.68 193.79 861.877C195.284 864.042 194.356 866.263 191.296 868.376C188.212 870.506 185.923 870.544 184.411 868.355Z" fill="white"/>
<path d="M205.521 871.657C203.471 869.273 203.581 866.666 205.689 864.852L207.523 866.984C206.377 867.969 206.179 869.177 207.145 870.3C208.092 871.4 209.335 871.407 210.52 870.467L212.354 872.599C210.245 874.413 207.611 874.086 205.521 871.657ZM193.346 877.346L196.365 874.828L202.065 870.004C202.157 869.925 202.166 869.797 202.087 869.705L199.978 867.253C199.899 867.161 199.771 867.152 199.679 867.231L194.241 871.989L188.197 877.109C188.105 877.188 188.095 877.316 188.174 877.407L190.698 880.341C190.757 880.41 190.859 880.482 190.99 880.449L203.729 877.825L200.962 880.126L195.078 885.108C194.986 885.187 194.977 885.315 195.056 885.406L197.146 887.836C197.224 887.927 197.352 887.937 197.444 887.858L203.249 882.784L208.927 877.98C209.018 877.901 209.028 877.773 208.949 877.681L206.465 874.794C206.406 874.725 206.304 874.653 206.173 874.686L193.346 877.346Z" fill="white"/>
<path d="M223.495 891.476L216.847 893.511L215.158 892.091L218.919 887.709C218.997 887.617 218.986 887.489 218.894 887.411L216.394 885.31C216.301 885.232 216.174 885.243 216.096 885.336L211.357 891.068L206.35 896.931C206.272 897.024 206.283 897.152 206.376 897.23L208.876 899.33C208.968 899.408 209.096 899.397 209.174 899.305L213.485 894.081L215.198 895.521L214.365 900.271L213.764 903.241C213.732 903.373 213.805 903.474 213.875 903.532L216.745 905.944C216.86 906.042 217.008 906.007 217.016 905.856L218.575 895.872L226.125 893.844C226.292 893.787 226.323 893.655 226.207 893.558L223.777 891.515C223.708 891.457 223.619 891.422 223.495 891.476Z" fill="white"/>
<path d="M239.219 902.813L230.01 896.517C229.91 896.448 229.801 896.447 229.716 896.572C227.798 899.216 225.123 902.808 223.702 904.51C222.163 906.387 221.371 906.688 220.372 906.006C220.198 905.886 220.04 905.742 219.932 905.632C219.825 905.521 219.716 905.52 219.63 905.645L218.487 907.317C218.419 907.417 218.418 907.526 218.475 907.602C218.682 907.89 219.005 908.22 219.529 908.579C222.075 910.319 223.892 909.108 226.026 906.575C227.327 905.047 229.465 902.188 230.913 900.284L234.882 902.997L231.945 907.399L227.731 913.564C227.662 913.664 227.686 913.79 227.786 913.858L230.506 915.718C230.606 915.786 230.732 915.762 230.801 915.662L234.94 909.447L239.275 903.107C239.343 903.008 239.319 902.881 239.219 902.813Z" fill="white"/>
<path d="M249.51 903.027L247.167 901.767C247.06 901.71 246.937 901.747 246.88 901.853L245.434 904.542C245.377 904.649 245.414 904.772 245.52 904.829L247.863 906.089C247.97 906.146 248.093 906.11 248.15 906.003L249.596 903.314C249.653 903.207 249.617 903.084 249.51 903.027ZM254.409 905.662L252.066 904.402C251.96 904.344 251.837 904.381 251.78 904.488L250.333 907.177C250.276 907.284 250.313 907.407 250.42 907.464L252.763 908.724C252.869 908.781 252.992 908.744 253.049 908.638L254.496 905.949C254.553 905.842 254.516 905.719 254.409 905.662ZM242.129 920.135C239.839 918.904 239.428 916.795 240.913 913.714L250.952 919.113C251.058 919.17 251.167 919.16 251.239 919.027C253.706 914.312 252.815 910.159 248.554 907.868C244.374 905.62 240.31 907.176 237.99 911.49C235.742 915.671 236.522 919.901 240.942 922.278C244.644 924.268 248.026 923.341 249.833 920.811C249.917 920.719 249.88 920.596 249.773 920.539L247.057 919.078C246.951 919.021 246.869 919.045 246.785 919.138C245.397 920.76 243.833 921.052 242.129 920.135ZM247.435 910.013C249.539 911.144 249.663 913.339 248.794 915.275L242.137 911.695C243.688 909.577 245.465 908.953 247.435 910.013Z" fill="white"/>
<path d="M263.561 923.397C265.549 923.733 267.1 923.233 267.821 921.502C268.832 919.074 267.231 917.097 263.574 915.575L257.35 912.984C257.238 912.938 257.12 912.987 257.073 913.098L254.271 919.988L251.252 927.082C251.206 927.194 251.255 927.312 251.366 927.359L257.647 929.973C259.907 930.914 263.941 932.004 265.416 928.459C266.206 926.561 265.729 924.954 263.549 923.424L263.561 923.397ZM262.589 917.785C264.041 918.389 264.773 919.382 264.285 920.554C263.774 921.782 262.621 921.957 261.141 921.341L258.043 920.052L259.519 916.507L262.589 917.785ZM257.137 922.229L260.235 923.519C261.77 924.158 262.759 925.322 262.155 926.774C261.551 928.225 260.167 928.403 258.492 927.705L255.422 926.427L257.137 922.229Z" fill="white"/>
<path d="M273.811 919.677L270.683 918.738C270.568 918.703 270.455 918.764 270.42 918.88L268.276 926.128L266.019 933.437C265.984 933.553 266.045 933.666 266.161 933.7L269.462 934.691L269.471 934.662L271.642 935.314C275.986 936.618 278.763 935.779 279.754 932.478C280.736 929.205 278.901 927.013 274.528 925.7L272.385 925.057L273.953 919.941C273.987 919.825 273.927 919.712 273.811 919.677ZM281.573 930.309L279.377 937.415C279.342 937.531 279.403 937.644 279.519 937.678L282.646 938.617C282.762 938.652 282.875 938.591 282.91 938.475L284.99 931.335L287.264 923.968C287.299 923.852 287.238 923.739 287.122 923.704L283.995 922.766C283.879 922.731 283.766 922.792 283.731 922.907L281.573 930.309ZM271.661 927.365L273.862 928.026C276.062 928.686 276.682 929.882 276.195 931.504C275.682 933.212 274.336 933.597 272.367 933.006L270.166 932.346L271.661 927.365Z" fill="white"/>
<path d="M297.785 924.674C294.695 924.091 293.154 921.985 293.67 919.251L296.433 919.773C296.153 921.258 296.751 922.325 298.207 922.6C299.633 922.869 300.609 922.099 300.949 920.625L303.712 921.146C303.196 923.88 300.934 925.268 297.785 924.674ZM291.82 936.716L292.609 932.866L294.053 925.539C294.075 925.42 294.003 925.314 293.884 925.291L290.705 924.691C290.586 924.669 290.48 924.741 290.458 924.86L289.177 931.972L287.649 939.744C287.627 939.863 287.699 939.969 287.818 939.992L291.621 940.709C291.71 940.726 291.834 940.719 291.916 940.611L300.233 930.612L299.507 934.136L298.018 941.701C297.995 941.82 298.068 941.926 298.186 941.948L301.336 942.543C301.454 942.565 301.56 942.493 301.583 942.374L302.953 934.787L304.392 927.49C304.414 927.371 304.342 927.265 304.223 927.242L300.48 926.536C300.39 926.519 300.266 926.526 300.184 926.634L291.82 936.716Z" fill="white"/>
<path d="M314.85 928.979L314.501 936.408L314.016 944.103C314.009 944.224 314.095 944.319 314.216 944.326L317.476 944.506C317.597 944.512 317.692 944.427 317.699 944.306L318.063 936.605L318.372 931.565L324.651 931.912L324.403 936.955L323.918 944.649C323.911 944.77 323.996 944.865 324.117 944.872L327.377 945.052C327.498 945.059 327.594 944.973 327.6 944.852L327.965 937.151L328.435 929.728C328.442 929.608 328.356 929.512 328.235 929.505L315.073 928.779C314.953 928.772 314.857 928.858 314.85 928.979Z" fill="white"/>
<path d="M343.613 931.424C342.508 929.946 340.881 929.18 338.826 929.244C334.656 929.374 332.291 933.078 332.431 937.58C332.572 942.113 334.948 945.548 339.239 945.414C341.354 945.348 342.958 944.391 343.968 942.817L343.967 944.753C343.971 944.874 344.065 944.962 344.186 944.958L347.389 944.858C347.51 944.854 347.597 944.761 347.594 944.64L347.295 936.997L347.122 929.5C347.119 929.379 347.025 929.292 346.904 929.295L343.671 929.396C343.55 929.4 343.462 929.493 343.466 929.614L343.613 931.424ZM340.159 942.905C337.591 943.016 336.223 940.85 336.111 937.254C336.006 933.869 337.24 931.714 339.87 931.662C342.348 931.615 343.802 933.627 343.887 937.314C343.97 940.942 342.607 942.829 340.159 942.905Z" fill="white"/>
<path d="M357.24 928.085C355.166 928.308 353.64 929.385 352.75 931.001L352.606 929.101C352.593 928.981 352.493 928.901 352.373 928.914L349.156 929.26C349.036 929.273 348.956 929.373 348.969 929.493L349.968 938.204L351.143 949.663C351.156 949.783 351.256 949.864 351.376 949.851L354.622 949.501C354.743 949.488 354.823 949.388 354.81 949.268L354.014 942.451C355.222 943.78 356.869 944.393 358.883 944.176C363.032 943.729 365.138 939.853 364.655 935.374C364.169 930.865 361.508 927.625 357.24 928.085ZM357.656 941.815C355.191 942.081 353.615 940.152 353.253 936.512C352.897 932.932 354.082 930.949 356.517 930.687C359.102 930.408 360.595 932.406 360.98 935.983C361.34 939.32 360.271 941.533 357.656 941.815Z" fill="white"/>
<path d="M375.116 939.487C372.558 939.953 370.921 938.562 370.159 935.228L381.372 933.182C381.491 933.16 381.569 933.085 381.542 932.936C380.527 927.712 377.24 925.023 372.481 925.892C367.812 926.744 365.608 930.496 366.487 935.314C367.339 939.984 370.588 942.802 375.525 941.901C379.66 941.147 381.724 938.312 381.557 935.207C381.565 935.083 381.46 935.01 381.341 935.032L378.307 935.585C378.188 935.607 378.139 935.677 378.131 935.802C378.06 937.935 377.019 939.139 375.116 939.487ZM372.945 928.266C375.295 927.837 376.762 929.475 377.29 931.53L369.855 932.886C369.745 930.263 370.744 928.667 372.945 928.266Z" fill="white"/>
<path d="M393.329 927.915L386.944 929.551L385.547 923.855C385.517 923.738 385.406 923.672 385.289 923.702L382.126 924.513C382.009 924.543 381.944 924.654 381.974 924.771L383.879 931.96L385.735 939.443C385.765 939.56 385.875 939.626 385.992 939.596L389.155 938.785C389.272 938.755 389.338 938.645 389.308 938.527L387.59 932.07L393.975 930.433L395.604 936.913C395.634 937.03 395.745 937.096 395.862 937.066L399.025 936.255C399.142 936.225 399.207 936.115 399.177 935.997L397.204 928.544L395.416 921.325C395.386 921.208 395.276 921.142 395.159 921.172L391.996 921.983C391.879 922.013 391.813 922.124 391.843 922.241L393.329 927.915Z" fill="white"/>
<path d="M401.041 919.415L397.935 920.424C397.82 920.461 397.762 920.575 397.799 920.69L400.164 927.87L402.461 935.134C402.498 935.249 402.612 935.307 402.727 935.27L408.162 933.504C412.475 932.103 414.28 929.832 413.215 926.554C412.159 923.304 409.402 922.547 405.06 923.958L402.932 924.649L401.307 919.551C401.27 919.436 401.156 919.377 401.041 919.415ZM403.651 926.959L405.836 926.249C408.021 925.539 409.212 926.169 409.735 927.78C410.286 929.476 409.398 930.559 407.443 931.195L405.258 931.905L403.651 926.959Z" fill="white"/>
<path d="M420.174 913.085L423.207 919.876L426.239 926.965C426.287 927.075 426.407 927.122 426.517 927.074L429.51 925.766C429.62 925.718 429.667 925.599 429.619 925.488L426.477 918.447L424.483 913.809L430.245 911.291L432.295 915.905L435.326 922.994C435.374 923.105 435.494 923.152 435.605 923.103L438.597 921.796C438.707 921.748 438.754 921.628 438.706 921.517L435.564 914.477L432.641 907.637C432.593 907.527 432.473 907.48 432.363 907.528L420.283 912.806C420.173 912.854 420.126 912.974 420.174 913.085Z" fill="white"/>
<path d="M442.918 901.994C441.066 902.954 440.034 904.51 439.79 906.339L438.967 904.62C438.911 904.513 438.789 904.474 438.682 904.53L435.809 906.018C435.702 906.074 435.663 906.196 435.719 906.304L439.806 914.06L445.052 924.316C445.108 924.423 445.23 924.462 445.338 924.406L448.237 922.904C448.344 922.848 448.383 922.726 448.327 922.619L445.116 916.553C446.723 917.355 448.481 917.329 450.279 916.397C453.984 914.478 454.543 910.102 452.47 906.102C450.384 902.076 446.73 900.019 442.918 901.994ZM448.28 914.641C446.078 915.782 443.911 914.556 442.254 911.294C440.626 908.085 441.012 905.808 443.187 904.681C445.495 903.485 447.61 904.807 449.266 908.001C450.81 910.981 450.615 913.431 448.28 914.641Z" fill="white"/>
<path d="M465.109 908.199C469.325 905.647 469.988 901.429 467.451 897.239C464.899 893.023 460.886 891.707 456.67 894.259C452.48 896.795 451.792 901.029 454.344 905.245C456.896 909.461 460.919 910.736 465.109 908.199ZM463.841 906.104C461.565 907.482 459.441 906.542 457.499 903.335C455.573 900.154 455.652 897.773 457.938 896.354C460.188 894.992 462.349 896.051 464.275 899.232C466.217 902.439 466.117 904.726 463.841 906.104Z" fill="white"/>
<path d="M480.669 898.105C484.01 895.762 484.756 892.138 482.973 889.068C482.903 888.969 482.794 888.972 482.695 889.041L480.22 890.777C480.121 890.846 480.081 890.948 480.143 891.089C481.289 893.092 480.988 894.927 479.337 896.048C477.116 897.568 475.001 896.762 472.831 893.668C470.713 890.648 470.625 888.31 472.811 886.74C474.247 885.734 475.911 885.896 477.371 887.346C477.483 887.453 477.567 887.467 477.666 887.398L480.092 885.697C480.191 885.627 480.213 885.501 480.119 885.42C477.92 882.863 474.606 882.454 471.388 884.71C467.377 887.522 466.974 891.793 469.803 895.828C472.633 899.863 476.732 900.865 480.669 898.105Z" fill="white"/>
<path d="M476.621 881.834L477.972 883.541C478.047 883.636 478.174 883.65 478.269 883.575L482.229 880.442L485.385 884.383L490.122 890.466C490.197 890.561 490.324 890.576 490.419 890.501L492.98 888.475C493.075 888.4 493.089 888.272 493.014 888.177L488.183 882.169L485.074 878.191L489.033 875.058C489.128 874.983 489.143 874.856 489.068 874.761L487.717 873.054C487.642 872.959 487.515 872.944 487.42 873.019L476.656 881.536C476.561 881.611 476.546 881.739 476.621 881.834Z" fill="white"/>
<path d="M505.611 878.229C509.251 874.907 509.082 870.64 505.78 867.023C502.458 863.383 498.266 862.87 494.626 866.193C491.008 869.494 491.155 873.781 494.477 877.421C497.799 881.061 501.994 881.531 505.611 878.229ZM503.961 876.42C501.995 878.214 499.729 877.704 497.202 874.935C494.695 872.188 494.31 869.838 496.277 868.001C498.22 866.228 500.545 866.848 503.052 869.595C505.58 872.364 505.926 874.626 503.961 876.42Z" fill="white"/>
<path d="M519.956 851.011C520.906 849.232 520.923 847.602 519.51 846.37C517.528 844.641 515.146 845.533 512.543 848.518L508.112 853.599C508.032 853.69 508.041 853.818 508.132 853.898L513.777 858.74L519.548 863.853C519.639 863.933 519.767 863.924 519.846 863.833L524.317 858.706C525.927 856.86 528.239 853.381 525.345 850.857C523.796 849.506 522.121 849.449 519.979 851.031L519.956 851.011ZM514.326 850.153C515.359 848.968 516.533 848.588 517.49 849.423C518.493 850.297 518.293 851.446 517.24 852.654L515.034 855.183L512.14 852.66L514.326 850.153ZM516.811 856.733L519.017 854.204C520.11 852.951 521.528 852.382 522.713 853.416C523.898 854.449 523.627 855.817 522.435 857.184L520.249 859.691L516.811 856.733Z" fill="white"/>
<path d="M525.924 835.025C524.079 834.973 522.469 835.773 521.243 837.424C518.756 840.774 520.192 844.927 523.809 847.612C527.45 850.316 531.618 850.585 534.177 847.138C535.438 845.439 535.683 843.588 535.076 841.819L536.593 843.021C536.69 843.093 536.817 843.074 536.889 842.977L538.8 840.404C538.872 840.307 538.853 840.18 538.756 840.108L532.578 835.597L526.594 831.079C526.497 831.007 526.37 831.026 526.298 831.123L524.37 833.72C524.297 833.817 524.316 833.944 524.413 834.016L525.924 835.025ZM532.781 844.86C531.273 846.941 528.726 846.669 525.837 844.525C523.119 842.506 522.194 840.201 523.786 838.107C525.288 836.134 527.768 836.243 530.712 838.466C533.607 840.653 534.24 842.893 532.781 844.86Z" fill="white"/>
<path d="M548.175 835.549L549.769 832.945C549.832 832.842 549.802 832.717 549.741 832.644L536.083 816.097C536.011 815.982 535.877 815.971 535.798 816.1L534.093 818.885C534.03 818.988 534.034 819.097 534.122 819.186L541.633 827.646L530.35 825.349C530.231 825.311 530.132 825.357 530.069 825.46L528.159 828.581C528.08 828.71 528.11 828.834 528.271 828.862L544.658 831.624L547.89 835.552C547.962 835.667 548.096 835.678 548.175 835.549Z" fill="white"/>
<path d="M554.249 804.684L542.145 804.07C542.022 804.051 541.931 804.11 541.883 804.221L540.3 807.917C540.252 808.029 540.3 808.148 540.411 808.195L547.466 811.152L554.334 814.16C554.445 814.208 554.564 814.16 554.612 814.049L555.588 811.77C555.636 811.659 555.588 811.54 555.477 811.492L549.018 808.758L545.965 807.516L544.718 807.047L557.148 807.669C557.271 807.689 557.362 807.629 557.41 807.518L558.279 805.489C558.326 805.378 558.306 805.271 558.207 805.196L549.329 796.82L550.33 797.249L553.363 798.614L559.811 801.376C559.922 801.424 560.041 801.376 560.088 801.265L561.291 798.458C561.338 798.347 561.291 798.228 561.18 798.18L554.276 795.256L547.256 792.216C547.145 792.168 547.026 792.216 546.979 792.327L545.383 796.051C545.336 796.162 545.356 796.269 545.455 796.345L554.249 804.684Z" fill="white"/>
<path d="M556.55 782.211L554.642 788.52L549.046 786.764C548.93 786.729 548.817 786.79 548.782 786.905L547.837 790.031C547.802 790.146 547.862 790.26 547.978 790.295L555.115 792.39L562.477 794.679C562.592 794.714 562.705 794.654 562.74 794.538L563.686 791.413C563.721 791.297 563.66 791.184 563.544 791.149L557.131 789.272L559.039 782.964L565.426 784.927C565.542 784.962 565.655 784.901 565.69 784.786L566.635 781.66C566.67 781.544 566.609 781.431 566.494 781.396L559.097 779.222L551.995 777.012C551.879 776.977 551.766 777.037 551.731 777.153L550.786 780.278C550.751 780.394 550.812 780.507 550.927 780.542L556.55 782.211Z" fill="white"/>
<path d="M567.178 769.472C566.7 772.028 564.816 773.06 561.43 772.582L563.521 761.378C563.543 761.259 563.501 761.159 563.352 761.131C558.11 760.214 554.425 762.325 553.538 767.08C552.667 771.746 555.385 775.145 560.2 776.043C564.866 776.914 568.659 774.885 569.579 769.951C570.35 765.82 568.439 762.88 565.479 761.928C565.366 761.876 565.26 761.948 565.238 762.067L564.672 765.099C564.65 765.217 564.698 765.288 564.812 765.34C566.779 766.168 567.533 767.57 567.178 769.472ZM555.921 767.494C556.359 765.146 558.413 764.361 560.521 764.601L559.134 772.031C556.645 771.197 555.511 769.694 555.921 767.494Z" fill="white"/>
<path d="M572.419 742.267C572.483 737.34 569.254 734.546 564.357 734.483C559.429 734.418 556.189 737.128 556.125 742.055C556.061 746.953 559.29 749.777 564.217 749.841C569.145 749.905 572.356 747.165 572.419 742.267ZM569.971 742.236C569.936 744.896 568.014 746.201 564.265 746.152C560.547 746.104 558.569 744.778 558.573 742.087C558.608 739.457 560.65 738.184 564.368 738.232C568.117 738.281 570.005 739.575 569.971 742.236Z" fill="white"/>
<path d="M561.637 722.565L562.267 729.126L556.423 729.626C556.303 729.638 556.221 729.737 556.233 729.857L556.545 733.108C556.556 733.228 556.655 733.31 556.776 733.298L564.173 732.527L571.853 731.85C571.974 731.839 572.055 731.74 572.044 731.619L571.732 728.369C571.72 728.249 571.621 728.167 571.501 728.178L564.856 728.877L564.226 722.317L570.879 721.708C571 721.696 571.081 721.597 571.07 721.477L570.758 718.227C570.746 718.106 570.647 718.025 570.527 718.036L562.858 718.834L555.449 719.484C555.329 719.496 555.247 719.595 555.259 719.715L555.571 722.965C555.582 723.086 555.681 723.167 555.802 723.156L561.637 722.565Z" fill="white"/>
<path d="M554.734 706.096C553.469 707.439 552.995 709.174 553.412 711.187C554.259 715.272 558.315 716.963 562.726 716.048C567.167 715.127 570.14 712.195 569.268 707.991C568.839 705.919 567.619 704.504 565.894 703.781L567.801 703.448C567.92 703.423 567.99 703.316 567.966 703.198L567.315 700.06C567.29 699.941 567.183 699.871 567.065 699.895L559.587 701.508L552.233 702.971C552.115 702.995 552.044 703.103 552.069 703.221L552.726 706.389C552.75 706.507 552.858 706.578 552.976 706.553L554.734 706.096ZM566.638 707.518C567.19 710.028 565.293 711.749 561.77 712.479C558.454 713.167 556.118 712.324 555.613 709.742C555.14 707.308 556.87 705.529 560.488 704.81C564.047 704.103 566.141 705.12 566.638 707.518Z" fill="white"/>
<path d="M550.672 679.751L553.042 685.901L547.547 687.953C547.434 687.997 547.382 688.114 547.425 688.227L548.599 691.274C548.643 691.387 548.76 691.439 548.873 691.395L555.791 688.665L563.007 685.95C563.12 685.907 563.172 685.789 563.129 685.677L561.955 682.63C561.911 682.517 561.794 682.465 561.681 682.508L555.468 684.967L553.099 678.816L559.344 676.443C559.457 676.399 559.509 676.282 559.466 676.169L558.292 673.122C558.249 673.009 558.131 672.957 558.018 673.001L550.846 675.829L543.884 678.446C543.771 678.489 543.719 678.607 543.763 678.719L544.936 681.766C544.98 681.879 545.097 681.931 545.21 681.888L550.672 679.751Z" fill="white"/>
<path d="M538.895 669.107C539.809 670.982 541.34 672.052 543.162 672.341L541.424 673.121C541.315 673.174 541.273 673.295 541.326 673.404L542.744 676.312C542.797 676.42 542.918 676.462 543.027 676.409L550.881 672.513L561.262 667.519C561.371 667.466 561.412 667.345 561.359 667.236L559.929 664.301C559.876 664.193 559.754 664.151 559.646 664.204L553.503 667.266C554.344 665.678 554.362 663.921 553.474 662.1C551.646 658.35 547.285 657.684 543.236 659.658C539.159 661.645 537.014 665.248 538.895 669.107ZM551.669 664.056C552.756 666.285 551.477 668.422 548.175 669.998C544.928 671.547 542.661 671.105 541.588 668.904C540.448 666.567 541.821 664.485 545.055 662.908C548.072 661.437 550.517 661.692 551.669 664.056Z" fill="white"/>
<path d="M531.457 651.002C530.71 652.689 530.839 654.483 531.901 656.243C534.057 659.815 538.444 660.063 542.301 657.735C546.184 655.392 548.014 651.638 545.796 647.962C544.702 646.151 543.082 645.222 541.215 645.112L542.903 644.164C543.007 644.102 543.038 643.977 542.975 643.874L541.319 641.13C541.257 641.026 541.132 640.996 541.029 641.058L534.511 645.062L528.06 648.885C527.957 648.948 527.926 649.072 527.989 649.176L529.66 651.945C529.723 652.049 529.847 652.08 529.951 652.017L531.457 651.002ZM543.158 648.389C544.512 650.574 543.294 652.827 540.214 654.686C537.315 656.436 534.831 656.417 533.498 654.149C532.243 652.011 533.284 649.758 536.458 647.878C539.579 646.029 541.893 646.293 543.158 648.389Z" fill="white"/>
<path d="M526.546 634.425C525.044 633.08 523.465 632.676 521.932 633.755C519.782 635.27 520.082 637.796 522.362 641.034L526.245 646.546C526.314 646.644 526.441 646.666 526.54 646.597L532.585 642.264L538.923 637.874C539.022 637.804 539.044 637.678 538.974 637.579L535.057 632.018C533.647 630.016 530.816 626.943 527.677 629.154C525.997 630.338 525.543 631.952 526.571 634.408L526.546 634.425ZM524.374 639.69C523.469 638.405 523.379 637.174 524.417 636.443C525.505 635.677 526.573 636.144 527.496 637.454L529.429 640.198L526.29 642.409L524.374 639.69ZM531.357 638.84L529.424 636.096C528.467 634.737 528.252 633.224 529.537 632.319C530.822 631.413 532.087 632.002 533.132 633.485L535.047 636.204L531.357 638.84Z" fill="white"/>
<path d="M522.925 622.544L519.779 624.901L513.835 629.422C513.739 629.496 513.723 629.623 513.797 629.719L515.776 632.278C515.85 632.373 515.977 632.39 516.073 632.316L521.752 627.847L528.055 623.049C528.15 622.975 528.167 622.848 528.093 622.752L525.725 619.691C525.669 619.619 525.572 619.542 525.439 619.568L512.581 621.524L515.464 619.371L521.599 614.702C521.695 614.628 521.711 614.501 521.637 614.405L519.677 611.87C519.603 611.775 519.475 611.759 519.38 611.832L513.318 616.597L507.398 621.099C507.302 621.173 507.286 621.301 507.36 621.396L509.691 624.41C509.746 624.481 509.844 624.558 509.977 624.532L522.925 622.544Z" fill="white"/>
<path d="M505.916 619.066L507.725 617.855C507.825 617.787 507.85 617.662 507.783 617.561L504.973 613.366L509.151 610.531L515.591 606.292C515.691 606.224 515.716 606.098 515.649 605.998L513.832 603.285C513.765 603.184 513.639 603.16 513.538 603.227L507.166 607.567L502.954 610.352L500.145 606.157C500.077 606.056 499.952 606.031 499.851 606.098L498.042 607.31C497.942 607.377 497.917 607.503 497.984 607.603L505.622 619.008C505.69 619.108 505.815 619.133 505.916 619.066Z" fill="white"/>
<path d="M507.255 591.588C505.304 588.003 501.788 586.853 498.536 588.278C498.43 588.335 498.42 588.444 498.478 588.55L499.922 591.206C499.98 591.312 500.077 591.363 500.224 591.317C502.343 590.405 504.133 590.911 505.06 592.679C506.32 595.057 505.28 597.068 501.96 598.874C498.72 600.637 496.387 600.46 495.075 598.111C494.237 596.571 494.586 594.935 496.192 593.649C496.31 593.55 496.334 593.468 496.277 593.362L494.861 590.759C494.803 590.653 494.68 590.616 494.588 590.701C491.799 592.597 491.019 595.844 492.897 599.296C495.238 603.598 499.435 604.481 503.764 602.126C508.093 599.771 509.552 595.811 507.255 591.588Z" fill="white"/>
<path d="M486.304 584.552C488.001 588.758 490.33 590.329 493.386 589.096C495.741 588.146 496.668 586.403 496.414 583.995L503.087 585.183C503.233 585.222 503.311 585.092 503.255 584.952L502.033 581.924C501.999 581.84 501.926 581.739 501.791 581.728L498.5 581.328L495.563 580.915L494.466 578.196L499.496 576.199C499.608 576.154 499.658 576.036 499.613 575.924L498.392 572.896C498.346 572.783 498.228 572.733 498.116 572.779L490.989 575.719L484.069 578.445C483.957 578.49 483.907 578.608 483.952 578.72L486.304 584.552ZM492.183 579.084L493.292 581.831C494.027 583.654 493.632 585.019 492.062 585.653C490.632 586.229 489.328 585.582 488.581 583.731L487.484 581.012L492.183 579.084Z" fill="white"/>
<path d="M480.458 565.874L482.619 565.61C482.739 565.596 482.818 565.495 482.803 565.375L482.191 560.363L487.199 559.721L494.859 558.846C494.979 558.831 495.058 558.73 495.044 558.61L494.648 555.369C494.633 555.249 494.532 555.17 494.412 555.185L486.767 556.18L481.751 556.762L481.139 551.75C481.125 551.63 481.023 551.551 480.903 551.565L478.743 551.829C478.623 551.844 478.544 551.945 478.558 552.065L480.222 565.69C480.237 565.81 480.338 565.889 480.458 565.874Z" fill="white"/>
<path d="M481.452 538.16C479.836 539.051 478.854 540.558 478.636 542.602C478.192 546.751 481.536 549.601 486.015 550.08C490.525 550.562 494.253 548.68 494.709 544.411C494.934 542.307 494.206 540.587 492.785 539.371L494.703 539.637C494.823 539.65 494.923 539.569 494.936 539.449L495.276 536.262C495.289 536.142 495.208 536.042 495.088 536.029L487.476 535.277L480.027 534.42C479.907 534.407 479.807 534.487 479.794 534.608L479.45 537.824C479.437 537.945 479.518 538.044 479.638 538.057L481.452 538.16ZM492.35 543.156C492.107 545.714 489.774 546.772 486.197 546.39C482.83 546.03 480.864 544.513 481.173 541.9C481.467 539.438 483.659 538.274 487.323 538.696C490.928 539.112 492.61 540.721 492.35 543.156Z" fill="white"/>
<path d="M484.392 520.458L488.511 526.058L487.73 528.122L482.351 526.021C482.238 525.978 482.121 526.031 482.078 526.144L480.922 529.198C480.879 529.311 480.932 529.428 481.045 529.471L488.022 532.047L495.211 534.832C495.325 534.875 495.441 534.823 495.484 534.709L496.64 531.656C496.683 531.543 496.63 531.426 496.517 531.383L490.162 529.042L490.954 526.95L495.712 526.164L498.714 525.749C498.849 525.735 498.92 525.633 498.952 525.548L500.279 522.042C500.332 521.9 500.251 521.773 500.106 521.815L490.168 523.646L485.757 517.192C485.648 517.054 485.513 517.068 485.46 517.209L484.336 520.178C484.304 520.263 484.3 520.358 484.392 520.458Z" fill="white"/>
<path d="M494.972 505.379C493.127 505.41 491.553 506.281 490.403 507.984C488.067 511.441 489.685 515.527 493.418 518.049C497.176 520.587 501.351 520.672 503.755 517.114C504.939 515.361 505.102 513.5 504.416 511.76L505.986 512.894C506.086 512.961 506.212 512.937 506.28 512.837L508.074 510.181C508.142 510.081 508.117 509.955 508.017 509.887L501.645 505.655L495.466 501.408C495.366 501.34 495.24 501.364 495.172 501.465L493.361 504.145C493.293 504.245 493.318 504.371 493.418 504.439L494.972 505.379ZM502.259 514.9C500.845 517.046 498.289 516.888 495.307 514.874C492.502 512.978 491.476 510.716 492.973 508.554C494.386 506.516 496.868 506.515 499.908 508.605C502.897 510.661 503.63 512.871 502.259 514.9Z" fill="white"/>
<path d="M503.371 492.463C500.159 495.664 499.62 498.421 501.946 500.755C503.739 502.554 505.705 502.728 507.824 501.556L509.331 508.164C509.352 508.314 509.501 508.336 509.608 508.229L511.921 505.924C511.985 505.86 512.05 505.753 512.007 505.625L511.093 502.438L510.328 499.572L512.405 497.502L516.204 501.356C516.29 501.442 516.418 501.442 516.504 501.356L518.816 499.051C518.902 498.966 518.902 498.838 518.817 498.752L513.332 493.334L508.124 488.024C508.039 487.938 507.91 487.938 507.825 488.023L503.371 492.463ZM510.698 495.746L508.599 497.837C507.208 499.225 505.796 499.393 504.601 498.194C503.513 497.102 503.601 495.648 505.014 494.24L507.091 492.169L510.698 495.746Z" fill="white"/>
<path d="M525.713 474.802L525.793 481.754L523.954 482.975L520.81 478.131C520.743 478.03 520.618 478.005 520.517 478.071L517.797 479.878C517.696 479.945 517.671 480.07 517.737 480.171L521.902 486.333L526.117 492.789C526.183 492.89 526.309 492.916 526.41 492.849L529.13 491.042C529.231 490.976 529.256 490.85 529.189 490.749L525.393 485.141L527.256 483.903L531.579 486.041L534.26 487.454C534.377 487.522 534.495 487.48 534.57 487.43L537.693 485.356C537.819 485.272 537.828 485.121 537.686 485.071L528.545 480.761L528.727 472.946C528.719 472.77 528.602 472.703 528.476 472.786L525.831 474.543C525.756 474.593 525.697 474.668 525.713 474.802Z" fill="white"/>
<path d="M543.155 464.613L533.332 469.9C533.225 469.958 533.174 470.054 533.245 470.187C534.713 473.105 536.674 477.131 537.533 479.175C538.493 481.405 538.397 482.247 537.332 482.82C537.146 482.92 536.945 482.994 536.797 483.039C536.65 483.084 536.599 483.18 536.67 483.313L537.63 485.097C537.688 485.204 537.784 485.255 537.878 485.238C538.228 485.187 538.671 485.052 539.23 484.751C541.945 483.29 541.704 481.119 540.435 478.06C539.676 476.202 538.118 472.989 537.093 470.829L541.326 468.551L543.887 473.181L547.426 479.757C547.483 479.863 547.606 479.9 547.712 479.843L550.614 478.281C550.721 478.224 550.757 478.101 550.7 477.995L547.081 471.462L543.442 464.699C543.385 464.593 543.262 464.556 543.155 464.613Z" fill="white"/>
<path d="M550.285 455.662L547.849 456.732C547.739 456.781 547.692 456.9 547.741 457.011L548.969 459.807C549.018 459.917 549.137 459.964 549.248 459.915L551.684 458.845C551.794 458.796 551.841 458.677 551.792 458.566L550.564 455.77C550.515 455.66 550.396 455.613 550.285 455.662ZM555.378 453.424L552.942 454.494C552.832 454.543 552.785 454.663 552.834 454.773L554.062 457.569C554.111 457.68 554.23 457.726 554.341 457.678L556.777 456.607C556.887 456.559 556.934 456.439 556.885 456.329L555.657 453.533C555.609 453.422 555.489 453.376 555.378 453.424ZM559.219 472.013C556.838 473.059 554.924 472.083 553.411 469.016L563.847 464.432C563.957 464.383 564.016 464.291 563.955 464.153C561.76 459.306 557.94 457.45 553.511 459.396C549.165 461.305 547.889 465.466 549.859 469.95C551.768 474.296 555.581 476.286 560.176 474.267C564.024 472.577 565.376 469.341 564.495 466.359C564.474 466.236 564.355 466.19 564.244 466.239L561.421 467.479C561.31 467.528 561.279 467.607 561.3 467.73C561.724 469.823 560.99 471.235 559.219 472.013ZM554.511 461.598C556.698 460.638 558.504 461.892 559.494 463.769L552.574 466.809C551.86 464.282 552.463 462.498 554.511 461.598Z" fill="white"/>
<path d="M574.262 459.245C575.948 458.138 576.744 456.716 576.094 454.958C575.182 452.49 572.664 452.132 568.949 453.505L562.625 455.842C562.512 455.884 562.458 456 562.5 456.114L565.135 463.069L567.751 470.321C567.793 470.435 567.909 470.488 568.023 470.447L574.404 468.088C576.701 467.239 580.397 465.293 579.066 461.691C578.353 459.763 576.91 458.91 574.272 459.273L574.262 459.245ZM569.731 455.794C571.206 455.249 572.418 455.478 572.859 456.669C573.32 457.917 572.593 458.83 571.09 459.385L567.943 460.549L566.612 456.947L569.731 455.794ZM568.76 462.761L571.908 461.597C573.468 461.021 574.985 461.201 575.53 462.676C576.075 464.151 575.182 465.222 573.48 465.851L570.361 467.004L568.76 462.761Z" fill="white"/>
<path d="M589.451 448.743C587.993 447.612 586.221 447.305 584.257 447.913C580.272 449.146 578.975 453.345 580.307 457.649C581.647 461.981 584.85 464.661 588.951 463.392C590.973 462.767 592.265 461.418 592.82 459.632L593.334 461.498C593.37 461.614 593.483 461.674 593.599 461.638L596.66 460.691C596.776 460.655 596.836 460.541 596.8 460.426L594.482 453.136L592.323 445.956C592.287 445.84 592.174 445.78 592.058 445.816L588.968 446.772C588.852 446.808 588.793 446.921 588.828 447.037L589.451 448.743ZM589.172 460.729C586.726 461.517 584.831 459.793 583.768 456.356C582.767 453.121 583.384 450.715 585.905 449.967C588.283 449.263 590.219 450.816 591.28 454.348C592.324 457.823 591.511 460.005 589.172 460.729Z" fill="white"/>
<path d="M601.527 443.227C597.139 444.374 595.284 446.484 596.118 449.672C596.76 452.129 598.371 453.271 600.791 453.325L598.763 459.793C598.706 459.933 598.824 460.027 598.97 459.989L602.13 459.163C602.217 459.14 602.327 459.08 602.355 458.948L603.171 455.735L603.954 452.874L606.792 452.132L608.131 457.376C608.162 457.493 608.272 457.557 608.389 457.527L611.548 456.701C611.665 456.671 611.73 456.56 611.7 456.443L609.692 448.999L607.869 441.788C607.839 441.671 607.728 441.606 607.611 441.637L601.527 443.227ZM606.202 449.755L603.335 450.504C601.434 451.001 600.13 450.436 599.702 448.798C599.312 447.306 600.12 446.095 602.051 445.59L604.888 444.849L606.202 449.755Z" fill="white"/>
<path d="M634.141 435.941L623.338 438.039C623.219 438.062 623.142 438.139 623.17 438.287C623.75 441.748 624.212 445.076 624.344 447.022C624.452 448.849 624.296 450.265 623.65 451.222L622.612 451.424C622.493 451.447 622.421 451.553 622.444 451.672L623.568 457.459C623.592 457.578 623.698 457.65 623.817 457.627L626.577 457.091C626.695 457.068 626.767 456.961 626.744 456.842L626.159 453.353L636.249 451.393L637.013 454.848C637.036 454.966 637.142 455.038 637.261 455.015L639.991 454.485C640.11 454.462 640.182 454.355 640.159 454.237L639.035 448.449C639.012 448.33 638.905 448.259 638.786 448.282L636.976 448.633L635.802 443.225L634.389 436.108C634.366 435.989 634.26 435.918 634.141 435.941ZM633.415 449.325L627.034 450.565C627.372 449.452 627.533 448.22 627.395 446.399C627.279 444.85 626.949 442.358 626.618 440.02L631.366 439.098L632.354 443.864L633.415 449.325Z" fill="white"/>
<path d="M649.136 447.105C646.566 447.499 644.969 446.061 644.302 442.707L655.568 440.98C655.688 440.962 655.769 440.889 655.746 440.739C654.88 435.489 651.67 432.708 646.889 433.441C642.197 434.16 639.887 437.848 640.629 442.689C641.348 447.381 644.516 450.29 649.477 449.53C653.631 448.893 655.775 446.118 655.696 443.01C655.708 442.886 655.604 442.81 655.485 442.829L652.436 443.296C652.317 443.314 652.266 443.383 652.255 443.507C652.122 445.638 651.048 446.812 649.136 447.105ZM647.285 435.827C649.646 435.465 651.065 437.144 651.535 439.213L644.064 440.358C644.029 437.733 645.074 436.166 647.285 435.827Z" fill="white"/>
<path d="M667.382 438.364C669.281 437.687 670.39 436.492 670.174 434.63C669.87 432.018 667.508 431.075 663.574 431.533L656.877 432.312C656.757 432.326 656.677 432.426 656.691 432.546L657.611 439.927L658.441 447.592C658.455 447.712 658.556 447.792 658.676 447.778L665.433 446.992C667.865 446.709 671.917 445.69 671.473 441.876C671.236 439.833 670.034 438.664 667.385 438.394L667.382 438.364ZM663.793 433.942C665.355 433.76 666.479 434.269 666.626 435.53C666.78 436.851 665.859 437.567 664.267 437.753L660.933 438.14L660.49 434.326L663.793 433.942ZM661.206 440.483L664.539 440.095C666.191 439.903 667.623 440.436 667.804 441.998C667.986 443.56 666.865 444.39 665.063 444.6L661.76 444.984L661.206 440.483Z" fill="white"/>
<path d="M681.608 445.773C686.522 445.402 689.02 441.939 688.651 437.055C688.28 432.141 685.296 429.152 680.381 429.523C675.498 429.892 672.97 433.357 673.341 438.271C673.712 443.185 676.724 446.141 681.608 445.773ZM681.424 443.331C678.771 443.531 677.301 441.732 677.019 437.994C676.739 434.285 677.885 432.198 680.566 431.965C683.189 431.767 684.638 433.689 684.918 437.397C685.2 441.136 684.077 443.13 681.424 443.331Z" fill="white"/>
<path d="M699.24 435.623C698.218 435.862 697.192 435.979 696.195 436.005C693.747 436.069 693.172 434.905 693.122 433L693.026 429.313C693.023 429.192 692.93 429.104 692.809 429.107L689.545 429.192C689.424 429.196 689.336 429.289 689.339 429.409L689.465 433.096C689.556 436.572 690.731 438.718 695.325 438.599C696.655 438.564 698.04 438.346 699.304 438.071L699.436 444.298C699.439 444.419 699.532 444.507 699.653 444.504L702.917 444.419C703.038 444.416 703.126 444.323 703.123 444.202L702.861 436.497L702.728 429.06C702.725 428.939 702.632 428.851 702.511 428.854L699.247 428.939C699.126 428.942 699.037 429.035 699.041 429.156L699.24 435.623Z" fill="white"/>
</svg>
