<svg width="1007" height="866" viewBox="0 0 1007 866" fill="none" xmlns="http://www.w3.org/2000/svg">
<rect x="123.602" y="124.613" width="785.075" height="619.754" rx="40.0642" transform="rotate(-0.638537 123.602 124.613)" fill="#F08603"/>
<mask id="path-2-outside-1_432_74" maskUnits="userSpaceOnUse" x="45.8715" y="568.754" width="598.705" height="307.628" fill="black">
<rect fill="white" x="45.8715" y="568.754" width="598.705" height="307.628"/>
<path d="M125.576 691.277L113.528 710.177L106.59 709.952L107.282 690.823C107.291 690.543 107.088 690.326 106.807 690.317L99.1692 690.069C98.8889 690.06 98.6719 690.263 98.6628 690.543L98.0334 714.233L97.101 738.615C97.0919 738.895 97.2953 739.113 97.5756 739.122L105.214 739.37C105.494 739.379 105.711 739.175 105.72 738.895L106.381 716.399L113.251 716.552L121.672 731.557L126.108 739.698C126.239 739.983 126.517 740.062 126.727 740.069L135.907 740.367C136.257 740.378 136.477 740.105 136.275 739.818L120.32 712.713L134.679 691.784C134.899 691.51 134.697 691.223 134.347 691.212L126.218 690.948C126.008 690.941 125.726 691.002 125.576 691.277Z"/>
<path d="M162.815 709.814C160.476 706.231 156.824 704.218 152.059 704.063C142.388 703.749 136.369 711.971 136.03 722.413C135.688 732.924 140.68 741.224 150.631 741.547C155.536 741.706 159.388 739.727 161.957 736.233L161.671 740.713C161.662 740.993 161.865 741.21 162.146 741.219L169.574 741.461C169.854 741.47 170.071 741.266 170.08 740.986L170.516 723.253L171.221 705.878C171.23 705.598 171.027 705.381 170.746 705.372L163.248 705.128C162.968 705.119 162.751 705.323 162.742 705.603L162.815 709.814ZM153.13 735.876C147.171 735.752 144.324 730.539 144.595 722.2C144.85 714.351 148.023 709.544 154.117 709.812C159.861 710.069 162.929 714.939 162.582 723.486C162.238 731.893 158.806 736.06 153.13 735.876Z"/>
<path d="M192.423 743.045C201.883 743.352 208.311 737.669 209.279 729.492C209.288 729.212 209.082 729.065 208.802 729.056L201.794 728.828C201.514 728.819 201.299 728.953 201.218 729.301C200.554 734.611 197.441 737.596 192.818 737.376C186.584 737.103 183.781 732.663 184.066 723.903C184.344 715.354 187.435 710.895 193.674 711.027C197.738 711.159 200.6 713.778 201.288 718.5C201.347 718.853 201.482 718.997 201.763 719.006L208.63 719.23C208.91 719.239 209.127 719.035 209.066 718.753C208.548 710.949 202.97 705.577 193.861 705.281C182.508 704.912 175.816 712.271 175.445 723.693C175.073 735.116 181.281 742.683 192.423 743.045Z"/>
<path d="M211.659 707.192L211.495 712.238C211.486 712.518 211.69 712.735 211.97 712.744L223.673 713.124L223.362 724.829L222.642 742.694C222.633 742.974 222.836 743.191 223.116 743.2L230.684 743.446C230.965 743.455 231.182 743.252 231.191 742.972L231.631 725.098L232.082 713.397L243.784 713.778C244.064 713.787 244.282 713.583 244.291 713.303L244.455 708.258C244.464 707.977 244.26 707.76 243.98 707.751L212.166 706.718C211.885 706.708 211.668 706.912 211.659 707.192Z"/>
<path d="M262.361 745.317C273.784 745.688 280.406 738.327 280.775 726.975C281.146 715.553 275.011 707.918 263.588 707.546C252.236 707.178 245.543 714.536 245.172 725.959C244.801 737.381 251.009 744.948 262.361 745.317ZM262.546 739.641C256.379 739.441 253.439 734.926 253.722 726.236C254.002 717.617 257.165 713.09 263.404 713.223C269.501 713.421 272.361 718.214 272.081 726.833C271.799 735.522 268.712 739.841 262.546 739.641Z"/>
<path d="M305.328 736.541L296.444 709.877C296.383 709.594 296.177 709.447 295.897 709.438L286.577 709.135C286.296 709.126 286.079 709.329 286.07 709.61L285.634 727.343L284.929 744.717C284.92 744.998 285.124 745.215 285.404 745.224L291.15 745.411C291.431 745.42 291.648 745.216 291.657 744.936L292.115 728.676L292.223 721.033L292.183 717.946L301.325 745.32C301.386 745.603 301.592 745.75 301.872 745.759L306.987 745.925C307.268 745.934 307.482 745.801 307.562 745.523L318.165 719.281L318.083 721.803L317.692 729.507L317.164 745.765C317.155 746.045 317.358 746.262 317.639 746.271L324.716 746.501C324.997 746.51 325.214 746.307 325.223 746.027L325.717 728.646L326.363 710.919C326.373 710.638 326.169 710.421 325.889 710.412L316.499 710.107C316.218 710.098 316.004 710.231 315.925 710.509L305.328 736.541Z"/>
<path d="M339.326 737.786L339.763 728.681L340.465 711.377C340.474 711.097 340.271 710.88 339.99 710.87L332.492 710.627C332.212 710.618 331.995 710.821 331.986 711.101L331.582 727.854L330.845 746.209C330.836 746.489 331.04 746.707 331.32 746.716L340.29 747.007C340.5 747.014 340.782 746.953 340.932 746.677L356.433 720.805L356.022 729.139L355.302 747.004C355.293 747.284 355.496 747.501 355.776 747.51L363.204 747.752C363.485 747.761 363.702 747.557 363.711 747.277L364.151 729.403L364.851 712.169C364.86 711.889 364.657 711.672 364.377 711.663L355.547 711.376C355.337 711.369 355.054 711.43 354.905 711.706L339.326 737.786Z"/>
<path d="M392.684 737.976C392.561 741.761 389.482 743.695 384.927 743.547C379.882 743.383 376.941 741.043 376.888 736.201C376.9 735.85 376.694 735.703 376.414 735.694L369.266 735.462C368.986 735.453 368.771 735.586 368.759 735.936C368.696 744.352 374.584 748.823 384.605 749.148C392.804 749.415 400.963 746.593 401.22 738.675C401.372 733.98 398.945 730.954 393.032 729.43L393.034 729.359C397.411 728.52 400.572 726.237 400.717 721.752C400.92 715.516 395.215 711.893 386.456 711.608C377.486 711.317 371.056 714.896 370.32 722.448C370.311 722.729 370.514 722.946 370.795 722.955L377.662 723.178C377.942 723.187 378.157 723.054 378.239 722.706C378.777 719.075 381.579 717.062 386.063 717.208C389.988 717.335 392.377 719.377 392.281 722.32C392.176 725.543 389.809 727.15 385.815 727.02L381.19 726.87C380.91 726.861 380.692 727.064 380.683 727.345L380.54 731.759C380.531 732.04 380.734 732.257 381.015 732.266L385.639 732.416C389.774 732.551 392.809 734.122 392.684 737.976Z"/>
<path d="M413.845 740.207L414.281 731.102L414.983 713.798C414.992 713.518 414.789 713.3 414.509 713.291L407.011 713.048C406.73 713.039 406.513 713.242 406.504 713.522L406.1 730.275L405.363 748.63C405.354 748.91 405.558 749.128 405.838 749.137L414.808 749.428C415.018 749.435 415.301 749.374 415.45 749.098L430.952 723.226L430.54 731.56L429.82 749.425C429.811 749.705 430.014 749.922 430.294 749.931L437.722 750.173C438.003 750.182 438.22 749.978 438.229 749.698L438.669 731.824L439.369 714.59C439.379 714.31 439.175 714.093 438.895 714.084L430.065 713.797C429.855 713.79 429.573 713.851 429.423 714.127L413.845 740.207Z"/>
<path d="M464.41 714.211C459.575 714.054 455.723 716.033 453.156 719.457L453.44 715.047C453.449 714.767 453.246 714.55 452.965 714.541L445.467 714.297C445.187 714.288 444.97 714.491 444.961 714.772L444.441 735.098L443.433 761.792C443.424 762.073 443.627 762.29 443.908 762.299L451.476 762.545C451.756 762.554 451.973 762.35 451.982 762.07L452.359 746.158C454.702 749.602 458.287 751.542 462.982 751.695C472.652 752.009 478.742 743.789 479.081 733.348C479.423 722.836 474.361 714.534 464.41 714.211ZM460.926 745.876C455.18 745.689 452.184 740.751 452.529 732.274C452.87 723.938 456.233 719.768 461.909 719.952C467.935 720.148 470.717 725.219 470.446 733.558C470.193 741.336 467.023 746.074 460.926 745.876Z"/>
<path d="M489.468 763.779L496.546 764.009C496.826 764.018 497.043 763.815 497.12 763.607L514.835 717.112C514.984 716.836 514.853 716.551 514.503 716.54L506.935 716.294C506.655 716.285 506.44 716.418 506.361 716.696L497.907 741.535L489.613 716.152C489.552 715.87 489.346 715.723 489.066 715.714L480.586 715.438C480.236 715.427 480.019 715.63 480.148 715.985L493.352 752.19L489.136 763.207C488.987 763.483 489.118 763.768 489.468 763.779Z"/>
<path d="M532.635 748.416C526.609 748.22 523.581 744.263 523.487 736.333L549.906 737.192C550.186 737.201 550.401 737.068 550.412 736.717C550.673 724.379 544.54 716.674 533.327 716.31C522.326 715.952 515.49 723.377 515.122 734.729C514.764 745.731 520.748 753.712 532.381 754.09C542.121 754.406 548.19 748.991 549.333 741.873C549.412 741.595 549.209 741.378 548.928 741.369L541.781 741.137C541.5 741.128 541.356 741.263 541.276 741.541C540.068 746.342 537.12 748.561 532.635 748.416ZM533.215 721.918C538.751 722.098 541.273 726.529 541.464 731.446L523.945 730.877C524.982 724.878 528.03 721.75 533.215 721.918Z"/>
<path d="M574.935 745.301L566.051 718.636C565.99 718.353 565.784 718.206 565.504 718.197L556.184 717.894C555.903 717.885 555.686 718.088 555.677 718.369L555.241 736.102L554.537 753.477C554.527 753.757 554.731 753.974 555.011 753.983L560.757 754.17C561.038 754.179 561.255 753.975 561.264 753.695L561.722 737.435L561.83 729.793L561.79 726.705L570.932 754.079C570.993 754.362 571.199 754.509 571.479 754.518L576.594 754.684C576.875 754.693 577.089 754.56 577.169 754.282L587.772 728.04L587.69 730.563L587.299 738.266L586.771 754.524C586.762 754.804 586.966 755.021 587.246 755.03L594.324 755.26C594.604 755.269 594.821 755.066 594.83 754.786L595.325 737.405L595.971 719.678C595.98 719.398 595.776 719.181 595.496 719.171L586.106 718.866C585.826 718.857 585.611 718.991 585.532 719.269L574.935 745.301Z"/>
</mask>
<path d="M125.576 691.277L113.528 710.177L106.59 709.952L107.282 690.823C107.291 690.543 107.088 690.326 106.807 690.317L99.1692 690.069C98.8889 690.06 98.6719 690.263 98.6628 690.543L98.0334 714.233L97.101 738.615C97.0919 738.895 97.2953 739.113 97.5756 739.122L105.214 739.37C105.494 739.379 105.711 739.175 105.72 738.895L106.381 716.399L113.251 716.552L121.672 731.557L126.108 739.698C126.239 739.983 126.517 740.062 126.727 740.069L135.907 740.367C136.257 740.378 136.477 740.105 136.275 739.818L120.32 712.713L134.679 691.784C134.899 691.51 134.697 691.223 134.347 691.212L126.218 690.948C126.008 690.941 125.726 691.002 125.576 691.277Z" fill="white"/>
<path d="M162.815 709.814C160.476 706.231 156.824 704.218 152.059 704.063C142.388 703.749 136.369 711.971 136.03 722.413C135.688 732.924 140.68 741.224 150.631 741.547C155.536 741.706 159.388 739.727 161.957 736.233L161.671 740.713C161.662 740.993 161.865 741.21 162.146 741.219L169.574 741.461C169.854 741.47 170.071 741.266 170.08 740.986L170.516 723.253L171.221 705.878C171.23 705.598 171.027 705.381 170.746 705.372L163.248 705.128C162.968 705.119 162.751 705.323 162.742 705.603L162.815 709.814ZM153.13 735.876C147.171 735.752 144.324 730.539 144.595 722.2C144.85 714.351 148.023 709.544 154.117 709.812C159.861 710.069 162.929 714.939 162.582 723.486C162.238 731.893 158.806 736.06 153.13 735.876Z" fill="white"/>
<path d="M192.423 743.045C201.883 743.352 208.311 737.669 209.279 729.492C209.288 729.212 209.082 729.065 208.802 729.056L201.794 728.828C201.514 728.819 201.299 728.953 201.218 729.301C200.554 734.611 197.441 737.596 192.818 737.376C186.584 737.103 183.781 732.663 184.066 723.903C184.344 715.354 187.435 710.895 193.674 711.027C197.738 711.159 200.6 713.778 201.288 718.5C201.347 718.853 201.482 718.997 201.763 719.006L208.63 719.23C208.91 719.239 209.127 719.035 209.066 718.753C208.548 710.949 202.97 705.577 193.861 705.281C182.508 704.912 175.816 712.271 175.445 723.693C175.073 735.116 181.281 742.683 192.423 743.045Z" fill="white"/>
<path d="M211.659 707.192L211.495 712.238C211.486 712.518 211.69 712.735 211.97 712.744L223.673 713.124L223.362 724.829L222.642 742.694C222.633 742.974 222.836 743.191 223.116 743.2L230.684 743.446C230.965 743.455 231.182 743.252 231.191 742.972L231.631 725.098L232.082 713.397L243.784 713.778C244.064 713.787 244.282 713.583 244.291 713.303L244.455 708.258C244.464 707.977 244.26 707.76 243.98 707.751L212.166 706.718C211.885 706.708 211.668 706.912 211.659 707.192Z" fill="white"/>
<path d="M262.361 745.317C273.784 745.688 280.406 738.327 280.775 726.975C281.146 715.553 275.011 707.918 263.588 707.546C252.236 707.178 245.543 714.536 245.172 725.959C244.801 737.381 251.009 744.948 262.361 745.317ZM262.546 739.641C256.379 739.441 253.439 734.926 253.722 726.236C254.002 717.617 257.165 713.09 263.404 713.223C269.501 713.421 272.361 718.214 272.081 726.833C271.799 735.522 268.712 739.841 262.546 739.641Z" fill="white"/>
<path d="M305.328 736.541L296.444 709.877C296.383 709.594 296.177 709.447 295.897 709.438L286.577 709.135C286.296 709.126 286.079 709.329 286.07 709.61L285.634 727.343L284.929 744.717C284.92 744.998 285.124 745.215 285.404 745.224L291.15 745.411C291.431 745.42 291.648 745.216 291.657 744.936L292.115 728.676L292.223 721.033L292.183 717.946L301.325 745.32C301.386 745.603 301.592 745.75 301.872 745.759L306.987 745.925C307.268 745.934 307.482 745.801 307.562 745.523L318.165 719.281L318.083 721.803L317.692 729.507L317.164 745.765C317.155 746.045 317.358 746.262 317.639 746.271L324.716 746.501C324.997 746.51 325.214 746.307 325.223 746.027L325.717 728.646L326.363 710.919C326.373 710.638 326.169 710.421 325.889 710.412L316.499 710.107C316.218 710.098 316.004 710.231 315.925 710.509L305.328 736.541Z" fill="white"/>
<path d="M339.326 737.786L339.763 728.681L340.465 711.377C340.474 711.097 340.271 710.88 339.99 710.87L332.492 710.627C332.212 710.618 331.995 710.821 331.986 711.101L331.582 727.854L330.845 746.209C330.836 746.489 331.04 746.707 331.32 746.716L340.29 747.007C340.5 747.014 340.782 746.953 340.932 746.677L356.433 720.805L356.022 729.139L355.302 747.004C355.293 747.284 355.496 747.501 355.776 747.51L363.204 747.752C363.485 747.761 363.702 747.557 363.711 747.277L364.151 729.403L364.851 712.169C364.86 711.889 364.657 711.672 364.377 711.663L355.547 711.376C355.337 711.369 355.054 711.43 354.905 711.706L339.326 737.786Z" fill="white"/>
<path d="M392.684 737.976C392.561 741.761 389.482 743.695 384.927 743.547C379.882 743.383 376.941 741.043 376.888 736.201C376.9 735.85 376.694 735.703 376.414 735.694L369.266 735.462C368.986 735.453 368.771 735.586 368.759 735.936C368.696 744.352 374.584 748.823 384.605 749.148C392.804 749.415 400.963 746.593 401.22 738.675C401.372 733.98 398.945 730.954 393.032 729.43L393.034 729.359C397.411 728.52 400.572 726.237 400.717 721.752C400.92 715.516 395.215 711.893 386.456 711.608C377.486 711.317 371.056 714.896 370.32 722.448C370.311 722.729 370.514 722.946 370.795 722.955L377.662 723.178C377.942 723.187 378.157 723.054 378.239 722.706C378.777 719.075 381.579 717.062 386.063 717.208C389.988 717.335 392.377 719.377 392.281 722.32C392.176 725.543 389.809 727.15 385.815 727.02L381.19 726.87C380.91 726.861 380.692 727.064 380.683 727.345L380.54 731.759C380.531 732.04 380.734 732.257 381.015 732.266L385.639 732.416C389.774 732.551 392.809 734.122 392.684 737.976Z" fill="white"/>
<path d="M413.845 740.207L414.281 731.102L414.983 713.798C414.992 713.518 414.789 713.3 414.509 713.291L407.011 713.048C406.73 713.039 406.513 713.242 406.504 713.522L406.1 730.275L405.363 748.63C405.354 748.91 405.558 749.128 405.838 749.137L414.808 749.428C415.018 749.435 415.301 749.374 415.45 749.098L430.952 723.226L430.54 731.56L429.82 749.425C429.811 749.705 430.014 749.922 430.294 749.931L437.722 750.173C438.003 750.182 438.22 749.978 438.229 749.698L438.669 731.824L439.369 714.59C439.379 714.31 439.175 714.093 438.895 714.084L430.065 713.797C429.855 713.79 429.573 713.851 429.423 714.127L413.845 740.207Z" fill="white"/>
<path d="M464.41 714.211C459.575 714.054 455.723 716.033 453.156 719.457L453.44 715.047C453.449 714.767 453.246 714.55 452.965 714.541L445.467 714.297C445.187 714.288 444.97 714.491 444.961 714.772L444.441 735.098L443.433 761.792C443.424 762.073 443.627 762.29 443.908 762.299L451.476 762.545C451.756 762.554 451.973 762.35 451.982 762.07L452.359 746.158C454.702 749.602 458.287 751.542 462.982 751.695C472.652 752.009 478.742 743.789 479.081 733.348C479.423 722.836 474.361 714.534 464.41 714.211ZM460.926 745.876C455.18 745.689 452.184 740.751 452.529 732.274C452.87 723.938 456.233 719.768 461.909 719.952C467.935 720.148 470.717 725.219 470.446 733.558C470.193 741.336 467.023 746.074 460.926 745.876Z" fill="white"/>
<path d="M489.468 763.779L496.546 764.009C496.826 764.018 497.043 763.815 497.12 763.607L514.835 717.112C514.984 716.836 514.853 716.551 514.503 716.54L506.935 716.294C506.655 716.285 506.44 716.418 506.361 716.696L497.907 741.535L489.613 716.152C489.552 715.87 489.346 715.723 489.066 715.714L480.586 715.438C480.236 715.427 480.019 715.63 480.148 715.985L493.352 752.19L489.136 763.207C488.987 763.483 489.118 763.768 489.468 763.779Z" fill="white"/>
<path d="M532.635 748.416C526.609 748.22 523.581 744.263 523.487 736.333L549.906 737.192C550.186 737.201 550.401 737.068 550.412 736.717C550.673 724.379 544.54 716.674 533.327 716.31C522.326 715.952 515.49 723.377 515.122 734.729C514.764 745.731 520.748 753.712 532.381 754.09C542.121 754.406 548.19 748.991 549.333 741.873C549.412 741.595 549.209 741.378 548.928 741.369L541.781 741.137C541.5 741.128 541.356 741.263 541.276 741.541C540.068 746.342 537.12 748.561 532.635 748.416ZM533.215 721.918C538.751 722.098 541.273 726.529 541.464 731.446L523.945 730.877C524.982 724.878 528.03 721.75 533.215 721.918Z" fill="white"/>
<path d="M574.935 745.301L566.051 718.636C565.99 718.353 565.784 718.206 565.504 718.197L556.184 717.894C555.903 717.885 555.686 718.088 555.677 718.369L555.241 736.102L554.537 753.477C554.527 753.757 554.731 753.974 555.011 753.983L560.757 754.17C561.038 754.179 561.255 753.975 561.264 753.695L561.722 737.435L561.83 729.793L561.79 726.705L570.932 754.079C570.993 754.362 571.199 754.509 571.479 754.518L576.594 754.684C576.875 754.693 577.089 754.56 577.169 754.282L587.772 728.04L587.69 730.563L587.299 738.266L586.771 754.524C586.762 754.804 586.966 755.021 587.246 755.03L594.324 755.26C594.604 755.269 594.821 755.066 594.83 754.786L595.325 737.405L595.971 719.678C595.98 719.398 595.776 719.181 595.496 719.171L586.106 718.866C585.826 718.857 585.611 718.991 585.532 719.269L574.935 745.301Z" fill="white"/>
<path d="M125.576 691.277L113.528 710.177L106.59 709.952L107.282 690.823C107.291 690.543 107.088 690.326 106.807 690.317L99.1692 690.069C98.8889 690.06 98.6719 690.263 98.6628 690.543L98.0334 714.233L97.101 738.615C97.0919 738.895 97.2953 739.113 97.5756 739.122L105.214 739.37C105.494 739.379 105.711 739.175 105.72 738.895L106.381 716.399L113.251 716.552L121.672 731.557L126.108 739.698C126.239 739.983 126.517 740.062 126.727 740.069L135.907 740.367C136.257 740.378 136.477 740.105 136.275 739.818L120.32 712.713L134.679 691.784C134.899 691.51 134.697 691.223 134.347 691.212L126.218 690.948C126.008 690.941 125.726 691.002 125.576 691.277Z" stroke="#F08603" stroke-width="74.1189" stroke-linejoin="round" mask="url(#path-2-outside-1_432_74)"/>
<path d="M162.815 709.814C160.476 706.231 156.824 704.218 152.059 704.063C142.388 703.749 136.369 711.971 136.03 722.413C135.688 732.924 140.68 741.224 150.631 741.547C155.536 741.706 159.388 739.727 161.957 736.233L161.671 740.713C161.662 740.993 161.865 741.21 162.146 741.219L169.574 741.461C169.854 741.47 170.071 741.266 170.08 740.986L170.516 723.253L171.221 705.878C171.23 705.598 171.027 705.381 170.746 705.372L163.248 705.128C162.968 705.119 162.751 705.323 162.742 705.603L162.815 709.814ZM153.13 735.876C147.171 735.752 144.324 730.539 144.595 722.2C144.85 714.351 148.023 709.544 154.117 709.812C159.861 710.069 162.929 714.939 162.582 723.486C162.238 731.893 158.806 736.06 153.13 735.876Z" stroke="#F08603" stroke-width="74.1189" stroke-linejoin="round" mask="url(#path-2-outside-1_432_74)"/>
<path d="M192.423 743.045C201.883 743.352 208.311 737.669 209.279 729.492C209.288 729.212 209.082 729.065 208.802 729.056L201.794 728.828C201.514 728.819 201.299 728.953 201.218 729.301C200.554 734.611 197.441 737.596 192.818 737.376C186.584 737.103 183.781 732.663 184.066 723.903C184.344 715.354 187.435 710.895 193.674 711.027C197.738 711.159 200.6 713.778 201.288 718.5C201.347 718.853 201.482 718.997 201.763 719.006L208.63 719.23C208.91 719.239 209.127 719.035 209.066 718.753C208.548 710.949 202.97 705.577 193.861 705.281C182.508 704.912 175.816 712.271 175.445 723.693C175.073 735.116 181.281 742.683 192.423 743.045Z" stroke="#F08603" stroke-width="74.1189" stroke-linejoin="round" mask="url(#path-2-outside-1_432_74)"/>
<path d="M211.659 707.192L211.495 712.238C211.486 712.518 211.69 712.735 211.97 712.744L223.673 713.124L223.362 724.829L222.642 742.694C222.633 742.974 222.836 743.191 223.116 743.2L230.684 743.446C230.965 743.455 231.182 743.252 231.191 742.972L231.631 725.098L232.082 713.397L243.784 713.778C244.064 713.787 244.282 713.583 244.291 713.303L244.455 708.258C244.464 707.977 244.26 707.76 243.98 707.751L212.166 706.718C211.885 706.708 211.668 706.912 211.659 707.192Z" stroke="#F08603" stroke-width="74.1189" stroke-linejoin="round" mask="url(#path-2-outside-1_432_74)"/>
<path d="M262.361 745.317C273.784 745.688 280.406 738.327 280.775 726.975C281.146 715.553 275.011 707.918 263.588 707.546C252.236 707.178 245.543 714.536 245.172 725.959C244.801 737.381 251.009 744.948 262.361 745.317ZM262.546 739.641C256.379 739.441 253.439 734.926 253.722 726.236C254.002 717.617 257.165 713.09 263.404 713.223C269.501 713.421 272.361 718.214 272.081 726.833C271.799 735.522 268.712 739.841 262.546 739.641Z" stroke="#F08603" stroke-width="74.1189" stroke-linejoin="round" mask="url(#path-2-outside-1_432_74)"/>
<path d="M305.328 736.541L296.444 709.877C296.383 709.594 296.177 709.447 295.897 709.438L286.577 709.135C286.296 709.126 286.079 709.329 286.07 709.61L285.634 727.343L284.929 744.717C284.92 744.998 285.124 745.215 285.404 745.224L291.15 745.411C291.431 745.42 291.648 745.216 291.657 744.936L292.115 728.676L292.223 721.033L292.183 717.946L301.325 745.32C301.386 745.603 301.592 745.75 301.872 745.759L306.987 745.925C307.268 745.934 307.482 745.801 307.562 745.523L318.165 719.281L318.083 721.803L317.692 729.507L317.164 745.765C317.155 746.045 317.358 746.262 317.639 746.271L324.716 746.501C324.997 746.51 325.214 746.307 325.223 746.027L325.717 728.646L326.363 710.919C326.373 710.638 326.169 710.421 325.889 710.412L316.499 710.107C316.218 710.098 316.004 710.231 315.925 710.509L305.328 736.541Z" stroke="#F08603" stroke-width="74.1189" stroke-linejoin="round" mask="url(#path-2-outside-1_432_74)"/>
<path d="M339.326 737.786L339.763 728.681L340.465 711.377C340.474 711.097 340.271 710.88 339.99 710.87L332.492 710.627C332.212 710.618 331.995 710.821 331.986 711.101L331.582 727.854L330.845 746.209C330.836 746.489 331.04 746.707 331.32 746.716L340.29 747.007C340.5 747.014 340.782 746.953 340.932 746.677L356.433 720.805L356.022 729.139L355.302 747.004C355.293 747.284 355.496 747.501 355.776 747.51L363.204 747.752C363.485 747.761 363.702 747.557 363.711 747.277L364.151 729.403L364.851 712.169C364.86 711.889 364.657 711.672 364.377 711.663L355.547 711.376C355.337 711.369 355.054 711.43 354.905 711.706L339.326 737.786Z" stroke="#F08603" stroke-width="74.1189" stroke-linejoin="round" mask="url(#path-2-outside-1_432_74)"/>
<path d="M392.684 737.976C392.561 741.761 389.482 743.695 384.927 743.547C379.882 743.383 376.941 741.043 376.888 736.201C376.9 735.85 376.694 735.703 376.414 735.694L369.266 735.462C368.986 735.453 368.771 735.586 368.759 735.936C368.696 744.352 374.584 748.823 384.605 749.148C392.804 749.415 400.963 746.593 401.22 738.675C401.372 733.98 398.945 730.954 393.032 729.43L393.034 729.359C397.411 728.52 400.572 726.237 400.717 721.752C400.92 715.516 395.215 711.893 386.456 711.608C377.486 711.317 371.056 714.896 370.32 722.448C370.311 722.729 370.514 722.946 370.795 722.955L377.662 723.178C377.942 723.187 378.157 723.054 378.239 722.706C378.777 719.075 381.579 717.062 386.063 717.208C389.988 717.335 392.377 719.377 392.281 722.32C392.176 725.543 389.809 727.15 385.815 727.02L381.19 726.87C380.91 726.861 380.692 727.064 380.683 727.345L380.54 731.759C380.531 732.04 380.734 732.257 381.015 732.266L385.639 732.416C389.774 732.551 392.809 734.122 392.684 737.976Z" stroke="#F08603" stroke-width="74.1189" stroke-linejoin="round" mask="url(#path-2-outside-1_432_74)"/>
<path d="M413.845 740.207L414.281 731.102L414.983 713.798C414.992 713.518 414.789 713.3 414.509 713.291L407.011 713.048C406.73 713.039 406.513 713.242 406.504 713.522L406.1 730.275L405.363 748.63C405.354 748.91 405.558 749.128 405.838 749.137L414.808 749.428C415.018 749.435 415.301 749.374 415.45 749.098L430.952 723.226L430.54 731.56L429.82 749.425C429.811 749.705 430.014 749.922 430.294 749.931L437.722 750.173C438.003 750.182 438.22 749.978 438.229 749.698L438.669 731.824L439.369 714.59C439.379 714.31 439.175 714.093 438.895 714.084L430.065 713.797C429.855 713.79 429.573 713.851 429.423 714.127L413.845 740.207Z" stroke="#F08603" stroke-width="74.1189" stroke-linejoin="round" mask="url(#path-2-outside-1_432_74)"/>
<path d="M464.41 714.211C459.575 714.054 455.723 716.033 453.156 719.457L453.44 715.047C453.449 714.767 453.246 714.55 452.965 714.541L445.467 714.297C445.187 714.288 444.97 714.491 444.961 714.772L444.441 735.098L443.433 761.792C443.424 762.073 443.627 762.29 443.908 762.299L451.476 762.545C451.756 762.554 451.973 762.35 451.982 762.07L452.359 746.158C454.702 749.602 458.287 751.542 462.982 751.695C472.652 752.009 478.742 743.789 479.081 733.348C479.423 722.836 474.361 714.534 464.41 714.211ZM460.926 745.876C455.18 745.689 452.184 740.751 452.529 732.274C452.87 723.938 456.233 719.768 461.909 719.952C467.935 720.148 470.717 725.219 470.446 733.558C470.193 741.336 467.023 746.074 460.926 745.876Z" stroke="#F08603" stroke-width="74.1189" stroke-linejoin="round" mask="url(#path-2-outside-1_432_74)"/>
<path d="M489.468 763.779L496.546 764.009C496.826 764.018 497.043 763.815 497.12 763.607L514.835 717.112C514.984 716.836 514.853 716.551 514.503 716.54L506.935 716.294C506.655 716.285 506.44 716.418 506.361 716.696L497.907 741.535L489.613 716.152C489.552 715.87 489.346 715.723 489.066 715.714L480.586 715.438C480.236 715.427 480.019 715.63 480.148 715.985L493.352 752.19L489.136 763.207C488.987 763.483 489.118 763.768 489.468 763.779Z" stroke="#F08603" stroke-width="74.1189" stroke-linejoin="round" mask="url(#path-2-outside-1_432_74)"/>
<path d="M532.635 748.416C526.609 748.22 523.581 744.263 523.487 736.333L549.906 737.192C550.186 737.201 550.401 737.068 550.412 736.717C550.673 724.379 544.54 716.674 533.327 716.31C522.326 715.952 515.49 723.377 515.122 734.729C514.764 745.731 520.748 753.712 532.381 754.09C542.121 754.406 548.19 748.991 549.333 741.873C549.412 741.595 549.209 741.378 548.928 741.369L541.781 741.137C541.5 741.128 541.356 741.263 541.276 741.541C540.068 746.342 537.12 748.561 532.635 748.416ZM533.215 721.918C538.751 722.098 541.273 726.529 541.464 731.446L523.945 730.877C524.982 724.878 528.03 721.75 533.215 721.918Z" stroke="#F08603" stroke-width="74.1189" stroke-linejoin="round" mask="url(#path-2-outside-1_432_74)"/>
<path d="M574.935 745.301L566.051 718.636C565.99 718.353 565.784 718.206 565.504 718.197L556.184 717.894C555.903 717.885 555.686 718.088 555.677 718.369L555.241 736.102L554.537 753.477C554.527 753.757 554.731 753.974 555.011 753.983L560.757 754.17C561.038 754.179 561.255 753.975 561.264 753.695L561.722 737.435L561.83 729.793L561.79 726.705L570.932 754.079C570.993 754.362 571.199 754.509 571.479 754.518L576.594 754.684C576.875 754.693 577.089 754.56 577.169 754.282L587.772 728.04L587.69 730.563L587.299 738.266L586.771 754.524C586.762 754.804 586.966 755.021 587.246 755.03L594.324 755.26C594.604 755.269 594.821 755.066 594.83 754.786L595.325 737.405L595.971 719.678C595.98 719.398 595.776 719.181 595.496 719.171L586.106 718.866C585.826 718.857 585.611 718.991 585.532 719.269L574.935 745.301Z" stroke="#F08603" stroke-width="74.1189" stroke-linejoin="round" mask="url(#path-2-outside-1_432_74)"/>
</svg>
