<svg width="793" height="504" viewBox="0 0 793 504" fill="none" xmlns="http://www.w3.org/2000/svg">
<path d="M111.643 307.507L131.015 323.842L111.643 307.507C111.372 307.829 111.102 308.149 110.833 308.467C104.996 315.384 99.6832 321.679 95.2 329.787C90.6005 338.105 87.2785 347.529 83.0975 360.562L107.226 368.302L83.0975 360.562C79.1857 372.755 80.9022 385.139 87.6768 395.418C93.7246 404.595 102.57 410.29 110.239 413.856C125.621 421.008 145.113 423.697 162.5 423.504C179.718 423.313 199.417 420.249 214.6 411.974C222.32 407.766 231.043 401.012 236.119 390.405C237.247 388.047 238.122 385.653 238.76 383.242C251.873 396.032 268.787 402.004 284.305 404.755C308.497 409.044 336.168 406.574 358.293 403.427C357.312 406.558 356.549 409.806 356.105 413.131C354.722 423.496 356.263 434.962 362.987 445.81C369.419 456.188 379.321 463.95 391.037 469.879C408.322 478.625 425.78 480.295 442.006 476.271C457.678 472.385 470.56 463.622 480.466 454.106C488.658 446.238 495.695 436.993 501.295 427.573C502.276 428.517 503.258 429.442 504.239 430.347C515.511 440.743 527.753 449.528 539.531 455.122C545.402 457.91 551.957 460.289 558.763 461.326C565.377 462.334 574.343 462.38 583.118 457.967C593.403 452.796 600.959 443.998 603.761 432.501C604.047 431.329 604.274 430.163 604.45 429.008C605.257 429.534 606.083 430.038 606.927 430.516C616.654 436.019 630.468 438.631 643.902 430.628C654.181 424.504 660.429 414.684 661.861 403.385C663.08 393.763 660.586 384.911 658.209 378.625C657.964 377.978 657.708 377.326 657.441 376.671C663.684 376.599 669.873 375.006 675.691 372.046C687.779 365.896 697.324 356.239 701.479 342.83C705.335 330.387 703.42 318.237 700.502 308.69C695.144 291.165 682.978 272.283 673.241 257.196C680.891 260.092 690.475 263.098 700.342 263.605C717.207 264.471 733.745 258.258 746.725 242.066C765.871 218.183 771.451 192.251 764.456 168.014C757.864 145.172 741.255 127.815 723.861 116.535C716.295 111.628 707.789 108.947 698.83 109.153C695.608 109.227 692.578 109.668 689.757 110.358C688.142 99.2678 685.456 88.6748 681.604 79.3025C674.596 62.2486 658.356 38.3519 628.896 41.1633C607.831 43.1735 599.426 61.0934 596.522 70.0918C593.2 80.3858 592.282 92.3287 592.183 102.752C592.182 102.866 591.899 105.889 586.349 109.761C580.913 113.553 574.433 115.101 570.227 114.699C568.2 114.506 566.823 113.873 564.979 111.668C562.611 108.837 560.067 103.886 557.828 96.3053C557.507 95.2185 557.174 94.0988 556.827 92.9444C553.14 80.6808 544.709 71.45 533.302 66.8188C523.119 62.6845 512.604 63.0043 504.264 64.4117C487.537 67.2344 469.953 76.0645 455.736 86.075C441.657 95.9889 427.162 109.676 419.341 125.098C419.088 125.597 418.837 126.107 418.59 126.628C418.113 120.018 415.771 113.147 410.563 106.819C402.959 97.5816 392.309 92.8857 380.923 93.1744C371.227 93.4203 362.852 97.2215 356.997 100.519C356.394 100.859 355.788 101.211 355.181 101.573C354.168 95.4127 351.66 89.5341 347.857 84.2296L327.263 98.9948L347.856 84.2296C339.843 73.0525 328.679 65.0376 314.606 63.0732C304.641 61.6823 295.383 63.6507 287.539 66.6436C276.403 56.5099 262.848 56.6646 253.829 58.8054C245.034 60.8931 236.994 65.4586 230.669 69.7365C216.205 79.5179 198.155 75.9983 190.426 65.6792C178.233 49.3995 165.392 36.7399 151.054 30.294C134.684 22.9346 118.416 24.6254 104.834 33.1018C93.1397 40.4004 84.8892 51.8066 79.0212 61.4666C73.0469 71.3016 67.7189 82.5053 63.1199 92.1761C63.0259 92.3736 62.9323 92.5704 62.839 92.7666C58.7593 101.344 55.2169 108.764 51.6404 115.076C47.9385 121.609 45.2402 125.034 43.5795 126.547C37.3312 132.24 31.2941 139.489 28.2038 148.572C24.7737 158.655 25.6537 169.117 30.5186 178.242C34.8839 186.43 41.5633 191.919 47.2169 195.524C53.06 199.25 59.5626 202.075 65.8249 204.273C89.2382 212.492 120.904 215.867 141.812 216.495C141.958 216.786 142.105 217.077 142.249 217.365L143.871 216.549L142.249 217.365C147.073 226.955 150.533 234.322 151.417 242.148C152.146 248.603 151.253 256.907 142.963 268.03C127.988 288.124 118.433 299.455 111.679 307.464L111.643 307.507ZM474.176 348.565C474.178 348.565 474.21 348.573 474.269 348.592C474.204 348.575 474.175 348.566 474.176 348.565ZM477.791 357.386L477.352 360.951L477.791 357.386ZM616.116 298.592C616.124 298.598 616.12 298.684 616.083 298.836C616.09 298.663 616.108 298.587 616.116 298.592ZM284.228 154.201C284.232 154.193 284.318 154.183 284.474 154.197C284.302 154.217 284.224 154.21 284.228 154.201Z" fill="white" stroke="#021F69" stroke-width="50.6792" stroke-linejoin="round"/>
</svg>
