<svg width="793" height="505" viewBox="0 0 793 505" fill="none" xmlns="http://www.w3.org/2000/svg">
<path d="M111.281 307.884L130.653 324.219L111.281 307.884C111.01 308.206 110.74 308.526 110.471 308.844C104.633 315.761 99.3207 322.056 94.8375 330.164C90.238 338.482 86.916 347.906 82.735 360.939L106.863 368.679L82.735 360.939C78.8232 373.132 80.5398 385.516 87.3144 395.795C93.3621 404.972 102.208 410.667 109.877 414.233C125.258 421.385 144.751 424.073 162.137 423.881C179.356 423.69 199.055 420.626 214.238 412.351C221.958 408.143 230.68 401.389 235.756 390.782C236.884 388.424 237.759 386.03 238.397 383.619C251.511 396.409 268.424 402.381 283.943 405.132C308.135 409.421 335.806 406.95 357.93 403.804C356.95 406.935 356.187 410.183 355.743 413.508C354.359 423.873 355.9 435.339 362.625 446.187C369.056 456.565 378.959 464.327 390.675 470.256C407.959 479.002 425.417 480.672 441.643 476.648C457.315 472.762 470.197 463.999 480.104 454.483C488.295 446.614 495.332 437.369 500.932 427.95C501.914 428.894 502.896 429.819 503.877 430.724C515.148 441.12 527.391 449.905 539.168 455.498C545.04 458.287 551.594 460.666 558.4 461.703C565.014 462.711 573.98 462.757 582.756 458.344C593.04 453.173 600.597 444.375 603.398 432.878C603.684 431.706 603.912 430.54 604.087 429.385C604.894 429.911 605.72 430.415 606.565 430.893C616.292 436.396 630.105 439.008 643.539 431.005C653.818 424.881 660.067 415.061 661.499 403.762C662.718 394.14 660.223 385.288 657.846 379.002C657.602 378.355 657.345 377.703 657.078 377.048C663.321 376.976 669.511 375.383 675.328 372.423C687.416 366.273 696.961 356.616 701.117 343.207C704.973 330.764 703.058 318.614 700.139 309.067C694.782 291.542 682.615 272.66 672.879 257.573C680.528 260.469 690.113 263.475 699.98 263.982C716.844 264.848 733.383 258.635 746.362 242.443C765.508 218.56 771.089 192.628 764.094 168.391C757.501 145.549 740.892 128.192 723.498 116.911C715.933 112.005 707.426 109.324 698.467 109.53C695.245 109.604 692.215 110.045 689.395 110.735C687.779 99.6447 685.093 89.0517 681.242 79.6795C674.233 62.6256 657.994 38.7288 628.533 41.5403C607.469 43.5505 599.064 61.4704 596.159 70.4688C592.837 80.7627 591.92 92.7057 591.821 103.129C591.82 103.243 591.537 106.266 585.987 110.138C580.551 113.93 574.071 115.478 569.864 115.076C567.838 114.883 566.46 114.25 564.617 112.045C562.249 109.214 559.704 104.263 557.466 96.6822C557.145 95.5955 556.811 94.4758 556.464 93.3214C552.778 81.0577 544.347 71.827 532.94 67.1958C522.757 63.0615 512.241 63.3813 503.901 64.7887C487.175 67.6113 469.591 76.4415 455.374 86.4519C441.294 96.3659 426.8 110.053 418.978 125.475C418.725 125.974 418.474 126.484 418.227 127.005C417.75 120.395 415.409 113.524 410.2 107.196C402.597 97.9585 391.946 93.2626 380.561 93.5514C370.865 93.7973 362.49 97.5985 356.635 100.896C356.031 101.236 355.426 101.588 354.819 101.95C353.806 95.7897 351.297 89.911 347.494 84.6065L326.901 99.3718L347.494 84.6065C339.48 73.4295 328.317 65.4145 314.243 63.4501C304.279 62.0593 295.02 64.0276 287.176 67.0206C276.04 56.8868 262.485 57.0415 253.466 59.1824C244.671 61.27 236.632 65.8355 230.306 70.1134C215.842 79.8948 197.792 76.3752 190.064 66.0561C177.87 49.7764 165.03 37.1168 150.692 30.6709C134.321 23.3116 118.054 25.0023 104.472 33.4788C92.7773 40.7774 84.5267 52.1836 78.6587 61.8435C72.6844 71.6786 67.3564 82.8822 62.7574 92.553C62.6634 92.7505 62.5698 92.9474 62.4765 93.1436C58.3968 101.721 54.8544 109.141 51.2779 115.453C47.5761 121.986 44.8777 125.411 43.217 126.924C36.9687 132.617 30.9317 139.866 27.8413 148.949C24.4112 159.032 25.2912 169.494 30.1561 178.619C34.5214 186.807 41.2008 192.296 46.8544 195.901C52.6975 199.627 59.2001 202.452 65.4625 204.65C88.8758 212.869 120.541 216.244 141.45 216.872C141.596 217.163 141.742 217.454 141.887 217.742L143.508 216.926L141.887 217.742C146.711 227.332 150.17 234.699 151.054 242.525C151.783 248.98 150.891 257.284 142.601 268.407C127.626 288.501 118.071 299.832 111.317 307.841L111.281 307.884ZM473.814 348.942C473.815 348.942 473.847 348.95 473.907 348.969C473.842 348.952 473.812 348.943 473.814 348.942ZM477.428 357.763L476.989 361.328L477.428 357.763ZM615.754 298.969C615.761 298.975 615.758 299.061 615.721 299.213C615.727 299.04 615.746 298.964 615.754 298.969ZM283.866 154.578C283.87 154.57 283.956 154.56 284.112 154.574C283.94 154.594 283.862 154.587 283.866 154.578Z" fill="#021F69" stroke="white" stroke-width="50.6792" stroke-linejoin="round"/>
</svg>
