<svg width="493" height="391" viewBox="0 0 493 391" fill="none" xmlns="http://www.w3.org/2000/svg">
<path d="M242.629 120.668C257.641 118.767 273.051 69.9817 278.879 45.8266" stroke="#12A4FF" stroke-width="12.0578"/>
<path fill-rule="evenodd" clip-rule="evenodd" d="M38.855 91.2032C40.5759 81.1407 50.1282 74.3785 60.1908 76.0994L422.734 138.102C432.797 139.823 439.559 149.376 437.838 159.438L402.499 366.07C400.778 376.132 391.226 382.895 381.164 381.174L18.6202 319.171C8.55771 317.45 1.79546 307.898 3.51638 297.835L38.855 91.2032ZM200.826 121.895C201.282 119.231 203.81 117.441 206.474 117.897L223.801 120.86C223.801 120.86 223.801 120.86 223.801 120.86C224.442 117.111 228.001 114.592 231.75 115.233L246.754 117.799C250.503 118.44 253.022 121.999 252.381 125.748C252.381 125.748 252.381 125.748 252.381 125.748L269.707 128.711C272.371 129.167 274.161 131.695 273.706 134.359C273.25 137.022 270.721 138.812 268.058 138.357L204.824 127.543C202.161 127.087 200.371 124.558 200.826 121.895Z" fill="#021F69"/>
<path d="M214.574 27.9287C217.671 59.6336 227.617 122.568 242.629 120.667" stroke="#12A4FF" stroke-width="12.0578"/>
<path d="M67.1392 202.637C75.8622 204.129 84.3998 201.723 86.0332 192.172C86.8407 187.067 84.6397 182.693 78.5867 180.151C83.9945 179.569 87.3187 176.991 88.2552 171.516C89.5074 164.194 83.6119 159.581 74.5706 158.035L56.4881 154.942C56.2334 154.899 56.0097 155.057 55.9661 155.312L52.4239 176.791L48.4962 198.99C48.4526 199.245 48.611 199.468 48.8657 199.512L67.1392 202.637ZM73.6233 163.574C78.0802 164.336 80.979 166.929 80.2168 171.386C79.4654 175.779 76.199 177.252 71.4237 176.436L60.5996 174.585L62.9265 161.745L73.6233 163.574ZM70.4763 181.975C75.2516 182.792 79.0527 185.473 78.138 190.822C77.1362 196.679 73.0529 197.947 67.8956 197.065L57.1989 195.236L59.6522 180.124L70.4763 181.975ZM93.8147 218.34L100.245 219.44C100.5 219.483 100.724 219.325 100.82 219.145L122.835 178.937C123.006 178.704 122.922 178.428 122.604 178.373L115.727 177.197C115.472 177.153 115.26 177.248 115.152 177.492L104.314 199.099L99.935 174.889C99.9149 174.624 99.7456 174.464 99.491 174.42L91.7868 173.103C91.4684 173.048 91.2447 173.207 91.3176 173.547L98.8167 208.251L93.5834 217.776C93.4125 218.009 93.4963 218.285 93.8147 218.34ZM143.736 196.47C141.495 196.546 139.298 196.366 137.197 196.007C132.039 195.125 131.318 192.446 132.004 188.435L133.332 180.667C133.376 180.412 133.218 180.188 132.963 180.145L126.087 178.969C125.832 178.925 125.608 179.084 125.565 179.338L124.3 187.117C123.048 194.439 124.619 199.426 134.297 201.081C137.099 201.561 140.093 201.679 142.854 201.627L140.548 214.733C140.504 214.987 140.662 215.211 140.917 215.255L147.793 216.431C148.048 216.474 148.272 216.316 148.315 216.061L150.965 199.803L153.771 184.162C153.814 183.907 153.656 183.684 153.401 183.64L146.525 182.464C146.27 182.421 146.047 182.579 146.003 182.834L143.736 196.47ZM169.589 215.636C164.113 214.7 161.847 210.708 162.759 203.459L186.763 207.564C187.018 207.608 187.231 207.513 187.285 207.195C189.074 195.967 184.445 188.163 174.258 186.421C164.262 184.711 157.09 190.628 155.326 200.942C153.616 210.939 158.074 218.975 168.643 220.783C177.494 222.297 183.713 218.118 185.652 211.765C185.759 211.521 185.6 211.297 185.346 211.254L178.851 210.143C178.597 210.099 178.447 210.205 178.34 210.449C176.634 214.679 173.664 216.333 169.589 215.636ZM173.45 191.525C178.48 192.386 180.225 196.747 179.781 201.258L163.863 198.536C165.564 193.191 168.739 190.719 173.45 191.525ZM214.667 194.446L204.606 205.373L199.958 204.578L202.165 192.439C202.209 192.184 202.05 191.96 201.796 191.917L194.919 190.741C194.665 190.697 194.441 190.855 194.397 191.11L191.846 206.795L188.942 223.009C188.898 223.264 189.057 223.488 189.311 223.531L196.188 224.707C196.443 224.751 196.666 224.592 196.71 224.338L199.022 210.054L203.733 210.859L207.324 220.517L209.422 226.643C209.506 226.919 209.75 227.027 209.941 227.059L217.836 228.41C218.154 228.464 218.389 228.242 218.241 227.955L210.341 207.861L222.072 195.974C222.318 195.689 222.234 195.412 221.916 195.358L215.23 194.214C215.039 194.182 214.837 194.213 214.667 194.446ZM42.881 232.206L39.3153 254.205L35.3474 275.874C35.3038 276.128 35.4622 276.352 35.7169 276.396L42.9117 277.626C43.1664 277.67 43.3901 277.511 43.4336 277.257L46.8921 255.501L49.787 238.958L69.2066 242.279C69.4613 242.322 69.685 242.164 69.7285 241.909L70.5779 236.943C70.6214 236.688 70.4631 236.465 70.2084 236.421L43.4029 231.837C43.1483 231.793 42.9246 231.952 42.881 232.206ZM87.0695 255.819C85.3855 252.255 82.305 249.958 77.9753 249.218C69.1887 247.715 62.661 254.463 61.0385 263.95C59.4052 273.5 62.9174 281.703 71.9586 283.249C76.4156 284.011 80.1805 282.689 82.9643 279.823L82.1401 283.876C82.0965 284.131 82.2549 284.355 82.5096 284.398L89.2587 285.552C89.5134 285.596 89.7371 285.438 89.7806 285.183L92.4082 269.052L95.2361 253.284C95.2796 253.029 95.1213 252.805 94.8666 252.762L88.0538 251.597C87.7991 251.553 87.5754 251.712 87.5319 251.966L87.0695 255.819ZM74.9527 278.387C69.5298 277.526 67.5868 272.409 68.8826 264.832C70.1022 257.701 73.6023 253.713 79.1308 254.724C84.3409 255.68 86.5293 260.511 85.1372 268.268C83.7668 275.897 80.11 279.269 74.9527 278.387ZM118.181 256.094C113.788 255.343 110.023 256.665 107.25 259.467L108.063 255.478C108.107 255.223 107.948 254.999 107.694 254.956L100.881 253.791C100.626 253.747 100.403 253.905 100.359 254.16L97.3286 272.646L93.0525 296.883C93.0089 297.138 93.1673 297.362 93.422 297.405L100.298 298.581C100.553 298.625 100.777 298.466 100.82 298.212L103.165 283.737C104.871 287.174 107.898 289.396 112.164 290.125C120.951 291.628 127.542 284.891 129.165 275.404C130.798 265.854 127.222 257.64 118.181 256.094ZM111.02 284.556C105.799 283.663 103.685 278.779 105.066 271.086C106.426 263.52 110.019 260.137 115.176 261.019C120.652 261.956 122.553 266.934 121.257 274.511C120.048 281.578 116.559 285.503 111.02 284.556ZM154.593 278.639C158.895 278.392 161.887 276.61 162.562 272.662C163.509 267.123 159.233 263.77 150.892 262.344L136.693 259.915C136.439 259.872 136.215 260.03 136.172 260.285L133.62 275.97L130.716 292.184C130.673 292.439 130.831 292.662 131.086 292.706L145.412 295.156C150.569 296.038 159.488 296.384 160.871 288.297C161.611 283.968 159.851 280.849 154.582 278.703L154.593 278.639ZM149.894 267.415C153.205 267.982 155.204 269.7 154.747 272.374C154.268 275.176 151.949 276.09 148.574 275.513L141.507 274.304L142.89 266.218L149.894 267.415ZM140.658 279.27L147.725 280.479C151.227 281.078 153.842 283.032 153.275 286.343C152.709 289.654 149.912 290.683 146.092 290.029L139.088 288.832L140.658 279.27ZM191.46 273.672C189.776 270.108 186.696 267.811 182.366 267.071C173.579 265.568 167.052 272.316 165.429 281.803C163.796 291.353 167.308 299.556 176.349 301.102C180.806 301.864 184.571 300.542 187.355 297.676L186.531 301.729C186.487 301.984 186.645 302.208 186.9 302.251L193.649 303.406C193.904 303.449 194.128 303.291 194.171 303.036L196.799 286.906L199.627 271.137C199.67 270.882 199.512 270.659 199.257 270.615L192.444 269.45C192.19 269.406 191.966 269.565 191.922 269.819L191.46 273.672ZM179.343 296.241C173.92 295.379 171.977 290.262 173.273 282.686C174.493 275.554 177.993 271.566 183.521 272.577C188.731 273.533 190.92 278.364 189.528 286.121C188.157 293.75 184.501 297.123 179.343 296.241ZM222.572 273.947C218.178 273.196 214.413 274.518 211.64 277.32L212.454 273.331C212.497 273.076 212.339 272.852 212.084 272.809L205.272 271.644C205.017 271.6 204.793 271.758 204.75 272.013L201.719 290.499L197.443 314.736C197.399 314.991 197.558 315.215 197.813 315.258L204.689 316.434C204.944 316.478 205.167 316.319 205.211 316.065L207.555 301.59C209.261 305.027 212.289 307.249 216.555 307.978C225.342 309.481 231.933 302.744 233.555 293.257C235.189 283.707 231.613 275.493 222.572 273.947ZM215.41 302.409C210.189 301.516 208.076 296.633 209.457 288.939C210.816 281.373 214.409 277.99 219.567 278.872C225.042 279.809 226.943 284.787 225.648 292.364C224.439 299.431 220.95 303.356 215.41 302.409ZM263.396 285.975C261.712 282.41 258.631 280.114 254.302 279.373C245.515 277.871 238.987 284.618 237.365 294.105C235.731 303.656 239.244 311.859 248.285 313.405C252.742 314.167 256.507 312.845 259.291 309.979L258.466 314.032C258.423 314.287 258.581 314.51 258.836 314.554L265.585 315.708C265.84 315.752 266.063 315.593 266.107 315.339L268.735 299.208L271.562 283.44C271.606 283.185 271.448 282.961 271.193 282.918L264.38 281.752C264.125 281.709 263.902 281.867 263.858 282.122L263.396 285.975ZM251.279 308.543C245.856 307.681 243.913 302.565 245.209 294.988C246.429 287.857 249.929 283.868 255.457 284.879C260.667 285.836 262.856 290.666 261.463 298.423C260.093 306.053 256.436 309.425 251.279 308.543Z" fill="white"/>
</svg>
