<svg width="398" height="351" viewBox="0 0 398 351" fill="none" xmlns="http://www.w3.org/2000/svg">
<path d="M279.483 3.22904C270.088 10.6564 291.094 37.914 302.772 50.6144C279.282 59.0784 264.359 66.7136 255.651 73.7197C252.01 67.1474 249.175 64.0264 238.672 55.0889C218.395 37.8357 184.783 117.732 214.815 117.625C238.841 117.54 242.295 140.716 241.019 152.315L218.569 162.118C218.243 146.958 214.481 134.953 208.641 132.623C197.645 128.234 192.301 144.035 186.564 161.001C181.143 177.032 175.37 194.103 164.144 196.16C152.757 198.247 159.299 180.325 166.415 160.828C173.74 140.759 181.674 119.02 171.294 115.715C161.36 112.551 156.854 128.244 151.915 145.446C146.679 163.683 140.955 183.615 127.762 184.573C115.231 185.483 120.787 173.4 127.062 159.753C133.625 145.482 140.974 129.5 129.242 124.882C116.087 119.705 108.846 129.382 103.424 143.728C101.382 140.251 98.4728 137.918 94.6112 137.175C82.8503 134.913 75.9327 168.623 73.944 185.762C-6.52729 140.416 -1.82291 176.44 2.59183 210.247C4.11121 221.882 5.59628 233.254 3.56308 240.956C-4.37782 271.037 42.7084 249.607 63.9281 236.522C67.7157 234.187 71.2932 233.695 74.7539 234.367C76.218 235.342 77.9136 236.337 79.7415 237.41C90.9332 243.982 107.082 253.464 105.381 278.948C104.293 295.236 103.063 304.89 102.206 311.615C100.586 324.328 100.3 326.573 104.833 343.386C111.764 369.091 184.731 322.306 159.926 305.376C140.795 292.319 149.667 272.283 157.16 262.944C158.144 265.281 159.249 267.704 160.479 270.217C182.814 315.841 227.386 275.162 250.124 254.41C257.963 247.255 263.207 242.469 264.05 244.405C264.859 246.265 264.712 249.827 264.536 254.087C263.996 267.121 263.187 286.685 288.699 283.988C322.55 280.409 321.203 236.646 314.936 222.252C312.037 215.592 307.474 217.803 302.571 220.179C296.877 222.939 290.725 225.92 286.185 215.492C281.656 205.088 285.156 203.337 289.793 201.018C289.939 200.945 290.086 200.871 290.234 200.797C316.069 226.45 367.489 231.445 374.469 219.562C380.466 209.353 365.651 201.688 349.745 193.457C334.715 185.68 318.71 177.399 318.37 165.991C318.024 154.42 334.754 163.589 352.955 173.565C371.69 183.833 391.983 194.955 396.816 185.192C401.442 175.849 386.608 169.028 370.348 161.551C353.109 153.624 334.268 144.96 335.311 131.773C336.301 119.248 347.408 126.563 359.952 134.824C373.071 143.465 387.762 153.14 394.096 142.238C404.393 124.515 381.945 114.373 359.323 104.153C354.724 102.075 350.118 99.9941 345.779 97.8456C341.893 95.9217 337.935 95.1046 334.012 95.1234C334.254 93.8157 334.472 92.5559 334.665 91.3556C336.544 79.6562 347.35 77.6254 358.498 75.5304C370.805 73.2178 383.528 70.8268 385.12 55.2652C388.154 25.6064 366.983 14.1426 345.812 14.1101C334.507 14.0927 332.941 25.5925 331.94 32.9438C331.067 39.3594 330.624 42.6154 324.512 32.2989C311.398 10.1613 291.227 -6.05515 279.483 3.22904Z" fill="#12A4FF"/>
</svg>
