<svg width="339" height="323" viewBox="0 0 339 323" fill="none" xmlns="http://www.w3.org/2000/svg">
<path d="M160.701 280.063C202.699 302.306 247.131 267.157 264.097 246.802C394.158 85.849 118.83 13.3797 96.3543 48.5438C73.8791 83.7079 209.717 113.474 212.379 157.367C215.041 201.26 71.2975 74.6998 53.094 109.07C34.8906 143.44 182.744 171.012 180.018 218.47C177.291 265.927 84.7299 151.804 60.8641 189.594C36.9984 227.383 108.203 252.259 160.701 280.063Z" fill="white"/>
<path d="M264.356 195.172L247.43 204.044L243.259 201.423L252.087 187.603C252.215 187.4 252.158 187.151 251.954 187.024L246.411 183.54C246.208 183.412 245.959 183.469 245.832 183.672L237.208 197.619L233.139 195.063L233.741 175.931C233.767 175.664 233.596 175.485 233.443 175.39L227.544 171.682C227.29 171.522 227.009 171.63 227.034 171.929L227.101 193.608L202.985 205.34C202.705 205.447 202.73 205.747 202.984 205.906L209.646 210.093C209.799 210.189 210.034 210.266 210.263 210.127L217.264 206.439L230.332 199.754L234.318 202.33L223.906 218.559C223.778 218.762 223.835 219.011 224.038 219.138L229.581 222.622C229.785 222.75 230.033 222.693 230.161 222.49L240.268 206.07L244.368 208.576L244.013 223.251L243.726 231.158C243.7 231.425 243.872 231.604 244.024 231.699L250.686 235.886C250.94 236.046 251.221 235.939 251.196 235.639L251.308 208.822L270.871 199.48C271.152 199.372 271.127 199.073 270.873 198.913L264.973 195.206C264.821 195.11 264.585 195.033 264.356 195.172Z" fill="#021F69"/>
</svg>
