<svg width="687" height="1058" viewBox="0 0 687 1058" fill="none" xmlns="http://www.w3.org/2000/svg">
<rect x="101.655" width="590.948" height="1002.61" rx="30.0482" transform="rotate(5.80734 101.655 0)" fill="#12A4FF"/>
<rect x="67.5145" y="-128.205" width="700.123" height="197.316" rx="59.0948" transform="rotate(5.81 67.5145 -128.205)" fill="#021F69"/>
<mask id="path-3-outside-1_334_42" maskUnits="userSpaceOnUse" x="132.183" y="29.1455" width="498" height="162" fill="black">
<rect fill="white" x="132.183" y="29.1455" width="498" height="162"/>
<path d="M190.671 117.837C200.237 118.701 209.268 115.363 210.214 104.889C210.649 99.2964 207.891 94.7531 201.123 92.5228C206.924 91.4275 210.299 88.3532 210.841 82.348C211.567 74.3177 204.791 69.834 194.875 68.9386L175.044 67.1477C174.765 67.1225 174.536 67.3131 174.511 67.5924L172.526 91.1372L170.185 115.495C170.16 115.774 170.351 116.002 170.63 116.028L190.671 117.837ZM194.327 75.0136C199.215 75.455 202.574 78.0111 202.133 82.8991C201.698 87.7173 198.29 89.5919 193.053 89.1189L181.182 88.047L182.596 73.9543L194.327 75.0136ZM192.504 95.194C197.742 95.6669 202.085 98.2415 201.555 104.107C200.975 110.531 196.666 112.254 191.01 111.743L179.279 110.684L180.634 94.122L192.504 95.194Z"/>
<path d="M225.265 84.636L217.723 83.955C217.444 83.9298 217.216 84.1203 217.191 84.3997L215.684 101.863L213.949 119.517C213.924 119.796 214.114 120.025 214.394 120.05L222.354 120.769L222.36 120.699L227.597 121.172C238.072 122.118 243.992 118.921 244.711 110.961C245.424 103.07 240.235 98.941 229.691 97.9889L224.524 97.5223L225.71 85.169C225.735 84.8896 225.544 84.6612 225.265 84.636ZM247.837 105.189L246.146 122.354C246.121 122.633 246.311 122.862 246.591 122.887L254.132 123.568C254.412 123.593 254.64 123.403 254.665 123.123L256.077 105.933L257.824 88.1394C257.85 87.8601 257.659 87.6317 257.38 87.6065L249.838 86.9255C249.559 86.9002 249.33 87.0908 249.305 87.3701L247.837 105.189ZM223.949 103.102L229.256 103.581C234.563 104.061 236.526 106.491 236.173 110.401C235.801 114.521 232.92 116.021 228.172 115.592L222.865 115.113L223.949 103.102Z"/>
<path d="M282.863 89.2038C278.045 88.7687 274.085 90.523 271.326 93.7937L271.863 89.4072C271.888 89.1278 271.698 88.8994 271.418 88.8742L263.947 88.1995C263.667 88.1743 263.439 88.3648 263.414 88.6442L261.725 108.907L259.183 135.499C259.158 135.778 259.348 136.007 259.627 136.032L267.169 136.713C267.448 136.738 267.677 136.548 267.702 136.268L268.994 120.405C271.135 123.977 274.602 126.12 279.28 126.543C288.917 127.413 295.469 119.557 296.409 109.153C297.355 98.6785 292.779 90.0992 282.863 89.2038ZM277.563 120.615C271.837 120.098 269.13 114.996 269.963 106.553C270.783 98.2501 274.38 94.2807 280.036 94.7914C286.041 95.3337 288.526 100.556 287.776 108.866C287.076 116.617 283.638 121.164 277.563 120.615Z"/>
<path d="M328.07 98.7066C325.941 94.9945 322.41 92.775 317.662 92.3462C308.026 91.476 301.543 99.3383 300.604 109.743C299.658 120.217 304.163 128.79 314.079 129.685C318.967 130.127 322.927 128.372 325.692 125.032L325.149 129.488C325.124 129.768 325.315 129.996 325.594 130.021L332.996 130.69C333.275 130.715 333.503 130.524 333.529 130.245L334.984 112.566L336.688 95.261C336.713 94.9817 336.522 94.7533 336.243 94.7281L328.771 94.0534C328.492 94.0281 328.264 94.2187 328.239 94.498L328.07 98.7066ZM316.9 124.168C310.959 123.701 308.416 118.333 309.167 110.023C309.873 102.202 313.317 97.5856 319.386 98.204C325.105 98.7909 327.889 103.829 327.05 112.342C326.223 120.715 322.556 124.678 316.9 124.168Z"/>
<path d="M389.089 117.944L390.837 100.151C390.862 99.8715 390.672 99.6431 390.392 99.6179L382.851 98.9369C382.571 98.9117 382.343 99.1022 382.318 99.3815L380.78 117.194L379.657 128.849L368.135 127.809L369.118 116.141L370.796 98.3411C370.821 98.0618 370.631 97.8334 370.351 97.8082L362.81 97.1271C362.531 97.1019 362.302 97.2925 362.277 97.5718L360.809 115.391L359.686 127.046L348.094 125.999L349.078 114.331L350.825 96.5377C350.85 96.2584 350.66 96.03 350.381 96.0047L342.839 95.3237C342.56 95.2985 342.331 95.4891 342.306 95.7684L340.838 113.587L339.147 130.752C339.122 131.032 339.312 131.26 339.592 131.285L384.631 135.352L384.103 143.541C384.077 143.821 384.268 144.049 384.547 144.074L390.902 144.648C391.181 144.673 391.409 144.483 391.435 144.203L392.671 130.517C392.696 130.238 392.505 130.009 392.226 129.984L388.106 129.612L389.089 117.944Z"/>
<path d="M405.445 128.01L406.405 118.945L408.102 101.71C408.127 101.431 407.937 101.202 407.657 101.177L400.186 100.502C399.906 100.477 399.678 100.668 399.653 100.947L398.285 117.649L396.494 135.931C396.468 136.21 396.659 136.439 396.938 136.464L405.876 137.271C406.086 137.29 406.371 137.245 406.536 136.979L423.501 112.041L422.611 120.338L420.864 138.132C420.838 138.411 421.029 138.639 421.308 138.665L428.71 139.333C428.989 139.358 429.218 139.168 429.243 138.888L430.711 121.069L432.402 103.904C432.427 103.625 432.237 103.397 431.957 103.371L423.159 102.577C422.95 102.558 422.664 102.603 422.499 102.869L405.445 128.01Z"/>
<path d="M459.484 122.682C464.118 122.045 467.201 119.859 467.592 115.53C468.141 109.455 463.226 106.195 454.078 105.369L438.507 103.963C438.227 103.938 437.999 104.128 437.974 104.407L436.562 121.598L434.815 139.391C434.789 139.671 434.98 139.899 435.259 139.924L450.971 141.343C456.627 141.854 466.307 141.461 467.107 132.593C467.536 127.844 465.363 124.621 459.478 122.752L459.484 122.682ZM453.434 110.943C457.065 111.27 459.377 112.958 459.112 115.89C458.835 118.963 456.404 120.151 452.703 119.817L444.952 119.117L445.753 110.249L453.434 110.943ZM444.46 124.564L452.211 125.264C456.052 125.611 459.049 127.5 458.721 131.131C458.393 134.762 455.455 136.116 451.266 135.738L443.584 135.044L444.46 124.564Z"/>
<path d="M498.947 114.137C496.818 110.425 493.288 108.206 488.539 107.777C478.903 106.907 472.421 114.769 471.481 125.173C470.535 135.648 475.041 144.221 484.956 145.116C489.844 145.558 493.804 143.803 496.57 140.463L496.027 144.919C496.001 145.198 496.192 145.427 496.471 145.452L503.873 146.12C504.152 146.146 504.381 145.955 504.406 145.676L505.862 127.997L507.565 110.692C507.59 110.412 507.4 110.184 507.121 110.159L499.649 109.484C499.37 109.459 499.141 109.649 499.116 109.929L498.947 114.137ZM487.778 139.598C481.836 139.132 479.294 133.764 480.044 125.454C480.75 117.633 484.194 113.016 490.263 113.635C495.983 114.222 498.766 119.26 497.927 127.773C497.1 136.146 493.434 140.109 487.778 139.598Z"/>
<path d="M527.454 143.392C521.448 142.85 518.653 138.726 519.016 130.804L545.342 133.181C545.621 133.206 545.843 133.085 545.874 132.736C546.845 120.434 541.165 112.388 529.992 111.379C519.029 110.389 511.778 117.408 510.757 128.72C509.767 139.683 515.281 147.995 526.873 149.042C536.579 149.919 542.949 144.862 544.5 137.822C544.595 137.549 544.405 137.32 544.125 137.295L537.003 136.652C536.723 136.626 536.571 136.754 536.476 137.027C534.994 141.75 531.923 143.796 527.454 143.392ZM529.558 116.972C535.074 117.47 537.337 122.039 537.245 126.959L519.787 125.382C521.168 119.453 524.391 116.505 529.558 116.972Z"/>
<path d="M569.863 142.717L562.527 115.585C562.483 115.299 562.286 115.14 562.007 115.115L552.72 114.277C552.44 114.251 552.212 114.442 552.187 114.721L550.731 132.4L549.027 149.705C549.002 149.984 549.193 150.213 549.472 150.238L555.198 150.755C555.477 150.78 555.706 150.59 555.731 150.311L557.124 134.104L557.672 126.48L557.809 123.395L565.361 151.251C565.406 151.536 565.602 151.695 565.882 151.72L570.979 152.18C571.259 152.205 571.481 152.085 571.576 151.812L583.672 126.223L583.445 128.737L582.611 136.406L581.148 152.606C581.123 152.885 581.314 153.114 581.593 153.139L588.646 153.776C588.925 153.801 589.153 153.61 589.179 153.331L590.673 136.007L592.338 118.347C592.363 118.068 592.173 117.839 591.893 117.814L582.536 116.969C582.257 116.944 582.035 117.065 581.94 117.338L569.863 142.717Z"/>
</mask>
<path d="M190.671 117.837C200.237 118.701 209.268 115.363 210.214 104.889C210.649 99.2964 207.891 94.7531 201.123 92.5228C206.924 91.4275 210.299 88.3532 210.841 82.348C211.567 74.3177 204.791 69.834 194.875 68.9386L175.044 67.1477C174.765 67.1225 174.536 67.3131 174.511 67.5924L172.526 91.1372L170.185 115.495C170.16 115.774 170.351 116.002 170.63 116.028L190.671 117.837ZM194.327 75.0136C199.215 75.455 202.574 78.0111 202.133 82.8991C201.698 87.7173 198.29 89.5919 193.053 89.1189L181.182 88.047L182.596 73.9543L194.327 75.0136ZM192.504 95.194C197.742 95.6669 202.085 98.2415 201.555 104.107C200.975 110.531 196.666 112.254 191.01 111.743L179.279 110.684L180.634 94.122L192.504 95.194Z" fill="white"/>
<path d="M225.265 84.636L217.723 83.955C217.444 83.9298 217.216 84.1203 217.191 84.3997L215.684 101.863L213.949 119.517C213.924 119.796 214.114 120.025 214.394 120.05L222.354 120.769L222.36 120.699L227.597 121.172C238.072 122.118 243.992 118.921 244.711 110.961C245.424 103.07 240.235 98.941 229.691 97.9889L224.524 97.5223L225.71 85.169C225.735 84.8896 225.544 84.6612 225.265 84.636ZM247.837 105.189L246.146 122.354C246.121 122.633 246.311 122.862 246.591 122.887L254.132 123.568C254.412 123.593 254.64 123.403 254.665 123.123L256.077 105.933L257.824 88.1394C257.85 87.8601 257.659 87.6317 257.38 87.6065L249.838 86.9255C249.559 86.9002 249.33 87.0908 249.305 87.3701L247.837 105.189ZM223.949 103.102L229.256 103.581C234.563 104.061 236.526 106.491 236.173 110.401C235.801 114.521 232.92 116.021 228.172 115.592L222.865 115.113L223.949 103.102Z" fill="white"/>
<path d="M282.863 89.2038C278.045 88.7687 274.085 90.523 271.326 93.7937L271.863 89.4072C271.888 89.1278 271.698 88.8994 271.418 88.8742L263.947 88.1995C263.667 88.1743 263.439 88.3648 263.414 88.6442L261.725 108.907L259.183 135.499C259.158 135.778 259.348 136.007 259.627 136.032L267.169 136.713C267.448 136.738 267.677 136.548 267.702 136.268L268.994 120.405C271.135 123.977 274.602 126.12 279.28 126.543C288.917 127.413 295.469 119.557 296.409 109.153C297.355 98.6785 292.779 90.0992 282.863 89.2038ZM277.563 120.615C271.837 120.098 269.13 114.996 269.963 106.553C270.783 98.2501 274.38 94.2807 280.036 94.7914C286.041 95.3337 288.526 100.556 287.776 108.866C287.076 116.617 283.638 121.164 277.563 120.615Z" fill="white"/>
<path d="M328.07 98.7066C325.941 94.9945 322.41 92.775 317.662 92.3462C308.026 91.476 301.543 99.3383 300.604 109.743C299.658 120.217 304.163 128.79 314.079 129.685C318.967 130.127 322.927 128.372 325.692 125.032L325.149 129.488C325.124 129.768 325.315 129.996 325.594 130.021L332.996 130.69C333.275 130.715 333.503 130.524 333.529 130.245L334.984 112.566L336.688 95.261C336.713 94.9817 336.522 94.7533 336.243 94.7281L328.771 94.0534C328.492 94.0281 328.264 94.2187 328.239 94.498L328.07 98.7066ZM316.9 124.168C310.959 123.701 308.416 118.333 309.167 110.023C309.873 102.202 313.317 97.5856 319.386 98.204C325.105 98.7909 327.889 103.829 327.05 112.342C326.223 120.715 322.556 124.678 316.9 124.168Z" fill="white"/>
<path d="M389.089 117.944L390.837 100.151C390.862 99.8715 390.672 99.6431 390.392 99.6179L382.851 98.9369C382.571 98.9117 382.343 99.1022 382.318 99.3815L380.78 117.194L379.657 128.849L368.135 127.809L369.118 116.141L370.796 98.3411C370.821 98.0618 370.631 97.8334 370.351 97.8082L362.81 97.1271C362.531 97.1019 362.302 97.2925 362.277 97.5718L360.809 115.391L359.686 127.046L348.094 125.999L349.078 114.331L350.825 96.5377C350.85 96.2584 350.66 96.03 350.381 96.0047L342.839 95.3237C342.56 95.2985 342.331 95.4891 342.306 95.7684L340.838 113.587L339.147 130.752C339.122 131.032 339.312 131.26 339.592 131.285L384.631 135.352L384.103 143.541C384.077 143.821 384.268 144.049 384.547 144.074L390.902 144.648C391.181 144.673 391.409 144.483 391.435 144.203L392.671 130.517C392.696 130.238 392.505 130.009 392.226 129.984L388.106 129.612L389.089 117.944Z" fill="white"/>
<path d="M405.445 128.01L406.405 118.945L408.102 101.71C408.127 101.431 407.937 101.202 407.657 101.177L400.186 100.502C399.906 100.477 399.678 100.668 399.653 100.947L398.285 117.649L396.494 135.931C396.468 136.21 396.659 136.439 396.938 136.464L405.876 137.271C406.086 137.29 406.371 137.245 406.536 136.979L423.501 112.041L422.611 120.338L420.864 138.132C420.838 138.411 421.029 138.639 421.308 138.665L428.71 139.333C428.989 139.358 429.218 139.168 429.243 138.888L430.711 121.069L432.402 103.904C432.427 103.625 432.237 103.397 431.957 103.371L423.159 102.577C422.95 102.558 422.664 102.603 422.499 102.869L405.445 128.01Z" fill="white"/>
<path d="M459.484 122.682C464.118 122.045 467.201 119.859 467.592 115.53C468.141 109.455 463.226 106.195 454.078 105.369L438.507 103.963C438.227 103.938 437.999 104.128 437.974 104.407L436.562 121.598L434.815 139.391C434.789 139.671 434.98 139.899 435.259 139.924L450.971 141.343C456.627 141.854 466.307 141.461 467.107 132.593C467.536 127.844 465.363 124.621 459.478 122.752L459.484 122.682ZM453.434 110.943C457.065 111.27 459.377 112.958 459.112 115.89C458.835 118.963 456.404 120.151 452.703 119.817L444.952 119.117L445.753 110.249L453.434 110.943ZM444.46 124.564L452.211 125.264C456.052 125.611 459.049 127.5 458.721 131.131C458.393 134.762 455.455 136.116 451.266 135.738L443.584 135.044L444.46 124.564Z" fill="white"/>
<path d="M498.947 114.137C496.818 110.425 493.288 108.206 488.539 107.777C478.903 106.907 472.421 114.769 471.481 125.173C470.535 135.648 475.041 144.221 484.956 145.116C489.844 145.558 493.804 143.803 496.57 140.463L496.027 144.919C496.001 145.198 496.192 145.427 496.471 145.452L503.873 146.12C504.152 146.146 504.381 145.955 504.406 145.676L505.862 127.997L507.565 110.692C507.59 110.412 507.4 110.184 507.121 110.159L499.649 109.484C499.37 109.459 499.141 109.649 499.116 109.929L498.947 114.137ZM487.778 139.598C481.836 139.132 479.294 133.764 480.044 125.454C480.75 117.633 484.194 113.016 490.263 113.635C495.983 114.222 498.766 119.26 497.927 127.773C497.1 136.146 493.434 140.109 487.778 139.598Z" fill="white"/>
<path d="M527.454 143.392C521.448 142.85 518.653 138.726 519.016 130.804L545.342 133.181C545.621 133.206 545.843 133.085 545.874 132.736C546.845 120.434 541.165 112.388 529.992 111.379C519.029 110.389 511.778 117.408 510.757 128.72C509.767 139.683 515.281 147.995 526.873 149.042C536.579 149.919 542.949 144.862 544.5 137.822C544.595 137.549 544.405 137.32 544.125 137.295L537.003 136.652C536.723 136.626 536.571 136.754 536.476 137.027C534.994 141.75 531.923 143.796 527.454 143.392ZM529.558 116.972C535.074 117.47 537.337 122.039 537.245 126.959L519.787 125.382C521.168 119.453 524.391 116.505 529.558 116.972Z" fill="white"/>
<path d="M569.863 142.717L562.527 115.585C562.483 115.299 562.286 115.14 562.007 115.115L552.72 114.277C552.44 114.251 552.212 114.442 552.187 114.721L550.731 132.4L549.027 149.705C549.002 149.984 549.193 150.213 549.472 150.238L555.198 150.755C555.477 150.78 555.706 150.59 555.731 150.311L557.124 134.104L557.672 126.48L557.809 123.395L565.361 151.251C565.406 151.536 565.602 151.695 565.882 151.72L570.979 152.18C571.259 152.205 571.481 152.085 571.576 151.812L583.672 126.223L583.445 128.737L582.611 136.406L581.148 152.606C581.123 152.885 581.314 153.114 581.593 153.139L588.646 153.776C588.925 153.801 589.153 153.61 589.179 153.331L590.673 136.007L592.338 118.347C592.363 118.068 592.173 117.839 591.893 117.814L582.536 116.969C582.257 116.944 582.035 117.065 581.94 117.338L569.863 142.717Z" fill="white"/>
<path d="M190.671 117.837C200.237 118.701 209.268 115.363 210.214 104.889C210.649 99.2964 207.891 94.7531 201.123 92.5228C206.924 91.4275 210.299 88.3532 210.841 82.348C211.567 74.3177 204.791 69.834 194.875 68.9386L175.044 67.1477C174.765 67.1225 174.536 67.3131 174.511 67.5924L172.526 91.1372L170.185 115.495C170.16 115.774 170.351 116.002 170.63 116.028L190.671 117.837ZM194.327 75.0136C199.215 75.455 202.574 78.0111 202.133 82.8991C201.698 87.7173 198.29 89.5919 193.053 89.1189L181.182 88.047L182.596 73.9543L194.327 75.0136ZM192.504 95.194C197.742 95.6669 202.085 98.2415 201.555 104.107C200.975 110.531 196.666 112.254 191.01 111.743L179.279 110.684L180.634 94.122L192.504 95.194Z" stroke="#12A4FF" stroke-width="74.1189" stroke-linejoin="round" mask="url(#path-3-outside-1_334_42)"/>
<path d="M225.265 84.636L217.723 83.955C217.444 83.9298 217.216 84.1203 217.191 84.3997L215.684 101.863L213.949 119.517C213.924 119.796 214.114 120.025 214.394 120.05L222.354 120.769L222.36 120.699L227.597 121.172C238.072 122.118 243.992 118.921 244.711 110.961C245.424 103.07 240.235 98.941 229.691 97.9889L224.524 97.5223L225.71 85.169C225.735 84.8896 225.544 84.6612 225.265 84.636ZM247.837 105.189L246.146 122.354C246.121 122.633 246.311 122.862 246.591 122.887L254.132 123.568C254.412 123.593 254.64 123.403 254.665 123.123L256.077 105.933L257.824 88.1394C257.85 87.8601 257.659 87.6317 257.38 87.6065L249.838 86.9255C249.559 86.9002 249.33 87.0908 249.305 87.3701L247.837 105.189ZM223.949 103.102L229.256 103.581C234.563 104.061 236.526 106.491 236.173 110.401C235.801 114.521 232.92 116.021 228.172 115.592L222.865 115.113L223.949 103.102Z" stroke="#12A4FF" stroke-width="74.1189" stroke-linejoin="round" mask="url(#path-3-outside-1_334_42)"/>
<path d="M282.863 89.2038C278.045 88.7687 274.085 90.523 271.326 93.7937L271.863 89.4072C271.888 89.1278 271.698 88.8994 271.418 88.8742L263.947 88.1995C263.667 88.1743 263.439 88.3648 263.414 88.6442L261.725 108.907L259.183 135.499C259.158 135.778 259.348 136.007 259.627 136.032L267.169 136.713C267.448 136.738 267.677 136.548 267.702 136.268L268.994 120.405C271.135 123.977 274.602 126.12 279.28 126.543C288.917 127.413 295.469 119.557 296.409 109.153C297.355 98.6785 292.779 90.0992 282.863 89.2038ZM277.563 120.615C271.837 120.098 269.13 114.996 269.963 106.553C270.783 98.2501 274.38 94.2807 280.036 94.7914C286.041 95.3337 288.526 100.556 287.776 108.866C287.076 116.617 283.638 121.164 277.563 120.615Z" stroke="#12A4FF" stroke-width="74.1189" stroke-linejoin="round" mask="url(#path-3-outside-1_334_42)"/>
<path d="M328.07 98.7066C325.941 94.9945 322.41 92.775 317.662 92.3462C308.026 91.476 301.543 99.3383 300.604 109.743C299.658 120.217 304.163 128.79 314.079 129.685C318.967 130.127 322.927 128.372 325.692 125.032L325.149 129.488C325.124 129.768 325.315 129.996 325.594 130.021L332.996 130.69C333.275 130.715 333.503 130.524 333.529 130.245L334.984 112.566L336.688 95.261C336.713 94.9817 336.522 94.7533 336.243 94.7281L328.771 94.0534C328.492 94.0281 328.264 94.2187 328.239 94.498L328.07 98.7066ZM316.9 124.168C310.959 123.701 308.416 118.333 309.167 110.023C309.873 102.202 313.317 97.5856 319.386 98.204C325.105 98.7909 327.889 103.829 327.05 112.342C326.223 120.715 322.556 124.678 316.9 124.168Z" stroke="#12A4FF" stroke-width="74.1189" stroke-linejoin="round" mask="url(#path-3-outside-1_334_42)"/>
<path d="M389.089 117.944L390.837 100.151C390.862 99.8715 390.672 99.6431 390.392 99.6179L382.851 98.9369C382.571 98.9117 382.343 99.1022 382.318 99.3815L380.78 117.194L379.657 128.849L368.135 127.809L369.118 116.141L370.796 98.3411C370.821 98.0618 370.631 97.8334 370.351 97.8082L362.81 97.1271C362.531 97.1019 362.302 97.2925 362.277 97.5718L360.809 115.391L359.686 127.046L348.094 125.999L349.078 114.331L350.825 96.5377C350.85 96.2584 350.66 96.03 350.381 96.0047L342.839 95.3237C342.56 95.2985 342.331 95.4891 342.306 95.7684L340.838 113.587L339.147 130.752C339.122 131.032 339.312 131.26 339.592 131.285L384.631 135.352L384.103 143.541C384.077 143.821 384.268 144.049 384.547 144.074L390.902 144.648C391.181 144.673 391.409 144.483 391.435 144.203L392.671 130.517C392.696 130.238 392.505 130.009 392.226 129.984L388.106 129.612L389.089 117.944Z" stroke="#12A4FF" stroke-width="74.1189" stroke-linejoin="round" mask="url(#path-3-outside-1_334_42)"/>
<path d="M405.445 128.01L406.405 118.945L408.102 101.71C408.127 101.431 407.937 101.202 407.657 101.177L400.186 100.502C399.906 100.477 399.678 100.668 399.653 100.947L398.285 117.649L396.494 135.931C396.468 136.21 396.659 136.439 396.938 136.464L405.876 137.271C406.086 137.29 406.371 137.245 406.536 136.979L423.501 112.041L422.611 120.338L420.864 138.132C420.838 138.411 421.029 138.639 421.308 138.665L428.71 139.333C428.989 139.358 429.218 139.168 429.243 138.888L430.711 121.069L432.402 103.904C432.427 103.625 432.237 103.397 431.957 103.371L423.159 102.577C422.95 102.558 422.664 102.603 422.499 102.869L405.445 128.01Z" stroke="#12A4FF" stroke-width="74.1189" stroke-linejoin="round" mask="url(#path-3-outside-1_334_42)"/>
<path d="M459.484 122.682C464.118 122.045 467.201 119.859 467.592 115.53C468.141 109.455 463.226 106.195 454.078 105.369L438.507 103.963C438.227 103.938 437.999 104.128 437.974 104.407L436.562 121.598L434.815 139.391C434.789 139.671 434.98 139.899 435.259 139.924L450.971 141.343C456.627 141.854 466.307 141.461 467.107 132.593C467.536 127.844 465.363 124.621 459.478 122.752L459.484 122.682ZM453.434 110.943C457.065 111.27 459.377 112.958 459.112 115.89C458.835 118.963 456.404 120.151 452.703 119.817L444.952 119.117L445.753 110.249L453.434 110.943ZM444.46 124.564L452.211 125.264C456.052 125.611 459.049 127.5 458.721 131.131C458.393 134.762 455.455 136.116 451.266 135.738L443.584 135.044L444.46 124.564Z" stroke="#12A4FF" stroke-width="74.1189" stroke-linejoin="round" mask="url(#path-3-outside-1_334_42)"/>
<path d="M498.947 114.137C496.818 110.425 493.288 108.206 488.539 107.777C478.903 106.907 472.421 114.769 471.481 125.173C470.535 135.648 475.041 144.221 484.956 145.116C489.844 145.558 493.804 143.803 496.57 140.463L496.027 144.919C496.001 145.198 496.192 145.427 496.471 145.452L503.873 146.12C504.152 146.146 504.381 145.955 504.406 145.676L505.862 127.997L507.565 110.692C507.59 110.412 507.4 110.184 507.121 110.159L499.649 109.484C499.37 109.459 499.141 109.649 499.116 109.929L498.947 114.137ZM487.778 139.598C481.836 139.132 479.294 133.764 480.044 125.454C480.75 117.633 484.194 113.016 490.263 113.635C495.983 114.222 498.766 119.26 497.927 127.773C497.1 136.146 493.434 140.109 487.778 139.598Z" stroke="#12A4FF" stroke-width="74.1189" stroke-linejoin="round" mask="url(#path-3-outside-1_334_42)"/>
<path d="M527.454 143.392C521.448 142.85 518.653 138.726 519.016 130.804L545.342 133.181C545.621 133.206 545.843 133.085 545.874 132.736C546.845 120.434 541.165 112.388 529.992 111.379C519.029 110.389 511.778 117.408 510.757 128.72C509.767 139.683 515.281 147.995 526.873 149.042C536.579 149.919 542.949 144.862 544.5 137.822C544.595 137.549 544.405 137.32 544.125 137.295L537.003 136.652C536.723 136.626 536.571 136.754 536.476 137.027C534.994 141.75 531.923 143.796 527.454 143.392ZM529.558 116.972C535.074 117.47 537.337 122.039 537.245 126.959L519.787 125.382C521.168 119.453 524.391 116.505 529.558 116.972Z" stroke="#12A4FF" stroke-width="74.1189" stroke-linejoin="round" mask="url(#path-3-outside-1_334_42)"/>
<path d="M569.863 142.717L562.527 115.585C562.483 115.299 562.286 115.14 562.007 115.115L552.72 114.277C552.44 114.251 552.212 114.442 552.187 114.721L550.731 132.4L549.027 149.705C549.002 149.984 549.193 150.213 549.472 150.238L555.198 150.755C555.477 150.78 555.706 150.59 555.731 150.311L557.124 134.104L557.672 126.48L557.809 123.395L565.361 151.251C565.406 151.536 565.602 151.695 565.882 151.72L570.979 152.18C571.259 152.205 571.481 152.085 571.576 151.812L583.672 126.223L583.445 128.737L582.611 136.406L581.148 152.606C581.123 152.885 581.314 153.114 581.593 153.139L588.646 153.776C588.925 153.801 589.153 153.61 589.179 153.331L590.673 136.007L592.338 118.347C592.363 118.068 592.173 117.839 591.893 117.814L582.536 116.969C582.257 116.944 582.035 117.065 581.94 117.338L569.863 142.717Z" stroke="#12A4FF" stroke-width="74.1189" stroke-linejoin="round" mask="url(#path-3-outside-1_334_42)"/>
</svg>
