<svg width="7705" height="297" viewBox="0 0 7705 297" fill="none" xmlns="http://www.w3.org/2000/svg">
<rect x="0.655029" y="0.193359" width="7703.78" height="296.54" fill="#F08603"/>
<path d="M1072.81 105.626C1072.81 75.8269 1048.65 51.6699 1018.85 51.6699L906.444 51.6699C891.544 51.6699 879.466 63.7484 879.466 78.648C879.466 93.5476 891.544 105.626 906.444 105.626L1009.86 105.626C1014.83 105.626 1018.85 109.652 1018.85 114.619C1018.85 119.585 1014.83 123.612 1009.86 123.612H933.422C903.623 123.612 879.466 147.769 879.466 177.568L879.466 191.057C879.466 220.856 903.897 245.013 933.696 245.013H1045.83C1060.73 245.013 1072.81 232.935 1072.81 218.035C1072.81 203.135 1060.73 191.057 1045.83 191.057H940.441C936.716 191.057 933.696 188.037 933.696 184.312C933.696 180.587 936.716 177.568 940.441 177.568H1018.85C1048.65 177.568 1072.81 153.411 1072.81 123.612V105.626Z" fill="white"/>
<path d="M1087.42 78.648C1087.42 63.7484 1099.5 51.6699 1114.4 51.6699H1226.81C1256.61 51.6699 1280.77 75.8269 1280.77 105.626V191.057C1280.77 220.856 1256.61 245.013 1226.81 245.013H1114.4C1099.5 245.013 1087.42 232.934 1087.42 218.035C1087.42 203.135 1099.5 191.057 1114.4 191.057H1220.07C1223.79 191.057 1226.81 188.037 1226.81 184.312C1226.81 180.587 1223.79 177.568 1220.07 177.568H1114.4C1099.5 177.568 1087.42 165.489 1087.42 150.59C1087.42 135.69 1099.5 123.612 1114.4 123.612L1217.82 123.612C1222.78 123.612 1226.81 119.585 1226.81 114.619C1226.81 109.652 1222.78 105.626 1217.82 105.626L1114.4 105.626C1099.5 105.626 1087.42 93.5476 1087.42 78.648Z" fill="white"/>
<path fill-rule="evenodd" clip-rule="evenodd" d="M656.897 101.13C656.897 73.8139 634.753 51.6699 607.437 51.6699H513.014C485.698 51.6699 463.554 73.8139 463.554 101.13V195.553C463.554 222.869 485.698 245.013 513.014 245.013H607.437C634.753 245.013 656.897 222.869 656.897 195.553V101.13ZM596.196 119.115C599.921 119.115 602.941 116.096 602.941 112.371C602.941 108.646 599.921 105.626 596.196 105.626L524.255 105.626C520.53 105.626 517.51 108.646 517.51 112.371C517.51 116.096 520.53 119.115 524.255 119.115L596.196 119.115ZM602.941 182.064C602.941 177.098 598.915 173.071 593.948 173.071H526.503C521.536 173.071 517.51 177.098 517.51 182.064C517.51 187.031 521.536 191.057 526.503 191.057H593.948C598.915 191.057 602.941 187.031 602.941 182.064Z" fill="white"/>
<path fill-rule="evenodd" clip-rule="evenodd" d="M448.941 105.626C448.941 75.8269 424.784 51.6699 394.985 51.6699H309.554C279.755 51.6699 255.598 75.8269 255.598 105.626V119.115C255.598 148.914 279.755 173.071 309.554 173.071L385.992 173.071C390.958 173.071 394.985 177.098 394.985 182.064C394.985 187.031 390.958 191.057 385.992 191.057H282.576C267.676 191.057 255.598 203.135 255.598 218.035C255.598 232.934 267.676 245.013 282.576 245.013H394.985C424.784 245.013 448.941 220.856 448.941 191.057V105.626ZM388.24 119.115C391.965 119.115 394.985 116.096 394.985 112.371C394.985 108.646 391.965 105.626 388.24 105.626L316.298 105.626C312.573 105.626 309.554 108.646 309.554 112.371C309.554 116.096 312.573 119.115 316.298 119.115L388.24 119.115Z" fill="white"/>
<path d="M187.028 245.013H74.6197C59.7201 245.013 47.6416 232.934 47.6416 218.035C47.6416 203.135 59.7201 191.057 74.6197 191.057H178.036C183.002 191.057 187.028 187.031 187.028 182.064C187.028 177.098 183.002 173.071 178.036 173.071H101.598C71.7986 173.071 47.6416 148.914 47.6416 119.115V105.626C47.6416 75.8269 71.7986 51.6699 101.598 51.6699H214.007C228.906 51.6699 240.985 63.7484 240.985 78.648C240.985 93.5476 228.906 105.626 214.007 105.626H108.342C104.617 105.626 101.598 108.646 101.598 112.371C101.598 116.096 104.617 119.115 108.342 119.115H187.028C216.828 119.115 240.985 143.272 240.985 173.071V191.057C240.985 220.856 216.828 245.013 187.028 245.013Z" fill="white"/>
<path fill-rule="evenodd" clip-rule="evenodd" d="M836.559 103.762C852.185 103.762 864.853 91.0943 864.853 75.4679C864.853 59.8415 852.185 47.1738 836.559 47.1738H728.098C696.845 47.1738 671.51 72.5092 671.51 103.762V193.36C671.51 224.613 696.845 249.948 728.098 249.948H808.265C839.518 249.948 864.853 224.613 864.853 193.36V174.497C864.853 143.245 839.518 117.909 808.265 117.909H735.172C731.265 117.909 728.098 114.742 728.098 110.836C728.098 106.929 731.265 103.762 735.172 103.762L836.559 103.762ZM737.53 174.497C732.321 174.497 728.098 178.72 728.098 183.929C728.098 189.137 732.321 193.36 737.53 193.36H798.834C804.042 193.36 808.265 189.137 808.265 183.929C808.265 178.72 804.042 174.497 798.834 174.497H737.53Z" fill="white"/>
<path d="M2547.61 105.632C2547.61 75.8328 2523.46 51.6758 2493.66 51.6758L2381.25 51.6758C2366.35 51.6758 2354.27 63.7543 2354.27 78.6539C2354.27 93.5535 2366.35 105.632 2381.25 105.632L2484.66 105.632C2489.63 105.632 2493.66 109.658 2493.66 114.625C2493.66 119.591 2489.63 123.617 2484.66 123.617H2408.23C2378.43 123.617 2354.27 147.774 2354.27 177.574L2354.27 191.063C2354.27 220.862 2378.7 245.019 2408.5 245.019H2520.63C2535.53 245.019 2547.61 232.94 2547.61 218.041C2547.61 203.141 2535.53 191.063 2520.63 191.063H2415.24C2411.52 191.063 2408.5 188.043 2408.5 184.318C2408.5 180.593 2411.52 177.574 2415.24 177.574H2493.66C2523.46 177.574 2547.61 153.417 2547.61 123.617V105.632Z" fill="white"/>
<path d="M1938.36 78.6519C1938.36 63.7523 1950.44 51.6738 1965.33 51.6738H2077.74C2107.54 51.6738 2131.7 75.8308 2131.7 105.63V191.061C2131.7 220.86 2107.54 245.017 2077.74 245.017H1965.33C1950.44 245.017 1938.36 232.938 1938.36 218.039C1938.36 203.139 1950.44 191.061 1965.33 191.061H2071C2074.72 191.061 2077.74 188.041 2077.74 184.316C2077.74 180.591 2074.72 177.572 2071 177.572H1965.33C1950.44 177.572 1938.36 165.493 1938.36 150.594C1938.36 135.694 1950.44 123.615 1965.33 123.615L2068.75 123.615C2073.72 123.615 2077.74 119.589 2077.74 114.623C2077.74 109.656 2073.72 105.63 2068.75 105.63L1965.33 105.63C1950.44 105.63 1938.36 93.5515 1938.36 78.6519Z" fill="white"/>
<path fill-rule="evenodd" clip-rule="evenodd" d="M2311.36 103.766C2326.99 103.766 2339.66 91.0983 2339.66 75.4718C2339.66 59.8454 2326.99 47.1777 2311.36 47.1777H2202.9C2171.65 47.1777 2146.31 72.5131 2146.31 103.766V193.364C2146.31 224.617 2171.65 249.952 2202.9 249.952H2283.07C2314.32 249.952 2339.66 224.617 2339.66 193.364V174.501C2339.66 143.248 2314.32 117.913 2283.07 117.913H2209.97C2206.07 117.913 2202.9 114.746 2202.9 110.839C2202.9 106.933 2206.07 103.766 2209.97 103.766L2311.36 103.766ZM2212.33 174.501C2207.12 174.501 2202.9 178.724 2202.9 183.933C2202.9 189.141 2207.12 193.364 2212.33 193.364H2273.64C2278.84 193.364 2283.07 189.141 2283.07 183.933C2283.07 178.724 2278.84 174.501 2273.64 174.501H2212.33Z" fill="white"/>
<path fill-rule="evenodd" clip-rule="evenodd" d="M1507.83 101.134C1507.83 73.8178 1485.69 51.6738 1458.37 51.6738H1363.95C1336.63 51.6738 1314.49 73.8178 1314.49 101.134V195.557C1314.49 222.873 1336.63 245.017 1363.95 245.017H1458.37C1485.69 245.017 1507.83 222.873 1507.83 195.557V101.134ZM1447.13 119.119C1450.86 119.119 1453.87 116.099 1453.87 112.375C1453.87 108.65 1450.86 105.63 1447.13 105.63L1375.19 105.63C1371.46 105.63 1368.44 108.65 1368.44 112.375C1368.44 116.099 1371.46 119.119 1375.19 119.119L1447.13 119.119ZM1453.87 182.068C1453.87 177.101 1449.85 173.075 1444.88 173.075H1377.44C1372.47 173.075 1368.44 177.101 1368.44 182.068C1368.44 187.035 1372.47 191.061 1377.44 191.061H1444.88C1449.85 191.061 1453.87 187.035 1453.87 182.068Z" fill="white"/>
<path fill-rule="evenodd" clip-rule="evenodd" d="M1923.74 105.63C1923.74 75.8308 1899.59 51.6738 1869.79 51.6738H1784.36C1754.56 51.6738 1730.4 75.8308 1730.4 105.63V119.119C1730.4 148.918 1754.56 173.075 1784.36 173.075L1860.79 173.075C1865.76 173.075 1869.79 177.101 1869.79 182.068C1869.79 187.035 1865.76 191.061 1860.79 191.061H1757.38C1742.48 191.061 1730.4 203.139 1730.4 218.039C1730.4 232.938 1742.48 245.017 1757.38 245.017H1869.79C1899.59 245.017 1923.74 220.86 1923.74 191.061V105.63ZM1863.04 119.119C1866.77 119.119 1869.79 116.099 1869.79 112.375C1869.79 108.65 1866.77 105.63 1863.04 105.63L1791.1 105.63C1787.38 105.63 1784.36 108.65 1784.36 112.375C1784.36 116.099 1787.38 119.119 1791.1 119.119L1863.04 119.119Z" fill="white"/>
<path d="M1661.83 245.017H1549.42C1534.52 245.017 1522.44 232.938 1522.44 218.039C1522.44 203.139 1534.52 191.061 1549.42 191.061H1652.84C1657.8 191.061 1661.83 187.035 1661.83 182.068C1661.83 177.101 1657.8 173.075 1652.84 173.075H1576.4C1546.6 173.075 1522.44 148.918 1522.44 119.119V105.63C1522.44 75.8308 1546.6 51.6738 1576.4 51.6738H1688.81C1703.71 51.6738 1715.79 63.7523 1715.79 78.6519C1715.79 93.5515 1703.71 105.63 1688.81 105.63H1583.14C1579.42 105.63 1576.4 108.65 1576.4 112.375C1576.4 116.099 1579.42 119.119 1583.14 119.119H1661.83C1691.63 119.119 1715.79 143.276 1715.79 173.075V191.061C1715.79 220.86 1691.63 245.017 1661.83 245.017Z" fill="white"/>
<path d="M3618.46 100.411C3618.46 70.6121 3594.3 46.4551 3564.5 46.4551L3452.09 46.4551C3437.19 46.4551 3425.12 58.5336 3425.12 73.4332C3425.12 88.3328 3437.19 100.411 3452.09 100.411L3555.51 100.411C3560.48 100.411 3564.5 104.437 3564.5 109.404C3564.5 114.371 3560.48 118.397 3555.51 118.397H3479.07C3449.27 118.397 3425.12 142.554 3425.12 172.353L3425.12 185.842C3425.12 215.641 3449.55 239.798 3479.35 239.798H3591.48C3606.38 239.798 3618.46 227.72 3618.46 212.82C3618.46 197.92 3606.38 185.842 3591.48 185.842H3486.09C3482.37 185.842 3479.35 182.822 3479.35 179.097C3479.35 175.373 3482.37 172.353 3486.09 172.353H3564.5C3594.3 172.353 3618.46 148.196 3618.46 118.397V100.411Z" fill="white"/>
<path d="M3633.07 73.4351C3633.07 58.5355 3645.15 46.457 3660.05 46.457H3772.46C3802.26 46.457 3826.41 70.6141 3826.41 100.413V185.844C3826.41 215.643 3802.26 239.8 3772.46 239.8H3660.05C3645.15 239.8 3633.07 227.722 3633.07 212.822C3633.07 197.922 3645.15 185.844 3660.05 185.844H3765.71C3769.44 185.844 3772.46 182.824 3772.46 179.099C3772.46 175.374 3769.44 172.355 3765.71 172.355H3660.05C3645.15 172.355 3633.07 160.276 3633.07 145.377C3633.07 130.477 3645.15 118.399 3660.05 118.399L3763.47 118.399C3768.43 118.399 3772.46 114.372 3772.46 109.406C3772.46 104.439 3768.43 100.413 3763.47 100.413L3660.05 100.413C3645.15 100.413 3633.07 88.3347 3633.07 73.4351Z" fill="white"/>
<path fill-rule="evenodd" clip-rule="evenodd" d="M3202.55 95.9169C3202.55 68.601 3180.4 46.457 3153.09 46.457H3058.66C3031.35 46.457 3009.2 68.601 3009.2 95.9169V190.34C3009.2 217.656 3031.35 239.8 3058.66 239.8H3153.09C3180.4 239.8 3202.55 217.656 3202.55 190.34V95.9169ZM3141.85 113.902C3145.57 113.902 3148.59 110.883 3148.59 107.158C3148.59 103.433 3145.57 100.413 3141.85 100.413L3069.9 100.413C3066.18 100.413 3063.16 103.433 3063.16 107.158C3063.16 110.883 3066.18 113.902 3069.9 113.902L3141.85 113.902ZM3148.59 176.851C3148.59 171.885 3144.56 167.859 3139.6 167.859H3072.15C3067.19 167.859 3063.16 171.885 3063.16 176.851C3063.16 181.818 3067.19 185.844 3072.15 185.844H3139.6C3144.56 185.844 3148.59 181.818 3148.59 176.851Z" fill="white"/>
<path fill-rule="evenodd" clip-rule="evenodd" d="M2994.59 100.411C2994.59 70.6121 2970.43 46.4551 2940.63 46.4551H2855.2C2825.4 46.4551 2801.25 70.6121 2801.25 100.411V113.9C2801.25 143.7 2825.4 167.857 2855.2 167.857L2931.64 167.857C2936.61 167.857 2940.63 171.883 2940.63 176.849C2940.63 181.816 2936.61 185.842 2931.64 185.842H2828.22C2813.33 185.842 2801.25 197.92 2801.25 212.82C2801.25 227.72 2813.33 239.798 2828.22 239.798H2940.63C2970.43 239.798 2994.59 215.641 2994.59 185.842V100.411ZM2933.89 113.9C2937.61 113.9 2940.63 110.881 2940.63 107.156C2940.63 103.431 2937.61 100.411 2933.89 100.411L2861.95 100.411C2858.22 100.411 2855.2 103.431 2855.2 107.156C2855.2 110.881 2858.22 113.9 2861.95 113.9L2933.89 113.9Z" fill="white"/>
<path d="M2732.68 239.798H2620.27C2605.37 239.798 2593.29 227.72 2593.29 212.82C2593.29 197.92 2605.37 185.842 2620.27 185.842H2723.68C2728.65 185.842 2732.68 181.816 2732.68 176.849C2732.68 171.883 2728.65 167.857 2723.68 167.857H2647.25C2617.45 167.857 2593.29 143.7 2593.29 113.9V100.411C2593.29 70.6121 2617.45 46.4551 2647.25 46.4551H2759.66C2774.56 46.4551 2786.63 58.5336 2786.63 73.4332C2786.63 88.3328 2774.56 100.411 2759.66 100.411H2653.99C2650.27 100.411 2647.25 103.431 2647.25 107.156C2647.25 110.881 2650.27 113.9 2653.99 113.9H2732.68C2762.48 113.9 2786.63 138.057 2786.63 167.857V185.842C2786.63 215.641 2762.48 239.798 2732.68 239.798Z" fill="white"/>
<path fill-rule="evenodd" clip-rule="evenodd" d="M3382.21 98.5472C3397.83 98.5472 3410.5 85.8795 3410.5 70.2531C3410.5 54.6267 3397.83 41.959 3382.21 41.959H3273.75C3242.49 41.959 3217.16 67.2944 3217.16 98.5472V188.145C3217.16 219.398 3242.49 244.733 3273.75 244.733H3353.91C3385.17 244.733 3410.5 219.398 3410.5 188.145V169.282C3410.5 138.03 3385.17 112.694 3353.91 112.694H3280.82C3276.91 112.694 3273.75 109.527 3273.75 105.621C3273.75 101.714 3276.91 98.5472 3280.82 98.5472L3382.21 98.5472ZM3283.18 169.282C3277.97 169.282 3273.75 173.505 3273.75 178.714C3273.75 183.923 3277.97 188.145 3283.18 188.145H3344.48C3349.69 188.145 3353.91 183.923 3353.91 178.714C3353.91 173.505 3349.69 169.282 3344.48 169.282H3283.18Z" fill="white"/>
<path d="M5093.26 100.413C5093.26 70.614 5069.1 46.457 5039.3 46.457L4926.9 46.457C4912 46.457 4899.92 58.5355 4899.92 73.4351C4899.92 88.3347 4912 100.413 4926.9 100.413L5030.31 100.413C5035.28 100.413 5039.3 104.439 5039.3 109.406C5039.3 114.372 5035.28 118.399 5030.31 118.399H4953.87C4924.08 118.399 4899.92 142.556 4899.92 172.355L4899.92 185.844C4899.92 215.643 4924.35 239.8 4954.15 239.8H5066.28C5081.18 239.8 5093.26 227.722 5093.26 212.822C5093.26 197.922 5081.18 185.844 5066.28 185.844H4960.89C4957.17 185.844 4954.15 182.824 4954.15 179.099C4954.15 175.374 4957.17 172.355 4960.89 172.355H5039.3C5069.1 172.355 5093.26 148.198 5093.26 118.399V100.413Z" fill="white"/>
<path d="M4484.01 73.4332C4484.01 58.5336 4496.08 46.4551 4510.98 46.4551H4623.39C4653.19 46.4551 4677.35 70.6121 4677.35 100.411V185.842C4677.35 215.641 4653.19 239.798 4623.39 239.798H4510.98C4496.08 239.798 4484.01 227.72 4484.01 212.82C4484.01 197.92 4496.08 185.842 4510.98 185.842H4616.65C4620.37 185.842 4623.39 182.822 4623.39 179.097C4623.39 175.373 4620.37 172.353 4616.65 172.353H4510.98C4496.08 172.353 4484.01 160.274 4484.01 145.375C4484.01 130.475 4496.08 118.397 4510.98 118.397L4614.4 118.397C4619.37 118.397 4623.39 114.371 4623.39 109.404C4623.39 104.437 4619.37 100.411 4614.4 100.411L4510.98 100.411C4496.08 100.411 4484.01 88.3328 4484.01 73.4332Z" fill="white"/>
<path fill-rule="evenodd" clip-rule="evenodd" d="M4857.01 98.5472C4872.64 98.5472 4885.31 85.8795 4885.31 70.2531C4885.31 54.6267 4872.64 41.959 4857.01 41.959H4748.55C4717.3 41.959 4691.96 67.2944 4691.96 98.5472V188.145C4691.96 219.398 4717.3 244.733 4748.55 244.733H4828.72C4859.97 244.733 4885.31 219.398 4885.31 188.145V169.282C4885.31 138.03 4859.97 112.694 4828.72 112.694H4755.62C4751.72 112.694 4748.55 109.527 4748.55 105.621C4748.55 101.714 4751.72 98.5472 4755.62 98.5472L4857.01 98.5472ZM4757.98 169.282C4752.77 169.282 4748.55 173.505 4748.55 178.714C4748.55 183.923 4752.77 188.145 4757.98 188.145H4819.29C4824.49 188.145 4828.72 183.923 4828.72 178.714C4828.72 173.505 4824.49 169.282 4819.29 169.282H4757.98Z" fill="white"/>
<path fill-rule="evenodd" clip-rule="evenodd" d="M4053.48 95.9149C4053.48 68.599 4031.34 46.4551 4004.02 46.4551H3909.6C3882.28 46.4551 3860.14 68.599 3860.14 95.9149V190.338C3860.14 217.654 3882.28 239.798 3909.6 239.798H4004.02C4031.34 239.798 4053.48 217.654 4053.48 190.338V95.9149ZM3992.78 113.9C3996.5 113.9 3999.52 110.881 3999.52 107.156C3999.52 103.431 3996.5 100.411 3992.78 100.411L3920.84 100.411C3917.11 100.411 3914.09 103.431 3914.09 107.156C3914.09 110.881 3917.11 113.9 3920.84 113.9L3992.78 113.9ZM3999.52 176.849C3999.52 171.883 3995.5 167.857 3990.53 167.857H3923.09C3918.12 167.857 3914.09 171.883 3914.09 176.849C3914.09 181.816 3918.12 185.842 3923.09 185.842H3990.53C3995.5 185.842 3999.52 181.816 3999.52 176.849Z" fill="white"/>
<path fill-rule="evenodd" clip-rule="evenodd" d="M4469.39 100.411C4469.39 70.6121 4445.24 46.4551 4415.44 46.4551H4330.01C4300.21 46.4551 4276.05 70.6121 4276.05 100.411V113.9C4276.05 143.7 4300.21 167.857 4330.01 167.857L4406.44 167.857C4411.41 167.857 4415.44 171.883 4415.44 176.849C4415.44 181.816 4411.41 185.842 4406.44 185.842H4303.03C4288.13 185.842 4276.05 197.92 4276.05 212.82C4276.05 227.72 4288.13 239.798 4303.03 239.798H4415.44C4445.24 239.798 4469.39 215.641 4469.39 185.842V100.411ZM4408.69 113.9C4412.42 113.9 4415.44 110.881 4415.44 107.156C4415.44 103.431 4412.42 100.411 4408.69 100.411L4336.75 100.411C4333.03 100.411 4330.01 103.431 4330.01 107.156C4330.01 110.881 4333.03 113.9 4336.75 113.9L4408.69 113.9Z" fill="white"/>
<path d="M4207.48 239.798H4095.07C4080.17 239.798 4068.09 227.72 4068.09 212.82C4068.09 197.92 4080.17 185.842 4095.07 185.842H4198.49C4203.45 185.842 4207.48 181.816 4207.48 176.849C4207.48 171.883 4203.45 167.857 4198.49 167.857H4122.05C4092.25 167.857 4068.09 143.7 4068.09 113.9V100.411C4068.09 70.6121 4092.25 46.4551 4122.05 46.4551H4234.46C4249.36 46.4551 4261.44 58.5336 4261.44 73.4332C4261.44 88.3328 4249.36 100.411 4234.46 100.411H4128.79C4125.07 100.411 4122.05 103.431 4122.05 107.156C4122.05 110.881 4125.07 113.9 4128.79 113.9H4207.48C4237.28 113.9 4261.44 138.057 4261.44 167.857V185.842C4261.44 215.641 4237.28 239.798 4207.48 239.798Z" fill="white"/>
<path d="M6159.93 105.632C6159.93 75.8328 6135.78 51.6758 6105.98 51.6758L5993.57 51.6758C5978.67 51.6758 5966.59 63.7543 5966.59 78.6539C5966.59 93.5535 5978.67 105.632 5993.57 105.632L6096.98 105.632C6101.95 105.632 6105.98 109.658 6105.98 114.625C6105.98 119.591 6101.95 123.617 6096.98 123.617H6020.55C5990.75 123.617 5966.59 147.774 5966.59 177.574L5966.59 191.063C5966.59 220.862 5991.02 245.019 6020.82 245.019H6132.96C6147.85 245.019 6159.93 232.94 6159.93 218.041C6159.93 203.141 6147.85 191.063 6132.96 191.063H6027.57C6023.84 191.063 6020.82 188.043 6020.82 184.318C6020.82 180.593 6023.84 177.574 6027.57 177.574H6105.98C6135.78 177.574 6159.93 153.417 6159.93 123.617V105.632Z" fill="white"/>
<path d="M6174.55 78.6539C6174.55 63.7543 6186.62 51.6758 6201.52 51.6758H6313.93C6343.73 51.6758 6367.89 75.8328 6367.89 105.632V191.063C6367.89 220.862 6343.73 245.019 6313.93 245.019H6201.52C6186.62 245.019 6174.55 232.94 6174.55 218.041C6174.55 203.141 6186.62 191.063 6201.52 191.063H6307.19C6310.91 191.063 6313.93 188.043 6313.93 184.318C6313.93 180.593 6310.91 177.574 6307.19 177.574H6201.52C6186.62 177.574 6174.55 165.495 6174.55 150.595C6174.55 135.696 6186.62 123.617 6201.52 123.617L6304.94 123.617C6309.91 123.617 6313.93 119.591 6313.93 114.625C6313.93 109.658 6309.91 105.632 6304.94 105.632L6201.52 105.632C6186.62 105.632 6174.55 93.5535 6174.55 78.6539Z" fill="white"/>
<path fill-rule="evenodd" clip-rule="evenodd" d="M5744.02 101.136C5744.02 73.8197 5721.88 51.6758 5694.56 51.6758H5600.14C5572.82 51.6758 5550.68 73.8197 5550.68 101.136V195.559C5550.68 222.875 5572.82 245.019 5600.14 245.019H5694.56C5721.88 245.019 5744.02 222.875 5744.02 195.559V101.136ZM5683.32 119.121C5687.04 119.121 5690.06 116.101 5690.06 112.377C5690.06 108.652 5687.04 105.632 5683.32 105.632L5611.38 105.632C5607.65 105.632 5604.63 108.652 5604.63 112.377C5604.63 116.101 5607.65 119.121 5611.38 119.121L5683.32 119.121ZM5690.06 182.07C5690.06 177.103 5686.04 173.077 5681.07 173.077H5613.63C5608.66 173.077 5604.63 177.103 5604.63 182.07C5604.63 187.036 5608.66 191.063 5613.63 191.063H5681.07C5686.04 191.063 5690.06 187.036 5690.06 182.07Z" fill="white"/>
<path fill-rule="evenodd" clip-rule="evenodd" d="M5536.06 105.634C5536.06 75.8348 5511.91 51.6777 5482.11 51.6777H5396.68C5366.88 51.6777 5342.72 75.8348 5342.72 105.634V119.123C5342.72 148.922 5366.88 173.079 5396.68 173.079L5473.12 173.079C5478.08 173.079 5482.11 177.105 5482.11 182.072C5482.11 187.038 5478.08 191.065 5473.12 191.065H5369.7C5354.8 191.065 5342.72 203.143 5342.72 218.043C5342.72 232.942 5354.8 245.021 5369.7 245.021H5482.11C5511.91 245.021 5536.06 220.864 5536.06 191.065V105.634ZM5475.36 119.123C5479.09 119.123 5482.11 116.103 5482.11 112.378C5482.11 108.654 5479.09 105.634 5475.36 105.634L5403.42 105.634C5399.7 105.634 5396.68 108.654 5396.68 112.378C5396.68 116.103 5399.7 119.123 5403.42 119.123L5475.36 119.123Z" fill="white"/>
<path d="M5274.15 245.019H5161.74C5146.84 245.019 5134.77 232.94 5134.77 218.041C5134.77 203.141 5146.84 191.063 5161.74 191.063H5265.16C5270.13 191.063 5274.15 187.036 5274.15 182.07C5274.15 177.103 5270.13 173.077 5265.16 173.077H5188.72C5158.92 173.077 5134.77 148.92 5134.77 119.121V105.632C5134.77 75.8328 5158.92 51.6758 5188.72 51.6758H5301.13C5316.03 51.6758 5328.11 63.7543 5328.11 78.6539C5328.11 93.5535 5316.03 105.632 5301.13 105.632H5195.47C5191.74 105.632 5188.72 108.652 5188.72 112.377C5188.72 116.101 5191.74 119.121 5195.47 119.121H5274.15C5303.95 119.121 5328.11 143.278 5328.11 173.077V191.063C5328.11 220.862 5303.95 245.019 5274.15 245.019Z" fill="white"/>
<path fill-rule="evenodd" clip-rule="evenodd" d="M5923.68 103.768C5939.31 103.768 5951.98 91.1002 5951.98 75.4738C5951.98 59.8474 5939.31 47.1797 5923.68 47.1797H5815.22C5783.97 47.1797 5758.63 72.5151 5758.63 103.768V193.366C5758.63 224.619 5783.97 249.954 5815.22 249.954H5895.39C5926.64 249.954 5951.98 224.619 5951.98 193.366V174.503C5951.98 143.25 5926.64 117.915 5895.39 117.915H5822.3C5818.39 117.915 5815.22 114.748 5815.22 110.841C5815.22 106.935 5818.39 103.768 5822.3 103.768L5923.68 103.768ZM5824.65 174.503C5819.44 174.503 5815.22 178.726 5815.22 183.935C5815.22 189.143 5819.44 193.366 5824.65 193.366H5885.96C5891.17 193.366 5895.39 189.143 5895.39 183.935C5895.39 178.726 5891.17 174.503 5885.96 174.503H5824.65Z" fill="white"/>
<path d="M7634.74 105.632C7634.74 75.8328 7610.58 51.6758 7580.78 51.6758L7468.37 51.6758C7453.47 51.6758 7441.39 63.7543 7441.39 78.6539C7441.39 93.5535 7453.47 105.632 7468.37 105.632L7571.79 105.632C7576.75 105.632 7580.78 109.658 7580.78 114.625C7580.78 119.591 7576.75 123.617 7571.79 123.617H7495.35C7465.55 123.617 7441.39 147.774 7441.39 177.574L7441.39 191.063C7441.39 220.862 7465.82 245.019 7495.62 245.019H7607.76C7622.66 245.019 7634.74 232.94 7634.74 218.041C7634.74 203.141 7622.66 191.063 7607.76 191.063H7502.37C7498.64 191.063 7495.62 188.043 7495.62 184.318C7495.62 180.593 7498.64 177.574 7502.37 177.574H7580.78C7610.58 177.574 7634.74 153.417 7634.74 123.617V105.632Z" fill="white"/>
<path d="M7025.48 78.6539C7025.48 63.7543 7037.56 51.6758 7052.46 51.6758H7164.87C7194.67 51.6758 7218.82 75.8328 7218.82 105.632V191.063C7218.82 220.862 7194.67 245.019 7164.87 245.019H7052.46C7037.56 245.019 7025.48 232.94 7025.48 218.041C7025.48 203.141 7037.56 191.063 7052.46 191.063H7158.12C7161.85 191.063 7164.87 188.043 7164.87 184.318C7164.87 180.593 7161.85 177.574 7158.12 177.574H7052.46C7037.56 177.574 7025.48 165.495 7025.48 150.595C7025.48 135.696 7037.56 123.617 7052.46 123.617L7155.87 123.617C7160.84 123.617 7164.87 119.591 7164.87 114.625C7164.87 109.658 7160.84 105.632 7155.87 105.632L7052.46 105.632C7037.56 105.632 7025.48 93.5535 7025.48 78.6539Z" fill="white"/>
<path fill-rule="evenodd" clip-rule="evenodd" d="M7398.48 103.768C7414.11 103.768 7426.78 91.1002 7426.78 75.4738C7426.78 59.8474 7414.11 47.1797 7398.48 47.1797H7290.02C7258.77 47.1797 7233.44 72.5151 7233.44 103.768V193.366C7233.44 224.619 7258.77 249.954 7290.02 249.954H7370.19C7401.44 249.954 7426.78 224.619 7426.78 193.366V174.503C7426.78 143.25 7401.44 117.915 7370.19 117.915H7297.1C7293.19 117.915 7290.02 114.748 7290.02 110.841C7290.02 106.935 7293.19 103.768 7297.1 103.768L7398.48 103.768ZM7299.46 174.503C7294.25 174.503 7290.02 178.726 7290.02 183.935C7290.02 189.143 7294.25 193.366 7299.46 193.366H7360.76C7365.97 193.366 7370.19 189.143 7370.19 183.935C7370.19 178.726 7365.97 174.503 7360.76 174.503H7299.46Z" fill="white"/>
<path fill-rule="evenodd" clip-rule="evenodd" d="M6594.95 101.136C6594.95 73.8197 6572.81 51.6758 6545.49 51.6758H6451.07C6423.75 51.6758 6401.61 73.8197 6401.61 101.136V195.559C6401.61 222.875 6423.75 245.019 6451.07 245.019H6545.49C6572.81 245.019 6594.95 222.875 6594.95 195.559V101.136ZM6534.25 119.121C6537.98 119.121 6541 116.101 6541 112.377C6541 108.652 6537.98 105.632 6534.25 105.632L6462.31 105.632C6458.59 105.632 6455.57 108.652 6455.57 112.377C6455.57 116.101 6458.59 119.121 6462.31 119.121L6534.25 119.121ZM6541 182.07C6541 177.103 6536.97 173.077 6532 173.077H6464.56C6459.59 173.077 6455.57 177.103 6455.57 182.07C6455.57 187.036 6459.59 191.063 6464.56 191.063H6532C6536.97 191.063 6541 187.036 6541 182.07Z" fill="white"/>
<path fill-rule="evenodd" clip-rule="evenodd" d="M7010.87 105.634C7010.87 75.8348 6986.71 51.6777 6956.91 51.6777H6871.48C6841.68 51.6777 6817.52 75.8348 6817.52 105.634V119.123C6817.52 148.922 6841.68 173.079 6871.48 173.079L6947.92 173.079C6952.88 173.079 6956.91 177.105 6956.91 182.072C6956.91 187.038 6952.88 191.065 6947.92 191.065H6844.5C6829.6 191.065 6817.52 203.143 6817.52 218.043C6817.52 232.942 6829.6 245.021 6844.5 245.021H6956.91C6986.71 245.021 7010.87 220.864 7010.87 191.065V105.634ZM6950.17 119.123C6953.89 119.123 6956.91 116.103 6956.91 112.378C6956.91 108.654 6953.89 105.634 6950.17 105.634L6878.22 105.634C6874.5 105.634 6871.48 108.654 6871.48 112.378C6871.48 116.103 6874.5 119.123 6878.22 119.123L6950.17 119.123Z" fill="white"/>
<path d="M6748.95 245.019H6636.54C6621.65 245.019 6609.57 232.94 6609.57 218.041C6609.57 203.141 6621.65 191.063 6636.54 191.063H6739.96C6744.93 191.063 6748.95 187.036 6748.95 182.07C6748.95 177.103 6744.93 173.077 6739.96 173.077H6663.52C6633.72 173.077 6609.57 148.92 6609.57 119.121V105.632C6609.57 75.8328 6633.72 51.6758 6663.52 51.6758H6775.93C6790.83 51.6758 6802.91 63.7543 6802.91 78.6539C6802.91 93.5535 6790.83 105.632 6775.93 105.632H6670.27C6666.54 105.632 6663.52 108.652 6663.52 112.377C6663.52 116.101 6666.54 119.121 6670.27 119.121H6748.95C6778.75 119.121 6802.91 143.278 6802.91 173.077V191.063C6802.91 220.862 6778.75 245.019 6748.95 245.019Z" fill="white"/>
</svg>
