<svg width="10830" height="298" viewBox="0 0 10830 298" fill="none" xmlns="http://www.w3.org/2000/svg">
<rect x="0.892578" y="0.994141" width="10828.5" height="296.542" fill="#021F69"/>
<path fill-rule="evenodd" clip-rule="evenodd" d="M1126.99 117.219C1126.99 114.898 1128.82 113.017 1131.08 113.017L1218.95 113.017C1233.63 113.017 1245.52 100.788 1245.52 85.7029C1245.52 70.6177 1233.63 58.3887 1218.95 58.3887L896.055 58.3887C895.341 58.3887 894.633 58.4177 893.933 58.4746L886.445 58.4431C879.898 58.4156 874.132 62.5808 871.813 69.0119L831.592 180.593C830.755 182.914 828.602 184.454 826.195 184.454C823.017 184.454 820.44 181.805 820.44 178.537V85.7029C820.44 70.6177 808.545 58.3887 793.872 58.3887C793.631 58.3887 793.39 58.392 793.15 58.3986C792.91 58.392 792.669 58.3887 792.427 58.3887L675.34 58.3887C671.671 58.3887 668.177 59.153 664.998 60.5352C663.409 61.2262 661.899 62.0718 660.485 63.0535C653.418 67.9621 648.772 76.2746 648.772 85.7028V164.465C648.772 175.505 640.067 184.454 629.33 184.454H627.484C625.758 184.454 624.055 184.052 622.503 183.277C618.57 181.316 616.073 177.217 616.073 172.723V85.7029C616.073 72.2668 606.637 61.0966 594.206 58.8149C592.681 58.5348 591.11 58.3887 589.506 58.3887L266.486 58.3887C251.879 58.3887 240.039 70.562 240.039 85.5785C240.039 100.577 251.853 112.743 266.441 112.768L313.511 112.849C317.317 112.855 319.125 117.672 316.309 120.306C315.542 121.024 314.542 121.421 313.504 121.421H287.043C272.37 121.421 260.475 133.65 260.475 148.736C260.475 163.821 272.37 176.05 287.043 176.05H312.278C313.295 176.05 314.276 176.44 315.028 177.144C317.791 179.728 316.013 184.454 312.278 184.454H266.606C251.934 184.454 240.039 196.683 240.039 211.768C240.039 226.854 251.934 239.083 266.606 239.083L385.139 239.083C399.812 239.083 411.707 226.854 411.707 211.768C411.707 204.205 408.716 197.359 403.885 192.413C403.243 191.647 402.547 190.91 401.797 190.209C396.158 184.934 399.553 172.98 404.711 167.207C409.055 162.345 411.707 155.859 411.707 148.736C411.707 138.354 406.073 129.325 397.778 124.704C394.213 122.718 392.565 117.075 395.564 114.27C396.425 113.464 397.548 113.017 398.713 113.017H410.153C429.07 113.017 444.405 128.783 444.405 148.232V211.768C444.405 226.854 456.3 239.083 470.973 239.083C485.646 239.083 497.541 226.854 497.541 211.768C497.541 197.818 511.738 188.676 523.946 194.766L545.928 205.731C556.552 211.031 562.613 223.123 571.148 231.513C575.338 235.632 580.837 238.355 586.939 238.957C587.784 239.04 588.64 239.083 589.506 239.083H671.252C672.614 239.083 673.978 239.083 675.34 239.083C690.012 239.083 701.907 226.854 701.907 211.768V146.635C701.907 128.068 716.547 113.017 734.606 113.017C752.665 113.017 767.305 128.068 767.305 146.635V211.768C767.305 226.854 779.199 239.083 793.872 239.083H802.539C827.373 239.083 863.065 250.44 871.142 226.296L903.557 129.4C906.836 119.598 915.806 113.017 925.889 113.017C935.749 113.017 944.571 119.315 948.016 128.813L982.67 224.352C985.915 233.3 993.933 239.103 1003.05 239.103H1012.08C1025.94 239.103 1035.95 224.11 1031.23 210.409L1012.59 156.255C1005.33 135.156 1020.55 113.017 1042.32 113.017C1059.74 113.017 1073.85 127.533 1073.85 145.439V211.768C1073.85 212.611 1073.89 213.444 1073.96 214.267C1073.9 227.954 1084.68 239.083 1097.99 239.083L1357.92 239.083C1377.11 239.083 1392.67 223.091 1392.67 203.364V176.05C1392.67 141.238 1420.12 113.017 1453.98 113.017C1472.04 113.017 1486.67 128.068 1486.67 146.635V211.768C1486.67 226.854 1498.57 239.083 1513.24 239.083C1527.92 239.083 1539.81 226.854 1539.81 211.768C1539.81 196.699 1555.15 186.824 1568.33 193.402L1586.8 202.612C1598.06 208.23 1604 221.578 1612.72 230.806C1617.55 235.911 1624.3 239.083 1631.77 239.083C1632.35 239.083 1632.91 239.064 1633.48 239.028C1634.04 239.064 1634.6 239.083 1635.18 239.083L1716.95 239.083C1731.61 239.083 1743.49 226.839 1743.49 211.768C1743.49 203.646 1749.89 197.061 1757.8 197.061L1800.71 197.061C1809.74 197.061 1817.06 204.586 1817.06 213.869C1817.06 227.794 1828.04 239.083 1841.59 239.083C1855.13 239.083 1866.11 227.794 1866.11 213.869V167.645C1866.11 153.721 1855.13 142.432 1841.59 142.432C1841.25 142.432 1840.92 142.439 1840.58 142.453C1840.24 142.439 1839.89 142.432 1839.54 142.432C1828.85 142.432 1824.67 128.171 1833.58 122.095L1854.58 107.767C1866.8 99.4252 1869.68 82.804 1861 70.6422C1852.31 58.4803 1835.37 55.3832 1823.14 63.7245L1774.97 96.5917C1761.49 105.784 1743.49 95.8524 1743.49 79.228C1743.49 67.7188 1734.42 58.3887 1723.22 58.3887L1716.92 58.3887C1702.25 58.3887 1690.35 70.6177 1690.35 85.7029V169.747C1690.35 177.869 1683.95 184.454 1676.05 184.454H1675.42C1673.16 184.454 1670.93 183.927 1668.9 182.914L1668.32 182.628C1662.22 179.583 1658.34 173.221 1658.34 166.246V85.7029C1658.34 70.6177 1646.45 58.3887 1631.78 58.3887L1304.79 58.3887C1290.12 58.3887 1278.22 70.6177 1278.22 85.7029C1278.22 100.788 1290.12 113.017 1304.79 113.017H1308.88C1325.81 113.017 1339.53 127.127 1339.53 144.534V148.736C1339.53 168.462 1323.98 184.454 1304.79 184.454H1131.08C1128.82 184.454 1126.99 182.573 1126.99 180.252C1126.99 177.931 1128.82 176.05 1131.08 176.05L1153.56 176.05C1168.23 176.05 1180.13 163.821 1180.13 148.736C1180.13 133.65 1168.23 121.421 1153.56 121.421L1131.08 121.421C1128.82 121.421 1126.99 119.54 1126.99 117.219ZM502.281 113.017C499.663 113.017 497.541 115.199 497.541 117.891C497.541 119.757 498.578 121.46 500.212 122.275L541.119 142.681C551.207 147.713 562.938 140.159 562.938 128.632C562.938 120.008 556.138 113.017 547.75 113.017L502.281 113.017ZM1590.93 113.017C1598.81 113.017 1605.21 119.591 1605.21 127.7C1605.21 138.539 1594.18 145.642 1584.69 140.91L1541.67 119.448C1540.53 118.882 1539.81 117.699 1539.81 116.402C1539.81 114.533 1541.28 113.017 1543.1 113.017L1590.93 113.017Z" fill="#F08603"/>
<path fill-rule="evenodd" clip-rule="evenodd" d="M2885.74 117.219C2885.74 114.898 2887.57 113.017 2889.83 113.017L2977.71 113.017C2992.38 113.017 3004.27 100.788 3004.27 85.7029C3004.27 70.6177 2992.38 58.3887 2977.71 58.3887L2654.81 58.3887C2654.09 58.3887 2653.38 58.4177 2652.68 58.4746L2645.2 58.4431C2638.65 58.4156 2632.88 62.5808 2630.56 69.0119L2590.34 180.593C2589.51 182.914 2587.35 184.454 2584.95 184.454C2581.77 184.454 2579.19 181.805 2579.19 178.537V85.7029C2579.19 70.6177 2567.3 58.3887 2552.62 58.3887C2552.38 58.3887 2552.14 58.392 2551.9 58.3986C2551.66 58.392 2551.42 58.3887 2551.18 58.3887L2434.09 58.3887C2430.42 58.3887 2426.93 59.153 2423.75 60.5352C2422.16 61.2262 2420.65 62.0718 2419.24 63.0535C2412.17 67.9621 2407.52 76.2746 2407.52 85.7028V164.465C2407.52 175.505 2398.82 184.454 2388.08 184.454H2386.24C2384.51 184.454 2382.81 184.052 2381.25 183.277C2377.32 181.316 2374.82 177.217 2374.82 172.723V85.7029C2374.82 72.2668 2365.39 61.0966 2352.96 58.8149C2351.43 58.5348 2349.86 58.3887 2348.26 58.3887L2025.24 58.3887C2010.63 58.3887 1998.79 70.562 1998.79 85.5785C1998.79 100.577 2010.6 112.743 2025.19 112.768L2072.26 112.849C2076.07 112.855 2077.88 117.672 2075.06 120.306C2074.29 121.024 2073.29 121.421 2072.26 121.421H2045.79C2031.12 121.421 2019.23 133.65 2019.23 148.736C2019.23 163.821 2031.12 176.05 2045.79 176.05H2071.03C2072.05 176.05 2073.03 176.44 2073.78 177.144C2076.54 179.728 2074.76 184.454 2071.03 184.454H2025.36C2010.68 184.454 1998.79 196.683 1998.79 211.768C1998.79 226.854 2010.68 239.083 2025.36 239.083L2143.89 239.083C2158.56 239.083 2170.46 226.854 2170.46 211.768C2170.46 204.205 2167.47 197.359 2162.64 192.413C2161.99 191.647 2161.3 190.91 2160.55 190.209C2154.91 184.934 2158.3 172.98 2163.46 167.207C2167.81 162.345 2170.46 155.859 2170.46 148.736C2170.46 138.354 2164.82 129.325 2156.53 124.704C2152.96 122.718 2151.32 117.075 2154.32 114.27C2155.18 113.464 2156.3 113.017 2157.46 113.017H2168.9C2187.82 113.017 2203.16 128.783 2203.16 148.232V211.768C2203.16 226.854 2215.05 239.083 2229.72 239.083C2244.4 239.083 2256.29 226.854 2256.29 211.768C2256.29 197.818 2270.49 188.676 2282.7 194.766L2304.68 205.731C2315.3 211.031 2321.36 223.123 2329.9 231.513C2334.09 235.632 2339.59 238.355 2345.69 238.957C2346.53 239.04 2347.39 239.083 2348.26 239.083H2430C2431.37 239.083 2432.73 239.083 2434.09 239.083C2448.76 239.083 2460.66 226.854 2460.66 211.768V146.635C2460.66 128.068 2475.3 113.017 2493.36 113.017C2511.42 113.017 2526.06 128.068 2526.06 146.635V211.768C2526.06 226.854 2537.95 239.083 2552.62 239.083H2561.29C2586.12 239.083 2621.82 250.44 2629.89 226.296L2662.31 129.4C2665.59 119.598 2674.56 113.017 2684.64 113.017C2694.5 113.017 2703.32 119.315 2706.77 128.813L2741.42 224.352C2744.67 233.3 2752.68 239.103 2761.8 239.103H2770.83C2784.69 239.103 2794.7 224.11 2789.98 210.409L2771.34 156.255C2764.08 135.156 2779.3 113.017 2801.07 113.017C2818.49 113.017 2832.61 127.533 2832.61 145.439V211.768C2832.61 212.611 2832.64 213.444 2832.72 214.267C2832.65 227.954 2843.43 239.083 2856.74 239.083L3116.68 239.083C3135.86 239.083 3151.42 223.091 3151.42 203.364V176.05C3151.42 141.238 3178.87 113.017 3212.73 113.017C3230.79 113.017 3245.43 128.068 3245.43 146.635V211.768C3245.43 226.854 3257.32 239.083 3271.99 239.083C3286.67 239.083 3298.56 226.854 3298.56 211.768C3298.56 196.699 3313.9 186.824 3327.08 193.402L3345.55 202.612C3356.81 208.23 3362.75 221.578 3371.48 230.806C3376.3 235.911 3383.05 239.083 3390.53 239.083C3391.1 239.083 3391.66 239.064 3392.23 239.028C3392.79 239.064 3393.36 239.083 3393.93 239.083L3475.7 239.083C3490.36 239.083 3502.24 226.839 3502.24 211.768C3502.24 203.646 3508.65 197.061 3516.55 197.061L3559.46 197.061C3568.49 197.061 3575.81 204.586 3575.81 213.869C3575.81 227.794 3586.79 239.083 3600.34 239.083C3613.88 239.083 3624.86 227.794 3624.86 213.869V167.645C3624.86 153.721 3613.88 142.432 3600.34 142.432C3600 142.432 3599.67 142.439 3599.34 142.453C3598.99 142.439 3598.64 142.432 3598.29 142.432C3587.61 142.432 3583.42 128.171 3592.33 122.095L3613.33 107.767C3625.55 99.4252 3628.43 82.804 3619.75 70.6422C3611.07 58.4803 3594.12 55.3832 3581.89 63.7245L3533.72 96.5917C3520.25 105.784 3502.24 95.8524 3502.24 79.228C3502.24 67.7188 3493.17 58.3887 3481.97 58.3887L3475.67 58.3887C3461 58.3887 3449.11 70.6177 3449.11 85.7029V169.747C3449.11 177.869 3442.7 184.454 3434.8 184.454H3434.17C3431.91 184.454 3429.68 183.927 3427.65 182.914L3427.07 182.628C3420.97 179.583 3417.09 173.221 3417.09 166.246V85.7029C3417.09 70.6177 3405.2 58.3887 3390.53 58.3887L3063.54 58.3887C3048.87 58.3887 3036.97 70.6177 3036.97 85.7029C3036.97 100.788 3048.87 113.017 3063.54 113.017H3067.63C3084.56 113.017 3098.28 127.127 3098.28 144.534V148.736C3098.28 168.462 3082.73 184.454 3063.54 184.454H2889.83C2887.57 184.454 2885.74 182.573 2885.74 180.252C2885.74 177.931 2887.57 176.05 2889.83 176.05L2912.31 176.05C2926.98 176.05 2938.88 163.821 2938.88 148.736C2938.88 133.65 2926.98 121.421 2912.31 121.421L2889.83 121.421C2887.57 121.421 2885.74 119.54 2885.74 117.219ZM2261.03 113.017C2258.41 113.017 2256.29 115.199 2256.29 117.891C2256.29 119.757 2257.33 121.46 2258.96 122.275L2299.87 142.681C2309.96 147.713 2321.69 140.159 2321.69 128.632C2321.69 120.008 2314.89 113.017 2306.5 113.017L2261.03 113.017ZM3349.68 113.017C3357.56 113.017 3363.96 119.591 3363.96 127.7C3363.96 138.539 3352.93 145.642 3343.44 140.91L3300.42 119.448C3299.28 118.882 3298.56 117.699 3298.56 116.402C3298.56 114.533 3300.04 113.017 3301.85 113.017L3349.68 113.017Z" fill="#F08603"/>
<path fill-rule="evenodd" clip-rule="evenodd" d="M4644.49 117.22C4644.49 114.899 4646.32 113.018 4648.58 113.018L4736.46 113.018C4751.13 113.018 4763.02 100.789 4763.02 85.7039C4763.02 70.6186 4751.13 58.3897 4736.46 58.3897L4413.56 58.3897C4412.84 58.3897 4412.14 58.4187 4411.43 58.4756L4403.95 58.4441C4397.4 58.4165 4391.63 62.5817 4389.32 69.0129L4349.09 180.594C4348.26 182.915 4346.1 184.455 4343.7 184.455C4340.52 184.455 4337.94 181.806 4337.94 178.538V85.7038C4337.94 70.6186 4326.05 58.3897 4311.37 58.3897C4311.13 58.3897 4310.89 58.393 4310.65 58.3996C4310.41 58.393 4310.17 58.3896 4309.93 58.3896L4192.84 58.3897C4189.17 58.3897 4185.68 59.154 4182.5 60.5361C4180.91 61.2272 4179.4 62.0728 4177.99 63.0545C4170.92 67.963 4166.27 76.2756 4166.27 85.7038V164.466C4166.27 175.506 4157.57 184.455 4146.83 184.455H4144.99C4143.26 184.455 4141.56 184.053 4140.01 183.278C4136.07 181.317 4133.58 177.218 4133.58 172.724V85.7038C4133.58 72.2678 4124.14 61.0976 4111.71 58.8159C4110.18 58.5358 4108.61 58.3897 4107.01 58.3897L3783.99 58.3896C3769.38 58.3896 3757.54 70.563 3757.54 85.5795C3757.54 100.578 3769.35 112.744 3783.94 112.769L3831.01 112.85C3834.82 112.856 3836.63 117.673 3833.81 120.307C3833.04 121.025 3832.04 121.422 3831.01 121.422H3804.55C3789.87 121.422 3777.98 133.651 3777.98 148.737C3777.98 163.822 3789.87 176.051 3804.55 176.051H3829.78C3830.8 176.051 3831.78 176.441 3832.53 177.145C3835.29 179.729 3833.52 184.455 3829.78 184.455H3784.11C3769.44 184.455 3757.54 196.684 3757.54 211.769C3757.54 226.855 3769.44 239.084 3784.11 239.084L3902.64 239.084C3917.31 239.084 3929.21 226.855 3929.21 211.769C3929.21 204.206 3926.22 197.36 3921.39 192.414C3920.75 191.648 3920.05 190.911 3919.3 190.21C3913.66 184.935 3917.06 172.981 3922.21 167.208C3926.56 162.346 3929.21 155.86 3929.21 148.737C3929.21 138.355 3923.58 129.326 3915.28 124.705C3911.72 122.719 3910.07 117.076 3913.07 114.27C3913.93 113.465 3915.05 113.018 3916.22 113.018H3927.66C3946.57 113.018 3961.91 128.784 3961.91 148.233V211.769C3961.91 226.855 3973.8 239.084 3988.48 239.084C4003.15 239.084 4015.04 226.855 4015.04 211.769C4015.04 197.819 4029.24 188.677 4041.45 194.767L4063.43 205.732C4074.05 211.032 4080.11 223.124 4088.65 231.514C4092.84 235.633 4098.34 238.356 4104.44 238.958C4105.29 239.041 4106.14 239.084 4107.01 239.084H4188.75C4190.12 239.084 4191.48 239.084 4192.84 239.084C4207.51 239.084 4219.41 226.855 4219.41 211.769V146.636C4219.41 128.069 4234.05 113.018 4252.11 113.018C4270.17 113.018 4284.81 128.069 4284.81 146.636V211.769C4284.81 226.855 4296.7 239.084 4311.37 239.084H4320.04C4344.88 239.084 4380.57 250.441 4388.64 226.297L4421.06 129.401C4424.34 119.599 4433.31 113.018 4443.39 113.018C4453.25 113.018 4462.07 119.316 4465.52 128.814L4500.17 224.353C4503.42 233.301 4511.44 239.104 4520.55 239.104H4529.58C4543.44 239.104 4553.45 224.111 4548.73 210.41L4530.09 156.256C4522.83 135.157 4538.05 113.018 4559.82 113.018C4577.24 113.018 4591.36 127.534 4591.36 145.44V211.769C4591.36 212.612 4591.39 213.445 4591.47 214.268C4591.41 227.955 4602.18 239.084 4615.49 239.084L4875.43 239.084C4894.61 239.084 4910.17 223.092 4910.17 203.365V176.051C4910.17 141.239 4937.62 113.018 4971.48 113.018C4989.54 113.018 5004.18 128.069 5004.18 146.636V211.769C5004.18 226.855 5016.07 239.084 5030.74 239.084C5045.42 239.084 5057.31 226.855 5057.31 211.769C5057.31 196.7 5072.65 186.825 5085.84 193.403L5104.3 202.613C5115.56 208.231 5121.5 221.579 5130.23 230.807C5135.05 235.912 5141.81 239.084 5149.28 239.084C5149.85 239.084 5150.42 239.065 5150.98 239.029C5151.54 239.065 5152.11 239.084 5152.68 239.084L5234.45 239.084C5249.11 239.084 5260.99 226.84 5260.99 211.769C5260.99 203.647 5267.4 197.062 5275.3 197.062L5318.21 197.062C5327.24 197.062 5334.56 204.587 5334.56 213.87C5334.56 227.795 5345.54 239.084 5359.09 239.084C5372.63 239.084 5383.61 227.795 5383.61 213.87V167.646C5383.61 153.722 5372.63 142.433 5359.09 142.433C5358.75 142.433 5358.42 142.44 5358.09 142.454C5357.74 142.44 5357.39 142.433 5357.04 142.433C5346.36 142.433 5342.17 128.172 5351.08 122.096L5372.08 107.767C5384.3 99.4261 5387.18 82.805 5378.5 70.6432C5369.82 58.4813 5352.87 55.3842 5340.64 63.7255L5292.47 96.5926C5279 105.785 5260.99 95.8534 5260.99 79.229C5260.99 67.7197 5251.92 58.3897 5240.72 58.3897L5234.42 58.3897C5219.75 58.3897 5207.86 70.6186 5207.86 85.7038V169.748C5207.86 177.87 5201.45 184.455 5193.55 184.455H5192.92C5190.66 184.455 5188.43 183.928 5186.4 182.915L5185.82 182.629C5179.72 179.584 5175.84 173.222 5175.84 166.247V85.7038C5175.84 70.6186 5163.95 58.3897 5149.28 58.3897L4822.29 58.3897C4807.62 58.3897 4795.72 70.6187 4795.72 85.7039C4795.72 100.789 4807.62 113.018 4822.29 113.018H4826.38C4843.31 113.018 4857.03 127.128 4857.03 144.535V148.737C4857.03 168.463 4841.48 184.455 4822.29 184.455H4648.58C4646.32 184.455 4644.49 182.574 4644.49 180.253C4644.49 177.932 4646.32 176.051 4648.58 176.051L4671.06 176.051C4685.73 176.051 4697.63 163.822 4697.63 148.737C4697.63 133.651 4685.73 121.422 4671.06 121.422L4648.58 121.422C4646.32 121.422 4644.49 119.541 4644.49 117.22ZM4019.78 113.018C4017.17 113.018 4015.04 115.2 4015.04 117.892C4015.04 119.758 4016.08 121.461 4017.71 122.276L4058.62 142.682C4068.71 147.714 4080.44 140.16 4080.44 128.633C4080.44 120.009 4073.64 113.018 4065.25 113.018L4019.78 113.018ZM5108.43 113.018C5116.32 113.018 5122.71 119.592 5122.71 127.701C5122.71 138.54 5111.68 145.643 5102.19 140.911L5059.17 119.449C5058.03 118.883 5057.31 117.7 5057.31 116.403C5057.31 114.534 5058.79 113.018 5060.6 113.018L5108.43 113.018Z" fill="#F08603"/>
<path fill-rule="evenodd" clip-rule="evenodd" d="M6403.24 117.219C6403.24 114.898 6405.07 113.017 6407.33 113.017L6495.21 113.017C6509.88 113.017 6521.77 100.788 6521.77 85.7029C6521.77 70.6177 6509.88 58.3887 6495.21 58.3887L6172.31 58.3887C6171.59 58.3887 6170.89 58.4177 6170.19 58.4746L6162.7 58.4431C6156.15 58.4156 6150.38 62.5808 6148.07 69.0119L6107.84 180.593C6107.01 182.914 6104.86 184.454 6102.45 184.454C6099.27 184.454 6096.69 181.805 6096.69 178.537V85.7029C6096.69 70.6177 6084.8 58.3887 6070.12 58.3887C6069.88 58.3887 6069.64 58.392 6069.4 58.3986C6069.16 58.392 6068.92 58.3887 6068.68 58.3887L5951.59 58.3887C5947.92 58.3887 5944.43 59.153 5941.25 60.5352C5939.66 61.2262 5938.15 62.0718 5936.74 63.0535C5929.67 67.9621 5925.02 76.2746 5925.02 85.7028V164.465C5925.02 175.505 5916.32 184.454 5905.58 184.454H5903.74C5902.01 184.454 5900.31 184.052 5898.76 183.277C5894.82 181.316 5892.33 177.217 5892.33 172.723V85.7029C5892.33 72.2668 5882.89 61.0966 5870.46 58.8149C5868.93 58.5348 5867.36 58.3887 5865.76 58.3887L5542.74 58.3887C5528.13 58.3887 5516.29 70.562 5516.29 85.5785C5516.29 100.577 5528.11 112.743 5542.69 112.768L5589.76 112.849C5593.57 112.855 5595.38 117.672 5592.56 120.306C5591.79 121.024 5590.79 121.421 5589.76 121.421H5563.3C5548.62 121.421 5536.73 133.65 5536.73 148.736C5536.73 163.821 5548.62 176.05 5563.3 176.05H5588.53C5589.55 176.05 5590.53 176.44 5591.28 177.144C5594.04 179.728 5592.27 184.454 5588.53 184.454H5542.86C5528.19 184.454 5516.29 196.683 5516.29 211.768C5516.29 226.854 5528.19 239.083 5542.86 239.083L5661.39 239.083C5676.06 239.083 5687.96 226.854 5687.96 211.768C5687.96 204.205 5684.97 197.359 5680.14 192.413C5679.5 191.647 5678.8 190.91 5678.05 190.209C5672.41 184.934 5675.81 172.98 5680.96 167.207C5685.31 162.345 5687.96 155.859 5687.96 148.736C5687.96 138.354 5682.33 129.325 5674.03 124.704C5670.47 122.718 5668.82 117.075 5671.82 114.27C5672.68 113.464 5673.8 113.017 5674.97 113.017H5686.41C5705.32 113.017 5720.66 128.783 5720.66 148.232V211.768C5720.66 226.854 5732.55 239.083 5747.23 239.083C5761.9 239.083 5773.79 226.854 5773.79 211.768C5773.79 197.818 5787.99 188.676 5800.2 194.766L5822.18 205.731C5832.8 211.031 5838.87 223.123 5847.4 231.513C5851.59 235.632 5857.09 238.355 5863.19 238.957C5864.04 239.04 5864.89 239.083 5865.76 239.083H5947.5C5948.87 239.083 5950.23 239.083 5951.59 239.083C5966.27 239.083 5978.16 226.854 5978.16 211.768V146.635C5978.16 128.068 5992.8 113.017 6010.86 113.017C6028.92 113.017 6043.56 128.068 6043.56 146.635V211.768C6043.56 226.854 6055.45 239.083 6070.12 239.083H6078.79C6103.63 239.083 6139.32 250.44 6147.39 226.296L6179.81 129.4C6183.09 119.598 6192.06 113.017 6202.14 113.017C6212 113.017 6220.82 119.315 6224.27 128.813L6258.92 224.352C6262.17 233.3 6270.19 239.103 6279.3 239.103H6288.33C6302.19 239.103 6312.2 224.11 6307.48 210.409L6288.84 156.255C6281.58 135.156 6296.8 113.017 6318.57 113.017C6335.99 113.017 6350.11 127.533 6350.11 145.439V211.768C6350.11 212.611 6350.14 213.444 6350.22 214.267C6350.16 227.954 6360.93 239.083 6374.24 239.083L6634.18 239.083C6653.36 239.083 6668.92 223.091 6668.92 203.364V176.05C6668.92 141.238 6696.37 113.017 6730.23 113.017C6748.29 113.017 6762.93 128.068 6762.93 146.635V211.768C6762.93 226.854 6774.82 239.083 6789.5 239.083C6804.17 239.083 6816.06 226.854 6816.06 211.768C6816.06 196.699 6831.4 186.824 6844.59 193.402L6863.05 202.612C6874.31 208.23 6880.25 221.578 6888.98 230.806C6893.8 235.911 6900.56 239.083 6908.03 239.083C6908.6 239.083 6909.17 239.064 6909.73 239.028C6910.29 239.064 6910.86 239.083 6911.43 239.083L6993.2 239.083C7007.86 239.083 7019.74 226.839 7019.74 211.768C7019.74 203.646 7026.15 197.061 7034.05 197.061L7076.97 197.061C7085.99 197.061 7093.31 204.586 7093.31 213.869C7093.31 227.794 7104.29 239.083 7117.84 239.083C7131.38 239.083 7142.36 227.794 7142.36 213.869V167.645C7142.36 153.721 7131.38 142.432 7117.84 142.432C7117.5 142.432 7117.17 142.439 7116.84 142.453C7116.49 142.439 7116.14 142.432 7115.8 142.432C7105.11 142.432 7100.92 128.171 7109.83 122.095L7130.83 107.767C7143.06 99.4252 7145.93 82.804 7137.25 70.6422C7128.57 58.4803 7111.62 55.3832 7099.39 63.7245L7051.22 96.5917C7037.75 105.784 7019.74 95.8524 7019.74 79.228C7019.74 67.7188 7010.67 58.3887 6999.47 58.3887L6993.18 58.3887C6978.5 58.3887 6966.61 70.6177 6966.61 85.7029V169.747C6966.61 177.869 6960.2 184.454 6952.3 184.454H6951.67C6949.41 184.454 6947.18 183.927 6945.15 182.914L6944.57 182.628C6938.47 179.583 6934.6 173.221 6934.6 166.246V85.7029C6934.6 70.6177 6922.7 58.3887 6908.03 58.3887L6581.04 58.3887C6566.37 58.3887 6554.47 70.6177 6554.47 85.7029C6554.47 100.788 6566.37 113.017 6581.04 113.017H6585.13C6602.06 113.017 6615.78 127.127 6615.78 144.534V148.736C6615.78 168.462 6600.23 184.454 6581.04 184.454H6407.33C6405.07 184.454 6403.24 182.573 6403.24 180.252C6403.24 177.931 6405.07 176.05 6407.33 176.05L6429.81 176.05C6444.48 176.05 6456.38 163.821 6456.38 148.736C6456.38 133.65 6444.48 121.421 6429.81 121.421L6407.33 121.421C6405.07 121.421 6403.24 119.54 6403.24 117.219ZM5778.53 113.017C5775.92 113.017 5773.79 115.199 5773.79 117.891C5773.79 119.757 5774.83 121.46 5776.46 122.275L5817.37 142.681C5827.46 147.713 5839.19 140.159 5839.19 128.632C5839.19 120.008 5832.39 113.017 5824 113.017L5778.53 113.017ZM6867.18 113.017C6875.07 113.017 6881.46 119.591 6881.46 127.7C6881.46 138.539 6870.43 145.642 6860.94 140.91L6817.92 119.448C6816.78 118.882 6816.06 117.699 6816.06 116.402C6816.06 114.533 6817.54 113.017 6819.36 113.017L6867.18 113.017Z" fill="#F08603"/>
<path fill-rule="evenodd" clip-rule="evenodd" d="M8161.99 117.219C8161.99 114.898 8163.82 113.017 8166.08 113.017L8253.96 113.017C8268.63 113.017 8280.53 100.788 8280.53 85.7029C8280.53 70.6177 8268.63 58.3887 8253.96 58.3887L7931.06 58.3887C7930.34 58.3887 7929.64 58.4177 7928.94 58.4746L7921.45 58.4431C7914.9 58.4156 7909.14 62.5808 7906.82 69.0119L7866.6 180.593C7865.76 182.914 7863.61 184.454 7861.2 184.454C7858.02 184.454 7855.44 181.805 7855.44 178.537V85.7029C7855.44 70.6177 7843.55 58.3887 7828.88 58.3887C7828.63 58.3887 7828.39 58.392 7828.15 58.3986C7827.91 58.392 7827.67 58.3887 7827.43 58.3887L7710.34 58.3887C7706.68 58.3887 7703.18 59.153 7700 60.5352C7698.41 61.2262 7696.9 62.0718 7695.49 63.0535C7688.42 67.9621 7683.78 76.2746 7683.78 85.7028V164.465C7683.78 175.505 7675.07 184.454 7664.33 184.454H7662.49C7660.76 184.454 7659.06 184.052 7657.51 183.277C7653.57 181.316 7651.08 177.217 7651.08 172.723V85.7029C7651.08 72.2668 7641.64 61.0966 7629.21 58.8149C7627.68 58.5348 7626.11 58.3887 7624.51 58.3887L7301.49 58.3887C7286.88 58.3887 7275.04 70.562 7275.04 85.5785C7275.04 100.577 7286.86 112.743 7301.45 112.768L7348.51 112.849C7352.32 112.855 7354.13 117.672 7351.31 120.306C7350.55 121.024 7349.55 121.421 7348.51 121.421H7322.05C7307.37 121.421 7295.48 133.65 7295.48 148.736C7295.48 163.821 7307.37 176.05 7322.05 176.05H7347.28C7348.3 176.05 7349.28 176.44 7350.03 177.144C7352.79 179.728 7351.02 184.454 7347.28 184.454H7301.61C7286.94 184.454 7275.04 196.683 7275.04 211.768C7275.04 226.854 7286.94 239.083 7301.61 239.083L7420.14 239.083C7434.82 239.083 7446.71 226.854 7446.71 211.768C7446.71 204.205 7443.72 197.359 7438.89 192.413C7438.25 191.647 7437.55 190.91 7436.8 190.209C7431.16 184.934 7434.56 172.98 7439.71 167.207C7444.06 162.345 7446.71 155.859 7446.71 148.736C7446.71 138.354 7441.08 129.325 7432.78 124.704C7429.22 122.718 7427.57 117.075 7430.57 114.27C7431.43 113.464 7432.55 113.017 7433.72 113.017H7445.16C7464.07 113.017 7479.41 128.783 7479.41 148.232V211.768C7479.41 226.854 7491.3 239.083 7505.98 239.083C7520.65 239.083 7532.54 226.854 7532.54 211.768C7532.54 197.818 7546.74 188.676 7558.95 194.766L7580.93 205.731C7591.56 211.031 7597.62 223.123 7606.15 231.513C7610.34 235.632 7615.84 238.355 7621.94 238.957C7622.79 239.04 7623.64 239.083 7624.51 239.083H7706.26C7707.62 239.083 7708.98 239.083 7710.34 239.083C7725.02 239.083 7736.91 226.854 7736.91 211.768V146.635C7736.91 128.068 7751.55 113.017 7769.61 113.017C7787.67 113.017 7802.31 128.068 7802.31 146.635V211.768C7802.31 226.854 7814.2 239.083 7828.88 239.083H7837.54C7862.38 239.083 7898.07 250.44 7906.15 226.296L7938.56 129.4C7941.84 119.598 7950.81 113.017 7960.89 113.017C7970.75 113.017 7979.57 119.315 7983.02 128.813L8017.67 224.352C8020.92 233.3 8028.94 239.103 8038.05 239.103H8047.08C8060.94 239.103 8070.95 224.11 8066.23 210.409L8047.59 156.255C8040.33 135.156 8055.55 113.017 8077.32 113.017C8094.74 113.017 8108.86 127.533 8108.86 145.439V211.768C8108.86 212.611 8108.9 213.444 8108.97 214.267C8108.91 227.954 8119.68 239.083 8133 239.083L8392.93 239.083C8412.12 239.083 8427.67 223.091 8427.67 203.364V176.05C8427.67 141.238 8455.12 113.017 8488.98 113.017C8507.04 113.017 8521.68 128.068 8521.68 146.635V211.768C8521.68 226.854 8533.57 239.083 8548.25 239.083C8562.92 239.083 8574.81 226.854 8574.81 211.768C8574.81 196.699 8590.15 186.824 8603.34 193.402L8621.8 202.612C8633.06 208.23 8639 221.578 8647.73 230.806C8652.55 235.911 8659.31 239.083 8666.78 239.083C8667.35 239.083 8667.92 239.064 8668.48 239.028C8669.04 239.064 8669.61 239.083 8670.18 239.083L8751.95 239.083C8766.61 239.083 8778.49 226.839 8778.49 211.768C8778.49 203.646 8784.9 197.061 8792.8 197.061L8835.72 197.061C8844.75 197.061 8852.07 204.586 8852.07 213.869C8852.07 227.794 8863.05 239.083 8876.59 239.083C8890.13 239.083 8901.11 227.794 8901.11 213.869V167.645C8901.11 153.721 8890.13 142.432 8876.59 142.432C8876.25 142.432 8875.92 142.439 8875.59 142.453C8875.24 142.439 8874.9 142.432 8874.55 142.432C8863.86 142.432 8859.67 128.171 8868.58 122.095L8889.58 107.767C8901.81 99.4252 8904.68 82.804 8896 70.6422C8887.32 58.4803 8870.37 55.3832 8858.14 63.7245L8809.97 96.5917C8796.5 105.784 8778.49 95.8524 8778.49 79.228C8778.49 67.7188 8769.42 58.3887 8758.22 58.3887L8751.93 58.3887C8737.25 58.3887 8725.36 70.6177 8725.36 85.7029V169.747C8725.36 177.869 8718.95 184.454 8711.05 184.454H8710.42C8708.16 184.454 8705.93 183.927 8703.9 182.914L8703.33 182.628C8697.22 179.583 8693.35 173.221 8693.35 166.246V85.7029C8693.35 70.6177 8681.45 58.3887 8666.78 58.3887L8339.79 58.3887C8325.12 58.3887 8313.22 70.6177 8313.22 85.7029C8313.22 100.788 8325.12 113.017 8339.79 113.017H8343.88C8360.81 113.017 8374.53 127.127 8374.53 144.534V148.736C8374.53 168.462 8358.98 184.454 8339.79 184.454H8166.08C8163.82 184.454 8161.99 182.573 8161.99 180.252C8161.99 177.931 8163.82 176.05 8166.08 176.05L8188.56 176.05C8203.23 176.05 8215.13 163.821 8215.13 148.736C8215.13 133.65 8203.23 121.421 8188.56 121.421L8166.08 121.421C8163.82 121.421 8161.99 119.54 8161.99 117.219ZM7537.28 113.017C7534.67 113.017 7532.54 115.199 7532.54 117.891C7532.54 119.757 7533.58 121.46 7535.22 122.275L7576.12 142.681C7586.21 147.713 7597.94 140.159 7597.94 128.632C7597.94 120.008 7591.14 113.017 7582.75 113.017L7537.28 113.017ZM8625.93 113.017C8633.82 113.017 8640.21 119.591 8640.21 127.7C8640.21 138.539 8629.18 145.642 8619.7 140.91L8576.67 119.448C8575.53 118.882 8574.81 117.699 8574.81 116.402C8574.81 114.533 8576.29 113.017 8578.11 113.017L8625.93 113.017Z" fill="#F08603"/>
<path fill-rule="evenodd" clip-rule="evenodd" d="M9920.74 117.22C9920.74 114.899 9922.57 113.018 9924.83 113.018L10012.7 113.018C10027.4 113.018 10039.3 100.789 10039.3 85.7039C10039.3 70.6186 10027.4 58.3897 10012.7 58.3897L9689.81 58.3897C9689.1 58.3897 9688.39 58.4187 9687.69 58.4756L9680.2 58.4441C9673.65 58.4165 9667.89 62.5817 9665.57 69.0129L9625.35 180.594C9624.51 182.915 9622.36 184.455 9619.95 184.455C9616.77 184.455 9614.19 181.806 9614.19 178.538V85.7038C9614.19 70.6186 9602.3 58.3897 9587.63 58.3897C9587.39 58.3897 9587.15 58.393 9586.91 58.3996C9586.66 58.393 9586.42 58.3896 9586.18 58.3896L9469.09 58.3897C9465.43 58.3897 9461.93 59.154 9458.75 60.5361C9457.16 61.2272 9455.65 62.0728 9454.24 63.0545C9447.17 67.963 9442.53 76.2756 9442.53 85.7038V164.466C9442.53 175.506 9433.82 184.455 9423.08 184.455H9421.24C9419.51 184.455 9417.81 184.053 9416.26 183.278C9412.33 181.317 9409.83 177.218 9409.83 172.724V85.7038C9409.83 72.2678 9400.39 61.0976 9387.96 58.8159C9386.44 58.5358 9384.86 58.3897 9383.26 58.3897L9060.24 58.3896C9045.63 58.3896 9033.79 70.563 9033.79 85.5795C9033.79 100.578 9045.61 112.744 9060.2 112.769L9107.27 112.85C9111.07 112.856 9112.88 117.673 9110.06 120.307C9109.3 121.025 9108.3 121.422 9107.26 121.422H9080.8C9066.13 121.422 9054.23 133.651 9054.23 148.737C9054.23 163.822 9066.13 176.051 9080.8 176.051H9106.03C9107.05 176.051 9108.03 176.441 9108.78 177.145C9111.55 179.729 9109.77 184.455 9106.03 184.455H9060.36C9045.69 184.455 9033.79 196.684 9033.79 211.769C9033.79 226.855 9045.69 239.084 9060.36 239.084L9178.89 239.084C9193.57 239.084 9205.46 226.855 9205.46 211.769C9205.46 204.206 9202.47 197.36 9197.64 192.414C9197 191.648 9196.3 190.911 9195.55 190.21C9189.91 184.935 9193.31 172.981 9198.47 167.208C9202.81 162.346 9205.46 155.86 9205.46 148.737C9205.46 138.355 9199.83 129.326 9191.53 124.705C9187.97 122.719 9186.32 117.076 9189.32 114.27C9190.18 113.465 9191.3 113.018 9192.47 113.018H9203.91C9222.83 113.018 9238.16 128.784 9238.16 148.233V211.769C9238.16 226.855 9250.06 239.084 9264.73 239.084C9279.4 239.084 9291.3 226.855 9291.3 211.769C9291.3 197.819 9305.49 188.677 9317.7 194.767L9339.68 205.732C9350.31 211.032 9356.37 223.124 9364.9 231.514C9369.09 235.633 9374.59 238.356 9380.69 238.958C9381.54 239.041 9382.39 239.084 9383.26 239.084H9465.01C9466.37 239.084 9467.73 239.084 9469.09 239.084C9483.77 239.084 9495.66 226.855 9495.66 211.769V146.636C9495.66 128.069 9510.3 113.018 9528.36 113.018C9546.42 113.018 9561.06 128.069 9561.06 146.636V211.769C9561.06 226.855 9572.95 239.084 9587.63 239.084H9596.29C9621.13 239.084 9656.82 250.441 9664.9 226.297L9697.31 129.401C9700.59 119.599 9709.56 113.018 9719.64 113.018C9729.5 113.018 9738.33 119.316 9741.77 128.814L9776.43 224.353C9779.67 233.301 9787.69 239.104 9796.8 239.104H9805.83C9819.69 239.104 9829.7 224.111 9824.99 210.41L9806.34 156.256C9799.08 135.157 9814.3 113.018 9836.07 113.018C9853.49 113.018 9867.61 127.534 9867.61 145.44V211.769C9867.61 212.612 9867.65 213.445 9867.72 214.268C9867.66 227.955 9878.43 239.084 9891.75 239.084L10151.7 239.084C10170.9 239.084 10186.4 223.092 10186.4 203.365V176.051C10186.4 141.239 10213.9 113.018 10247.7 113.018C10265.8 113.018 10280.4 128.069 10280.4 146.636V211.769C10280.4 226.855 10292.3 239.084 10307 239.084C10321.7 239.084 10333.6 226.855 10333.6 211.769C10333.6 196.7 10348.9 186.825 10362.1 193.403L10380.6 202.613C10391.8 208.231 10397.8 221.579 10406.5 230.807C10411.3 235.912 10418.1 239.084 10425.5 239.084C10426.1 239.084 10426.7 239.065 10427.2 239.029C10427.8 239.065 10428.4 239.084 10428.9 239.084L10510.7 239.084C10525.4 239.084 10537.2 226.84 10537.2 211.769C10537.2 203.647 10543.6 197.062 10551.6 197.062L10594.5 197.062C10603.5 197.062 10610.8 204.587 10610.8 213.87C10610.8 227.795 10621.8 239.084 10635.3 239.084C10648.9 239.084 10659.9 227.795 10659.9 213.87V167.646C10659.9 153.722 10648.9 142.433 10635.3 142.433C10635 142.433 10634.7 142.44 10634.3 142.454C10634 142.44 10633.6 142.433 10633.3 142.433C10622.6 142.433 10618.4 128.172 10627.3 122.096L10648.3 107.767C10660.6 99.4261 10663.4 82.805 10654.8 70.6432C10646.1 58.4813 10629.1 55.3842 10616.9 63.7255L10568.7 96.5926C10555.2 105.785 10537.2 95.8534 10537.2 79.229C10537.2 67.7197 10528.2 58.3897 10517 58.3897L10510.7 58.3897C10496 58.3897 10484.1 70.6186 10484.1 85.7038V169.748C10484.1 177.87 10477.7 184.455 10469.8 184.455H10469.2C10466.9 184.455 10464.7 183.928 10462.7 182.915L10462.1 182.629C10456 179.584 10452.1 173.222 10452.1 166.247V85.7038C10452.1 70.6186 10440.2 58.3897 10425.5 58.3897L10098.5 58.3897C10083.9 58.3897 10072 70.6187 10072 85.7039C10072 100.789 10083.9 113.018 10098.5 113.018H10102.6C10119.6 113.018 10133.3 127.128 10133.3 144.535V148.737C10133.3 168.463 10117.7 184.455 10098.5 184.455H9924.83C9922.57 184.455 9920.74 182.574 9920.74 180.253C9920.74 177.932 9922.57 176.051 9924.83 176.051L9947.31 176.051C9961.99 176.051 9973.88 163.822 9973.88 148.737C9973.88 133.651 9961.99 121.422 9947.31 121.422L9924.83 121.422C9922.57 121.422 9920.74 119.541 9920.74 117.22ZM9296.04 113.018C9293.42 113.018 9291.3 115.2 9291.3 117.892C9291.3 119.758 9292.33 121.461 9293.97 122.276L9334.87 142.682C9344.96 147.714 9356.69 140.16 9356.69 128.633C9356.69 120.009 9349.89 113.018 9341.5 113.018L9296.04 113.018ZM10384.7 113.018C10392.6 113.018 10399 119.592 10399 127.701C10399 138.54 10387.9 145.643 10378.4 140.911L10335.4 119.449C10334.3 118.883 10333.6 117.7 10333.6 116.403C10333.6 114.534 10335 113.018 10336.9 113.018L10384.7 113.018Z" fill="#F08603"/>
</svg>
