<svg width="10822" height="298" viewBox="0 0 10822 298" fill="none" xmlns="http://www.w3.org/2000/svg">
<rect x="0.78418" y="0.574219" width="10821.2" height="296.54" fill="#F08603"/>
<path d="M1072.94 106.015C1072.94 76.2156 1048.78 52.0586 1018.98 52.0586L906.574 52.0586C891.675 52.0586 879.596 64.1371 879.596 79.0367C879.596 93.9363 891.675 106.015 906.574 106.015L1009.99 106.015C1014.96 106.015 1018.98 110.041 1018.98 115.008C1018.98 119.974 1014.96 124 1009.99 124H933.552C903.753 124 879.596 148.157 879.596 177.956L879.596 191.445C879.596 221.245 904.027 245.402 933.827 245.402H1045.96C1060.86 245.402 1072.94 233.323 1072.94 218.424C1072.94 203.524 1060.86 191.445 1045.96 191.445H940.571C936.846 191.445 933.827 188.426 933.827 184.701C933.827 180.976 936.846 177.956 940.571 177.956H1018.98C1048.78 177.956 1072.94 153.799 1072.94 124V106.015Z" fill="white"/>
<path d="M1087.55 79.0367C1087.55 64.1371 1099.63 52.0586 1114.53 52.0586L1226.94 52.0586C1256.74 52.0586 1280.9 76.2156 1280.9 106.015V191.445C1280.9 221.245 1256.74 245.402 1226.94 245.402H1114.53C1099.63 245.402 1087.55 233.323 1087.55 218.424C1087.55 203.524 1099.63 191.445 1114.53 191.445H1220.19C1223.92 191.445 1226.94 188.426 1226.94 184.701C1226.94 180.976 1223.92 177.956 1220.19 177.956H1114.53C1099.63 177.956 1087.55 165.878 1087.55 150.978C1087.55 136.079 1099.63 124 1114.53 124L1217.95 124C1222.91 124 1226.94 119.974 1226.94 115.008C1226.94 110.041 1222.91 106.015 1217.95 106.015L1114.53 106.015C1099.63 106.015 1087.55 93.9363 1087.55 79.0367Z" fill="white"/>
<path fill-rule="evenodd" clip-rule="evenodd" d="M657.027 101.52C657.027 74.2045 634.883 52.0605 607.568 52.0605L513.144 52.0605C485.828 52.0605 463.684 74.2045 463.684 101.52V195.944C463.684 223.26 485.828 245.404 513.144 245.404H607.568C634.883 245.404 657.027 223.26 657.027 195.944V101.52ZM596.327 119.506C600.052 119.506 603.071 116.486 603.071 112.761C603.071 109.036 600.052 106.017 596.327 106.017L524.385 106.017C520.66 106.017 517.641 109.036 517.641 112.761C517.641 116.486 520.66 119.506 524.385 119.506L596.327 119.506ZM603.071 182.455C603.071 177.488 599.045 173.462 594.078 173.462H526.633C521.667 173.462 517.641 177.488 517.641 182.455C517.641 187.421 521.667 191.447 526.633 191.447H594.078C599.045 191.447 603.071 187.421 603.071 182.455Z" fill="white"/>
<path fill-rule="evenodd" clip-rule="evenodd" d="M449.071 106.017C449.071 76.2176 424.914 52.0605 395.115 52.0605L309.684 52.0605C279.885 52.0605 255.728 76.2176 255.728 106.017V119.506C255.728 149.305 279.885 173.462 309.684 173.462L386.122 173.462C391.089 173.462 395.115 177.488 395.115 182.455C395.115 187.421 391.089 191.447 386.122 191.447H282.706C267.807 191.447 255.728 203.526 255.728 218.426C255.728 233.325 267.807 245.404 282.706 245.404H395.115C424.914 245.404 449.071 221.247 449.071 191.447V106.017ZM388.37 119.506C392.095 119.506 395.115 116.486 395.115 112.761C395.115 109.036 392.095 106.017 388.37 106.017L316.429 106.017C312.704 106.017 309.684 109.036 309.684 112.761C309.684 116.486 312.704 119.506 316.429 119.506L388.37 119.506Z" fill="white"/>
<path d="M187.159 245.404H74.7501C59.8505 245.404 47.772 233.325 47.772 218.426C47.772 203.526 59.8505 191.447 74.7501 191.447H178.166C183.133 191.447 187.159 187.421 187.159 182.455C187.159 177.488 183.133 173.462 178.166 173.462H101.728C71.929 173.462 47.772 149.305 47.772 119.506V106.017C47.772 76.2176 71.929 52.0605 101.728 52.0605L214.137 52.0605C229.037 52.0605 241.115 64.1391 241.115 79.0387C241.115 93.9382 229.037 106.017 214.137 106.017H108.473C104.748 106.017 101.728 109.036 101.728 112.761C101.728 116.486 104.748 119.506 108.473 119.506H187.159C216.958 119.506 241.115 143.663 241.115 173.462V191.447C241.115 221.247 216.958 245.404 187.159 245.404Z" fill="white"/>
<path fill-rule="evenodd" clip-rule="evenodd" d="M836.689 104.151C852.316 104.151 864.983 91.483 864.983 75.8566C864.983 60.2302 852.316 47.5625 836.689 47.5625L728.228 47.5625C696.976 47.5625 671.64 72.8979 671.64 104.151V193.749C671.64 225.002 696.976 250.337 728.228 250.337H808.395C839.648 250.337 864.983 225.002 864.983 193.749V174.886C864.983 143.633 839.648 118.298 808.395 118.298H735.302C731.395 118.298 728.228 115.131 728.228 111.224C728.228 107.318 731.395 104.151 735.302 104.151L836.689 104.151ZM737.66 174.886C732.451 174.886 728.228 179.109 728.228 184.317C728.228 189.526 732.451 193.749 737.66 193.749H798.964C804.172 193.749 808.395 189.526 808.395 184.317C808.395 179.109 804.172 174.886 798.964 174.886H737.66Z" fill="white"/>
<path d="M2547.74 106.013C2547.74 76.2137 2523.59 52.0566 2493.79 52.0566L2381.38 52.0566C2366.48 52.0566 2354.4 64.1351 2354.4 79.0347C2354.4 93.9343 2366.48 106.013 2381.38 106.013L2484.79 106.013C2489.76 106.013 2493.79 110.039 2493.79 115.006C2493.79 119.972 2489.76 123.998 2484.79 123.998H2408.36C2378.56 123.998 2354.4 148.155 2354.4 177.954L2354.4 191.444C2354.4 221.243 2378.83 245.4 2408.63 245.4H2520.76C2535.66 245.4 2547.74 233.321 2547.74 218.422C2547.74 203.522 2535.66 191.444 2520.76 191.444H2415.37C2411.65 191.444 2408.63 188.424 2408.63 184.699C2408.63 180.974 2411.65 177.954 2415.37 177.954H2493.79C2523.59 177.954 2547.74 153.797 2547.74 123.998V106.013Z" fill="white"/>
<path d="M1938.49 79.0347C1938.49 64.1352 1950.57 52.0566 1965.47 52.0566L2077.87 52.0566C2107.67 52.0566 2131.83 76.2137 2131.83 106.013V191.444C2131.83 221.243 2107.67 245.4 2077.87 245.4H1965.47C1950.57 245.4 1938.49 233.321 1938.49 218.422C1938.49 203.522 1950.57 191.444 1965.47 191.444H2071.13C2074.85 191.444 2077.87 188.424 2077.87 184.699C2077.87 180.974 2074.85 177.954 2071.13 177.954H1965.47C1950.57 177.954 1938.49 165.876 1938.49 150.976C1938.49 136.077 1950.57 123.998 1965.47 123.998L2068.88 123.998C2073.85 123.998 2077.87 119.972 2077.87 115.006C2077.87 110.039 2073.85 106.013 2068.88 106.013L1965.47 106.013C1950.57 106.013 1938.49 93.9343 1938.49 79.0347Z" fill="white"/>
<path fill-rule="evenodd" clip-rule="evenodd" d="M2311.49 104.149C2327.12 104.149 2339.79 91.4811 2339.79 75.8547C2339.79 60.2283 2327.12 47.5605 2311.49 47.5605L2203.03 47.5605C2171.78 47.5605 2146.44 72.896 2146.44 104.149V193.747C2146.44 225 2171.78 250.335 2203.03 250.335H2283.2C2314.45 250.335 2339.79 225 2339.79 193.747V174.884C2339.79 143.631 2314.45 118.296 2283.2 118.296H2210.1C2206.2 118.296 2203.03 115.129 2203.03 111.222C2203.03 107.316 2206.2 104.149 2210.1 104.149L2311.49 104.149ZM2212.46 174.884C2207.25 174.884 2203.03 179.107 2203.03 184.315C2203.03 189.524 2207.25 193.747 2212.46 193.747H2273.77C2278.98 193.747 2283.2 189.524 2283.2 184.315C2283.2 179.107 2278.98 174.884 2273.77 174.884H2212.46Z" fill="white"/>
<path fill-rule="evenodd" clip-rule="evenodd" d="M1507.96 101.516C1507.96 74.2006 1485.82 52.0566 1458.5 52.0566L1364.08 52.0566C1336.76 52.0566 1314.62 74.2006 1314.62 101.516V195.94C1314.62 223.256 1336.76 245.4 1364.08 245.4H1458.5C1485.82 245.4 1507.96 223.256 1507.96 195.94V101.516ZM1447.26 119.502C1450.99 119.502 1454.01 116.482 1454.01 112.757C1454.01 109.032 1450.99 106.013 1447.26 106.013L1375.32 106.013C1371.59 106.013 1368.57 109.032 1368.57 112.757C1368.57 116.482 1371.59 119.502 1375.32 119.502L1447.26 119.502ZM1454.01 182.451C1454.01 177.484 1449.98 173.458 1445.01 173.458H1377.57C1372.6 173.458 1368.57 177.484 1368.57 182.451C1368.57 187.417 1372.6 191.444 1377.57 191.444H1445.01C1449.98 191.444 1454.01 187.417 1454.01 182.451Z" fill="white"/>
<path fill-rule="evenodd" clip-rule="evenodd" d="M1923.87 106.013C1923.87 76.2137 1899.72 52.0566 1869.92 52.0566L1784.49 52.0566C1754.69 52.0566 1730.53 76.2137 1730.53 106.013V119.502C1730.53 149.301 1754.69 173.458 1784.49 173.458L1860.92 173.458C1865.89 173.458 1869.92 177.484 1869.92 182.451C1869.92 187.417 1865.89 191.444 1860.92 191.444H1757.51C1742.61 191.444 1730.53 203.522 1730.53 218.422C1730.53 233.321 1742.61 245.4 1757.51 245.4H1869.92C1899.72 245.4 1923.87 221.243 1923.87 191.444V106.013ZM1863.17 119.502C1866.9 119.502 1869.92 116.482 1869.92 112.757C1869.92 109.032 1866.9 106.013 1863.17 106.013L1791.23 106.013C1787.51 106.013 1784.49 109.032 1784.49 112.757C1784.49 116.482 1787.51 119.502 1791.23 119.502L1863.17 119.502Z" fill="white"/>
<path d="M1661.96 245.4H1549.55C1534.65 245.4 1522.57 233.321 1522.57 218.422C1522.57 203.522 1534.65 191.444 1549.55 191.444H1652.97C1657.93 191.444 1661.96 187.417 1661.96 182.451C1661.96 177.484 1657.93 173.458 1652.97 173.458H1576.53C1546.73 173.458 1522.57 149.301 1522.57 119.502V106.013C1522.57 76.2137 1546.73 52.0566 1576.53 52.0566L1688.94 52.0566C1703.84 52.0566 1715.92 64.1352 1715.92 79.0347C1715.92 93.9343 1703.84 106.013 1688.94 106.013H1583.27C1579.55 106.013 1576.53 109.032 1576.53 112.757C1576.53 116.482 1579.55 119.502 1583.27 119.502H1661.96C1691.76 119.502 1715.92 143.659 1715.92 173.458V191.444C1715.92 221.243 1691.76 245.4 1661.96 245.4Z" fill="white"/>
<path d="M3618.59 100.788C3618.59 70.989 3594.43 46.832 3564.63 46.832L3452.22 46.832C3437.32 46.832 3425.24 58.9105 3425.24 73.8101C3425.24 88.7097 3437.32 100.788 3452.22 100.788L3555.64 100.788C3560.6 100.788 3564.63 104.814 3564.63 109.781C3564.63 114.747 3560.6 118.774 3555.64 118.774H3479.2C3449.4 118.774 3425.24 142.931 3425.24 172.73L3425.24 186.219C3425.24 216.018 3449.68 240.175 3479.47 240.175H3591.61C3606.51 240.175 3618.59 228.097 3618.59 213.197C3618.59 198.297 3606.51 186.219 3591.61 186.219H3486.22C3482.49 186.219 3479.47 183.199 3479.47 179.474C3479.47 175.749 3482.49 172.73 3486.22 172.73H3564.63C3594.43 172.73 3618.59 148.573 3618.59 118.774V100.788Z" fill="white"/>
<path d="M3633.2 73.8082C3633.2 58.9086 3645.28 46.8301 3660.18 46.8301L3772.59 46.8301C3802.39 46.8301 3826.54 70.9871 3826.54 100.786V186.217C3826.54 216.016 3802.39 240.173 3772.59 240.173H3660.18C3645.28 240.173 3633.2 228.095 3633.2 213.195C3633.2 198.295 3645.28 186.217 3660.18 186.217H3765.84C3769.57 186.217 3772.59 183.197 3772.59 179.472C3772.59 175.748 3769.57 172.728 3765.84 172.728H3660.18C3645.28 172.728 3633.2 160.649 3633.2 145.75C3633.2 130.85 3645.28 118.772 3660.18 118.772L3763.59 118.772C3768.56 118.772 3772.59 114.746 3772.59 109.779C3772.59 104.812 3768.56 100.786 3763.59 100.786L3660.18 100.786C3645.28 100.786 3633.2 88.7078 3633.2 73.8082Z" fill="white"/>
<path fill-rule="evenodd" clip-rule="evenodd" d="M3202.67 96.2919C3202.67 68.976 3180.53 46.832 3153.21 46.832L3058.79 46.832C3031.47 46.832 3009.33 68.976 3009.33 96.2919V190.715C3009.33 218.031 3031.47 240.175 3058.79 240.175H3153.21C3180.53 240.175 3202.67 218.031 3202.67 190.715V96.2919ZM3141.97 114.277C3145.7 114.277 3148.72 111.258 3148.72 107.533C3148.72 103.808 3145.7 100.788 3141.97 100.788L3070.03 100.788C3066.31 100.788 3063.29 103.808 3063.29 107.533C3063.29 111.258 3066.31 114.277 3070.03 114.277L3141.97 114.277ZM3148.72 177.226C3148.72 172.26 3144.69 168.234 3139.73 168.234H3072.28C3067.31 168.234 3063.29 172.26 3063.29 177.226C3063.29 182.193 3067.31 186.219 3072.28 186.219H3139.73C3144.69 186.219 3148.72 182.193 3148.72 177.226Z" fill="white"/>
<path fill-rule="evenodd" clip-rule="evenodd" d="M2994.72 100.786C2994.72 70.9871 2970.56 46.8301 2940.76 46.8301L2855.33 46.8301C2825.53 46.8301 2801.37 70.9871 2801.37 100.786V114.275C2801.37 144.075 2825.53 168.232 2855.33 168.232L2931.77 168.232C2936.74 168.232 2940.76 172.258 2940.76 177.224C2940.76 182.191 2936.74 186.217 2931.77 186.217H2828.35C2813.45 186.217 2801.37 198.295 2801.37 213.195C2801.37 228.095 2813.45 240.173 2828.35 240.173H2940.76C2970.56 240.173 2994.72 216.016 2994.72 186.217V100.786ZM2934.02 114.275C2937.74 114.275 2940.76 111.256 2940.76 107.531C2940.76 103.806 2937.74 100.786 2934.02 100.786L2862.08 100.786C2858.35 100.786 2855.33 103.806 2855.33 107.531C2855.33 111.256 2858.35 114.275 2862.08 114.275L2934.02 114.275Z" fill="white"/>
<path d="M2732.81 240.173H2620.4C2605.5 240.173 2593.42 228.095 2593.42 213.195C2593.42 198.295 2605.5 186.217 2620.4 186.217H2723.81C2728.78 186.217 2732.81 182.191 2732.81 177.224C2732.81 172.258 2728.78 168.232 2723.81 168.232H2647.37C2617.58 168.232 2593.42 144.075 2593.42 114.275V100.786C2593.42 70.9871 2617.58 46.8301 2647.37 46.8301L2759.78 46.8301C2774.68 46.8301 2786.76 58.9086 2786.76 73.8082C2786.76 88.7078 2774.68 100.786 2759.78 100.786H2654.12C2650.39 100.786 2647.37 103.806 2647.37 107.531C2647.37 111.256 2650.39 114.275 2654.12 114.275H2732.81C2762.6 114.275 2786.76 138.432 2786.76 168.232V186.217C2786.76 216.016 2762.6 240.173 2732.81 240.173Z" fill="white"/>
<path fill-rule="evenodd" clip-rule="evenodd" d="M3382.34 98.9222C3397.96 98.9222 3410.63 86.2545 3410.63 70.6281C3410.63 55.0017 3397.96 42.334 3382.34 42.334L3273.88 42.334C3242.62 42.334 3217.29 67.6694 3217.29 98.9222V188.52C3217.29 219.773 3242.62 245.108 3273.88 245.108H3354.04C3385.29 245.108 3410.63 219.773 3410.63 188.52V169.657C3410.63 138.405 3385.29 113.069 3354.04 113.069H3280.95C3277.04 113.069 3273.88 109.902 3273.88 105.996C3273.88 102.089 3277.04 98.9222 3280.95 98.9222L3382.34 98.9222ZM3283.31 169.657C3278.1 169.657 3273.88 173.88 3273.88 179.089C3273.88 184.298 3278.1 188.52 3283.31 188.52H3344.61C3349.82 188.52 3354.04 184.298 3354.04 179.089C3354.04 173.88 3349.82 169.657 3344.61 169.657H3283.31Z" fill="white"/>
<path d="M5093.39 100.786C5093.39 70.9871 5069.23 46.8301 5039.43 46.8301L4927.03 46.8301C4912.13 46.8301 4900.05 58.9086 4900.05 73.8082C4900.05 88.7078 4912.13 100.786 4927.02 100.786L5030.44 100.786C5035.41 100.786 5039.43 104.812 5039.43 109.779C5039.43 114.746 5035.41 118.772 5030.44 118.772H4954C4924.2 118.772 4900.05 142.929 4900.05 172.728L4900.05 186.217C4900.05 216.016 4924.48 240.173 4954.28 240.173H5066.41C5081.31 240.173 5093.39 228.095 5093.39 213.195C5093.39 198.295 5081.31 186.217 5066.41 186.217H4961.02C4957.3 186.217 4954.28 183.197 4954.28 179.472C4954.28 175.748 4957.3 172.728 4961.02 172.728H5039.43C5069.23 172.728 5093.39 148.571 5093.39 118.772V100.786Z" fill="white"/>
<path d="M4484.13 73.8101C4484.13 58.9105 4496.21 46.832 4511.11 46.832L4623.52 46.832C4653.32 46.832 4677.48 70.9891 4677.48 100.788V186.219C4677.48 216.018 4653.32 240.175 4623.52 240.175H4511.11C4496.21 240.175 4484.13 228.097 4484.13 213.197C4484.13 198.297 4496.21 186.219 4511.11 186.219H4616.78C4620.5 186.219 4623.52 183.199 4623.52 179.474C4623.52 175.749 4620.5 172.73 4616.78 172.73H4511.11C4496.21 172.73 4484.13 160.651 4484.13 145.752C4484.13 130.852 4496.21 118.774 4511.11 118.774L4614.53 118.774C4619.5 118.774 4623.52 114.747 4623.52 109.781C4623.52 104.814 4619.5 100.788 4614.53 100.788L4511.11 100.788C4496.21 100.788 4484.13 88.7097 4484.13 73.8101Z" fill="white"/>
<path fill-rule="evenodd" clip-rule="evenodd" d="M4857.14 98.9222C4872.77 98.9222 4885.43 86.2545 4885.43 70.6281C4885.43 55.0017 4872.77 42.334 4857.14 42.334L4748.68 42.334C4717.43 42.334 4692.09 67.6694 4692.09 98.9222V188.52C4692.09 219.773 4717.43 245.108 4748.68 245.108H4828.85C4860.1 245.108 4885.43 219.773 4885.43 188.52V169.657C4885.43 138.405 4860.1 113.069 4828.85 113.069H4755.75C4751.85 113.069 4748.68 109.902 4748.68 105.996C4748.68 102.089 4751.85 98.9222 4755.75 98.9222L4857.14 98.9222ZM4758.11 169.657C4752.9 169.657 4748.68 173.88 4748.68 179.089C4748.68 184.298 4752.9 188.52 4758.11 188.52H4819.41C4824.62 188.52 4828.85 184.298 4828.85 179.089C4828.85 173.88 4824.62 169.657 4819.41 169.657H4758.11Z" fill="white"/>
<path fill-rule="evenodd" clip-rule="evenodd" d="M4053.61 96.2899C4053.61 68.974 4031.47 46.8301 4004.15 46.8301L3909.73 46.8301C3882.41 46.8301 3860.27 68.974 3860.27 96.2899V190.713C3860.27 218.029 3882.41 240.173 3909.73 240.173H4004.15C4031.47 240.173 4053.61 218.029 4053.61 190.713V96.2899ZM3992.91 114.275C3996.63 114.275 3999.65 111.256 3999.65 107.531C3999.65 103.806 3996.63 100.786 3992.91 100.786L3920.97 100.786C3917.24 100.786 3914.22 103.806 3914.22 107.531C3914.22 111.256 3917.24 114.275 3920.97 114.275L3992.91 114.275ZM3999.65 177.224C3999.65 172.258 3995.63 168.232 3990.66 168.232H3923.21C3918.25 168.232 3914.22 172.258 3914.22 177.224C3914.22 182.191 3918.25 186.217 3923.21 186.217H3990.66C3995.63 186.217 3999.65 182.191 3999.65 177.224Z" fill="white"/>
<path fill-rule="evenodd" clip-rule="evenodd" d="M4469.52 100.788C4469.52 70.9891 4445.36 46.832 4415.57 46.832L4330.14 46.832C4300.34 46.832 4276.18 70.989 4276.18 100.788V114.277C4276.18 144.076 4300.34 168.234 4330.14 168.234L4406.57 168.234C4411.54 168.234 4415.57 172.26 4415.57 177.226C4415.57 182.193 4411.54 186.219 4406.57 186.219H4303.16C4288.26 186.219 4276.18 198.297 4276.18 213.197C4276.18 228.097 4288.26 240.175 4303.16 240.175H4415.57C4445.36 240.175 4469.52 216.018 4469.52 186.219V100.788ZM4408.82 114.277C4412.55 114.277 4415.57 111.258 4415.57 107.533C4415.57 103.808 4412.55 100.788 4408.82 100.788L4336.88 100.788C4333.15 100.788 4330.14 103.808 4330.14 107.533C4330.14 111.258 4333.15 114.277 4336.88 114.277L4408.82 114.277Z" fill="white"/>
<path d="M4207.61 240.175H4095.2C4080.3 240.175 4068.22 228.097 4068.22 213.197C4068.22 198.297 4080.3 186.219 4095.2 186.219H4198.62C4203.58 186.219 4207.61 182.193 4207.61 177.226C4207.61 172.26 4203.58 168.234 4198.62 168.234H4122.18C4092.38 168.234 4068.22 144.076 4068.22 114.277V100.788C4068.22 70.9891 4092.38 46.832 4122.18 46.832L4234.59 46.832C4249.49 46.832 4261.57 58.9105 4261.57 73.8101C4261.57 88.7097 4249.49 100.788 4234.59 100.788H4128.92C4125.2 100.788 4122.18 103.808 4122.18 107.533C4122.18 111.258 4125.2 114.277 4128.92 114.277H4207.61C4237.41 114.277 4261.57 138.434 4261.57 168.234V186.219C4261.57 216.018 4237.41 240.175 4207.61 240.175Z" fill="white"/>
<path d="M6160.06 106.013C6160.06 76.2137 6135.91 52.0566 6106.11 52.0566L5993.7 52.0566C5978.8 52.0566 5966.72 64.1351 5966.72 79.0347C5966.72 93.9343 5978.8 106.013 5993.7 106.013L6097.11 106.013C6102.08 106.013 6106.11 110.039 6106.11 115.006C6106.11 119.972 6102.08 123.998 6097.11 123.998H6020.68C5990.88 123.998 5966.72 148.155 5966.72 177.954L5966.72 191.444C5966.72 221.243 5991.15 245.4 6020.95 245.4H6133.08C6147.98 245.4 6160.06 233.321 6160.06 218.422C6160.06 203.522 6147.98 191.444 6133.08 191.444H6027.69C6023.97 191.444 6020.95 188.424 6020.95 184.699C6020.95 180.974 6023.97 177.954 6027.69 177.954H6106.11C6135.91 177.954 6160.06 153.797 6160.06 123.998V106.013Z" fill="white"/>
<path d="M6174.68 79.0347C6174.68 64.1352 6186.75 52.0566 6201.65 52.0566H6314.06C6343.86 52.0566 6368.02 76.2137 6368.02 106.013V191.444C6368.02 221.243 6343.86 245.4 6314.06 245.4H6201.65C6186.75 245.4 6174.68 233.321 6174.68 218.422C6174.68 203.522 6186.75 191.444 6201.65 191.444H6307.32C6311.04 191.444 6314.06 188.424 6314.06 184.699C6314.06 180.974 6311.04 177.954 6307.32 177.954H6201.65C6186.75 177.954 6174.68 165.876 6174.68 150.976C6174.68 136.077 6186.75 123.998 6201.65 123.998L6305.07 123.998C6310.04 123.998 6314.06 119.972 6314.06 115.006C6314.06 110.039 6310.04 106.013 6305.07 106.013L6201.65 106.013C6186.75 106.013 6174.68 93.9343 6174.68 79.0347Z" fill="white"/>
<path fill-rule="evenodd" clip-rule="evenodd" d="M5744.15 101.518C5744.15 74.2025 5722.01 52.0586 5694.69 52.0586H5600.27C5572.95 52.0586 5550.81 74.2025 5550.81 101.518V195.942C5550.81 223.258 5572.95 245.402 5600.27 245.402H5694.69C5722.01 245.402 5744.15 223.258 5744.15 195.942V101.518ZM5683.45 119.504C5687.17 119.504 5690.19 116.484 5690.19 112.759C5690.19 109.034 5687.17 106.015 5683.45 106.015L5611.51 106.015C5607.78 106.015 5604.76 109.034 5604.76 112.759C5604.76 116.484 5607.78 119.504 5611.51 119.504L5683.45 119.504ZM5690.19 182.453C5690.19 177.486 5686.17 173.46 5681.2 173.46H5613.76C5608.79 173.46 5604.76 177.486 5604.76 182.453C5604.76 187.419 5608.79 191.445 5613.76 191.445H5681.2C5686.17 191.445 5690.19 187.419 5690.19 182.453Z" fill="white"/>
<path fill-rule="evenodd" clip-rule="evenodd" d="M5536.19 106.015C5536.19 76.2156 5512.04 52.0586 5482.24 52.0586H5396.81C5367.01 52.0586 5342.85 76.2156 5342.85 106.015V119.504C5342.85 149.303 5367.01 173.46 5396.81 173.46L5473.24 173.46C5478.21 173.46 5482.24 177.486 5482.24 182.453C5482.24 187.419 5478.21 191.445 5473.24 191.445H5369.83C5354.93 191.445 5342.85 203.524 5342.85 218.424C5342.85 233.323 5354.93 245.402 5369.83 245.402H5482.24C5512.04 245.402 5536.19 221.245 5536.19 191.445V106.015ZM5475.49 119.504C5479.22 119.504 5482.24 116.484 5482.24 112.759C5482.24 109.034 5479.22 106.015 5475.49 106.015L5403.55 106.015C5399.83 106.015 5396.81 109.034 5396.81 112.759C5396.81 116.484 5399.83 119.504 5403.55 119.504L5475.49 119.504Z" fill="white"/>
<path d="M5274.28 245.4H5161.87C5146.97 245.4 5134.89 233.321 5134.89 218.422C5134.89 203.522 5146.97 191.444 5161.87 191.444H5265.29C5270.26 191.444 5274.28 187.417 5274.28 182.451C5274.28 177.484 5270.26 173.458 5265.29 173.458H5188.85C5159.05 173.458 5134.89 149.301 5134.89 119.502V106.013C5134.89 76.2137 5159.05 52.0566 5188.85 52.0566H5301.26C5316.16 52.0566 5328.24 64.1352 5328.24 79.0347C5328.24 93.9343 5316.16 106.013 5301.26 106.013H5195.6C5191.87 106.013 5188.85 109.032 5188.85 112.757C5188.85 116.482 5191.87 119.502 5195.6 119.502H5274.28C5304.08 119.502 5328.24 143.659 5328.24 173.458V191.444C5328.24 221.243 5304.08 245.4 5274.28 245.4Z" fill="white"/>
<path fill-rule="evenodd" clip-rule="evenodd" d="M5923.81 104.149C5939.44 104.149 5952.11 91.4811 5952.11 75.8547C5952.11 60.2283 5939.44 47.5605 5923.81 47.5605H5815.35C5784.1 47.5605 5758.76 72.896 5758.76 104.149V193.747C5758.76 225 5784.1 250.335 5815.35 250.335H5895.52C5926.77 250.335 5952.11 225 5952.11 193.747V174.884C5952.11 143.631 5926.77 118.296 5895.52 118.296H5822.42C5818.52 118.296 5815.35 115.129 5815.35 111.222C5815.35 107.316 5818.52 104.149 5822.42 104.149L5923.81 104.149ZM5824.78 174.884C5819.57 174.884 5815.35 179.107 5815.35 184.315C5815.35 189.524 5819.57 193.747 5824.78 193.747H5886.09C5891.3 193.747 5895.52 189.524 5895.52 184.315C5895.52 179.107 5891.3 174.884 5886.09 174.884H5824.78Z" fill="white"/>
<path d="M7634.86 106.011C7634.86 76.2117 7610.71 52.0547 7580.91 52.0547L7468.5 52.0547C7453.6 52.0547 7441.52 64.1332 7441.52 79.0328C7441.52 93.9324 7453.6 106.011 7468.5 106.011L7571.92 106.011C7576.88 106.011 7580.91 110.037 7580.91 115.004C7580.91 119.97 7576.88 123.996 7571.92 123.996H7495.48C7465.68 123.996 7441.52 148.153 7441.52 177.953L7441.52 191.442C7441.52 221.241 7465.95 245.398 7495.75 245.398H7607.89C7622.79 245.398 7634.86 233.319 7634.86 218.42C7634.86 203.52 7622.79 191.442 7607.89 191.442H7502.5C7498.77 191.442 7495.75 188.422 7495.75 184.697C7495.75 180.972 7498.77 177.953 7502.5 177.953H7580.91C7610.71 177.953 7634.86 153.796 7634.86 123.996V106.011Z" fill="white"/>
<path d="M7025.61 79.0347C7025.61 64.1352 7037.69 52.0566 7052.59 52.0566L7165 52.0566C7194.79 52.0566 7218.95 76.2137 7218.95 106.013V191.444C7218.95 221.243 7194.79 245.4 7165 245.4H7052.59C7037.69 245.4 7025.61 233.321 7025.61 218.422C7025.61 203.522 7037.69 191.444 7052.59 191.444H7158.25C7161.98 191.444 7165 188.424 7165 184.699C7165 180.974 7161.98 177.954 7158.25 177.954H7052.59C7037.69 177.954 7025.61 165.876 7025.61 150.976C7025.61 136.077 7037.69 123.998 7052.59 123.998L7156 123.998C7160.97 123.998 7165 119.972 7165 115.006C7165 110.039 7160.97 106.013 7156 106.013L7052.59 106.013C7037.69 106.013 7025.61 93.9343 7025.61 79.0347Z" fill="white"/>
<path fill-rule="evenodd" clip-rule="evenodd" d="M7398.61 104.147C7414.24 104.147 7426.91 91.4791 7426.91 75.8527C7426.91 60.2263 7414.24 47.5586 7398.61 47.5586L7290.15 47.5586C7258.9 47.5586 7233.57 72.894 7233.57 104.147V193.745C7233.57 224.998 7258.9 250.333 7290.15 250.333H7370.32C7401.57 250.333 7426.91 224.998 7426.91 193.745V174.882C7426.91 143.629 7401.57 118.294 7370.32 118.294H7297.23C7293.32 118.294 7290.15 115.127 7290.15 111.22C7290.15 107.314 7293.32 104.147 7297.23 104.147L7398.61 104.147ZM7299.59 174.882C7294.38 174.882 7290.15 179.105 7290.15 184.313C7290.15 189.522 7294.38 193.745 7299.59 193.745H7360.89C7366.1 193.745 7370.32 189.522 7370.32 184.313C7370.32 179.105 7366.1 174.882 7360.89 174.882H7299.59Z" fill="white"/>
<path fill-rule="evenodd" clip-rule="evenodd" d="M6595.08 101.515C6595.08 74.1986 6572.94 52.0547 6545.62 52.0547L6451.2 52.0547C6423.88 52.0547 6401.74 74.1986 6401.74 101.515V195.938C6401.74 223.254 6423.88 245.398 6451.2 245.398H6545.62C6572.94 245.398 6595.08 223.254 6595.08 195.938V101.515ZM6534.38 119.5C6538.11 119.5 6541.13 116.48 6541.13 112.755C6541.13 109.031 6538.11 106.011 6534.38 106.011L6462.44 106.011C6458.72 106.011 6455.7 109.031 6455.7 112.755C6455.7 116.48 6458.72 119.5 6462.44 119.5L6534.38 119.5ZM6541.13 182.449C6541.13 177.482 6537.1 173.456 6532.13 173.456H6464.69C6459.72 173.456 6455.7 177.482 6455.7 182.449C6455.7 187.415 6459.72 191.442 6464.69 191.442H6532.13C6537.1 191.442 6541.13 187.415 6541.13 182.449Z" fill="white"/>
<path fill-rule="evenodd" clip-rule="evenodd" d="M7011 106.011C7011 76.2117 6986.84 52.0547 6957.04 52.0547L6871.61 52.0547C6841.81 52.0547 6817.65 76.2117 6817.65 106.011V119.5C6817.65 149.299 6841.81 173.456 6871.61 173.456L6948.05 173.456C6953.01 173.456 6957.04 177.482 6957.04 182.449C6957.04 187.415 6953.01 191.442 6948.05 191.442H6844.63C6829.73 191.442 6817.65 203.52 6817.65 218.42C6817.65 233.319 6829.73 245.398 6844.63 245.398H6957.04C6986.84 245.398 7011 221.241 7011 191.442V106.011ZM6950.3 119.5C6954.02 119.5 6957.04 116.48 6957.04 112.755C6957.04 109.031 6954.02 106.011 6950.3 106.011L6878.35 106.011C6874.63 106.011 6871.61 109.031 6871.61 112.755C6871.61 116.48 6874.63 119.5 6878.35 119.5L6950.3 119.5Z" fill="white"/>
<path d="M6749.08 245.398H6636.68C6621.78 245.398 6609.7 233.319 6609.7 218.42C6609.7 203.52 6621.78 191.442 6636.68 191.442H6740.09C6745.06 191.442 6749.08 187.415 6749.08 182.449C6749.08 177.482 6745.06 173.456 6740.09 173.456H6663.65C6633.85 173.456 6609.7 149.299 6609.7 119.5V106.011C6609.7 76.2117 6633.85 52.0547 6663.65 52.0547L6776.06 52.0547C6790.96 52.0547 6803.04 64.1332 6803.04 79.0328C6803.04 93.9324 6790.96 106.011 6776.06 106.011H6670.4C6666.67 106.011 6663.65 109.031 6663.65 112.755C6663.65 116.48 6666.67 119.5 6670.4 119.5H6749.08C6778.88 119.5 6803.04 143.657 6803.04 173.456V191.442C6803.04 221.241 6778.88 245.398 6749.08 245.398Z" fill="white"/>
<path d="M8901.99 105.909C8901.99 76.1101 8877.83 51.9531 8848.03 51.9531L8735.62 51.9531C8720.72 51.9531 8708.65 64.0316 8708.65 78.9312C8708.65 93.8308 8720.72 105.909 8735.62 105.909L8839.04 105.909C8844.01 105.909 8848.03 109.936 8848.03 114.902C8848.03 119.869 8844.01 123.895 8839.04 123.895H8762.6C8732.8 123.895 8708.65 148.052 8708.65 177.851L8708.65 191.34C8708.65 221.139 8733.08 245.296 8762.88 245.296H8875.01C8889.91 245.296 8901.99 233.218 8901.99 218.318C8901.99 203.419 8889.91 191.34 8875.01 191.34H8769.62C8765.9 191.34 8762.88 188.32 8762.88 184.595C8762.88 180.871 8765.9 177.851 8769.62 177.851H8848.03C8877.83 177.851 8901.99 153.694 8901.99 123.895V105.909Z" fill="white"/>
<path d="M8292.73 78.9332C8292.73 64.0336 8304.81 51.9551 8319.71 51.9551L8432.12 51.9551C8461.92 51.9551 8486.08 76.1121 8486.08 105.911V191.342C8486.08 221.141 8461.92 245.298 8432.12 245.298H8319.71C8304.81 245.298 8292.73 233.22 8292.73 218.32C8292.73 203.42 8304.81 191.342 8319.71 191.342H8425.38C8429.1 191.342 8432.12 188.322 8432.12 184.597C8432.12 180.873 8429.1 177.853 8425.38 177.853H8319.71C8304.81 177.853 8292.73 165.774 8292.73 150.875C8292.73 135.975 8304.81 123.897 8319.71 123.897L8423.13 123.897C8428.09 123.897 8432.12 119.871 8432.12 114.904C8432.12 109.937 8428.09 105.911 8423.13 105.911L8319.71 105.911C8304.81 105.911 8292.73 93.8328 8292.73 78.9332Z" fill="white"/>
<path fill-rule="evenodd" clip-rule="evenodd" d="M8665.74 104.045C8681.37 104.045 8694.03 91.3775 8694.03 75.7511C8694.03 60.1247 8681.37 47.457 8665.74 47.457L8557.28 47.457C8526.03 47.457 8500.69 72.7924 8500.69 104.045V193.643C8500.69 224.896 8526.03 250.231 8557.28 250.231H8637.44C8668.7 250.231 8694.03 224.896 8694.03 193.643V174.781C8694.03 143.528 8668.7 118.192 8637.44 118.192H8564.35C8560.45 118.192 8557.28 115.025 8557.28 111.119C8557.28 107.212 8560.45 104.045 8564.35 104.045L8665.74 104.045ZM8566.71 174.781C8561.5 174.781 8557.28 179.003 8557.28 184.212C8557.28 189.421 8561.5 193.643 8566.71 193.643H8628.01C8633.22 193.643 8637.44 189.421 8637.44 184.212C8637.44 179.003 8633.22 174.781 8628.01 174.781H8566.71Z" fill="white"/>
<path fill-rule="evenodd" clip-rule="evenodd" d="M7862.21 101.413C7862.21 74.0971 7840.06 51.9531 7812.75 51.9531L7718.32 51.9531C7691.01 51.9531 7668.86 74.0971 7668.86 101.413V195.836C7668.86 223.152 7691.01 245.296 7718.32 245.296H7812.75C7840.06 245.296 7862.21 223.152 7862.21 195.836V101.413ZM7801.51 119.398C7805.23 119.398 7808.25 116.379 7808.25 112.654C7808.25 108.929 7805.23 105.909 7801.51 105.909L7729.56 105.909C7725.84 105.909 7722.82 108.929 7722.82 112.654C7722.82 116.379 7725.84 119.398 7729.56 119.398L7801.51 119.398ZM7808.25 182.347C7808.25 177.381 7804.22 173.355 7799.26 173.355H7731.81C7726.85 173.355 7722.82 177.381 7722.82 182.347C7722.82 187.314 7726.85 191.34 7731.81 191.34H7799.26C7804.22 191.34 7808.25 187.314 7808.25 182.347Z" fill="white"/>
<path fill-rule="evenodd" clip-rule="evenodd" d="M8278.12 105.909C8278.12 76.1101 8253.96 51.9531 8224.16 51.9531L8138.73 51.9531C8108.93 51.9531 8084.78 76.1101 8084.78 105.909V119.398C8084.78 149.198 8108.93 173.355 8138.73 173.355L8215.17 173.355C8220.14 173.355 8224.16 177.381 8224.16 182.347C8224.16 187.314 8220.14 191.34 8215.17 191.34H8111.75C8096.86 191.34 8084.78 203.419 8084.78 218.318C8084.78 233.218 8096.86 245.296 8111.75 245.296H8224.16C8253.96 245.296 8278.12 221.139 8278.12 191.34V105.909ZM8217.42 119.398C8221.14 119.398 8224.16 116.379 8224.16 112.654C8224.16 108.929 8221.14 105.909 8217.42 105.909L8145.48 105.909C8141.75 105.909 8138.73 108.929 8138.73 112.654C8138.73 116.379 8141.75 119.398 8145.48 119.398L8217.42 119.398Z" fill="white"/>
<path d="M8016.21 245.296H7903.8C7888.9 245.296 7876.82 233.218 7876.82 218.318C7876.82 203.419 7888.9 191.34 7903.8 191.34H8007.21C8012.18 191.34 8016.21 187.314 8016.21 182.347C8016.21 177.381 8012.18 173.355 8007.21 173.355H7930.78C7900.98 173.355 7876.82 149.198 7876.82 119.398V105.909C7876.82 76.1101 7900.98 51.9531 7930.78 51.9531L8043.19 51.9531C8058.09 51.9531 8070.16 64.0316 8070.16 78.9312C8070.16 93.8308 8058.09 105.909 8043.19 105.909H7937.52C7933.8 105.909 7930.78 108.929 7930.78 112.654C7930.78 116.379 7933.8 119.398 7937.52 119.398H8016.21C8046.01 119.398 8070.16 143.555 8070.16 173.355V191.34C8070.16 221.139 8046.01 245.296 8016.21 245.296Z" fill="white"/>
<path d="M10168.8 100.714C10168.8 70.9148 10144.7 46.7578 10114.9 46.7578L10002.5 46.7578C9987.57 46.7578 9975.49 58.8363 9975.49 73.7359C9975.49 88.6355 9987.57 100.714 10002.5 100.714L10105.9 100.714C10110.9 100.714 10114.9 104.74 10114.9 109.707C10114.9 114.673 10110.9 118.699 10105.9 118.699H10029.4C9999.65 118.699 9975.49 142.856 9975.49 172.656L9975.49 186.145C9975.49 215.944 9999.92 240.101 10029.7 240.101H10141.9C10156.8 240.101 10168.8 228.022 10168.8 213.123C10168.8 198.223 10156.8 186.145 10141.9 186.145H10036.5C10032.7 186.145 10029.7 183.125 10029.7 179.4C10029.7 175.675 10032.7 172.656 10036.5 172.656H10114.9C10144.7 172.656 10168.8 148.499 10168.8 118.699V100.714Z" fill="white"/>
<path d="M9559.58 73.7379C9559.58 58.8383 9571.66 46.7598 9586.56 46.7598L9698.96 46.7598C9728.76 46.7598 9752.92 70.9168 9752.92 100.716V186.147C9752.92 215.946 9728.76 240.103 9698.96 240.103H9586.56C9571.66 240.103 9559.58 228.024 9559.58 213.125C9559.58 198.225 9571.66 186.147 9586.56 186.147H9692.22C9695.95 186.147 9698.96 183.127 9698.96 179.402C9698.96 175.677 9695.95 172.658 9692.22 172.658H9586.56C9571.66 172.658 9559.58 160.579 9559.58 145.679C9559.58 130.78 9571.66 118.701 9586.56 118.701L9689.97 118.701C9694.94 118.701 9698.96 114.675 9698.96 109.709C9698.96 104.742 9694.94 100.716 9689.97 100.716L9586.56 100.716C9571.66 100.716 9559.58 88.6375 9559.58 73.7379Z" fill="white"/>
<path fill-rule="evenodd" clip-rule="evenodd" d="M9932.58 98.8499C9948.21 98.8499 9960.88 86.1822 9960.88 70.5558C9960.88 54.9294 9948.21 42.2617 9932.58 42.2617L9824.12 42.2617C9792.87 42.2617 9767.54 67.5971 9767.54 98.8499V188.448C9767.54 219.701 9792.87 245.036 9824.12 245.036H9904.29C9935.54 245.036 9960.88 219.701 9960.88 188.448V169.585C9960.88 138.332 9935.54 112.997 9904.29 112.997H9831.2C9827.29 112.997 9824.12 109.83 9824.12 105.923C9824.12 102.017 9827.29 98.8499 9831.2 98.8499L9932.58 98.8499ZM9833.55 169.585C9828.35 169.585 9824.12 173.808 9824.12 179.017C9824.12 184.225 9828.35 188.448 9833.55 188.448H9894.86C9900.07 188.448 9904.29 184.225 9904.29 179.017C9904.29 173.808 9900.07 169.585 9894.86 169.585H9833.55Z" fill="white"/>
<path fill-rule="evenodd" clip-rule="evenodd" d="M9129.05 96.2177C9129.05 68.9017 9106.91 46.7578 9079.59 46.7578L8985.17 46.7578C8957.85 46.7578 8935.71 68.9017 8935.71 96.2177V190.641C8935.71 217.957 8957.85 240.101 8985.17 240.101H9079.59C9106.91 240.101 9129.05 217.957 9129.05 190.641V96.2177ZM9068.35 114.203C9072.08 114.203 9075.1 111.183 9075.1 107.459C9075.1 103.734 9072.08 100.714 9068.35 100.714L8996.41 100.714C8992.69 100.714 8989.67 103.734 8989.67 107.459C8989.67 111.183 8992.69 114.203 8996.41 114.203L9068.35 114.203ZM9075.1 177.152C9075.1 172.185 9071.07 168.159 9066.1 168.159H8998.66C8993.69 168.159 8989.67 172.185 8989.67 177.152C8989.67 182.119 8993.69 186.145 8998.66 186.145H9066.1C9071.07 186.145 9075.1 182.119 9075.1 177.152Z" fill="white"/>
<path fill-rule="evenodd" clip-rule="evenodd" d="M9544.97 100.714C9544.97 70.9148 9520.81 46.7578 9491.01 46.7578L9405.58 46.7578C9375.78 46.7578 9351.62 70.9148 9351.62 100.714V114.203C9351.62 144.002 9375.78 168.159 9405.58 168.159L9482.02 168.159C9486.98 168.159 9491.01 172.185 9491.01 177.152C9491.01 182.119 9486.98 186.145 9482.02 186.145H9378.6C9363.7 186.145 9351.62 198.223 9351.62 213.123C9351.62 228.022 9363.7 240.101 9378.6 240.101H9491.01C9520.81 240.101 9544.97 215.944 9544.97 186.145V100.714ZM9484.26 114.203C9487.99 114.203 9491.01 111.183 9491.01 107.459C9491.01 103.734 9487.99 100.714 9484.26 100.714L9412.32 100.714C9408.6 100.714 9405.58 103.734 9405.58 107.459C9405.58 111.183 9408.6 114.203 9412.32 114.203L9484.26 114.203Z" fill="white"/>
<path d="M9283.05 240.101H9170.64C9155.74 240.101 9143.67 228.022 9143.67 213.123C9143.67 198.223 9155.74 186.145 9170.64 186.145H9274.06C9279.03 186.145 9283.05 182.119 9283.05 177.152C9283.05 172.185 9279.03 168.159 9274.06 168.159H9197.62C9167.82 168.159 9143.67 144.002 9143.67 114.203V100.714C9143.67 70.9148 9167.82 46.7578 9197.62 46.7578L9310.03 46.7578C9324.93 46.7578 9337.01 58.8363 9337.01 73.7359C9337.01 88.6355 9324.93 100.714 9310.03 100.714H9204.37C9200.64 100.714 9197.62 103.734 9197.62 107.459C9197.62 111.183 9200.64 114.203 9204.37 114.203H9283.05C9312.85 114.203 9337.01 138.36 9337.01 168.159V186.145C9337.01 215.944 9312.85 240.101 9283.05 240.101Z" fill="white"/>
<path fill-rule="evenodd" clip-rule="evenodd" d="M10396.2 101.116C10396.2 73.8002 10374 51.6562 10346.7 51.6562L10252.3 51.6562C10225 51.6562 10202.8 73.8002 10202.8 101.116V195.539C10202.8 222.855 10225 244.999 10252.3 244.999H10346.7C10374 244.999 10396.2 222.855 10396.2 195.539V101.116ZM10335.5 119.102C10339.2 119.102 10342.2 116.082 10342.2 112.357C10342.2 108.632 10339.2 105.612 10335.5 105.612L10263.5 105.612C10259.8 105.612 10256.8 108.632 10256.8 112.357C10256.8 116.082 10259.8 119.102 10263.5 119.102L10335.5 119.102ZM10342.2 182.05C10342.2 177.084 10338.2 173.058 10333.2 173.058H10265.8C10260.8 173.058 10256.8 177.084 10256.8 182.05C10256.8 187.017 10260.8 191.043 10265.8 191.043H10333.2C10338.2 191.043 10342.2 187.017 10342.2 182.05Z" fill="white"/>
<path fill-rule="evenodd" clip-rule="evenodd" d="M10812.1 105.612C10812.1 75.8133 10787.9 51.6562 10758.1 51.6562L10672.7 51.6562C10642.9 51.6562 10618.7 75.8133 10618.7 105.612V119.102C10618.7 148.901 10642.9 173.058 10672.7 173.058L10749.1 173.058C10754.1 173.058 10758.1 177.084 10758.1 182.05C10758.1 187.017 10754.1 191.043 10749.1 191.043H10645.7C10630.8 191.043 10618.7 203.122 10618.7 218.021C10618.7 232.921 10630.8 244.999 10645.7 244.999H10758.1C10787.9 244.999 10812.1 220.842 10812.1 191.043V105.612ZM10751.4 119.102C10755.1 119.102 10758.1 116.082 10758.1 112.357C10758.1 108.632 10755.1 105.612 10751.4 105.612L10679.4 105.612C10675.7 105.612 10672.7 108.632 10672.7 112.357C10672.7 116.082 10675.7 119.102 10679.4 119.102L10751.4 119.102Z" fill="white"/>
<path d="M10550.2 244.999H10437.8C10422.9 244.999 10410.8 232.921 10410.8 218.021C10410.8 203.122 10422.9 191.043 10437.8 191.043H10541.2C10546.2 191.043 10550.2 187.017 10550.2 182.05C10550.2 177.084 10546.2 173.058 10541.2 173.058H10464.7C10434.9 173.058 10410.8 148.901 10410.8 119.102V105.612C10410.8 75.8133 10434.9 51.6562 10464.7 51.6562L10577.2 51.6562C10592.1 51.6562 10604.1 63.7348 10604.1 78.6344C10604.1 93.5339 10592.1 105.612 10577.2 105.612H10471.5C10467.8 105.612 10464.7 108.632 10464.7 112.357C10464.7 116.082 10467.8 119.102 10471.5 119.102H10550.2C10580 119.102 10604.1 143.259 10604.1 173.058V191.043C10604.1 220.842 10580 244.999 10550.2 244.999Z" fill="white"/>
</svg>
