<svg width="10822" height="297" viewBox="0 0 10822 297" fill="none" xmlns="http://www.w3.org/2000/svg">
<rect x="0.78418" y="0.189453" width="10821.2" height="296.54" fill="#12A4FF"/>
<path d="M1072.94 105.63C1072.94 75.8308 1048.78 51.6738 1018.98 51.6738L906.574 51.6738C891.675 51.6738 879.596 63.7523 879.596 78.6519C879.596 93.5515 891.675 105.63 906.574 105.63L1009.99 105.63C1014.96 105.63 1018.98 109.656 1018.98 114.623C1018.98 119.589 1014.96 123.615 1009.99 123.615H933.552C903.753 123.615 879.596 147.772 879.596 177.572L879.596 191.061C879.596 220.86 904.027 245.017 933.827 245.017H1045.96C1060.86 245.017 1072.94 232.938 1072.94 218.039C1072.94 203.139 1060.86 191.061 1045.96 191.061H940.571C936.846 191.061 933.827 188.041 933.827 184.316C933.827 180.591 936.846 177.572 940.571 177.572H1018.98C1048.78 177.572 1072.94 153.415 1072.94 123.615V105.63Z" fill="#021F69"/>
<path d="M1087.55 78.6519C1087.55 63.7523 1099.63 51.6738 1114.53 51.6738L1226.94 51.6738C1256.74 51.6738 1280.9 75.8308 1280.9 105.63V191.061C1280.9 220.86 1256.74 245.017 1226.94 245.017H1114.53C1099.63 245.017 1087.55 232.938 1087.55 218.039C1087.55 203.139 1099.63 191.061 1114.53 191.061H1220.19C1223.92 191.061 1226.94 188.041 1226.94 184.316C1226.94 180.591 1223.92 177.572 1220.19 177.572H1114.53C1099.63 177.572 1087.55 165.493 1087.55 150.594C1087.55 135.694 1099.63 123.615 1114.53 123.615L1217.95 123.615C1222.91 123.615 1226.94 119.589 1226.94 114.623C1226.94 109.656 1222.91 105.63 1217.95 105.63L1114.53 105.63C1099.63 105.63 1087.55 93.5515 1087.55 78.6519Z" fill="#021F69"/>
<path fill-rule="evenodd" clip-rule="evenodd" d="M657.027 101.136C657.027 73.8197 634.883 51.6758 607.568 51.6758L513.144 51.6758C485.828 51.6758 463.684 73.8197 463.684 101.136V195.559C463.684 222.875 485.828 245.019 513.144 245.019H607.568C634.883 245.019 657.027 222.875 657.027 195.559V101.136ZM596.327 119.121C600.052 119.121 603.071 116.101 603.071 112.377C603.071 108.652 600.052 105.632 596.327 105.632L524.385 105.632C520.66 105.632 517.641 108.652 517.641 112.377C517.641 116.101 520.66 119.121 524.385 119.121L596.327 119.121ZM603.071 182.07C603.071 177.103 599.045 173.077 594.078 173.077H526.633C521.667 173.077 517.641 177.103 517.641 182.07C517.641 187.036 521.667 191.063 526.633 191.063H594.078C599.045 191.063 603.071 187.036 603.071 182.07Z" fill="#021F69"/>
<path fill-rule="evenodd" clip-rule="evenodd" d="M449.071 105.632C449.071 75.8328 424.914 51.6758 395.115 51.6758L309.684 51.6758C279.885 51.6758 255.728 75.8328 255.728 105.632V119.121C255.728 148.92 279.885 173.077 309.684 173.077L386.122 173.077C391.089 173.077 395.115 177.103 395.115 182.07C395.115 187.036 391.089 191.063 386.122 191.063H282.706C267.807 191.063 255.728 203.141 255.728 218.041C255.728 232.94 267.807 245.019 282.706 245.019H395.115C424.914 245.019 449.071 220.862 449.071 191.063V105.632ZM388.37 119.121C392.095 119.121 395.115 116.101 395.115 112.377C395.115 108.652 392.095 105.632 388.37 105.632L316.429 105.632C312.704 105.632 309.684 108.652 309.684 112.377C309.684 116.101 312.704 119.121 316.429 119.121L388.37 119.121Z" fill="#021F69"/>
<path d="M187.159 245.019H74.7501C59.8505 245.019 47.772 232.94 47.772 218.041C47.772 203.141 59.8505 191.063 74.7501 191.063H178.166C183.133 191.063 187.159 187.036 187.159 182.07C187.159 177.103 183.133 173.077 178.166 173.077H101.728C71.929 173.077 47.772 148.92 47.772 119.121V105.632C47.772 75.8328 71.929 51.6758 101.728 51.6758L214.137 51.6758C229.037 51.6758 241.115 63.7543 241.115 78.6539C241.115 93.5535 229.037 105.632 214.137 105.632H108.473C104.748 105.632 101.728 108.652 101.728 112.377C101.728 116.101 104.748 119.121 108.473 119.121H187.159C216.958 119.121 241.115 143.278 241.115 173.077V191.063C241.115 220.862 216.958 245.019 187.159 245.019Z" fill="#021F69"/>
<path fill-rule="evenodd" clip-rule="evenodd" d="M836.689 103.766C852.316 103.766 864.983 91.0983 864.983 75.4718C864.983 59.8454 852.316 47.1777 836.689 47.1777L728.228 47.1777C696.976 47.1777 671.64 72.5131 671.64 103.766V193.364C671.64 224.617 696.976 249.952 728.228 249.952H808.395C839.648 249.952 864.983 224.617 864.983 193.364V174.501C864.983 143.248 839.648 117.913 808.395 117.913H735.302C731.395 117.913 728.228 114.746 728.228 110.839C728.228 106.933 731.395 103.766 735.302 103.766L836.689 103.766ZM737.66 174.501C732.451 174.501 728.228 178.724 728.228 183.933C728.228 189.141 732.451 193.364 737.66 193.364H798.964C804.172 193.364 808.395 189.141 808.395 183.933C808.395 178.724 804.172 174.501 798.964 174.501H737.66Z" fill="#021F69"/>
<path d="M2547.74 105.628C2547.74 75.8289 2523.59 51.6719 2493.79 51.6719L2381.38 51.6719C2366.48 51.6719 2354.4 63.7504 2354.4 78.65C2354.4 93.5496 2366.48 105.628 2381.38 105.628L2484.79 105.628C2489.76 105.628 2493.79 109.654 2493.79 114.621C2493.79 119.587 2489.76 123.614 2484.79 123.613H2408.36C2378.56 123.613 2354.4 147.771 2354.4 177.57L2354.4 191.059C2354.4 220.858 2378.83 245.015 2408.63 245.015H2520.76C2535.66 245.015 2547.74 232.936 2547.74 218.037C2547.74 203.137 2535.66 191.059 2520.76 191.059H2415.37C2411.65 191.059 2408.63 188.039 2408.63 184.314C2408.63 180.589 2411.65 177.57 2415.37 177.57H2493.79C2523.59 177.57 2547.74 153.413 2547.74 123.614V105.628Z" fill="#021F69"/>
<path d="M1938.49 78.65C1938.49 63.7504 1950.57 51.6719 1965.47 51.6719L2077.87 51.6719C2107.67 51.6719 2131.83 75.8289 2131.83 105.628V191.059C2131.83 220.858 2107.67 245.015 2077.87 245.015H1965.47C1950.57 245.015 1938.49 232.936 1938.49 218.037C1938.49 203.137 1950.57 191.059 1965.47 191.059H2071.13C2074.85 191.059 2077.87 188.039 2077.87 184.314C2077.87 180.589 2074.85 177.57 2071.13 177.57H1965.47C1950.57 177.57 1938.49 165.491 1938.49 150.592C1938.49 135.692 1950.57 123.613 1965.47 123.613L2068.88 123.613C2073.85 123.613 2077.87 119.587 2077.87 114.621C2077.87 109.654 2073.85 105.628 2068.88 105.628L1965.47 105.628C1950.57 105.628 1938.49 93.5496 1938.49 78.65Z" fill="#021F69"/>
<path fill-rule="evenodd" clip-rule="evenodd" d="M2311.49 103.764C2327.12 103.764 2339.79 91.0963 2339.79 75.4699C2339.79 59.8435 2327.12 47.1758 2311.49 47.1758L2203.03 47.1758C2171.78 47.1758 2146.44 72.5112 2146.44 103.764V193.362C2146.44 224.615 2171.78 249.95 2203.03 249.95H2283.2C2314.45 249.95 2339.79 224.615 2339.79 193.362V174.499C2339.79 143.246 2314.45 117.911 2283.2 117.911H2210.1C2206.2 117.911 2203.03 114.744 2203.03 110.838C2203.03 106.931 2206.2 103.764 2210.1 103.764L2311.49 103.764ZM2212.46 174.499C2207.25 174.499 2203.03 178.722 2203.03 183.931C2203.03 189.139 2207.25 193.362 2212.46 193.362H2273.77C2278.98 193.362 2283.2 189.139 2283.2 183.931C2283.2 178.722 2278.98 174.499 2273.77 174.499H2212.46Z" fill="#021F69"/>
<path fill-rule="evenodd" clip-rule="evenodd" d="M1507.96 101.132C1507.96 73.8158 1485.82 51.6719 1458.5 51.6719L1364.08 51.6719C1336.76 51.6719 1314.62 73.8158 1314.62 101.132V195.555C1314.62 222.871 1336.76 245.015 1364.08 245.015H1458.5C1485.82 245.015 1507.96 222.871 1507.96 195.555V101.132ZM1447.26 119.117C1450.99 119.117 1454.01 116.098 1454.01 112.373C1454.01 108.648 1450.99 105.628 1447.26 105.628L1375.32 105.628C1371.59 105.628 1368.57 108.648 1368.57 112.373C1368.57 116.098 1371.59 119.117 1375.32 119.117L1447.26 119.117ZM1454.01 182.066C1454.01 177.1 1449.98 173.073 1445.01 173.073H1377.57C1372.6 173.073 1368.57 177.1 1368.57 182.066C1368.57 187.033 1372.6 191.059 1377.57 191.059H1445.01C1449.98 191.059 1454.01 187.033 1454.01 182.066Z" fill="#021F69"/>
<path fill-rule="evenodd" clip-rule="evenodd" d="M1923.87 105.628C1923.87 75.8289 1899.72 51.6719 1869.92 51.6719L1784.49 51.6719C1754.69 51.6719 1730.53 75.8289 1730.53 105.628V119.117C1730.53 148.916 1754.69 173.073 1784.49 173.073L1860.92 173.073C1865.89 173.073 1869.92 177.1 1869.92 182.066C1869.92 187.033 1865.89 191.059 1860.92 191.059H1757.51C1742.61 191.059 1730.53 203.137 1730.53 218.037C1730.53 232.936 1742.61 245.015 1757.51 245.015H1869.92C1899.72 245.015 1923.87 220.858 1923.87 191.059V105.628ZM1863.17 119.117C1866.9 119.117 1869.92 116.098 1869.92 112.373C1869.92 108.648 1866.9 105.628 1863.17 105.628L1791.23 105.628C1787.51 105.628 1784.49 108.648 1784.49 112.373C1784.49 116.098 1787.51 119.117 1791.23 119.117L1863.17 119.117Z" fill="#021F69"/>
<path d="M1661.96 245.015H1549.55C1534.65 245.015 1522.57 232.936 1522.57 218.037C1522.57 203.137 1534.65 191.059 1549.55 191.059H1652.97C1657.93 191.059 1661.96 187.033 1661.96 182.066C1661.96 177.1 1657.93 173.073 1652.97 173.073H1576.53C1546.73 173.073 1522.57 148.916 1522.57 119.117V105.628C1522.57 75.8289 1546.73 51.6719 1576.53 51.6719L1688.94 51.6719C1703.84 51.6719 1715.92 63.7504 1715.92 78.65C1715.92 93.5496 1703.84 105.628 1688.94 105.628H1583.27C1579.55 105.628 1576.53 108.648 1576.53 112.373C1576.53 116.098 1579.55 119.117 1583.27 119.117H1661.96C1691.76 119.117 1715.92 143.274 1715.92 173.073V191.059C1715.92 220.858 1691.76 245.015 1661.96 245.015Z" fill="#021F69"/>
<path d="M3618.59 100.403C3618.59 70.6043 3594.43 46.4473 3564.63 46.4473L3452.22 46.4473C3437.32 46.4473 3425.24 58.5258 3425.24 73.4254C3425.24 88.325 3437.32 100.403 3452.22 100.403L3555.64 100.403C3560.6 100.403 3564.63 104.43 3564.63 109.396C3564.63 114.363 3560.6 118.389 3555.64 118.389H3479.2C3449.4 118.389 3425.24 142.546 3425.24 172.345L3425.24 185.834C3425.24 215.633 3449.68 239.79 3479.47 239.79H3591.61C3606.51 239.79 3618.59 227.712 3618.59 212.812C3618.59 197.913 3606.51 185.834 3591.61 185.834H3486.22C3482.49 185.834 3479.47 182.815 3479.47 179.09C3479.47 175.365 3482.49 172.345 3486.22 172.345H3564.63C3594.43 172.345 3618.59 148.188 3618.59 118.389V100.403Z" fill="#021F69"/>
<path d="M3633.2 73.4234C3633.2 58.5238 3645.28 46.4453 3660.18 46.4453L3772.59 46.4453C3802.39 46.4453 3826.54 70.6023 3826.54 100.402V185.832C3826.54 215.631 3802.39 239.788 3772.59 239.788H3660.18C3645.28 239.788 3633.2 227.71 3633.2 212.81C3633.2 197.911 3645.28 185.832 3660.18 185.832H3765.84C3769.57 185.832 3772.59 182.813 3772.59 179.088C3772.59 175.363 3769.57 172.343 3765.84 172.343H3660.18C3645.28 172.343 3633.2 160.265 3633.2 145.365C3633.2 130.465 3645.28 118.387 3660.18 118.387L3763.59 118.387C3768.56 118.387 3772.59 114.361 3772.59 109.394C3772.59 104.428 3768.56 100.402 3763.59 100.402L3660.18 100.402C3645.28 100.402 3633.2 88.323 3633.2 73.4234Z" fill="#021F69"/>
<path fill-rule="evenodd" clip-rule="evenodd" d="M3202.67 95.9071C3202.67 68.5912 3180.53 46.4473 3153.21 46.4473L3058.79 46.4473C3031.47 46.4473 3009.33 68.5912 3009.33 95.9071V190.33C3009.33 217.646 3031.47 239.79 3058.79 239.79H3153.21C3180.53 239.79 3202.67 217.646 3202.67 190.33V95.9071ZM3141.97 113.893C3145.7 113.893 3148.72 110.873 3148.72 107.148C3148.72 103.423 3145.7 100.403 3141.97 100.403L3070.03 100.403C3066.31 100.403 3063.29 103.423 3063.29 107.148C3063.29 110.873 3066.31 113.893 3070.03 113.893L3141.97 113.893ZM3148.72 176.841C3148.72 171.875 3144.69 167.849 3139.73 167.849H3072.28C3067.31 167.849 3063.29 171.875 3063.29 176.841C3063.29 181.808 3067.31 185.834 3072.28 185.834H3139.73C3144.69 185.834 3148.72 181.808 3148.72 176.841Z" fill="#021F69"/>
<path fill-rule="evenodd" clip-rule="evenodd" d="M2994.72 100.402C2994.72 70.6023 2970.56 46.4453 2940.76 46.4453L2855.33 46.4453C2825.53 46.4453 2801.37 70.6023 2801.37 100.402V113.891C2801.37 143.69 2825.53 167.847 2855.33 167.847L2931.77 167.847C2936.74 167.847 2940.76 171.873 2940.76 176.839C2940.76 181.806 2936.74 185.832 2931.77 185.832H2828.35C2813.45 185.832 2801.37 197.911 2801.37 212.81C2801.37 227.71 2813.45 239.788 2828.35 239.788H2940.76C2970.56 239.788 2994.72 215.631 2994.72 185.832V100.402ZM2934.02 113.891C2937.74 113.891 2940.76 110.871 2940.76 107.146C2940.76 103.421 2937.74 100.402 2934.02 100.402L2862.08 100.402C2858.35 100.402 2855.33 103.421 2855.33 107.146C2855.33 110.871 2858.35 113.891 2862.08 113.891L2934.02 113.891Z" fill="#021F69"/>
<path d="M2732.81 239.788H2620.4C2605.5 239.788 2593.42 227.71 2593.42 212.81C2593.42 197.911 2605.5 185.832 2620.4 185.832H2723.81C2728.78 185.832 2732.81 181.806 2732.81 176.839C2732.81 171.873 2728.78 167.847 2723.81 167.847H2647.37C2617.58 167.847 2593.42 143.69 2593.42 113.891V100.402C2593.42 70.6023 2617.58 46.4453 2647.37 46.4453L2759.78 46.4453C2774.68 46.4453 2786.76 58.5238 2786.76 73.4234C2786.76 88.323 2774.68 100.402 2759.78 100.402H2654.12C2650.39 100.402 2647.37 103.421 2647.37 107.146C2647.37 110.871 2650.39 113.891 2654.12 113.891H2732.81C2762.6 113.891 2786.76 138.048 2786.76 167.847V185.832C2786.76 215.631 2762.6 239.788 2732.81 239.788Z" fill="#021F69"/>
<path fill-rule="evenodd" clip-rule="evenodd" d="M3382.34 98.5374C3397.96 98.5374 3410.63 85.8697 3410.63 70.2433C3410.63 54.6169 3397.96 41.9492 3382.34 41.9492L3273.88 41.9492C3242.62 41.9492 3217.29 67.2846 3217.29 98.5374V188.135C3217.29 219.388 3242.62 244.724 3273.88 244.724H3354.04C3385.29 244.724 3410.63 219.388 3410.63 188.135V169.273C3410.63 138.02 3385.29 112.684 3354.04 112.684H3280.95C3277.04 112.684 3273.88 109.518 3273.88 105.611C3273.88 101.704 3277.04 98.5374 3280.95 98.5374L3382.34 98.5374ZM3283.31 169.273C3278.1 169.273 3273.88 173.495 3273.88 178.704C3273.88 183.913 3278.1 188.135 3283.31 188.135H3344.61C3349.82 188.135 3354.04 183.913 3354.04 178.704C3354.04 173.495 3349.82 169.273 3344.61 169.273H3283.31Z" fill="#021F69"/>
<path d="M5093.39 100.402C5093.39 70.6023 5069.23 46.4453 5039.43 46.4453L4927.03 46.4453C4912.13 46.4453 4900.05 58.5238 4900.05 73.4234C4900.05 88.323 4912.13 100.402 4927.02 100.402L5030.44 100.402C5035.41 100.402 5039.43 104.428 5039.43 109.394C5039.43 114.361 5035.41 118.387 5030.44 118.387H4954C4924.2 118.387 4900.05 142.544 4900.05 172.343L4900.05 185.832C4900.05 215.631 4924.48 239.788 4954.28 239.788H5066.41C5081.31 239.788 5093.39 227.71 5093.39 212.81C5093.39 197.911 5081.31 185.832 5066.41 185.832H4961.02C4957.3 185.832 4954.28 182.813 4954.28 179.088C4954.28 175.363 4957.3 172.343 4961.02 172.343H5039.43C5069.23 172.343 5093.39 148.186 5093.39 118.387V100.402Z" fill="#021F69"/>
<path d="M4484.13 73.4254C4484.13 58.5258 4496.21 46.4473 4511.11 46.4473L4623.52 46.4473C4653.32 46.4473 4677.48 70.6043 4677.48 100.403V185.834C4677.48 215.633 4653.32 239.79 4623.52 239.79H4511.11C4496.21 239.79 4484.13 227.712 4484.13 212.812C4484.13 197.913 4496.21 185.834 4511.11 185.834H4616.78C4620.5 185.834 4623.52 182.815 4623.52 179.09C4623.52 175.365 4620.5 172.345 4616.78 172.345H4511.11C4496.21 172.345 4484.13 160.267 4484.13 145.367C4484.13 130.467 4496.21 118.389 4511.11 118.389L4614.53 118.389C4619.5 118.389 4623.52 114.363 4623.52 109.396C4623.52 104.43 4619.5 100.403 4614.53 100.403L4511.11 100.403C4496.21 100.403 4484.13 88.325 4484.13 73.4254Z" fill="#021F69"/>
<path fill-rule="evenodd" clip-rule="evenodd" d="M4857.14 98.5374C4872.77 98.5374 4885.43 85.8697 4885.43 70.2433C4885.43 54.6169 4872.77 41.9492 4857.14 41.9492L4748.68 41.9492C4717.43 41.9492 4692.09 67.2846 4692.09 98.5374V188.135C4692.09 219.388 4717.43 244.724 4748.68 244.724H4828.85C4860.1 244.724 4885.43 219.388 4885.43 188.135V169.273C4885.43 138.02 4860.1 112.684 4828.85 112.684H4755.75C4751.85 112.684 4748.68 109.518 4748.68 105.611C4748.68 101.704 4751.85 98.5374 4755.75 98.5374L4857.14 98.5374ZM4758.11 169.273C4752.9 169.273 4748.68 173.495 4748.68 178.704C4748.68 183.913 4752.9 188.135 4758.11 188.135H4819.41C4824.62 188.135 4828.85 183.913 4828.85 178.704C4828.85 173.495 4824.62 169.273 4819.41 169.273H4758.11Z" fill="#021F69"/>
<path fill-rule="evenodd" clip-rule="evenodd" d="M4053.61 95.9052C4053.61 68.5892 4031.47 46.4453 4004.15 46.4453L3909.73 46.4453C3882.41 46.4453 3860.27 68.5892 3860.27 95.9052V190.329C3860.27 217.644 3882.41 239.788 3909.73 239.788H4004.15C4031.47 239.788 4053.61 217.644 4053.61 190.329V95.9052ZM3992.91 113.891C3996.63 113.891 3999.65 110.871 3999.65 107.146C3999.65 103.421 3996.63 100.402 3992.91 100.402L3920.97 100.402C3917.24 100.402 3914.22 103.421 3914.22 107.146C3914.22 110.871 3917.24 113.891 3920.97 113.891L3992.91 113.891ZM3999.65 176.839C3999.65 171.873 3995.63 167.847 3990.66 167.847H3923.21C3918.25 167.847 3914.22 171.873 3914.22 176.839C3914.22 181.806 3918.25 185.832 3923.21 185.832H3990.66C3995.63 185.832 3999.65 181.806 3999.65 176.839Z" fill="#021F69"/>
<path fill-rule="evenodd" clip-rule="evenodd" d="M4469.52 100.403C4469.52 70.6043 4445.36 46.4473 4415.57 46.4473L4330.14 46.4473C4300.34 46.4473 4276.18 70.6043 4276.18 100.403V113.893C4276.18 143.692 4300.34 167.849 4330.14 167.849L4406.57 167.849C4411.54 167.849 4415.57 171.875 4415.57 176.841C4415.57 181.808 4411.54 185.834 4406.57 185.834H4303.16C4288.26 185.834 4276.18 197.913 4276.18 212.812C4276.18 227.712 4288.26 239.79 4303.16 239.79H4415.57C4445.36 239.79 4469.52 215.633 4469.52 185.834V100.403ZM4408.82 113.893C4412.55 113.893 4415.57 110.873 4415.57 107.148C4415.57 103.423 4412.55 100.403 4408.82 100.403L4336.88 100.403C4333.15 100.403 4330.14 103.423 4330.14 107.148C4330.14 110.873 4333.15 113.893 4336.88 113.893L4408.82 113.893Z" fill="#021F69"/>
<path d="M4207.61 239.79H4095.2C4080.3 239.79 4068.22 227.712 4068.22 212.812C4068.22 197.913 4080.3 185.834 4095.2 185.834H4198.62C4203.58 185.834 4207.61 181.808 4207.61 176.841C4207.61 171.875 4203.58 167.849 4198.62 167.849H4122.18C4092.38 167.849 4068.22 143.692 4068.22 113.893V100.403C4068.22 70.6043 4092.38 46.4473 4122.18 46.4473L4234.59 46.4473C4249.49 46.4473 4261.57 58.5258 4261.57 73.4254C4261.57 88.325 4249.49 100.403 4234.59 100.403H4128.92C4125.2 100.403 4122.18 103.423 4122.18 107.148C4122.18 110.873 4125.2 113.893 4128.92 113.893H4207.61C4237.41 113.893 4261.57 138.05 4261.57 167.849V185.834C4261.57 215.633 4237.41 239.79 4207.61 239.79Z" fill="#021F69"/>
<path d="M6160.06 105.628C6160.06 75.8289 6135.91 51.6719 6106.11 51.6719L5993.7 51.6719C5978.8 51.6719 5966.72 63.7504 5966.72 78.65C5966.72 93.5496 5978.8 105.628 5993.7 105.628L6097.11 105.628C6102.08 105.628 6106.11 109.654 6106.11 114.621C6106.11 119.587 6102.08 123.614 6097.11 123.613H6020.68C5990.88 123.613 5966.72 147.771 5966.72 177.57L5966.72 191.059C5966.72 220.858 5991.15 245.015 6020.95 245.015H6133.08C6147.98 245.015 6160.06 232.936 6160.06 218.037C6160.06 203.137 6147.98 191.059 6133.08 191.059H6027.69C6023.97 191.059 6020.95 188.039 6020.95 184.314C6020.95 180.589 6023.97 177.57 6027.69 177.57H6106.11C6135.91 177.57 6160.06 153.413 6160.06 123.614V105.628Z" fill="#021F69"/>
<path d="M6174.68 78.65C6174.68 63.7504 6186.75 51.6719 6201.65 51.6719H6314.06C6343.86 51.6719 6368.02 75.8289 6368.02 105.628V191.059C6368.02 220.858 6343.86 245.015 6314.06 245.015H6201.65C6186.75 245.015 6174.68 232.936 6174.68 218.037C6174.68 203.137 6186.75 191.059 6201.65 191.059H6307.32C6311.04 191.059 6314.06 188.039 6314.06 184.314C6314.06 180.589 6311.04 177.57 6307.32 177.57H6201.65C6186.75 177.57 6174.68 165.491 6174.68 150.592C6174.68 135.692 6186.75 123.613 6201.65 123.613L6305.07 123.613C6310.04 123.613 6314.06 119.587 6314.06 114.621C6314.06 109.654 6310.04 105.628 6305.07 105.628L6201.65 105.628C6186.75 105.628 6174.68 93.5496 6174.68 78.65Z" fill="#021F69"/>
<path fill-rule="evenodd" clip-rule="evenodd" d="M5744.15 101.134C5744.15 73.8178 5722.01 51.6738 5694.69 51.6738H5600.27C5572.95 51.6738 5550.81 73.8178 5550.81 101.134V195.557C5550.81 222.873 5572.95 245.017 5600.27 245.017H5694.69C5722.01 245.017 5744.15 222.873 5744.15 195.557V101.134ZM5683.45 119.119C5687.17 119.119 5690.19 116.099 5690.19 112.375C5690.19 108.65 5687.17 105.63 5683.45 105.63L5611.51 105.63C5607.78 105.63 5604.76 108.65 5604.76 112.375C5604.76 116.099 5607.78 119.119 5611.51 119.119L5683.45 119.119ZM5690.19 182.068C5690.19 177.101 5686.17 173.075 5681.2 173.075H5613.76C5608.79 173.075 5604.76 177.101 5604.76 182.068C5604.76 187.035 5608.79 191.061 5613.76 191.061H5681.2C5686.17 191.061 5690.19 187.035 5690.19 182.068Z" fill="#021F69"/>
<path fill-rule="evenodd" clip-rule="evenodd" d="M5536.19 105.63C5536.19 75.8308 5512.04 51.6738 5482.24 51.6738H5396.81C5367.01 51.6738 5342.85 75.8308 5342.85 105.63V119.119C5342.85 148.918 5367.01 173.075 5396.81 173.075L5473.24 173.075C5478.21 173.075 5482.24 177.101 5482.24 182.068C5482.24 187.035 5478.21 191.061 5473.24 191.061H5369.83C5354.93 191.061 5342.85 203.139 5342.85 218.039C5342.85 232.938 5354.93 245.017 5369.83 245.017H5482.24C5512.04 245.017 5536.19 220.86 5536.19 191.061V105.63ZM5475.49 119.119C5479.22 119.119 5482.24 116.099 5482.24 112.375C5482.24 108.65 5479.22 105.63 5475.49 105.63L5403.55 105.63C5399.83 105.63 5396.81 108.65 5396.81 112.375C5396.81 116.099 5399.83 119.119 5403.55 119.119L5475.49 119.119Z" fill="#021F69"/>
<path d="M5274.28 245.015H5161.87C5146.97 245.015 5134.89 232.936 5134.89 218.037C5134.89 203.137 5146.97 191.059 5161.87 191.059H5265.29C5270.26 191.059 5274.28 187.033 5274.28 182.066C5274.28 177.1 5270.26 173.073 5265.29 173.073H5188.85C5159.05 173.073 5134.89 148.916 5134.89 119.117V105.628C5134.89 75.8289 5159.05 51.6719 5188.85 51.6719H5301.26C5316.16 51.6719 5328.24 63.7504 5328.24 78.65C5328.24 93.5496 5316.16 105.628 5301.26 105.628H5195.6C5191.87 105.628 5188.85 108.648 5188.85 112.373C5188.85 116.098 5191.87 119.117 5195.6 119.117H5274.28C5304.08 119.117 5328.24 143.274 5328.24 173.073V191.059C5328.24 220.858 5304.08 245.015 5274.28 245.015Z" fill="#021F69"/>
<path fill-rule="evenodd" clip-rule="evenodd" d="M5923.81 103.764C5939.44 103.764 5952.11 91.0963 5952.11 75.4699C5952.11 59.8435 5939.44 47.1758 5923.81 47.1758H5815.35C5784.1 47.1758 5758.76 72.5112 5758.76 103.764V193.362C5758.76 224.615 5784.1 249.95 5815.35 249.95H5895.52C5926.77 249.95 5952.11 224.615 5952.11 193.362V174.499C5952.11 143.246 5926.77 117.911 5895.52 117.911H5822.42C5818.52 117.911 5815.35 114.744 5815.35 110.838C5815.35 106.931 5818.52 103.764 5822.42 103.764L5923.81 103.764ZM5824.78 174.499C5819.57 174.499 5815.35 178.722 5815.35 183.931C5815.35 189.139 5819.57 193.362 5824.78 193.362H5886.09C5891.3 193.362 5895.52 189.139 5895.52 183.931C5895.52 178.722 5891.3 174.499 5886.09 174.499H5824.78Z" fill="#021F69"/>
<path d="M7634.86 105.626C7634.86 75.8269 7610.71 51.6699 7580.91 51.6699L7468.5 51.6699C7453.6 51.6699 7441.52 63.7484 7441.52 78.648C7441.52 93.5476 7453.6 105.626 7468.5 105.626L7571.92 105.626C7576.88 105.626 7580.91 109.652 7580.91 114.619C7580.91 119.585 7576.88 123.612 7571.92 123.612H7495.48C7465.68 123.612 7441.52 147.769 7441.52 177.568L7441.52 191.057C7441.52 220.856 7465.95 245.013 7495.75 245.013H7607.89C7622.79 245.013 7634.86 232.935 7634.86 218.035C7634.86 203.135 7622.79 191.057 7607.89 191.057H7502.5C7498.77 191.057 7495.75 188.037 7495.75 184.312C7495.75 180.587 7498.77 177.568 7502.5 177.568H7580.91C7610.71 177.568 7634.86 153.411 7634.86 123.612V105.626Z" fill="#021F69"/>
<path d="M7025.61 78.65C7025.61 63.7504 7037.69 51.6719 7052.59 51.6719L7165 51.6719C7194.79 51.6719 7218.95 75.8289 7218.95 105.628V191.059C7218.95 220.858 7194.79 245.015 7165 245.015H7052.59C7037.69 245.015 7025.61 232.936 7025.61 218.037C7025.61 203.137 7037.69 191.059 7052.59 191.059H7158.25C7161.98 191.059 7165 188.039 7165 184.314C7165 180.589 7161.98 177.57 7158.25 177.57H7052.59C7037.69 177.57 7025.61 165.491 7025.61 150.592C7025.61 135.692 7037.69 123.613 7052.59 123.613L7156 123.613C7160.97 123.613 7165 119.587 7165 114.621C7165 109.654 7160.97 105.628 7156 105.628L7052.59 105.628C7037.69 105.628 7025.61 93.5496 7025.61 78.65Z" fill="#021F69"/>
<path fill-rule="evenodd" clip-rule="evenodd" d="M7398.61 103.762C7414.24 103.762 7426.91 91.0943 7426.91 75.4679C7426.91 59.8415 7414.24 47.1738 7398.61 47.1738L7290.15 47.1738C7258.9 47.1738 7233.57 72.5092 7233.57 103.762V193.36C7233.57 224.613 7258.9 249.948 7290.15 249.948H7370.32C7401.57 249.948 7426.91 224.613 7426.91 193.36V174.497C7426.91 143.245 7401.57 117.909 7370.32 117.909H7297.23C7293.32 117.909 7290.15 114.742 7290.15 110.836C7290.15 106.929 7293.32 103.762 7297.23 103.762L7398.61 103.762ZM7299.59 174.497C7294.38 174.497 7290.15 178.72 7290.15 183.929C7290.15 189.137 7294.38 193.36 7299.59 193.36H7360.89C7366.1 193.36 7370.32 189.137 7370.32 183.929C7370.32 178.72 7366.1 174.497 7360.89 174.497H7299.59Z" fill="#021F69"/>
<path fill-rule="evenodd" clip-rule="evenodd" d="M6595.08 101.13C6595.08 73.8139 6572.94 51.6699 6545.62 51.6699L6451.2 51.6699C6423.88 51.6699 6401.74 73.8139 6401.74 101.13V195.553C6401.74 222.869 6423.88 245.013 6451.2 245.013H6545.62C6572.94 245.013 6595.08 222.869 6595.08 195.553V101.13ZM6534.38 119.115C6538.11 119.115 6541.13 116.096 6541.13 112.371C6541.13 108.646 6538.11 105.626 6534.38 105.626L6462.44 105.626C6458.72 105.626 6455.7 108.646 6455.7 112.371C6455.7 116.096 6458.72 119.115 6462.44 119.115L6534.38 119.115ZM6541.13 182.064C6541.13 177.098 6537.1 173.071 6532.13 173.071H6464.69C6459.72 173.071 6455.7 177.098 6455.7 182.064C6455.7 187.031 6459.72 191.057 6464.69 191.057H6532.13C6537.1 191.057 6541.13 187.031 6541.13 182.064Z" fill="#021F69"/>
<path fill-rule="evenodd" clip-rule="evenodd" d="M7011 105.626C7011 75.8269 6986.84 51.6699 6957.04 51.6699L6871.61 51.6699C6841.81 51.6699 6817.65 75.8269 6817.65 105.626V119.115C6817.65 148.914 6841.81 173.071 6871.61 173.071L6948.05 173.071C6953.01 173.071 6957.04 177.098 6957.04 182.064C6957.04 187.031 6953.01 191.057 6948.05 191.057H6844.63C6829.73 191.057 6817.65 203.135 6817.65 218.035C6817.65 232.934 6829.73 245.013 6844.63 245.013H6957.04C6986.84 245.013 7011 220.856 7011 191.057V105.626ZM6950.3 119.115C6954.02 119.115 6957.04 116.096 6957.04 112.371C6957.04 108.646 6954.02 105.626 6950.3 105.626L6878.35 105.626C6874.63 105.626 6871.61 108.646 6871.61 112.371C6871.61 116.096 6874.63 119.115 6878.35 119.115L6950.3 119.115Z" fill="#021F69"/>
<path d="M6749.08 245.013H6636.68C6621.78 245.013 6609.7 232.934 6609.7 218.035C6609.7 203.135 6621.78 191.057 6636.68 191.057H6740.09C6745.06 191.057 6749.08 187.031 6749.08 182.064C6749.08 177.098 6745.06 173.071 6740.09 173.071H6663.65C6633.85 173.071 6609.7 148.914 6609.7 119.115V105.626C6609.7 75.8269 6633.85 51.6699 6663.65 51.6699L6776.06 51.6699C6790.96 51.6699 6803.04 63.7484 6803.04 78.648C6803.04 93.5476 6790.96 105.626 6776.06 105.626H6670.4C6666.67 105.626 6663.65 108.646 6663.65 112.371C6663.65 116.096 6666.67 119.115 6670.4 119.115H6749.08C6778.88 119.115 6803.04 143.272 6803.04 173.071V191.057C6803.04 220.856 6778.88 245.013 6749.08 245.013Z" fill="#021F69"/>
<path d="M8901.99 105.525C8901.99 75.7254 8877.83 51.5684 8848.03 51.5684L8735.62 51.5684C8720.72 51.5684 8708.65 63.6469 8708.65 78.5465C8708.65 93.4461 8720.72 105.525 8735.62 105.525L8839.04 105.525C8844.01 105.525 8848.03 109.551 8848.03 114.517C8848.03 119.484 8844.01 123.51 8839.04 123.51H8762.6C8732.8 123.51 8708.65 147.667 8708.65 177.466L8708.65 190.955C8708.65 220.754 8733.08 244.911 8762.88 244.911H8875.01C8889.91 244.911 8901.99 232.833 8901.99 217.933C8901.99 203.034 8889.91 190.955 8875.01 190.955H8769.62C8765.9 190.955 8762.88 187.936 8762.88 184.211C8762.88 180.486 8765.9 177.466 8769.62 177.466H8848.03C8877.83 177.466 8901.99 153.309 8901.99 123.51V105.525Z" fill="#021F69"/>
<path d="M8292.73 78.5484C8292.73 63.6488 8304.81 51.5703 8319.71 51.5703L8432.12 51.5703C8461.92 51.5703 8486.08 75.7273 8486.08 105.527V190.957C8486.08 220.756 8461.92 244.913 8432.12 244.913H8319.71C8304.81 244.913 8292.73 232.835 8292.73 217.935C8292.73 203.036 8304.81 190.957 8319.71 190.957H8425.38C8429.1 190.957 8432.12 187.938 8432.12 184.213C8432.12 180.488 8429.1 177.468 8425.38 177.468H8319.71C8304.81 177.468 8292.73 165.39 8292.73 150.49C8292.73 135.59 8304.81 123.512 8319.71 123.512L8423.13 123.512C8428.09 123.512 8432.12 119.486 8432.12 114.519C8432.12 109.553 8428.09 105.527 8423.13 105.527L8319.71 105.527C8304.81 105.527 8292.73 93.448 8292.73 78.5484Z" fill="#021F69"/>
<path fill-rule="evenodd" clip-rule="evenodd" d="M8665.74 103.66C8681.37 103.66 8694.03 90.9928 8694.03 75.3664C8694.03 59.74 8681.37 47.0723 8665.74 47.0723L8557.28 47.0723C8526.03 47.0723 8500.69 72.4077 8500.69 103.66V193.258C8500.69 224.511 8526.03 249.847 8557.28 249.847H8637.44C8668.7 249.847 8694.03 224.511 8694.03 193.258V174.396C8694.03 143.143 8668.7 117.808 8637.44 117.808H8564.35C8560.45 117.808 8557.28 114.641 8557.28 110.734C8557.28 106.827 8560.45 103.66 8564.35 103.66L8665.74 103.66ZM8566.71 174.396C8561.5 174.396 8557.28 178.618 8557.28 183.827C8557.28 189.036 8561.5 193.258 8566.71 193.258H8628.01C8633.22 193.258 8637.44 189.036 8637.44 183.827C8637.44 178.618 8633.22 174.396 8628.01 174.396H8566.71Z" fill="#021F69"/>
<path fill-rule="evenodd" clip-rule="evenodd" d="M7862.21 101.028C7862.21 73.7123 7840.06 51.5684 7812.75 51.5684L7718.32 51.5684C7691.01 51.5684 7668.86 73.7123 7668.86 101.028V195.452C7668.86 222.768 7691.01 244.911 7718.32 244.911H7812.75C7840.06 244.911 7862.21 222.768 7862.21 195.452V101.028ZM7801.51 119.014C7805.23 119.014 7808.25 115.994 7808.25 112.269C7808.25 108.544 7805.23 105.525 7801.51 105.525L7729.56 105.525C7725.84 105.525 7722.82 108.544 7722.82 112.269C7722.82 115.994 7725.84 119.014 7729.56 119.014L7801.51 119.014ZM7808.25 181.963C7808.25 176.996 7804.22 172.97 7799.26 172.97H7731.81C7726.85 172.97 7722.82 176.996 7722.82 181.963C7722.82 186.929 7726.85 190.955 7731.81 190.955H7799.26C7804.22 190.955 7808.25 186.929 7808.25 181.963Z" fill="#021F69"/>
<path fill-rule="evenodd" clip-rule="evenodd" d="M8278.12 105.525C8278.12 75.7254 8253.96 51.5684 8224.16 51.5684L8138.73 51.5684C8108.93 51.5684 8084.78 75.7254 8084.78 105.525V119.014C8084.78 148.813 8108.93 172.97 8138.73 172.97L8215.17 172.97C8220.14 172.97 8224.16 176.996 8224.16 181.963C8224.16 186.929 8220.14 190.955 8215.17 190.955H8111.75C8096.86 190.955 8084.78 203.034 8084.78 217.933C8084.78 232.833 8096.86 244.911 8111.75 244.911H8224.16C8253.96 244.911 8278.12 220.754 8278.12 190.955V105.525ZM8217.42 119.014C8221.14 119.014 8224.16 115.994 8224.16 112.269C8224.16 108.544 8221.14 105.525 8217.42 105.525L8145.48 105.525C8141.75 105.525 8138.73 108.544 8138.73 112.269C8138.73 115.994 8141.75 119.014 8145.48 119.014L8217.42 119.014Z" fill="#021F69"/>
<path d="M8016.21 244.911H7903.8C7888.9 244.911 7876.82 232.833 7876.82 217.933C7876.82 203.034 7888.9 190.955 7903.8 190.955H8007.21C8012.18 190.955 8016.21 186.929 8016.21 181.963C8016.21 176.996 8012.18 172.97 8007.21 172.97H7930.78C7900.98 172.97 7876.82 148.813 7876.82 119.014V105.525C7876.82 75.7254 7900.98 51.5684 7930.78 51.5684L8043.19 51.5684C8058.09 51.5684 8070.16 63.6469 8070.16 78.5465C8070.16 93.4461 8058.09 105.525 8043.19 105.525H7937.52C7933.8 105.525 7930.78 108.544 7930.78 112.269C7930.78 115.994 7933.8 119.014 7937.52 119.014H8016.21C8046.01 119.014 8070.16 143.171 8070.16 172.97V190.955C8070.16 220.754 8046.01 244.911 8016.21 244.911Z" fill="#021F69"/>
<path d="M10168.8 100.329C10168.8 70.5301 10144.7 46.373 10114.9 46.373L10002.5 46.373C9987.57 46.373 9975.49 58.4516 9975.49 73.3511C9975.49 88.2507 9987.57 100.329 10002.5 100.329L10105.9 100.329C10110.9 100.329 10114.9 104.355 10114.9 109.322C10114.9 114.288 10110.9 118.315 10105.9 118.315H10029.4C9999.65 118.315 9975.49 142.472 9975.49 172.271L9975.49 185.76C9975.49 215.559 9999.92 239.716 10029.7 239.716H10141.9C10156.8 239.716 10168.8 227.638 10168.8 212.738C10168.8 197.838 10156.8 185.76 10141.9 185.76H10036.5C10032.7 185.76 10029.7 182.74 10029.7 179.015C10029.7 175.29 10032.7 172.271 10036.5 172.271H10114.9C10144.7 172.271 10168.8 148.114 10168.8 118.315V100.329Z" fill="#021F69"/>
<path d="M9559.58 73.3531C9559.58 58.4535 9571.66 46.375 9586.56 46.375L9698.96 46.375C9728.76 46.375 9752.92 70.532 9752.92 100.331V185.762C9752.92 215.561 9728.76 239.718 9698.96 239.718H9586.56C9571.66 239.718 9559.58 227.64 9559.58 212.74C9559.58 197.84 9571.66 185.762 9586.56 185.762H9692.22C9695.95 185.762 9698.96 182.742 9698.96 179.017C9698.96 175.292 9695.95 172.273 9692.22 172.273H9586.56C9571.66 172.273 9559.58 160.194 9559.58 145.295C9559.58 130.395 9571.66 118.317 9586.56 118.317L9689.97 118.317C9694.94 118.317 9698.96 114.29 9698.96 109.324C9698.96 104.357 9694.94 100.331 9689.97 100.331L9586.56 100.331C9571.66 100.331 9559.58 88.2527 9559.58 73.3531Z" fill="#021F69"/>
<path fill-rule="evenodd" clip-rule="evenodd" d="M9932.58 98.4652C9948.21 98.4652 9960.88 85.7975 9960.88 70.1711C9960.88 54.5447 9948.21 41.877 9932.58 41.877L9824.12 41.877C9792.87 41.877 9767.54 67.2124 9767.54 98.4652V188.063C9767.54 219.316 9792.87 244.651 9824.12 244.651H9904.29C9935.54 244.651 9960.88 219.316 9960.88 188.063V169.2C9960.88 137.948 9935.54 112.612 9904.29 112.612H9831.2C9827.29 112.612 9824.12 109.445 9824.12 105.539C9824.12 101.632 9827.29 98.4652 9831.2 98.4652L9932.58 98.4652ZM9833.55 169.2C9828.35 169.2 9824.12 173.423 9824.12 178.632C9824.12 183.841 9828.35 188.063 9833.55 188.063H9894.86C9900.07 188.063 9904.29 183.841 9904.29 178.632C9904.29 173.423 9900.07 169.2 9894.86 169.2H9833.55Z" fill="#021F69"/>
<path fill-rule="evenodd" clip-rule="evenodd" d="M9129.05 95.8329C9129.05 68.517 9106.91 46.373 9079.59 46.373L8985.17 46.373C8957.85 46.373 8935.71 68.517 8935.71 95.8329V190.256C8935.71 217.572 8957.85 239.716 8985.17 239.716H9079.59C9106.91 239.716 9129.05 217.572 9129.05 190.256V95.8329ZM9068.35 113.818C9072.08 113.818 9075.1 110.799 9075.1 107.074C9075.1 103.349 9072.08 100.329 9068.35 100.329L8996.41 100.329C8992.69 100.329 8989.67 103.349 8989.67 107.074C8989.67 110.799 8992.69 113.818 8996.41 113.818L9068.35 113.818ZM9075.1 176.767C9075.1 171.801 9071.07 167.775 9066.1 167.775H8998.66C8993.69 167.775 8989.67 171.801 8989.67 176.767C8989.67 181.734 8993.69 185.76 8998.66 185.76H9066.1C9071.07 185.76 9075.1 181.734 9075.1 176.767Z" fill="#021F69"/>
<path fill-rule="evenodd" clip-rule="evenodd" d="M9544.97 100.329C9544.97 70.5301 9520.81 46.373 9491.01 46.373L9405.58 46.373C9375.78 46.373 9351.62 70.5301 9351.62 100.329V113.818C9351.62 143.618 9375.78 167.775 9405.58 167.775L9482.02 167.775C9486.98 167.775 9491.01 171.801 9491.01 176.767C9491.01 181.734 9486.98 185.76 9482.02 185.76H9378.6C9363.7 185.76 9351.62 197.838 9351.62 212.738C9351.62 227.638 9363.7 239.716 9378.6 239.716H9491.01C9520.81 239.716 9544.97 215.559 9544.97 185.76V100.329ZM9484.26 113.818C9487.99 113.818 9491.01 110.799 9491.01 107.074C9491.01 103.349 9487.99 100.329 9484.26 100.329L9412.32 100.329C9408.6 100.329 9405.58 103.349 9405.58 107.074C9405.58 110.799 9408.6 113.818 9412.32 113.818L9484.26 113.818Z" fill="#021F69"/>
<path d="M9283.05 239.716H9170.64C9155.74 239.716 9143.67 227.638 9143.67 212.738C9143.67 197.838 9155.74 185.76 9170.64 185.76H9274.06C9279.03 185.76 9283.05 181.734 9283.05 176.767C9283.05 171.801 9279.03 167.775 9274.06 167.775H9197.62C9167.82 167.775 9143.67 143.617 9143.67 113.818V100.329C9143.67 70.5301 9167.82 46.373 9197.62 46.373L9310.03 46.373C9324.93 46.373 9337.01 58.4516 9337.01 73.3512C9337.01 88.2507 9324.93 100.329 9310.03 100.329H9204.37C9200.64 100.329 9197.62 103.349 9197.62 107.074C9197.62 110.799 9200.64 113.818 9204.37 113.818H9283.05C9312.85 113.818 9337.01 137.975 9337.01 167.775V185.76C9337.01 215.559 9312.85 239.716 9283.05 239.716Z" fill="#021F69"/>
<path fill-rule="evenodd" clip-rule="evenodd" d="M10396.2 100.733C10396.2 73.4174 10374 51.2734 10346.7 51.2734L10252.3 51.2734C10225 51.2734 10202.8 73.4174 10202.8 100.733V195.157C10202.8 222.473 10225 244.617 10252.3 244.617H10346.7C10374 244.617 10396.2 222.473 10396.2 195.157V100.733ZM10335.5 118.719C10339.2 118.719 10342.2 115.699 10342.2 111.974C10342.2 108.249 10339.2 105.23 10335.5 105.23L10263.5 105.23C10259.8 105.23 10256.8 108.249 10256.8 111.974C10256.8 115.699 10259.8 118.719 10263.5 118.719L10335.5 118.719ZM10342.2 181.668C10342.2 176.701 10338.2 172.675 10333.2 172.675H10265.8C10260.8 172.675 10256.8 176.701 10256.8 181.668C10256.8 186.634 10260.8 190.66 10265.8 190.66H10333.2C10338.2 190.66 10342.2 186.634 10342.2 181.668Z" fill="#021F69"/>
<path fill-rule="evenodd" clip-rule="evenodd" d="M10812.1 105.23C10812.1 75.4305 10787.9 51.2734 10758.1 51.2734L10672.7 51.2734C10642.9 51.2734 10618.7 75.4305 10618.7 105.23V118.719C10618.7 148.518 10642.9 172.675 10672.7 172.675L10749.1 172.675C10754.1 172.675 10758.1 176.701 10758.1 181.668C10758.1 186.634 10754.1 190.66 10749.1 190.66H10645.7C10630.8 190.66 10618.7 202.739 10618.7 217.638C10618.7 232.538 10630.8 244.617 10645.7 244.617H10758.1C10787.9 244.617 10812.1 220.46 10812.1 190.66V105.23ZM10751.4 118.719C10755.1 118.719 10758.1 115.699 10758.1 111.974C10758.1 108.249 10755.1 105.23 10751.4 105.23L10679.4 105.23C10675.7 105.23 10672.7 108.249 10672.7 111.974C10672.7 115.699 10675.7 118.719 10679.4 118.719L10751.4 118.719Z" fill="#021F69"/>
<path d="M10550.2 244.617H10437.8C10422.9 244.617 10410.8 232.538 10410.8 217.638C10410.8 202.739 10422.9 190.66 10437.8 190.66H10541.2C10546.2 190.66 10550.2 186.634 10550.2 181.668C10550.2 176.701 10546.2 172.675 10541.2 172.675H10464.7C10434.9 172.675 10410.8 148.518 10410.8 118.719V105.23C10410.8 75.4305 10434.9 51.2734 10464.7 51.2734L10577.2 51.2734C10592.1 51.2734 10604.1 63.3519 10604.1 78.2515C10604.1 93.1511 10592.1 105.23 10577.2 105.23H10471.5C10467.8 105.23 10464.7 108.249 10464.7 111.974C10464.7 115.699 10467.8 118.719 10471.5 118.719H10550.2C10580 118.719 10604.1 142.876 10604.1 172.675V190.66C10604.1 220.46 10580 244.617 10550.2 244.617Z" fill="#021F69"/>
</svg>
