<svg width="10829" height="297" viewBox="0 0 10829 297" fill="none" xmlns="http://www.w3.org/2000/svg">
<rect x="0.344727" y="0.410156" width="10828.5" height="296.542" fill="white"/>
<path fill-rule="evenodd" clip-rule="evenodd" d="M1126.44 116.636C1126.44 114.315 1128.27 112.434 1130.53 112.434L1218.41 112.434C1233.08 112.434 1244.97 100.205 1244.97 85.1199C1244.97 70.0347 1233.08 57.8057 1218.41 57.8057L895.508 57.8057C894.793 57.8057 894.085 57.8347 893.385 57.8916L885.898 57.8601C879.351 57.8326 873.584 61.9978 871.266 68.4289L831.044 180.01C830.208 182.331 828.055 183.871 825.648 183.871C822.469 183.871 819.892 181.222 819.892 177.954V85.1199C819.892 70.0347 807.997 57.8057 793.325 57.8057C793.083 57.8057 792.842 57.809 792.602 57.8156C792.362 57.809 792.121 57.8057 791.879 57.8057L674.792 57.8057C671.124 57.8057 667.629 58.57 664.451 59.9522C662.861 60.6432 661.351 61.4888 659.938 62.4705C652.871 67.3791 648.224 75.6916 648.224 85.1198V163.882C648.224 174.922 639.52 183.871 628.782 183.871H626.936C625.211 183.871 623.508 183.469 621.955 182.694C618.023 180.733 615.526 176.634 615.526 172.14V85.1199C615.526 71.6838 606.089 60.5136 593.659 58.2319C592.133 57.9518 590.562 57.8057 588.958 57.8057L265.938 57.8057C251.332 57.8057 239.491 69.979 239.491 84.9955C239.491 99.9944 251.305 112.16 265.894 112.185L312.963 112.266C316.77 112.272 318.577 117.089 315.762 119.723C314.994 120.441 313.994 120.838 312.956 120.838H286.496C271.823 120.838 259.928 133.067 259.928 148.153C259.928 163.238 271.823 175.467 286.496 175.467H311.73C312.747 175.467 313.728 175.857 314.481 176.561C317.244 179.145 315.465 183.871 311.73 183.871H266.059C251.386 183.871 239.491 196.1 239.491 211.185C239.491 226.271 251.386 238.5 266.059 238.5L384.591 238.5C399.264 238.5 411.159 226.271 411.159 211.185C411.159 203.622 408.169 196.776 403.337 191.83C402.695 191.064 402 190.327 401.25 189.626C395.611 184.351 399.006 172.397 404.163 166.624C408.507 161.762 411.159 155.276 411.159 148.153C411.159 137.771 405.526 128.742 397.23 124.121C393.665 122.135 392.017 116.492 395.016 113.686C395.878 112.881 397.001 112.434 398.165 112.434H409.605C428.522 112.434 443.858 128.2 443.858 147.649V211.185C443.858 226.271 455.753 238.5 470.425 238.5C485.098 238.5 496.993 226.271 496.993 211.185C496.993 197.235 511.191 188.093 523.399 194.183L545.38 205.148C556.005 210.448 562.065 222.54 570.6 230.93C574.79 235.049 580.29 237.772 586.392 238.374C587.236 238.457 588.092 238.5 588.958 238.5H670.705C672.066 238.5 673.43 238.5 674.792 238.5C689.465 238.5 701.36 226.271 701.36 211.185V146.052C701.36 127.485 715.999 112.434 734.058 112.434C752.117 112.434 766.757 127.485 766.757 146.052V211.185C766.757 226.271 778.652 238.5 793.325 238.5H801.991C826.826 238.5 862.517 249.857 870.594 225.713L903.009 128.817C906.288 119.015 915.259 112.434 925.341 112.434C935.201 112.434 944.023 118.732 947.469 128.23L982.122 223.769C985.368 232.717 993.386 238.52 1002.5 238.52H1011.53C1025.39 238.52 1035.4 223.527 1030.68 209.826L1012.04 155.672C1004.78 134.573 1020 112.434 1041.77 112.434C1059.19 112.434 1073.31 126.95 1073.31 144.856V211.185C1073.31 212.028 1073.34 212.861 1073.42 213.684C1073.36 227.371 1084.13 238.5 1097.44 238.5L1357.38 238.5C1376.56 238.5 1392.12 222.508 1392.12 202.781V175.467C1392.12 140.655 1419.57 112.434 1453.43 112.434C1471.49 112.434 1486.13 127.485 1486.13 146.052V211.185C1486.13 226.271 1498.02 238.5 1512.69 238.5C1527.37 238.5 1539.26 226.271 1539.26 211.185C1539.26 196.116 1554.6 186.241 1567.79 192.819L1586.25 202.029C1597.51 207.647 1603.45 220.995 1612.18 230.223C1617 235.328 1623.76 238.5 1631.23 238.5C1631.8 238.5 1632.37 238.481 1632.93 238.445C1633.49 238.481 1634.06 238.5 1634.63 238.5L1716.4 238.5C1731.06 238.5 1742.94 226.256 1742.94 211.185C1742.94 203.063 1749.35 196.478 1757.25 196.478L1800.17 196.478C1809.19 196.478 1816.51 204.003 1816.51 213.286C1816.51 227.211 1827.49 238.5 1841.04 238.5C1854.58 238.5 1865.56 227.211 1865.56 213.286V167.062C1865.56 153.138 1854.58 141.849 1841.04 141.849C1840.7 141.849 1840.37 141.856 1840.04 141.87C1839.69 141.856 1839.34 141.849 1838.99 141.849C1828.31 141.849 1824.12 127.588 1833.03 121.512L1854.03 107.184C1866.26 98.8422 1869.13 82.221 1860.45 70.0592C1851.77 57.8973 1834.82 54.8002 1822.59 63.1415L1774.42 96.0086C1760.95 105.201 1742.94 95.2694 1742.94 78.645C1742.94 67.1358 1733.87 57.8057 1722.67 57.8057L1716.37 57.8057C1701.7 57.8057 1689.81 70.0347 1689.81 85.1199V169.164C1689.81 177.286 1683.4 183.871 1675.5 183.871H1674.87C1672.61 183.871 1670.38 183.344 1668.35 182.331L1667.77 182.045C1661.67 179 1657.8 172.638 1657.8 165.663V85.1199C1657.8 70.0347 1645.9 57.8057 1631.23 57.8057L1304.24 57.8057C1289.57 57.8057 1277.67 70.0347 1277.67 85.1199C1277.67 100.205 1289.57 112.434 1304.24 112.434H1308.33C1325.26 112.434 1338.98 126.544 1338.98 143.951V148.153C1338.98 167.879 1323.43 183.871 1304.24 183.871H1130.53C1128.27 183.871 1126.44 181.99 1126.44 179.669C1126.44 177.348 1128.27 175.467 1130.53 175.467L1153.01 175.467C1167.68 175.467 1179.58 163.238 1179.58 148.153C1179.58 133.067 1167.68 120.838 1153.01 120.838L1130.53 120.838C1128.27 120.838 1126.44 118.957 1126.44 116.636ZM501.733 112.434C499.115 112.434 496.993 114.616 496.993 117.308C496.993 119.174 498.03 120.877 499.664 121.692L540.572 142.098C550.659 147.13 562.39 139.576 562.39 128.049C562.39 119.425 555.59 112.434 547.202 112.434L501.733 112.434ZM1590.38 112.434C1598.27 112.434 1604.66 119.008 1604.66 127.117C1604.66 137.956 1593.63 145.059 1584.14 140.327L1541.12 118.865C1539.98 118.299 1539.26 117.116 1539.26 115.819C1539.26 113.95 1540.74 112.434 1542.56 112.434L1590.38 112.434Z" fill="#021F69"/>
<path fill-rule="evenodd" clip-rule="evenodd" d="M2885.19 116.635C2885.19 114.314 2887.02 112.433 2889.28 112.433L2977.16 112.433C2991.83 112.433 3003.73 100.204 3003.73 85.1189C3003.73 70.0337 2991.83 57.8047 2977.16 57.8047L2654.26 57.8047C2653.54 57.8047 2652.84 57.8337 2652.14 57.8906L2644.65 57.8591C2638.1 57.8316 2632.34 61.9968 2630.02 68.428L2589.8 180.009C2588.96 182.33 2586.81 183.87 2584.4 183.87C2581.22 183.87 2578.64 181.221 2578.64 177.953V85.1189C2578.64 70.0337 2566.75 57.8047 2552.08 57.8047C2551.83 57.8047 2551.59 57.808 2551.35 57.8146C2551.11 57.808 2550.87 57.8047 2550.63 57.8047L2433.54 57.8047C2429.87 57.8047 2426.38 58.569 2423.2 59.9512C2421.61 60.6423 2420.1 61.4878 2418.69 62.4695C2411.62 67.3781 2406.98 75.6906 2406.98 85.1189V163.882C2406.98 174.921 2398.27 183.87 2387.53 183.87H2385.69C2383.96 183.87 2382.26 183.468 2380.71 182.693C2376.77 180.732 2374.28 176.633 2374.28 172.139V85.1189C2374.28 71.6828 2364.84 60.5126 2352.41 58.2309C2350.88 57.9508 2349.31 57.8047 2347.71 57.8047L2024.69 57.8047C2010.08 57.8047 1998.24 69.978 1998.24 84.9945C1998.24 99.9934 2010.06 112.159 2024.64 112.184L2071.71 112.265C2075.52 112.271 2077.33 117.088 2074.51 119.722C2073.75 120.44 2072.74 120.837 2071.71 120.837H2045.25C2030.57 120.837 2018.68 133.066 2018.68 148.152C2018.68 163.237 2030.57 175.466 2045.25 175.466H2070.48C2071.5 175.466 2072.48 175.856 2073.23 176.56C2075.99 179.144 2074.22 183.87 2070.48 183.87H2024.81C2010.14 183.87 1998.24 196.099 1998.24 211.184C1998.24 226.27 2010.14 238.499 2024.81 238.499L2143.34 238.499C2158.02 238.499 2169.91 226.27 2169.91 211.184C2169.91 203.621 2166.92 196.775 2162.09 191.829C2161.45 191.063 2160.75 190.326 2160 189.625C2154.36 184.35 2157.76 172.396 2162.91 166.623C2167.26 161.761 2169.91 155.275 2169.91 148.152C2169.91 137.77 2164.28 128.741 2155.98 124.12C2152.42 122.134 2150.77 116.491 2153.77 113.686C2154.63 112.88 2155.75 112.433 2156.92 112.433H2168.36C2187.27 112.433 2202.61 128.199 2202.61 147.648V211.184C2202.61 226.27 2214.5 238.499 2229.18 238.499C2243.85 238.499 2255.74 226.27 2255.74 211.184C2255.74 197.234 2269.94 188.092 2282.15 194.182L2304.13 205.147C2314.76 210.447 2320.82 222.539 2329.35 230.929C2333.54 235.048 2339.04 237.771 2345.14 238.373C2345.99 238.456 2346.84 238.499 2347.71 238.499H2429.46C2430.82 238.499 2432.18 238.499 2433.54 238.499C2448.22 238.499 2460.11 226.27 2460.11 211.184V146.051C2460.11 127.484 2474.75 112.433 2492.81 112.433C2510.87 112.433 2525.51 127.484 2525.51 146.051V211.184C2525.51 226.27 2537.4 238.499 2552.08 238.499H2560.74C2585.58 238.499 2621.27 249.856 2629.35 225.712L2661.76 128.816C2665.04 119.014 2674.01 112.433 2684.09 112.433C2693.95 112.433 2702.77 118.731 2706.22 128.229L2740.87 223.768C2744.12 232.716 2752.14 238.519 2761.25 238.519H2770.28C2784.14 238.52 2794.15 223.526 2789.43 209.825L2770.79 155.671C2763.53 134.572 2778.75 112.433 2800.52 112.433C2817.94 112.433 2832.06 126.949 2832.06 144.855V211.184C2832.06 212.027 2832.09 212.86 2832.17 213.683C2832.11 227.37 2842.88 238.499 2856.19 238.499L3116.13 238.499C3135.31 238.499 3150.87 222.507 3150.87 202.78V175.466C3150.87 140.654 3178.32 112.433 3212.18 112.433C3230.24 112.433 3244.88 127.484 3244.88 146.051V211.184C3244.88 226.27 3256.77 238.499 3271.45 238.499C3286.12 238.499 3298.01 226.27 3298.01 211.184C3298.01 196.115 3313.35 186.24 3326.54 192.818L3345 202.028C3356.26 207.646 3362.2 220.994 3370.93 230.222C3375.75 235.327 3382.51 238.499 3389.98 238.499C3390.55 238.499 3391.12 238.48 3391.68 238.444C3392.24 238.48 3392.81 238.499 3393.38 238.499L3475.15 238.499C3489.81 238.499 3501.69 226.255 3501.69 211.184C3501.69 203.062 3508.1 196.477 3516 196.477L3558.92 196.477C3567.95 196.477 3575.27 204.002 3575.27 213.285C3575.27 227.21 3586.25 238.499 3599.79 238.499C3613.33 238.499 3624.31 227.21 3624.31 213.286V167.061C3624.31 153.137 3613.33 141.848 3599.79 141.848C3599.45 141.848 3599.12 141.855 3598.79 141.869C3598.44 141.855 3598.09 141.848 3597.75 141.848C3587.06 141.848 3582.87 127.587 3591.78 121.511L3612.78 107.183C3625.01 98.8412 3627.88 82.22 3619.2 70.0582C3610.52 57.8963 3593.57 54.7992 3581.34 63.1406L3533.17 96.0077C3519.7 105.2 3501.69 95.2685 3501.69 78.644C3501.69 67.1348 3492.62 57.8047 3481.42 57.8047L3475.13 57.8047C3460.45 57.8047 3448.56 70.0337 3448.56 85.1189V169.163C3448.56 177.285 3442.15 183.87 3434.25 183.87H3433.62C3431.36 183.87 3429.13 183.343 3427.1 182.33L3426.53 182.044C3420.42 178.999 3416.55 172.637 3416.55 165.662V85.1189C3416.55 70.0337 3404.65 57.8047 3389.98 57.8047L3062.99 57.8047C3048.32 57.8047 3036.42 70.0337 3036.42 85.1189C3036.42 100.204 3048.32 112.433 3062.99 112.433H3067.08C3084.01 112.433 3097.73 126.544 3097.73 143.95V148.152C3097.73 167.878 3082.18 183.87 3062.99 183.87H2889.28C2887.02 183.87 2885.19 181.989 2885.19 179.668C2885.19 177.347 2887.02 175.466 2889.28 175.466L2911.76 175.466C2926.43 175.466 2938.33 163.237 2938.33 148.152C2938.33 133.066 2926.43 120.837 2911.76 120.837L2889.28 120.837C2887.02 120.837 2885.19 118.956 2885.19 116.635ZM2260.48 112.433C2257.87 112.433 2255.74 114.615 2255.74 117.307C2255.74 119.174 2256.78 120.876 2258.42 121.691L2299.32 142.097C2309.41 147.129 2321.14 139.575 2321.14 128.048C2321.14 119.424 2314.34 112.433 2305.95 112.433L2260.48 112.433ZM3349.13 112.433C3357.02 112.433 3363.41 119.007 3363.41 127.116C3363.41 137.955 3352.38 145.058 3342.89 140.326L3299.87 118.864C3298.73 118.298 3298.01 117.115 3298.01 115.818C3298.01 113.949 3299.49 112.433 3301.31 112.433L3349.13 112.433Z" fill="#021F69"/>
<path fill-rule="evenodd" clip-rule="evenodd" d="M4643.94 116.635C4643.94 114.314 4645.77 112.433 4648.03 112.433L4735.91 112.433C4750.58 112.433 4762.48 100.204 4762.48 85.1189C4762.48 70.0337 4750.58 57.8047 4735.91 57.8047L4413.01 57.8047C4412.3 57.8047 4411.59 57.8337 4410.89 57.8906L4403.4 57.8591C4396.85 57.8316 4391.09 61.9968 4388.77 68.428L4348.55 180.009C4347.71 182.33 4345.56 183.87 4343.15 183.87C4339.97 183.87 4337.39 181.221 4337.39 177.953V85.1189C4337.39 70.0337 4325.5 57.8047 4310.83 57.8047C4310.58 57.8047 4310.34 57.808 4310.1 57.8146C4309.86 57.808 4309.62 57.8047 4309.38 57.8047L4192.29 57.8047C4188.63 57.8047 4185.13 58.569 4181.95 59.9512C4180.36 60.6423 4178.85 61.4878 4177.44 62.4695C4170.37 67.3781 4165.73 75.6906 4165.73 85.1189V163.882C4165.73 174.921 4157.02 183.87 4146.28 183.87H4144.44C4142.71 183.87 4141.01 183.468 4139.46 182.693C4135.52 180.732 4133.03 176.633 4133.03 172.139V85.1189C4133.03 71.6828 4123.59 60.5126 4111.16 58.2309C4109.63 57.9508 4108.06 57.8047 4106.46 57.8047L3783.44 57.8047C3768.83 57.8047 3756.99 69.978 3756.99 84.9945C3756.99 99.9934 3768.81 112.159 3783.4 112.184L3830.47 112.265C3834.27 112.271 3836.08 117.088 3833.26 119.722C3832.5 120.44 3831.5 120.837 3830.46 120.837H3804C3789.32 120.837 3777.43 133.066 3777.43 148.152C3777.43 163.237 3789.32 175.466 3804 175.466H3829.23C3830.25 175.466 3831.23 175.856 3831.98 176.56C3834.75 179.144 3832.97 183.87 3829.23 183.87H3783.56C3768.89 183.87 3756.99 196.099 3756.99 211.184C3756.99 226.27 3768.89 238.499 3783.56 238.499L3902.09 238.499C3916.77 238.499 3928.66 226.27 3928.66 211.184C3928.66 203.621 3925.67 196.775 3920.84 191.829C3920.2 191.063 3919.5 190.326 3918.75 189.625C3913.11 184.35 3916.51 172.396 3921.66 166.623C3926.01 161.761 3928.66 155.275 3928.66 148.152C3928.66 137.77 3923.03 128.741 3914.73 124.12C3911.17 122.134 3909.52 116.491 3912.52 113.686C3913.38 112.88 3914.5 112.433 3915.67 112.433H3927.11C3946.02 112.433 3961.36 128.199 3961.36 147.648V211.184C3961.36 226.27 3973.25 238.499 3987.93 238.499C4002.6 238.499 4014.5 226.27 4014.5 211.184C4014.5 197.234 4028.69 188.092 4040.9 194.182L4062.88 205.147C4073.51 210.447 4079.57 222.539 4088.1 230.929C4092.29 235.048 4097.79 237.771 4103.89 238.373C4104.74 238.456 4105.59 238.499 4106.46 238.499H4188.21C4189.57 238.499 4190.93 238.499 4192.29 238.499C4206.97 238.499 4218.86 226.27 4218.86 211.184V146.051C4218.86 127.484 4233.5 112.433 4251.56 112.433C4269.62 112.433 4284.26 127.484 4284.26 146.051V211.184C4284.26 226.27 4296.15 238.499 4310.83 238.499H4319.49C4344.33 238.499 4380.02 249.856 4388.1 225.712L4420.51 128.816C4423.79 119.014 4432.76 112.433 4442.84 112.433C4452.7 112.433 4461.53 118.731 4464.97 128.229L4499.62 223.768C4502.87 232.716 4510.89 238.519 4520 238.519H4529.03C4542.89 238.52 4552.9 223.526 4548.18 209.825L4529.54 155.671C4522.28 134.572 4537.5 112.433 4559.27 112.433C4576.69 112.433 4590.81 126.949 4590.81 144.855V211.184C4590.81 212.027 4590.85 212.86 4590.92 213.683C4590.86 227.37 4601.63 238.499 4614.95 238.499L4874.88 238.499C4894.07 238.499 4909.62 222.507 4909.62 202.78V175.466C4909.62 140.654 4937.07 112.433 4970.93 112.433C4988.99 112.433 5003.63 127.484 5003.63 146.051V211.184C5003.63 226.27 5015.52 238.499 5030.2 238.499C5044.87 238.499 5056.76 226.27 5056.76 211.184C5056.76 196.115 5072.1 186.24 5085.29 192.818L5103.75 202.028C5115.01 207.646 5120.95 220.994 5129.68 230.222C5134.51 235.327 5141.26 238.499 5148.73 238.499C5149.3 238.499 5149.87 238.48 5150.43 238.444C5150.99 238.48 5151.56 238.499 5152.13 238.499L5233.9 238.499C5248.56 238.499 5260.44 226.255 5260.44 211.184C5260.44 203.062 5266.85 196.477 5274.75 196.477L5317.67 196.477C5326.7 196.477 5334.02 204.002 5334.02 213.285C5334.02 227.21 5345 238.499 5358.54 238.499C5372.08 238.499 5383.06 227.21 5383.06 213.286V167.061C5383.06 153.137 5372.08 141.848 5358.54 141.848C5358.21 141.848 5357.87 141.855 5357.54 141.869C5357.19 141.855 5356.85 141.848 5356.5 141.848C5345.81 141.848 5341.62 127.587 5350.53 121.511L5371.53 107.183C5383.76 98.8412 5386.63 82.22 5377.95 70.0582C5369.27 57.8963 5352.32 54.7992 5340.09 63.1406L5291.92 96.0077C5278.45 105.2 5260.44 95.2685 5260.44 78.644C5260.44 67.1348 5251.37 57.8047 5240.17 57.8047L5233.88 57.8047C5219.2 57.8047 5207.31 70.0337 5207.31 85.1189V169.163C5207.31 177.285 5200.9 183.87 5193 183.87H5192.37C5190.11 183.87 5187.88 183.343 5185.85 182.33L5185.28 182.044C5179.17 178.999 5175.3 172.637 5175.3 165.662V85.1189C5175.3 70.0337 5163.4 57.8047 5148.73 57.8047L4821.74 57.8047C4807.07 57.8047 4795.18 70.0337 4795.18 85.1189C4795.18 100.204 4807.07 112.433 4821.74 112.433H4825.83C4842.76 112.433 4856.49 126.544 4856.49 143.95V148.152C4856.49 167.878 4840.93 183.87 4821.74 183.87H4648.03C4645.77 183.87 4643.94 181.989 4643.94 179.668C4643.94 177.347 4645.77 175.466 4648.03 175.466L4670.51 175.466C4685.18 175.466 4697.08 163.237 4697.08 148.152C4697.08 133.066 4685.18 120.837 4670.51 120.837L4648.03 120.837C4645.77 120.837 4643.94 118.956 4643.94 116.635ZM4019.24 112.433C4016.62 112.433 4014.5 114.615 4014.5 117.307C4014.5 119.174 4015.53 120.876 4017.17 121.691L4058.07 142.097C4068.16 147.129 4079.89 139.575 4079.89 128.048C4079.89 119.424 4073.09 112.433 4064.7 112.433L4019.24 112.433ZM5107.88 112.433C5115.77 112.433 5122.16 119.007 5122.16 127.116C5122.16 137.955 5111.13 145.058 5101.65 140.326L5058.62 118.864C5057.49 118.298 5056.76 117.115 5056.76 115.818C5056.76 113.949 5058.24 112.433 5060.06 112.433L5107.88 112.433Z" fill="#021F69"/>
<path fill-rule="evenodd" clip-rule="evenodd" d="M6402.69 116.635C6402.69 114.314 6404.52 112.433 6406.78 112.433L6494.66 112.433C6509.33 112.433 6521.23 100.204 6521.23 85.1189C6521.23 70.0337 6509.33 57.8047 6494.66 57.8047L6171.76 57.8047C6171.05 57.8047 6170.34 57.8337 6169.64 57.8906L6162.15 57.8591C6155.6 57.8316 6149.84 61.9968 6147.52 68.428L6107.3 180.009C6106.46 182.33 6104.31 183.87 6101.9 183.87C6098.72 183.87 6096.14 181.221 6096.14 177.953V85.1189C6096.14 70.0337 6084.25 57.8047 6069.58 57.8047C6069.34 57.8047 6069.09 57.808 6068.85 57.8146C6068.61 57.808 6068.37 57.8047 6068.13 57.8047L5951.04 57.8047C5947.38 57.8047 5943.88 58.569 5940.7 59.9512C5939.11 60.6423 5937.6 61.4878 5936.19 62.4695C5929.12 67.3781 5924.48 75.6906 5924.48 85.1189V163.882C5924.48 174.921 5915.77 183.87 5905.03 183.87H5903.19C5901.46 183.87 5899.76 183.468 5898.21 182.693C5894.28 180.732 5891.78 176.633 5891.78 172.139V85.1189C5891.78 71.6828 5882.34 60.5126 5869.91 58.2309C5868.39 57.9508 5866.81 57.8047 5865.21 57.8047L5542.19 57.8047C5527.58 57.8047 5515.74 69.978 5515.74 84.9945C5515.74 99.9934 5527.56 112.159 5542.15 112.184L5589.22 112.265C5593.02 112.271 5594.83 117.088 5592.01 119.722C5591.25 120.44 5590.25 120.837 5589.21 120.837H5562.75C5548.08 120.837 5536.18 133.066 5536.18 148.152C5536.18 163.237 5548.08 175.466 5562.75 175.466H5587.98C5589 175.466 5589.98 175.856 5590.73 176.56C5593.5 179.144 5591.72 183.87 5587.98 183.87H5542.31C5527.64 183.87 5515.74 196.099 5515.74 211.184C5515.74 226.27 5527.64 238.499 5542.31 238.499L5660.84 238.499C5675.52 238.499 5687.41 226.27 5687.41 211.184C5687.41 203.621 5684.42 196.775 5679.59 191.829C5678.95 191.063 5678.25 190.326 5677.5 189.625C5671.86 184.35 5675.26 172.396 5680.42 166.623C5684.76 161.761 5687.41 155.275 5687.41 148.152C5687.41 137.77 5681.78 128.741 5673.48 124.12C5669.92 122.134 5668.27 116.491 5671.27 113.686C5672.13 112.88 5673.25 112.433 5674.42 112.433H5685.86C5704.77 112.433 5720.11 128.199 5720.11 147.648V211.184C5720.11 226.27 5732 238.499 5746.68 238.499C5761.35 238.499 5773.25 226.27 5773.25 211.184C5773.25 197.234 5787.44 188.092 5799.65 194.182L5821.63 205.147C5832.26 210.447 5838.32 222.539 5846.85 230.929C5851.04 235.048 5856.54 237.771 5862.64 238.373C5863.49 238.456 5864.34 238.499 5865.21 238.499H5946.96C5948.32 238.499 5949.68 238.499 5951.04 238.499C5965.72 238.499 5977.61 226.27 5977.61 211.184V146.051C5977.61 127.484 5992.25 112.433 6010.31 112.433C6028.37 112.433 6043.01 127.484 6043.01 146.051V211.184C6043.01 226.27 6054.9 238.499 6069.58 238.499H6078.24C6103.08 238.499 6138.77 249.856 6146.85 225.712L6179.26 128.816C6182.54 119.014 6191.51 112.433 6201.59 112.433C6211.45 112.433 6220.28 118.731 6223.72 128.229L6258.37 223.768C6261.62 232.716 6269.64 238.519 6278.75 238.519H6287.78C6301.64 238.52 6311.65 223.526 6306.94 209.825L6288.29 155.671C6281.03 134.572 6296.25 112.433 6318.02 112.433C6335.44 112.433 6349.56 126.949 6349.56 144.855V211.184C6349.56 212.027 6349.6 212.86 6349.67 213.683C6349.61 227.37 6360.38 238.499 6373.7 238.499L6633.63 238.499C6652.82 238.499 6668.37 222.507 6668.37 202.78V175.466C6668.37 140.654 6695.82 112.433 6729.68 112.433C6747.74 112.433 6762.38 127.484 6762.38 146.051V211.184C6762.38 226.27 6774.27 238.499 6788.95 238.499C6803.62 238.499 6815.51 226.27 6815.51 211.184C6815.51 196.115 6830.85 186.24 6844.04 192.818L6862.5 202.028C6873.76 207.646 6879.7 220.994 6888.43 230.222C6893.26 235.327 6900.01 238.499 6907.48 238.499C6908.05 238.499 6908.62 238.48 6909.18 238.444C6909.74 238.48 6910.31 238.499 6910.88 238.499L6992.65 238.499C7007.31 238.499 7019.19 226.255 7019.19 211.184C7019.19 203.062 7025.6 196.477 7033.5 196.477L7076.42 196.477C7085.45 196.477 7092.77 204.002 7092.77 213.285C7092.77 227.21 7103.75 238.499 7117.29 238.499C7130.84 238.499 7141.81 227.21 7141.81 213.286V167.061C7141.81 153.137 7130.84 141.848 7117.29 141.848C7116.96 141.848 7116.62 141.855 7116.29 141.869C7115.94 141.855 7115.6 141.848 7115.25 141.848C7104.56 141.848 7100.38 127.587 7109.28 121.511L7130.28 107.183C7142.51 98.8412 7145.38 82.22 7136.7 70.0582C7128.02 57.8963 7111.07 54.7992 7098.85 63.1406L7050.67 96.0077C7037.2 105.2 7019.19 95.2685 7019.19 78.644C7019.19 67.1348 7010.12 57.8047 6998.93 57.8047L6992.63 57.8047C6977.95 57.8047 6966.06 70.0337 6966.06 85.1189V169.163C6966.06 177.285 6959.65 183.87 6951.75 183.87H6951.12C6948.86 183.87 6946.63 183.343 6944.6 182.33L6944.03 182.044C6937.92 178.999 6934.05 172.637 6934.05 165.662V85.1189C6934.05 70.0337 6922.15 57.8047 6907.48 57.8047L6580.49 57.8047C6565.82 57.8047 6553.93 70.0337 6553.93 85.1189C6553.93 100.204 6565.82 112.433 6580.49 112.433H6584.58C6601.51 112.433 6615.24 126.544 6615.24 143.95V148.152C6615.24 167.878 6599.68 183.87 6580.49 183.87H6406.78C6404.52 183.87 6402.69 181.989 6402.69 179.668C6402.69 177.347 6404.52 175.466 6406.78 175.466L6429.26 175.466C6443.94 175.466 6455.83 163.237 6455.83 148.152C6455.83 133.066 6443.94 120.837 6429.26 120.837L6406.78 120.837C6404.52 120.837 6402.69 118.956 6402.69 116.635ZM5777.99 112.433C5775.37 112.433 5773.25 114.615 5773.25 117.307C5773.25 119.174 5774.28 120.876 5775.92 121.691L5816.82 142.097C5826.91 147.129 5838.64 139.575 5838.64 128.048C5838.64 119.424 5831.84 112.433 5823.45 112.433L5777.99 112.433ZM6866.63 112.433C6874.52 112.433 6880.91 119.007 6880.91 127.116C6880.91 137.955 6869.88 145.058 6860.4 140.326L6817.37 118.864C6816.24 118.298 6815.51 117.115 6815.51 115.818C6815.51 113.949 6816.99 112.433 6818.81 112.433L6866.63 112.433Z" fill="#021F69"/>
<path fill-rule="evenodd" clip-rule="evenodd" d="M8161.44 116.635C8161.44 114.314 8163.27 112.433 8165.53 112.433L8253.41 112.433C8268.08 112.433 8279.98 100.204 8279.98 85.1189C8279.98 70.0337 8268.08 57.8047 8253.41 57.8047L7930.51 57.8047C7929.8 57.8047 7929.09 57.8337 7928.39 57.8906L7920.9 57.8591C7914.35 57.8316 7908.59 61.9968 7906.27 68.428L7866.05 180.009C7865.21 182.33 7863.06 183.87 7860.65 183.87C7857.47 183.87 7854.9 181.221 7854.9 177.953V85.1189C7854.9 70.0337 7843 57.8047 7828.33 57.8047C7828.09 57.8047 7827.85 57.808 7827.61 57.8146C7827.37 57.808 7827.12 57.8047 7826.88 57.8047L7709.79 57.8047C7706.13 57.8047 7702.63 58.569 7699.45 59.9512C7697.86 60.6423 7696.35 61.4878 7694.94 62.4695C7687.87 67.3781 7683.23 75.6906 7683.23 85.1189V163.882C7683.23 174.921 7674.52 183.87 7663.78 183.87H7661.94C7660.21 183.87 7658.51 183.468 7656.96 182.693C7653.03 180.732 7650.53 176.633 7650.53 172.139V85.1189C7650.53 71.6828 7641.09 60.5126 7628.66 58.2309C7627.14 57.9508 7625.57 57.8047 7623.96 57.8047L7300.94 57.8047C7286.33 57.8047 7274.49 69.978 7274.49 84.9945C7274.49 99.9934 7286.31 112.159 7300.9 112.184L7347.97 112.265C7351.77 112.271 7353.58 117.088 7350.76 119.722C7350 120.44 7349 120.837 7347.96 120.837H7321.5C7306.83 120.837 7294.93 133.066 7294.93 148.152C7294.93 163.237 7306.83 175.466 7321.5 175.466H7346.73C7347.75 175.466 7348.73 175.856 7349.48 176.56C7352.25 179.144 7350.47 183.87 7346.73 183.87H7301.06C7286.39 183.87 7274.49 196.099 7274.49 211.184C7274.49 226.27 7286.39 238.499 7301.06 238.499L7419.59 238.499C7434.27 238.499 7446.16 226.27 7446.16 211.184C7446.16 203.621 7443.17 196.775 7438.34 191.829C7437.7 191.063 7437 190.326 7436.25 189.625C7430.61 184.35 7434.01 172.396 7439.17 166.623C7443.51 161.761 7446.16 155.275 7446.16 148.152C7446.16 137.77 7440.53 128.741 7432.23 124.12C7428.67 122.134 7427.02 116.491 7430.02 113.686C7430.88 112.88 7432 112.433 7433.17 112.433H7444.61C7463.53 112.433 7478.86 128.199 7478.86 147.648V211.184C7478.86 226.27 7490.76 238.499 7505.43 238.499C7520.1 238.499 7532 226.27 7532 211.184C7532 197.234 7546.19 188.092 7558.4 194.182L7580.38 205.147C7591.01 210.447 7597.07 222.539 7605.6 230.929C7609.79 235.048 7615.29 237.771 7621.39 238.373C7622.24 238.456 7623.1 238.499 7623.96 238.499H7705.71C7707.07 238.499 7708.43 238.499 7709.79 238.499C7724.47 238.499 7736.36 226.27 7736.36 211.184V146.051C7736.36 127.484 7751 112.433 7769.06 112.433C7787.12 112.433 7801.76 127.484 7801.76 146.051V211.184C7801.76 226.27 7813.65 238.499 7828.33 238.499H7836.99C7861.83 238.499 7897.52 249.856 7905.6 225.712L7938.01 128.816C7941.29 119.014 7950.26 112.433 7960.34 112.433C7970.2 112.433 7979.03 118.731 7982.47 128.229L8017.13 223.768C8020.37 232.716 8028.39 238.519 8037.5 238.519L8046.53 238.519C8060.39 238.52 8070.4 223.526 8065.69 209.825L8047.05 155.671C8039.78 134.572 8055 112.433 8076.77 112.433C8094.19 112.433 8108.31 126.949 8108.31 144.855V211.184C8108.31 212.027 8108.35 212.86 8108.42 213.683C8108.36 227.37 8119.13 238.499 8132.45 238.499L8392.38 238.499C8411.57 238.499 8427.12 222.507 8427.12 202.78V175.466C8427.12 140.654 8454.57 112.433 8488.43 112.433C8506.49 112.433 8521.13 127.484 8521.13 146.051V211.184C8521.13 226.27 8533.02 238.499 8547.7 238.499C8562.37 238.499 8574.27 226.27 8574.27 211.184C8574.27 196.115 8589.6 186.24 8602.79 192.818L8621.25 202.028C8632.51 207.646 8638.45 220.994 8647.18 230.222C8652.01 235.327 8658.76 238.499 8666.23 238.499C8666.8 238.499 8667.37 238.48 8667.93 238.444C8668.49 238.48 8669.06 238.499 8669.63 238.499L8751.4 238.499C8766.06 238.499 8777.95 226.255 8777.95 211.184C8777.95 203.062 8784.35 196.477 8792.25 196.477L8835.17 196.477C8844.2 196.477 8851.52 204.002 8851.52 213.285C8851.52 227.21 8862.5 238.499 8876.04 238.499C8889.59 238.499 8900.57 227.21 8900.57 213.286V167.061C8900.57 153.137 8889.59 141.848 8876.04 141.848C8875.71 141.848 8875.37 141.855 8875.04 141.869C8874.69 141.855 8874.35 141.848 8874 141.848C8863.31 141.848 8859.13 127.587 8868.03 121.511L8889.03 107.183C8901.26 98.8412 8904.13 82.22 8895.45 70.0582C8886.77 57.8963 8869.82 54.7992 8857.6 63.1406L8809.42 96.0077C8795.95 105.2 8777.95 95.2685 8777.95 78.644C8777.95 67.1348 8768.87 57.8047 8757.68 57.8047L8751.38 57.8047C8736.7 57.8047 8724.81 70.0337 8724.81 85.1189V169.163C8724.81 177.285 8718.41 183.87 8710.5 183.87H8709.87C8707.61 183.87 8705.38 183.343 8703.35 182.33L8702.78 182.044C8696.67 178.999 8692.8 172.637 8692.8 165.662V85.1189C8692.8 70.0337 8680.9 57.8047 8666.23 57.8047L8339.24 57.8047C8324.57 57.8047 8312.68 70.0337 8312.68 85.1189C8312.68 100.204 8324.57 112.433 8339.24 112.433H8343.33C8360.26 112.433 8373.99 126.544 8373.99 143.95V148.152C8373.99 167.878 8358.43 183.87 8339.24 183.87H8165.53C8163.27 183.87 8161.44 181.989 8161.44 179.668C8161.44 177.347 8163.27 175.466 8165.53 175.466L8188.01 175.466C8202.69 175.466 8214.58 163.237 8214.58 148.152C8214.58 133.066 8202.69 120.837 8188.01 120.837L8165.53 120.837C8163.27 120.837 8161.44 118.956 8161.44 116.635ZM7536.74 112.433C7534.12 112.433 7532 114.615 7532 117.307C7532 119.174 7533.03 120.876 7534.67 121.691L7575.57 142.097C7585.66 147.129 7597.39 139.575 7597.39 128.048C7597.39 119.424 7590.59 112.433 7582.2 112.433L7536.74 112.433ZM8625.38 112.433C8633.27 112.433 8639.66 119.007 8639.66 127.116C8639.66 137.955 8628.63 145.058 8619.15 140.326L8576.12 118.864C8574.99 118.298 8574.27 117.115 8574.27 115.818C8574.27 113.949 8575.74 112.433 8577.56 112.433L8625.38 112.433Z" fill="#021F69"/>
<path fill-rule="evenodd" clip-rule="evenodd" d="M9920.2 116.635C9920.2 114.314 9922.03 112.433 9924.28 112.433L10012.2 112.433C10026.8 112.433 10038.7 100.204 10038.7 85.1189C10038.7 70.0337 10026.8 57.8047 10012.2 57.8047L9689.26 57.8047C9688.55 57.8047 9687.84 57.8337 9687.14 57.8906L9679.65 57.8591C9673.1 57.8316 9667.34 61.9968 9665.02 68.428L9624.8 180.009C9623.96 182.33 9621.81 183.87 9619.4 183.87C9616.22 183.87 9613.65 181.221 9613.65 177.953V85.1189C9613.65 70.0337 9601.75 57.8047 9587.08 57.8047C9586.84 57.8047 9586.6 57.808 9586.36 57.8146C9586.12 57.808 9585.88 57.8047 9585.63 57.8047L9468.55 57.8047C9464.88 57.8047 9461.38 58.569 9458.2 59.9512C9456.62 60.6423 9455.11 61.4878 9453.69 62.4695C9446.62 67.3781 9441.98 75.6906 9441.98 85.1189V163.882C9441.98 174.921 9433.27 183.87 9422.54 183.87H9420.69C9418.96 183.87 9417.26 183.468 9415.71 182.693C9411.78 180.732 9409.28 176.633 9409.28 172.139V85.1189C9409.28 71.6828 9399.84 60.5126 9387.41 58.2309C9385.89 57.9508 9384.32 57.8047 9382.71 57.8047L9059.69 57.8047C9045.09 57.8047 9033.25 69.978 9033.25 84.9945C9033.25 99.9934 9045.06 112.159 9059.65 112.184L9106.72 112.265C9110.52 112.271 9112.33 117.088 9109.52 119.722C9108.75 120.44 9107.75 120.837 9106.71 120.837H9080.25C9065.58 120.837 9053.68 133.066 9053.68 148.152C9053.68 163.237 9065.58 175.466 9080.25 175.466H9105.48C9106.5 175.466 9107.48 175.856 9108.23 176.56C9111 179.144 9109.22 183.87 9105.48 183.87H9059.81C9045.14 183.87 9033.25 196.099 9033.25 211.184C9033.25 226.27 9045.14 238.499 9059.81 238.499L9178.35 238.499C9193.02 238.499 9204.91 226.27 9204.91 211.184C9204.91 203.621 9201.92 196.775 9197.09 191.829C9196.45 191.063 9195.75 190.326 9195 189.625C9189.36 184.35 9192.76 172.396 9197.92 166.623C9202.26 161.761 9204.91 155.275 9204.91 148.152C9204.91 137.77 9199.28 128.741 9190.98 124.12C9187.42 122.134 9185.77 116.491 9188.77 113.686C9189.63 112.88 9190.75 112.433 9191.92 112.433H9203.36C9222.28 112.433 9237.61 128.199 9237.61 147.648V211.184C9237.61 226.27 9249.51 238.499 9264.18 238.499C9278.85 238.499 9290.75 226.27 9290.75 211.184C9290.75 197.234 9304.94 188.092 9317.15 194.182L9339.13 205.147C9349.76 210.447 9355.82 222.539 9364.35 230.929C9368.54 235.048 9374.04 237.771 9380.15 238.373C9380.99 238.456 9381.85 238.499 9382.71 238.499H9464.46C9465.82 238.499 9467.18 238.499 9468.55 238.499C9483.22 238.499 9495.11 226.27 9495.11 211.184V146.051C9495.11 127.484 9509.75 112.433 9527.81 112.433C9545.87 112.433 9560.51 127.484 9560.51 146.051V211.184C9560.51 226.27 9572.41 238.499 9587.08 238.499H9595.75C9620.58 238.499 9656.27 249.856 9664.35 225.712L9696.76 128.816C9700.04 119.014 9709.01 112.433 9719.1 112.433C9728.96 112.433 9737.78 118.731 9741.22 128.229L9775.88 223.768C9779.12 232.716 9787.14 238.519 9796.25 238.519L9805.28 238.519C9819.15 238.52 9829.15 223.526 9824.44 209.825L9805.8 155.671C9798.53 134.572 9813.76 112.433 9835.53 112.433C9852.94 112.433 9867.06 126.949 9867.06 144.855V211.184C9867.06 212.027 9867.1 212.86 9867.17 213.683C9867.11 227.37 9877.89 238.499 9891.2 238.499L10151.1 238.499C10170.3 238.499 10185.9 222.507 10185.9 202.78V175.466C10185.9 140.654 10213.3 112.433 10247.2 112.433C10265.2 112.433 10279.9 127.484 10279.9 146.051V211.184C10279.9 226.27 10291.8 238.499 10306.4 238.499C10321.1 238.499 10333 226.27 10333 211.184C10333 196.115 10348.4 186.24 10361.5 192.818L10380 202.028C10391.3 207.646 10397.2 220.994 10405.9 230.222C10410.8 235.327 10417.5 238.499 10425 238.499C10425.6 238.499 10426.1 238.48 10426.7 238.444C10427.2 238.48 10427.8 238.499 10428.4 238.499L10510.2 238.499C10524.8 238.499 10536.7 226.255 10536.7 211.184C10536.7 203.062 10543.1 196.477 10551 196.477L10593.9 196.477C10602.9 196.477 10610.3 204.002 10610.3 213.285C10610.3 227.21 10621.2 238.499 10634.8 238.499C10648.3 238.499 10659.3 227.21 10659.3 213.286V167.061C10659.3 153.137 10648.3 141.848 10634.8 141.848C10634.5 141.848 10634.1 141.855 10633.8 141.869C10633.4 141.855 10633.1 141.848 10632.7 141.848C10622.1 141.848 10617.9 127.587 10626.8 121.511L10647.8 107.183C10660 98.8412 10662.9 82.22 10654.2 70.0582C10645.5 57.8963 10628.6 54.7992 10616.3 63.1406L10568.2 96.0077C10554.7 105.2 10536.7 95.2685 10536.7 78.644C10536.7 67.1348 10527.6 57.8047 10516.4 57.8047L10510.1 57.8047C10495.5 57.8047 10483.6 70.0337 10483.6 85.1189V169.163C10483.6 177.285 10477.2 183.87 10469.3 183.87H10468.6C10466.4 183.87 10464.1 183.343 10462.1 182.33L10461.5 182.044C10455.4 178.999 10451.5 172.637 10451.5 165.662V85.1189C10451.5 70.0337 10439.7 57.8047 10425 57.8047L10098 57.8047C10083.3 57.8047 10071.4 70.0337 10071.4 85.1189C10071.4 100.204 10083.3 112.433 10098 112.433H10102.1C10119 112.433 10132.7 126.544 10132.7 143.95V148.152C10132.7 167.878 10117.2 183.87 10098 183.87H9924.28C9922.03 183.87 9920.2 181.989 9920.2 179.668C9920.2 177.347 9922.03 175.466 9924.28 175.466L9946.76 175.466C9961.44 175.466 9973.33 163.237 9973.33 148.152C9973.33 133.066 9961.44 120.837 9946.76 120.837L9924.28 120.837C9922.03 120.837 9920.2 118.956 9920.2 116.635ZM9295.49 112.433C9292.87 112.433 9290.75 114.615 9290.75 117.307C9290.75 119.174 9291.78 120.876 9293.42 121.691L9334.33 142.097C9344.41 147.129 9356.14 139.575 9356.14 128.048C9356.14 119.424 9349.34 112.433 9340.96 112.433L9295.49 112.433ZM10384.1 112.433C10392 112.433 10398.4 119.007 10398.4 127.116C10398.4 137.955 10387.4 145.058 10377.9 140.326L10334.9 118.864C10333.7 118.298 10333 117.115 10333 115.818C10333 113.949 10334.5 112.433 10336.3 112.433L10384.1 112.433Z" fill="#021F69"/>
</svg>
