<svg width="238" height="226" viewBox="0 0 238 226" fill="none" xmlns="http://www.w3.org/2000/svg">
<mask id="path-1-outside-1_132_6682" maskUnits="userSpaceOnUse" x="24.4309" y="36.2275" width="188" height="153" fill="black">
<rect fill="white" x="24.4309" y="36.2275" width="188" height="153"/>
<path fill-rule="evenodd" clip-rule="evenodd" d="M181.963 91.6534C182.091 91.6882 182.219 91.7284 182.347 91.7741L189.959 94.5022C195.021 96.3168 198.206 101.337 197.691 106.69C197.359 110.77 197.167 112.356 196.981 116.401L196.9 127.096C196.88 129.802 194.152 131.794 191.679 130.908L190.068 130.33C188.442 129.747 187.376 128.216 187.36 126.438L187.187 107.456C187.17 105.569 185.992 103.899 184.233 103.269C182.434 102.624 180.42 103.205 179.219 104.716L167.341 119.648C164.382 123.369 158.728 119.094 154.298 117.506L152.752 116.952C150.134 116.014 148.781 113.107 149.73 110.46L153.827 99.0287C154.995 95.7704 153.33 92.1929 150.108 91.0382C146.886 89.8835 143.328 91.5889 142.16 94.8473L138.063 106.278C137.114 108.926 134.223 110.311 131.605 109.373L116.292 103.885C116.138 103.829 115.988 103.767 115.842 103.699C114.792 103.203 113.982 102.373 113.493 101.383C112.498 99.3643 112.178 96.8547 110.616 95.2453L107.384 91.9155C105.589 90.0662 102.481 90.7628 101.604 93.211C100.655 95.8584 97.7636 97.244 95.1459 96.3059C92.5283 95.3677 91.1754 92.461 92.1242 89.8136L96.1206 78.6631C97.3439 75.2499 95.5997 71.5024 92.2249 70.2929L90.184 69.5614C89.9762 69.4869 89.7478 69.4935 89.5434 69.5798C88.8319 69.8804 88.7709 70.9762 89.282 71.5527C90.4713 72.8941 90.9084 74.8388 90.2554 76.6607C89.8074 77.9108 88.9263 78.8795 87.8454 79.4551C86.9234 79.9461 85.963 81.0554 85.7455 82.1181C85.6603 82.5344 85.6892 82.9436 85.8789 83.3056C85.9686 83.4767 86.0464 83.6503 86.1127 83.8258C86.6636 85.0028 86.7665 86.3954 86.2907 87.7228C85.3419 90.3703 82.4507 91.7559 79.833 90.8177L58.6865 83.2388C56.0689 82.3006 54.716 79.3939 55.6648 76.7465C56.6137 74.0991 59.5049 72.7134 62.1226 73.6516L70.2704 76.5718C70.9368 76.8106 71.5513 76.0949 71.221 75.4647C71.131 75.2931 70.9805 75.1619 70.799 75.0969L66.2971 73.4834C63.6795 72.5452 62.3266 69.6385 63.2754 66.9911C64.2243 64.3437 67.1155 62.958 69.7332 63.8962L74.4538 65.5881C74.639 65.6545 74.8425 65.6486 75.0246 65.5717C75.6925 65.2895 75.6729 64.3286 74.9943 64.0841L66.6021 61.0604C64.001 60.1232 62.6586 57.2327 63.602 54.6004C64.5465 51.9651 67.4246 50.5858 70.0304 51.5197L127.658 72.1734C127.944 72.276 128.215 72.4021 128.47 72.5488C130.544 73.744 131.525 76.3077 130.679 78.6657L125.206 93.9375C124.923 94.7262 125.111 95.6052 125.689 96.2009C125.917 96.4361 126.196 96.6156 126.504 96.7259L126.833 96.844C128.749 97.5305 130.865 96.5165 131.559 94.5791L136.513 80.7565C137.106 79.1018 138.458 77.9401 140.027 77.5305C140.341 77.4486 140.664 77.3968 140.991 77.3771C141.645 77.3378 142.316 77.4271 142.971 77.6616L163.859 85.1481C163.902 85.1636 163.945 85.1796 163.988 85.1961C164.031 85.2103 164.074 85.2251 164.117 85.2405C166.735 86.1787 168.088 89.0854 167.139 91.7328L161.3 108.025C161.094 108.599 161.387 109.228 161.954 109.431C162.384 109.585 162.865 109.453 163.16 109.099L177.354 92.0884C178.172 91.108 179.463 90.7457 180.629 91.1692L181.963 91.6534ZM107.709 77.676L113.724 83.8728C115.207 85.4008 117.775 84.8252 118.5 82.8023C119.042 81.2888 118.269 79.6271 116.772 79.0907L108.661 76.1835C108.194 76.0161 107.678 76.2633 107.508 76.7357C107.391 77.0633 107.469 77.4285 107.709 77.676Z"/>
<path fill-rule="evenodd" clip-rule="evenodd" d="M71.8029 113.239L56.1231 107.619C55.7203 107.474 55.278 107.681 55.1351 108.079C54.9923 108.478 55.203 108.918 55.6058 109.062L59.6169 110.5C62.235 111.438 63.6047 114.299 62.6762 116.889C61.7478 119.48 58.8727 120.819 56.2547 119.881L52.2435 118.443C51.8407 118.299 51.3984 118.505 51.2556 118.904C51.1127 119.302 51.3235 119.742 51.7263 119.887L82.7214 130.995C86.145 132.222 89.9046 130.471 91.1188 127.083L91.3774 126.362C92.4487 123.372 90.8683 120.072 87.8475 118.989L87.1181 118.728C84.5001 117.789 83.1304 114.928 84.0589 112.338C84.9873 109.747 87.8624 108.408 90.4804 109.346L148.824 130.257C151.442 131.195 152.812 134.056 151.883 136.646L146.926 150.478C146.497 151.676 146.797 153.016 147.699 153.929L147.783 154.015C148.083 154.319 148.449 154.552 148.852 154.697L148.965 154.737C150.375 155.242 151.923 154.521 152.423 153.126L157.595 138.693C158.524 136.103 161.399 134.763 164.017 135.702L165.141 136.105C167.138 136.82 168.183 139.003 167.475 140.979C166.451 143.834 169.053 146.691 172.023 145.974L182.641 143.411C185.336 142.76 188.169 144.376 188.969 147.019C189.77 149.663 188.234 152.334 185.539 152.984L180.91 154.102C178.947 154.576 178.816 157.292 180.723 157.976C180.785 157.998 180.847 158.022 180.908 158.046C180.968 158.065 181.028 158.085 181.088 158.107C183.504 158.973 184.769 161.613 183.912 164.005L181.067 171.943C180.21 174.334 177.556 175.57 175.139 174.704C172.722 173.838 171.458 171.198 172.315 168.806C172.886 167.212 172.044 165.452 170.432 164.874L162.775 162.13C161.365 161.624 159.817 162.346 159.317 163.741C158.39 166.329 155.516 167.671 152.9 166.734L138.31 161.505C138.208 161.468 138.108 161.429 138.01 161.386C137.907 161.357 137.805 161.324 137.703 161.287C136.37 160.809 135.36 159.833 134.813 158.648C134.471 157.907 134.219 157.103 133.966 156.298C133.489 154.775 133.011 153.25 131.922 152.148L129.195 149.385C127.246 147.412 123.902 148.128 122.975 150.715C122.046 153.306 119.171 154.645 116.553 153.707C113.935 152.769 112.565 149.908 113.494 147.317L117.503 136.132C118.645 132.944 116.96 129.423 113.737 128.268C107.696 126.103 101.061 129.194 98.9185 135.172L97.2374 139.862C96.0232 143.25 92.2635 145.002 88.8399 143.775L42.4606 127.152C40.0852 126.301 38.8475 123.701 39.7007 121.354C39.7384 121.208 39.7831 121.063 39.835 120.918L49.2752 94.5782L75.1652 103.857C77.7833 104.796 79.153 107.656 78.2245 110.247C77.296 112.837 74.421 114.177 71.8029 113.239ZM135.344 141.417L128.988 134.98C128.82 134.81 128.765 134.561 128.844 134.338C128.959 134.017 129.316 133.851 129.64 133.967L138.173 137.026C139.581 137.53 140.317 139.068 139.818 140.461C139.151 142.322 136.745 142.836 135.344 141.417Z"/>
</mask>
<path fill-rule="evenodd" clip-rule="evenodd" d="M181.963 91.6534C182.091 91.6882 182.219 91.7284 182.347 91.7741L189.959 94.5022C195.021 96.3168 198.206 101.337 197.691 106.69C197.359 110.77 197.167 112.356 196.981 116.401L196.9 127.096C196.88 129.802 194.152 131.794 191.679 130.908L190.068 130.33C188.442 129.747 187.376 128.216 187.36 126.438L187.187 107.456C187.17 105.569 185.992 103.899 184.233 103.269C182.434 102.624 180.42 103.205 179.219 104.716L167.341 119.648C164.382 123.369 158.728 119.094 154.298 117.506L152.752 116.952C150.134 116.014 148.781 113.107 149.73 110.46L153.827 99.0287C154.995 95.7704 153.33 92.1929 150.108 91.0382C146.886 89.8835 143.328 91.5889 142.16 94.8473L138.063 106.278C137.114 108.926 134.223 110.311 131.605 109.373L116.292 103.885C116.138 103.829 115.988 103.767 115.842 103.699C114.792 103.203 113.982 102.373 113.493 101.383C112.498 99.3643 112.178 96.8547 110.616 95.2453L107.384 91.9155C105.589 90.0662 102.481 90.7628 101.604 93.211C100.655 95.8584 97.7636 97.244 95.1459 96.3059C92.5283 95.3677 91.1754 92.461 92.1242 89.8136L96.1206 78.6631C97.3439 75.2499 95.5997 71.5024 92.2249 70.2929L90.184 69.5614C89.9762 69.4869 89.7478 69.4935 89.5434 69.5798C88.8319 69.8804 88.7709 70.9762 89.282 71.5527C90.4713 72.8941 90.9084 74.8388 90.2554 76.6607C89.8074 77.9108 88.9263 78.8795 87.8454 79.4551C86.9234 79.9461 85.963 81.0554 85.7455 82.1181C85.6603 82.5344 85.6892 82.9436 85.8789 83.3056C85.9686 83.4767 86.0464 83.6503 86.1127 83.8258C86.6636 85.0028 86.7665 86.3954 86.2907 87.7228C85.3419 90.3703 82.4507 91.7559 79.833 90.8177L58.6865 83.2388C56.0689 82.3006 54.716 79.3939 55.6648 76.7465C56.6137 74.0991 59.5049 72.7134 62.1226 73.6516L70.2704 76.5718C70.9368 76.8106 71.5513 76.0949 71.221 75.4647C71.131 75.2931 70.9805 75.1619 70.799 75.0969L66.2971 73.4834C63.6795 72.5452 62.3266 69.6385 63.2754 66.9911C64.2243 64.3437 67.1155 62.958 69.7332 63.8962L74.4538 65.5881C74.639 65.6545 74.8425 65.6486 75.0246 65.5717C75.6925 65.2895 75.6729 64.3286 74.9943 64.0841L66.6021 61.0604C64.001 60.1232 62.6586 57.2327 63.602 54.6004C64.5465 51.9651 67.4246 50.5858 70.0304 51.5197L127.658 72.1734C127.944 72.276 128.215 72.4021 128.47 72.5488C130.544 73.744 131.525 76.3077 130.679 78.6657L125.206 93.9375C124.923 94.7262 125.111 95.6052 125.689 96.2009C125.917 96.4361 126.196 96.6156 126.504 96.7259L126.833 96.844C128.749 97.5305 130.865 96.5165 131.559 94.5791L136.513 80.7565C137.106 79.1018 138.458 77.9401 140.027 77.5305C140.341 77.4486 140.664 77.3968 140.991 77.3771C141.645 77.3378 142.316 77.4271 142.971 77.6616L163.859 85.1481C163.902 85.1636 163.945 85.1796 163.988 85.1961C164.031 85.2103 164.074 85.2251 164.117 85.2405C166.735 86.1787 168.088 89.0854 167.139 91.7328L161.3 108.025C161.094 108.599 161.387 109.228 161.954 109.431C162.384 109.585 162.865 109.453 163.16 109.099L177.354 92.0884C178.172 91.108 179.463 90.7457 180.629 91.1692L181.963 91.6534ZM107.709 77.676L113.724 83.8728C115.207 85.4008 117.775 84.8252 118.5 82.8023C119.042 81.2888 118.269 79.6271 116.772 79.0907L108.661 76.1835C108.194 76.0161 107.678 76.2633 107.508 76.7357C107.391 77.0633 107.469 77.4285 107.709 77.676Z" fill="#021F69"/>
<path fill-rule="evenodd" clip-rule="evenodd" d="M71.8029 113.239L56.1231 107.619C55.7203 107.474 55.278 107.681 55.1351 108.079C54.9923 108.478 55.203 108.918 55.6058 109.062L59.6169 110.5C62.235 111.438 63.6047 114.299 62.6762 116.889C61.7478 119.48 58.8727 120.819 56.2547 119.881L52.2435 118.443C51.8407 118.299 51.3984 118.505 51.2556 118.904C51.1127 119.302 51.3235 119.742 51.7263 119.887L82.7214 130.995C86.145 132.222 89.9046 130.471 91.1188 127.083L91.3774 126.362C92.4487 123.372 90.8683 120.072 87.8475 118.989L87.1181 118.728C84.5001 117.789 83.1304 114.928 84.0589 112.338C84.9873 109.747 87.8624 108.408 90.4804 109.346L148.824 130.257C151.442 131.195 152.812 134.056 151.883 136.646L146.926 150.478C146.497 151.676 146.797 153.016 147.699 153.929L147.783 154.015C148.083 154.319 148.449 154.552 148.852 154.697L148.965 154.737C150.375 155.242 151.923 154.521 152.423 153.126L157.595 138.693C158.524 136.103 161.399 134.763 164.017 135.702L165.141 136.105C167.138 136.82 168.183 139.003 167.475 140.979C166.451 143.834 169.053 146.691 172.023 145.974L182.641 143.411C185.336 142.76 188.169 144.376 188.969 147.019C189.77 149.663 188.234 152.334 185.539 152.984L180.91 154.102C178.947 154.576 178.816 157.292 180.723 157.976C180.785 157.998 180.847 158.022 180.908 158.046C180.968 158.065 181.028 158.085 181.088 158.107C183.504 158.973 184.769 161.613 183.912 164.005L181.067 171.943C180.21 174.334 177.556 175.57 175.139 174.704C172.722 173.838 171.458 171.198 172.315 168.806C172.886 167.212 172.044 165.452 170.432 164.874L162.775 162.13C161.365 161.624 159.817 162.346 159.317 163.741C158.39 166.329 155.516 167.671 152.9 166.734L138.31 161.505C138.208 161.468 138.108 161.429 138.01 161.386C137.907 161.357 137.805 161.324 137.703 161.287C136.37 160.809 135.36 159.833 134.813 158.648C134.471 157.907 134.219 157.103 133.966 156.298C133.489 154.775 133.011 153.25 131.922 152.148L129.195 149.385C127.246 147.412 123.902 148.128 122.975 150.715C122.046 153.306 119.171 154.645 116.553 153.707C113.935 152.769 112.565 149.908 113.494 147.317L117.503 136.132C118.645 132.944 116.96 129.423 113.737 128.268C107.696 126.103 101.061 129.194 98.9185 135.172L97.2374 139.862C96.0232 143.25 92.2635 145.002 88.8399 143.775L42.4606 127.152C40.0852 126.301 38.8475 123.701 39.7007 121.354C39.7384 121.208 39.7831 121.063 39.835 120.918L49.2752 94.5782L75.1652 103.857C77.7833 104.796 79.153 107.656 78.2245 110.247C77.296 112.837 74.421 114.177 71.8029 113.239ZM135.344 141.417L128.988 134.98C128.82 134.81 128.765 134.561 128.844 134.338C128.959 134.017 129.316 133.851 129.64 133.967L138.173 137.026C139.581 137.53 140.317 139.068 139.818 140.461C139.151 142.322 136.745 142.836 135.344 141.417Z" fill="#021F69"/>
<path fill-rule="evenodd" clip-rule="evenodd" d="M181.963 91.6534C182.091 91.6882 182.219 91.7284 182.347 91.7741L189.959 94.5022C195.021 96.3168 198.206 101.337 197.691 106.69C197.359 110.77 197.167 112.356 196.981 116.401L196.9 127.096C196.88 129.802 194.152 131.794 191.679 130.908L190.068 130.33C188.442 129.747 187.376 128.216 187.36 126.438L187.187 107.456C187.17 105.569 185.992 103.899 184.233 103.269C182.434 102.624 180.42 103.205 179.219 104.716L167.341 119.648C164.382 123.369 158.728 119.094 154.298 117.506L152.752 116.952C150.134 116.014 148.781 113.107 149.73 110.46L153.827 99.0287C154.995 95.7704 153.33 92.1929 150.108 91.0382C146.886 89.8835 143.328 91.5889 142.16 94.8473L138.063 106.278C137.114 108.926 134.223 110.311 131.605 109.373L116.292 103.885C116.138 103.829 115.988 103.767 115.842 103.699C114.792 103.203 113.982 102.373 113.493 101.383C112.498 99.3643 112.178 96.8547 110.616 95.2453L107.384 91.9155C105.589 90.0662 102.481 90.7628 101.604 93.211C100.655 95.8584 97.7636 97.244 95.1459 96.3059C92.5283 95.3677 91.1754 92.461 92.1242 89.8136L96.1206 78.6631C97.3439 75.2499 95.5997 71.5024 92.2249 70.2929L90.184 69.5614C89.9762 69.4869 89.7478 69.4935 89.5434 69.5798C88.8319 69.8804 88.7709 70.9762 89.282 71.5527C90.4713 72.8941 90.9084 74.8388 90.2554 76.6607C89.8074 77.9108 88.9263 78.8795 87.8454 79.4551C86.9234 79.9461 85.963 81.0554 85.7455 82.1181C85.6603 82.5344 85.6892 82.9436 85.8789 83.3056C85.9686 83.4767 86.0464 83.6503 86.1127 83.8258C86.6636 85.0028 86.7665 86.3954 86.2907 87.7228C85.3419 90.3703 82.4507 91.7559 79.833 90.8177L58.6865 83.2388C56.0689 82.3006 54.716 79.3939 55.6648 76.7465C56.6137 74.0991 59.5049 72.7134 62.1226 73.6516L70.2704 76.5718C70.9368 76.8106 71.5513 76.0949 71.221 75.4647C71.131 75.2931 70.9805 75.1619 70.799 75.0969L66.2971 73.4834C63.6795 72.5452 62.3266 69.6385 63.2754 66.9911C64.2243 64.3437 67.1155 62.958 69.7332 63.8962L74.4538 65.5881C74.639 65.6545 74.8425 65.6486 75.0246 65.5717C75.6925 65.2895 75.6729 64.3286 74.9943 64.0841L66.6021 61.0604C64.001 60.1232 62.6586 57.2327 63.602 54.6004C64.5465 51.9651 67.4246 50.5858 70.0304 51.5197L127.658 72.1734C127.944 72.276 128.215 72.4021 128.47 72.5488C130.544 73.744 131.525 76.3077 130.679 78.6657L125.206 93.9375C124.923 94.7262 125.111 95.6052 125.689 96.2009C125.917 96.4361 126.196 96.6156 126.504 96.7259L126.833 96.844C128.749 97.5305 130.865 96.5165 131.559 94.5791L136.513 80.7565C137.106 79.1018 138.458 77.9401 140.027 77.5305C140.341 77.4486 140.664 77.3968 140.991 77.3771C141.645 77.3378 142.316 77.4271 142.971 77.6616L163.859 85.1481C163.902 85.1636 163.945 85.1796 163.988 85.1961C164.031 85.2103 164.074 85.2251 164.117 85.2405C166.735 86.1787 168.088 89.0854 167.139 91.7328L161.3 108.025C161.094 108.599 161.387 109.228 161.954 109.431C162.384 109.585 162.865 109.453 163.16 109.099L177.354 92.0884C178.172 91.108 179.463 90.7457 180.629 91.1692L181.963 91.6534ZM107.709 77.676L113.724 83.8728C115.207 85.4008 117.775 84.8252 118.5 82.8023C119.042 81.2888 118.269 79.6271 116.772 79.0907L108.661 76.1835C108.194 76.0161 107.678 76.2633 107.508 76.7357C107.391 77.0633 107.469 77.4285 107.709 77.676Z" stroke="white" stroke-width="28.2158" stroke-linejoin="round" mask="url(#path-1-outside-1_132_6682)"/>
<path fill-rule="evenodd" clip-rule="evenodd" d="M71.8029 113.239L56.1231 107.619C55.7203 107.474 55.278 107.681 55.1351 108.079C54.9923 108.478 55.203 108.918 55.6058 109.062L59.6169 110.5C62.235 111.438 63.6047 114.299 62.6762 116.889C61.7478 119.48 58.8727 120.819 56.2547 119.881L52.2435 118.443C51.8407 118.299 51.3984 118.505 51.2556 118.904C51.1127 119.302 51.3235 119.742 51.7263 119.887L82.7214 130.995C86.145 132.222 89.9046 130.471 91.1188 127.083L91.3774 126.362C92.4487 123.372 90.8683 120.072 87.8475 118.989L87.1181 118.728C84.5001 117.789 83.1304 114.928 84.0589 112.338C84.9873 109.747 87.8624 108.408 90.4804 109.346L148.824 130.257C151.442 131.195 152.812 134.056 151.883 136.646L146.926 150.478C146.497 151.676 146.797 153.016 147.699 153.929L147.783 154.015C148.083 154.319 148.449 154.552 148.852 154.697L148.965 154.737C150.375 155.242 151.923 154.521 152.423 153.126L157.595 138.693C158.524 136.103 161.399 134.763 164.017 135.702L165.141 136.105C167.138 136.82 168.183 139.003 167.475 140.979C166.451 143.834 169.053 146.691 172.023 145.974L182.641 143.411C185.336 142.76 188.169 144.376 188.969 147.019C189.77 149.663 188.234 152.334 185.539 152.984L180.91 154.102C178.947 154.576 178.816 157.292 180.723 157.976C180.785 157.998 180.847 158.022 180.908 158.046C180.968 158.065 181.028 158.085 181.088 158.107C183.504 158.973 184.769 161.613 183.912 164.005L181.067 171.943C180.21 174.334 177.556 175.57 175.139 174.704C172.722 173.838 171.458 171.198 172.315 168.806C172.886 167.212 172.044 165.452 170.432 164.874L162.775 162.13C161.365 161.624 159.817 162.346 159.317 163.741C158.39 166.329 155.516 167.671 152.9 166.734L138.31 161.505C138.208 161.468 138.108 161.429 138.01 161.386C137.907 161.357 137.805 161.324 137.703 161.287C136.37 160.809 135.36 159.833 134.813 158.648C134.471 157.907 134.219 157.103 133.966 156.298C133.489 154.775 133.011 153.25 131.922 152.148L129.195 149.385C127.246 147.412 123.902 148.128 122.975 150.715C122.046 153.306 119.171 154.645 116.553 153.707C113.935 152.769 112.565 149.908 113.494 147.317L117.503 136.132C118.645 132.944 116.96 129.423 113.737 128.268C107.696 126.103 101.061 129.194 98.9185 135.172L97.2374 139.862C96.0232 143.25 92.2635 145.002 88.8399 143.775L42.4606 127.152C40.0852 126.301 38.8475 123.701 39.7007 121.354C39.7384 121.208 39.7831 121.063 39.835 120.918L49.2752 94.5782L75.1652 103.857C77.7833 104.796 79.153 107.656 78.2245 110.247C77.296 112.837 74.421 114.177 71.8029 113.239ZM135.344 141.417L128.988 134.98C128.82 134.81 128.765 134.561 128.844 134.338C128.959 134.017 129.316 133.851 129.64 133.967L138.173 137.026C139.581 137.53 140.317 139.068 139.818 140.461C139.151 142.322 136.745 142.836 135.344 141.417Z" stroke="white" stroke-width="28.2158" stroke-linejoin="round" mask="url(#path-1-outside-1_132_6682)"/>
</svg>
