<svg width="353" height="366" viewBox="0 0 353 366" fill="none" xmlns="http://www.w3.org/2000/svg">
<path d="M306.023 71.2493L227.84 47.7282C225.674 47.0766 223.574 46.2531 221.51 45.3274C191.119 31.6957 126.033 14.0664 85.2774 43.2582C32.5403 81.0319 144.459 74.9835 127.162 171.12C109.865 267.256 103.608 249.411 110.643 303.312C117.678 357.212 267.968 273.06 224.762 234.263C200.844 212.785 205.284 186.277 215.805 166.388C223.512 151.819 241.382 147.76 257.165 152.508L279.55 159.242C303.061 166.316 327.855 152.99 334.928 129.479L335.786 126.628C342.859 103.117 329.534 78.3227 306.023 71.2493Z" fill="#F08603"/>
<path d="M196.754 103.216L179.565 92.4131L188.392 78.5935C188.52 78.3901 188.463 78.1417 188.26 78.0138L182.666 74.498C182.462 74.3702 182.214 74.4269 182.086 74.6303L171.161 92.2393L160.16 109.517C160.032 109.72 160.089 109.969 160.292 110.097L165.886 113.613C166.09 113.74 166.338 113.684 166.466 113.48L176.656 97.0409L193.845 107.844L183.452 124.155C183.324 124.359 183.381 124.607 183.584 124.735L189.178 128.251C189.382 128.379 189.63 128.322 189.758 128.119L200.504 110.681L211.684 93.232C211.811 93.0286 211.755 92.7801 211.551 92.6523L205.957 89.1365C205.754 89.0086 205.505 89.0653 205.378 89.2688L196.754 103.216Z" fill="white"/>
</svg>
