<svg width="341" height="349" viewBox="0 0 341 349" fill="none" xmlns="http://www.w3.org/2000/svg">
<path d="M285.922 201.244C314.433 163.221 286.629 113.859 269.163 93.9306C130.42 -59.6011 15.9722 201.088 47.2087 228.764C78.4452 256.439 128.995 126.891 172.768 131.095C216.54 135.298 69.145 257.587 100.262 280.919C131.38 304.251 181.633 162.493 228.087 172.574C274.541 182.656 147.4 256.322 181.014 285.78C214.627 315.237 250.285 248.773 285.922 201.244Z" fill="#F08603"/>
<path d="M216.211 109.176L234.338 112.928C234.596 113.002 234.803 112.867 234.926 112.734L240.267 106.956C240.471 106.736 240.417 106.441 240.118 106.41L214.909 102.002L208.971 79.5797C208.916 79.2843 208.618 79.2535 208.414 79.474L203.44 84.855C203.317 84.9874 203.198 85.2046 203.293 85.4559L207.679 100.798L191.958 97.7175C191.7 97.6426 191.493 97.7783 191.371 97.9106L186.07 103.644C185.866 103.865 185.921 104.16 186.219 104.191L209.072 108.139L215.614 132.918C215.668 133.213 215.966 133.244 216.17 133.023L221.145 127.642C221.267 127.51 221.386 127.293 221.291 127.042L216.211 109.176Z" fill="white"/>
</svg>
