<svg width="381" height="392" viewBox="0 0 381 392" fill="none" xmlns="http://www.w3.org/2000/svg">
<path d="M42.4859 259.466L90.6071 299.888C92.6179 301.577 94.4458 303.438 96.1974 305.395C115.544 327.005 160.562 361.844 205.707 348.522C264.806 331.082 170.989 301.95 226.083 221.492C281.177 141.033 278.669 158.889 295.917 108.616C313.166 58.3434 154.765 87.0751 173.443 135.03C183.438 160.69 169.829 182.369 153.503 196.888C140.468 208.479 121.215 205.593 107.858 194.373L101.588 189.106C82.7877 173.314 54.7456 175.753 38.9538 194.553L37.0389 196.833C21.2472 215.633 23.6859 243.675 42.4859 259.466Z" fill="#F08603"/>
<path d="M159.911 235.799L142.832 244.575L137.798 241.411L146.574 227.559C146.702 227.356 146.645 227.107 146.442 226.979L140.899 223.496C140.695 223.368 140.447 223.424 140.319 223.628L129.618 240.881L118.393 258.515C118.265 258.718 118.322 258.966 118.525 259.094L124.069 262.578C124.272 262.706 124.521 262.649 124.648 262.446L134.857 246.089L139.873 249.171L139.62 263.909L139.383 271.848C139.357 272.116 139.529 272.294 139.681 272.39L146.343 276.577C146.598 276.737 146.878 276.63 146.853 276.33L146.762 249.385L166.427 240.107C166.707 239.999 166.682 239.7 166.428 239.54L160.529 235.833C160.376 235.737 160.141 235.66 159.911 235.799Z" fill="white"/>
</svg>
