<svg width="402" height="408" viewBox="0 0 402 408" fill="none" xmlns="http://www.w3.org/2000/svg">
<path d="M152.593 347.708C164.899 349.437 173.75 332.628 179.812 310.932C188.364 280.328 221.817 261.18 251.738 271.88C400.298 325.007 318.294 179.907 330.204 123.363C343.495 60.2655 248.27 109.549 205.714 138.853C163.159 168.158 128.199 76.974 79.3971 114.877C30.5955 152.78 43.7129 200.924 73.9664 232.706C104.22 264.488 146.133 187.257 131.718 238.601C117.304 289.944 121.866 343.392 152.593 347.708Z" fill="#F08603"/>
<path d="M271.517 163.609L262.862 166.319C262.632 166.391 262.514 166.617 262.511 166.807L260.95 210.472C260.907 210.738 261.151 210.913 261.438 210.823L267.743 208.849C267.972 208.777 268.108 208.609 268.094 208.362L268.199 196.433L283.905 191.516L290.908 201.219C291.037 201.43 291.245 201.491 291.474 201.419L297.951 199.391C298.238 199.302 298.281 199.036 298.094 198.843L272.083 163.81C271.972 163.656 271.746 163.538 271.517 163.609ZM280.312 186.473L268.217 190.259L268.382 169.878L280.312 186.473Z" fill="white"/>
</svg>
