<svg width="269" height="396" viewBox="0 0 269 396" fill="none" xmlns="http://www.w3.org/2000/svg">
<path d="M206.612 51.7732C207.557 62.8051 175.894 65.9111 159.945 66.0851C169.115 87.2688 173.419 102.156 174.213 112.458C180.945 110.75 184.843 110.684 197.514 112.101C221.975 114.838 189.431 188.066 170.488 167.767C155.334 151.527 137.534 163.874 130.528 172.077L138.138 193.408C148.558 184.029 159.027 178.963 164.294 181.421C174.212 186.051 166.951 199.655 159.154 214.262C151.786 228.064 143.941 242.761 149.663 251.626C155.466 260.618 163.398 244.865 172.027 227.726C180.91 210.085 190.532 190.977 199.331 195.877C207.751 200.566 200.032 213.537 191.57 227.756C182.6 242.83 172.795 259.305 180.502 268.8C187.824 277.818 192.446 266.425 197.666 253.557C203.126 240.1 209.24 225.031 219.779 230.011C231.595 235.595 229.66 246.6 223.428 259.336C227.064 258.51 230.477 258.993 233.423 261.124C242.393 267.615 224.063 293.618 213.776 305.809C295.274 331.311 268.026 350.95 242.456 369.38C233.656 375.723 225.054 381.922 221.153 388.168C205.915 412.563 190.54 367.274 185.921 344.695C185.096 340.664 183.162 337.943 180.519 336.036C178.935 335.667 177.191 335.155 175.31 334.604C163.797 331.224 147.185 326.349 131.094 343.63C120.809 354.675 115.085 361.616 111.097 366.451C103.558 375.591 102.226 377.205 88.0302 384.796C66.3243 396.402 51.6453 317.623 78.7559 323.616C99.6644 328.237 107.545 309.575 109.092 298.614C106.895 299.43 104.564 300.221 102.092 300.983C57.2144 314.822 56.3996 259.04 55.9839 230.583C55.8406 220.772 55.7448 214.209 53.907 214.866C52.1413 215.499 49.8347 217.853 47.0766 220.669C38.6372 229.285 25.9699 242.217 11.6344 223.322C-7.38637 198.251 22.9487 171.451 36.6132 166.559C42.9358 164.296 44.3351 168.77 45.8387 173.577C47.5847 179.16 49.4714 185.193 59.3708 181.649C69.2474 178.113 68.2107 174.646 66.8377 170.054C66.7945 169.909 66.7509 169.764 66.7074 169.617C33.0685 168.454 -2.85251 136.975 0.733429 124.75C3.8143 114.247 18.3581 119.373 33.9733 124.878C48.7287 130.08 64.4409 135.619 72.342 128.625C80.3558 121.532 63.5862 116.067 45.3422 110.121C26.5634 104.001 6.22254 97.3712 9.73923 87.9338C13.1047 78.9024 27.0921 84.5771 42.4243 90.7974C58.6786 97.3918 76.4442 104.599 84.6677 95.5481C92.479 86.9505 80.5187 84.0994 67.0109 80.8793C52.8843 77.5117 37.0652 73.7407 40.399 62.5713C45.819 44.4131 66.8643 53.115 88.0727 61.8843C92.384 63.6669 96.7019 65.4523 100.897 67.0154C104.653 68.4152 107.71 70.5644 110.181 73.2192C110.908 72.2281 111.619 71.2836 112.306 70.3938C118.998 61.7207 113.524 53.155 107.877 44.3181C101.644 34.5633 95.1988 24.478 104.675 13.553C122.734 -7.26875 143.861 -0.264435 157.287 13.9775C164.456 21.5825 157.7 29.9182 153.382 35.2469C149.613 39.8973 147.7 42.2574 158.519 39.8428C181.736 34.6613 205.431 37.9832 206.612 51.7732Z" fill="#021F69"/>
</svg>
