<svg width="409" height="364" viewBox="0 0 409 364" fill="none" xmlns="http://www.w3.org/2000/svg">
<path d="M23.04 182.314C33.6841 187.804 49.8352 157.416 56.5802 141.537C73.9886 159.435 87.1045 169.874 97.0813 174.912C92.5989 180.941 90.9269 184.812 87.1243 198.069C79.7837 223.661 166.429 221.281 153.931 193.973C143.933 172.127 163.614 159.411 174.705 155.783L192.903 172.183C179.231 178.74 169.851 187.123 170.139 193.404C170.684 205.231 187.281 203.573 205.102 201.792C221.941 200.11 239.872 198.319 246.381 207.694C252.984 217.202 233.96 218.645 213.264 220.215C191.962 221.831 168.887 223.581 170.162 234.4C171.383 244.754 187.536 242.377 205.243 239.772C224.014 237.011 244.531 233.993 250.852 245.613C256.855 256.65 243.556 256.58 228.536 256.499C212.828 256.416 195.238 256.322 195.877 268.914C196.593 283.032 208.396 285.631 223.702 284.645C221.378 287.941 220.455 291.554 221.373 295.378C224.169 307.023 257.727 299.404 274.157 294.138C266.087 386.153 296.954 366.993 325.921 349.012C335.89 342.824 345.634 336.776 353.488 335.447C384.164 330.258 345.204 296.222 324.524 282.299C320.833 279.814 318.908 276.759 318.09 273.33C318.374 271.594 318.58 269.638 318.803 267.53C320.167 254.624 322.134 236 346.047 227.027C361.331 221.291 370.631 218.425 377.109 216.429C389.357 212.655 391.52 211.988 404.96 200.917C425.51 183.99 352.769 136.854 347.593 166.437C343.601 189.252 321.69 189.445 310.09 186.477C311.812 184.616 313.562 182.609 315.343 180.451C347.673 141.269 292.219 117.473 263.93 105.333C254.176 101.148 247.652 98.3481 249.067 96.7811C250.427 95.2757 253.732 93.9389 257.684 92.3405C269.778 87.4496 287.931 80.1085 274.939 57.9864C257.701 28.6344 218.401 47.9322 207.878 59.5831C203.01 64.9741 206.908 68.2167 211.097 71.7012C215.961 75.7474 221.217 80.1197 213.594 88.5604C205.989 96.9815 202.948 94.5162 198.921 91.2513C198.795 91.1485 198.667 91.045 198.538 90.9409C211.234 56.8185 194.55 7.92396 180.846 6.47376C169.072 5.22783 168.207 21.8857 167.28 39.7708C166.403 56.6712 165.469 74.6673 155.22 79.6883C144.824 84.781 146.267 65.7575 147.837 45.0615C149.452 23.7587 151.202 0.683963 140.315 0.313037C129.895 -0.0419298 129.808 16.2852 129.713 34.1821C129.611 53.1553 129.501 73.8927 117.06 78.3882C105.243 82.6584 107.319 69.5219 109.664 54.6857C112.116 39.1699 114.862 21.7951 102.317 20.5278C81.9237 18.4675 81.9563 43.1006 81.9892 67.9246C81.9959 72.9708 82.0026 78.0249 81.8377 82.8643C81.69 87.1978 82.5803 91.1401 84.2174 94.7053C82.9264 95.0247 81.689 95.3464 80.5162 95.6665C69.0849 98.7862 62.7731 89.7828 56.2616 80.4945C49.0736 70.2412 41.6422 59.6407 26.8119 64.6168C-1.45298 74.1006 -3.15175 98.1159 5.56079 117.411C10.2131 127.714 21.3333 124.392 28.4419 122.268C34.6457 120.414 37.7942 119.473 30.9218 129.299C16.1748 150.384 9.73478 175.452 23.04 182.314Z" fill="#F08603"/>
</svg>
