<svg width="1439" height="998" viewBox="0 0 1439 998" fill="none" xmlns="http://www.w3.org/2000/svg">
<mask id="path-1-outside-1_508_968" maskUnits="userSpaceOnUse" x="0.429077" y="-0.012207" width="1454" height="998" fill="black">
<rect fill="white" x="0.429077" y="-0.012207" width="1454" height="998"/>
<path fill-rule="evenodd" clip-rule="evenodd" d="M1275.27 919.373L1179.7 915.016C1191.43 881.508 1208.79 814.214 1184.34 813.1C1176.9 812.761 1161.02 827.512 1140.39 846.671C1076.26 906.218 966.276 1008.34 921.558 832.304C888.587 702.506 1027.44 641.678 1118.52 601.779C1190.71 570.154 1232.89 551.678 1135.7 522.429C1037.83 492.975 959.072 585.562 887.391 676.739L922.439 725.071L830.441 836.009L795.52 786.085C769.578 811.29 743.895 828.3 717.797 830.193C716.952 848.351 713.669 865.989 701.855 873.687C627.049 922.43 594.166 910.456 550.949 894.719C529.773 887.008 506.116 878.393 473.83 875.575C375.652 867.005 430.932 810.567 461.012 796.38C470.478 791.916 476.761 782.927 483.435 773.379C497.968 752.587 514.353 729.146 569.497 744.005C586.478 748.581 601.095 750.626 613.544 750.941C515.407 624.371 469.902 702.615 430.473 770.414C409.838 805.896 284.044 901.432 260.063 900.339C190.352 897.161 140.253 787.648 197.479 743.834C197.561 742.085 304.465 677.407 304.547 675.634C304.62 674.057 67.3564 661.651 67.4291 660.055L84.5034 285.51C147.246 233.538 538.374 174.603 542.79 306.401C544.189 348.169 514.389 356.083 510.808 392.184L510.807 392.188C500.265 498.479 493.692 564.741 641.575 499.903C762.974 446.677 738.595 564.501 721.256 648.303C710.299 701.258 702.153 740.629 735.375 714.672C772.023 686.04 779.309 660.052 786.115 635.776C795.242 603.219 803.505 573.743 880.575 545.101C913.891 532.72 953.218 513.777 993.724 494.266C1116.79 434.987 1250.74 370.469 1259.98 468.844C1266.84 541.923 1198.98 579.937 1137.55 614.352C1089.07 641.512 1044.59 666.43 1044 704.574C1043.12 761.455 1062.11 784.499 1091.75 784.601C1076.49 752.04 1091.31 695.424 1119.37 664.172C1144.1 636.633 1168.96 612.388 1218.02 647.379C1240.09 663.118 1253.62 723.505 1253.06 769.464C1283.45 601.957 1314.38 332.081 1243.91 306.734C1184.91 285.512 1081.82 344.828 996.763 393.769C942.273 425.121 895.184 452.215 871.828 451.15C854.31 450.351 841.056 455.297 827.129 460.495C793.504 473.044 755.954 487.057 644.979 425.217C547.729 371.024 563.466 324.377 577.237 283.559C585.689 258.508 593.399 235.653 573.793 214.597C522.241 159.234 108.665 155.668 86.9492 231.858C87.6757 215.921 90.1334 164.164 90.589 152.014C91.4746 128.395 91.5494 130.947 93.6578 84.6953C188.29 71.5983 607.595 44.7809 636.221 102.841C651.973 134.79 639.829 172.115 628.689 206.356C614.523 249.897 601.979 288.453 650.477 304.629C660.966 308.127 673.677 310.95 687.989 313.02C687.498 312.566 687.015 312.103 686.541 311.632C684.678 310.399 684.362 303.458 684.143 298.674C684.077 297.226 684.02 295.975 683.932 295.141C683.178 288.006 680.544 281.378 677.892 274.707C675.091 267.66 672.271 260.565 671.628 252.773C670.259 236.185 672.138 217.823 677.895 202.408C680.534 195.344 687.044 183.75 694.469 183.283C699.117 182.991 700.335 192.44 701.01 197.674C701.114 198.483 701.205 199.191 701.294 199.747C701.858 203.273 702.393 206.788 702.927 210.294L702.929 210.302C704.732 222.148 706.519 233.888 709.347 245.576C712.797 259.835 719.577 275.634 733.223 278.019C743.241 279.77 752.856 278.183 760.886 270.29C774.002 257.399 767.914 244.171 761.457 230.14C760.455 227.963 759.444 225.767 758.495 223.551C757.598 221.455 756.676 219.338 755.745 217.203L755.742 217.197C745.347 193.34 733.923 167.123 744.561 140.544C749.303 128.697 765.003 95.2078 775.535 119.152C780.149 129.644 780.231 141.685 780.313 153.69C780.391 165.26 780.47 176.797 784.605 186.881C788.008 195.178 796.687 209.879 805.587 209.106C809.785 208.742 819.109 201.978 819.352 196.651C819.417 195.208 819.475 193.764 819.533 192.32C819.783 186.041 820.034 179.764 820.954 173.554C821.301 171.215 821.567 168.753 821.838 166.252C822.493 160.189 823.174 153.89 825.089 148.527C826.38 144.91 831.798 145.557 835.21 145.965C835.933 146.051 836.566 146.127 837.05 146.149C856.294 147.026 871.651 154.717 883.595 173.194C894.155 189.532 893.15 215.315 892.372 235.254L892.363 235.5C891.737 251.549 890.97 267.596 890.203 283.642L890.197 283.779L890.197 283.781C889.954 288.868 889.71 293.956 889.472 299.044C937.407 285.698 979.483 264.476 1002.96 233.799L966.529 181.718L1063.74 80.1073L1095.59 124.036C1134.54 106.847 1174.37 108.663 1191.83 109.459C1198.68 109.771 1210.15 108.943 1223.86 107.954C1272.67 104.432 1349.9 98.8605 1348.24 135.3C1347.42 153.393 1353.62 195.585 1361.33 248.048C1373.51 330.933 1389.46 439.456 1387.43 519.092C1385.86 580.376 1351.2 680.586 1320.63 768.957C1299.31 830.601 1279.98 886.484 1275.27 919.373ZM1131.97 774.35C1136.35 772.379 1140.82 770.145 1145.37 767.665C1162.64 758.258 1178.85 758.815 1193.09 764.597C1193.19 763.871 1193.29 763.147 1193.38 762.423L1193.4 762.277C1197.44 732.986 1201.21 705.609 1168.39 699.98C1144.89 695.949 1139.39 729.637 1134.42 760C1133.62 764.93 1132.83 769.772 1131.97 774.35Z"/>
</mask>
<path fill-rule="evenodd" clip-rule="evenodd" d="M1275.27 919.373L1179.7 915.016C1191.43 881.508 1208.79 814.214 1184.34 813.1C1176.9 812.761 1161.02 827.512 1140.39 846.671C1076.26 906.218 966.276 1008.34 921.558 832.304C888.587 702.506 1027.44 641.678 1118.52 601.779C1190.71 570.154 1232.89 551.678 1135.7 522.429C1037.83 492.975 959.072 585.562 887.391 676.739L922.439 725.071L830.441 836.009L795.52 786.085C769.578 811.29 743.895 828.3 717.797 830.193C716.952 848.351 713.669 865.989 701.855 873.687C627.049 922.43 594.166 910.456 550.949 894.719C529.773 887.008 506.116 878.393 473.83 875.575C375.652 867.005 430.932 810.567 461.012 796.38C470.478 791.916 476.761 782.927 483.435 773.379C497.968 752.587 514.353 729.146 569.497 744.005C586.478 748.581 601.095 750.626 613.544 750.941C515.407 624.371 469.902 702.615 430.473 770.414C409.838 805.896 284.044 901.432 260.063 900.339C190.352 897.161 140.253 787.648 197.479 743.834C197.561 742.085 304.465 677.407 304.547 675.634C304.62 674.057 67.3564 661.651 67.4291 660.055L84.5034 285.51C147.246 233.538 538.374 174.603 542.79 306.401C544.189 348.169 514.389 356.083 510.808 392.184L510.807 392.188C500.265 498.479 493.692 564.741 641.575 499.903C762.974 446.677 738.595 564.501 721.256 648.303C710.299 701.258 702.153 740.629 735.375 714.672C772.023 686.04 779.309 660.052 786.115 635.776C795.242 603.219 803.505 573.743 880.575 545.101C913.891 532.72 953.218 513.777 993.724 494.266C1116.79 434.987 1250.74 370.469 1259.98 468.844C1266.84 541.923 1198.98 579.937 1137.55 614.352C1089.07 641.512 1044.59 666.43 1044 704.574C1043.12 761.455 1062.11 784.499 1091.75 784.601C1076.49 752.04 1091.31 695.424 1119.37 664.172C1144.1 636.633 1168.96 612.388 1218.02 647.379C1240.09 663.118 1253.62 723.505 1253.06 769.464C1283.45 601.957 1314.38 332.081 1243.91 306.734C1184.91 285.512 1081.82 344.828 996.763 393.769C942.273 425.121 895.184 452.215 871.828 451.15C854.31 450.351 841.056 455.297 827.129 460.495C793.504 473.044 755.954 487.057 644.979 425.217C547.729 371.024 563.466 324.377 577.237 283.559C585.689 258.508 593.399 235.653 573.793 214.597C522.241 159.234 108.665 155.668 86.9492 231.858C87.6757 215.921 90.1334 164.164 90.589 152.014C91.4746 128.395 91.5494 130.947 93.6578 84.6953C188.29 71.5983 607.595 44.7809 636.221 102.841C651.973 134.79 639.829 172.115 628.689 206.356C614.523 249.897 601.979 288.453 650.477 304.629C660.966 308.127 673.677 310.95 687.989 313.02C687.498 312.566 687.015 312.103 686.541 311.632C684.678 310.399 684.362 303.458 684.143 298.674C684.077 297.226 684.02 295.975 683.932 295.141C683.178 288.006 680.544 281.378 677.892 274.707C675.091 267.66 672.271 260.565 671.628 252.773C670.259 236.185 672.138 217.823 677.895 202.408C680.534 195.344 687.044 183.75 694.469 183.283C699.117 182.991 700.335 192.44 701.01 197.674C701.114 198.483 701.205 199.191 701.294 199.747C701.858 203.273 702.393 206.788 702.927 210.294L702.929 210.302C704.732 222.148 706.519 233.888 709.347 245.576C712.797 259.835 719.577 275.634 733.223 278.019C743.241 279.77 752.856 278.183 760.886 270.29C774.002 257.399 767.914 244.171 761.457 230.14C760.455 227.963 759.444 225.767 758.495 223.551C757.598 221.455 756.676 219.338 755.745 217.203L755.742 217.197C745.347 193.34 733.923 167.123 744.561 140.544C749.303 128.697 765.003 95.2078 775.535 119.152C780.149 129.644 780.231 141.685 780.313 153.69C780.391 165.26 780.47 176.797 784.605 186.881C788.008 195.178 796.687 209.879 805.587 209.106C809.785 208.742 819.109 201.978 819.352 196.651C819.417 195.208 819.475 193.764 819.533 192.32C819.783 186.041 820.034 179.764 820.954 173.554C821.301 171.215 821.567 168.753 821.838 166.252C822.493 160.189 823.174 153.89 825.089 148.527C826.38 144.91 831.798 145.557 835.21 145.965C835.933 146.051 836.566 146.127 837.05 146.149C856.294 147.026 871.651 154.717 883.595 173.194C894.155 189.532 893.15 215.315 892.372 235.254L892.363 235.5C891.737 251.549 890.97 267.596 890.203 283.642L890.197 283.779L890.197 283.781C889.954 288.868 889.71 293.956 889.472 299.044C937.407 285.698 979.483 264.476 1002.96 233.799L966.529 181.718L1063.74 80.1073L1095.59 124.036C1134.54 106.847 1174.37 108.663 1191.83 109.459C1198.68 109.771 1210.15 108.943 1223.86 107.954C1272.67 104.432 1349.9 98.8605 1348.24 135.3C1347.42 153.393 1353.62 195.585 1361.33 248.048C1373.51 330.933 1389.46 439.456 1387.43 519.092C1385.86 580.376 1351.2 680.586 1320.63 768.957C1299.31 830.601 1279.98 886.484 1275.27 919.373ZM1131.97 774.35C1136.35 772.379 1140.82 770.145 1145.37 767.665C1162.64 758.258 1178.85 758.815 1193.09 764.597C1193.19 763.871 1193.29 763.147 1193.38 762.423L1193.4 762.277C1197.44 732.986 1201.21 705.609 1168.39 699.98C1144.89 695.949 1139.39 729.637 1134.42 760C1133.62 764.93 1132.83 769.772 1131.97 774.35Z" fill="#021F69"/>
<path fill-rule="evenodd" clip-rule="evenodd" d="M1275.27 919.373L1179.7 915.016C1191.43 881.508 1208.79 814.214 1184.34 813.1C1176.9 812.761 1161.02 827.512 1140.39 846.671C1076.26 906.218 966.276 1008.34 921.558 832.304C888.587 702.506 1027.44 641.678 1118.52 601.779C1190.71 570.154 1232.89 551.678 1135.7 522.429C1037.83 492.975 959.072 585.562 887.391 676.739L922.439 725.071L830.441 836.009L795.52 786.085C769.578 811.29 743.895 828.3 717.797 830.193C716.952 848.351 713.669 865.989 701.855 873.687C627.049 922.43 594.166 910.456 550.949 894.719C529.773 887.008 506.116 878.393 473.83 875.575C375.652 867.005 430.932 810.567 461.012 796.38C470.478 791.916 476.761 782.927 483.435 773.379C497.968 752.587 514.353 729.146 569.497 744.005C586.478 748.581 601.095 750.626 613.544 750.941C515.407 624.371 469.902 702.615 430.473 770.414C409.838 805.896 284.044 901.432 260.063 900.339C190.352 897.161 140.253 787.648 197.479 743.834C197.561 742.085 304.465 677.407 304.547 675.634C304.62 674.057 67.3564 661.651 67.4291 660.055L84.5034 285.51C147.246 233.538 538.374 174.603 542.79 306.401C544.189 348.169 514.389 356.083 510.808 392.184L510.807 392.188C500.265 498.479 493.692 564.741 641.575 499.903C762.974 446.677 738.595 564.501 721.256 648.303C710.299 701.258 702.153 740.629 735.375 714.672C772.023 686.04 779.309 660.052 786.115 635.776C795.242 603.219 803.505 573.743 880.575 545.101C913.891 532.72 953.218 513.777 993.724 494.266C1116.79 434.987 1250.74 370.469 1259.98 468.844C1266.84 541.923 1198.98 579.937 1137.55 614.352C1089.07 641.512 1044.59 666.43 1044 704.574C1043.12 761.455 1062.11 784.499 1091.75 784.601C1076.49 752.04 1091.31 695.424 1119.37 664.172C1144.1 636.633 1168.96 612.388 1218.02 647.379C1240.09 663.118 1253.62 723.505 1253.06 769.464C1283.45 601.957 1314.38 332.081 1243.91 306.734C1184.91 285.512 1081.82 344.828 996.763 393.769C942.273 425.121 895.184 452.215 871.828 451.15C854.31 450.351 841.056 455.297 827.129 460.495C793.504 473.044 755.954 487.057 644.979 425.217C547.729 371.024 563.466 324.377 577.237 283.559C585.689 258.508 593.399 235.653 573.793 214.597C522.241 159.234 108.665 155.668 86.9492 231.858C87.6757 215.921 90.1334 164.164 90.589 152.014C91.4746 128.395 91.5494 130.947 93.6578 84.6953C188.29 71.5983 607.595 44.7809 636.221 102.841C651.973 134.79 639.829 172.115 628.689 206.356C614.523 249.897 601.979 288.453 650.477 304.629C660.966 308.127 673.677 310.95 687.989 313.02C687.498 312.566 687.015 312.103 686.541 311.632C684.678 310.399 684.362 303.458 684.143 298.674C684.077 297.226 684.02 295.975 683.932 295.141C683.178 288.006 680.544 281.378 677.892 274.707C675.091 267.66 672.271 260.565 671.628 252.773C670.259 236.185 672.138 217.823 677.895 202.408C680.534 195.344 687.044 183.75 694.469 183.283C699.117 182.991 700.335 192.44 701.01 197.674C701.114 198.483 701.205 199.191 701.294 199.747C701.858 203.273 702.393 206.788 702.927 210.294L702.929 210.302C704.732 222.148 706.519 233.888 709.347 245.576C712.797 259.835 719.577 275.634 733.223 278.019C743.241 279.77 752.856 278.183 760.886 270.29C774.002 257.399 767.914 244.171 761.457 230.14C760.455 227.963 759.444 225.767 758.495 223.551C757.598 221.455 756.676 219.338 755.745 217.203L755.742 217.197C745.347 193.34 733.923 167.123 744.561 140.544C749.303 128.697 765.003 95.2078 775.535 119.152C780.149 129.644 780.231 141.685 780.313 153.69C780.391 165.26 780.47 176.797 784.605 186.881C788.008 195.178 796.687 209.879 805.587 209.106C809.785 208.742 819.109 201.978 819.352 196.651C819.417 195.208 819.475 193.764 819.533 192.32C819.783 186.041 820.034 179.764 820.954 173.554C821.301 171.215 821.567 168.753 821.838 166.252C822.493 160.189 823.174 153.89 825.089 148.527C826.38 144.91 831.798 145.557 835.21 145.965C835.933 146.051 836.566 146.127 837.05 146.149C856.294 147.026 871.651 154.717 883.595 173.194C894.155 189.532 893.15 215.315 892.372 235.254L892.363 235.5C891.737 251.549 890.97 267.596 890.203 283.642L890.197 283.779L890.197 283.781C889.954 288.868 889.71 293.956 889.472 299.044C937.407 285.698 979.483 264.476 1002.96 233.799L966.529 181.718L1063.74 80.1073L1095.59 124.036C1134.54 106.847 1174.37 108.663 1191.83 109.459C1198.68 109.771 1210.15 108.943 1223.86 107.954C1272.67 104.432 1349.9 98.8605 1348.24 135.3C1347.42 153.393 1353.62 195.585 1361.33 248.048C1373.51 330.933 1389.46 439.456 1387.43 519.092C1385.86 580.376 1351.2 680.586 1320.63 768.957C1299.31 830.601 1279.98 886.484 1275.27 919.373ZM1131.97 774.35C1136.35 772.379 1140.82 770.145 1145.37 767.665C1162.64 758.258 1178.85 758.815 1193.09 764.597C1193.19 763.871 1193.29 763.147 1193.38 762.423L1193.4 762.277C1197.44 732.986 1201.21 705.609 1168.39 699.98C1144.89 695.949 1139.39 729.637 1134.42 760C1133.62 764.93 1132.83 769.772 1131.97 774.35Z" stroke="#021F69" stroke-width="133.645" stroke-linejoin="round" mask="url(#path-1-outside-1_508_968)"/>
</svg>
