<svg width="295" height="164" viewBox="0 0 295 164" fill="none" xmlns="http://www.w3.org/2000/svg">
<mask id="path-1-outside-1_508_969" maskUnits="userSpaceOnUse" x="-0.946777" y="-0.936035" width="295" height="165" fill="black">
<rect fill="white" x="-0.946777" y="-0.936035" width="295" height="165"/>
<path d="M44.5946 34.4492L39.5394 58.1043L34.0662 81.3789C34.0052 81.6526 34.1647 81.9037 34.4385 81.9646L42.1714 83.6876C42.4451 83.7486 42.6961 83.5891 42.7571 83.3154L47.6829 59.9188L51.7158 42.1415L72.5878 46.7921C72.8615 46.8531 73.1126 46.6935 73.1736 46.4198L74.3629 41.082C74.4239 40.8083 74.2643 40.5572 73.9906 40.4962L45.1804 34.0769C44.9066 34.0159 44.6556 34.1755 44.5946 34.4492Z"/>
<path d="M75.8568 92.0552C87.0113 94.5406 94.8855 88.5374 97.3556 77.4513C99.841 66.2967 95.2299 57.6553 84.0753 55.1699C72.9892 52.6998 65.0466 58.6877 62.5612 69.8423C60.0759 80.9968 64.7707 89.5851 75.8568 92.0552ZM77.0918 86.5121C71.0698 85.1703 69.0193 80.1882 70.9101 71.7025C72.7855 63.2853 76.7345 59.4243 82.8403 60.713C88.7939 62.0395 90.7149 67.2802 88.8395 75.6974C86.9487 84.1831 83.1139 87.854 77.0918 86.5121Z"/>
<path d="M102.279 60.5906L101.181 65.5178C101.12 65.7915 101.279 66.0426 101.553 66.1035L112.981 68.6499L110.503 80.0935L106.478 97.5133C106.417 97.7871 106.577 98.0381 106.851 98.0991L114.241 99.7459C114.515 99.8069 114.766 99.6473 114.827 99.3736L118.578 81.8927L121.193 70.4797L132.621 73.0261C132.895 73.087 133.146 72.9275 133.207 72.6538L134.305 67.7266C134.366 67.4529 134.207 67.2018 133.933 67.1408L102.864 60.2183C102.591 60.1573 102.34 60.3169 102.279 60.5906Z"/>
<path d="M145.019 107.466C156.174 109.951 164.048 103.948 166.518 92.8617C169.004 81.7072 164.393 73.0657 153.238 70.5803C142.152 68.1102 134.209 74.0981 131.724 85.2527C129.238 96.4072 133.933 104.995 145.019 107.466ZM146.254 101.923C140.232 100.581 138.182 95.5986 140.073 87.1129C141.948 78.6957 145.897 74.8348 152.003 76.1234C157.957 77.45 159.878 82.6906 158.002 91.1078C156.111 99.5935 152.277 103.264 146.254 101.923Z"/>
<path d="M193.922 97.6747C198.599 97.6393 201.938 95.8694 202.884 91.6265C204.21 85.6729 199.756 81.8072 190.791 79.8097L175.531 76.4095C175.257 76.3485 175.006 76.508 174.945 76.7818L171.331 93.6467L167.306 111.067C167.245 111.34 167.405 111.591 167.678 111.652L183.076 115.083C188.619 116.318 198.268 117.175 200.205 108.484C201.242 103.831 199.502 100.355 193.907 97.7432L193.922 97.6747ZM189.435 85.2539C192.993 86.0468 195.068 88.0175 194.428 90.8917C193.757 93.9027 191.194 94.7682 187.567 93.9601L179.971 92.2676L181.907 83.5766L189.435 85.2539ZM178.781 97.6053L186.377 99.2979C190.141 100.136 192.87 102.397 192.077 105.955C191.284 109.514 188.196 110.478 184.09 109.563L176.563 107.886L178.781 97.6053Z"/>
<path d="M218.793 123.903C229.948 126.389 237.822 120.386 240.292 109.3C242.777 98.145 238.166 89.5036 227.012 87.0182C215.926 84.548 207.983 90.536 205.498 101.691C203.012 112.845 207.707 121.433 218.793 123.903ZM220.028 118.36C214.006 117.019 211.956 112.036 213.846 103.551C215.722 95.1335 219.671 91.2726 225.777 92.5613C231.73 93.8878 233.651 99.1285 231.776 107.546C229.885 116.031 226.05 119.702 220.028 118.36Z"/>
<path d="M259.653 81.8645L252.468 80.2635C252.194 80.2025 251.943 80.3621 251.882 80.6358L244.441 114.031C244.38 114.305 244.54 114.556 244.813 114.617L251.999 116.218C252.272 116.279 252.524 116.119 252.585 115.846L260.025 82.4503C260.086 82.1766 259.927 81.9255 259.653 81.8645ZM250.977 121.449L243.518 119.787C243.244 119.726 242.993 119.886 242.932 120.159L241.285 127.55C241.224 127.824 241.384 128.075 241.657 128.136L249.117 129.798C249.39 129.859 249.641 129.699 249.702 129.426L251.349 122.035C251.41 121.761 251.25 121.51 250.977 121.449Z"/>
</mask>
<path d="M44.5946 34.4492L39.5394 58.1043L34.0662 81.3789C34.0052 81.6526 34.1647 81.9037 34.4385 81.9646L42.1714 83.6876C42.4451 83.7486 42.6961 83.5891 42.7571 83.3154L47.6829 59.9188L51.7158 42.1415L72.5878 46.7921C72.8615 46.8531 73.1126 46.6935 73.1736 46.4198L74.3629 41.082C74.4239 40.8083 74.2643 40.5572 73.9906 40.4962L45.1804 34.0769C44.9066 34.0159 44.6556 34.1755 44.5946 34.4492Z" fill="white"/>
<path d="M75.8568 92.0552C87.0113 94.5406 94.8855 88.5374 97.3556 77.4513C99.841 66.2967 95.2299 57.6553 84.0753 55.1699C72.9892 52.6998 65.0466 58.6877 62.5612 69.8423C60.0759 80.9968 64.7707 89.5851 75.8568 92.0552ZM77.0918 86.5121C71.0698 85.1703 69.0193 80.1882 70.9101 71.7025C72.7855 63.2853 76.7345 59.4243 82.8403 60.713C88.7939 62.0395 90.7149 67.2802 88.8395 75.6974C86.9487 84.1831 83.1139 87.854 77.0918 86.5121Z" fill="white"/>
<path d="M102.279 60.5906L101.181 65.5178C101.12 65.7915 101.279 66.0426 101.553 66.1035L112.981 68.6499L110.503 80.0935L106.478 97.5133C106.417 97.7871 106.577 98.0381 106.851 98.0991L114.241 99.7459C114.515 99.8069 114.766 99.6473 114.827 99.3736L118.578 81.8927L121.193 70.4797L132.621 73.0261C132.895 73.087 133.146 72.9275 133.207 72.6538L134.305 67.7266C134.366 67.4529 134.207 67.2018 133.933 67.1408L102.864 60.2183C102.591 60.1573 102.34 60.3169 102.279 60.5906Z" fill="white"/>
<path d="M145.019 107.466C156.174 109.951 164.048 103.948 166.518 92.8617C169.004 81.7072 164.393 73.0657 153.238 70.5803C142.152 68.1102 134.209 74.0981 131.724 85.2527C129.238 96.4072 133.933 104.995 145.019 107.466ZM146.254 101.923C140.232 100.581 138.182 95.5986 140.073 87.1129C141.948 78.6957 145.897 74.8348 152.003 76.1234C157.957 77.45 159.878 82.6906 158.002 91.1078C156.111 99.5935 152.277 103.264 146.254 101.923Z" fill="white"/>
<path d="M193.922 97.6747C198.599 97.6393 201.938 95.8694 202.884 91.6265C204.21 85.6729 199.756 81.8072 190.791 79.8097L175.531 76.4095C175.257 76.3485 175.006 76.508 174.945 76.7818L171.331 93.6467L167.306 111.067C167.245 111.34 167.405 111.591 167.678 111.652L183.076 115.083C188.619 116.318 198.268 117.175 200.205 108.484C201.242 103.831 199.502 100.355 193.907 97.7432L193.922 97.6747ZM189.435 85.2539C192.993 86.0468 195.068 88.0175 194.428 90.8917C193.757 93.9027 191.194 94.7682 187.567 93.9601L179.971 92.2676L181.907 83.5766L189.435 85.2539ZM178.781 97.6053L186.377 99.2979C190.141 100.136 192.87 102.397 192.077 105.955C191.284 109.514 188.196 110.478 184.09 109.563L176.563 107.886L178.781 97.6053Z" fill="white"/>
<path d="M218.793 123.903C229.948 126.389 237.822 120.386 240.292 109.3C242.777 98.145 238.166 89.5036 227.012 87.0182C215.926 84.548 207.983 90.536 205.498 101.691C203.012 112.845 207.707 121.433 218.793 123.903ZM220.028 118.36C214.006 117.019 211.956 112.036 213.846 103.551C215.722 95.1335 219.671 91.2726 225.777 92.5613C231.73 93.8878 233.651 99.1285 231.776 107.546C229.885 116.031 226.05 119.702 220.028 118.36Z" fill="white"/>
<path d="M259.653 81.8645L252.468 80.2635C252.194 80.2025 251.943 80.3621 251.882 80.6358L244.441 114.031C244.38 114.305 244.54 114.556 244.813 114.617L251.999 116.218C252.272 116.279 252.524 116.119 252.585 115.846L260.025 82.4503C260.086 82.1766 259.927 81.9255 259.653 81.8645ZM250.977 121.449L243.518 119.787C243.244 119.726 242.993 119.886 242.932 120.159L241.285 127.55C241.224 127.824 241.384 128.075 241.657 128.136L249.117 129.798C249.39 129.859 249.641 129.699 249.702 129.426L251.349 122.035C251.41 121.761 251.25 121.51 250.977 121.449Z" fill="white"/>
<path d="M44.5946 34.4492L11.4084 27.0548C11.387 27.151 11.366 27.2473 11.3454 27.3437L44.5946 34.4492ZM39.5394 58.1043L72.6366 65.8874C72.6896 65.662 72.7403 65.4362 72.7886 65.2098L39.5394 58.1043ZM34.0662 81.3789L0.96899 73.5958C0.93856 73.7252 0.908886 73.8548 0.879978 73.9845L34.0662 81.3789ZM34.4385 81.9646L27.0441 115.151H27.0441L34.4385 81.9646ZM42.1714 83.6876L49.5657 50.5015H49.5657L42.1714 83.6876ZM42.7571 83.3154L75.9433 90.7097C75.9722 90.58 76.0004 90.45 76.0278 90.32L42.7571 83.3154ZM47.6829 59.9188L14.5254 52.3968C14.4864 52.569 14.4486 52.7414 14.4123 52.9142L47.6829 59.9188ZM51.7158 42.1415L59.1101 8.95529C40.8317 4.8826 22.7012 16.3569 18.5583 34.6195L51.7158 42.1415ZM72.5878 46.7921L79.9822 13.6059H79.9822L72.5878 46.7921ZM73.1736 46.4198L39.9874 39.0254L39.9874 39.0254L73.1736 46.4198ZM74.3629 41.082L107.549 48.4764V48.4764L74.3629 41.082ZM73.9906 40.4962L66.5962 73.6824L73.9906 40.4962ZM45.1804 34.0769L52.5747 0.890717L45.1804 34.0769ZM75.8568 92.0552L68.4624 125.241L75.8568 92.0552ZM97.3556 77.4513L64.1694 70.0569L97.3556 77.4513ZM84.0753 55.1699L76.681 88.3561L84.0753 55.1699ZM62.5612 69.8423L95.7474 77.2366L62.5612 69.8423ZM77.0918 86.5121L69.6975 119.698L77.0918 86.5121ZM70.9101 71.7025L37.7239 64.3081L70.9101 71.7025ZM82.8403 60.713L90.2346 27.5268C90.1104 27.4991 89.9859 27.4721 89.8613 27.4458L82.8403 60.713ZM88.8395 75.6974L55.6533 68.3031L88.8395 75.6974ZM102.279 60.5906L69.0924 53.1963L69.0923 53.1963L102.279 60.5906ZM101.181 65.5178L134.367 72.9121V72.9121L101.181 65.5178ZM101.553 66.1035L108.947 32.9174V32.9174L101.553 66.1035ZM112.981 68.6499L146.211 75.8454C150.168 57.5707 138.626 39.5303 120.376 35.4637L112.981 68.6499ZM110.503 80.0935L143.631 87.7479C143.666 87.5951 143.7 87.4422 143.733 87.289L110.503 80.0935ZM106.478 97.5133L73.3511 89.8589C73.3311 89.9455 73.3114 90.0322 73.2921 90.119L106.478 97.5133ZM106.851 98.0991L99.4562 131.285H99.4562L106.851 98.0991ZM114.241 99.7459L121.636 66.5597L121.636 66.5597L114.241 99.7459ZM114.827 99.3736L148.013 106.768C148.033 106.681 148.052 106.594 148.07 106.507L114.827 99.3736ZM118.578 81.8927L85.4371 74.2998C85.4021 74.4526 85.3681 74.6056 85.3352 74.7588L118.578 81.8927ZM121.193 70.4797L128.588 37.2935C110.337 33.227 92.2276 44.6607 88.0519 62.8867L121.193 70.4797ZM132.621 73.0261L125.227 106.212L132.621 73.0261ZM133.207 72.6538L166.393 80.0481V80.0481L133.207 72.6538ZM134.305 67.7266L101.119 60.3322V60.3323L134.305 67.7266ZM133.933 67.1408L141.327 33.9546V33.9546L133.933 67.1408ZM102.864 60.2183L95.4699 93.4045H95.4699L102.864 60.2183ZM145.019 107.466L137.625 140.652L145.019 107.466ZM166.518 92.8617L133.332 85.4673L166.518 92.8617ZM153.238 70.5803L145.844 103.767L153.238 70.5803ZM131.724 85.2527L164.91 92.647L131.724 85.2527ZM146.254 101.923L138.86 135.109L146.254 101.923ZM140.073 87.1129L106.886 79.7186L140.073 87.1129ZM152.003 76.1234L159.397 42.9372C159.273 42.9095 159.149 42.8825 159.024 42.8562L152.003 76.1234ZM158.002 91.1078L124.816 83.7135L158.002 91.1078ZM193.922 97.6747L193.665 63.6757C177.835 63.7955 164.182 74.8245 160.737 90.2756L193.922 97.6747ZM202.884 91.6265L236.07 99.0209L202.884 91.6265ZM190.791 79.8097L198.186 46.6235L190.791 79.8097ZM175.531 76.4095L168.137 109.596L175.531 76.4095ZM174.945 76.7818L141.759 69.3874C141.739 69.4774 141.719 69.5674 141.7 69.6575L174.945 76.7818ZM171.331 93.6467L204.458 101.301C204.499 101.125 204.538 100.948 204.576 100.771L171.331 93.6467ZM167.306 111.067L134.179 103.412C134.159 103.499 134.139 103.586 134.12 103.672L167.306 111.067ZM167.678 111.652L175.073 78.4662L167.678 111.652ZM183.076 115.083L175.681 148.269V148.269L183.076 115.083ZM200.205 108.484L233.391 115.879L200.205 108.484ZM193.907 97.7432L160.722 90.344C157.25 105.915 165.071 121.806 179.527 128.553L193.907 97.7432ZM189.435 85.2539L182.04 118.44L182.04 118.44L189.435 85.2539ZM194.428 90.8917L227.614 98.2861L194.428 90.8917ZM187.567 93.9601L180.172 127.146L187.567 93.9601ZM179.971 92.2676L146.784 84.8732C144.823 93.6747 146.439 102.895 151.276 110.505C156.113 118.115 163.775 123.493 172.576 125.454L179.971 92.2676ZM181.907 83.5766L189.301 50.3904C170.973 46.3066 152.805 57.854 148.721 76.1822L181.907 83.5766ZM178.781 97.6053L186.176 64.4192C177.336 62.4495 168.075 64.0881 160.448 68.9715C152.821 73.8549 147.457 81.5796 145.547 90.4324L178.781 97.6053ZM186.377 99.2979L193.772 66.1117L193.772 66.1117L186.377 99.2979ZM192.077 105.955L158.891 98.5607L192.077 105.955ZM184.09 109.563L176.696 142.749L176.696 142.749L184.09 109.563ZM176.563 107.886L143.328 100.713C139.385 118.981 150.926 137.007 169.168 141.072L176.563 107.886ZM218.793 123.903L211.399 157.09L218.793 123.903ZM240.292 109.3L207.106 101.905L240.292 109.3ZM227.012 87.0182L219.617 120.204L227.012 87.0182ZM205.498 101.691L238.684 109.085L205.498 101.691ZM220.028 118.36L212.634 151.547L220.028 118.36ZM213.846 103.551L180.66 96.1564L213.846 103.551ZM225.777 92.5613L233.171 59.3751C233.047 59.3474 232.922 59.3204 232.798 59.2941L225.777 92.5613ZM231.776 107.546L198.59 100.151L231.776 107.546ZM259.653 81.8645L252.259 115.051L259.653 81.8645ZM252.468 80.2635L259.862 47.0773V47.0773L252.468 80.2635ZM251.882 80.6358L218.696 73.2414V73.2414L251.882 80.6358ZM244.441 114.031L277.627 121.425V121.425L244.441 114.031ZM244.813 114.617L252.208 81.4306L244.813 114.617ZM251.999 116.218L244.604 149.404L251.999 116.218ZM252.585 115.846L285.771 123.24V123.24L252.585 115.846ZM260.025 82.4503L226.839 75.0559V75.0559L260.025 82.4503ZM250.977 121.449L243.582 154.635L250.977 121.449ZM243.518 119.787L250.912 86.601L243.518 119.787ZM242.932 120.159L276.118 127.554V127.554L242.932 120.159ZM241.285 127.55L208.099 120.156V120.156L241.285 127.55ZM241.657 128.136L234.263 161.322H234.263L241.657 128.136ZM249.117 129.798L256.511 96.6118L256.511 96.6118L249.117 129.798ZM249.702 129.426L282.888 136.82L282.889 136.82L249.702 129.426ZM251.349 122.035L218.163 114.641L218.163 114.641L251.349 122.035ZM11.3454 27.3437L6.29017 50.9988L72.7886 65.2098L77.8438 41.5547L11.3454 27.3437ZM6.44223 50.3212L0.96899 73.5958L67.1633 89.162L72.6366 65.8874L6.44223 50.3212ZM0.879978 73.9845C-3.26485 92.5867 8.44232 111.006 27.0441 115.151L41.8328 48.7785C59.8871 52.8012 71.2752 70.7186 67.2524 88.7732L0.879978 73.9845ZM27.0441 115.151L34.777 116.874L49.5657 50.5015L41.8328 48.7785L27.0441 115.151ZM34.777 116.874C53.3786 121.019 71.7985 109.312 75.9433 90.7097L9.57095 75.921C13.5938 57.8661 31.5117 46.4787 49.5657 50.5015L34.777 116.874ZM76.0278 90.32L80.9536 66.9234L14.4123 52.9142L9.4865 76.3108L76.0278 90.32ZM80.8404 67.4407L84.8733 49.6634L18.5583 34.6195L14.5254 52.3968L80.8404 67.4407ZM44.3214 75.3277L65.1934 79.9783L79.9822 13.6059L59.1101 8.95529L44.3214 75.3277ZM65.1934 79.9783C83.7953 84.123 102.215 72.4162 106.36 53.8141L39.9874 39.0254C44.0102 20.9708 61.9278 9.58309 79.9822 13.6059L65.1934 79.9783ZM106.36 53.8141L107.549 48.4764L41.1767 33.6876L39.9874 39.0254L106.36 53.8141ZM107.549 48.4764C111.694 29.8745 99.987 11.4549 81.385 7.31005L66.5962 73.6824C48.5416 69.6596 37.1539 51.7421 41.1767 33.6876L107.549 48.4764ZM81.385 7.31005L52.5747 0.890717L37.786 67.2631L66.5962 73.6824L81.385 7.31005ZM52.5747 0.890717C33.9726 -3.2541 15.5532 8.45305 11.4084 27.0548L77.7808 41.8436C73.758 59.8979 55.8407 71.2859 37.786 67.2631L52.5747 0.890717ZM68.4624 125.241C81.7144 128.194 96.6092 126.642 109.39 117.676C121.696 109.042 127.967 96.3999 130.542 84.8456L64.1694 70.0569C64.2737 69.5888 65.3725 65.4913 70.3359 62.0092C75.7732 58.1945 81.1536 58.4017 83.2511 58.869L68.4624 125.241ZM130.542 84.8456C133.115 73.2951 132.836 59.1278 125.26 46.0325C117.413 32.4703 104.535 24.8949 91.4697 21.9837L76.681 88.3561C74.7702 87.9304 69.7753 85.9183 66.4013 80.0869C63.2974 74.7222 64.0812 70.4529 64.1694 70.0569L130.542 84.8456ZM91.4697 21.9837C78.201 19.0273 63.3223 20.6165 50.5696 29.561C38.2777 38.1822 31.9666 50.8171 29.3751 62.4479L95.7474 77.2366C95.6413 77.7129 94.5442 81.7765 89.6165 85.2327C84.2279 89.0121 78.8635 88.8424 76.681 88.3561L91.4697 21.9837ZM29.3751 62.4479C26.7799 74.0948 27.1287 88.2865 34.7607 101.353C42.6346 114.834 55.4783 122.348 68.4624 125.241L83.2511 58.869C85.1491 59.2919 90.1024 61.277 93.4786 67.0574C96.6131 72.4239 95.8572 76.7442 95.7474 77.2366L29.3751 62.4479ZM84.4862 53.326C86.9374 53.8721 90.5582 55.1485 94.2457 58.0281C98.0767 61.0198 100.806 64.8338 102.426 68.7288C105.299 75.635 103.804 80.4082 104.096 79.0969L37.7239 64.3081C36.1253 71.4824 34.7103 82.9896 39.6409 94.8438C45.5806 109.124 57.6887 117.023 69.6975 119.698L84.4862 53.326ZM104.096 79.0969C104.387 77.7909 103.759 82.4937 98.5126 87.4006C95.5434 90.1774 91.5716 92.5307 86.8542 93.7016C82.2833 94.8361 78.3919 94.5231 75.8192 93.9801L89.8613 27.4458C77.4284 24.8218 63.1931 27.3283 52.065 37.7355C42.8484 46.355 39.3083 57.1969 37.7239 64.3081L104.096 79.0969ZM75.4459 93.8992C72.6336 93.2725 68.7846 91.8263 65.0071 88.7318C61.1377 85.5621 58.5742 81.6657 57.1167 77.9439C54.5506 71.3909 55.9423 67.006 55.6533 68.3031L122.026 83.0918C123.612 75.9716 124.981 64.7578 120.435 53.1485C114.915 39.0523 103.126 30.3992 90.2346 27.5268L75.4459 93.8992ZM55.6533 68.3031C55.3049 69.8664 55.9157 64.9544 61.3657 59.888C64.4847 56.9886 68.6285 54.6009 73.4849 53.4691C78.149 52.3821 82.04 52.7809 84.4862 53.326L69.6975 119.698C81.7781 122.39 96.2194 120.331 107.664 109.692C117.01 101.004 120.483 90.0141 122.026 83.0918L55.6533 68.3031ZM69.0923 53.1963L67.9945 58.1234L134.367 72.9121L135.465 67.985L69.0923 53.1963ZM67.9945 58.1234C63.8498 76.7251 75.5564 95.1449 94.1586 99.2897L108.947 32.9174C127.002 36.9402 138.39 54.858 134.367 72.9121L67.9945 58.1234ZM94.1586 99.2897L105.587 101.836L120.376 35.4637L108.947 32.9174L94.1586 99.2897ZM79.7514 61.4544L77.2734 72.8979L143.733 87.289L146.211 75.8454L79.7514 61.4544ZM77.3761 72.439L73.3511 89.8589L139.605 105.168L143.631 87.7479L77.3761 72.439ZM73.2921 90.119C69.1474 108.72 80.8537 127.14 99.4562 131.285L114.245 64.9129C132.3 68.9358 143.687 86.8537 139.664 104.908L73.2921 90.119ZM99.4562 131.285L106.847 132.932L121.636 66.5597L114.245 64.9129L99.4562 131.285ZM106.847 132.932C125.448 137.077 143.868 125.371 148.013 106.768L81.6409 91.9792C85.6639 73.9239 103.582 62.537 121.636 66.5597L106.847 132.932ZM148.07 106.507L151.822 89.0266L85.3352 74.7588L81.5839 92.2397L148.07 106.507ZM151.72 89.4856L154.335 78.0726L88.0519 62.8867L85.4371 74.2998L151.72 89.4856ZM113.799 103.666L125.227 106.212L140.016 39.8399L128.588 37.2935L113.799 103.666ZM125.227 106.212C143.829 110.357 162.249 98.6505 166.393 80.0481L100.021 65.2594C104.044 47.2045 121.962 35.8172 140.016 39.8399L125.227 106.212ZM166.393 80.0481L167.491 75.1209L101.119 60.3323L100.021 65.2594L166.393 80.0481ZM167.491 75.121C171.636 56.5194 159.93 38.0995 141.327 33.9546L126.538 100.327C108.484 96.3041 97.0962 78.3864 101.119 60.3322L167.491 75.121ZM141.327 33.9546L110.259 27.0321L95.4699 93.4045L126.538 100.327L141.327 33.9546ZM110.259 27.0321C91.6563 22.8873 73.237 34.5947 69.0924 53.1963L135.465 67.985C131.442 86.0391 113.525 97.4274 95.4699 93.4045L110.259 27.0321ZM137.625 140.652C150.877 143.605 165.772 142.053 178.552 133.086C190.859 124.452 197.13 111.81 199.704 100.256L133.332 85.4673C133.436 84.9992 134.535 80.9017 139.498 77.4196C144.936 73.6049 150.316 73.8121 152.414 74.2794L137.625 140.652ZM199.704 100.256C202.278 88.7055 201.999 74.5383 194.422 61.4429C186.575 47.8808 173.698 40.3053 160.632 37.3941L145.844 103.767C143.933 103.341 138.938 101.329 135.564 95.4973C132.46 90.1326 133.244 85.8633 133.332 85.4673L199.704 100.256ZM160.632 37.3941C147.364 34.4377 132.485 36.0269 119.732 44.9714C107.44 53.5927 101.129 66.2275 98.5377 77.8583L164.91 92.647C164.804 93.1233 163.707 97.1869 158.779 100.643C153.39 104.423 148.026 104.253 145.844 103.767L160.632 37.3941ZM98.5377 77.8583C95.9425 89.5053 96.2913 103.697 103.923 116.764C111.797 130.244 124.641 137.759 137.625 140.652L152.414 74.2794C154.312 74.7023 159.265 76.6874 162.641 82.4679C165.776 87.8343 165.02 92.1547 164.91 92.647L98.5377 77.8583ZM153.649 68.7364C156.1 69.2825 159.721 70.5589 163.408 73.4385C167.239 76.4302 169.969 80.2442 171.589 84.1392C174.462 91.0454 172.967 95.8187 173.259 94.5073L106.886 79.7186C105.288 86.8928 103.873 98.4 108.804 110.254C114.743 124.534 126.851 132.433 138.86 135.109L153.649 68.7364ZM173.259 94.5073C173.55 93.2013 172.922 97.9041 167.675 102.811C164.706 105.588 160.734 107.941 156.017 109.112C151.446 110.246 147.554 109.934 144.982 109.391L159.024 42.8562C146.591 40.2322 132.356 42.7388 121.228 53.1459C112.011 61.7654 108.471 72.6073 106.886 79.7186L173.259 94.5073ZM144.609 109.31C141.796 108.683 137.947 107.237 134.17 104.142C130.3 100.972 127.737 97.0761 126.279 93.3543C123.713 86.8013 125.105 82.4164 124.816 83.7135L191.188 98.5022C192.775 91.382 194.144 80.1682 189.597 68.5589C184.077 54.4627 172.289 45.8096 159.397 42.9372L144.609 109.31ZM124.816 83.7135C124.468 85.2768 125.078 80.3648 130.528 75.2985C133.647 72.399 137.791 70.0114 142.648 68.8795C147.312 67.7925 151.203 68.1913 153.649 68.7364L138.86 135.109C150.941 137.8 165.382 135.742 176.827 125.103C186.172 116.415 189.646 105.425 191.188 98.5022L124.816 83.7135ZM194.179 131.674C200.29 131.628 209.286 130.487 218.04 124.923C227.782 118.731 233.795 109.231 236.07 99.0209L169.697 84.2322C171.027 78.2645 174.897 71.7712 181.565 67.5336C187.243 63.9248 192.231 63.6865 193.665 63.6757L194.179 131.674ZM236.07 99.0209C239.292 84.5608 234.969 69.8725 224.086 59.5573C215.446 51.3692 205.004 48.1427 198.186 46.6235L183.397 112.996C185.544 113.474 181.811 113.179 177.308 108.912C174.65 106.393 171.825 102.548 170.262 97.3639C168.706 92.2018 168.957 87.557 169.697 84.2322L236.07 99.0209ZM198.186 46.6235L182.925 43.2233L168.137 109.596L183.397 112.996L198.186 46.6235ZM182.925 43.2233C164.324 39.0786 145.904 50.7851 141.759 69.3874L208.131 84.1761C204.108 102.231 186.191 113.618 168.137 109.596L182.925 43.2233ZM141.7 69.6575L138.086 86.5224L204.576 100.771L208.19 83.9061L141.7 69.6575ZM138.204 85.9923L134.179 103.412L200.433 118.721L204.458 101.301L138.204 85.9923ZM134.12 103.672C129.975 122.275 141.683 140.694 160.284 144.839L175.073 78.4662C193.126 82.4889 204.515 100.406 200.492 118.461L134.12 103.672ZM160.284 144.839L175.681 148.269L190.47 81.897L175.073 78.4662L160.284 144.839ZM175.681 148.269C179.862 149.201 189.481 151.032 200.121 148.751C205.914 147.508 213.327 144.766 220.072 138.774C227.136 132.499 231.493 124.4 233.391 115.879L167.019 101.09C167.949 96.9145 170.373 91.9673 174.91 87.9369C179.128 84.1905 183.419 82.786 185.865 82.2616C189.81 81.4157 191.832 82.2005 190.47 81.897L175.681 148.269ZM233.391 115.879C235.23 107.625 235.307 96.5224 229.141 85.6155C223.388 75.4404 214.694 69.9241 208.286 66.9336L179.527 128.553C178.715 128.174 173.688 125.701 169.945 119.081C165.789 111.728 166.217 104.69 167.019 101.09L233.391 115.879ZM227.092 105.142L227.107 105.074L160.737 90.2756L160.722 90.344L227.092 105.142ZM182.04 118.44C180.068 118.001 174.113 116.372 168.596 110.433C165.615 107.224 162.965 102.924 161.562 97.6558C160.164 92.4019 160.352 87.4895 161.242 83.4973L227.614 98.2861C230.317 86.1556 227.071 73.4684 218.416 64.1519C211.132 56.3108 202.36 53.3001 196.829 52.0677L182.04 118.44ZM161.242 83.4973C162.005 80.0708 163.656 75.7604 166.974 71.5891C170.37 67.3209 174.635 64.3076 179.009 62.4818C187.007 59.1432 193.469 60.4415 194.961 60.7739L180.172 127.146C185.291 128.287 194.848 129.556 205.203 125.234C217.74 120.001 225.164 109.281 227.614 98.2861L161.242 83.4973ZM194.961 60.7739L187.365 59.0814L172.576 125.454L180.172 127.146L194.961 60.7739ZM213.157 99.662L215.093 90.971L148.721 76.1822L146.784 84.8732L213.157 99.662ZM174.513 116.763L182.04 118.44L196.829 52.0677L189.301 50.3904L174.513 116.763ZM171.387 130.792L178.983 132.484L193.772 66.1117L186.176 64.4192L171.387 130.792ZM178.983 132.484C176.945 132.03 171.43 130.466 166.227 124.961C163.402 121.973 160.756 117.864 159.31 112.7C157.855 107.505 157.993 102.591 158.891 98.5607L225.263 113.349C228.16 100.347 224.312 87.4213 215.645 78.2517C208.335 70.5174 199.574 67.4044 193.772 66.1117L178.983 132.484ZM158.891 98.5607C159.651 95.1474 161.309 90.8907 164.611 86.7985C167.974 82.6304 172.154 79.7423 176.353 78.0089C184.025 74.8416 190.133 76.0754 191.485 76.3766L176.696 142.749C182.154 143.965 191.858 145.174 202.299 140.864C214.882 135.67 222.685 124.923 225.263 113.349L158.891 98.5607ZM191.485 76.3766L183.957 74.6993L169.168 141.072L176.696 142.749L191.485 76.3766ZM209.797 115.058L212.016 104.778L145.547 90.4324L143.328 100.713L209.797 115.058ZM211.399 157.09C224.651 160.042 239.546 158.491 252.326 149.524C264.633 140.89 270.904 128.248 273.478 116.694L207.106 101.905C207.21 101.437 208.309 97.3396 213.272 93.8575C218.71 90.0428 224.09 90.2499 226.188 90.7173L211.399 157.09ZM273.478 116.694C276.052 105.143 275.773 90.9761 268.196 77.8807C260.349 64.3186 247.471 56.7431 234.406 53.832L219.617 120.204C217.707 119.779 212.712 117.767 209.338 111.935C206.234 106.57 207.018 102.301 207.106 101.905L273.478 116.694ZM234.406 53.832C221.137 50.8755 206.259 52.4647 193.506 61.4093C181.214 70.0305 174.903 82.6654 172.311 94.2962L238.684 109.085C238.578 109.561 237.481 113.625 232.553 117.081C227.164 120.86 221.8 120.691 219.617 120.204L234.406 53.832ZM172.311 94.2962C169.716 105.943 170.065 120.135 177.697 133.202C185.571 146.682 198.415 154.197 211.399 157.09L226.188 90.7173C228.085 91.1402 233.039 93.1253 236.415 98.9057C239.549 104.272 238.794 108.593 238.684 109.085L172.311 94.2962ZM227.423 85.1742C229.874 85.7204 233.495 86.9968 237.182 89.8764C241.013 92.8681 243.743 96.6821 245.363 100.577C248.235 107.483 246.74 112.257 247.033 110.945L180.66 96.1564C179.062 103.331 177.647 114.838 182.577 126.692C188.517 140.972 200.625 148.871 212.634 151.547L227.423 85.1742ZM247.033 110.945C247.324 109.639 246.696 114.342 241.449 119.249C238.48 122.026 234.508 124.379 229.791 125.55C225.22 126.684 221.328 126.371 218.756 125.828L232.798 59.2941C220.365 56.6701 206.13 59.1766 195.001 69.5837C185.785 78.2033 182.245 89.0452 180.66 96.1564L247.033 110.945ZM218.382 125.747C215.57 125.121 211.721 123.675 207.944 120.58C204.074 117.41 201.511 113.514 200.053 109.792C197.487 103.239 198.879 98.8543 198.59 100.151L264.962 114.94C266.549 107.82 267.917 96.6061 263.371 84.9967C257.851 70.9006 246.063 62.2475 233.171 59.3751L218.382 125.747ZM198.59 100.151C198.241 101.715 198.852 96.8027 204.302 91.7363C207.421 88.8369 211.565 86.4492 216.421 85.3174C221.085 84.2304 224.976 84.6292 227.423 85.1742L212.634 151.547C224.715 154.238 239.156 152.18 250.601 141.54C259.946 132.853 263.42 121.862 264.962 114.94L198.59 100.151ZM267.048 48.6783L259.862 47.0773L245.073 113.45L252.259 115.051L267.048 48.6783ZM259.862 47.0773C241.26 42.9326 222.841 54.6392 218.696 73.2414L285.068 88.0302C281.045 106.085 263.128 117.472 245.073 113.45L259.862 47.0773ZM218.696 73.2414L211.255 106.637L277.627 121.425L285.068 88.0302L218.696 73.2414ZM211.255 106.637C207.11 125.239 218.818 143.658 237.419 147.803L252.208 81.4306C270.262 85.4533 281.65 103.37 277.627 121.425L211.255 106.637ZM237.419 147.803L244.604 149.404L259.393 83.0316L252.208 81.4306L237.419 147.803ZM244.604 149.404C263.206 153.549 281.626 141.843 285.771 123.24L219.398 108.451C223.421 90.3959 241.339 79.009 259.393 83.0316L244.604 149.404ZM285.771 123.24L293.212 89.8447L226.839 75.0559L219.398 108.451L285.771 123.24ZM293.212 89.8447C297.357 71.2423 285.649 52.823 267.048 48.6783L252.259 115.051C234.205 111.028 222.816 93.1108 226.839 75.0559L293.212 89.8447ZM258.371 88.263L250.912 86.601L236.123 152.973L243.582 154.635L258.371 88.263ZM250.912 86.601C232.311 82.4564 213.891 94.1624 209.746 112.765L276.118 127.554C272.095 145.609 254.177 156.996 236.123 152.973L250.912 86.601ZM209.746 112.765L208.099 120.156L274.471 134.945L276.118 127.554L209.746 112.765ZM208.099 120.156C203.954 138.758 215.661 157.177 234.263 161.322L249.052 94.9498C267.106 98.9726 278.494 116.89 274.471 134.945L208.099 120.156ZM234.263 161.322L241.722 162.984L256.511 96.6118L249.052 94.9498L234.263 161.322ZM241.722 162.984C260.324 167.129 278.744 155.422 282.888 136.82L216.516 122.031C220.539 103.977 238.456 92.589 256.511 96.6118L241.722 162.984ZM282.889 136.82L284.535 129.429L218.163 114.641L216.516 122.031L282.889 136.82ZM284.535 129.429C288.68 110.827 276.973 92.4078 258.371 88.263L243.582 154.635C225.528 150.613 214.14 132.695 218.163 114.641L284.535 129.429Z" fill="#021F69" mask="url(#path-1-outside-1_508_969)"/>
</svg>
