<svg width="982" height="709" viewBox="0 0 982 709" fill="none" xmlns="http://www.w3.org/2000/svg">
<rect x="0.502441" y="100.635" width="914.466" height="607.975" rx="30.0482" fill="#12A4FF"/>
<mask id="path-2-outside-1_403_64" maskUnits="userSpaceOnUse" x="618.712" y="-0.392578" width="363" height="238" fill="black">
<rect fill="white" x="618.712" y="-0.392578" width="363" height="238"/>
<path d="M675.511 90.6873C684.341 94.4681 693.961 94.0875 698.101 84.4196C700.244 79.2358 699.027 74.0623 693.281 69.8478C699.137 70.6007 703.297 68.7213 705.671 63.1784C708.844 55.7663 703.788 49.4065 694.636 45.4877L676.331 37.65C676.073 37.5396 675.797 37.6502 675.687 37.908L666.515 59.6837L656.755 82.1225C656.645 82.3803 656.755 82.6564 657.013 82.7668L675.511 90.6873ZM692.235 51.095C696.746 53.0269 699.15 56.4968 697.219 61.0085C695.314 65.4557 691.494 66.1843 686.66 64.1145L675.703 59.4229L681.407 46.4587L692.235 51.095ZM684.259 69.7218C689.093 71.7917 692.427 75.5835 690.109 80.9975C687.57 86.9272 682.939 87.2325 677.718 84.9971L666.89 80.3608L673.302 65.0303L684.259 69.7218Z"/>
<path d="M729.304 73.6791C724.857 71.7749 720.548 72.2182 716.913 74.4749L718.78 70.4696C718.891 70.2118 718.78 69.9356 718.522 69.8253L711.626 66.8723C711.368 66.7619 711.092 66.8725 710.981 67.1303L703.107 85.8768L692.464 110.378C692.353 110.636 692.464 110.912 692.722 111.022L699.683 114.003C699.94 114.113 700.216 114.003 700.327 113.745L706.463 99.059C707.394 103.119 710.028 106.229 714.346 108.078C723.241 111.887 731.902 106.443 736.014 96.8397C740.153 87.1718 738.456 77.5979 729.304 73.6791ZM714.547 101.91C709.261 99.6472 708.265 93.9581 711.669 86.187C715.018 78.5447 719.666 75.8826 724.886 78.118C730.429 80.4913 731.177 86.2266 727.893 93.8964C724.83 101.051 720.154 104.311 714.547 101.91Z"/>
<path d="M769.353 96.7001C768.477 92.5116 765.806 89.3087 761.424 87.4321C752.529 83.6236 743.932 89.095 739.82 98.6984C735.681 108.366 737.313 117.913 746.466 121.831C750.977 123.763 755.286 123.32 758.949 120.999L757.054 125.069C756.943 125.326 757.054 125.602 757.312 125.713L764.144 128.638C764.402 128.749 764.678 128.638 764.788 128.38L771.641 112.019L778.614 96.0895C778.725 95.8317 778.614 95.5555 778.356 95.4451L771.46 92.4922C771.202 92.3818 770.926 92.4924 770.816 92.7502L769.353 96.7001ZM750.856 117.457C745.349 115.176 744.593 109.284 747.877 101.614C750.968 94.3954 755.671 91.0704 761.251 93.5359C766.508 95.8633 767.596 101.516 764.165 109.351C760.789 117.058 756.076 119.692 750.856 117.457Z"/>
<path d="M821.429 133.87L828.595 117.49C828.705 117.232 828.595 116.956 828.337 116.846L821.376 113.865C821.118 113.755 820.842 113.865 820.732 114.123L813.759 130.586L809.086 141.322L798.451 136.769L802.995 125.978L810.097 109.57C810.207 109.312 810.097 109.036 809.839 108.925L802.878 105.945C802.62 105.834 802.344 105.945 802.234 106.203L795.325 122.693L790.652 133.429L779.953 128.848L784.497 118.057L791.664 101.677C791.774 101.419 791.663 101.143 791.406 101.033L784.445 98.052C784.187 97.9416 783.911 98.0522 783.8 98.31L776.892 114.801L769.974 130.601C769.864 130.859 769.974 131.135 770.232 131.245L811.804 149.045L808.768 156.669C808.658 156.927 808.769 157.203 809.026 157.313L814.892 159.825C815.149 159.935 815.426 159.825 815.536 159.567L820.945 146.934C821.055 146.676 820.945 146.4 820.687 146.29L816.884 144.662L821.429 133.87Z"/>
<path d="M856.963 134.213C856.087 130.025 853.417 126.822 849.034 124.945C840.139 121.137 831.543 126.608 827.431 136.211C823.291 145.879 824.924 155.426 834.076 159.344C838.588 161.276 842.896 160.833 846.559 158.512L844.664 162.582C844.554 162.839 844.664 163.116 844.922 163.226L851.754 166.151C852.012 166.262 852.288 166.151 852.398 165.893L859.252 149.532L866.225 133.602C866.335 133.345 866.224 133.069 865.967 132.958L859.07 130.005C858.812 129.895 858.536 130.005 858.426 130.263L856.963 134.213ZM838.466 154.97C832.96 152.689 832.203 146.797 835.487 139.127C838.578 131.908 843.281 128.583 848.861 131.049C854.118 133.376 855.207 139.029 851.775 146.864C848.399 154.571 843.686 157.205 838.466 154.97Z"/>
<path d="M875.022 170.851C869.479 168.478 868.096 163.691 870.893 156.27L895.191 166.674C895.449 166.785 895.698 166.739 895.836 166.416C900.564 155.018 897.651 145.61 887.339 141.194C877.22 136.861 868.153 141.293 863.683 151.734C859.35 161.853 862.023 171.463 872.722 176.045C881.681 179.881 889.303 177.043 892.955 170.827C893.13 170.597 893.02 170.321 892.762 170.21L886.188 167.395C885.93 167.285 885.746 167.359 885.571 167.589C882.7 171.622 879.147 172.618 875.022 170.851ZM885.196 146.378C890.287 148.558 891.026 153.603 889.416 158.253L873.303 151.353C876.45 146.142 880.426 144.336 885.196 146.378Z"/>
<path d="M915.56 183.328L916.977 155.258C917.023 154.972 916.885 154.76 916.627 154.65L908.055 150.98C907.797 150.869 907.521 150.98 907.411 151.238L900.558 167.599L893.585 183.528C893.474 183.786 893.585 184.062 893.843 184.173L899.128 186.436C899.385 186.546 899.662 186.436 899.772 186.178L906.11 171.197L908.989 164.117L910.075 161.226L908.639 190.051C908.593 190.336 908.731 190.548 908.989 190.658L913.694 192.673C913.952 192.783 914.2 192.737 914.375 192.507L933.793 171.915L932.8 174.236L929.635 181.27L923.233 196.223C923.122 196.481 923.233 196.757 923.491 196.868L930 199.655C930.258 199.765 930.534 199.655 930.645 199.397L937.424 183.385L944.471 167.106C944.581 166.848 944.471 166.572 944.213 166.462L935.576 162.764C935.319 162.653 935.07 162.699 934.895 162.93L915.56 183.328Z"/>
</mask>
<path d="M675.511 90.6873C684.341 94.4681 693.961 94.0875 698.101 84.4196C700.244 79.2358 699.027 74.0623 693.281 69.8478C699.137 70.6007 703.297 68.7213 705.671 63.1784C708.844 55.7663 703.788 49.4065 694.636 45.4877L676.331 37.65C676.073 37.5396 675.797 37.6502 675.687 37.908L666.515 59.6837L656.755 82.1225C656.645 82.3803 656.755 82.6564 657.013 82.7668L675.511 90.6873ZM692.235 51.095C696.746 53.0269 699.15 56.4968 697.219 61.0085C695.314 65.4557 691.494 66.1843 686.66 64.1145L675.703 59.4229L681.407 46.4587L692.235 51.095ZM684.259 69.7218C689.093 71.7917 692.427 75.5835 690.109 80.9975C687.57 86.9272 682.939 87.2325 677.718 84.9971L666.89 80.3608L673.302 65.0303L684.259 69.7218Z" fill="white"/>
<path d="M729.304 73.6791C724.857 71.7749 720.548 72.2182 716.913 74.4749L718.78 70.4696C718.891 70.2118 718.78 69.9356 718.522 69.8253L711.626 66.8723C711.368 66.7619 711.092 66.8725 710.981 67.1303L703.107 85.8768L692.464 110.378C692.353 110.636 692.464 110.912 692.722 111.022L699.683 114.003C699.94 114.113 700.216 114.003 700.327 113.745L706.463 99.059C707.394 103.119 710.028 106.229 714.346 108.078C723.241 111.887 731.902 106.443 736.014 96.8397C740.153 87.1718 738.456 77.5979 729.304 73.6791ZM714.547 101.91C709.261 99.6472 708.265 93.9581 711.669 86.187C715.018 78.5447 719.666 75.8826 724.886 78.118C730.429 80.4913 731.177 86.2266 727.893 93.8964C724.83 101.051 720.154 104.311 714.547 101.91Z" fill="white"/>
<path d="M769.353 96.7001C768.477 92.5116 765.806 89.3087 761.424 87.4321C752.529 83.6236 743.932 89.095 739.82 98.6984C735.681 108.366 737.313 117.913 746.466 121.831C750.977 123.763 755.286 123.32 758.949 120.999L757.054 125.069C756.943 125.326 757.054 125.602 757.312 125.713L764.144 128.638C764.402 128.749 764.678 128.638 764.788 128.38L771.641 112.019L778.614 96.0895C778.725 95.8317 778.614 95.5555 778.356 95.4451L771.46 92.4922C771.202 92.3818 770.926 92.4924 770.816 92.7502L769.353 96.7001ZM750.856 117.457C745.349 115.176 744.593 109.284 747.877 101.614C750.968 94.3954 755.671 91.0704 761.251 93.5359C766.508 95.8633 767.596 101.516 764.165 109.351C760.789 117.058 756.076 119.692 750.856 117.457Z" fill="white"/>
<path d="M821.429 133.87L828.595 117.49C828.705 117.232 828.595 116.956 828.337 116.846L821.376 113.865C821.118 113.755 820.842 113.865 820.732 114.123L813.759 130.586L809.086 141.322L798.451 136.769L802.995 125.978L810.097 109.57C810.207 109.312 810.097 109.036 809.839 108.925L802.878 105.945C802.62 105.834 802.344 105.945 802.234 106.203L795.325 122.693L790.652 133.429L779.953 128.848L784.497 118.057L791.664 101.677C791.774 101.419 791.663 101.143 791.406 101.033L784.445 98.052C784.187 97.9416 783.911 98.0522 783.8 98.31L776.892 114.801L769.974 130.601C769.864 130.859 769.974 131.135 770.232 131.245L811.804 149.045L808.768 156.669C808.658 156.927 808.769 157.203 809.026 157.313L814.892 159.825C815.149 159.935 815.426 159.825 815.536 159.567L820.945 146.934C821.055 146.676 820.945 146.4 820.687 146.29L816.884 144.662L821.429 133.87Z" fill="white"/>
<path d="M856.963 134.213C856.087 130.025 853.417 126.822 849.034 124.945C840.139 121.137 831.543 126.608 827.431 136.211C823.291 145.879 824.924 155.426 834.076 159.344C838.588 161.276 842.896 160.833 846.559 158.512L844.664 162.582C844.554 162.839 844.664 163.116 844.922 163.226L851.754 166.151C852.012 166.262 852.288 166.151 852.398 165.893L859.252 149.532L866.225 133.602C866.335 133.345 866.224 133.069 865.967 132.958L859.07 130.005C858.812 129.895 858.536 130.005 858.426 130.263L856.963 134.213ZM838.466 154.97C832.96 152.689 832.203 146.797 835.487 139.127C838.578 131.908 843.281 128.583 848.861 131.049C854.118 133.376 855.207 139.029 851.775 146.864C848.399 154.571 843.686 157.205 838.466 154.97Z" fill="white"/>
<path d="M875.022 170.851C869.479 168.478 868.096 163.691 870.893 156.27L895.191 166.674C895.449 166.785 895.698 166.739 895.836 166.416C900.564 155.018 897.651 145.61 887.339 141.194C877.22 136.861 868.153 141.293 863.683 151.734C859.35 161.853 862.023 171.463 872.722 176.045C881.681 179.881 889.303 177.043 892.955 170.827C893.13 170.597 893.02 170.321 892.762 170.21L886.188 167.395C885.93 167.285 885.746 167.359 885.571 167.589C882.7 171.622 879.147 172.618 875.022 170.851ZM885.196 146.378C890.287 148.558 891.026 153.603 889.416 158.253L873.303 151.353C876.45 146.142 880.426 144.336 885.196 146.378Z" fill="white"/>
<path d="M915.56 183.328L916.977 155.258C917.023 154.972 916.885 154.76 916.627 154.65L908.055 150.98C907.797 150.869 907.521 150.98 907.411 151.238L900.558 167.599L893.585 183.528C893.474 183.786 893.585 184.062 893.843 184.173L899.128 186.436C899.385 186.546 899.662 186.436 899.772 186.178L906.11 171.197L908.989 164.117L910.075 161.226L908.639 190.051C908.593 190.336 908.731 190.548 908.989 190.658L913.694 192.673C913.952 192.783 914.2 192.737 914.375 192.507L933.793 171.915L932.8 174.236L929.635 181.27L923.233 196.223C923.122 196.481 923.233 196.757 923.491 196.868L930 199.655C930.258 199.765 930.534 199.655 930.645 199.397L937.424 183.385L944.471 167.106C944.581 166.848 944.471 166.572 944.213 166.462L935.576 162.764C935.319 162.653 935.07 162.699 934.895 162.93L915.56 183.328Z" fill="white"/>
<path d="M675.511 90.6873C684.341 94.4681 693.961 94.0875 698.101 84.4196C700.244 79.2358 699.027 74.0623 693.281 69.8478C699.137 70.6007 703.297 68.7213 705.671 63.1784C708.844 55.7663 703.788 49.4065 694.636 45.4877L676.331 37.65C676.073 37.5396 675.797 37.6502 675.687 37.908L666.515 59.6837L656.755 82.1225C656.645 82.3803 656.755 82.6564 657.013 82.7668L675.511 90.6873ZM692.235 51.095C696.746 53.0269 699.15 56.4968 697.219 61.0085C695.314 65.4557 691.494 66.1843 686.66 64.1145L675.703 59.4229L681.407 46.4587L692.235 51.095ZM684.259 69.7218C689.093 71.7917 692.427 75.5835 690.109 80.9975C687.57 86.9272 682.939 87.2325 677.718 84.9971L666.89 80.3608L673.302 65.0303L684.259 69.7218Z" stroke="#12A4FF" stroke-width="74.1189" stroke-linejoin="round" mask="url(#path-2-outside-1_403_64)"/>
<path d="M729.304 73.6791C724.857 71.7749 720.548 72.2182 716.913 74.4749L718.78 70.4696C718.891 70.2118 718.78 69.9356 718.522 69.8253L711.626 66.8723C711.368 66.7619 711.092 66.8725 710.981 67.1303L703.107 85.8768L692.464 110.378C692.353 110.636 692.464 110.912 692.722 111.022L699.683 114.003C699.94 114.113 700.216 114.003 700.327 113.745L706.463 99.059C707.394 103.119 710.028 106.229 714.346 108.078C723.241 111.887 731.902 106.443 736.014 96.8397C740.153 87.1718 738.456 77.5979 729.304 73.6791ZM714.547 101.91C709.261 99.6472 708.265 93.9581 711.669 86.187C715.018 78.5447 719.666 75.8826 724.886 78.118C730.429 80.4913 731.177 86.2266 727.893 93.8964C724.83 101.051 720.154 104.311 714.547 101.91Z" stroke="#12A4FF" stroke-width="74.1189" stroke-linejoin="round" mask="url(#path-2-outside-1_403_64)"/>
<path d="M769.353 96.7001C768.477 92.5116 765.806 89.3087 761.424 87.4321C752.529 83.6236 743.932 89.095 739.82 98.6984C735.681 108.366 737.313 117.913 746.466 121.831C750.977 123.763 755.286 123.32 758.949 120.999L757.054 125.069C756.943 125.326 757.054 125.602 757.312 125.713L764.144 128.638C764.402 128.749 764.678 128.638 764.788 128.38L771.641 112.019L778.614 96.0895C778.725 95.8317 778.614 95.5555 778.356 95.4451L771.46 92.4922C771.202 92.3818 770.926 92.4924 770.816 92.7502L769.353 96.7001ZM750.856 117.457C745.349 115.176 744.593 109.284 747.877 101.614C750.968 94.3954 755.671 91.0704 761.251 93.5359C766.508 95.8633 767.596 101.516 764.165 109.351C760.789 117.058 756.076 119.692 750.856 117.457Z" stroke="#12A4FF" stroke-width="74.1189" stroke-linejoin="round" mask="url(#path-2-outside-1_403_64)"/>
<path d="M821.429 133.87L828.595 117.49C828.705 117.232 828.595 116.956 828.337 116.846L821.376 113.865C821.118 113.755 820.842 113.865 820.732 114.123L813.759 130.586L809.086 141.322L798.451 136.769L802.995 125.978L810.097 109.57C810.207 109.312 810.097 109.036 809.839 108.925L802.878 105.945C802.62 105.834 802.344 105.945 802.234 106.203L795.325 122.693L790.652 133.429L779.953 128.848L784.497 118.057L791.664 101.677C791.774 101.419 791.663 101.143 791.406 101.033L784.445 98.052C784.187 97.9416 783.911 98.0522 783.8 98.31L776.892 114.801L769.974 130.601C769.864 130.859 769.974 131.135 770.232 131.245L811.804 149.045L808.768 156.669C808.658 156.927 808.769 157.203 809.026 157.313L814.892 159.825C815.149 159.935 815.426 159.825 815.536 159.567L820.945 146.934C821.055 146.676 820.945 146.4 820.687 146.29L816.884 144.662L821.429 133.87Z" stroke="#12A4FF" stroke-width="74.1189" stroke-linejoin="round" mask="url(#path-2-outside-1_403_64)"/>
<path d="M856.963 134.213C856.087 130.025 853.417 126.822 849.034 124.945C840.139 121.137 831.543 126.608 827.431 136.211C823.291 145.879 824.924 155.426 834.076 159.344C838.588 161.276 842.896 160.833 846.559 158.512L844.664 162.582C844.554 162.839 844.664 163.116 844.922 163.226L851.754 166.151C852.012 166.262 852.288 166.151 852.398 165.893L859.252 149.532L866.225 133.602C866.335 133.345 866.224 133.069 865.967 132.958L859.07 130.005C858.812 129.895 858.536 130.005 858.426 130.263L856.963 134.213ZM838.466 154.97C832.96 152.689 832.203 146.797 835.487 139.127C838.578 131.908 843.281 128.583 848.861 131.049C854.118 133.376 855.207 139.029 851.775 146.864C848.399 154.571 843.686 157.205 838.466 154.97Z" stroke="#12A4FF" stroke-width="74.1189" stroke-linejoin="round" mask="url(#path-2-outside-1_403_64)"/>
<path d="M875.022 170.851C869.479 168.478 868.096 163.691 870.893 156.27L895.191 166.674C895.449 166.785 895.698 166.739 895.836 166.416C900.564 155.018 897.651 145.61 887.339 141.194C877.22 136.861 868.153 141.293 863.683 151.734C859.35 161.853 862.023 171.463 872.722 176.045C881.681 179.881 889.303 177.043 892.955 170.827C893.13 170.597 893.02 170.321 892.762 170.21L886.188 167.395C885.93 167.285 885.746 167.359 885.571 167.589C882.7 171.622 879.147 172.618 875.022 170.851ZM885.196 146.378C890.287 148.558 891.026 153.603 889.416 158.253L873.303 151.353C876.45 146.142 880.426 144.336 885.196 146.378Z" stroke="#12A4FF" stroke-width="74.1189" stroke-linejoin="round" mask="url(#path-2-outside-1_403_64)"/>
<path d="M915.56 183.328L916.977 155.258C917.023 154.972 916.885 154.76 916.627 154.65L908.055 150.98C907.797 150.869 907.521 150.98 907.411 151.238L900.558 167.599L893.585 183.528C893.474 183.786 893.585 184.062 893.843 184.173L899.128 186.436C899.385 186.546 899.662 186.436 899.772 186.178L906.11 171.197L908.989 164.117L910.075 161.226L908.639 190.051C908.593 190.336 908.731 190.548 908.989 190.658L913.694 192.673C913.952 192.783 914.2 192.737 914.375 192.507L933.793 171.915L932.8 174.236L929.635 181.27L923.233 196.223C923.122 196.481 923.233 196.757 923.491 196.868L930 199.655C930.258 199.765 930.534 199.655 930.645 199.397L937.424 183.385L944.471 167.106C944.581 166.848 944.471 166.572 944.213 166.462L935.576 162.764C935.319 162.653 935.07 162.699 934.895 162.93L915.56 183.328Z" stroke="#12A4FF" stroke-width="74.1189" stroke-linejoin="round" mask="url(#path-2-outside-1_403_64)"/>
</svg>
