<svg width="1024" height="802" viewBox="0 0 1024 802" fill="none" xmlns="http://www.w3.org/2000/svg">
<path fill-rule="evenodd" clip-rule="evenodd" d="M510.819 8.12436C512.694 39.0649 517.341 85.4559 525.259 124.004C529.196 143.167 534.08 161.111 540.159 174.35C543.178 180.924 546.832 187.108 551.401 191.7C556.08 196.403 562.686 200.312 570.897 199.578L570.897 199.579C577.49 198.99 583.255 195.945 588.018 192.251C592.815 188.532 597.244 183.657 601.306 178.278C609.423 167.528 617.098 153.383 624.011 138.415C637.882 108.379 649.596 73.0143 656.17 49.5887L633.797 43.3103C627.433 65.9888 616.108 100.105 602.915 128.672C596.296 143.006 589.431 155.444 582.762 164.275C579.431 168.687 576.404 171.853 573.779 173.889C571.487 175.666 569.963 176.227 569.159 176.386C568.921 176.245 568.498 175.939 567.873 175.311C566.065 173.494 563.778 170.102 561.276 164.654C556.316 153.852 551.851 137.977 548.021 119.329C540.405 82.2544 535.851 37.0549 534.013 6.71875L510.819 8.12436ZM568.869 176.431C568.856 176.432 568.842 176.433 568.828 176.434L568.828 176.435C568.841 176.434 568.855 176.432 568.869 176.431Z" fill="#12A4FF"/>
<path fill-rule="evenodd" clip-rule="evenodd" d="M107.549 100.48C112.335 77.6003 134.763 62.9326 157.642 67.7186L981.97 240.154C1004.85 244.94 1019.52 267.368 1014.73 290.247L916.451 760.073C911.665 782.953 889.237 797.621 866.358 792.835L42.0306 620.399C19.1511 615.613 4.48334 593.185 9.26938 570.306L107.549 100.48ZM475.577 184.365C476.844 178.308 482.781 174.426 488.837 175.693L528.233 183.934C528.233 183.933 528.233 183.933 528.233 183.933C530.016 175.41 538.372 169.945 546.896 171.728L581.012 178.865C589.536 180.648 595 189.003 593.217 197.527C593.217 197.527 593.217 197.527 593.217 197.527L632.614 205.768C638.67 207.035 642.553 212.972 641.286 219.028C640.019 225.085 634.082 228.967 628.026 227.7L484.249 197.625C478.193 196.358 474.311 190.421 475.577 184.365Z" fill="#F08603"/>
<path fill-rule="evenodd" clip-rule="evenodd" d="M525.259 124.004C517.341 85.4558 512.694 39.0648 510.819 8.12424L534.013 6.71863C535.851 37.0548 540.405 82.2543 548.021 119.328C551.851 137.977 556.316 153.852 561.276 164.654C563.778 170.101 566.065 173.494 567.873 175.311C568.63 176.071 569.09 176.36 569.284 176.454C569.191 176.433 569.038 176.415 568.828 176.434L570.897 199.578C562.686 200.312 556.08 196.402 551.401 191.7C546.832 187.108 543.178 180.924 540.159 174.35C534.08 161.111 529.196 143.167 525.259 124.004ZM569.392 176.493C569.392 176.497 569.357 176.489 569.284 176.454C569.355 176.47 569.391 176.488 569.392 176.493Z" fill="#12A4FF"/>
<path d="M190.307 272.853C210.046 276.982 225.802 270.358 234.513 248.78C234.787 248.074 234.376 247.607 233.889 247.505L220.73 244.752C220.243 244.65 219.826 244.818 219.577 245.401C214.849 258.275 205.522 263.954 192.363 261.201C176.401 257.862 169.415 244.446 173.875 223.124C178.081 203.019 189.87 192.259 206.197 195.674C218.138 198.172 224.879 206.069 224.787 219.276C224.807 219.788 225 220.083 225.487 220.185L238.403 222.887C238.89 222.989 239.332 222.7 239.46 222.09C239.667 198.606 226.529 187.846 208.862 184.15C183.64 178.874 164.156 192.985 158.497 220.034C152.89 246.84 164.719 267.5 190.307 272.853ZM294.655 203.877L276.256 200.029C275.769 199.927 275.327 200.216 275.129 200.556L228.158 277.973C227.812 278.409 228.075 278.973 228.685 279.101L242.088 281.904C242.575 282.006 242.991 281.839 243.215 281.377L255.465 259.903L288.85 266.887L291.709 291.521C291.729 292.034 292.044 292.354 292.531 292.456L306.3 295.336C306.909 295.464 307.254 295.027 307.113 294.489L295.477 204.812C295.431 204.421 295.142 203.979 294.655 203.877ZM287.449 254.131L261.74 248.753L282.644 212.048L287.449 254.131ZM377.866 221.919L350.996 251.272L338.934 248.749L346.014 215.511C346.116 215.023 345.827 214.581 345.339 214.48L332.058 211.701C331.571 211.599 331.129 211.888 331.027 212.376L322.656 253.61L313.542 295.961C313.44 296.448 313.729 296.89 314.217 296.992L327.498 299.771C327.985 299.873 328.427 299.583 328.529 299.096L336.589 259.959L348.555 262.335L358.677 291.159L363.935 306.757C364.076 307.295 364.538 307.519 364.904 307.595L380.865 310.934C381.475 311.062 381.942 310.651 381.679 310.087L362.096 257.791L393.629 225.598C394.097 225.188 393.833 224.624 393.224 224.496L379.09 221.54C378.725 221.463 378.212 221.483 377.866 221.919ZM185.424 333.889L158.554 363.241L146.492 360.718L153.572 327.48C153.674 326.993 153.384 326.551 152.897 326.449L139.616 323.671C139.129 323.569 138.687 323.858 138.585 324.345L130.214 365.58L121.1 407.93C120.998 408.418 121.287 408.86 121.775 408.962L135.056 411.74C135.543 411.842 135.985 411.553 136.087 411.065L144.147 371.928L156.113 374.304L166.235 403.128L171.493 418.726C171.634 419.264 172.096 419.488 172.462 419.565L188.423 422.904C189.033 423.031 189.5 422.62 189.237 422.056L169.654 369.76L201.187 337.568C201.655 337.157 201.391 336.593 200.782 336.466L186.648 333.509C186.282 333.433 185.77 333.452 185.424 333.889ZM225.255 432.389C250.598 437.69 271.012 423.393 276.543 396.952C282.278 369.537 269.154 348.987 243.932 343.711C218.466 338.384 198.398 352.245 192.714 379.417C187.183 405.857 200.033 427.113 225.255 432.389ZM227.798 420.839C211.105 417.347 203.836 402.854 208.067 382.628C212.349 362.158 224.574 351.744 241.389 355.261C258.325 358.804 265.422 373.515 261.191 393.741C256.934 414.089 244.613 424.356 227.798 420.839ZM314.537 408.08C326.844 410.654 333.262 416.448 330.943 427.535C328.751 438.014 320.35 441.089 310.115 438.948C297.078 436.221 293.804 428.16 295.403 415.65C295.409 415.015 295.094 414.695 294.607 414.593L280.717 411.688C280.229 411.586 279.787 411.875 279.686 412.362C276.186 432.741 287.402 445.389 306.775 449.441C325.539 453.366 342.458 447.876 346.052 430.696C348.294 419.974 344.295 411.125 333.281 406.023L333.306 405.901C343.493 405.234 350.179 400.02 352.32 389.785C355.302 375.529 344.582 364.766 327.402 361.172C308.394 357.196 293.649 362.632 287.806 380.232C287.582 380.694 287.871 381.136 288.358 381.238L302.248 384.143C302.736 384.245 303.152 384.078 303.28 383.469C306.325 373.169 314.437 369.651 324.428 371.741C333.566 373.653 338.959 379.487 337.149 388.137C335.416 396.423 328.888 400.272 316.582 397.697L309.149 396.143C308.662 396.041 308.22 396.33 308.118 396.817L306.309 405.468C306.207 405.955 306.496 406.397 306.983 406.499L314.537 408.08ZM432.641 384.967L377.568 373.446C377.08 373.344 376.664 373.512 376.536 374.121C372.526 391.468 367.875 409.444 364.612 419.572C360.743 431.989 356.06 439.784 349.887 444.979L344.404 443.832C343.916 443.73 343.474 444.019 343.372 444.506L337.383 473.14C337.281 473.627 337.57 474.069 338.057 474.171L350.485 476.771C350.973 476.873 351.415 476.584 351.517 476.096L355.827 457.922L411.997 469.672L408.662 488.05C408.56 488.538 408.849 488.98 409.336 489.082L421.642 491.656C422.13 491.758 422.572 491.469 422.674 490.981L428.663 462.348C428.765 461.861 428.476 461.419 427.989 461.317L418.85 459.405L424.404 430.426L433.316 385.998C433.418 385.511 433.129 385.069 432.641 384.967ZM378.361 421.939C380.723 414.294 384.309 400.8 387.773 387.281L416.528 393.296L409.904 427.393L403.864 456.27L365.117 448.165C370.291 442.888 374.619 433.747 378.361 421.939ZM498.778 398.801L480.38 394.953C479.892 394.851 479.45 395.14 479.252 395.48L432.281 472.897C431.935 473.334 432.199 473.897 432.808 474.025L446.211 476.829C446.698 476.93 447.115 476.763 447.339 476.301L459.588 454.828L492.974 461.811L495.833 486.446C495.853 486.958 496.167 487.279 496.654 487.38L510.423 490.261C511.032 490.388 511.378 489.952 511.236 489.413L499.6 399.736C499.554 399.345 499.265 398.903 498.778 398.801ZM491.572 449.055L465.863 443.677L486.768 406.972L491.572 449.055ZM597.948 417.766C574.676 412.898 556.163 424.795 549.288 448.538L542.343 447.085L550.259 410.461C550.361 409.973 550.072 409.531 549.584 409.429L536.181 406.626C535.694 406.524 535.252 406.813 535.15 407.3L526.6 449.387L517.665 490.885C517.563 491.373 517.853 491.815 518.34 491.917L531.743 494.72C532.23 494.822 532.672 494.533 532.774 494.046L540.024 458.173L546.969 459.625C544.319 483.235 556.364 501.651 579.393 506.468C604.127 511.642 623.81 497.192 629.366 470.63C635.075 443.337 622.682 422.94 597.948 417.766ZM581.814 494.893C565.487 491.478 559.192 477.189 563.423 456.963C567.705 436.493 579.077 425.9 595.526 429.341C611.975 432.782 618.219 447.314 613.988 467.54C609.732 487.888 598.141 498.309 581.814 494.893ZM668.933 479.161L675.803 447.532L699.807 452.554C700.294 452.656 700.736 452.366 700.838 451.879L702.826 442.375C702.928 441.888 702.639 441.446 702.152 441.344L639.158 428.167C638.671 428.065 638.229 428.354 638.127 428.841L636.139 438.345C636.037 438.832 636.326 439.274 636.813 439.376L660.695 444.372L654.433 476.128L645.255 517.575C645.153 518.062 645.442 518.504 645.929 518.606L659.697 521.486C660.185 521.588 660.627 521.299 660.729 520.812L668.933 479.161ZM128.402 521.368C140.708 523.942 147.127 529.736 144.807 540.824C142.615 551.303 134.214 554.378 123.979 552.237C110.942 549.51 107.668 541.449 109.268 528.939C109.273 528.304 108.959 527.984 108.471 527.882L94.5812 524.976C94.0938 524.874 93.6518 525.163 93.5498 525.651C90.0499 546.03 101.266 558.677 120.64 562.73C139.404 566.655 156.322 561.165 159.916 543.984C162.159 533.262 158.16 524.414 147.145 519.312L147.171 519.19C157.357 518.523 164.044 513.308 166.185 503.073C169.167 488.818 158.446 478.054 141.266 474.46C122.258 470.484 107.513 475.921 101.67 493.52C101.446 493.982 101.735 494.424 102.223 494.526L116.113 497.432C116.6 497.534 117.017 497.367 117.144 496.757C120.189 486.457 128.301 482.94 138.292 485.03C147.431 486.941 152.823 492.775 151.014 501.426C149.281 509.711 142.753 513.56 130.446 510.986L123.014 509.431C122.526 509.329 122.084 509.618 121.982 510.106L120.173 518.756C120.071 519.244 120.36 519.686 120.847 519.788L128.402 521.368ZM224.12 493.572L205.721 489.724C205.234 489.622 204.792 489.911 204.593 490.251L157.622 567.668C157.277 568.105 157.54 568.668 158.15 568.796L171.552 571.599C172.04 571.701 172.456 571.534 172.68 571.072L184.93 549.599L218.315 556.582L221.174 581.216C221.194 581.729 221.509 582.05 221.996 582.151L235.764 585.032C236.374 585.159 236.719 584.723 236.578 584.184L224.941 494.507C224.896 494.116 224.607 493.674 224.12 493.572ZM216.914 543.826L191.205 538.448L212.109 501.743L216.914 543.826ZM260.492 502.071L252.095 543.427L243.007 585.656C242.905 586.144 243.194 586.586 243.681 586.688L257.084 589.491C257.572 589.593 258.014 589.304 258.116 588.817L266.716 546.486L273.19 515.537L312.911 523.846L306.559 554.82L297.471 597.049C297.369 597.537 297.658 597.979 298.146 598.081L311.549 600.884C312.036 600.986 312.478 600.697 312.58 600.21L321.059 557.853L330.065 516.625C330.167 516.137 329.878 515.695 329.39 515.593L261.523 501.397C261.036 501.295 260.594 501.584 260.492 502.071ZM411.287 532.725L356.335 521.23C355.848 521.128 355.431 521.295 355.304 521.904C350.183 543.343 344.972 564 341.026 576.783C336.979 590.053 333.766 594.468 326.211 592.887C325.237 592.683 324.287 592.358 323.485 591.936C322.876 591.808 322.434 592.097 322.332 592.585L320.37 601.967C320.268 602.454 320.435 602.87 320.922 602.972C322.308 603.644 324.303 604.443 326.984 605.003C342.945 608.342 348.787 599.263 354.525 579.734C357.397 569.652 362.215 552.092 366.418 535.039L394.93 541.003L388.164 574.562L379.733 614.257C379.632 614.745 379.921 615.187 380.408 615.289L393.689 618.067C394.176 618.169 394.618 617.88 394.72 617.392L402.664 577.595L411.961 533.756C412.063 533.269 411.774 532.827 411.287 532.725ZM464.241 621.125L422.57 612.408L428.291 583.846L465.941 591.721C466.428 591.823 466.87 591.534 466.972 591.047L468.935 581.665C469.036 581.177 468.747 580.735 468.26 580.633L430.61 572.758L435.722 549.536L476.418 558.049C476.905 558.151 477.347 557.862 477.449 557.375L479.437 547.871C479.539 547.384 479.25 546.942 478.763 546.84L423.933 535.37C423.446 535.268 423.004 535.557 422.902 536.045L414.556 577.157L405.417 619.63C405.315 620.117 405.604 620.559 406.091 620.661L461.896 632.335C462.384 632.437 462.826 632.148 462.927 631.66L464.916 622.156C465.017 621.669 464.728 621.227 464.241 621.125ZM516.704 599.542L523.575 567.914L547.578 572.935C548.065 573.037 548.507 572.748 548.609 572.26L550.597 562.757C550.699 562.269 550.41 561.827 549.923 561.725L486.929 548.548C486.442 548.446 486 548.735 485.898 549.222L483.91 558.726C483.808 559.214 484.097 559.656 484.584 559.758L508.466 564.753L502.205 596.509L493.026 637.956C492.924 638.444 493.213 638.886 493.7 638.988L507.469 641.868C507.956 641.97 508.398 641.681 508.5 641.193L516.704 599.542ZM589.391 569.981L570.992 566.133C570.505 566.031 570.063 566.32 569.865 566.66L522.894 644.077C522.548 644.513 522.812 645.077 523.421 645.205L536.824 648.008C537.311 648.11 537.728 647.943 537.951 647.481L550.201 626.007L583.587 632.991L586.446 657.625C586.465 658.138 586.78 658.458 587.267 658.56L601.036 661.44C601.645 661.568 601.991 661.131 601.849 660.593L590.213 570.916C590.167 570.525 589.878 570.083 589.391 569.981ZM582.185 620.235L556.476 614.857L577.381 578.152L582.185 620.235ZM672.602 588.024L645.732 617.376L633.67 614.853L640.75 581.615C640.852 581.128 640.563 580.686 640.075 580.584L626.794 577.805C626.307 577.704 625.865 577.993 625.763 578.48L617.392 619.714L608.278 662.065C608.176 662.553 608.465 662.995 608.953 663.097L622.234 665.875C622.721 665.977 623.163 665.688 623.265 665.2L631.325 626.063L643.291 628.439L653.413 657.263L658.671 672.861C658.813 673.399 659.275 673.623 659.64 673.699L675.602 677.038C676.211 677.166 676.678 676.755 676.415 676.191L656.832 623.895L688.365 591.703C688.833 591.292 688.569 590.728 687.96 590.6L673.826 587.644C673.461 587.567 672.948 587.587 672.602 588.024ZM701.38 661.574L701.406 661.452L707.812 632.652L715.473 597.246C715.575 596.758 715.286 596.316 714.798 596.214L701.395 593.411C700.908 593.309 700.466 593.598 700.364 594.085L691.814 636.173L682.879 677.671C682.777 678.158 683.066 678.6 683.554 678.702L697.322 681.582C697.688 681.658 698.079 681.613 698.424 681.177L754.29 625.078L754.188 625.565L747.812 653.609L740.024 689.624C739.922 690.112 740.212 690.554 740.699 690.656L754.102 693.459C754.589 693.561 755.031 693.272 755.133 692.785L763.459 651.159L772.618 609.2C772.72 608.712 772.431 608.27 771.943 608.168L758.175 605.288C757.809 605.212 757.418 605.257 757.073 605.693L701.38 661.574Z" fill="white"/>
</svg>
