<svg width="331" height="134" viewBox="0 0 331 134" fill="none" xmlns="http://www.w3.org/2000/svg">
<path d="M16.2964 36.9032H9.68928V64.9836H0.00378418V1.08936H9.68928V26.6921H16.2964V1.08936H25.9819V65.0587H16.2964V36.9032Z" fill="#021F69"/>
<path d="M42.65 65.734H40.773C33.0396 65.734 28.9102 61.5294 28.9102 53.6459V40.807H38.5206V51.9941C38.5206 54.9223 39.4966 56.499 41.674 56.499C44.0015 56.499 44.8274 54.9223 44.8274 51.018V49.5915C44.8274 45.0115 44.3769 43.4348 40.8481 38.8549L34.7665 30.8212C30.637 25.4904 29.4357 21.3609 29.4357 14.979V12.9518C29.4357 4.46759 33.7154 0.488281 41.3737 0.488281H43.1756C51.1342 0.488281 54.2877 4.01711 54.2877 11.6003V22.1117H44.9025V12.8767C44.9025 10.6993 44.452 9.12264 42.1245 9.12264C39.797 9.12264 39.2714 10.5492 39.2714 13.6275V14.8288C39.2714 18.4327 39.9471 20.3848 43.2507 24.6645L49.4074 32.6231C53.7621 38.3293 55.1886 41.5578 55.1886 48.7656V50.7928C55.1886 60.178 51.1342 65.734 42.65 65.734Z" fill="#021F69"/>
<path d="M80.0405 1.08936V10.3994H67.652V27.1426H77.3375V36.8281H67.652V55.2981H80.566V64.9836H57.9666V1.08936H80.0405Z" fill="#021F69"/>
<path d="M106.77 52.97H99.7119L98.4355 64.983H89.7261L97.5345 1.01367H109.022L117.356 64.983H107.971L106.77 52.97ZM105.718 43.4346L103.166 19.784L100.688 43.4346H105.718Z" fill="#021F69"/>
<path d="M128.693 65.0587H119.008V1.08936H134.775C141.232 1.08936 144.46 3.86736 144.46 11.0001V22.3374C144.46 27.6682 141.983 29.6954 140.256 30.5212C142.433 31.4973 144.46 33.2242 144.46 37.5038V59.9531C144.46 62.5059 144.986 63.7072 145.436 64.6833V65.1338H135.826C135.376 64.458 134.85 63.3318 134.85 59.8781V40.5071C134.85 37.654 134.324 36.4527 131.246 36.4527H128.768V65.0587H128.693ZM128.693 27.3678H131.246C133.949 27.3678 134.775 25.641 134.775 22.7879V13.8532C134.775 11.0752 134.174 9.72371 131.246 9.72371H128.693V27.3678Z" fill="#021F69"/>
<path d="M164.057 10.3244V64.9836H154.446V10.3244H146.262V1.08936H172.24V10.3994H164.057V10.3244Z" fill="#021F69"/>
<path d="M198.219 52.97H191.161L189.885 64.983H181.175L188.984 1.01367H200.471L208.805 64.983H199.42L198.219 52.97ZM197.168 43.4346L194.615 19.784L192.137 43.4346H197.168Z" fill="#021F69"/>
<path d="M219.166 1.08936L227.5 35.4015V1.08936H236.36V65.0587H228.476L219.166 28.2688V65.0587H210.382V1.08936H219.166Z" fill="#021F69"/>
<path d="M239.964 1.08936H254.905C263.239 1.08936 265.792 5.81948 265.792 13.4027V52.3699C265.792 60.1784 262.864 65.0587 254.905 65.0587H240.039V1.08936H239.964ZM249.724 55.7486H252.052C254.98 55.7486 255.806 54.1719 255.806 50.7932V14.7542C255.806 11.0752 254.83 9.79879 252.427 9.79879H249.649V55.7486H249.724Z" fill="#021F69"/>
<path d="M0.00378418 68.3628H14.8699C23.2039 68.3628 25.7567 73.0929 25.7567 80.6761V119.643C25.7567 127.452 22.8285 132.332 14.8699 132.332H0.00378418V68.3628ZM9.68928 123.097H12.0168C14.945 123.097 15.7709 121.52 15.7709 118.142V82.1027C15.7709 78.4237 14.7948 77.1473 12.3922 77.1473H9.6142V123.097H9.68928Z" fill="#021F69"/>
<path d="M51.3593 68.3628V77.6729H38.9709V94.416H48.6564V104.102H38.9709V122.572H51.8849V132.257H29.2103V68.3628H51.3593Z" fill="#021F69"/>
<path d="M67.3517 133.007H65.4747C57.7413 133.007 53.6118 128.803 53.6118 120.919V108.08H63.2222V119.267C63.2222 122.195 64.1983 123.772 66.3756 123.772C68.7032 123.772 69.5291 122.195 69.5291 118.291V116.865C69.5291 112.285 69.0786 110.708 65.5498 106.128L59.3931 98.2445C55.2636 92.9137 54.0623 88.7842 54.0623 82.4023V80.3751C54.0623 71.8909 58.3419 67.9116 66.0002 67.9116H67.8022C75.8359 67.9116 78.9142 71.4404 78.9142 79.0237V89.535H69.5291V80.3C69.5291 78.1227 69.0786 76.546 66.7511 76.546C64.4235 76.546 63.898 77.9725 63.898 81.0509V82.2522C63.898 85.8561 64.5737 87.8082 67.8773 92.0878L74.0339 100.046C78.3887 105.753 79.8152 108.981 79.8152 116.189V118.216C79.8903 127.451 75.8359 133.007 67.3517 133.007Z" fill="#021F69"/>
<path d="M92.3539 132.332H82.6685V68.3628H92.3539V132.332Z" fill="#021F69"/>
<path d="M104.967 133.232C99.2613 133.232 95.6573 128.126 95.6573 121.519V81.5006C95.6573 74.3679 98.4354 67.7607 107.595 67.7607H109.472C119.909 67.7607 121.11 74.5181 121.11 82.1013V88.6334H111.65V81.4255C111.65 78.5725 110.974 77.0708 108.571 77.0708C106.544 77.0708 105.568 78.6475 105.568 81.4255V118.816C105.568 121.819 106.769 123.396 108.722 123.396C111.199 123.396 112.325 121.669 112.325 119.267V103.274H107.971V93.4386H121.56V132.331H116.079C116.004 131.955 115.254 128.802 114.428 126.024C113.752 128.201 110.448 133.157 105.568 133.157H104.967V133.232Z" fill="#021F69"/>
<path d="M133.724 68.3628L142.058 102.675V68.3628H150.917V132.332H143.034L133.724 95.5422V132.332H124.939V68.3628H133.724Z" fill="#021F69"/>
<path d="M176.295 133.007H174.418C166.684 133.007 162.555 128.803 162.555 120.919V108.08H172.165V119.267C172.165 122.195 173.141 123.772 175.319 123.772C177.646 123.772 178.472 122.195 178.472 118.291V116.865C178.472 112.285 178.022 110.708 174.493 106.128L168.336 98.2445C164.207 92.9137 163.005 88.7842 163.005 82.4023V80.3751C163.005 71.8909 167.285 67.9116 174.943 67.9116H176.745C184.704 67.9116 187.857 71.4404 187.857 79.0237V89.535H178.472V80.3C178.472 78.1227 178.022 76.546 175.694 76.546C173.367 76.546 172.841 77.9725 172.841 81.0509V82.2522C172.841 85.8561 173.517 87.8082 176.82 92.0878L182.977 100.046C187.332 105.753 188.758 108.981 188.758 116.189V118.216C188.833 127.451 184.779 133.007 176.295 133.007Z" fill="#021F69"/>
<path d="M207.454 119.342V104.476H216.989V119.267C216.989 126.175 214.736 133.082 205.351 133.082H203.174C193.338 133.082 191.236 126.025 191.236 119.568V80.5254C191.236 73.9934 194.089 67.6865 202.874 67.6865H205.126C215.788 67.6865 216.989 74.7442 216.989 80.9759V92.3883H207.454V81.1261C207.454 78.3481 206.628 76.9215 204.15 76.9215C201.747 76.9215 201.147 78.273 201.147 81.1261V119.117C201.147 121.97 202.123 123.472 204.225 123.472C206.628 123.697 207.454 121.97 207.454 119.342Z" fill="#021F69"/>
<path d="M236.435 104.252H229.828V132.332H220.142V68.3628H229.828V93.9655H236.435V68.3628H246.121V132.332H236.435V104.252Z" fill="#021F69"/>
<path d="M276.078 118.065C276.078 127 273.074 133.082 263.689 133.082H262.037C252.727 133.082 249.499 127 249.499 118.065V82.4767C249.499 73.6171 252.878 67.7607 261.962 67.7607H263.614C273.074 67.7607 276.078 73.6171 276.078 82.4016V118.065ZM266.167 81.9511C266.167 78.5725 265.041 77.0708 262.788 77.0708C260.311 77.0708 259.335 78.7226 259.335 81.9511V118.741C259.335 121.519 260.085 123.621 262.863 123.621C265.416 123.621 266.167 121.444 266.167 118.741V81.9511Z" fill="#021F69"/>
<path d="M305.735 118.065C305.735 127 302.732 133.082 293.347 133.082H291.695C282.385 133.082 279.156 127 279.156 118.065V82.4767C279.156 73.6171 282.535 67.7607 291.62 67.7607H293.271C302.732 67.7607 305.735 73.6171 305.735 82.4016V118.065ZM295.824 81.9511C295.824 78.5725 294.698 77.0708 292.446 77.0708C289.968 77.0708 288.992 78.7226 288.992 81.9511V118.741C288.992 121.519 289.743 123.621 292.521 123.621C295.073 123.621 295.824 121.444 295.824 118.741V81.9511Z" fill="#021F69"/>
<path d="M318.799 68.3628V122.421H330.662V132.332H309.114V68.3628H318.799Z" fill="#021F69"/>
</svg>
