<svg width="834" height="602" viewBox="0 0 834 602" fill="none" xmlns="http://www.w3.org/2000/svg">
<mask id="path-1-outside-1_132_19546" maskUnits="userSpaceOnUse" x="-6.94568" y="-16.3379" width="872.555" height="629.266" fill="black">
<rect fill="white" x="-6.94568" y="-16.3379" width="872.555" height="629.266"/>
<path fill-rule="evenodd" clip-rule="evenodd" d="M771.624 505.256L716.394 509.443C720.792 489.365 726.056 449.477 711.929 450.548C707.631 450.874 699.534 460.463 689.018 472.918C656.333 511.628 600.278 578.017 562.255 479.981C534.221 407.696 609.76 363.018 659.308 333.713C698.581 310.485 721.526 296.915 663.626 286.909C605.322 276.834 566.541 335.556 531.729 392.972L555.255 418.294L510.151 488.489L486.587 462.243C473.444 478.544 459.875 490.117 445.009 493.032C445.795 503.526 445.143 513.893 438.892 519.144C399.314 552.392 379.579 547.813 353.641 541.794C340.932 538.845 326.733 535.551 307.982 536.192C250.961 538.139 278.778 501.836 295.071 491.577C300.199 488.348 303.18 482.743 306.347 476.789C313.244 463.823 321.019 449.204 353.75 453.883C363.829 455.324 372.372 455.476 379.548 454.786C314.29 388.918 293.617 437.069 275.703 478.792C266.328 500.628 200.725 564.337 186.867 565.388C146.582 568.442 110.125 509.013 139.945 479.828C139.869 478.817 196.778 434.164 196.701 433.139C196.632 432.227 59.4116 441.708 59.3417 440.786L42.9338 224.345C75.3529 190.085 296.002 128.835 307.767 204.268C311.495 228.173 294.923 234.808 295.392 255.805L295.392 255.808C296.775 317.629 297.636 356.169 378.083 308.556C444.123 269.468 438.362 338.887 434.263 388.261C431.674 419.46 429.749 442.656 447.024 425.414C466.081 406.393 468.448 390.948 470.66 376.521C473.626 357.172 476.311 339.654 518.597 317.799C536.876 308.351 558.151 294.712 580.063 280.664C646.639 237.981 719.098 191.527 731.295 247.415C740.355 288.932 704.021 315.528 671.127 339.606C645.166 358.609 621.349 376.043 623.68 398.005C627.157 430.755 639.682 442.668 656.723 440.652C645.671 423.009 650.226 389.435 664.164 369.51C676.446 351.953 689.038 336.279 719.682 352.953C733.465 360.453 745.469 394.209 748.366 420.66C754.103 322.27 752.983 165.011 710.714 155.377C675.324 147.311 620.231 188.617 574.774 222.697C545.655 244.529 520.49 263.396 506.993 264.419C496.87 265.186 489.599 268.956 481.96 272.918C463.514 282.484 442.916 293.166 374.811 265.396C315.129 241.06 320.908 213.151 325.964 188.73C329.067 173.742 331.899 160.067 319.157 149.339C285.655 121.132 47.7294 148.035 40.5835 193.341C39.8853 184.131 37.6745 154.215 37.0857 147.201C35.9412 133.565 36.1628 135.026 34.1367 108.299C87.6036 94.1474 326.695 49.3822 347.21 80.7445C358.499 98.0024 354.133 120.303 350.128 140.76C345.035 166.775 340.525 189.81 369.529 195.711C375.802 196.987 383.304 197.72 391.674 197.907C391.36 197.681 391.05 197.448 390.744 197.211C389.588 196.633 388.92 192.666 388.46 189.932C388.32 189.105 388.2 188.39 388.091 187.916C387.158 183.869 385.18 180.244 383.189 176.596C381.086 172.742 378.969 168.862 378.054 164.429C376.106 154.993 375.9 144.309 378.13 135.047C379.151 130.802 382.081 123.684 386.315 122.896C388.966 122.402 390.328 127.747 391.082 130.708C391.198 131.166 391.3 131.566 391.391 131.88C391.961 133.866 392.515 135.849 393.067 137.826L393.069 137.831C394.934 144.512 396.783 151.134 399.227 157.653C402.208 165.606 407.21 174.211 415.219 174.626C421.098 174.931 426.513 173.346 430.575 168.248C437.21 159.922 432.786 152.745 428.092 145.134C427.364 143.953 426.63 142.762 425.929 141.555C425.267 140.413 424.589 139.261 423.905 138.099L423.903 138.096C416.259 125.114 407.858 110.847 412.111 94.8275C414.006 87.6874 420.685 67.3424 428.413 80.3656C431.8 86.0718 432.69 92.9861 433.577 99.8796C434.432 106.523 435.285 113.148 438.367 118.653C440.904 123.183 446.92 131.024 451.981 129.957C454.368 129.454 459.253 124.914 459.019 121.835C458.956 121.001 458.888 120.168 458.82 119.334C458.525 115.708 458.229 112.083 458.324 108.45C458.359 107.082 458.34 105.648 458.32 104.191C458.272 100.661 458.223 96.994 458.948 93.7779C459.437 91.609 462.595 91.6016 464.585 91.5969C465.006 91.5959 465.375 91.595 465.655 91.5738C476.776 90.7308 486.14 94.0756 494.297 103.858C501.51 112.508 502.737 127.395 503.686 138.909L503.697 139.05C504.461 148.317 505.144 157.593 505.827 166.868L505.833 166.947L505.833 166.948C506.049 169.889 506.266 172.83 506.485 175.77C533.098 164.745 555.792 149.604 567.136 130.33L542.555 102.951L591.305 37.7514L612.687 60.7666C633.868 48.1618 656.886 46.4168 666.973 45.6521C670.929 45.3522 677.464 44.0734 685.277 42.5445C713.081 37.1039 757.073 28.4955 758.67 49.5528C759.462 60.0087 765.98 83.8215 774.084 113.432C786.887 160.212 803.651 221.461 808.057 267.369C811.447 302.698 798.543 362.714 787.164 415.639C779.226 452.557 772.03 486.026 771.624 505.256ZM679.121 431.945C681.495 430.507 683.908 428.91 686.351 427.166C695.62 420.55 704.971 419.736 713.558 422.062C713.565 421.638 713.571 421.215 713.578 420.792L713.579 420.707C713.846 403.591 714.095 387.594 694.844 386.657C681.057 385.985 680.251 405.73 679.524 423.527C679.406 426.416 679.29 429.254 679.121 431.945Z"/>
</mask>
<path fill-rule="evenodd" clip-rule="evenodd" d="M771.624 505.256L716.394 509.443C720.792 489.365 726.056 449.477 711.929 450.548C707.631 450.874 699.534 460.463 689.018 472.918C656.333 511.628 600.278 578.017 562.255 479.981C534.221 407.696 609.76 363.018 659.308 333.713C698.581 310.485 721.526 296.915 663.626 286.909C605.322 276.834 566.541 335.556 531.729 392.972L555.255 418.294L510.151 488.489L486.587 462.243C473.444 478.544 459.875 490.117 445.009 493.032C445.795 503.526 445.143 513.893 438.892 519.144C399.314 552.392 379.579 547.813 353.641 541.794C340.932 538.845 326.733 535.551 307.982 536.192C250.961 538.139 278.778 501.836 295.071 491.577C300.199 488.348 303.18 482.743 306.347 476.789C313.244 463.823 321.019 449.204 353.75 453.883C363.829 455.324 372.372 455.476 379.548 454.786C314.29 388.918 293.617 437.069 275.703 478.792C266.328 500.628 200.725 564.337 186.867 565.388C146.582 568.442 110.125 509.013 139.945 479.828C139.869 478.817 196.778 434.164 196.701 433.139C196.632 432.227 59.4116 441.708 59.3417 440.786L42.9338 224.345C75.3529 190.085 296.002 128.835 307.767 204.268C311.495 228.173 294.923 234.808 295.392 255.805L295.392 255.808C296.775 317.629 297.636 356.169 378.083 308.556C444.123 269.468 438.362 338.887 434.263 388.261C431.674 419.46 429.749 442.656 447.024 425.414C466.081 406.393 468.448 390.948 470.66 376.521C473.626 357.172 476.311 339.654 518.597 317.799C536.876 308.351 558.151 294.712 580.063 280.664C646.639 237.981 719.098 191.527 731.295 247.415C740.355 288.932 704.021 315.528 671.127 339.606C645.166 358.609 621.349 376.043 623.68 398.005C627.157 430.755 639.682 442.668 656.723 440.652C645.671 423.009 650.226 389.435 664.164 369.51C676.446 351.953 689.038 336.279 719.682 352.953C733.465 360.453 745.469 394.209 748.366 420.66C754.103 322.27 752.983 165.011 710.714 155.377C675.324 147.311 620.231 188.617 574.774 222.697C545.655 244.529 520.49 263.396 506.993 264.419C496.87 265.186 489.599 268.956 481.96 272.918C463.514 282.484 442.916 293.166 374.811 265.396C315.129 241.06 320.908 213.151 325.964 188.73C329.067 173.742 331.899 160.067 319.157 149.339C285.655 121.132 47.7294 148.035 40.5835 193.341C39.8853 184.131 37.6745 154.215 37.0857 147.201C35.9412 133.565 36.1628 135.026 34.1367 108.299C87.6036 94.1474 326.695 49.3822 347.21 80.7445C358.499 98.0024 354.133 120.303 350.128 140.76C345.035 166.775 340.525 189.81 369.529 195.711C375.802 196.987 383.304 197.72 391.674 197.907C391.36 197.681 391.05 197.448 390.744 197.211C389.588 196.633 388.92 192.666 388.46 189.932C388.32 189.105 388.2 188.39 388.091 187.916C387.158 183.869 385.18 180.244 383.189 176.596C381.086 172.742 378.969 168.862 378.054 164.429C376.106 154.993 375.9 144.309 378.13 135.047C379.151 130.802 382.081 123.684 386.315 122.896C388.966 122.402 390.328 127.747 391.082 130.708C391.198 131.166 391.3 131.566 391.391 131.88C391.961 133.866 392.515 135.849 393.067 137.826L393.069 137.831C394.934 144.512 396.783 151.134 399.227 157.653C402.208 165.606 407.21 174.211 415.219 174.626C421.098 174.931 426.513 173.346 430.575 168.248C437.21 159.922 432.786 152.745 428.092 145.134C427.364 143.953 426.63 142.762 425.929 141.555C425.267 140.413 424.589 139.261 423.905 138.099L423.903 138.096C416.259 125.114 407.858 110.847 412.111 94.8275C414.006 87.6874 420.685 67.3424 428.413 80.3656C431.8 86.0718 432.69 92.9861 433.577 99.8796C434.432 106.523 435.285 113.148 438.367 118.653C440.904 123.183 446.92 131.024 451.981 129.957C454.368 129.454 459.253 124.914 459.019 121.835C458.956 121.001 458.888 120.168 458.82 119.334C458.525 115.708 458.229 112.083 458.324 108.45C458.359 107.082 458.34 105.648 458.32 104.191C458.272 100.661 458.223 96.994 458.948 93.7779C459.437 91.609 462.595 91.6016 464.585 91.5969C465.006 91.5959 465.375 91.595 465.655 91.5738C476.776 90.7308 486.14 94.0756 494.297 103.858C501.51 112.508 502.737 127.395 503.686 138.909L503.697 139.05C504.461 148.317 505.144 157.593 505.827 166.868L505.833 166.947L505.833 166.948C506.049 169.889 506.266 172.83 506.485 175.77C533.098 164.745 555.792 149.604 567.136 130.33L542.555 102.951L591.305 37.7514L612.687 60.7666C633.868 48.1618 656.886 46.4168 666.973 45.6521C670.929 45.3522 677.464 44.0734 685.277 42.5445C713.081 37.1039 757.073 28.4955 758.67 49.5528C759.462 60.0087 765.98 83.8215 774.084 113.432C786.887 160.212 803.651 221.461 808.057 267.369C811.447 302.698 798.543 362.714 787.164 415.639C779.226 452.557 772.03 486.026 771.624 505.256ZM679.121 431.945C681.495 430.507 683.908 428.91 686.351 427.166C695.62 420.55 704.971 419.736 713.558 422.062C713.565 421.638 713.571 421.215 713.578 420.792L713.579 420.707C713.846 403.591 714.095 387.594 694.844 386.657C681.057 385.985 680.251 405.73 679.524 423.527C679.406 426.416 679.29 429.254 679.121 431.945Z" fill="#021F69"/>
<path fill-rule="evenodd" clip-rule="evenodd" d="M771.624 505.256L716.394 509.443C720.792 489.365 726.056 449.477 711.929 450.548C707.631 450.874 699.534 460.463 689.018 472.918C656.333 511.628 600.278 578.017 562.255 479.981C534.221 407.696 609.76 363.018 659.308 333.713C698.581 310.485 721.526 296.915 663.626 286.909C605.322 276.834 566.541 335.556 531.729 392.972L555.255 418.294L510.151 488.489L486.587 462.243C473.444 478.544 459.875 490.117 445.009 493.032C445.795 503.526 445.143 513.893 438.892 519.144C399.314 552.392 379.579 547.813 353.641 541.794C340.932 538.845 326.733 535.551 307.982 536.192C250.961 538.139 278.778 501.836 295.071 491.577C300.199 488.348 303.18 482.743 306.347 476.789C313.244 463.823 321.019 449.204 353.75 453.883C363.829 455.324 372.372 455.476 379.548 454.786C314.29 388.918 293.617 437.069 275.703 478.792C266.328 500.628 200.725 564.337 186.867 565.388C146.582 568.442 110.125 509.013 139.945 479.828C139.869 478.817 196.778 434.164 196.701 433.139C196.632 432.227 59.4116 441.708 59.3417 440.786L42.9338 224.345C75.3529 190.085 296.002 128.835 307.767 204.268C311.495 228.173 294.923 234.808 295.392 255.805L295.392 255.808C296.775 317.629 297.636 356.169 378.083 308.556C444.123 269.468 438.362 338.887 434.263 388.261C431.674 419.46 429.749 442.656 447.024 425.414C466.081 406.393 468.448 390.948 470.66 376.521C473.626 357.172 476.311 339.654 518.597 317.799C536.876 308.351 558.151 294.712 580.063 280.664C646.639 237.981 719.098 191.527 731.295 247.415C740.355 288.932 704.021 315.528 671.127 339.606C645.166 358.609 621.349 376.043 623.68 398.005C627.157 430.755 639.682 442.668 656.723 440.652C645.671 423.009 650.226 389.435 664.164 369.51C676.446 351.953 689.038 336.279 719.682 352.953C733.465 360.453 745.469 394.209 748.366 420.66C754.103 322.27 752.983 165.011 710.714 155.377C675.324 147.311 620.231 188.617 574.774 222.697C545.655 244.529 520.49 263.396 506.993 264.419C496.87 265.186 489.599 268.956 481.96 272.918C463.514 282.484 442.916 293.166 374.811 265.396C315.129 241.06 320.908 213.151 325.964 188.73C329.067 173.742 331.899 160.067 319.157 149.339C285.655 121.132 47.7294 148.035 40.5835 193.341C39.8853 184.131 37.6745 154.215 37.0857 147.201C35.9412 133.565 36.1628 135.026 34.1367 108.299C87.6036 94.1474 326.695 49.3822 347.21 80.7445C358.499 98.0024 354.133 120.303 350.128 140.76C345.035 166.775 340.525 189.81 369.529 195.711C375.802 196.987 383.304 197.72 391.674 197.907C391.36 197.681 391.05 197.448 390.744 197.211C389.588 196.633 388.92 192.666 388.46 189.932C388.32 189.105 388.2 188.39 388.091 187.916C387.158 183.869 385.18 180.244 383.189 176.596C381.086 172.742 378.969 168.862 378.054 164.429C376.106 154.993 375.9 144.309 378.13 135.047C379.151 130.802 382.081 123.684 386.315 122.896C388.966 122.402 390.328 127.747 391.082 130.708C391.198 131.166 391.3 131.566 391.391 131.88C391.961 133.866 392.515 135.849 393.067 137.826L393.069 137.831C394.934 144.512 396.783 151.134 399.227 157.653C402.208 165.606 407.21 174.211 415.219 174.626C421.098 174.931 426.513 173.346 430.575 168.248C437.21 159.922 432.786 152.745 428.092 145.134C427.364 143.953 426.63 142.762 425.929 141.555C425.267 140.413 424.589 139.261 423.905 138.099L423.903 138.096C416.259 125.114 407.858 110.847 412.111 94.8275C414.006 87.6874 420.685 67.3424 428.413 80.3656C431.8 86.0718 432.69 92.9861 433.577 99.8796C434.432 106.523 435.285 113.148 438.367 118.653C440.904 123.183 446.92 131.024 451.981 129.957C454.368 129.454 459.253 124.914 459.019 121.835C458.956 121.001 458.888 120.168 458.82 119.334C458.525 115.708 458.229 112.083 458.324 108.45C458.359 107.082 458.34 105.648 458.32 104.191C458.272 100.661 458.223 96.994 458.948 93.7779C459.437 91.609 462.595 91.6016 464.585 91.5969C465.006 91.5959 465.375 91.595 465.655 91.5738C476.776 90.7308 486.14 94.0756 494.297 103.858C501.51 112.508 502.737 127.395 503.686 138.909L503.697 139.05C504.461 148.317 505.144 157.593 505.827 166.868L505.833 166.947L505.833 166.948C506.049 169.889 506.266 172.83 506.485 175.77C533.098 164.745 555.792 149.604 567.136 130.33L542.555 102.951L591.305 37.7514L612.687 60.7666C633.868 48.1618 656.886 46.4168 666.973 45.6521C670.929 45.3522 677.464 44.0734 685.277 42.5445C713.081 37.1039 757.073 28.4955 758.67 49.5528C759.462 60.0087 765.98 83.8215 774.084 113.432C786.887 160.212 803.651 221.461 808.057 267.369C811.447 302.698 798.543 362.714 787.164 415.639C779.226 452.557 772.03 486.026 771.624 505.256ZM679.121 431.945C681.495 430.507 683.908 428.91 686.351 427.166C695.62 420.55 704.971 419.736 713.558 422.062C713.565 421.638 713.571 421.215 713.578 420.792L713.579 420.707C713.846 403.591 714.095 387.594 694.844 386.657C681.057 385.985 680.251 405.73 679.524 423.527C679.406 426.416 679.29 429.254 679.121 431.945Z" stroke="#021F69" stroke-width="71.1278" stroke-linejoin="round" mask="url(#path-1-outside-1_132_19546)"/>
<path d="M51.235 120.365C57.7354 119.374 61.7925 115.553 61.9911 107.968C61.9945 107.721 61.8156 107.625 61.6551 107.65L57.3215 108.311C57.161 108.335 57.0529 108.434 57.0434 108.64C57.0681 113.112 54.8671 115.911 50.5335 116.572C45.277 117.373 41.6123 114.072 40.5417 107.05C39.5324 100.429 41.9056 95.7975 47.2825 94.9778C51.2148 94.3783 54.1751 96.021 55.654 100.066C55.7186 100.22 55.8111 100.288 55.9716 100.264L60.2249 99.6151C60.3854 99.5906 60.4875 99.4519 60.4569 99.2513C57.8405 92.0543 52.5999 90.2666 46.7816 91.1536C38.4755 92.4199 34.1339 98.9532 35.492 107.861C36.8378 116.689 42.8086 121.65 51.235 120.365ZM76.3385 116.456C82.879 115.459 85.8698 110.569 84.8788 104.068C83.8817 97.5277 79.5818 93.831 73.0413 94.8282C66.5408 95.8192 63.5099 100.716 64.5071 107.256C65.5042 113.797 69.8381 117.447 76.3385 116.456ZM75.843 113.206C72.3119 113.744 70.161 111.485 69.4024 106.51C68.65 101.574 69.9717 98.663 73.5368 98.0784C77.0277 97.5462 79.163 99.9716 79.9154 104.907C80.674 109.883 79.3741 112.668 75.843 113.206ZM98.7276 109.717C95.2768 110.243 93.1347 108.311 92.2428 103.808L107.37 101.502C107.531 101.477 107.639 101.378 107.608 101.178C106.451 94.1279 102.145 90.3911 95.7253 91.3699C89.4255 92.3303 86.3204 97.2791 87.3115 103.779C88.2719 110.079 92.5221 113.989 99.183 112.973C104.761 112.123 107.642 108.399 107.539 104.227C107.555 104.06 107.416 103.958 107.256 103.983L103.163 104.606C103.002 104.631 102.934 104.723 102.919 104.89C102.739 107.751 101.296 109.325 98.7276 109.717ZM96.2548 94.5739C99.4247 94.0906 101.329 96.3459 101.958 99.1242L91.9261 100.654C91.8816 97.1293 93.2855 95.0266 96.2548 94.5739ZM125.707 87.2918L111.101 89.5186C110.94 89.543 110.832 89.6416 110.863 89.8423C111.452 94.5152 111.89 99.0059 111.961 101.623C112.007 104.079 111.72 105.971 110.802 107.219L109.398 107.433C109.237 107.458 109.135 107.597 109.16 107.757L110.352 115.582C110.377 115.742 110.516 115.844 110.676 115.82L114.408 115.251C114.568 115.226 114.67 115.088 114.646 114.927L114.051 110.214L127.693 108.134L128.529 112.81C128.554 112.971 128.693 113.073 128.853 113.049L132.545 112.486C132.705 112.461 132.807 112.323 132.783 112.162L131.59 104.337C131.565 104.177 131.427 104.075 131.266 104.099L128.819 104.473L127.539 97.154L126.03 87.5299C126.006 87.3694 125.867 87.2674 125.707 87.2918ZM124.003 105.207L115.376 106.522C115.891 105.048 116.174 103.403 116.088 100.953C116.016 98.8696 115.709 95.5085 115.393 92.3542L121.813 91.3754L122.878 97.8235L124.003 105.207ZM138.352 101.131L137.637 95.9019L136.206 85.9786C136.182 85.8181 136.043 85.716 135.882 85.7405L131.589 86.3951C131.428 86.4195 131.326 86.5583 131.351 86.7188L132.893 96.2966L134.416 106.822C134.44 106.982 134.579 107.084 134.739 107.06L139.875 106.277C139.996 106.259 140.15 106.194 140.206 106.021L146.292 89.6553L146.94 94.4426L148.419 104.687C148.444 104.847 148.583 104.949 148.743 104.925L152.997 104.277C153.157 104.252 153.259 104.113 153.235 103.953L151.594 93.7329L150.17 83.8497C150.145 83.6892 150.007 83.5872 149.846 83.6117L144.79 84.3825C144.67 84.4008 144.515 84.4654 144.46 84.6381L138.352 101.131ZM168.121 89.0784L159.373 90.412L158.267 82.6153C158.242 82.4548 158.104 82.3528 157.943 82.3772L153.609 83.0379C153.449 83.0624 153.347 83.2011 153.371 83.3616L154.957 93.2204L156.436 103.465C156.461 103.625 156.599 103.727 156.76 103.703L161.094 103.042C161.254 103.018 161.356 102.879 161.332 102.718L159.899 93.8628L168.647 92.5292L169.959 101.403C169.983 101.564 170.122 101.666 170.282 101.641L174.616 100.981C174.776 100.956 174.878 100.817 174.854 100.657L173.214 90.437L171.789 80.5538C171.765 80.3933 171.626 80.2912 171.466 80.3157L167.132 80.9764C166.971 81.0008 166.869 81.1396 166.894 81.3001L168.121 89.0784ZM183.91 78.4185C177.891 79.3361 175.12 81.8936 175.787 86.2674C176.3 89.638 178.292 91.3873 181.516 91.7991L177.903 100.151C177.807 100.33 177.952 100.472 178.153 100.441L182.486 99.7807C182.607 99.7623 182.761 99.6977 182.817 99.525L184.356 95.3487L185.802 91.6382L189.695 91.0449L190.75 98.2335C190.774 98.394 190.913 98.496 191.073 98.4716L195.407 97.8109C195.567 97.7864 195.669 97.6477 195.645 97.4872L194.005 87.2673L192.58 77.3841C192.556 77.2236 192.417 77.1216 192.256 77.146L183.91 78.4185ZM189.239 87.7885L185.307 88.388C182.699 88.7857 181.037 87.8484 180.694 85.6013C180.382 83.5549 181.631 82.0506 184.279 81.6469L188.171 81.0535L189.239 87.7885ZM208.282 93.0149C204.832 93.541 202.689 91.6094 201.798 87.1057L216.925 84.7995C217.086 84.775 217.194 84.6764 217.163 84.4758C216.006 77.4259 211.7 73.6891 205.28 74.6678C198.98 75.6283 195.875 80.577 196.866 87.0774C197.827 93.3772 202.077 97.2867 208.738 96.2712C214.315 95.4209 217.196 91.697 217.094 87.5246C217.11 87.358 216.971 87.256 216.811 87.2805L212.718 87.9044C212.557 87.9289 212.489 88.0214 212.474 88.188C212.294 91.0484 210.85 92.6234 208.282 93.0149ZM205.81 77.8718C208.979 77.3885 210.884 79.6439 211.512 82.4221L201.481 83.9514C201.436 80.4272 202.84 78.3245 205.81 77.8718ZM232.029 86.7669L224.151 72.5299C224.087 72.3755 223.954 72.3136 223.794 72.3381L218.457 73.1517C218.296 73.1762 218.194 73.3149 218.219 73.4754L219.847 83.615L221.283 93.5785C221.308 93.739 221.447 93.841 221.607 93.8166L224.898 93.3149C225.058 93.2905 225.16 93.1517 225.136 92.9912L223.676 83.6881L222.929 79.3266L222.58 77.5733L230.679 92.1872C230.744 92.3415 230.876 92.4034 231.037 92.379L233.966 91.9324C234.126 91.9079 234.235 91.8093 234.25 91.6427L237.509 75.5847L237.73 77.0292L238.322 81.4553L239.741 90.7645C239.766 90.925 239.905 91.027 240.065 91.0026L244.118 90.3847C244.278 90.3602 244.38 90.2215 244.356 90.061L242.799 80.1159L241.291 69.9579C241.267 69.7974 241.128 69.6954 240.967 69.7199L235.591 70.5396C235.43 70.564 235.322 70.6627 235.306 70.8293L232.029 86.7669Z" fill="white"/>
<path d="M61.9911 107.968L78.5029 108.4C78.5047 108.333 78.5061 108.265 78.507 108.197L61.9911 107.968ZM57.0434 108.64L40.5434 107.879C40.5303 108.163 40.5245 108.448 40.5261 108.732L57.0434 108.64ZM55.654 100.066L40.1409 105.738C40.2274 105.974 40.3193 106.209 40.4164 106.441L55.654 100.066ZM60.4569 99.2513L76.7857 96.7619C76.6218 95.6866 76.352 94.6301 75.9804 93.6079L60.4569 99.2513ZM53.7244 136.694C59.5337 135.808 66.0735 133.361 71.1722 127.779C76.345 122.115 78.3276 115.098 78.5029 108.4L45.4792 107.536C45.4667 108.013 45.4058 107.918 45.57 107.454C45.7503 106.945 46.1238 106.219 46.7803 105.5C48.1757 103.972 49.4368 103.931 48.7456 104.036L53.7244 136.694ZM78.507 108.197C78.5685 103.76 76.8248 98.528 72.2393 94.8384C68.0581 91.474 63.1337 90.7161 59.1657 91.321L64.1445 123.979C60.337 124.559 55.5824 123.837 51.5299 120.576C47.0731 116.99 45.4171 111.929 45.4752 107.739L78.507 108.197ZM59.1657 91.321L54.8321 91.9817L59.8109 124.639L64.1445 123.979L59.1657 91.321ZM54.8321 91.9817C52.0385 92.4076 48.0948 93.7575 44.8592 97.3456C41.6155 100.943 40.6752 105.024 40.5434 107.879L73.5433 109.402C73.4211 112.05 72.5396 115.979 69.3925 119.469C66.2535 122.95 62.4441 124.238 59.8109 124.639L54.8321 91.9817ZM40.5261 108.732C40.5238 108.306 40.6364 106.042 42.5989 103.625C44.6557 101.091 47.1169 100.384 48.0441 100.243L53.0229 132.901C58.2837 132.098 64.0122 129.662 68.2467 124.445C72.387 119.345 73.5877 113.446 73.5606 108.549L40.5261 108.732ZM48.0441 100.243C48.6901 100.144 49.8682 100.088 51.3403 100.499C52.8655 100.924 54.2256 101.719 55.2739 102.703C57.2266 104.537 57.087 105.98 56.8706 104.561L24.2129 109.54C25.067 115.142 27.295 121.747 32.6618 126.786C38.5756 132.339 46.1167 133.953 53.0229 132.901L48.0441 100.243ZM56.8706 104.561C56.7015 103.452 57.1734 104.63 56.017 106.75C55.3914 107.896 54.4122 109.052 53.0897 109.949C51.7891 110.831 50.5686 111.185 49.7719 111.307L44.7931 78.649C37.3865 79.7782 30.8051 83.9856 27.0176 90.9275C23.5827 97.223 23.3727 104.028 24.2129 109.54L56.8706 104.561ZM49.7719 111.307C48.8825 111.442 46.5441 111.52 43.9534 109.982C41.3646 108.444 40.3813 106.395 40.1409 105.738L71.1671 94.3935C69.4478 89.6914 66.2449 84.799 60.8232 81.5788C55.3995 78.3574 49.6148 77.9139 44.7931 78.649L49.7719 111.307ZM40.4164 106.441C41.0995 108.073 42.8345 111.525 46.7891 114.09C51.118 116.897 55.5621 117.034 58.461 116.592L53.4822 83.9347C56.2206 83.5173 60.5381 83.6325 64.7645 86.3735C68.6167 88.8718 70.2731 92.2121 70.8915 93.6903L40.4164 106.441ZM58.461 116.592L62.7143 115.944L57.7355 83.2863L53.4822 83.9347L58.461 116.592ZM62.7143 115.944C67.0606 115.281 71.3704 112.853 74.1694 108.641C76.8975 104.536 77.2981 100.123 76.7857 96.7619L44.128 101.741C43.6462 98.5804 44.0111 94.3368 46.6557 90.3573C49.3712 86.271 53.5498 83.9244 57.7355 83.2863L62.7143 115.944ZM75.9804 93.6079C73.5593 86.9482 69.1924 81.045 62.4703 77.532C56.0327 74.1677 49.4261 74.0421 44.2922 74.8248L49.271 107.482C49.9554 107.378 48.8782 107.703 47.1696 106.81C46.3129 106.362 45.6567 105.783 45.2308 105.26C44.8348 104.774 44.8073 104.548 44.9333 104.895L75.9804 93.6079ZM44.2922 74.8248C36.2014 76.0583 28.6761 80.1838 23.8069 87.4235C19.0541 94.49 18.0057 102.759 19.1632 110.351L51.8208 105.372C51.6202 104.056 52.0636 104.604 51.2186 105.86C50.8179 106.456 50.3009 106.922 49.8035 107.22C49.3284 107.504 49.0815 107.511 49.271 107.482L44.2922 74.8248ZM19.1632 110.351C20.305 117.84 23.7042 125.426 30.3559 130.776C37.1896 136.273 45.6286 137.928 53.7244 136.694L48.7456 104.036C48.4971 104.074 48.7117 104.001 49.2522 104.131C49.8219 104.267 50.4761 104.564 51.0607 105.035C52.2839 106.019 52.0248 106.71 51.8208 105.372L19.1632 110.351ZM73.5368 98.0784L71.0474 81.7496C70.9862 81.7589 70.9251 81.7685 70.8641 81.7786L73.5368 98.0784ZM78.8279 132.785C85.8744 131.711 92.7297 128.151 97.1718 121.495C101.458 115.073 102.154 107.787 101.208 101.579L68.55 106.558C68.5946 106.85 68.2909 105.259 69.6941 103.157C70.3816 102.127 71.2666 101.327 72.1666 100.795C73.0335 100.282 73.6807 100.153 73.8491 100.127L78.8279 132.785ZM101.208 101.579C100.261 95.3695 97.4294 88.5914 91.3702 83.734C85.1067 78.7128 77.5065 77.4391 70.5519 78.4994L75.5306 111.157C75.1165 111.22 72.9366 111.296 70.7074 109.509C68.6826 107.886 68.4995 106.226 68.55 106.558L101.208 101.579ZM70.5519 78.4994C63.5004 79.5744 56.6589 83.1481 52.2249 89.7903C47.9427 96.205 47.2256 103.497 48.1782 109.746L80.8359 104.767C80.7914 104.475 81.0912 106.048 79.7003 108.132C79.0197 109.151 78.142 109.947 77.2436 110.48C76.3767 110.993 75.7213 111.128 75.5306 111.157L70.5519 78.4994ZM48.1782 109.746C49.1321 116.002 52.0009 122.777 58.0807 127.61C64.3427 132.588 71.9164 133.839 78.8279 132.785L73.8491 100.127C74.2602 100.065 76.4167 99.9852 78.6375 101.751C80.6759 103.371 80.8792 105.05 80.8359 104.767L48.1782 109.746ZM73.3536 96.877C74.4177 96.7148 76.1537 96.6494 78.2159 97.2703C80.3628 97.9168 82.1695 99.1014 83.5019 100.49C85.8449 102.932 85.8906 105.066 85.7313 104.02L53.0736 108.999C53.6728 112.929 55.1733 118.68 59.6641 123.361C65.0386 128.963 72.1397 130.479 78.3324 129.535L73.3536 96.877ZM85.7313 104.02C85.5728 102.981 86.1386 104.905 84.7355 107.822C83.9343 109.488 82.6263 111.16 80.7947 112.451C79.023 113.699 77.3266 114.195 76.2095 114.378L70.8641 81.7786C64.4856 82.8244 58.2837 86.6042 54.9655 93.5026C52.1984 99.2553 52.4797 105.103 53.0736 108.999L85.7313 104.02ZM76.0262 114.407C74.7828 114.597 72.9121 114.627 70.7702 113.927C68.5735 113.21 66.8265 111.962 65.5974 110.626C63.4538 108.296 63.4288 106.361 63.5866 107.396L96.2443 102.418C95.6496 98.5173 94.1808 92.9024 89.9086 88.2589C84.758 82.6606 77.6713 80.7397 71.0474 81.7496L76.0262 114.407ZM63.5866 107.396C63.7649 108.566 63.1556 106.546 64.6243 103.516C65.4727 101.766 66.8536 100.045 68.7561 98.7446C70.5794 97.4985 72.292 97.0389 73.3536 96.877L78.3324 129.535C84.5605 128.585 90.9322 124.979 94.3513 117.925C97.1631 112.124 96.8245 106.224 96.2443 102.418L63.5866 107.396ZM92.2428 103.808L89.7534 87.479C85.2975 88.1583 81.3127 90.6291 78.7232 94.3184C76.1337 98.0077 75.1643 102.595 76.04 107.017L92.2428 103.808ZM107.608 101.178L123.937 98.6885C123.928 98.6266 123.918 98.5648 123.908 98.5031L107.608 101.178ZM107.539 104.227L91.0943 102.682C91.0334 103.33 91.0109 103.981 91.0269 104.632L107.539 104.227ZM102.919 104.89L86.4737 103.345C86.4578 103.514 86.4445 103.684 86.4338 103.854L102.919 104.89ZM101.958 99.1242L104.447 115.453C108.98 114.762 113.021 112.218 115.604 108.43C118.188 104.641 119.08 99.9497 118.068 95.4777L101.958 99.1242ZM91.9261 100.654L75.41 100.862C75.4704 105.641 77.5975 110.159 81.242 113.25C84.8865 116.341 89.6912 117.703 94.4155 116.982L91.9261 100.654ZM96.2382 93.3882C97.0996 93.2569 98.596 93.1697 100.443 93.638C102.384 94.13 104.182 95.1047 105.635 96.4253C108.299 98.8464 108.572 101.239 108.446 100.599L76.04 107.017C76.8051 110.88 78.5956 116.491 83.4162 120.872C88.9496 125.901 95.7052 126.886 101.217 126.046L96.2382 93.3882ZM94.7322 120.137L109.86 117.83L104.881 85.1727L89.7534 87.479L94.7322 120.137ZM109.86 117.83C112.428 117.439 116.86 116.116 120.335 111.878C124.076 107.314 124.464 102.143 123.937 98.6885L91.2795 103.667C90.7835 100.414 91.1322 95.3924 94.7872 90.9339C98.1754 86.801 102.473 85.5398 104.881 85.1727L109.86 117.83ZM123.908 98.5031C122.903 92.3775 120.18 85.5652 114.24 80.5948C107.98 75.358 100.299 73.9643 93.2359 75.0411L98.2147 107.699C97.9997 107.732 97.2725 107.803 96.2166 107.546C95.115 107.277 93.9961 106.73 93.0414 105.931C91.1479 104.347 91.1572 102.928 91.3088 103.853L123.908 98.5031ZM93.2359 75.0411C86.103 76.1285 79.3647 79.8192 75.0214 86.3643C70.8213 92.6936 70.0165 99.9318 70.9826 106.269L103.64 101.29C103.615 101.127 103.868 102.64 102.547 104.63C101.084 106.836 99.0477 107.572 98.2147 107.699L93.2359 75.0411ZM70.9826 106.269C71.9171 112.398 74.7357 119.097 80.6916 123.937C86.8872 128.973 94.5103 130.394 101.672 129.302L96.6936 96.6445C96.8511 96.6205 97.5051 96.5504 98.4866 96.7846C99.5036 97.0273 100.577 97.5297 101.527 98.3019C103.453 99.8669 103.666 101.461 103.64 101.29L70.9826 106.269ZM101.672 129.302C114.406 127.361 124.383 117.339 124.052 103.822L91.0269 104.632C90.979 102.682 91.6751 100.504 93.2207 98.7885C94.7477 97.0939 96.3098 96.703 96.6936 96.6445L101.672 129.302ZM123.984 105.772C124.488 100.411 122.384 94.9057 117.935 91.2592C113.799 87.8682 108.85 87.0312 104.766 87.6537L109.745 120.311C105.823 120.909 101.023 120.111 96.9918 116.807C92.6494 113.247 90.6063 107.876 91.0943 102.682L123.984 105.772ZM104.766 87.6537L100.674 88.2777L105.652 120.935L109.745 120.311L104.766 87.6537ZM100.674 88.2777C97.7746 88.7196 93.5733 90.1747 90.2777 94.1445C87.267 97.7711 86.6393 101.583 86.4737 103.345L119.364 106.435C119.214 108.031 118.628 111.713 115.695 115.245C112.478 119.121 108.391 120.518 105.652 120.935L100.674 88.2777ZM86.4338 103.854C86.5022 102.765 86.9479 100.011 89.3196 97.3166C91.7661 94.5369 94.6652 93.628 96.2382 93.3882L101.217 126.046C105.358 125.415 110.263 123.522 114.118 119.142C117.898 114.847 119.156 109.875 119.404 105.926L86.4338 103.854ZM98.7442 110.903C95.5185 111.394 91.8186 110.417 89.0458 107.936C86.7535 105.885 86.0587 103.703 85.8477 102.771L118.068 95.4777C117.228 91.767 115.266 87.0683 111.072 83.316C106.398 79.1339 100.161 77.27 93.7654 78.245L98.7442 110.903ZM99.4682 82.7953L89.4367 84.3247L94.4155 116.982L104.447 115.453L99.4682 82.7953ZM108.442 100.445C108.445 100.667 108.465 103.118 106.488 105.939C104.18 109.234 100.909 110.573 98.7442 110.903L93.7654 78.245C88.631 79.0278 83.1739 81.6437 79.4324 86.9843C76.0224 91.8516 75.3626 97.1158 75.41 100.862L108.442 100.445ZM110.863 89.8423L127.25 87.7758C127.233 87.6346 127.213 87.4936 127.192 87.3529L110.863 89.8423ZM111.961 101.623L128.475 101.313C128.474 101.268 128.473 101.223 128.472 101.178L111.961 101.623ZM110.802 107.219L113.291 123.548C117.622 122.888 121.513 120.534 124.109 117.005L110.802 107.219ZM114.646 114.927L98.2586 116.997C98.2763 117.137 98.2958 117.277 98.3171 117.416L114.646 114.927ZM114.051 110.214L111.561 93.8852C102.706 95.2352 96.5407 103.397 97.6633 112.284L114.051 110.214ZM127.693 108.134L143.953 105.227C142.376 96.4094 134.059 90.4553 125.204 91.8053L127.693 108.134ZM128.529 112.81L144.858 110.321C144.837 110.182 144.814 110.042 144.789 109.903L128.529 112.81ZM128.819 104.473L112.548 107.318C114.095 116.166 122.429 122.155 131.308 120.801L128.819 104.473ZM127.539 97.154L111.22 99.7114C111.235 99.8076 111.251 99.9037 111.268 99.9996L127.539 97.154ZM126.03 87.5299L109.701 90.0193C109.705 90.042 109.708 90.0646 109.712 90.0873L126.03 87.5299ZM124.003 105.207L126.493 121.535C135.511 120.161 141.707 111.735 140.332 102.717L124.003 105.207ZM115.376 106.522L99.7804 101.082C97.8725 106.552 98.9695 112.621 102.671 117.077C106.373 121.533 112.139 123.724 117.866 122.851L115.376 106.522ZM116.088 100.953L99.5797 101.517C99.5799 101.522 99.5801 101.528 99.5803 101.533L116.088 100.953ZM115.393 92.3542L112.903 76.0254C104.21 77.3507 98.0793 85.2545 98.9577 94.0041L115.393 92.3542ZM121.813 91.3754L138.109 88.6834C136.636 79.762 128.262 73.6838 119.323 75.0466L121.813 91.3754ZM122.878 97.8235L139.207 95.3341C139.196 95.2665 139.186 95.1989 139.175 95.1315L122.878 97.8235ZM123.217 70.963L108.611 73.1897L113.59 105.847L128.196 103.621L123.217 70.963ZM108.611 73.1897C106.043 73.5813 101.611 74.9041 98.1363 79.1426C94.3947 83.7067 94.0072 88.8774 94.5339 92.3317L127.192 87.3529C127.688 90.6065 127.339 95.6276 123.684 100.086C120.296 104.219 115.998 105.48 113.59 105.847L108.611 73.1897ZM94.475 91.9087C95.0549 96.5078 95.402 100.317 95.4492 102.068L128.472 101.178C128.378 97.6952 127.849 92.5227 127.25 87.7758L94.475 91.9087ZM95.4461 101.932C95.4576 102.545 95.4041 102.369 95.5248 101.744C95.6493 101.099 96.0747 99.3653 97.4955 97.4333L124.109 117.005C128.506 111.026 128.53 104.212 128.475 101.313L95.4461 101.932ZM108.313 90.8904L106.908 91.1046L111.887 123.762L113.291 123.548L108.313 90.8904ZM106.908 91.1046C97.7296 92.5039 91.4314 101.068 92.8307 110.246L125.488 105.268C126.839 114.125 120.745 122.412 111.887 123.762L106.908 91.1046ZM92.8307 110.246L94.0236 118.071L126.681 113.092L125.488 105.268L92.8307 110.246ZM94.0236 118.071C95.4229 127.25 103.987 133.548 113.166 132.149L108.187 99.4909C117.044 98.1405 125.331 104.235 126.681 113.092L94.0236 118.071ZM113.166 132.149L116.897 131.58L111.918 98.922L108.187 99.4909L113.166 132.149ZM116.897 131.58C126.076 130.18 132.374 121.616 130.975 112.438L98.3171 117.416C96.9667 108.559 103.061 100.272 111.918 98.922L116.897 131.58ZM131.033 112.857L130.438 108.144L97.6633 112.284L98.2586 116.997L131.033 112.857ZM116.54 126.543L130.183 124.463L125.204 91.8053L111.561 93.8852L116.54 126.543ZM111.434 111.041L112.27 115.718L144.789 109.903L143.953 105.227L111.434 111.041ZM112.201 115.3C113.6 124.479 122.164 130.777 131.343 129.377L126.364 96.7197C135.221 95.3693 143.508 101.463 144.858 110.321L112.201 115.3ZM131.343 129.377L135.034 128.815L130.055 96.1569L126.364 96.7197L131.343 129.377ZM135.034 128.815C144.213 127.415 150.511 118.851 149.112 109.673L116.454 114.651C115.104 105.794 121.198 97.5073 130.055 96.1569L135.034 128.815ZM149.112 109.673L147.919 101.848L115.261 106.827L116.454 114.651L149.112 109.673ZM147.919 101.848C146.519 92.6695 137.956 86.3713 128.777 87.7706L133.756 120.428C124.898 121.779 116.612 115.684 115.261 106.827L147.919 101.848ZM128.777 87.7706L126.329 88.1438L131.308 120.801L133.756 120.428L128.777 87.7706ZM145.089 101.627L143.809 94.3084L111.268 99.9996L112.548 107.318L145.089 101.627ZM143.857 94.5966L142.349 84.9725L109.712 90.0873L111.22 99.7114L143.857 94.5966ZM142.359 85.0405C140.96 75.8619 132.396 69.5637 123.217 70.963L128.196 103.621C119.338 104.971 111.052 98.8769 109.701 90.0193L142.359 85.0405ZM121.514 88.8778L112.887 90.1931L117.866 122.851L126.493 121.535L121.514 88.8778ZM130.972 111.962C132.255 108.284 132.742 104.561 132.595 100.372L99.5803 101.533C99.5964 101.993 99.5664 102.051 99.5943 101.848C99.6082 101.747 99.6321 101.614 99.6695 101.46C99.7069 101.307 99.7474 101.177 99.7804 101.082L130.972 111.962ZM132.595 100.388C132.502 97.6704 132.135 93.7679 131.827 90.7044L98.9577 94.0041C99.2834 97.2491 99.5302 100.069 99.5797 101.517L132.595 100.388ZM117.882 108.683L124.302 107.704L119.323 75.0466L112.903 76.0254L117.882 108.683ZM105.516 94.0675L106.581 100.516L139.175 95.1315L138.109 88.6834L105.516 94.0675ZM106.549 100.313L107.675 107.696L140.332 102.717L139.207 95.3341L106.549 100.313ZM138.352 101.131L121.987 103.368C123.013 110.876 129.016 116.722 136.548 117.549C144.081 118.377 151.209 113.973 153.841 106.867L138.352 101.131ZM137.637 95.9019L154.002 93.664C153.996 93.6242 153.991 93.5845 153.985 93.5448L137.637 95.9019ZM136.206 85.9786L152.554 83.6215C152.548 83.5773 152.542 83.5332 152.535 83.4892L136.206 85.9786ZM131.351 86.7188L115.022 89.2082C115.029 89.2537 115.036 89.2992 115.043 89.3447L131.351 86.7188ZM132.893 96.2966L149.24 93.932C149.228 93.8448 149.214 93.7577 149.2 93.6707L132.893 96.2966ZM134.416 106.822L118.068 109.187C118.074 109.228 118.08 109.27 118.087 109.311L134.416 106.822ZM140.206 106.021L124.724 100.264C124.64 100.489 124.562 100.716 124.488 100.945L140.206 106.021ZM146.292 89.6553L162.66 87.4407C161.644 79.9315 155.649 74.0768 148.118 73.2391C140.587 72.4014 133.452 76.7956 130.81 83.898L146.292 89.6553ZM146.94 94.4426L130.571 96.6572C130.578 96.7061 130.585 96.755 130.592 96.8038L146.94 94.4426ZM148.419 104.687L132.072 107.048C132.078 107.091 132.084 107.134 132.091 107.176L148.419 104.687ZM153.235 103.953L169.563 101.463C169.557 101.421 169.55 101.378 169.543 101.335L153.235 103.953ZM151.594 93.7329L135.246 96.0895C135.258 96.1766 135.272 96.2635 135.286 96.3503L151.594 93.7329ZM150.17 83.8497L166.518 81.4932C166.512 81.4489 166.505 81.4046 166.499 81.3603L150.17 83.8497ZM144.46 84.6381L159.949 90.3746C160.03 90.1561 160.106 89.9359 160.178 89.7141L144.46 84.6381ZM154.717 98.8926L154.002 93.664L121.272 98.1398L121.987 103.368L154.717 98.8926ZM153.985 93.5448L152.554 83.6215L119.858 88.3357L121.288 98.259L153.985 93.5448ZM152.535 83.4892C151.136 74.3106 142.572 68.0123 133.393 69.4117L138.372 102.069C129.514 103.42 121.228 97.3255 119.877 88.468L152.535 83.4892ZM133.393 69.4117L129.099 70.0662L134.078 102.724L138.372 102.069L133.393 69.4117ZM129.099 70.0662C119.921 71.4656 113.623 80.0296 115.022 89.2082L147.68 84.2294C149.03 93.087 142.936 101.373 134.078 102.724L129.099 70.0662ZM115.043 89.3447L116.586 98.9226L149.2 93.6707L147.658 84.0928L115.043 89.3447ZM116.546 98.6613L118.068 109.187L150.763 104.457L149.24 93.932L116.546 98.6613ZM118.087 109.311C119.486 118.49 128.05 124.788 137.229 123.389L132.25 90.7311C141.108 89.3807 149.394 95.4748 150.744 104.332L118.087 109.311ZM137.229 123.389L142.365 122.606L137.386 89.9481L132.25 90.7311L137.229 123.389ZM142.365 122.606C145.273 122.162 153.078 119.909 155.924 111.097L124.488 100.945C127.222 92.4788 134.719 90.3547 137.386 89.9481L142.365 122.606ZM155.688 111.779L161.774 95.4127L130.81 83.898L124.724 100.264L155.688 111.779ZM129.924 91.87L130.571 96.6572L163.308 92.2279L162.66 87.4407L129.924 91.87ZM130.592 96.8038L132.072 107.048L164.767 102.326L163.288 92.0813L130.592 96.8038ZM132.091 107.176C133.49 116.355 142.054 122.653 151.233 121.254L146.254 88.5961C155.111 87.2458 163.398 93.3399 164.748 102.198L132.091 107.176ZM151.233 121.254L155.486 120.605L150.507 87.9477L146.254 88.5961L151.233 121.254ZM155.486 120.605C164.665 119.206 170.963 110.642 169.563 101.463L136.906 106.442C135.555 97.5846 141.649 89.2981 150.507 87.9477L155.486 120.605ZM169.543 101.335L167.903 91.1156L135.286 96.3503L136.926 106.57L169.543 101.335ZM167.943 91.3764L166.518 81.4932L133.821 86.2063L135.246 96.0895L167.943 91.3764ZM166.499 81.3603C165.099 72.1818 156.535 65.8835 147.357 67.2828L152.336 99.9405C143.478 101.291 135.191 95.1967 133.841 86.3391L166.499 81.3603ZM147.357 67.2828L142.301 68.0536L147.28 100.711L152.336 99.9405L147.357 67.2828ZM142.301 68.0536C139.393 68.497 131.587 70.7503 128.741 79.5622L160.178 89.7141C157.444 98.1805 149.947 100.305 147.28 100.711L142.301 68.0536ZM128.97 78.9016L122.862 95.394L153.841 106.867L159.949 90.3746L128.97 78.9016ZM168.121 89.0784L170.61 105.407C174.955 104.745 178.857 102.378 181.452 98.83C184.047 95.2823 185.121 90.8466 184.437 86.5049L168.121 89.0784ZM159.373 90.412L143.02 92.7329C143.639 97.0994 145.98 101.037 149.519 103.668C153.058 106.299 157.503 107.405 161.863 106.741L159.373 90.412ZM158.267 82.6153L174.62 80.2944C174.612 80.2382 174.604 80.182 174.596 80.1259L158.267 82.6153ZM153.371 83.3616L137.043 85.851C137.049 85.8953 137.056 85.9395 137.063 85.9837L153.371 83.3616ZM154.957 93.2204L171.304 90.8591C171.292 90.7721 171.279 90.6851 171.265 90.5983L154.957 93.2204ZM156.436 103.465L140.088 105.826C140.095 105.869 140.101 105.911 140.107 105.954L156.436 103.465ZM161.332 102.718L177.66 100.229C177.653 100.18 177.645 100.131 177.637 100.081L161.332 102.718ZM159.899 93.8628L157.41 77.534C153.054 78.1981 149.143 80.5754 146.549 84.1372C143.954 87.6989 142.89 92.1498 143.594 96.4999L159.899 93.8628ZM168.647 92.5292L184.987 90.1137C184.344 85.7673 181.997 81.856 178.463 79.2449C174.929 76.6338 170.501 75.5382 166.157 76.2004L168.647 92.5292ZM169.959 101.403L153.619 103.819C153.622 103.843 153.626 103.868 153.63 103.893L169.959 101.403ZM174.854 100.657L191.183 98.1675C191.176 98.1248 191.17 98.0821 191.163 98.0395L174.854 100.657ZM173.214 90.437L156.865 92.7935C156.878 92.8806 156.891 92.9675 156.905 93.0544L173.214 90.437ZM171.789 80.5538L188.138 78.1972C188.131 78.1529 188.125 78.1086 188.118 78.0644L171.789 80.5538ZM166.894 81.3001L150.565 83.7895C150.569 83.8175 150.574 83.8456 150.578 83.8736L166.894 81.3001ZM165.631 72.7496L156.884 74.0832L161.863 106.741L170.61 105.407L165.631 72.7496ZM175.727 88.091L174.62 80.2944L141.913 84.9362L143.02 92.7329L175.727 88.091ZM174.596 80.1259C173.196 70.9473 164.632 64.6491 155.454 66.0484L160.432 98.7061C151.575 100.056 143.288 93.9623 141.938 85.1047L174.596 80.1259ZM155.454 66.0484L151.12 66.7091L156.099 99.3667L160.432 98.7061L155.454 66.0484ZM151.12 66.7091C141.941 68.1084 135.643 76.6724 137.043 85.851L169.7 80.8722C171.051 89.7298 164.957 98.0164 156.099 99.3667L151.12 66.7091ZM137.063 85.9837L138.648 95.8424L171.265 90.5983L169.679 80.7396L137.063 85.9837ZM138.609 95.5816L140.088 105.826L172.784 101.103L171.304 90.8591L138.609 95.5816ZM140.107 105.954C141.507 115.133 150.071 121.431 159.249 120.032L154.271 87.374C163.128 86.0236 171.415 92.1177 172.765 100.975L140.107 105.954ZM159.249 120.032L163.583 119.371L158.604 86.7133L154.271 87.374L159.249 120.032ZM163.583 119.371C172.762 117.972 179.06 109.408 177.66 100.229L145.003 105.208C143.652 96.3502 149.746 88.0637 158.604 86.7133L163.583 119.371ZM177.637 100.081L176.205 91.2257L143.594 96.4999L145.026 105.355L177.637 100.081ZM162.389 110.192L171.136 108.858L166.157 76.2004L157.41 77.534L162.389 110.192ZM152.307 94.9447L153.619 103.819L186.299 98.9877L184.987 90.1137L152.307 94.9447ZM153.63 103.893C155.029 113.071 163.593 119.369 172.772 117.97L167.793 85.3124C176.651 83.962 184.937 90.0561 186.287 98.9138L153.63 103.893ZM172.772 117.97L177.105 117.309L172.127 84.6517L167.793 85.3124L172.772 117.97ZM177.105 117.309C186.284 115.91 192.582 107.346 191.183 98.1675L158.525 103.146C157.175 94.2886 163.269 86.0021 172.127 84.6517L177.105 117.309ZM191.163 98.0395L189.523 87.8196L156.905 93.0544L158.545 103.274L191.163 98.0395ZM189.562 88.0804L188.138 78.1972L155.441 82.9103L156.865 92.7935L189.562 88.0804ZM188.118 78.0644C186.719 68.8857 178.155 62.5875 168.976 63.9869L173.955 96.6445C165.097 97.9949 156.811 91.9008 155.46 83.0432L188.118 78.0644ZM168.976 63.9869L164.643 64.6475L169.621 97.3052L173.955 96.6445L168.976 63.9869ZM164.643 64.6475C155.464 66.0469 149.166 74.6109 150.565 83.7895L183.223 78.8107C184.573 87.6682 178.479 95.9548 169.621 97.3052L164.643 64.6475ZM150.578 83.8736L151.805 91.6519L184.437 86.5049L183.21 78.7265L150.578 83.8736ZM181.516 91.7991L196.676 98.3566C198.737 93.5917 198.438 88.135 195.868 83.6239C193.299 79.1128 188.758 76.0722 183.608 75.4146L181.516 91.7991ZM177.903 100.151L192.46 107.957C192.678 107.549 192.88 107.133 193.063 106.709L177.903 100.151ZM182.817 99.525L167.319 93.8123C167.241 94.0231 167.168 94.2354 167.099 94.4491L182.817 99.525ZM184.356 95.3487L168.966 89.3503C168.929 89.4452 168.893 89.5404 168.858 89.636L184.356 95.3487ZM185.802 91.6382L183.313 75.3094C177.475 76.1994 172.557 80.138 170.413 85.6399L185.802 91.6382ZM189.695 91.0449L206.037 88.6467C205.399 84.2966 203.052 80.3805 199.518 77.7658C195.983 75.151 191.552 74.0534 187.205 74.716L189.695 91.0449ZM190.75 98.2335L174.407 100.632C174.412 100.662 174.416 100.693 174.421 100.723L190.75 98.2335ZM195.645 97.4872L211.974 94.9978C211.967 94.9551 211.961 94.9125 211.954 94.8698L195.645 97.4872ZM194.005 87.2673L177.656 89.6239C177.669 89.7109 177.682 89.7979 177.696 89.8847L194.005 87.2673ZM192.58 77.3841L208.929 75.0275C208.922 74.9832 208.916 74.939 208.909 74.8947L192.58 77.3841ZM189.239 87.7885L191.729 104.117C196.076 103.455 199.98 101.085 202.575 97.5348C205.17 93.9843 206.242 89.5455 205.553 85.202L189.239 87.7885ZM188.171 81.0535L204.485 78.467C203.063 69.495 194.662 63.3556 185.682 64.7247L188.171 81.0535ZM181.421 62.0896C177.038 62.7579 170.878 64.3784 165.933 69.1024C160.022 74.7477 158.459 82.2037 159.458 88.7568L192.115 83.778C192.241 84.6005 192.325 86.1477 191.752 88.0605C191.152 90.067 190.04 91.7587 188.75 92.9914C186.528 95.1137 184.764 94.9966 186.4 94.7473L181.421 62.0896ZM159.458 88.7568C160.139 93.2274 162.085 98.1823 166.302 102.159C170.453 106.074 175.344 107.663 179.424 108.183L183.608 75.4146C184.463 75.5238 186.747 76.032 188.967 78.1262C191.254 80.283 191.948 82.6779 192.115 83.778L159.458 88.7568ZM166.356 85.2415L162.743 93.5934L193.063 106.709L196.676 98.3566L166.356 85.2415ZM163.346 92.3452C160.497 97.6584 160.257 105.522 165.711 111.504C170.356 116.597 176.503 117.401 180.642 116.77L175.663 84.1125C179.602 83.5121 185.576 84.2602 190.122 89.2458C195.477 95.1191 195.213 102.822 192.46 107.957L163.346 92.3452ZM180.642 116.77L184.976 116.11L179.997 83.4519L175.663 84.1125L180.642 116.77ZM184.976 116.11C187.884 115.666 195.689 113.413 198.535 104.601L167.099 94.4491C169.833 85.9826 177.33 83.8585 179.997 83.4519L184.976 116.11ZM198.315 105.238L199.854 101.061L168.858 89.636L167.319 93.8123L198.315 105.238ZM199.746 101.347L201.192 97.6366L170.413 85.6399L168.966 89.3503L199.746 101.347ZM188.292 107.967L192.184 107.374L187.205 74.716L183.313 75.3094L188.292 107.967ZM173.352 93.443L174.407 100.632L207.092 95.8354L206.037 88.6467L173.352 93.443ZM174.421 100.723C175.82 109.902 184.384 116.2 193.563 114.8L188.584 82.1428C197.442 80.7924 205.728 86.8865 207.078 95.7441L174.421 100.723ZM193.563 114.8L197.896 114.14L192.917 81.4821L188.584 82.1428L193.563 114.8ZM197.896 114.14C207.075 112.74 213.373 104.176 211.974 94.9978L179.316 99.9766C177.966 91.1189 184.06 82.8325 192.917 81.4821L197.896 114.14ZM211.954 94.8698L210.314 84.6499L177.696 89.8847L179.336 100.105L211.954 94.8698ZM210.353 84.9108L208.929 75.0275L176.232 79.7407L177.656 89.6239L210.353 84.9108ZM208.909 74.8947C207.51 65.7161 198.946 59.4179 189.767 60.8172L194.746 93.4749C185.888 94.8253 177.602 88.7311 176.251 79.8735L208.909 74.8947ZM189.767 60.8172L181.421 62.0896L186.4 94.7473L194.746 93.4749L189.767 60.8172ZM186.75 71.4597L182.818 72.0592L187.796 104.717L191.729 104.117L186.75 71.4597ZM182.818 72.0592C183.629 71.9355 186.88 71.5855 190.581 73.7821C194.882 76.335 196.608 80.388 197.023 83.1119L164.365 88.0907C165.123 93.0616 167.851 98.7068 173.721 102.191C178.991 105.318 184.377 105.238 187.796 104.717L182.818 72.0592ZM197.023 83.1119C197.495 86.2097 196.845 90.4551 193.742 93.9586C190.984 97.0733 187.87 97.8077 186.769 97.9757L181.79 65.3181C178.04 65.8898 172.977 67.5782 169.011 72.0576C164.7 76.9257 163.581 82.9465 164.365 88.0907L197.023 83.1119ZM186.769 97.9757L190.661 97.3823L185.682 64.7247L181.79 65.3181L186.769 97.9757ZM171.858 83.64L172.926 90.3751L205.553 85.202L204.485 78.467L171.858 83.64ZM201.798 87.1057L199.308 70.7769C194.852 71.4562 190.868 73.927 188.278 77.6163C185.688 81.3057 184.719 85.893 185.595 90.3145L201.798 87.1057ZM217.163 84.4758L233.492 81.9864C233.483 81.9245 233.473 81.8627 233.463 81.801L217.163 84.4758ZM217.094 87.5246L200.649 85.9794C200.588 86.6276 200.566 87.2788 200.582 87.9296L217.094 87.5246ZM212.474 88.188L196.029 86.6427C196.013 86.8122 195.999 86.9819 195.989 87.1519L212.474 88.188ZM211.512 82.4221L214.002 98.7509C218.535 98.0599 222.576 95.5158 225.159 91.7275C227.742 87.9392 228.635 83.2477 227.622 78.7756L211.512 82.4221ZM201.481 83.9514L184.965 84.1604C185.025 88.9389 187.152 93.457 190.797 96.5482C194.441 99.6393 199.246 101.001 203.97 100.28L201.481 83.9514ZM205.793 76.6861C206.654 76.5548 208.151 76.4676 209.998 76.9359C211.938 77.4279 213.737 78.4026 215.19 79.7232C217.854 82.1443 218.127 84.5372 218 83.897L185.595 90.3145C186.36 94.1779 188.15 99.7884 192.971 104.17C198.504 109.199 205.26 110.184 210.772 109.344L205.793 76.6861ZM204.287 103.435L219.414 101.128L214.436 68.4707L199.308 70.7769L204.287 103.435ZM219.414 101.128C221.983 100.737 226.415 99.414 229.889 95.1755C233.631 90.6115 234.019 85.4407 233.492 81.9864L200.834 86.9652C200.338 83.7115 200.687 78.6904 204.342 74.2319C207.73 70.099 212.028 68.8377 214.436 68.4707L219.414 101.128ZM233.463 81.801C232.457 75.6754 229.735 68.8631 223.794 63.8927C217.535 58.6559 209.853 57.2623 202.791 58.339L207.769 90.9967C207.554 91.0294 206.827 91.1011 205.771 90.8437C204.67 90.5753 203.551 90.0281 202.596 89.2294C200.703 87.6452 200.712 86.2262 200.864 87.1506L233.463 81.801ZM202.791 58.339C195.658 59.4264 188.919 63.1171 184.576 69.6622C180.376 75.9915 179.571 83.2297 180.537 89.5668L213.195 84.588C213.17 84.4248 213.422 85.9383 212.102 87.9281C210.638 90.1336 208.602 90.8697 207.769 90.9967L202.791 58.339ZM180.537 89.5668C181.472 95.6961 184.29 102.394 190.246 107.235C196.442 112.271 204.065 113.692 211.227 112.6L206.248 79.9424C206.406 79.9184 207.06 79.8484 208.041 80.0825C209.058 80.3252 210.132 80.8276 211.082 81.5998C213.008 83.1648 213.221 84.7585 213.195 84.588L180.537 89.5668ZM211.227 112.6C223.961 110.659 233.938 100.637 233.607 87.1196L200.582 87.9296C200.534 85.98 201.23 83.8015 202.775 82.0865C204.302 80.3919 205.865 80.0009 206.248 79.9424L211.227 112.6ZM233.539 89.0698C234.043 83.7092 231.938 78.2036 227.49 74.5571C223.354 71.1661 218.404 70.3291 214.321 70.9516L219.3 103.609C215.377 104.207 210.577 103.409 206.547 100.105C202.204 96.5447 200.161 91.1735 200.649 85.9794L233.539 89.0698ZM214.321 70.9516L210.228 71.5756L215.207 104.233L219.3 103.609L214.321 70.9516ZM210.228 71.5756C207.329 72.0176 203.128 73.4726 199.832 77.4424C196.822 81.0691 196.194 84.8808 196.029 86.6427L228.919 89.7333C228.769 91.3286 228.183 95.0108 225.25 98.5434C222.033 102.419 217.946 103.816 215.207 104.233L210.228 71.5756ZM195.989 87.1519C196.057 86.0632 196.503 83.3093 198.874 80.6146C201.321 77.8348 204.22 76.9259 205.793 76.6861L210.772 109.344C214.913 108.712 219.818 106.82 223.673 102.44C227.453 98.1448 228.71 93.1732 228.959 89.2241L195.989 87.1519ZM208.299 94.2006C205.073 94.6924 201.373 93.7145 198.601 91.2338C196.308 89.183 195.614 87.0011 195.402 86.0686L227.622 78.7756C226.782 75.0649 224.821 70.3662 220.627 66.6139C215.953 62.4318 209.716 60.5679 203.32 61.543L208.299 94.2006ZM209.023 66.0933L198.992 67.6226L203.97 100.28L214.002 98.7509L209.023 66.0933ZM217.997 83.7425C218 83.9649 218.02 86.4156 216.043 89.2373C213.734 92.5323 210.464 93.8705 208.299 94.2006L203.32 61.543C198.186 62.3257 192.729 64.9416 188.987 70.2822C185.577 75.1495 184.917 80.4137 184.965 84.1604L217.997 83.7425ZM232.029 86.7669L217.576 94.7638C220.923 100.813 227.684 104.138 234.518 103.096C241.353 102.054 246.815 96.8657 248.208 90.0939L232.029 86.7669ZM224.151 72.5299L208.914 78.9053C209.146 79.4597 209.408 80.001 209.699 80.5268L224.151 72.5299ZM218.219 73.4754L201.89 75.9648C201.896 76.0078 201.903 76.0508 201.91 76.0938L218.219 73.4754ZM219.847 83.615L236.195 81.2574C236.182 81.1704 236.169 81.0834 236.155 80.9966L219.847 83.615ZM221.284 93.5785L204.935 95.9361C204.941 95.9801 204.948 96.024 204.955 96.0679L221.284 93.5785ZM225.136 92.9912L241.464 90.5018C241.461 90.4784 241.457 90.4549 241.454 90.4315L225.136 92.9912ZM223.676 83.6881L239.994 81.1284C239.982 81.052 239.97 80.9758 239.957 80.8996L223.676 83.6881ZM222.929 79.3266L239.21 76.5381C239.184 76.3912 239.157 76.2446 239.128 76.0984L222.929 79.3266ZM222.58 77.5733L237.027 69.5664C233.081 62.4469 224.537 59.2634 216.894 62.0652C209.252 64.867 204.79 72.8188 206.381 80.8016L222.58 77.5733ZM230.679 92.1872L245.917 85.8117C245.683 85.2538 245.419 84.7092 245.126 84.1803L230.679 92.1872ZM234.25 91.6427L218.063 88.3574C217.946 88.9324 217.86 89.5132 217.805 90.0974L234.25 91.6427ZM237.509 75.5847L253.838 73.0953C252.631 65.1786 245.919 59.2681 237.913 59.0721C229.908 58.8762 222.915 64.4512 221.322 72.2994L237.509 75.5847ZM237.73 77.0292L254.101 74.8371C254.088 74.7378 254.073 74.6388 254.058 74.5398L237.73 77.0292ZM238.322 81.4553L221.951 83.6474C221.964 83.7466 221.978 83.8457 221.993 83.9447L238.322 81.4553ZM244.356 90.061L260.685 87.5716C260.681 87.5497 260.678 87.5277 260.675 87.5058L244.356 90.061ZM242.799 80.1159L226.46 82.5407C226.467 82.5842 226.473 82.6277 226.48 82.6711L242.799 80.1159ZM241.291 69.9579L257.63 67.5331C257.626 67.5116 257.623 67.49 257.62 67.4685L241.291 69.9579ZM235.306 70.8293L251.485 74.1563C251.606 73.5677 251.695 72.9729 251.751 72.3746L235.306 70.8293ZM246.481 78.77L238.604 64.533L209.699 80.5268L217.576 94.7638L246.481 78.77ZM239.389 66.1545C238.046 62.9461 235.51 59.7204 231.599 57.6971C227.825 55.744 224.084 55.5854 221.304 56.0093L226.283 88.6669C223.663 89.0663 220.069 88.9264 216.417 87.0368C212.63 85.0768 210.192 81.9593 208.914 78.9053L239.389 66.1545ZM221.304 56.0093L215.967 56.8229L220.946 89.4805L226.283 88.6669L221.304 56.0093ZM215.967 56.8229C206.789 58.2222 200.491 66.7862 201.89 75.9648L234.548 70.986C235.898 79.8436 229.804 88.1301 220.946 89.4805L215.967 56.8229ZM201.91 76.0938L203.538 86.2334L236.155 80.9966L234.527 70.857L201.91 76.0938ZM203.498 85.9727L204.935 95.9361L237.632 91.2209L236.195 81.2574L203.498 85.9727ZM204.955 96.0679C206.354 105.247 214.918 111.545 224.097 110.145L219.118 77.4877C227.975 76.1373 236.262 82.2314 237.612 91.0891L204.955 96.0679ZM224.097 110.145L227.387 109.644L222.408 76.9861L219.118 77.4877L224.097 110.145ZM227.387 109.644C236.566 108.244 242.864 99.6805 241.464 90.5018L208.807 95.4806C207.456 86.623 213.55 78.3365 222.408 76.9861L227.387 109.644ZM241.454 90.4315L239.994 81.1284L207.358 86.2479L208.818 95.551L241.454 90.4315ZM239.957 80.8996L239.21 76.5381L206.649 82.1152L207.396 86.4767L239.957 80.8996ZM239.128 76.0984L238.779 74.345L206.381 80.8016L206.73 82.5549L239.128 76.0984ZM208.133 85.5802L216.232 100.194L245.126 84.1803L237.027 69.5664L208.133 85.5802ZM215.442 98.5626C216.784 101.771 219.321 104.997 223.231 107.02C227.005 108.973 230.746 109.132 233.526 108.708L228.547 76.0501C231.167 75.6508 234.761 75.7906 238.413 77.6802C242.201 79.6402 244.639 82.7577 245.917 85.8117L215.442 98.5626ZM233.526 108.708L236.455 108.261L231.477 75.6036L228.547 76.0501L233.526 108.708ZM236.455 108.261C239.236 107.837 242.759 106.571 245.78 103.582C248.91 100.486 250.37 96.6507 250.695 93.188L217.805 90.0974C218.115 86.8013 219.513 83.0989 222.545 80.0993C225.468 77.2074 228.857 76.003 231.477 75.6036L236.455 108.261ZM250.438 94.928L253.697 78.87L221.322 72.2994L218.063 88.3574L250.438 94.928ZM221.18 78.0741L221.401 79.5186L254.058 74.5398L253.838 73.0953L221.18 78.0741ZM221.358 79.2213L221.951 83.6474L254.694 79.2631L254.101 74.8371L221.358 79.2213ZM221.993 83.9447L223.413 93.2539L256.07 88.2751L254.651 78.9659L221.993 83.9447ZM223.413 93.2539C224.812 102.433 233.376 108.731 242.555 107.331L237.576 74.6737C246.433 73.3233 254.72 79.4175 256.07 88.2751L223.413 93.2539ZM242.555 107.331L246.607 106.714L241.628 74.0559L237.576 74.6737L242.555 107.331ZM246.607 106.714C255.786 105.314 262.084 96.7504 260.685 87.5716L228.027 92.5504C226.677 83.6927 232.771 75.4063 241.628 74.0559L246.607 106.714ZM260.675 87.5058L259.117 77.5607L226.48 82.6711L228.037 92.6162L260.675 87.5058ZM259.137 77.6911L257.63 67.5331L224.953 72.3827L226.46 82.5407L259.137 77.6911ZM257.62 67.4685C256.221 58.2899 247.657 51.9917 238.478 53.391L243.457 86.0487C234.599 87.3991 226.313 81.305 224.962 72.4473L257.62 67.4685ZM238.478 53.391L233.101 54.2108L238.08 86.8684L243.457 86.0487L238.478 53.391ZM233.101 54.2108C230.321 54.6346 226.798 55.9006 223.777 58.8896C220.647 61.9863 219.187 65.8213 218.861 69.284L251.751 72.3746C251.442 75.6706 250.043 79.373 247.012 82.3726C244.089 85.2646 240.7 86.469 238.08 86.8684L233.101 54.2108ZM219.127 67.5023L215.85 83.4399L248.208 90.0939L251.485 74.1563L219.127 67.5023Z" fill="#021F69"/>
</svg>
