<svg width="352" height="434" viewBox="0 0 352 434" fill="none" xmlns="http://www.w3.org/2000/svg">
<path d="M39.3874 219.008L96.4519 296.615C112.887 327.168 159.137 389.128 212.656 392.545C279.554 396.818 181.01 327.005 252.023 259.766C323.036 192.528 317.892 211.333 343.503 162.456C369.114 113.579 192.235 82.1465 206.177 142.811C214.047 177.057 193.819 195.889 172.784 204.964C158.167 211.271 142.209 203.73 132.779 190.904L113.418 164.574C98.873 144.793 71.0469 140.549 51.2664 155.093L48.8678 156.857C29.0872 171.402 24.8427 199.228 39.3874 219.008Z" fill="white"/>
<path d="M153.478 268.077C158.614 271.305 160.547 275.003 157.638 279.631C154.89 284.005 150.573 283.987 146.301 281.303C140.86 277.883 140.73 273.687 143.551 268.294C143.66 268.008 143.572 267.811 143.368 267.683L137.571 264.039C137.367 263.911 137.119 263.968 136.991 264.171C131.991 272.805 134.945 280.408 143.031 285.49C150.863 290.412 159.438 290.765 163.945 283.594C166.757 279.119 166.431 274.445 162.303 270.29L162.335 270.239C167.056 271.645 170.956 270.407 173.64 266.135C177.38 260.185 174.334 253.517 167.164 249.011C159.23 244.025 151.647 244.012 146.052 250.995C145.874 251.167 145.93 251.415 146.134 251.543L151.931 255.187C152.135 255.315 152.351 255.309 152.511 255.055C155.616 250.905 159.876 250.674 164.046 253.294C167.86 255.691 169.322 259.235 167.053 262.846C164.879 266.304 161.28 266.951 156.144 263.723L153.042 261.773C152.838 261.645 152.59 261.702 152.462 261.905L150.193 265.516C150.065 265.719 150.122 265.968 150.325 266.096L153.478 268.077Z" fill="#021F69"/>
</svg>
