<svg width="407" height="393" viewBox="0 0 407 393" fill="none" xmlns="http://www.w3.org/2000/svg">
<path d="M330.773 118.106C323.129 110.187 304.71 118.099 285.131 130.905C259.144 147.902 223.002 139.52 206.437 113.254C141.032 9.54383 100.684 150.163 54.9791 183.177C2.98924 220.73 102.788 235.952 152.316 237.616C201.844 239.28 164.501 321.994 224.208 320.869C283.915 319.745 307.358 278.878 307.768 240.56C308.179 202.243 226.652 234.741 271.469 206.073C316.285 177.406 349.287 137.288 330.773 118.106Z" fill="white"/>
<path d="M148.597 178.59L148.629 178.539L156.356 166.582L165.759 151.847C165.887 151.644 165.83 151.396 165.627 151.268L160.033 147.752C159.829 147.624 159.581 147.681 159.453 147.884L148.528 165.493L137.527 182.771C137.399 182.974 137.456 183.223 137.659 183.351L143.406 186.962C143.559 187.058 143.743 187.103 143.973 186.964L178.655 170.949L178.527 171.152L170.941 182.772L161.378 197.761C161.25 197.964 161.307 198.213 161.511 198.341L167.105 201.856C167.308 201.984 167.556 201.928 167.684 201.724L178.431 184.287L189.61 166.837C189.738 166.634 189.681 166.386 189.478 166.258L183.731 162.646C183.579 162.55 183.394 162.505 183.165 162.645L148.597 178.59Z" fill="#021F69"/>
</svg>
