<svg width="297" height="320" viewBox="0 0 297 320" fill="none" xmlns="http://www.w3.org/2000/svg">
<path d="M30.1023 170.224C14.6274 215.159 56.2304 253.615 78.9662 267.226C258.11 370.807 287.091 87.5802 248.872 70.8185C210.653 54.0568 202.27 192.865 159.318 202.289C116.366 211.713 219.153 50.1121 182.379 37.4478C145.606 24.7836 141.25 175.123 93.9431 179.775C46.6357 184.426 145.057 75.3168 104.029 57.5878C63.0004 39.8587 49.4458 114.056 30.1023 170.224Z" fill="white"/>
<path d="M119.74 247.038L102.348 236.107L109.725 224.143L125.439 234.019C125.643 234.147 125.891 234.09 126.019 233.887L128.48 229.971C128.608 229.768 128.551 229.519 128.348 229.391L112.633 219.515L118.84 209.866L135.826 220.541C136.029 220.669 136.277 220.612 136.405 220.409L138.898 216.442C139.026 216.239 138.969 215.99 138.766 215.862L115.881 201.479C115.678 201.352 115.429 201.408 115.301 201.612L104.632 218.814L93.3756 236.498C93.2478 236.702 93.3045 236.95 93.5079 237.078L116.8 251.717C117.003 251.844 117.251 251.788 117.379 251.584L119.872 247.618C120 247.414 119.944 247.166 119.74 247.038Z" fill="#021F69"/>
</svg>
