<svg width="5268" height="191" viewBox="0 0 5268 191" fill="none" xmlns="http://www.w3.org/2000/svg">
<path d="M3943 90.0549C3945.27 68.7619 3923.13 56.0629 3911.77 52.3751C3822.66 24.9272 3838.46 152.233 3856.93 155.745C3875.41 159.258 3865.11 97.4516 3883.02 88.9869C3900.94 80.5222 3872.07 161.846 3889.5 163.704C3906.92 165.562 3893.69 99.0977 3914 92.2903C3934.31 85.4828 3902.07 143.314 3921.88 146.968C3941.68 150.622 3940.16 116.671 3943 90.0549Z" fill="#021F69"/>
<path d="M3433.27 78.9162C3435.54 57.6232 3413.39 44.9243 3402.04 41.2364C3312.93 13.7885 3328.72 141.095 3347.2 144.607C3365.67 148.119 3355.37 86.3129 3373.29 77.8482C3391.2 69.3835 3362.34 150.707 3379.76 152.566C3397.19 154.424 3383.96 87.9591 3404.27 81.1516C3424.57 74.3441 3392.34 132.175 3412.14 135.829C3431.95 139.483 3430.43 105.532 3433.27 78.9162Z" fill="#021F69"/>
<path d="M3687.72 149.064L3718.95 151.153C3721.52 151.325 3724.06 151.722 3726.6 152.139C3741.03 154.509 3767.08 154.678 3780.29 139.738C3798.37 119.28 3753.02 132.291 3751.08 91.2246C3749.13 50.1585 3753.37 56.8903 3745.42 35.4402C3737.46 13.9902 3683.72 62.6516 3705.1 74.503C3715.41 80.2209 3717.24 89.5328 3715.93 97.8877C3714.49 106.988 3705 111.458 3695.8 110.843L3690.3 110.475C3679.65 109.762 3670.43 117.823 3669.72 128.479C3669.01 139.135 3677.07 148.351 3687.72 149.064Z" fill="#021F69"/>
<path d="M3525.12 87.0344C3510.73 100.677 3501.99 118.61 3510.98 125.848C3526.95 138.713 3553.19 121.662 3570.12 133.24C3595.01 150.267 3597.81 101.792 3610.47 88.0972C3626.74 70.4879 3586.94 68.0615 3567.77 69.3015C3548.59 70.5414 3554.82 34.7635 3532.01 37.5573C3509.2 40.3511 3504.21 58.2226 3507.81 74.1387C3511.41 90.0548 3539.52 73.3918 3525.12 87.0344Z" fill="#021F69"/>
<path d="M3276.91 81.1565C3279.18 59.8634 3257.04 47.1645 3245.68 43.4767C3156.57 16.0287 3172.37 143.335 3190.84 146.847C3209.31 150.359 3199.02 88.5531 3216.93 80.0884C3234.84 71.6237 3205.98 152.948 3223.4 154.806C3240.83 156.664 3227.6 90.1993 3247.91 83.3918C3268.22 76.5844 3235.98 134.416 3255.79 138.07C3275.59 141.724 3274.07 107.773 3276.91 81.1565Z" fill="#021F69"/>
<path d="M2767.17 70.0188C2769.44 48.7258 2747.3 36.0268 2735.94 32.339C2646.84 4.89105 2662.63 132.197 2681.11 135.709C2699.58 139.221 2689.28 77.4154 2707.19 68.9507C2725.11 60.486 2696.24 141.81 2713.67 143.668C2731.09 145.526 2717.87 79.0616 2738.17 72.2541C2758.48 65.4467 2726.25 123.278 2746.05 126.932C2765.86 130.586 2764.34 96.635 2767.17 70.0188Z" fill="#021F69"/>
<path d="M3021.63 140.166L3052.86 142.255C3055.43 142.427 3057.97 142.823 3060.51 143.241C3074.94 145.611 3100.99 145.779 3114.2 130.839C3132.28 110.382 3086.93 123.392 3084.98 82.3261C3083.04 41.2601 3087.28 47.9919 3079.32 26.5418C3071.37 5.09175 3017.63 53.7531 3039 65.6046C3049.32 71.3225 3051.15 80.6344 3049.84 88.9893C3048.4 98.0898 3038.9 102.56 3029.71 101.945L3024.21 101.577C3013.56 100.864 3004.34 108.924 3003.63 119.58C3002.91 130.236 3010.97 139.453 3021.63 140.166Z" fill="#021F69"/>
<path d="M2859.03 78.1369C2844.64 91.7795 2835.9 109.713 2844.89 116.951C2860.86 129.815 2887.1 112.764 2904.02 124.343C2928.92 141.369 2931.72 92.8943 2944.37 79.1997C2960.65 61.5905 2920.85 59.1641 2901.68 60.404C2882.5 61.6439 2888.73 25.8661 2865.92 28.6598C2843.11 31.4536 2838.12 49.3252 2841.72 65.2413C2845.31 81.1574 2873.42 64.4943 2859.03 78.1369Z" fill="#021F69"/>
<path d="M3985.23 100.583C3982.96 121.876 4005.1 134.575 4016.46 138.263C4105.56 165.711 4089.77 38.4043 4071.29 34.8922C4052.82 31.3802 4063.12 93.1861 4045.2 101.651C4027.29 110.116 4056.16 28.7916 4038.73 26.9334C4021.3 25.0753 4034.53 91.54 4014.23 98.3474C3993.92 105.155 4026.15 47.3237 4006.35 43.6697C3986.54 40.0156 3988.06 73.9665 3985.23 100.583Z" fill="#021F69"/>
<path d="M4494.96 111.721C4492.69 133.014 4514.84 145.713 4526.19 149.401C4615.3 176.849 4599.5 49.543 4581.03 46.0309C4562.56 42.5188 4572.85 104.325 4554.94 112.789C4537.03 121.254 4565.89 39.9303 4548.47 38.0721C4531.04 36.2139 4544.27 102.679 4523.96 109.486C4503.65 116.294 4535.89 58.4624 4516.08 54.8083C4496.28 51.1543 4497.8 85.1052 4494.96 111.721Z" fill="#021F69"/>
<path d="M4240.5 41.5736L4209.28 39.4844C4206.71 39.3124 4204.17 38.9158 4201.62 38.4983C4187.19 36.1283 4161.14 35.9601 4147.94 50.9C4129.86 71.3577 4175.2 58.3471 4177.15 99.4131C4179.1 140.479 4174.85 133.747 4182.81 155.197C4190.77 176.648 4244.5 127.986 4223.13 116.135C4212.82 110.417 4210.98 101.105 4212.3 92.75C4213.73 83.6494 4223.23 79.1793 4232.42 79.7944L4237.92 80.1623C4248.58 80.8753 4257.8 72.8149 4258.51 62.1589C4259.22 51.5029 4251.16 42.2866 4240.5 41.5736Z" fill="#021F69"/>
<path d="M4403.1 103.603C4417.5 89.9608 4426.23 72.0273 4417.25 64.7896C4401.28 51.9249 4375.04 68.9761 4358.11 57.3975C4333.22 40.3707 4330.42 88.8459 4317.76 102.541C4301.49 120.15 4341.28 122.576 4360.46 121.336C4379.63 120.096 4373.41 155.874 4396.21 153.08C4419.02 150.287 4424.02 132.415 4420.42 116.499C4416.82 100.583 4388.71 117.246 4403.1 103.603Z" fill="#021F69"/>
<path d="M4651.32 109.481C4649.05 130.774 4671.19 143.473 4682.55 147.161C4771.66 174.609 4755.86 47.3028 4737.39 43.7907C4718.91 40.2786 4729.21 102.085 4711.3 110.549C4693.38 119.014 4722.25 37.69 4704.82 35.8319C4687.4 33.9737 4700.63 100.438 4680.32 107.246C4660.01 114.053 4692.24 56.2221 4672.44 52.5681C4652.64 48.9141 4654.16 82.865 4651.32 109.481Z" fill="#021F69"/>
<path d="M5161.05 120.619C5158.78 141.912 5180.93 154.611 5192.28 158.299C5281.39 185.747 5265.59 58.4405 5247.12 54.9284C5228.65 51.4163 5238.95 113.222 5221.03 121.687C5203.12 130.152 5231.98 48.8277 5214.56 46.9696C5197.13 45.1114 5210.36 111.576 5190.05 118.384C5169.74 125.191 5201.98 67.3598 5182.18 63.7058C5162.37 60.0518 5163.89 94.0027 5161.05 120.619Z" fill="#021F69"/>
<path d="M4906.6 50.4721L4875.37 48.3828C4872.8 48.2108 4870.26 47.8143 4867.72 47.3968C4853.29 45.0267 4827.23 44.8585 4814.03 59.7984C4795.95 80.2561 4841.29 67.2455 4843.24 108.312C4845.19 149.378 4840.94 142.646 4848.9 164.096C4856.86 185.546 4910.6 136.885 4889.22 125.033C4878.91 119.315 4877.07 110.003 4878.39 101.648C4879.83 92.5479 4889.32 88.0778 4898.51 88.6928L4904.01 89.0608C4914.67 89.7737 4923.89 81.7133 4924.6 71.0573C4925.31 60.4014 4917.25 51.185 4906.6 50.4721Z" fill="#021F69"/>
<path d="M5069.2 112.501C5083.59 98.8582 5092.33 80.9248 5083.34 73.6871C5067.37 60.8223 5041.13 77.8735 5024.2 66.295C4999.31 49.2682 4996.51 97.7434 4983.85 111.438C4967.58 129.047 5007.38 131.474 5026.55 130.234C5045.73 128.994 5039.5 164.772 5062.31 161.978C5085.11 159.184 5090.11 141.313 5086.51 125.396C5082.91 109.48 5054.8 126.143 5069.2 112.501Z" fill="#021F69"/>
<path d="M1282.89 90.0549C1285.17 68.7619 1263.02 56.0629 1251.66 52.3751C1162.56 24.9272 1178.35 152.233 1196.83 155.745C1215.3 159.258 1205 97.4516 1222.92 88.9869C1240.83 80.5222 1211.96 161.846 1229.39 163.704C1246.82 165.562 1233.59 99.0977 1253.9 92.2903C1274.2 85.4828 1241.97 143.314 1261.77 146.968C1281.58 150.622 1280.06 116.671 1282.89 90.0549Z" fill="#021F69"/>
<path d="M773.159 78.9162C775.43 57.6232 753.286 44.9243 741.93 41.2364C652.821 13.7885 668.619 141.095 687.092 144.607C705.565 148.119 695.267 86.3129 713.181 77.8482C731.096 69.3835 702.23 150.707 719.655 152.566C737.081 154.424 723.852 87.9591 744.16 81.1516C764.468 74.3441 732.233 132.175 752.037 135.829C771.841 139.483 770.321 105.532 773.159 78.9162Z" fill="#021F69"/>
<path d="M1027.62 149.064L1058.84 151.153C1061.41 151.325 1063.96 151.722 1066.5 152.139C1080.93 154.509 1106.98 154.678 1120.18 139.738C1138.26 119.28 1092.92 132.291 1090.97 91.2246C1089.02 50.1585 1093.27 56.8903 1085.31 35.4402C1077.35 13.9902 1023.62 62.6516 1044.99 74.503C1055.3 80.2209 1057.14 89.5328 1055.82 97.8877C1054.39 106.988 1044.89 111.458 1035.7 110.843L1030.2 110.475C1019.54 109.762 1010.33 117.823 1009.61 128.479C1008.9 139.135 1016.96 148.351 1027.62 149.064Z" fill="#021F69"/>
<path d="M865.015 87.0344C850.622 100.677 841.886 118.61 850.872 125.848C866.845 138.713 893.082 121.662 910.011 133.24C934.905 150.267 937.701 101.792 950.359 88.0972C966.635 70.4879 926.836 68.0615 907.661 69.3015C888.487 70.5414 894.715 34.7635 871.907 37.5573C849.098 40.3511 844.105 58.2226 847.702 74.1387C851.3 90.0548 879.409 73.3918 865.015 87.0344Z" fill="#021F69"/>
<path d="M616.803 81.1565C619.074 59.8634 596.929 47.1645 585.573 43.4767C496.465 16.0287 512.263 143.335 530.736 146.847C549.209 150.359 538.91 88.5531 556.825 80.0884C574.739 71.6237 545.873 152.948 563.299 154.806C580.725 156.664 567.496 90.1993 587.804 83.3918C608.111 76.5844 575.876 134.416 595.68 138.07C615.485 141.724 613.965 107.773 616.803 81.1565Z" fill="#021F69"/>
<path d="M107.068 70.0188C109.338 48.7258 87.1939 36.0268 75.8379 32.339C-13.2707 4.89105 2.52723 132.197 21.0004 135.709C39.4736 139.221 29.1747 77.4154 47.0892 68.9507C65.0037 60.486 36.1379 141.81 53.5636 143.668C70.9892 145.526 57.7603 79.0616 78.0682 72.2541C98.3761 65.4467 66.1408 123.278 85.9451 126.932C105.749 130.586 104.229 96.635 107.068 70.0188Z" fill="#021F69"/>
<path d="M361.524 140.166L392.751 142.255C395.321 142.427 397.864 142.823 400.406 143.241C414.835 145.611 440.886 145.779 454.091 130.839C472.172 110.382 426.827 123.392 424.879 82.3261C422.93 41.2601 427.176 47.9919 419.219 26.5418C411.262 5.09175 357.524 53.7531 378.899 65.6046C389.212 71.3225 391.047 80.6344 389.73 88.9893C388.295 98.0898 378.798 102.56 369.606 101.945L364.106 101.577C353.45 100.864 344.234 108.924 343.521 119.58C342.808 130.236 350.868 139.453 361.524 140.166Z" fill="#021F69"/>
<path d="M198.924 78.1369C184.53 91.7795 175.794 109.713 184.78 116.951C200.753 129.815 226.991 112.764 243.919 124.343C268.813 141.369 271.609 92.8943 284.267 79.1997C300.544 61.5905 260.744 59.1641 241.57 60.404C222.395 61.6439 228.623 25.8661 205.815 28.6598C183.007 31.4536 178.013 49.3252 181.61 65.2413C185.208 81.1574 213.317 64.4943 198.924 78.1369Z" fill="#021F69"/>
<path d="M1325.12 100.583C1322.85 121.876 1344.99 134.575 1356.35 138.263C1445.46 165.711 1429.66 38.4043 1411.19 34.8922C1392.71 31.3802 1403.01 93.1861 1385.1 101.651C1367.18 110.116 1396.05 28.7916 1378.62 26.9334C1361.2 25.0753 1374.43 91.54 1354.12 98.3474C1333.81 105.155 1366.05 47.3237 1346.24 43.6697C1326.44 40.0156 1327.96 73.9665 1325.12 100.583Z" fill="#021F69"/>
<path d="M1834.86 111.721C1832.58 133.014 1854.73 145.713 1866.09 149.401C1955.19 176.849 1939.4 49.543 1920.92 46.0309C1902.45 42.5188 1912.75 104.325 1894.83 112.789C1876.92 121.254 1905.79 39.9303 1888.36 38.0721C1870.93 36.2139 1884.16 102.679 1863.85 109.486C1843.55 116.294 1875.78 58.4624 1855.98 54.8083C1836.17 51.1543 1837.69 85.1052 1834.86 111.721Z" fill="#021F69"/>
<path d="M1580.4 41.5736L1549.17 39.4844C1546.6 39.3124 1544.06 38.9158 1541.52 38.4983C1527.09 36.1283 1501.04 35.9601 1487.83 50.9C1469.75 71.3577 1515.1 58.3471 1517.04 99.4131C1518.99 140.479 1514.75 133.747 1522.7 155.197C1530.66 176.648 1584.4 127.986 1563.02 116.135C1552.71 110.417 1550.88 101.105 1552.19 92.75C1553.63 83.6494 1563.12 79.1793 1572.32 79.7944L1577.82 80.1623C1588.47 80.8753 1597.69 72.8149 1598.4 62.1589C1599.12 51.5029 1591.05 42.2866 1580.4 41.5736Z" fill="#021F69"/>
<path d="M1743 103.603C1757.39 89.9608 1766.13 72.0273 1757.14 64.7896C1741.17 51.9249 1714.93 68.9761 1698 57.3975C1673.11 40.3707 1670.31 88.8459 1657.66 102.541C1641.38 120.15 1681.18 122.576 1700.35 121.336C1719.53 120.096 1713.3 155.874 1736.11 153.08C1758.92 150.287 1763.91 132.415 1760.31 116.499C1756.71 100.583 1728.61 117.246 1743 103.603Z" fill="#021F69"/>
<path d="M1991.21 109.481C1988.94 130.774 2011.09 143.473 2022.44 147.161C2111.55 174.609 2095.75 47.3028 2077.28 43.7907C2058.81 40.2786 2069.1 102.085 2051.19 110.549C2033.28 119.014 2062.14 37.69 2044.72 35.8319C2027.29 33.9737 2040.52 100.438 2020.21 107.246C1999.9 114.053 2032.14 56.2221 2012.33 52.5681C1992.53 48.9141 1994.05 82.865 1991.21 109.481Z" fill="#021F69"/>
<path d="M2500.95 120.619C2498.68 141.912 2520.82 154.611 2532.18 158.299C2621.29 185.747 2605.49 58.4405 2587.01 54.9284C2568.54 51.4163 2578.84 113.222 2560.93 121.687C2543.01 130.152 2571.88 48.8277 2554.45 46.9696C2537.03 45.1114 2550.25 111.576 2529.95 118.384C2509.64 125.191 2541.87 67.3598 2522.07 63.7058C2502.27 60.0518 2503.79 94.0027 2500.95 120.619Z" fill="#021F69"/>
<path d="M2246.49 50.4721L2215.26 48.3828C2212.69 48.2108 2210.15 47.8143 2207.61 47.3968C2193.18 45.0267 2167.13 44.8585 2153.92 59.7984C2135.84 80.2561 2181.19 67.2455 2183.14 108.312C2185.08 149.378 2180.84 142.646 2188.8 164.096C2196.75 185.546 2250.49 136.885 2229.12 125.033C2218.8 119.315 2216.97 110.003 2218.28 101.648C2219.72 92.5479 2229.22 88.0778 2238.41 88.6928L2243.91 89.0608C2254.56 89.7737 2263.78 81.7133 2264.49 71.0573C2265.21 60.4014 2257.15 51.185 2246.49 50.4721Z" fill="#021F69"/>
<path d="M2409.09 112.501C2423.48 98.8582 2432.22 80.9248 2423.23 73.6871C2407.26 60.8223 2381.02 77.8735 2364.1 66.295C2339.2 49.2682 2336.41 97.7434 2323.75 111.438C2307.47 129.047 2347.27 131.474 2366.45 130.234C2385.62 128.994 2379.39 164.772 2402.2 161.978C2425.01 159.184 2430 141.313 2426.4 125.396C2422.81 109.48 2394.7 126.143 2409.09 112.501Z" fill="#021F69"/>
</svg>
