<svg width="400" height="194" viewBox="0 0 400 194" fill="none" xmlns="http://www.w3.org/2000/svg">
<mask id="path-1-outside-1_487_949" maskUnits="userSpaceOnUse" x="0.442383" y="0.499146" width="400" height="194" fill="black">
<rect fill="white" x="0.442383" y="0.499146" width="400" height="194"/>
<path d="M49.8195 56.5484C56.6501 58.4155 60.0608 61.8918 58.3785 68.0461C56.7887 73.8623 51.9608 75.3045 46.2799 73.7516C39.0435 71.7736 37.4781 67.1301 38.8043 60.1516C38.8291 59.7949 38.6631 59.6042 38.3926 59.5303L30.6828 57.4228C30.4123 57.3488 30.154 57.4963 30.08 57.7668C27.417 69.1042 33.2912 76.5973 44.0444 79.5367C54.4594 82.3836 64.158 79.8742 66.7646 70.3384C68.3915 64.387 66.4451 59.276 60.427 56.0319L60.4455 55.9642C66.195 55.9368 70.132 53.2335 71.6849 47.5526C73.8478 39.6399 68.1882 33.2231 58.6524 30.6164C48.1021 27.7325 39.6271 30.2857 35.7414 39.9806C35.5998 40.2326 35.7472 40.491 36.0178 40.5649L43.7276 42.6724C43.9981 42.7463 44.2379 42.6665 44.3304 42.3284C46.3936 36.6416 51.0741 34.941 56.6198 36.4569C61.692 37.8434 64.5247 41.3071 63.2122 46.1088C61.9551 50.7076 58.1538 52.6485 51.3232 50.7814L47.1978 49.6537C46.9272 49.5797 46.6689 49.7272 46.595 49.9977L45.2824 54.7994C45.2085 55.0699 45.3559 55.3283 45.6264 55.4022L49.8195 56.5484Z"/>
<path d="M100.836 61.4811C99.3932 57.4525 96.308 54.6467 91.7091 53.3896C82.3762 50.8385 74.6122 57.4382 71.8577 67.515C69.0847 77.6595 72.0125 86.891 81.6159 89.5161C86.35 90.8102 90.5566 89.7796 93.8664 86.9775L92.548 91.2688C92.4741 91.5393 92.6215 91.7977 92.8921 91.8716L100.061 93.8312C100.331 93.9052 100.59 93.7577 100.664 93.4872L105.205 76.3399L109.925 59.6047C109.999 59.3342 109.852 59.0758 109.581 59.0019L102.345 57.0238C102.075 56.9498 101.816 57.0973 101.742 57.3678L100.836 61.4811ZM85.3636 84.5805C79.5966 83.0768 78.038 77.3449 80.2379 69.297C82.3084 61.7224 86.5106 57.7833 92.3759 59.4592C97.903 61.0428 99.7569 66.492 97.4339 74.7243C95.1479 82.8214 90.8416 86.078 85.3636 84.5805Z"/>
<path d="M115.367 61.0921L110.955 77.766L106.105 94.9747C106.031 95.2452 106.179 95.5035 106.449 95.5775L113.753 97.5741C114.024 97.648 114.282 97.5006 114.356 97.23L118.935 79.9475L122.09 68.6718L136.157 72.517L133.137 83.8297L128.288 101.038C128.214 101.309 128.361 101.567 128.632 101.641L135.936 103.638C136.206 103.712 136.465 103.564 136.539 103.294L141.117 86.0111L145.8 69.4111C145.874 69.1406 145.727 68.8822 145.456 68.8083L115.97 60.7481C115.699 60.6742 115.441 60.8216 115.367 61.0921Z"/>
<path d="M182.804 79.0173L157.849 72.1957C157.578 72.1217 157.338 72.2015 157.246 72.5397C155.046 79.7883 151.904 89.6865 150.082 94.4941C148.129 99.7751 146.622 101.035 143.917 100.295C143.443 100.166 142.988 99.9689 142.669 99.8088C142.349 99.6488 142.109 99.7286 142.017 100.067L140.778 104.598C140.704 104.868 140.784 105.108 140.968 105.231C141.638 105.705 142.597 106.185 144.018 106.574C150.916 108.459 153.98 104.427 156.739 97.2589C158.433 92.9248 160.953 85.0369 162.684 79.7681L173.437 82.7075L170.337 94.5797L165.771 111.284C165.697 111.555 165.844 111.813 166.115 111.887L173.486 113.902C173.757 113.976 174.015 113.829 174.089 113.558L178.452 96.798L183.148 79.6201C183.222 79.3496 183.074 79.0912 182.804 79.0173Z"/>
<path d="M196.925 115.294C191.109 113.704 189.083 109.153 190.833 101.418L216.33 108.388C216.6 108.461 216.84 108.382 216.933 108.044C220.051 96.1037 215.875 87.185 205.054 84.2271C194.436 81.3247 186.064 86.9586 183.069 97.9147C180.167 108.533 184.134 117.685 195.36 120.754C204.761 123.323 211.921 119.466 214.685 112.808C214.827 112.556 214.68 112.297 214.409 112.223L207.511 110.338C207.24 110.264 207.068 110.362 206.927 110.614C204.637 115.003 201.254 116.477 196.925 115.294ZM203.643 89.656C208.986 91.1165 210.409 96.012 209.453 100.839L192.546 96.2169C194.947 90.6225 198.638 88.288 203.643 89.656Z"/>
<path d="M222.521 90.3828L221.19 95.2521C221.116 95.5226 221.264 95.781 221.534 95.8549L232.828 98.9422L229.809 110.255L224.959 127.463C224.885 127.734 225.033 127.992 225.303 128.066L232.607 130.063C232.878 130.137 233.136 129.989 233.21 129.719L237.789 112.436L240.944 101.161L252.238 104.248C252.509 104.322 252.767 104.174 252.841 103.904L254.172 99.0345C254.246 98.764 254.098 98.5056 253.828 98.4317L223.124 90.0388C222.853 89.9648 222.595 90.1122 222.521 90.3828Z"/>
<path d="M279.738 110.384C278.295 106.355 275.21 103.55 270.611 102.293C261.278 99.7414 253.514 106.341 250.76 116.418C247.987 126.562 250.914 135.794 260.518 138.419C265.252 139.713 269.459 138.683 272.768 135.88L271.45 140.172C271.376 140.442 271.524 140.701 271.794 140.775L278.963 142.734C279.233 142.808 279.492 142.661 279.566 142.39L284.107 125.243L288.827 108.508C288.901 108.237 288.754 107.979 288.483 107.905L281.247 105.927C280.977 105.853 280.718 106 280.644 106.271L279.738 110.384ZM264.266 133.483C258.499 131.98 256.94 126.248 259.14 118.2C261.21 110.625 265.413 106.686 271.278 108.362C276.805 109.946 278.659 115.395 276.336 123.627C274.05 131.724 269.744 134.981 264.266 133.483Z"/>
<path d="M302.655 144.195C296.839 142.605 294.812 138.054 296.563 130.319L322.06 137.289C322.33 137.363 322.57 137.283 322.662 136.945C325.781 125.005 321.605 116.086 310.784 113.128C300.166 110.226 291.794 115.86 288.799 126.816C285.896 137.434 289.863 146.586 301.09 149.655C310.491 152.224 317.65 148.367 320.415 141.709C320.557 141.457 320.409 141.199 320.139 141.125L313.241 139.239C312.97 139.165 312.798 139.263 312.656 139.515C310.366 143.905 306.983 145.378 302.655 144.195ZM309.372 118.557C314.715 120.018 316.139 124.913 315.183 129.74L298.276 125.118C300.677 119.524 304.368 117.189 309.372 118.557Z"/>
<path d="M344.521 150.988L342.072 122.989C342.078 122.7 341.912 122.51 341.642 122.436L332.647 119.977C332.376 119.903 332.118 120.05 332.044 120.321L327.502 137.468L322.782 154.203C322.708 154.474 322.856 154.732 323.126 154.806L328.672 156.322C328.942 156.396 329.201 156.249 329.275 155.978L333.496 140.27L335.376 132.861L336.054 129.848L338.589 158.597C338.583 158.886 338.749 159.077 339.019 159.151L343.956 160.5C344.227 160.574 344.467 160.494 344.608 160.242L361.015 137.18L360.35 139.615L358.181 147.017L353.892 162.707C353.818 162.978 353.965 163.236 354.236 163.31L361.066 165.177C361.337 165.251 361.595 165.104 361.669 164.833L366.186 148.043L370.931 130.951C371.005 130.68 370.858 130.422 370.587 130.348L361.525 127.871C361.254 127.797 361.014 127.876 360.873 128.129L344.521 150.988Z"/>
</mask>
<path d="M49.8195 56.5484C56.6501 58.4155 60.0608 61.8918 58.3785 68.0461C56.7887 73.8623 51.9608 75.3045 46.2799 73.7516C39.0435 71.7736 37.4781 67.1301 38.8043 60.1516C38.8291 59.7949 38.6631 59.6042 38.3926 59.5303L30.6828 57.4228C30.4123 57.3488 30.154 57.4963 30.08 57.7668C27.417 69.1042 33.2912 76.5973 44.0444 79.5367C54.4594 82.3836 64.158 79.8742 66.7646 70.3384C68.3915 64.387 66.4451 59.276 60.427 56.0319L60.4455 55.9642C66.195 55.9368 70.132 53.2335 71.6849 47.5526C73.8478 39.6399 68.1882 33.2231 58.6524 30.6164C48.1021 27.7325 39.6271 30.2857 35.7414 39.9806C35.5998 40.2326 35.7472 40.491 36.0178 40.5649L43.7276 42.6724C43.9981 42.7463 44.2379 42.6665 44.3304 42.3284C46.3936 36.6416 51.0741 34.941 56.6198 36.4569C61.692 37.8434 64.5247 41.3071 63.2122 46.1088C61.9551 50.7076 58.1538 52.6485 51.3232 50.7814L47.1978 49.6537C46.9272 49.5797 46.6689 49.7272 46.595 49.9977L45.2824 54.7994C45.2085 55.0699 45.3559 55.3283 45.6264 55.4022L49.8195 56.5484Z" fill="white"/>
<path d="M100.836 61.4811C99.3932 57.4525 96.308 54.6467 91.7091 53.3896C82.3762 50.8385 74.6122 57.4382 71.8577 67.515C69.0847 77.6595 72.0125 86.891 81.6159 89.5161C86.35 90.8102 90.5566 89.7796 93.8664 86.9775L92.548 91.2688C92.4741 91.5393 92.6215 91.7977 92.8921 91.8716L100.061 93.8312C100.331 93.9052 100.59 93.7577 100.664 93.4872L105.205 76.3399L109.925 59.6047C109.999 59.3342 109.852 59.0758 109.581 59.0019L102.345 57.0238C102.075 56.9498 101.816 57.0973 101.742 57.3678L100.836 61.4811ZM85.3636 84.5805C79.5966 83.0768 78.038 77.3449 80.2379 69.297C82.3084 61.7224 86.5106 57.7833 92.3759 59.4592C97.903 61.0428 99.7569 66.492 97.4339 74.7243C95.1479 82.8214 90.8416 86.078 85.3636 84.5805Z" fill="white"/>
<path d="M115.367 61.0921L110.955 77.766L106.105 94.9747C106.031 95.2452 106.179 95.5035 106.449 95.5775L113.753 97.5741C114.024 97.648 114.282 97.5006 114.356 97.23L118.935 79.9475L122.09 68.6718L136.157 72.517L133.137 83.8297L128.288 101.038C128.214 101.309 128.361 101.567 128.632 101.641L135.936 103.638C136.206 103.712 136.465 103.564 136.539 103.294L141.117 86.0111L145.8 69.4111C145.874 69.1406 145.727 68.8822 145.456 68.8083L115.97 60.7481C115.699 60.6742 115.441 60.8216 115.367 61.0921Z" fill="white"/>
<path d="M182.804 79.0173L157.849 72.1957C157.578 72.1217 157.338 72.2015 157.246 72.5397C155.046 79.7883 151.904 89.6865 150.082 94.4941C148.129 99.7751 146.622 101.035 143.917 100.295C143.443 100.166 142.988 99.9689 142.669 99.8088C142.349 99.6488 142.109 99.7286 142.017 100.067L140.778 104.598C140.704 104.868 140.784 105.108 140.968 105.231C141.638 105.705 142.597 106.185 144.018 106.574C150.916 108.459 153.98 104.427 156.739 97.2589C158.433 92.9248 160.953 85.0369 162.684 79.7681L173.437 82.7075L170.337 94.5797L165.771 111.284C165.697 111.555 165.844 111.813 166.115 111.887L173.486 113.902C173.757 113.976 174.015 113.829 174.089 113.558L178.452 96.798L183.148 79.6201C183.222 79.3496 183.074 79.0912 182.804 79.0173Z" fill="white"/>
<path d="M196.925 115.294C191.109 113.704 189.083 109.153 190.833 101.418L216.33 108.388C216.6 108.461 216.84 108.382 216.933 108.044C220.051 96.1037 215.875 87.185 205.054 84.2271C194.436 81.3247 186.064 86.9586 183.069 97.9147C180.167 108.533 184.134 117.685 195.36 120.754C204.761 123.323 211.921 119.466 214.685 112.808C214.827 112.556 214.68 112.297 214.409 112.223L207.511 110.338C207.24 110.264 207.068 110.362 206.927 110.614C204.637 115.003 201.254 116.477 196.925 115.294ZM203.643 89.656C208.986 91.1165 210.409 96.012 209.453 100.839L192.546 96.2169C194.947 90.6225 198.638 88.288 203.643 89.656Z" fill="white"/>
<path d="M222.521 90.3828L221.19 95.2521C221.116 95.5226 221.264 95.781 221.534 95.8549L232.828 98.9422L229.809 110.255L224.959 127.463C224.885 127.734 225.033 127.992 225.303 128.066L232.607 130.063C232.878 130.137 233.136 129.989 233.21 129.719L237.789 112.436L240.944 101.161L252.238 104.248C252.509 104.322 252.767 104.174 252.841 103.904L254.172 99.0345C254.246 98.764 254.098 98.5056 253.828 98.4317L223.124 90.0388C222.853 89.9648 222.595 90.1122 222.521 90.3828Z" fill="white"/>
<path d="M279.738 110.384C278.295 106.355 275.21 103.55 270.611 102.293C261.278 99.7414 253.514 106.341 250.76 116.418C247.987 126.562 250.914 135.794 260.518 138.419C265.252 139.713 269.459 138.683 272.768 135.88L271.45 140.172C271.376 140.442 271.524 140.701 271.794 140.775L278.963 142.734C279.233 142.808 279.492 142.661 279.566 142.39L284.107 125.243L288.827 108.508C288.901 108.237 288.754 107.979 288.483 107.905L281.247 105.927C280.977 105.853 280.718 106 280.644 106.271L279.738 110.384ZM264.266 133.483C258.499 131.98 256.94 126.248 259.14 118.2C261.21 110.625 265.413 106.686 271.278 108.362C276.805 109.946 278.659 115.395 276.336 123.627C274.05 131.724 269.744 134.981 264.266 133.483Z" fill="white"/>
<path d="M302.655 144.195C296.839 142.605 294.812 138.054 296.563 130.319L322.06 137.289C322.33 137.363 322.57 137.283 322.662 136.945C325.781 125.005 321.605 116.086 310.784 113.128C300.166 110.226 291.794 115.86 288.799 126.816C285.896 137.434 289.863 146.586 301.09 149.655C310.491 152.224 317.65 148.367 320.415 141.709C320.557 141.457 320.409 141.199 320.139 141.125L313.241 139.239C312.97 139.165 312.798 139.263 312.656 139.515C310.366 143.905 306.983 145.378 302.655 144.195ZM309.372 118.557C314.715 120.018 316.139 124.913 315.183 129.74L298.276 125.118C300.677 119.524 304.368 117.189 309.372 118.557Z" fill="white"/>
<path d="M344.521 150.988L342.072 122.989C342.078 122.7 341.912 122.51 341.642 122.436L332.647 119.977C332.376 119.903 332.118 120.05 332.044 120.321L327.502 137.468L322.782 154.203C322.708 154.474 322.856 154.732 323.126 154.806L328.672 156.322C328.942 156.396 329.201 156.249 329.275 155.978L333.496 140.27L335.376 132.861L336.054 129.848L338.589 158.597C338.583 158.886 338.749 159.077 339.019 159.151L343.956 160.5C344.227 160.574 344.467 160.494 344.608 160.242L361.015 137.18L360.35 139.615L358.181 147.017L353.892 162.707C353.818 162.978 353.965 163.236 354.236 163.31L361.066 165.177C361.337 165.251 361.595 165.104 361.669 164.833L366.186 148.043L370.931 130.951C371.005 130.68 370.858 130.422 370.587 130.348L361.525 127.871C361.254 127.797 361.014 127.876 360.873 128.129L344.521 150.988Z" fill="white"/>
<path d="M49.8195 56.5484C56.6501 58.4155 60.0608 61.8918 58.3785 68.0461C56.7887 73.8623 51.9608 75.3045 46.2799 73.7516C39.0435 71.7736 37.4781 67.1301 38.8043 60.1516C38.8291 59.7949 38.6631 59.6042 38.3926 59.5303L30.6828 57.4228C30.4123 57.3488 30.154 57.4963 30.08 57.7668C27.417 69.1042 33.2912 76.5973 44.0444 79.5367C54.4594 82.3836 64.158 79.8742 66.7646 70.3384C68.3915 64.387 66.4451 59.276 60.427 56.0319L60.4455 55.9642C66.195 55.9368 70.132 53.2335 71.6849 47.5526C73.8478 39.6399 68.1882 33.2231 58.6524 30.6164C48.1021 27.7325 39.6271 30.2857 35.7414 39.9806C35.5998 40.2326 35.7472 40.491 36.0178 40.5649L43.7276 42.6724C43.9981 42.7463 44.2379 42.6665 44.3304 42.3284C46.3936 36.6416 51.0741 34.941 56.6198 36.4569C61.692 37.8434 64.5247 41.3071 63.2122 46.1088C61.9551 50.7076 58.1538 52.6485 51.3232 50.7814L47.1978 49.6537C46.9272 49.5797 46.6689 49.7272 46.595 49.9977L45.2824 54.7994C45.2085 55.0699 45.3559 55.3283 45.6264 55.4022L49.8195 56.5484Z" stroke="#12A4FF" stroke-width="57.0618" stroke-linejoin="round" mask="url(#path-1-outside-1_487_949)"/>
<path d="M100.836 61.4811C99.3932 57.4525 96.308 54.6467 91.7091 53.3896C82.3762 50.8385 74.6122 57.4382 71.8577 67.515C69.0847 77.6595 72.0125 86.891 81.6159 89.5161C86.35 90.8102 90.5566 89.7796 93.8664 86.9775L92.548 91.2688C92.4741 91.5393 92.6215 91.7977 92.8921 91.8716L100.061 93.8312C100.331 93.9052 100.59 93.7577 100.664 93.4872L105.205 76.3399L109.925 59.6047C109.999 59.3342 109.852 59.0758 109.581 59.0019L102.345 57.0238C102.075 56.9498 101.816 57.0973 101.742 57.3678L100.836 61.4811ZM85.3636 84.5805C79.5966 83.0768 78.038 77.3449 80.2379 69.297C82.3084 61.7224 86.5106 57.7833 92.3759 59.4592C97.903 61.0428 99.7569 66.492 97.4339 74.7243C95.1479 82.8214 90.8416 86.078 85.3636 84.5805Z" stroke="#12A4FF" stroke-width="57.0618" stroke-linejoin="round" mask="url(#path-1-outside-1_487_949)"/>
<path d="M115.367 61.0921L110.955 77.766L106.105 94.9747C106.031 95.2452 106.179 95.5035 106.449 95.5775L113.753 97.5741C114.024 97.648 114.282 97.5006 114.356 97.23L118.935 79.9475L122.09 68.6718L136.157 72.517L133.137 83.8297L128.288 101.038C128.214 101.309 128.361 101.567 128.632 101.641L135.936 103.638C136.206 103.712 136.465 103.564 136.539 103.294L141.117 86.0111L145.8 69.4111C145.874 69.1406 145.727 68.8822 145.456 68.8083L115.97 60.7481C115.699 60.6742 115.441 60.8216 115.367 61.0921Z" stroke="#12A4FF" stroke-width="57.0618" stroke-linejoin="round" mask="url(#path-1-outside-1_487_949)"/>
<path d="M182.804 79.0173L157.849 72.1957C157.578 72.1217 157.338 72.2015 157.246 72.5397C155.046 79.7883 151.904 89.6865 150.082 94.4941C148.129 99.7751 146.622 101.035 143.917 100.295C143.443 100.166 142.988 99.9689 142.669 99.8088C142.349 99.6488 142.109 99.7286 142.017 100.067L140.778 104.598C140.704 104.868 140.784 105.108 140.968 105.231C141.638 105.705 142.597 106.185 144.018 106.574C150.916 108.459 153.98 104.427 156.739 97.2589C158.433 92.9248 160.953 85.0369 162.684 79.7681L173.437 82.7075L170.337 94.5797L165.771 111.284C165.697 111.555 165.844 111.813 166.115 111.887L173.486 113.902C173.757 113.976 174.015 113.829 174.089 113.558L178.452 96.798L183.148 79.6201C183.222 79.3496 183.074 79.0912 182.804 79.0173Z" stroke="#12A4FF" stroke-width="57.0618" stroke-linejoin="round" mask="url(#path-1-outside-1_487_949)"/>
<path d="M196.925 115.294C191.109 113.704 189.083 109.153 190.833 101.418L216.33 108.388C216.6 108.461 216.84 108.382 216.933 108.044C220.051 96.1037 215.875 87.185 205.054 84.2271C194.436 81.3247 186.064 86.9586 183.069 97.9147C180.167 108.533 184.134 117.685 195.36 120.754C204.761 123.323 211.921 119.466 214.685 112.808C214.827 112.556 214.68 112.297 214.409 112.223L207.511 110.338C207.24 110.264 207.068 110.362 206.927 110.614C204.637 115.003 201.254 116.477 196.925 115.294ZM203.643 89.656C208.986 91.1165 210.409 96.012 209.453 100.839L192.546 96.2169C194.947 90.6225 198.638 88.288 203.643 89.656Z" stroke="#12A4FF" stroke-width="57.0618" stroke-linejoin="round" mask="url(#path-1-outside-1_487_949)"/>
<path d="M222.521 90.3828L221.19 95.2521C221.116 95.5226 221.264 95.781 221.534 95.8549L232.828 98.9422L229.809 110.255L224.959 127.463C224.885 127.734 225.033 127.992 225.303 128.066L232.607 130.063C232.878 130.137 233.136 129.989 233.21 129.719L237.789 112.436L240.944 101.161L252.238 104.248C252.509 104.322 252.767 104.174 252.841 103.904L254.172 99.0345C254.246 98.764 254.098 98.5056 253.828 98.4317L223.124 90.0388C222.853 89.9648 222.595 90.1122 222.521 90.3828Z" stroke="#12A4FF" stroke-width="57.0618" stroke-linejoin="round" mask="url(#path-1-outside-1_487_949)"/>
<path d="M279.738 110.384C278.295 106.355 275.21 103.55 270.611 102.293C261.278 99.7414 253.514 106.341 250.76 116.418C247.987 126.562 250.914 135.794 260.518 138.419C265.252 139.713 269.459 138.683 272.768 135.88L271.45 140.172C271.376 140.442 271.524 140.701 271.794 140.775L278.963 142.734C279.233 142.808 279.492 142.661 279.566 142.39L284.107 125.243L288.827 108.508C288.901 108.237 288.754 107.979 288.483 107.905L281.247 105.927C280.977 105.853 280.718 106 280.644 106.271L279.738 110.384ZM264.266 133.483C258.499 131.98 256.94 126.248 259.14 118.2C261.21 110.625 265.413 106.686 271.278 108.362C276.805 109.946 278.659 115.395 276.336 123.627C274.05 131.724 269.744 134.981 264.266 133.483Z" stroke="#12A4FF" stroke-width="57.0618" stroke-linejoin="round" mask="url(#path-1-outside-1_487_949)"/>
<path d="M302.655 144.195C296.839 142.605 294.812 138.054 296.563 130.319L322.06 137.289C322.33 137.363 322.57 137.283 322.662 136.945C325.781 125.005 321.605 116.086 310.784 113.128C300.166 110.226 291.794 115.86 288.799 126.816C285.896 137.434 289.863 146.586 301.09 149.655C310.491 152.224 317.65 148.367 320.415 141.709C320.557 141.457 320.409 141.199 320.139 141.125L313.241 139.239C312.97 139.165 312.798 139.263 312.656 139.515C310.366 143.905 306.983 145.378 302.655 144.195ZM309.372 118.557C314.715 120.018 316.139 124.913 315.183 129.74L298.276 125.118C300.677 119.524 304.368 117.189 309.372 118.557Z" stroke="#12A4FF" stroke-width="57.0618" stroke-linejoin="round" mask="url(#path-1-outside-1_487_949)"/>
<path d="M344.521 150.988L342.072 122.989C342.078 122.7 341.912 122.51 341.642 122.436L332.647 119.977C332.376 119.903 332.118 120.05 332.044 120.321L327.502 137.468L322.782 154.203C322.708 154.474 322.856 154.732 323.126 154.806L328.672 156.322C328.942 156.396 329.201 156.249 329.275 155.978L333.496 140.27L335.376 132.861L336.054 129.848L338.589 158.597C338.583 158.886 338.749 159.077 339.019 159.151L343.956 160.5C344.227 160.574 344.467 160.494 344.608 160.242L361.015 137.18L360.35 139.615L358.181 147.017L353.892 162.707C353.818 162.978 353.965 163.236 354.236 163.31L361.066 165.177C361.337 165.251 361.595 165.104 361.669 164.833L366.186 148.043L370.931 130.951C371.005 130.68 370.858 130.422 370.587 130.348L361.525 127.871C361.254 127.797 361.014 127.876 360.873 128.129L344.521 150.988Z" stroke="#12A4FF" stroke-width="57.0618" stroke-linejoin="round" mask="url(#path-1-outside-1_487_949)"/>
</svg>
