<svg width="394" height="170" viewBox="0 0 394 170" fill="none" xmlns="http://www.w3.org/2000/svg">
<mask id="path-1-outside-1_468_343" maskUnits="userSpaceOnUse" x="0.200806" y="-0.373047" width="393" height="171" fill="black">
<rect fill="white" x="0.200806" y="-0.373047" width="393" height="171"/>
<path d="M57.1978 115.436L52.9042 97.7191L66.3021 94.3628C66.5741 94.2947 66.727 94.0395 66.6589 93.7675L65.33 88.4628C65.2618 88.1907 65.0067 88.0378 64.7346 88.106L29.5738 96.9142C29.3017 96.9823 29.1488 97.2375 29.217 97.5095L30.5459 102.814C30.614 103.086 30.8691 103.239 31.1412 103.171L44.471 99.8317L49.1047 117.463L54.6423 140.722C54.7105 140.995 54.9656 141.147 55.2377 141.079L62.9227 139.154C63.1948 139.086 63.3477 138.831 63.2795 138.559L57.1978 115.436Z"/>
<path d="M88.1487 127.848C82.2998 129.313 78.3024 126.339 76.0371 118.739L101.677 112.316C101.949 112.248 102.119 112.061 102.033 111.721C98.8989 99.7851 90.8871 94.0585 80.0056 96.7844C69.3281 99.4592 64.7923 108.474 67.5523 119.491C70.2271 130.169 78.1711 136.202 89.4607 133.373C98.914 131.005 103.264 124.133 102.41 116.975C102.41 116.686 102.155 116.533 101.883 116.601L94.9458 118.339C94.6738 118.407 94.5719 118.577 94.572 118.866C94.7274 123.814 92.5013 126.757 88.1487 127.848ZM81.4366 102.208C86.8093 100.862 90.45 104.431 91.9826 109.107L74.9803 113.366C74.3312 107.313 76.4039 103.469 81.4366 102.208Z"/>
<path d="M127.508 123.842C136.689 121.542 141.311 114.313 139.997 106.186C139.929 105.914 139.691 105.829 139.419 105.897L132.618 107.6C132.346 107.669 132.176 107.856 132.193 108.213C133.012 113.501 130.837 117.226 126.332 118.282C120.262 119.731 116.349 116.23 114.219 107.728C112.141 99.4312 113.89 94.295 119.926 92.7107C123.87 91.7226 127.34 93.4553 129.298 97.8075C129.451 98.1305 129.621 98.2325 129.893 98.1643L136.558 96.4947C136.83 96.4265 136.983 96.1714 136.847 95.9164C134.207 88.5548 127.37 84.9191 118.529 87.1339C107.511 89.894 103.094 98.8064 105.871 109.892C108.648 120.977 116.694 126.551 127.508 123.842Z"/>
<path d="M136.168 84.0883L137.395 88.985C137.463 89.257 137.718 89.4099 137.99 89.3418L149.348 86.4966L152.261 97.8371L156.469 115.214C156.538 115.486 156.793 115.639 157.065 115.57L164.41 113.73C164.682 113.662 164.835 113.407 164.767 113.135L160.286 95.8267L157.509 84.4521L168.867 81.6069C169.139 81.5388 169.291 81.2836 169.223 81.0116L167.997 76.1149C167.929 75.8429 167.673 75.69 167.401 75.7581L136.525 83.493C136.253 83.5611 136.1 83.8163 136.168 84.0883Z"/>
<path d="M186.572 98.7103L184.493 89.835L180.421 73.0026C180.352 72.7305 180.097 72.5776 179.825 72.6458L172.548 74.4687C172.276 74.5369 172.123 74.792 172.191 75.0641L176.399 91.2843L180.727 109.137C180.795 109.409 181.05 109.562 181.322 109.494L190.028 107.313C190.232 107.262 190.487 107.126 190.555 106.819L198.363 77.6872L200.254 85.8144L204.462 103.191C204.531 103.463 204.786 103.616 205.058 103.548L212.267 101.742C212.539 101.674 212.692 101.418 212.624 101.146L208.143 83.8381L204.088 67.0737C204.02 66.8016 203.765 66.6487 203.493 66.7168L194.923 68.8635C194.719 68.9146 194.464 69.0508 194.396 69.3569L186.572 98.7103Z"/>
<path d="M228.063 59.8388C223.371 61.0144 220.209 63.9747 218.681 67.9715L217.743 63.6528C217.675 63.3807 217.42 63.2278 217.148 63.296L209.871 65.1189C209.599 65.1871 209.446 65.4422 209.514 65.7143L214.591 85.4029L220.946 111.349C221.014 111.621 221.27 111.774 221.542 111.705L228.887 109.865C229.159 109.797 229.312 109.542 229.243 109.27L225.24 93.866C228.438 96.5342 232.417 97.4165 236.974 96.275C246.359 93.9239 249.96 84.3487 247.421 74.2152C244.866 64.0138 237.721 57.4196 228.063 59.8388ZM233.401 91.2434C227.824 92.6405 223.588 88.7145 221.595 80.4683C219.635 72.3581 221.724 67.4258 227.233 66.0458C233.082 64.5806 237.148 68.6938 239.175 76.7869C241.066 84.3359 239.318 89.7612 233.401 91.2434Z"/>
<path d="M265.759 100.628L272.628 98.9077C272.9 98.8396 273.053 98.5844 273.07 98.3634L277.348 48.7935C277.416 48.4874 277.212 48.2494 276.872 48.3346L269.527 50.1746C269.255 50.2427 269.085 50.4299 269.085 50.7189L267.771 76.9234L252.83 54.7908C252.694 54.5358 252.456 54.4509 252.184 54.5191L243.955 56.5805C243.615 56.6657 243.462 56.9209 243.683 57.2268L266.314 88.4191L265.283 100.17C265.215 100.476 265.419 100.714 265.759 100.628Z"/>
<path d="M303.053 74.0115C297.204 75.4767 293.207 72.5029 290.942 64.903L316.581 58.48C316.853 58.4118 317.023 58.2247 316.938 57.8847C313.803 45.9491 305.792 40.2224 294.91 42.9484C284.233 45.6232 279.697 54.6377 282.457 65.6553C285.132 76.3327 293.076 82.3655 304.365 79.5373C313.818 77.1692 318.168 70.2973 317.315 63.1388C317.315 62.8498 317.059 62.6968 316.787 62.765L309.85 64.5028C309.578 64.5709 309.476 64.741 309.477 65.0301C309.632 69.9783 307.406 72.9211 303.053 74.0115ZM296.341 48.3721C301.714 47.0262 305.355 50.5953 306.887 55.2708L289.885 59.5301C289.236 53.4768 291.308 49.6328 296.341 48.3721Z"/>
<path d="M342.874 59.4102L327.015 36.2068C326.879 35.9518 326.641 35.8669 326.369 35.935L317.323 38.2009C317.051 38.2691 316.898 38.5242 316.967 38.7963L321.413 55.9686L325.502 72.869C325.57 73.141 325.825 73.294 326.098 73.2258L331.674 71.8288C331.946 71.7606 332.099 71.5055 332.031 71.2334L328.01 55.4723L326.017 48.0933L325.132 45.135L341.433 68.9503C341.57 69.2053 341.808 69.2902 342.08 69.2221L347.044 67.9784C347.316 67.9102 347.486 67.7231 347.486 67.434L350.482 39.2903L351.096 41.7386L352.834 49.2537L356.786 65.0319C356.855 65.304 357.11 65.4569 357.382 65.3887L364.251 63.668C364.523 63.5998 364.676 63.3447 364.608 63.0726L360.314 46.2233L356.072 28.9999C356.004 28.7279 355.749 28.575 355.477 28.6431L346.363 30.9261C346.091 30.9942 345.921 31.1814 345.922 31.4704L342.874 59.4102Z"/>
</mask>
<path d="M57.1978 115.436L52.9042 97.7191L66.3021 94.3628C66.5741 94.2947 66.727 94.0395 66.6589 93.7675L65.33 88.4628C65.2618 88.1907 65.0067 88.0378 64.7346 88.106L29.5738 96.9142C29.3017 96.9823 29.1488 97.2375 29.217 97.5095L30.5459 102.814C30.614 103.086 30.8691 103.239 31.1412 103.171L44.471 99.8317L49.1047 117.463L54.6423 140.722C54.7105 140.995 54.9656 141.147 55.2377 141.079L62.9227 139.154C63.1948 139.086 63.3477 138.831 63.2795 138.559L57.1978 115.436Z" fill="#021F69"/>
<path d="M88.1487 127.848C82.2998 129.313 78.3024 126.339 76.0371 118.739L101.677 112.316C101.949 112.248 102.119 112.061 102.033 111.721C98.8989 99.7851 90.8871 94.0585 80.0056 96.7844C69.3281 99.4592 64.7923 108.474 67.5523 119.491C70.2271 130.169 78.1711 136.202 89.4607 133.373C98.914 131.005 103.264 124.133 102.41 116.975C102.41 116.686 102.155 116.533 101.883 116.601L94.9458 118.339C94.6738 118.407 94.5719 118.577 94.572 118.866C94.7274 123.814 92.5013 126.757 88.1487 127.848ZM81.4366 102.208C86.8093 100.862 90.45 104.431 91.9826 109.107L74.9803 113.366C74.3312 107.313 76.4039 103.469 81.4366 102.208Z" fill="#021F69"/>
<path d="M127.508 123.842C136.689 121.542 141.311 114.313 139.997 106.186C139.929 105.914 139.691 105.829 139.419 105.897L132.618 107.6C132.346 107.669 132.176 107.856 132.193 108.213C133.012 113.501 130.837 117.226 126.332 118.282C120.262 119.731 116.349 116.23 114.219 107.728C112.141 99.4312 113.89 94.295 119.926 92.7107C123.87 91.7226 127.34 93.4553 129.298 97.8075C129.451 98.1305 129.621 98.2325 129.893 98.1643L136.558 96.4947C136.83 96.4265 136.983 96.1714 136.847 95.9164C134.207 88.5548 127.37 84.9191 118.529 87.1339C107.511 89.894 103.094 98.8064 105.871 109.892C108.648 120.977 116.694 126.551 127.508 123.842Z" fill="#021F69"/>
<path d="M136.168 84.0883L137.395 88.985C137.463 89.257 137.718 89.4099 137.99 89.3418L149.348 86.4966L152.261 97.8371L156.469 115.214C156.538 115.486 156.793 115.639 157.065 115.57L164.41 113.73C164.682 113.662 164.835 113.407 164.767 113.135L160.286 95.8267L157.509 84.4521L168.867 81.6069C169.139 81.5388 169.291 81.2836 169.223 81.0116L167.997 76.1149C167.929 75.8429 167.673 75.69 167.401 75.7581L136.525 83.493C136.253 83.5611 136.1 83.8163 136.168 84.0883Z" fill="#021F69"/>
<path d="M186.572 98.7103L184.493 89.835L180.421 73.0026C180.352 72.7305 180.097 72.5776 179.825 72.6458L172.548 74.4687C172.276 74.5369 172.123 74.792 172.191 75.0641L176.399 91.2843L180.727 109.137C180.795 109.409 181.05 109.562 181.322 109.494L190.028 107.313C190.232 107.262 190.487 107.126 190.555 106.819L198.363 77.6872L200.254 85.8144L204.462 103.191C204.531 103.463 204.786 103.616 205.058 103.548L212.267 101.742C212.539 101.674 212.692 101.418 212.624 101.146L208.143 83.8381L204.088 67.0737C204.02 66.8016 203.765 66.6487 203.493 66.7168L194.923 68.8635C194.719 68.9146 194.464 69.0508 194.396 69.3569L186.572 98.7103Z" fill="#021F69"/>
<path d="M228.063 59.8388C223.371 61.0144 220.209 63.9747 218.681 67.9715L217.743 63.6528C217.675 63.3807 217.42 63.2278 217.148 63.296L209.871 65.1189C209.599 65.1871 209.446 65.4422 209.514 65.7143L214.591 85.4029L220.946 111.349C221.014 111.621 221.27 111.774 221.542 111.705L228.887 109.865C229.159 109.797 229.312 109.542 229.243 109.27L225.24 93.866C228.438 96.5342 232.417 97.4165 236.974 96.275C246.359 93.9239 249.96 84.3487 247.421 74.2152C244.866 64.0138 237.721 57.4196 228.063 59.8388ZM233.401 91.2434C227.824 92.6405 223.588 88.7145 221.595 80.4683C219.635 72.3581 221.724 67.4258 227.233 66.0458C233.082 64.5806 237.148 68.6938 239.175 76.7869C241.066 84.3359 239.318 89.7612 233.401 91.2434Z" fill="#021F69"/>
<path d="M265.759 100.628L272.628 98.9077C272.9 98.8396 273.053 98.5844 273.07 98.3634L277.348 48.7935C277.416 48.4874 277.212 48.2494 276.872 48.3346L269.527 50.1746C269.255 50.2427 269.085 50.4299 269.085 50.7189L267.771 76.9234L252.83 54.7908C252.694 54.5358 252.456 54.4509 252.184 54.5191L243.955 56.5805C243.615 56.6657 243.462 56.9209 243.683 57.2268L266.314 88.4191L265.283 100.17C265.215 100.476 265.419 100.714 265.759 100.628Z" fill="#021F69"/>
<path d="M303.053 74.0115C297.204 75.4767 293.207 72.5029 290.942 64.903L316.581 58.48C316.853 58.4118 317.023 58.2247 316.938 57.8847C313.803 45.9491 305.792 40.2224 294.91 42.9484C284.233 45.6232 279.697 54.6377 282.457 65.6553C285.132 76.3327 293.076 82.3655 304.365 79.5373C313.818 77.1692 318.168 70.2973 317.315 63.1388C317.315 62.8498 317.059 62.6968 316.787 62.765L309.85 64.5028C309.578 64.5709 309.476 64.741 309.477 65.0301C309.632 69.9783 307.406 72.9211 303.053 74.0115ZM296.341 48.3721C301.714 47.0262 305.355 50.5953 306.887 55.2708L289.885 59.5301C289.236 53.4768 291.308 49.6328 296.341 48.3721Z" fill="#021F69"/>
<path d="M342.874 59.4102L327.015 36.2068C326.879 35.9518 326.641 35.8669 326.369 35.935L317.323 38.2009C317.051 38.2691 316.898 38.5242 316.967 38.7963L321.413 55.9686L325.502 72.869C325.57 73.141 325.825 73.294 326.098 73.2258L331.674 71.8288C331.946 71.7606 332.099 71.5055 332.031 71.2334L328.01 55.4723L326.017 48.0933L325.132 45.135L341.433 68.9503C341.57 69.2053 341.808 69.2902 342.08 69.2221L347.044 67.9784C347.316 67.9102 347.486 67.7231 347.486 67.434L350.482 39.2903L351.096 41.7386L352.834 49.2537L356.786 65.0319C356.855 65.304 357.11 65.4569 357.382 65.3887L364.251 63.668C364.523 63.5998 364.676 63.3447 364.608 63.0726L360.314 46.2233L356.072 28.9999C356.004 28.7279 355.749 28.575 355.477 28.6431L346.363 30.9261C346.091 30.9942 345.921 31.1814 345.922 31.4704L342.874 59.4102Z" fill="#021F69"/>
<path d="M57.1978 115.436L52.9042 97.7191L66.3021 94.3628C66.5741 94.2947 66.727 94.0395 66.6589 93.7675L65.33 88.4628C65.2618 88.1907 65.0067 88.0378 64.7346 88.106L29.5738 96.9142C29.3017 96.9823 29.1488 97.2375 29.217 97.5095L30.5459 102.814C30.614 103.086 30.8691 103.239 31.1412 103.171L44.471 99.8317L49.1047 117.463L54.6423 140.722C54.7105 140.995 54.9656 141.147 55.2377 141.079L62.9227 139.154C63.1948 139.086 63.3477 138.831 63.2795 138.559L57.1978 115.436Z" stroke="white" stroke-width="57.0618" stroke-linejoin="round" mask="url(#path-1-outside-1_468_343)"/>
<path d="M88.1487 127.848C82.2998 129.313 78.3024 126.339 76.0371 118.739L101.677 112.316C101.949 112.248 102.119 112.061 102.033 111.721C98.8989 99.7851 90.8871 94.0585 80.0056 96.7844C69.3281 99.4592 64.7923 108.474 67.5523 119.491C70.2271 130.169 78.1711 136.202 89.4607 133.373C98.914 131.005 103.264 124.133 102.41 116.975C102.41 116.686 102.155 116.533 101.883 116.601L94.9458 118.339C94.6738 118.407 94.5719 118.577 94.572 118.866C94.7274 123.814 92.5013 126.757 88.1487 127.848ZM81.4366 102.208C86.8093 100.862 90.45 104.431 91.9826 109.107L74.9803 113.366C74.3312 107.313 76.4039 103.469 81.4366 102.208Z" stroke="white" stroke-width="57.0618" stroke-linejoin="round" mask="url(#path-1-outside-1_468_343)"/>
<path d="M127.508 123.842C136.689 121.542 141.311 114.313 139.997 106.186C139.929 105.914 139.691 105.829 139.419 105.897L132.618 107.6C132.346 107.669 132.176 107.856 132.193 108.213C133.012 113.501 130.837 117.226 126.332 118.282C120.262 119.731 116.349 116.23 114.219 107.728C112.141 99.4312 113.89 94.295 119.926 92.7107C123.87 91.7226 127.34 93.4553 129.298 97.8075C129.451 98.1305 129.621 98.2325 129.893 98.1643L136.558 96.4947C136.83 96.4265 136.983 96.1714 136.847 95.9164C134.207 88.5548 127.37 84.9191 118.529 87.1339C107.511 89.894 103.094 98.8064 105.871 109.892C108.648 120.977 116.694 126.551 127.508 123.842Z" stroke="white" stroke-width="57.0618" stroke-linejoin="round" mask="url(#path-1-outside-1_468_343)"/>
<path d="M136.168 84.0883L137.395 88.985C137.463 89.257 137.718 89.4099 137.99 89.3418L149.348 86.4966L152.261 97.8371L156.469 115.214C156.538 115.486 156.793 115.639 157.065 115.57L164.41 113.73C164.682 113.662 164.835 113.407 164.767 113.135L160.286 95.8267L157.509 84.4521L168.867 81.6069C169.139 81.5388 169.291 81.2836 169.223 81.0116L167.997 76.1149C167.929 75.8429 167.673 75.69 167.401 75.7581L136.525 83.493C136.253 83.5611 136.1 83.8163 136.168 84.0883Z" stroke="white" stroke-width="57.0618" stroke-linejoin="round" mask="url(#path-1-outside-1_468_343)"/>
<path d="M186.572 98.7103L184.493 89.835L180.421 73.0026C180.352 72.7305 180.097 72.5776 179.825 72.6458L172.548 74.4687C172.276 74.5369 172.123 74.792 172.191 75.0641L176.399 91.2843L180.727 109.137C180.795 109.409 181.05 109.562 181.322 109.494L190.028 107.313C190.232 107.262 190.487 107.126 190.555 106.819L198.363 77.6872L200.254 85.8144L204.462 103.191C204.531 103.463 204.786 103.616 205.058 103.548L212.267 101.742C212.539 101.674 212.692 101.418 212.624 101.146L208.143 83.8381L204.088 67.0737C204.02 66.8016 203.765 66.6487 203.493 66.7168L194.923 68.8635C194.719 68.9146 194.464 69.0508 194.396 69.3569L186.572 98.7103Z" stroke="white" stroke-width="57.0618" stroke-linejoin="round" mask="url(#path-1-outside-1_468_343)"/>
<path d="M228.063 59.8388C223.371 61.0144 220.209 63.9747 218.681 67.9715L217.743 63.6528C217.675 63.3807 217.42 63.2278 217.148 63.296L209.871 65.1189C209.599 65.1871 209.446 65.4422 209.514 65.7143L214.591 85.4029L220.946 111.349C221.014 111.621 221.27 111.774 221.542 111.705L228.887 109.865C229.159 109.797 229.312 109.542 229.243 109.27L225.24 93.866C228.438 96.5342 232.417 97.4165 236.974 96.275C246.359 93.9239 249.96 84.3487 247.421 74.2152C244.866 64.0138 237.721 57.4196 228.063 59.8388ZM233.401 91.2434C227.824 92.6405 223.588 88.7145 221.595 80.4683C219.635 72.3581 221.724 67.4258 227.233 66.0458C233.082 64.5806 237.148 68.6938 239.175 76.7869C241.066 84.3359 239.318 89.7612 233.401 91.2434Z" stroke="white" stroke-width="57.0618" stroke-linejoin="round" mask="url(#path-1-outside-1_468_343)"/>
<path d="M265.759 100.628L272.628 98.9077C272.9 98.8396 273.053 98.5844 273.07 98.3634L277.348 48.7935C277.416 48.4874 277.212 48.2494 276.872 48.3346L269.527 50.1746C269.255 50.2427 269.085 50.4299 269.085 50.7189L267.771 76.9234L252.83 54.7908C252.694 54.5358 252.456 54.4509 252.184 54.5191L243.955 56.5805C243.615 56.6657 243.462 56.9209 243.683 57.2268L266.314 88.4191L265.283 100.17C265.215 100.476 265.419 100.714 265.759 100.628Z" stroke="white" stroke-width="57.0618" stroke-linejoin="round" mask="url(#path-1-outside-1_468_343)"/>
<path d="M303.053 74.0115C297.204 75.4767 293.207 72.5029 290.942 64.903L316.581 58.48C316.853 58.4118 317.023 58.2247 316.938 57.8847C313.803 45.9491 305.792 40.2224 294.91 42.9484C284.233 45.6232 279.697 54.6377 282.457 65.6553C285.132 76.3327 293.076 82.3655 304.365 79.5373C313.818 77.1692 318.168 70.2973 317.315 63.1388C317.315 62.8498 317.059 62.6968 316.787 62.765L309.85 64.5028C309.578 64.5709 309.476 64.741 309.477 65.0301C309.632 69.9783 307.406 72.9211 303.053 74.0115ZM296.341 48.3721C301.714 47.0262 305.355 50.5953 306.887 55.2708L289.885 59.5301C289.236 53.4768 291.308 49.6328 296.341 48.3721Z" stroke="white" stroke-width="57.0618" stroke-linejoin="round" mask="url(#path-1-outside-1_468_343)"/>
<path d="M342.874 59.4102L327.015 36.2068C326.879 35.9518 326.641 35.8669 326.369 35.935L317.323 38.2009C317.051 38.2691 316.898 38.5242 316.967 38.7963L321.413 55.9686L325.502 72.869C325.57 73.141 325.825 73.294 326.098 73.2258L331.674 71.8288C331.946 71.7606 332.099 71.5055 332.031 71.2334L328.01 55.4723L326.017 48.0933L325.132 45.135L341.433 68.9503C341.57 69.2053 341.808 69.2902 342.08 69.2221L347.044 67.9784C347.316 67.9102 347.486 67.7231 347.486 67.434L350.482 39.2903L351.096 41.7386L352.834 49.2537L356.786 65.0319C356.855 65.304 357.11 65.4569 357.382 65.3887L364.251 63.668C364.523 63.5998 364.676 63.3447 364.608 63.0726L360.314 46.2233L356.072 28.9999C356.004 28.7279 355.749 28.575 355.477 28.6431L346.363 30.9261C346.091 30.9942 345.921 31.1814 345.922 31.4704L342.874 59.4102Z" stroke="white" stroke-width="57.0618" stroke-linejoin="round" mask="url(#path-1-outside-1_468_343)"/>
</svg>
